<?xml version="1.0" encoding="UTF-8" standalone="no"?><!DOCTYPE svg PUBLIC "-//W3C//DTD SVG 1.1//EN" "http://www.w3.org/Graphics/SVG/1.1/DTD/svg11.dtd"><svg width="100%" height="100%" viewBox="0 0 320 320" version="1.1" xmlns="http://www.w3.org/2000/svg" xmlns:xlink="http://www.w3.org/1999/xlink" xml:space="preserve" style="fill-rule:evenodd;clip-rule:evenodd;stroke-linecap:round;stroke-linejoin:round;stroke-miterlimit:10;"><g id="圖層_2"><g><g><g opacity="0.5"><path d="M39.826,117.421c-1.84,0 -3.313,-1.472 -3.313,-3.313l0,-11.782c0,-1.841 1.473,-3.314 3.313,-3.314c1.841,0 3.314,1.473 3.314,3.314l0,11.782c0,1.841 -1.473,3.313 -3.314,3.313Z" style="fill:#d87341;fill-rule:nonzero;"/><path d="M26.94,121.348c-1.595,0.86 -3.559,0.369 -4.418,-1.227l-5.891,-10.186c-0.859,-1.595 -0.368,-3.559 1.228,-4.418c1.595,-0.859 3.559,-0.368 4.418,1.227l5.89,10.186c0.86,1.596 0.246,3.559 -1.227,4.418Z" style="fill:#d87341;fill-rule:nonzero;"/><path d="M61.917,106.131c-1.595,-0.86 -3.559,-0.369 -4.418,1.227l-5.891,10.186c-0.859,1.595 -0.368,3.559 1.227,4.418c1.596,0.859 3.559,0.368 4.418,-1.227l5.891,-10.186c0.859,-1.596 0.246,-3.559 -1.227,-4.418Z" style="fill:#d87341;fill-rule:nonzero;"/></g></g><g><g opacity="0.2"><path d="M175.684,147.121c-1.841,0 -3.314,-1.473 -3.314,-3.314l0,-11.781c0,-1.841 1.473,-3.314 3.314,-3.314c1.841,0 3.313,1.473 3.313,3.314l0,11.781c0,1.964 -1.472,3.314 -3.313,3.314Z" style="fill:#d87341;fill-rule:nonzero;"/><path d="M162.798,151.171c-1.596,0.859 -3.559,0.368 -4.419,-1.227l-5.89,-10.187c-0.859,-1.595 -0.369,-3.559 1.227,-4.418c1.595,-0.859 3.559,-0.368 4.418,1.227l5.891,10.187c0.859,1.472 0.245,3.559 -1.227,4.418Z" style="fill:#d87341;fill-rule:nonzero;"/><path d="M197.774,135.83c-1.595,-0.859 -3.559,-0.368 -4.418,1.227l-5.891,10.187c-0.859,1.595 -0.368,3.559 1.228,4.418c1.595,0.859 3.559,0.368 4.418,-1.228l5.891,-10.186c0.859,-1.472 0.245,-3.436 -1.228,-4.418Z" style="fill:#d87341;fill-rule:nonzero;"/></g></g><g><g opacity="0.5"><path d="M201.456,77.167c-1.841,0 -3.313,-1.472 -3.313,-3.313l0,-11.782c0,-1.841 1.472,-3.314 3.313,-3.314c1.841,0 3.314,1.473 3.314,3.314l0,11.782c-0.123,1.841 -1.596,3.313 -3.314,3.313Z" style="fill:#d87341;fill-rule:nonzero;"/><path d="M188.447,81.217c-1.595,0.859 -3.559,0.368 -4.418,-1.227l-5.891,-10.186c-0.859,-1.596 -0.368,-3.559 1.228,-4.418c1.595,-0.86 3.559,-0.369 4.418,1.227l5.891,10.186c0.859,1.473 0.368,3.436 -1.228,4.418Z" style="fill:#d87341;fill-rule:nonzero;"/><path d="M223.424,65.876c-1.595,-0.859 -3.559,-0.368 -4.418,1.228l-5.891,10.186c-0.859,1.595 -0.368,3.559 1.227,4.418c1.596,0.859 3.559,0.368 4.419,-1.227l5.89,-10.186c0.859,-1.473 0.369,-3.559 -1.227,-4.419Z" style="fill:#d87341;fill-rule:nonzero;"/></g></g><g><g opacity="0.8"><path d="M121.194,90.913c-1.841,0 -3.314,-1.473 -3.314,-3.314l0,-9.45c0,-1.841 1.473,-3.314 3.314,-3.314c1.84,0 3.313,1.473 3.313,3.314l0,9.45c-0.123,1.841 -1.595,3.314 -3.313,3.314Z" style="fill:#d87341;fill-rule:nonzero;"/><path d="M107.571,95.085c-1.595,0.859 -3.559,0.368 -4.418,-1.227l-4.664,-8.223c-0.859,-1.595 -0.368,-3.559 1.228,-4.418c1.595,-0.859 3.559,-0.368 4.418,1.227l4.663,8.223c0.859,1.473 0.368,3.436 -1.227,4.418Z" style="fill:#d87341;fill-rule:nonzero;"/><path d="M142.548,81.708c-1.596,-0.859 -3.559,-0.368 -4.418,1.227l-4.664,8.223c-0.859,1.595 -0.368,3.559 1.227,4.418c1.596,0.859 3.559,0.368 4.419,-1.227l4.663,-8.223c0.859,-1.472 0.368,-3.436 -1.227,-4.418Z" style="fill:#d87341;fill-rule:nonzero;"/></g></g><g><g opacity="0.5"><path d="M254.106,149.575c-1.841,0 -3.314,-1.472 -3.314,-3.313l0,-5.768c0,-1.841 1.473,-3.314 3.314,-3.314c1.84,0 3.313,1.473 3.313,3.314l0,5.768c0,1.841 -1.473,3.313 -3.313,3.313Z" style="fill:#d87341;fill-rule:nonzero;"/><path d="M239.624,153.871c-1.596,0.859 -3.559,0.368 -4.418,-1.227l-2.823,-5.032c-0.859,-1.596 -0.368,-3.559 1.227,-4.418c1.596,-0.859 3.559,-0.368 4.418,1.227l2.823,5.032c0.859,1.595 0.368,3.559 -1.227,4.418Z" style="fill:#d87341;fill-rule:nonzero;"/><path d="M274.601,143.807c-1.596,-0.859 -3.559,-0.368 -4.418,1.228l-2.823,5.031c-0.859,1.596 -0.368,3.559 1.227,4.418c1.596,0.86 3.559,0.369 4.418,-1.227l2.823,-5.032c0.859,-1.472 0.368,-3.559 -1.227,-4.418Z" style="fill:#d87341;fill-rule:nonzero;"/></g></g><g><g opacity="0.2"><path d="M91.494,148.962c-1.841,0 -3.314,-1.473 -3.314,-3.314l0,-5.768c0,-1.841 1.473,-3.314 3.314,-3.314c1.841,0 3.314,1.473 3.314,3.314l0,5.768c0,1.841 -1.473,3.314 -3.314,3.314Z" style="fill:#d87341;fill-rule:nonzero;"/><path d="M77.012,153.38c-1.595,0.859 -3.559,0.368 -4.418,-1.227l-2.823,-5.032c-0.859,-1.596 -0.368,-3.559 1.228,-4.418c1.595,-0.859 3.559,-0.368 4.418,1.227l2.823,5.032c0.859,1.472 0.368,3.559 -1.228,4.418Z" style="fill:#d87341;fill-rule:nonzero;"/></g></g><g><path d="M281.842,95.699c-1.841,0 -3.314,-1.473 -3.314,-3.314l0,-5.768c0,-1.841 1.473,-3.313 3.314,-3.313c1.84,0 3.313,1.472 3.313,3.313l0,5.768c0,1.841 -1.473,3.314 -3.313,3.314Z" style="fill:#d87341;fill-opacity:0.2;fill-rule:nonzero;"/><path d="M267.36,100.117c-1.596,0.859 -3.559,0.368 -4.418,-1.227l-2.823,-5.032c-0.859,-1.595 -0.368,-3.559 1.227,-4.418c1.596,-0.859 3.559,-0.368 4.418,1.227l2.823,5.032c0.859,1.473 0.368,3.436 -1.227,4.418Z" style="fill:#d87341;fill-opacity:0.2;fill-rule:nonzero;"/><path d="M302.337,89.317c-1.596,-0.859 -3.559,-0.368 -4.418,1.227l-2.823,5.032c-0.859,1.596 -0.368,3.559 1.227,4.418c1.596,0.859 3.559,0.368 4.418,-1.227l2.823,-5.032c0.859,-1.472 0.368,-3.559 -1.227,-4.418Z" style="fill:#d87341;fill-opacity:0.2;fill-rule:nonzero;"/></g><g><g><g><path d="M87.444,195.352l0,-27.613c0,-2.332 -1.964,-4.296 -4.295,-4.296c-2.332,0 -4.296,1.964 -4.296,4.296l0,27.613c0,2.332 1.964,4.296 4.296,4.296c2.454,0 4.295,-1.964 4.295,-4.296Z" style="fill:none;stroke:#d87341;stroke-width:3.68px;"/><path d="M96.035,195.598l0,-30.314c0,-2.331 -1.964,-4.295 -4.296,-4.295c-2.331,0 -4.295,1.964 -4.295,4.295l0,30.314c0,2.331 1.964,4.295 4.295,4.295c2.455,0 4.296,-1.964 4.296,-4.295Z" style="fill:none;stroke:#d87341;stroke-width:3.68px;"/><path d="M99.471,162.953c-1.963,0.368 -3.436,2.086 -3.436,4.172l0,27.613c0,2.332 1.963,4.296 4.295,4.296c2.332,0 4.296,-1.964 4.296,-4.296l0,-20.004" style="fill:none;stroke:#d87341;stroke-width:3.68px;"/><path d="M105.73,175.225c-0.613,0.736 -1.104,1.718 -1.104,2.823l0,17.059c0,2.331 1.963,4.295 4.295,4.295" style="fill:none;stroke:#d87341;stroke-width:3.68px;"/><path d="M78.976,203.207l0,-12.396c0,-2.7 -2.209,-4.786 -4.786,-4.786l-0.246,0c-2.7,0 -4.786,2.209 -4.786,4.786l0,2.209" style="fill:none;stroke:#d87341;stroke-width:3.68px;"/><path d="M110.271,222.106c-3.314,6.259 -9.941,10.555 -17.55,10.555c-2.332,0 -4.418,-0.368 -6.504,-1.105" style="fill:none;stroke:#d87341;stroke-width:3.68px;"/><path d="M86.462,209.588c3.068,2.823 4.909,6.873 4.909,11.414" style="fill:none;stroke:#d87341;stroke-width:3.68px;"/></g><path d="M83.394,251.806l0,55.227" style="fill:none;stroke:#d87341;stroke-width:3.68px;"/><path d="M104.257,229.715l0,77.318" style="fill:none;stroke:#d87341;stroke-width:3.68px;"/></g><g><g><path d="M141.443,224.806l0,-27.613c0,-2.332 -1.963,-4.295 -4.295,-4.295c-2.332,0 -4.295,1.963 -4.295,4.295l0,27.613c0,2.332 1.963,4.296 4.295,4.296c2.454,0 4.295,-1.964 4.295,-4.296Z" style="fill:none;stroke:#275623;stroke-width:3.68px;"/><path d="M149.543,192.775c-0.736,-1.35 -2.086,-2.209 -3.804,-2.209c-2.332,0 -4.296,1.963 -4.296,4.295l0,30.313c0,2.332 1.964,4.296 4.296,4.296c2.332,0 4.295,-1.964 4.295,-4.296l0,-20.004" style="fill:none;stroke:#275623;stroke-width:3.68px;"/><path d="M150.034,206.766l0,17.549c0,2.332 1.964,4.296 4.296,4.296c2.331,0 4.295,-1.964 4.295,-4.296l0,-0.736" style="fill:none;stroke:#275623;stroke-width:3.68px;"/><path d="M158.625,224.438c0,2.332 1.964,4.296 4.295,4.296c0.859,0 1.596,-0.246 2.332,-0.614" style="fill:none;stroke:#275623;stroke-width:3.68px;"/><path d="M132.975,234.379l0,-14.114c0,-2.7 -2.209,-4.786 -4.786,-4.786l-0.246,0c-2.699,0 -4.786,2.209 -4.786,4.786l0,14.114c0,2.7 2.209,4.786 4.786,4.786l0.246,0c2.577,0 4.786,-2.209 4.786,-4.786Z" style="fill:none;stroke:#275623;stroke-width:3.68px;"/><path d="M162.184,254.751c-3.682,4.418 -9.204,7.364 -15.341,7.364c-10.922,0 -19.881,-8.959 -19.881,-19.882l0,-2.331" style="fill:none;stroke:#275623;stroke-width:3.68px;"/><path d="M140.462,239.042c3.068,2.823 4.909,6.873 4.909,11.414" style="fill:none;stroke:#275623;stroke-width:3.68px;"/></g><path d="M137.393,260.397l0,46.636" style="fill:none;stroke:#275623;stroke-width:3.68px;"/><path d="M158.257,259.169l0,47.864" style="fill:none;stroke:#275623;stroke-width:3.68px;"/></g><g><g><path d="M114.444,143.807l0,-27.613c0,-2.332 -1.964,-4.295 -4.296,-4.295c-2.332,0 -4.295,1.963 -4.295,4.295l0,27.613c0,2.332 1.963,4.296 4.295,4.296c2.455,0 4.296,-1.964 4.296,-4.296Z" style="fill:none;stroke:#275623;stroke-width:3.68px;"/><path d="M123.034,144.053l0,-30.313c0,-2.332 -1.963,-4.296 -4.295,-4.296c-2.332,0 -4.295,1.964 -4.295,4.296l0,30.313c0,2.332 1.963,4.295 4.295,4.295c2.455,0 4.295,-1.963 4.295,-4.295Z" style="fill:none;stroke:#275623;stroke-width:3.68px;"/><path d="M131.625,143.194l0,-27.614c0,-2.331 -1.963,-4.295 -4.295,-4.295c-2.332,0 -4.296,1.964 -4.296,4.295l0,27.614c0,2.331 1.964,4.295 4.296,4.295c2.332,0 4.295,-1.841 4.295,-4.295Z" style="fill:none;stroke:#275623;stroke-width:3.68px;"/><path d="M140.216,143.439l0,-17.059c0,-2.332 -1.964,-4.295 -4.295,-4.295c-2.332,0 -4.296,1.963 -4.296,4.295l0,17.059c0,2.332 1.964,4.296 4.296,4.296c2.331,0 4.295,-1.841 4.295,-4.296Z" style="fill:none;stroke:#275623;stroke-width:3.68px;"/><path d="M105.976,153.38l0,-14.114c0,-2.7 -2.209,-4.786 -4.787,-4.786l-0.245,0c-2.7,0 -4.786,2.209 -4.786,4.786l0,14.114c0,2.7 2.209,4.786 4.786,4.786l0.245,0c2.578,0 4.787,-2.209 4.787,-4.786Z" style="fill:none;stroke:#275623;stroke-width:3.68px;"/><path d="M139.725,145.525l0,15.587c0,10.922 -8.959,19.881 -19.881,19.881c-10.923,0 -19.882,-8.959 -19.882,-19.881l0,-2.332" style="fill:none;stroke:#275623;stroke-width:3.68px;"/><path d="M113.462,158.043c3.068,2.823 4.909,6.873 4.909,11.414" style="fill:none;stroke:#275623;stroke-width:3.68px;"/></g><path d="M110.394,179.398l0,126.407" style="fill:none;stroke:#275623;stroke-width:3.68px;"/><path d="M131.257,255.488l0,50.317" style="fill:none;stroke:#275623;stroke-width:3.68px;"/><path d="M131.257,178.171l0,38.044" style="fill:none;stroke:#275623;stroke-width:3.68px;"/></g><g><g><path d="M51.976,200.997l0,23.809c0,2.332 1.964,4.296 4.296,4.296c2.331,0 4.295,-1.964 4.295,-4.296l0,-27.613c0,-1.964 -1.35,-3.682 -3.314,-4.173" style="fill:none;stroke:#275623;stroke-width:3.68px;"/><path d="M69.035,225.052l0,-30.314c0,-2.331 -1.963,-4.295 -4.295,-4.295c-2.332,0 -4.296,1.964 -4.296,4.295l0,30.314c0,2.332 1.964,4.295 4.296,4.295c2.454,0 4.295,-1.963 4.295,-4.295Z" style="fill:none;stroke:#275623;stroke-width:3.68px;"/><path d="M77.626,224.193l0,-27.614c0,-2.331 -1.964,-4.295 -4.295,-4.295c-2.332,0 -4.296,1.964 -4.296,4.295l0,27.614c0,2.331 1.964,4.295 4.296,4.295c2.331,0 4.295,-1.841 4.295,-4.295Z" style="fill:none;stroke:#275623;stroke-width:3.68px;"/><path d="M86.217,224.438l0,-17.059c0,-2.332 -1.964,-4.295 -4.296,-4.295c-2.331,0 -4.295,1.963 -4.295,4.295l0,17.059c0,2.332 1.964,4.296 4.295,4.296c2.332,0 4.296,-1.841 4.296,-4.296Z" style="fill:none;stroke:#275623;stroke-width:3.68px;"/><path d="M50.994,237.079c0.491,-0.736 0.86,-1.718 0.86,-2.7l0,-14.114c0,-1.472 -0.614,-2.822 -1.719,-3.681" style="fill:none;stroke:#275623;stroke-width:3.68px;"/><path d="M85.726,226.524l0,15.587c0,10.922 -8.959,19.881 -19.882,19.881c-6.259,0 -11.781,-2.945 -15.463,-7.363" style="fill:none;stroke:#275623;stroke-width:3.68px;"/><path d="M59.463,239.042c3.068,2.823 4.909,6.873 4.909,11.414" style="fill:none;stroke:#275623;stroke-width:3.68px;"/></g><path d="M56.394,260.397l0,46.636" style="fill:none;stroke:#275623;stroke-width:3.68px;"/><path d="M77.258,259.169l0,47.864" style="fill:none;stroke:#275623;stroke-width:3.68px;"/></g><g><g><path d="M33.445,168.352l0,-27.613c0,-2.332 -1.964,-4.295 -4.296,-4.295c-2.332,0 -4.295,1.963 -4.295,4.295l0,27.613c0,2.332 1.963,4.296 4.295,4.296c2.455,0 4.296,-1.964 4.296,-4.296Z" style="fill:none;stroke:#275623;stroke-width:3.68px;"/><path d="M42.035,168.598l0,-30.313c0,-2.332 -1.963,-4.296 -4.295,-4.296c-2.332,0 -4.295,1.964 -4.295,4.296l0,30.313c0,2.332 1.963,4.295 4.295,4.295c2.455,0 4.295,-1.963 4.295,-4.295Z" style="fill:none;stroke:#275623;stroke-width:3.68px;"/><path d="M50.626,167.739l0,-27.613c0,-2.332 -1.963,-4.296 -4.295,-4.296c-2.332,0 -4.296,1.964 -4.296,4.296l0,27.613c0,2.332 1.964,4.295 4.296,4.295c2.332,0 4.295,-1.841 4.295,-4.295Z" style="fill:none;stroke:#275623;stroke-width:3.68px;"/><path d="M59.217,167.984l0,-17.059c0,-2.331 -1.964,-4.295 -4.295,-4.295c-2.332,0 -4.296,1.964 -4.296,4.295l0,17.059c0,2.332 1.964,4.296 4.296,4.296c2.331,0 4.295,-1.841 4.295,-4.296Z" style="fill:none;stroke:#275623;stroke-width:3.68px;"/><path d="M24.977,177.925l0,-14.113c0,-2.7 -2.209,-4.787 -4.787,-4.787l-0.245,0c-2.7,0 -4.786,2.209 -4.786,4.787l0,14.113c0,2.7 2.209,4.786 4.786,4.786l0.245,0c2.578,0 4.787,-2.209 4.787,-4.786Z" style="fill:none;stroke:#275623;stroke-width:3.68px;"/><path d="M58.726,170.071l0,15.586c0,10.922 -8.959,19.881 -19.881,19.881c-10.923,0 -19.882,-8.959 -19.882,-19.881l0,-2.332" style="fill:none;stroke:#275623;stroke-width:3.68px;"/><path d="M32.463,182.589c3.068,2.822 4.909,6.872 4.909,11.413" style="fill:none;stroke:#275623;stroke-width:3.68px;"/></g><path d="M29.395,203.943l0,103.09" style="fill:none;stroke:#275623;stroke-width:3.68px;"/><path d="M50.258,202.716l0,103.089" style="fill:none;stroke:#275623;stroke-width:3.68px;"/></g><g><g><path d="M276.442,143.807l0,-27.613c0,-2.332 -1.964,-4.295 -4.296,-4.295c-2.332,0 -4.295,1.963 -4.295,4.295l0,27.613c0,0.491 0.123,1.105 0.245,1.596" style="fill:none;stroke:#275623;stroke-width:3.68px;"/><path d="M285.032,144.053l0,-30.313c0,-2.332 -1.963,-4.296 -4.295,-4.296c-2.332,0 -4.295,1.964 -4.295,4.296l0,30.313c0,2.332 1.963,4.295 4.295,4.295c2.455,0 4.295,-1.963 4.295,-4.295Z" style="fill:none;stroke:#275623;stroke-width:3.68px;"/><path d="M293.623,143.194l0,-27.614c0,-2.331 -1.963,-4.295 -4.295,-4.295c-2.332,0 -4.296,1.964 -4.296,4.295l0,27.614c0,2.331 1.964,4.295 4.296,4.295c2.332,0 4.295,-1.841 4.295,-4.295Z" style="fill:none;stroke:#275623;stroke-width:3.68px;"/><path d="M302.214,143.439l0,-17.059c0,-2.332 -1.964,-4.295 -4.295,-4.295c-2.332,0 -4.296,1.963 -4.296,4.295l0,17.059c0,2.332 1.964,4.296 4.296,4.296c2.331,0 4.295,-1.841 4.295,-4.296Z" style="fill:none;stroke:#275623;stroke-width:3.68px;"/><path d="M267.974,147.735l0,-8.346c0,-2.7 -2.21,-4.786 -4.787,-4.786l-0.245,0c-2.7,0 -4.787,2.209 -4.787,4.786l0,14.114c0,2.7 2.21,4.786 4.787,4.786l0.245,0c2.7,0 4.787,-2.209 4.787,-4.786" style="fill:none;stroke:#275623;stroke-width:3.68px;"/><path d="M301.723,145.525l0,15.587c0,10.922 -8.959,19.881 -19.881,19.881c-2.087,0 -4.05,-0.368 -6.014,-0.859" style="fill:none;stroke:#275623;stroke-width:3.68px;"/><path d="M275.46,158.043c3.068,2.823 4.909,6.873 4.909,11.414" style="fill:none;stroke:#275623;stroke-width:3.68px;"/></g><path d="M272.392,219.897l0,85.908" style="fill:none;stroke:#275623;stroke-width:3.68px;"/><path d="M293.255,178.171l0,128.862" style="fill:none;stroke:#275623;stroke-width:3.68px;"/></g><g><g><path d="M249.442,192.898l0,-27.614c0,-2.331 -1.964,-4.295 -4.295,-4.295c-2.332,0 -4.296,1.964 -4.296,4.295l0,27.614c0,2.331 1.964,4.295 4.296,4.295c2.454,0 4.295,-1.964 4.295,-4.295Z" style="fill:none;stroke:#d87341;stroke-width:3.68px;"/><path d="M258.033,193.143l0,-30.313c0,-2.332 -1.964,-4.296 -4.296,-4.296c-2.331,0 -4.295,1.964 -4.295,4.296l0,30.313c0,2.332 1.964,4.295 4.295,4.295c2.455,0 4.296,-1.963 4.296,-4.295Z" style="fill:none;stroke:#d87341;stroke-width:3.68px;"/><path d="M266.624,192.284l0,-27.613c0,-2.332 -1.964,-4.296 -4.296,-4.296c-2.332,0 -4.295,1.964 -4.295,4.296l0,27.613c0,2.332 1.963,4.295 4.295,4.295c2.332,0 4.296,-1.841 4.296,-4.295Z" style="fill:none;stroke:#d87341;stroke-width:3.68px;"/><path d="M275.214,192.529l0,-17.058c0,-2.332 -1.963,-4.296 -4.295,-4.296c-2.332,0 -4.295,1.964 -4.295,4.296l0,17.058c0,2.332 1.963,4.296 4.295,4.296c2.332,0 4.295,-1.841 4.295,-4.296Z" style="fill:none;stroke:#d87341;stroke-width:3.68px;"/><path d="M240.974,202.47l0,-14.113c0,-2.7 -2.209,-4.787 -4.786,-4.787l-0.246,0c-2.7,0 -4.786,2.21 -4.786,4.787l0,5.154" style="fill:none;stroke:#d87341;stroke-width:3.68px;"/><path d="M274.723,194.616l0,15.586c0,10.923 -8.959,19.881 -19.881,19.881c-2.332,0 -4.418,-0.368 -6.505,-1.104" style="fill:none;stroke:#d87341;stroke-width:3.68px;"/><path d="M248.46,207.134c3.068,2.822 4.909,6.872 4.909,11.413" style="fill:none;stroke:#d87341;stroke-width:3.68px;"/></g><path d="M245.392,251.806l0,55.227" style="fill:none;stroke:#d87341;stroke-width:3.68px;"/><path d="M266.255,227.261l0,79.772" style="fill:none;stroke:#d87341;stroke-width:3.68px;"/></g><g><g><path d="M222.442,224.806l0,-27.613c0,-2.332 -1.963,-4.295 -4.295,-4.295c-2.332,0 -4.296,1.963 -4.296,4.295l0,27.613c0,2.332 1.964,4.296 4.296,4.296c2.454,0 4.295,-1.964 4.295,-4.296Z" style="fill:none;stroke:#275623;stroke-width:3.68px;"/><path d="M231.033,225.052l0,-30.314c0,-2.331 -1.964,-4.295 -4.295,-4.295c-2.332,0 -4.296,1.964 -4.296,4.295l0,30.314c0,2.332 1.964,4.295 4.296,4.295c2.454,0 4.295,-1.963 4.295,-4.295Z" style="fill:none;stroke:#275623;stroke-width:3.68px;"/><path d="M239.624,224.193l0,-27.614c0,-2.331 -1.964,-4.295 -4.296,-4.295c-2.331,0 -4.295,1.964 -4.295,4.295l0,27.614c0,2.331 1.964,4.295 4.295,4.295c2.332,0 4.296,-1.841 4.296,-4.295Z" style="fill:none;stroke:#275623;stroke-width:3.68px;"/><path d="M248.215,224.438l0,-17.059c0,-2.332 -1.964,-4.295 -4.296,-4.295c-2.331,0 -4.295,1.963 -4.295,4.295l0,17.059c0,2.332 1.964,4.296 4.295,4.296c2.332,0 4.296,-1.841 4.296,-4.296Z" style="fill:none;stroke:#275623;stroke-width:3.68px;"/><path d="M213.974,234.379l0,-14.114c0,-2.7 -2.209,-4.786 -4.786,-4.786l-0.246,0c-2.7,0 -4.786,2.209 -4.786,4.786l0,14.114c0,2.7 2.209,4.786 4.786,4.786l0.246,0c2.577,0 4.786,-2.209 4.786,-4.786Z" style="fill:none;stroke:#275623;stroke-width:3.68px;"/><path d="M247.724,226.524l0,15.587c0,10.922 -8.959,19.881 -19.882,19.881c-10.922,0 -19.881,-8.959 -19.881,-19.881l0,-2.332" style="fill:none;stroke:#275623;stroke-width:3.68px;"/><path d="M221.46,239.042c3.069,2.823 4.91,6.873 4.91,11.414" style="fill:none;stroke:#275623;stroke-width:3.68px;"/></g><path d="M218.392,260.397l0,46.636" style="fill:none;stroke:#275623;stroke-width:3.68px;"/><path d="M239.256,259.169l0,47.864" style="fill:none;stroke:#275623;stroke-width:3.68px;"/></g><g><g><path d="M195.443,127.853l0,-27.613c0,-2.332 -1.964,-4.296 -4.296,-4.296c-2.332,0 -4.295,1.964 -4.295,4.296l0,27.613c0,2.332 1.963,4.295 4.295,4.295c2.455,0 4.296,-1.963 4.296,-4.295Z" style="fill:none;stroke:#275623;stroke-width:3.68px;"/><path d="M204.033,128.098l0,-30.313c0,-2.332 -1.963,-4.295 -4.295,-4.295c-2.332,0 -4.295,1.963 -4.295,4.295l0,30.313c0,2.332 1.963,4.296 4.295,4.296c2.455,0 4.295,-1.964 4.295,-4.296Z" style="fill:none;stroke:#275623;stroke-width:3.68px;"/><path d="M212.624,127.239l0,-27.613c0,-2.332 -1.963,-4.295 -4.295,-4.295c-2.332,0 -4.296,1.963 -4.296,4.295l0,27.613c0,2.332 1.964,4.296 4.296,4.296c2.332,0 4.295,-1.841 4.295,-4.296Z" style="fill:none;stroke:#275623;stroke-width:3.68px;"/><path d="M221.215,127.485l0,-17.059c0,-2.332 -1.964,-4.295 -4.295,-4.295c-2.332,0 -4.296,1.963 -4.296,4.295l0,17.059c0,2.332 1.964,4.295 4.296,4.295c2.331,0 4.295,-1.841 4.295,-4.295Z" style="fill:none;stroke:#275623;stroke-width:3.68px;"/><path d="M179.12,141.23c0.736,0.614 1.718,0.982 2.823,0.982l0.245,0c2.7,0 4.787,-2.209 4.787,-4.786l0,-14.114c0,-2.7 -2.21,-4.786 -4.787,-4.786l-0.245,0c-2.7,0 -4.786,2.209 -4.786,4.786l0,7.241" style="fill:none;stroke:#275623;stroke-width:3.68px;"/><path d="M220.724,129.571l0,15.586c0,10.923 -8.959,19.882 -19.881,19.882c-10.923,0 -19.882,-8.959 -19.882,-19.882l0,-2.331" style="fill:none;stroke:#275623;stroke-width:3.68px;"/><path d="M196.547,144.421c1.841,2.577 2.946,5.645 2.946,9.082" style="fill:none;stroke:#275623;stroke-width:3.68px;"/></g><path d="M191.393,219.897l0,85.908" style="fill:none;stroke:#275623;stroke-width:3.68px;"/><path d="M191.393,163.443l0,7.364" style="fill:none;stroke:#275623;stroke-width:3.68px;"/><path d="M212.256,255.488l0,50.317" style="fill:none;stroke:#275623;stroke-width:3.68px;"/><path d="M212.256,162.216l0,53.999" style="fill:none;stroke:#275623;stroke-width:3.68px;"/></g><g><g><path d="M168.443,192.898l0,-27.614c0,-2.331 -1.964,-4.295 -4.295,-4.295c-2.332,0 -4.296,1.964 -4.296,4.295l0,27.614c0,2.331 1.964,4.295 4.296,4.295c2.454,0 4.295,-1.964 4.295,-4.295Z" style="fill:none;stroke:#d87341;stroke-width:3.68px;"/><path d="M177.034,193.143l0,-30.313c0,-2.332 -1.964,-4.296 -4.296,-4.296c-2.331,0 -4.295,1.964 -4.295,4.296l0,30.313c0,2.332 1.964,4.295 4.295,4.295c2.455,0 4.296,-1.963 4.296,-4.295Z" style="fill:none;stroke:#d87341;stroke-width:3.68px;"/><path d="M185.625,192.284l0,-27.613c0,-2.332 -1.964,-4.296 -4.296,-4.296c-2.332,0 -4.295,1.964 -4.295,4.296l0,27.613c0,2.332 1.963,4.295 4.295,4.295c2.332,0 4.296,-1.841 4.296,-4.295Z" style="fill:none;stroke:#d87341;stroke-width:3.68px;"/><path d="M194.215,192.529l0,-17.058c0,-2.332 -1.963,-4.296 -4.295,-4.296c-2.332,0 -4.295,1.964 -4.295,4.296l0,17.058c0,2.332 1.963,4.296 4.295,4.296c2.332,0 4.295,-1.841 4.295,-4.296Z" style="fill:none;stroke:#d87341;stroke-width:3.68px;"/><path d="M159.975,202.47l0,-14.113c0,-2.7 -2.209,-4.787 -4.786,-4.787l-0.246,0c-2.7,0 -4.786,2.21 -4.786,4.787l0,14.113c0,2.7 2.209,4.787 4.786,4.787l0.246,0c2.577,0 4.786,-2.21 4.786,-4.787Z" style="fill:none;stroke:#d87341;stroke-width:3.68px;"/><path d="M193.724,194.616l0,15.586c0,10.923 -8.959,19.881 -19.881,19.881c-10.923,0 -19.882,-8.958 -19.882,-19.881l0,-2.332" style="fill:none;stroke:#d87341;stroke-width:3.68px;"/><path d="M167.461,207.134c3.068,2.822 4.909,6.872 4.909,11.413" style="fill:none;stroke:#d87341;stroke-width:3.68px;"/></g><path d="M163.166,228.488l0,78.545" style="fill:none;stroke:#d87341;stroke-width:3.68px;"/><path d="M184.029,227.261l0,79.772" style="fill:none;stroke:#d87341;stroke-width:3.68px;"/></g><g><path d="M201.333,78.64c-1.718,0 -3.068,-1.35 -3.068,-3.068l0,-14.85c0,-1.718 1.35,-3.068 3.068,-3.068c1.719,0 3.069,1.35 3.069,3.068l0,14.85c0,1.595 -1.35,3.068 -3.069,3.068Z" style="fill:none;stroke:#275623;stroke-width:3.68px;"/><path d="M188.815,82.076c-1.472,0.859 -3.313,0.368 -4.172,-1.104l-7.364,-12.764c-0.859,-1.472 -0.368,-3.313 1.105,-4.172c1.472,-0.859 3.313,-0.369 4.172,1.104l7.364,12.764c0.859,1.472 0.368,3.436 -1.105,4.172Z" style="fill:none;stroke:#275623;stroke-width:3.68px;"/><path d="M223.792,64.036c-1.472,-0.859 -3.313,-0.369 -4.172,1.104l-7.364,12.764c-0.859,1.472 -0.368,3.313 1.105,4.172c1.472,0.859 3.313,0.368 4.172,-1.104l7.364,-12.764c0.859,-1.472 0.368,-3.313 -1.105,-4.172Z" style="fill:none;stroke:#275623;stroke-width:3.68px;"/></g><g><path d="M40.072,118.649c-1.718,0 -3.068,-1.35 -3.068,-3.069l0,-12.272c0,-1.718 1.35,-3.068 3.068,-3.068c1.718,0 3.068,1.35 3.068,3.068l0,12.272c0,1.719 -1.35,3.069 -3.068,3.069Z" style="fill:none;stroke:#275623;stroke-width:3.68px;"/><path d="M26.94,122.33c-1.472,0.859 -3.313,0.368 -4.172,-1.104l-6.137,-10.677c-0.859,-1.473 -0.368,-3.314 1.105,-4.173c1.472,-0.859 3.313,-0.368 4.172,1.104l6.137,10.678c0.859,1.472 0.368,3.436 -1.105,4.172Z" style="fill:none;stroke:#275623;stroke-width:3.68px;"/><path d="M61.917,106.376c-1.473,-0.859 -3.314,-0.368 -4.173,1.104l-6.136,10.678c-0.859,1.472 -0.368,3.313 1.105,4.172c1.472,0.859 3.313,0.368 4.172,-1.104l6.137,-10.677c0.859,-1.473 0.368,-3.314 -1.105,-4.173Z" style="fill:none;stroke:#275623;stroke-width:3.68px;"/></g><g><path d="M121.071,92.017c-1.718,0 -3.068,-1.35 -3.068,-3.068l0,-9.941c0,-1.718 1.35,-3.068 3.068,-3.068c1.718,0 3.068,1.35 3.068,3.068l0,9.941c0,1.595 -1.35,3.068 -3.068,3.068Z" style="fill:none;stroke:#275623;stroke-width:3.68px;"/><path d="M107.326,95.822c-1.473,0.859 -3.314,0.368 -4.173,-1.105l-4.909,-8.591c-0.859,-1.472 -0.368,-3.313 1.104,-4.172c1.473,-0.86 3.314,-0.369 4.173,1.104l4.909,8.591c0.859,1.473 0.368,3.313 -1.104,4.173Z" style="fill:none;stroke:#275623;stroke-width:3.68px;"/><path d="M142.302,82.076c-1.472,-0.859 -3.313,-0.368 -4.172,1.105l-4.909,8.591c-0.859,1.472 -0.368,3.313 1.104,4.172c1.473,0.859 3.314,0.368 4.173,-1.104l4.909,-8.591c0.859,-1.473 0.368,-3.436 -1.105,-4.173Z" style="fill:none;stroke:#275623;stroke-width:3.68px;"/></g><g><path d="M175.684,146.507c-1.718,0 -3.068,-1.35 -3.068,-3.068l0,-9.941c0,-1.718 1.35,-3.068 3.068,-3.068c1.718,0 3.068,1.35 3.068,3.068l0,9.941c0,1.718 -1.35,3.068 -3.068,3.068Z" style="fill:none;stroke:#275623;stroke-width:3.68px;"/><path d="M161.939,150.434c-1.473,0.86 -3.314,0.369 -4.173,-1.104l-4.909,-8.591c-0.859,-1.473 -0.368,-3.313 1.104,-4.173c1.473,-0.859 3.314,-0.368 4.173,1.105l4.909,8.591c0.736,1.473 0.245,3.313 -1.104,4.172Z" style="fill:none;stroke:#275623;stroke-width:3.68px;"/><path d="M196.915,136.566c-1.472,-0.859 -3.313,-0.368 -4.172,1.105l-4.909,8.591c-0.859,1.473 -0.369,3.313 1.104,4.172c1.473,0.86 3.314,0.369 4.173,-1.104l4.909,-8.591c0.736,-1.473 0.245,-3.313 -1.105,-4.173Z" style="fill:none;stroke:#275623;stroke-width:3.68px;"/></g><g><path d="M254.106,149.453c-1.719,0 -3.069,-1.35 -3.069,-3.068l0,-6.259c0,-1.719 1.35,-3.069 3.069,-3.069c1.718,0 3.068,1.35 3.068,3.069l0,6.259c-0.123,1.595 -1.473,3.068 -3.068,3.068Z" style="fill:none;stroke:#275623;stroke-width:3.68px;"/><path d="M239.378,153.503c-1.472,0.859 -3.313,0.368 -4.172,-1.105l-3.068,-5.4c-0.859,-1.473 -0.369,-3.313 1.104,-4.172c1.473,-0.86 3.314,-0.369 4.173,1.104l3.068,5.4c0.859,1.473 0.368,3.314 -1.105,4.173Z" style="fill:none;stroke:#275623;stroke-width:3.68px;"/><path d="M274.355,142.948c-1.472,-0.859 -3.313,-0.368 -4.172,1.105l-3.069,5.4c-0.859,1.472 -0.368,3.313 1.105,4.172c1.473,0.859 3.314,0.369 4.173,-1.104l3.068,-5.4c0.859,-1.473 0.368,-3.436 -1.105,-4.173Z" style="fill:none;stroke:#275623;stroke-width:3.68px;"/></g><g><path d="M91.617,149.453c-1.718,0 -3.068,-1.35 -3.068,-3.068l0,-6.259c0,-1.719 1.35,-3.069 3.068,-3.069c1.718,0 3.068,1.35 3.068,3.069l0,6.259c0,1.595 -1.35,3.068 -3.068,3.068Z" style="fill:none;stroke:#275623;stroke-width:3.68px;"/><path d="M76.89,153.503c-1.473,0.859 -3.314,0.368 -4.173,-1.105l-3.068,-5.4c-0.859,-1.473 -0.368,-3.313 1.104,-4.172c1.473,-0.86 3.314,-0.369 4.173,1.104l3.068,5.4c0.859,1.473 0.368,3.314 -1.104,4.173Z" style="fill:none;stroke:#275623;stroke-width:3.68px;"/></g><g><path d="M282.087,95.822c-1.718,0 -3.068,-1.35 -3.068,-3.069l0,-6.259c0,-1.718 1.35,-3.068 3.068,-3.068c1.718,0 3.068,1.35 3.068,3.068l0,6.259c0,1.719 -1.35,3.069 -3.068,3.069Z" style="fill:none;stroke:#275623;stroke-width:3.68px;"/><path d="M267.36,99.994c-1.473,0.859 -3.314,0.368 -4.173,-1.104l-3.068,-5.4c-0.859,-1.473 -0.368,-3.314 1.105,-4.173c1.472,-0.859 3.313,-0.368 4.172,1.105l3.068,5.4c0.86,1.472 0.369,3.313 -1.104,4.172Z" style="fill:none;stroke:#275623;stroke-width:3.68px;"/><path d="M302.337,89.317c-1.473,-0.859 -3.314,-0.368 -4.173,1.105l-3.068,5.4c-0.859,1.472 -0.368,3.313 1.104,4.172c1.473,0.859 3.314,0.368 4.173,-1.104l3.068,-5.4c0.859,-1.473 0.368,-3.314 -1.104,-4.173Z" style="fill:none;stroke:#275623;stroke-width:3.68px;"/></g></g><path d="M30.008,307.646l262.633,0" style="fill:none;stroke:#275623;stroke-width:3.68px;"/></g></g></svg>