<?xml version="1.0" encoding="UTF-8" standalone="no"?><!DOCTYPE svg PUBLIC "-//W3C//DTD SVG 1.1//EN" "http://www.w3.org/Graphics/SVG/1.1/DTD/svg11.dtd"><svg width="100%" height="100%" viewBox="0 0 320 320" version="1.1" xmlns="http://www.w3.org/2000/svg" xmlns:xlink="http://www.w3.org/1999/xlink" xml:space="preserve" style="fill-rule:evenodd;clip-rule:evenodd;stroke-linecap:round;stroke-linejoin:round;stroke-miterlimit:10;"><g><g id="圖層_2"><g><g><path d="M105.643,135.565l-9.119,0c-0.71,0 -1.184,-0.474 -1.184,-1.184l0,-3.435c0,-0.71 0.474,-1.184 1.184,-1.184l9.119,0c0.711,0 1.184,0.474 1.184,1.184l0,3.435c0,0.592 -0.592,1.184 -1.184,1.184Z" style="fill:#d87341;fill-opacity:0.1;fill-rule:nonzero;"/><path d="M125.183,135.565l-9.119,0c-0.71,0 -1.184,-0.474 -1.184,-1.184l0,-3.435c0,-0.71 0.474,-1.184 1.184,-1.184l9.119,0c0.711,0 1.184,0.474 1.184,1.184l0,3.435c0,0.592 -0.473,1.184 -1.184,1.184Z" style="fill:#d87341;fill-opacity:0.1;fill-rule:nonzero;"/><path d="M144.842,135.565l-9.119,0c-0.711,0 -1.184,-0.474 -1.184,-1.184l0,-3.435c0,-0.71 0.473,-1.184 1.184,-1.184l9.119,0c0.71,0 1.184,0.474 1.184,1.184l0,3.435c0,0.592 -0.592,1.184 -1.184,1.184Z" style="fill:#d87341;fill-opacity:0.5;fill-rule:nonzero;"/><path d="M164.5,135.565l-9.119,0c-0.71,0 -1.184,-0.474 -1.184,-1.184l0,-3.435c0,-0.71 0.474,-1.184 1.184,-1.184l9.119,0c0.711,0 1.184,0.474 1.184,1.184l0,3.435c0,0.592 -0.592,1.184 -1.184,1.184Z" style="fill:#d87341;fill-opacity:0.5;fill-rule:nonzero;"/><path d="M184.04,135.565l-9.118,0c-0.711,0 -1.185,-0.474 -1.185,-1.184l0,-3.435c0,-0.71 0.474,-1.184 1.185,-1.184l9.118,0c0.711,0 1.184,0.474 1.184,1.184l0,3.435c0,0.592 -0.473,1.184 -1.184,1.184Z" style="fill:#d87341;fill-opacity:0.5;fill-rule:nonzero;"/><path d="M203.699,135.565l-9.119,0c-0.711,0 -1.184,-0.474 -1.184,-1.184l0,-3.435c0,-0.71 0.473,-1.184 1.184,-1.184l9.119,0c0.71,0 1.184,0.474 1.184,1.184l0,3.435c0,0.592 -0.592,1.184 -1.184,1.184Z" style="fill:#d87341;fill-opacity:0.5;fill-rule:nonzero;"/><path d="M223.239,135.565l-9.119,0c-0.71,0 -1.184,-0.474 -1.184,-1.184l0,-3.435c0,-0.71 0.474,-1.184 1.184,-1.184l9.119,0c0.71,0 1.184,0.474 1.184,1.184l0,3.435c0,0.592 -0.474,1.184 -1.184,1.184Z" style="fill:#d87341;fill-opacity:0.5;fill-rule:nonzero;"/></g><g><path d="M105.643,152.026l-9.119,0c-0.71,0 -1.184,-0.474 -1.184,-1.184l0,-3.435c0,-0.71 0.474,-1.184 1.184,-1.184l9.119,0c0.711,0 1.184,0.474 1.184,1.184l0,3.435c0,0.592 -0.592,1.184 -1.184,1.184Z" style="fill:#d87341;fill-opacity:0.5;fill-rule:nonzero;"/><path d="M125.183,152.026l-9.119,0c-0.71,0 -1.184,-0.474 -1.184,-1.184l0,-3.435c0,-0.71 0.474,-1.184 1.184,-1.184l9.119,0c0.711,0 1.184,0.474 1.184,1.184l0,3.435c0,0.592 -0.473,1.184 -1.184,1.184Z" style="fill:#d87341;fill-opacity:0.5;fill-rule:nonzero;"/><path d="M144.842,152.026l-9.119,0c-0.711,0 -1.184,-0.474 -1.184,-1.184l0,-3.435c0,-0.71 0.473,-1.184 1.184,-1.184l9.119,0c0.71,0 1.184,0.474 1.184,1.184l0,3.435c0,0.592 -0.592,1.184 -1.184,1.184Z" style="fill:#d87341;fill-opacity:0.5;fill-rule:nonzero;"/><path d="M164.5,152.026l-9.119,0c-0.71,0 -1.184,-0.474 -1.184,-1.184l0,-3.435c0,-0.71 0.474,-1.184 1.184,-1.184l9.119,0c0.711,0 1.184,0.474 1.184,1.184l0,3.435c0,0.592 -0.592,1.184 -1.184,1.184Z" style="fill:#d87341;fill-opacity:0.5;fill-rule:nonzero;"/><path d="M184.04,152.026l-9.118,0c-0.711,0 -1.185,-0.474 -1.185,-1.184l0,-3.435c0,-0.71 0.474,-1.184 1.185,-1.184l9.118,0c0.711,0 1.184,0.474 1.184,1.184l0,3.435c0,0.592 -0.473,1.184 -1.184,1.184Z" style="fill:#d87341;fill-opacity:0.5;fill-rule:nonzero;"/><path d="M203.699,152.026l-9.119,0c-0.711,0 -1.184,-0.474 -1.184,-1.184l0,-3.435c0,-0.71 0.473,-1.184 1.184,-1.184l9.119,0c0.71,0 1.184,0.474 1.184,1.184l0,3.435c0,0.592 -0.592,1.184 -1.184,1.184Z" style="fill:#d87341;fill-opacity:0.5;fill-rule:nonzero;"/><path d="M223.239,152.026l-9.119,0c-0.71,0 -1.184,-0.474 -1.184,-1.184l0,-3.435c0,-0.71 0.474,-1.184 1.184,-1.184l9.119,0c0.71,0 1.184,0.474 1.184,1.184l0,3.435c0,0.592 -0.474,1.184 -1.184,1.184Z" style="fill:#d87341;fill-opacity:0.5;fill-rule:nonzero;"/></g><g><path d="M105.643,168.368l-9.119,0c-0.71,0 -1.184,-0.473 -1.184,-1.184l0,-3.434c0,-0.711 0.474,-1.184 1.184,-1.184l9.119,0c0.711,0 1.184,0.473 1.184,1.184l0,3.434c0,0.711 -0.592,1.184 -1.184,1.184Z" style="fill:#d87341;fill-opacity:0.5;fill-rule:nonzero;"/><path d="M125.183,168.368l-9.119,0c-0.71,0 -1.184,-0.473 -1.184,-1.184l0,-3.434c0,-0.711 0.474,-1.184 1.184,-1.184l9.119,0c0.711,0 1.184,0.473 1.184,1.184l0,3.434c0,0.711 -0.473,1.184 -1.184,1.184Z" style="fill:#d87341;fill-opacity:0.5;fill-rule:nonzero;"/><path d="M144.842,168.368l-9.119,0c-0.711,0 -1.184,-0.473 -1.184,-1.184l0,-3.434c0,-0.711 0.473,-1.184 1.184,-1.184l9.119,0c0.71,0 1.184,0.473 1.184,1.184l0,3.434c0,0.711 -0.592,1.184 -1.184,1.184Z" style="fill:#d87341;fill-opacity:0.5;fill-rule:nonzero;"/><path d="M164.5,168.368l-9.119,0c-0.71,0 -1.184,-0.473 -1.184,-1.184l0,-3.434c0,-0.711 0.474,-1.184 1.184,-1.184l9.119,0c0.711,0 1.184,0.473 1.184,1.184l0,3.434c0,0.711 -0.592,1.184 -1.184,1.184Z" style="fill:#d87341;fill-opacity:0.5;fill-rule:nonzero;"/><path d="M184.04,168.368l-9.118,0c-0.711,0 -1.185,-0.473 -1.185,-1.184l0,-3.434c0,-0.711 0.474,-1.184 1.185,-1.184l9.118,0c0.711,0 1.184,0.473 1.184,1.184l0,3.434c0,0.711 -0.473,1.184 -1.184,1.184Z" style="fill:#d87341;fill-opacity:0.5;fill-rule:nonzero;"/><path d="M203.699,168.368l-9.119,0c-0.711,0 -1.184,-0.473 -1.184,-1.184l0,-3.434c0,-0.711 0.473,-1.184 1.184,-1.184l9.119,0c0.71,0 1.184,0.473 1.184,1.184l0,3.434c0,0.711 -0.592,1.184 -1.184,1.184Z" style="fill:#d87341;fill-opacity:0.5;fill-rule:nonzero;"/><path d="M223.239,168.368l-9.119,0c-0.71,0 -1.184,-0.473 -1.184,-1.184l0,-3.434c0,-0.711 0.474,-1.184 1.184,-1.184l9.119,0c0.71,0 1.184,0.473 1.184,1.184l0,3.434c0,0.711 -0.474,1.184 -1.184,1.184Z" style="fill:#d87341;fill-opacity:0.5;fill-rule:nonzero;"/></g><g><path d="M105.643,184.83l-9.119,0c-0.71,0 -1.184,-0.474 -1.184,-1.185l0,-3.434c0,-0.711 0.474,-1.184 1.184,-1.184l9.119,0c0.711,0 1.184,0.473 1.184,1.184l0,3.434c0,0.711 -0.592,1.185 -1.184,1.185Z" style="fill:#d87341;fill-opacity:0.5;fill-rule:nonzero;"/><path d="M125.183,184.83l-9.119,0c-0.71,0 -1.184,-0.474 -1.184,-1.185l0,-3.434c0,-0.711 0.474,-1.184 1.184,-1.184l9.119,0c0.711,0 1.184,0.473 1.184,1.184l0,3.434c0,0.711 -0.473,1.185 -1.184,1.185Z" style="fill:#d87341;fill-opacity:0.5;fill-rule:nonzero;"/><path d="M144.842,184.83l-9.119,0c-0.711,0 -1.184,-0.474 -1.184,-1.185l0,-3.434c0,-0.711 0.473,-1.184 1.184,-1.184l9.119,0c0.71,0 1.184,0.473 1.184,1.184l0,3.434c0,0.711 -0.592,1.185 -1.184,1.185Z" style="fill:#d87341;fill-opacity:0.5;fill-rule:nonzero;"/><path d="M164.5,184.83l-9.119,0c-0.71,0 -1.184,-0.474 -1.184,-1.185l0,-3.434c0,-0.711 0.474,-1.184 1.184,-1.184l9.119,0c0.711,0 1.184,0.473 1.184,1.184l0,3.434c0,0.711 -0.592,1.185 -1.184,1.185Z" style="fill:#d87341;fill-opacity:0.5;fill-rule:nonzero;"/><path d="M184.04,184.83l-9.118,0c-0.711,0 -1.185,-0.474 -1.185,-1.185l0,-3.434c0,-0.711 0.474,-1.184 1.185,-1.184l9.118,0c0.711,0 1.184,0.473 1.184,1.184l0,3.434c0,0.711 -0.473,1.185 -1.184,1.185Z" style="fill:#d87341;fill-opacity:0.5;fill-rule:nonzero;"/><path d="M203.699,184.83l-9.119,0c-0.711,0 -1.184,-0.474 -1.184,-1.185l0,-3.434c0,-0.711 0.473,-1.184 1.184,-1.184l9.119,0c0.71,0 1.184,0.473 1.184,1.184l0,3.434c0,0.711 -0.592,1.185 -1.184,1.185Z" style="fill:#d87341;fill-opacity:0.5;fill-rule:nonzero;"/><path d="M223.239,184.83l-9.119,0c-0.71,0 -1.184,-0.474 -1.184,-1.185l0,-3.434c0,-0.711 0.474,-1.184 1.184,-1.184l9.119,0c0.71,0 1.184,0.473 1.184,1.184l0,3.434c0,0.711 -0.474,1.185 -1.184,1.185Z" style="fill:#d87341;fill-opacity:0.5;fill-rule:nonzero;"/></g><g><path d="M105.643,201.291l-9.119,0c-0.71,0 -1.184,-0.474 -1.184,-1.185l0,-3.434c0,-0.711 0.474,-1.184 1.184,-1.184l9.119,0c0.711,0 1.184,0.473 1.184,1.184l0,3.434c0,0.592 -0.592,1.185 -1.184,1.185Z" style="fill:#d87341;fill-opacity:0.5;fill-rule:nonzero;"/><path d="M125.183,201.291l-9.119,0c-0.71,0 -1.184,-0.474 -1.184,-1.185l0,-3.434c0,-0.711 0.474,-1.184 1.184,-1.184l9.119,0c0.711,0 1.184,0.473 1.184,1.184l0,3.434c0,0.592 -0.473,1.185 -1.184,1.185Z" style="fill:#d87341;fill-opacity:0.5;fill-rule:nonzero;"/><path d="M144.842,201.291l-9.119,0c-0.711,0 -1.184,-0.474 -1.184,-1.185l0,-3.434c0,-0.711 0.473,-1.184 1.184,-1.184l9.119,0c0.71,0 1.184,0.473 1.184,1.184l0,3.434c0,0.592 -0.592,1.185 -1.184,1.185Z" style="fill:#d87341;fill-opacity:0.5;fill-rule:nonzero;"/><path d="M164.5,201.291l-9.119,0c-0.71,0 -1.184,-0.474 -1.184,-1.185l0,-3.434c0,-0.711 0.474,-1.184 1.184,-1.184l9.119,0c0.711,0 1.184,0.473 1.184,1.184l0,3.434c0,0.592 -0.592,1.185 -1.184,1.185Z" style="fill:#d87341;fill-opacity:0.5;fill-rule:nonzero;"/><path d="M184.04,201.291l-9.118,0c-0.711,0 -1.185,-0.474 -1.185,-1.185l0,-3.434c0,-0.711 0.474,-1.184 1.185,-1.184l9.118,0c0.711,0 1.184,0.473 1.184,1.184l0,3.434c0,0.592 -0.473,1.185 -1.184,1.185Z" style="fill:#d87341;fill-opacity:0.5;fill-rule:nonzero;"/><path d="M203.699,201.291l-9.119,0c-0.711,0 -1.184,-0.474 -1.184,-1.185l0,-3.434c0,-0.711 0.473,-1.184 1.184,-1.184l9.119,0c0.71,0 1.184,0.473 1.184,1.184l0,3.434c0,0.592 -0.592,1.185 -1.184,1.185Z" style="fill:#d87341;fill-opacity:0.1;fill-rule:nonzero;"/><path d="M223.239,201.291l-9.119,0c-0.71,0 -1.184,-0.474 -1.184,-1.185l0,-3.434c0,-0.711 0.474,-1.184 1.184,-1.184l9.119,0c0.71,0 1.184,0.473 1.184,1.184l0,3.434c0,0.592 -0.474,1.185 -1.184,1.185Z" style="fill:#d87341;fill-opacity:0.1;fill-rule:nonzero;"/></g><g><path d="M101.617,120.643c-1.303,0 -1.895,-0.829 -1.895,-1.065c0,-0.119 0.118,-0.237 0.237,-0.237c0.118,0 0.118,0 0.237,0.118c0.236,0.474 0.71,0.711 1.421,0.711c0.829,0 1.302,-0.474 1.302,-1.066c0,-0.355 -0.237,-0.829 -0.71,-1.066c-0.355,-0.237 -0.829,-0.474 -1.303,-0.711c-0.592,-0.355 -0.829,-0.828 -0.829,-1.302c0,-0.711 0.592,-1.303 1.54,-1.303c0.947,0 1.658,0.592 1.658,0.829c0,0.119 -0.119,0.237 -0.237,0.237c-0.119,0 -0.119,0 -0.237,-0.118c-0.237,-0.237 -0.592,-0.474 -1.184,-0.474c-0.711,0 -1.066,0.474 -1.066,0.947c0,0.356 0.237,0.711 0.592,0.948c0.355,0.236 0.947,0.473 1.303,0.592c0.71,0.355 1.065,0.947 1.065,1.539c0,0.592 -0.71,1.421 -1.894,1.421Z" style="fill:#d87341;fill-opacity:0.5;fill-rule:nonzero;"/><path d="M218.739,120.643c-1.303,0 -1.895,-0.829 -1.895,-1.065c0,-0.119 0.118,-0.237 0.237,-0.237c0.118,0 0.118,0 0.237,0.118c0.236,0.474 0.71,0.711 1.421,0.711c0.829,0 1.302,-0.474 1.302,-1.066c0,-0.355 -0.237,-0.829 -0.71,-1.066c-0.356,-0.237 -0.829,-0.474 -1.303,-0.711c-0.592,-0.355 -0.829,-0.828 -0.829,-1.302c0,-0.711 0.592,-1.303 1.54,-1.303c0.947,0 1.658,0.592 1.658,0.829c0,0.119 -0.119,0.237 -0.237,0.237c-0.119,0 -0.119,0 -0.237,-0.118c-0.237,-0.237 -0.592,-0.474 -1.184,-0.474c-0.711,0 -1.066,0.474 -1.066,0.947c0,0.356 0.237,0.711 0.592,0.948c0.355,0.236 0.947,0.473 1.303,0.592c0.71,0.355 1.065,0.947 1.065,1.539c-0.118,0.592 -0.71,1.421 -1.894,1.421Z" style="fill:#d87341;fill-opacity:0.5;fill-rule:nonzero;"/><path d="M118.315,115.433c0,-0.119 -0.119,-0.237 -0.119,-0.237c0,0 -0.118,0.118 -0.118,0.237c-0.119,0.71 -0.237,3.789 -0.237,4.855c0,0.119 -0.119,0.237 -0.237,0.237c-0.118,0 -0.237,-0.118 -0.237,-0.237c0,-1.421 0.237,-3.908 0.355,-5.092c0,-0.355 0.237,-0.592 0.593,-0.592c0.236,0 0.473,0.118 0.592,0.473c0.473,1.185 1.065,3.553 1.421,4.619c0,0.118 0.118,0.118 0.118,0.118c0.119,0 0.119,-0.118 1.54,-4.618c0.118,-0.355 0.355,-0.474 0.592,-0.474c0.355,0 0.592,0.237 0.592,0.592c0,1.066 0.237,3.79 0.237,4.974c0,0.119 -0.119,0.237 -0.237,0.237c-0.118,0 -0.237,-0.118 -0.237,-0.237c-0.118,-1.184 -0.237,-4.855 -0.237,-4.855c0,-0.119 -0.118,-0.237 -0.118,-0.237c0,0 -0.119,0 -0.119,0.237c-0.355,1.066 -1.184,3.671 -1.539,4.737c-0.119,0.237 -0.237,0.355 -0.474,0.355c-0.237,0 -0.355,-0.118 -0.474,-0.355c-0.355,-0.711 -1.302,-3.79 -1.657,-4.737Z" style="fill:#d87341;fill-opacity:0.5;fill-rule:nonzero;"/><path d="M161.303,120.525c-0.237,0 -0.474,-0.237 -0.592,-0.711c-0.237,-0.829 -0.829,-3.789 -0.829,-4.5c0,-0.118 -0.119,-0.237 -0.119,-0.237c-0.118,0 -0.118,0.119 -0.118,0.237c-0.119,0.711 -0.711,3.435 -0.948,4.5c-0.118,0.474 -0.355,0.711 -0.71,0.711c-0.237,0 -0.592,-0.237 -0.711,-0.711c-0.237,-1.184 -0.829,-3.789 -1.066,-4.973c0,-0.119 0.119,-0.237 0.237,-0.237c0.119,0 0.237,0.118 0.237,0.237c0.237,1.184 0.829,4.026 0.948,4.855c0,0.237 0.118,0.237 0.236,0.237c0.119,0 0.119,-0.119 0.237,-0.237c0.119,-0.711 0.711,-3.434 0.948,-4.619c0.118,-0.355 0.355,-0.473 0.592,-0.473c0.237,0 0.473,0.237 0.592,0.473c0.237,0.948 0.71,3.553 0.829,4.619c0,0.237 0.118,0.237 0.237,0.237c0.118,0 0.118,-0.119 0.237,-0.237c0.236,-0.829 0.828,-3.79 1.065,-4.855c0,-0.119 0.119,-0.237 0.237,-0.237c0.119,0 0.237,0.118 0.237,0.237c0,0.118 0,0.473 -1.184,4.973c0,0.593 -0.237,0.711 -0.592,0.711Z" style="fill:#d87341;fill-opacity:0.5;fill-rule:nonzero;"/><path d="M140.578,120.288c0,0.119 -0.118,0.237 -0.236,0.237c-0.119,0 -0.237,-0.118 -0.237,-0.237l0,-5.092c0,-0.119 0,-0.119 -0.592,-0.119c-0.356,0 -0.829,0 -1.185,0c-0.118,0 -0.237,-0.118 -0.237,-0.236c0,-0.119 0.119,-0.237 0.237,-0.237l4.027,0c0.118,0 0.237,0.118 0.237,0.237c0,0.118 -0.119,0.236 -0.237,0.236l-1.658,0c-0.119,0 -0.119,0 -0.119,0.119c0,0.355 0,0.947 0,1.539c-0.118,1.303 0,2.843 0,3.553Z" style="fill:#d87341;fill-opacity:0.5;fill-rule:nonzero;"/><path d="M179.777,120.288c0,0.119 -0.119,0.237 -0.237,0.237c-0.118,0 -0.237,-0.118 -0.237,-0.237l0,-5.092c0,-0.119 0,-0.119 -0.592,-0.119c-0.355,0 -0.829,0 -1.184,0c-0.119,0 -0.237,-0.118 -0.237,-0.236c0,-0.119 0.118,-0.237 0.237,-0.237l4.026,0c0.119,0 0.237,0.118 0.237,0.237c0,0.118 -0.118,0.236 -0.237,0.236l-1.658,0c-0.118,0 -0.118,0 -0.118,0.119l0,5.092Z" style="fill:#d87341;fill-opacity:0.5;fill-rule:nonzero;"/><path d="M197.304,120.288c0,-0.947 0,-3.908 0,-4.737c0,-0.474 0.355,-0.829 0.947,-0.829l2.013,0c0.119,0 0.237,0.119 0.237,0.237c0,0.118 -0.118,0.237 -0.237,0.237l-1.894,0c-0.356,0 -0.474,0.237 -0.474,0.474c0,0.236 0,0.947 0,1.421c0,0.118 0,0.118 0.71,0.118c0.474,0 1.066,0 1.303,0c0,0 0.237,0 0.237,0.237c0,0.118 -0.118,0.237 -0.237,0.237c-0.237,0 -0.71,0 -1.066,0c-0.947,0 -0.947,0 -0.947,0.118l0,2.606c0,0.118 -0.119,0.236 -0.237,0.236c-0.237,-0.118 -0.355,-0.118 -0.355,-0.355Z" style="fill:#d87341;fill-opacity:0.5;fill-rule:nonzero;"/></g></g><path d="M282.214,64.392l-118.898,0c-1.895,0 -3.434,-1.54 -3.434,-3.435c0,-1.894 1.539,-3.434 3.434,-3.434l118.898,0c1.895,0 3.435,1.54 3.435,3.434c0,1.895 -1.54,3.435 -3.435,3.435Z" style="fill:#d87341;fill-opacity:0.5;fill-rule:nonzero;"/><path d="M30.562,242.739c0,4.619 -3.316,8.408 -8.053,8.408l0,-16.934c4.737,0.118 8.053,3.908 8.053,8.526Z" style="fill:#d87341;fill-opacity:0.5;fill-rule:nonzero;"/><path d="M289.201,242.739c0,4.619 3.316,8.408 8.053,8.408l0,-16.934c-4.737,0.118 -8.053,3.908 -8.053,8.526Z" style="fill:#d87341;fill-opacity:0.5;fill-rule:nonzero;"/><path d="M297.846,137.223c-11.132,9.474 -15.987,13.5 -25.106,20.606c-20.961,16.342 -25.106,28.777 -25.106,28.777c-9.474,-30.317 20.014,-48.791 49.739,-49.383c0.473,0 -0.593,0 0.473,0Z" style="fill:#d87341;fill-rule:nonzero;"/><path d="M22.154,170.5c21.079,0 41.685,0.592 41.685,0.592c4.263,8.764 8.764,20.014 8.764,20.014c7.579,-37.185 -20.014,-53.409 -49.739,-54.002c-0.473,0.119 0.356,33.396 -0.71,33.396Z" style="fill:#d87341;fill-rule:nonzero;"/><path d="M61.115,205.199l-27,0l-2.843,-19.896l32.567,0l-2.724,19.896Z" style="fill:#d87341;fill-opacity:0.5;fill-rule:nonzero;"/><path d="M268.595,216.567l-11.605,0c-1.895,0 -3.435,-1.539 -3.435,-3.434c0,-1.895 1.54,-3.434 3.435,-3.434l11.605,0c1.895,0 3.435,1.539 3.435,3.434c0,1.895 -1.54,3.434 -3.435,3.434Z" style="fill:#d87341;fill-opacity:0.5;fill-rule:nonzero;"/></g><g id="圖層_1"><g><path d="M180.369,60.957c-0.474,0 -0.947,-0.237 -1.066,-0.71c-0.237,-0.592 -0.71,-2.013 -1.302,-3.79c0,-0.118 -0.119,-0.118 -0.237,-0.118l-4.737,0c-0.119,0 -0.237,0 -0.237,0.118c-0.474,1.54 -0.948,2.842 -1.184,3.79c-0.119,0.473 -0.593,0.829 -1.066,0.829c-0.474,0 -1.066,-0.356 -1.066,-0.948c0,-0.355 0,-0.473 4.263,-12.197c0.356,-0.829 0.948,-1.303 1.658,-1.303c0.711,0 1.421,0.474 1.777,1.303c1.184,3.434 3.671,10.066 4.263,11.487c0.118,0.237 0.118,0.355 0.118,0.592c0,0.474 -0.592,0.947 -1.184,0.947Zm-3.197,-6.987c-0.593,-1.776 -1.185,-3.552 -1.422,-4.381c-0.118,-0.356 -0.236,-0.474 -0.355,-0.474c-0.118,0 -0.237,0.118 -0.355,0.592c-0.237,0.711 -1.54,4.263 -1.54,4.5c0,0.119 0,0.119 0.119,0.119l3.434,0c0.119,-0.119 0.237,-0.119 0.119,-0.356c0.118,0.119 0.118,0.119 0,0Z" style="fill:#275623;fill-rule:nonzero;"/><path d="M185.343,52.549l0,4.974c0.118,1.184 0.829,1.776 1.539,1.776c1.066,0 2.25,-0.947 2.369,-2.131l0,-4.619c0,-0.71 0.474,-0.947 0.947,-0.947c0.474,0 0.948,0.355 0.948,0.947c0,2.013 -0.119,3.198 -0.119,4.382c0,0.829 0.119,1.658 0.474,2.368c0.118,0.237 0.118,0.474 0.118,0.711c0,0.592 -0.473,0.947 -0.947,0.947c-0.592,0 -0.947,-0.473 -1.066,-1.065l0,-0.119l-0.118,0c-0.711,0.829 -1.777,1.303 -2.842,1.303c-1.658,0 -3.198,-1.066 -3.316,-3.198l0,-5.21c0,-0.711 0.473,-0.948 0.947,-0.948c0.592,-0.118 1.066,0.119 1.066,0.829Z" style="fill:#275623;fill-rule:nonzero;"/><path d="M195.764,58.826c0,0.355 0.237,0.473 3.079,0.473c2.842,0 4.145,1.421 4.145,2.961c0,2.487 -2.487,3.553 -4.974,3.553c-3.434,0 -4.618,-1.777 -4.618,-2.961c0,-1.066 0.71,-1.776 1.658,-2.132c0,0 0.118,0 0.118,-0.118c0,0 0,-0.118 -0.118,-0.118c-0.711,-0.237 -1.066,-0.829 -1.066,-1.303c0,-0.711 0.355,-1.303 1.066,-1.658c0.118,-0.118 0.237,-0.118 0.237,-0.118c0,0 0,-0.119 -0.237,-0.237c-0.711,-0.592 -1.185,-1.54 -1.185,-2.369c0,-2.25 1.895,-3.316 3.79,-3.316c0.711,0 1.421,0.119 2.132,0.474c0.118,0.118 0.237,0.118 0.355,0.118c0.118,0 0.237,0 0.355,-0.118c0.592,-0.237 0.829,-0.355 1.303,-0.355c0.592,0 1.303,0 1.303,0.947c0,0.474 -0.237,0.829 -0.829,0.829c-0.119,0 -0.119,0 -0.237,0c-0.119,0 -0.237,0 -0.237,0c-0.237,0 -0.237,0 -0.355,0.119c0,0 -0.119,0 -0.119,0.118l0,0.118c0.119,0.356 0.119,0.593 0.119,1.066c0,1.777 -1.303,3.079 -3.553,3.198c-0.829,0 -2.132,0.118 -2.132,0.829Zm2.25,2.013c-2.487,0 -2.723,1.539 -2.723,1.776c0,0.119 0,1.421 2.842,1.421c0.473,0 2.96,-0.118 2.96,-1.776c-0.118,-1.421 -1.658,-1.421 -3.079,-1.421Zm-0.355,-7.816c-1.066,0 -2.013,0.71 -2.013,1.658c0,0.474 0.237,1.658 1.895,1.658c1.065,0 2.013,-0.592 2.013,-1.658c0.118,-0.829 -0.474,-1.658 -1.895,-1.658Z" style="fill:#275623;fill-rule:nonzero;"/><path d="M206.778,52.549l0,4.974c0.118,1.184 0.829,1.776 1.539,1.776c1.066,0 2.25,-0.947 2.369,-2.131l0,-4.619c0,-0.71 0.473,-0.947 0.947,-0.947c0.474,0 0.948,0.355 0.948,0.947c0,2.013 -0.119,3.198 -0.119,4.382c0,0.829 0.119,1.658 0.474,2.368c0.118,0.237 0.118,0.474 0.118,0.711c0,0.592 -0.473,0.947 -0.947,0.947c-0.592,0 -0.948,-0.473 -1.066,-1.065l0,-0.119l-0.118,0c-0.711,0.829 -1.777,1.303 -2.843,1.303c-1.658,0 -3.197,-1.066 -3.315,-3.198l0,-5.21c0,-0.711 0.473,-0.948 0.947,-0.948c0.592,-0.118 1.066,0.119 1.066,0.829Z" style="fill:#275623;fill-rule:nonzero;"/><path d="M217.91,61.076c-2.369,0 -3.316,-1.303 -3.316,-1.895c0,-0.474 0.473,-0.947 0.947,-0.947c0.237,0 0.592,0.118 0.711,0.355c0.237,0.355 0.71,0.71 1.539,0.71c0.948,0 1.421,-0.473 1.421,-0.947c0,-0.592 -0.473,-0.947 -2.605,-2.013c-1.184,-0.474 -1.658,-1.421 -1.658,-2.369c0,-1.302 1.066,-2.487 2.842,-2.487c1.777,0 2.961,0.829 2.961,1.54c0,0.474 -0.474,0.947 -0.948,0.947c-0.236,0 -0.473,-0.118 -0.829,-0.355c-0.236,-0.237 -0.473,-0.474 -1.184,-0.474c-0.592,0 -0.947,0.356 -0.947,0.829c0,0.237 0.237,0.592 0.592,0.829c0.474,0.237 1.303,0.592 1.895,0.948c1.302,0.71 1.895,1.658 1.895,2.605c0,1.421 -1.422,2.724 -3.316,2.724Z" style="fill:#275623;fill-rule:nonzero;"/><path d="M226.318,53.378c-0.237,0 -0.237,0.119 -0.237,0.237c0,0.711 0,2.369 0,3.553c0,1.421 0,2.131 1.066,2.131l0.592,0c0.474,0 0.829,0.474 0.829,0.829c0,0.711 -0.592,0.948 -1.658,0.948c-2.842,0 -2.842,-2.487 -2.842,-3.316c0,-1.066 0,-2.961 0,-3.79c0,-0.118 0,-0.237 0,-0.237c0,-0.236 -0.119,-0.236 -0.356,-0.236l-0.592,0c-0.592,0 -0.829,-0.474 -0.829,-0.948c0,-0.474 0.237,-0.829 0.829,-0.829l0.592,0c0.356,0 0.356,0 0.356,-0.355c0,0 0,-0.355 0,-0.829c0,-0.237 0,-0.474 0,-0.711c0,-0.592 0.473,-0.829 0.947,-0.829c0.948,0 0.948,0.948 0.948,1.185c0,0.473 0,1.184 0,1.184c0,0.355 0.118,0.355 0.236,0.355l1.303,0c0.592,0 0.829,0.474 0.829,0.948c0,0.473 -0.237,0.947 -0.829,0.947l-1.184,0l0,-0.237Z" style="fill:#275623;fill-rule:nonzero;"/><path d="M236.384,60.839c-0.711,0 -1.066,-0.474 -1.066,-1.066c0,-0.474 0.118,-0.829 0.592,-1.303c1.303,-1.421 3.553,-3.789 5.211,-5.802c0.71,-0.948 1.066,-1.777 1.066,-2.369c0,-1.184 -0.948,-1.895 -2.014,-1.895c-0.828,0 -1.657,0.474 -2.368,1.421c-0.237,0.356 -0.592,0.593 -0.947,0.593c-0.593,0 -1.066,-0.474 -1.066,-0.948c0,-0.71 1.421,-2.96 4.381,-2.96c2.251,0 4.264,1.421 4.264,3.671c0,1.066 -0.474,2.368 -1.54,3.789c-1.421,1.777 -3.316,3.435 -4.855,5.093c1.539,0 3.671,-0.119 5.329,-0.119c0.829,0 1.184,0.474 1.184,0.948c0,0.592 -0.474,1.065 -1.184,1.065l-6.987,0l0,-0.118Z" style="fill:#275623;fill-rule:nonzero;"/><path d="M246.805,56.22c-0.118,-0.829 -0.118,-1.658 -0.118,-2.368c0,-0.711 0,-1.421 0.118,-2.25c0.237,-3.316 2.013,-5.092 4.619,-5.092c2.487,0 4.263,1.776 4.618,4.855c0.119,0.829 0.119,1.658 0.119,2.487c0,2.132 -0.119,7.342 -4.737,7.342c-2.487,-0.118 -4.382,-1.776 -4.619,-4.974Zm6.987,0c0.119,-0.829 0.119,-1.776 0.119,-2.723c0,-1.422 0,-5.211 -2.606,-5.211c-1.302,0 -2.368,1.184 -2.487,3.197c0,0.711 -0.118,1.421 -0.118,2.132c0,0.829 0,1.54 0.118,2.369c0.237,1.894 1.303,3.079 2.487,3.079c1.303,0 2.25,-1.066 2.487,-2.843Z" style="fill:#275623;fill-rule:nonzero;"/><path d="M263.029,60.957c-0.592,0 -1.065,-0.355 -1.065,-1.065c0,-1.777 0.118,-5.803 0.118,-8.29c0,-2.606 -0.118,-2.842 -0.711,-2.842l-0.118,0l-0.118,0c-0.592,0 -0.948,-0.474 -0.948,-0.948c0,-0.592 0.356,-1.066 0.948,-1.184c0.355,0 0.473,0 0.947,0c1.303,0 2.132,0.829 2.25,2.013l0,11.251c-0.237,0.71 -0.71,1.065 -1.303,1.065Z" style="fill:#275623;fill-rule:nonzero;"/><path d="M276.53,46.628c1.421,0 2.131,0.829 2.131,1.776c0,0.356 -0.118,0.829 -0.355,1.185c-1.539,2.842 -4.381,6.75 -5.21,10.303c-0.119,0.71 -0.711,1.065 -1.185,1.065c-0.473,0 -1.066,-0.355 -1.066,-1.065c0,-0.119 0,-0.237 0,-0.474c0.829,-3.198 4.145,-8.053 5.211,-10.185c0,-0.118 0.119,-0.237 0.119,-0.355c0,-0.237 -0.119,-0.355 -0.356,-0.355c-0.118,0 -4.855,0.118 -5.092,0.118l-0.118,0c-0.711,0 -1.066,-0.474 -1.066,-0.947c0,-0.474 0.355,-1.066 1.066,-1.066c0.118,0 0.118,0 5.921,0Z" style="fill:#275623;fill-rule:nonzero;"/></g><g id="a.-dialog.-1"><g><path d="M98.064,216.567c-2.013,2.606 -5.092,4.619 -5.448,4.619c-0.236,0 -0.355,-0.237 -0.355,-0.355c0,-0.119 0.119,-0.237 0.237,-0.356c2.013,-0.947 4.145,-2.842 5.566,-4.737l0.118,-0.118l0,-3.671l-4.737,0c-0.236,0 -0.355,-0.119 -0.355,-0.356c0,-0.118 0.119,-0.355 0.355,-0.355l4.737,0l0,-1.658c0,-0.237 0.237,-0.355 0.356,-0.355c0.236,0 0.355,0.118 0.355,0.355l0,1.658l4.737,0c0.237,0 0.355,0.119 0.355,0.355c0,0.119 -0.118,0.356 -0.355,0.356l-4.737,0c0,1.421 0,3.197 0,3.671c1.421,1.895 3.671,3.671 5.684,4.618c0.119,0.119 0.237,0.237 0.237,0.356c0,0.237 -0.237,0.473 -0.474,0.473c-0.473,0 -3.434,-2.013 -5.447,-4.5c0,1.658 0,4.856 0,4.856c0,0.237 -0.237,0.355 -0.355,0.355c-0.237,0 -0.356,-0.118 -0.356,-0.355l-0.118,-4.856Zm-4.737,0.474c-0.237,0 -0.355,-0.118 -0.355,-0.355c0,-0.119 0,-0.237 0.118,-0.237c1.066,-0.829 1.895,-2.369 2.25,-3.553c0,-0.118 0.237,-0.237 0.355,-0.237c0.237,0 0.356,0.119 0.356,0.356c0,0.236 -0.237,0.71 -0.474,1.184c0.474,0.237 1.421,1.066 1.421,1.421c0,0.237 -0.237,0.355 -0.355,0.355c-0.119,0 -0.119,0 -0.237,-0.118c-0.355,-0.474 -0.829,-0.948 -1.066,-1.184c-0.829,1.302 -1.658,2.368 -2.013,2.368Zm6.75,-1.066c-0.237,0 -0.355,-0.118 -0.355,-0.355c0,-0.119 0,-0.119 0.118,-0.237c0.592,-0.71 1.185,-1.776 1.421,-2.605c0,-0.119 0.119,-0.237 0.237,-0.237c0.237,0 0.474,0.118 0.474,0.355c0,0.237 -0.592,1.303 -0.592,1.303c0.237,0.118 2.25,1.184 2.25,1.776c0,0.237 -0.237,0.355 -0.355,0.355c-0.119,0 -0.237,0 -0.237,-0.118c-0.592,-0.592 -1.184,-1.184 -1.895,-1.539c-0.592,1.065 -0.829,1.302 -1.066,1.302Z" style="fill:#275623;fill-rule:nonzero;"/><path d="M107.064,221.304c0.119,-2.605 0.119,-7.342 0.119,-10.421c0,-1.184 1.065,-1.184 2.25,-1.184c0.473,0 0.947,0 1.184,0c0.71,0 1.184,0.355 1.184,0.947l0,2.132c0,0.592 -0.355,1.066 -1.302,1.066l-2.606,0l0,7.342c0,0.237 -0.237,0.355 -0.355,0.355c-0.237,0.119 -0.474,0 -0.474,-0.237Zm4.145,-9.711c0,-1.184 0,-1.302 -1.658,-1.302c-1.539,0 -1.658,0 -1.658,1.302l3.316,0Zm-3.316,0.593l0,1.302c0.355,0 0.948,0 1.54,0c1.658,0 1.776,0 1.776,-1.302l-3.316,0Zm5.566,5.684l-1.776,0c-0.119,1.658 -0.592,2.605 -2.25,3.197c-0.119,0 -0.119,0 -0.237,0c-0.237,0 -0.355,-0.118 -0.355,-0.355c0,-0.118 0.118,-0.237 0.236,-0.355c1.422,-0.355 1.777,-1.303 1.777,-2.487l-1.54,0c-0.237,0 -0.355,-0.118 -0.355,-0.355c0,-0.119 0.118,-0.356 0.355,-0.356l1.658,0l0,-0.473c0,-0.356 0,-0.948 0,-1.303l-1.302,0c-0.237,0 -0.356,-0.118 -0.356,-0.355c0,-0.119 0.119,-0.355 0.356,-0.355l5.684,0c0.237,0 0.355,0.118 0.355,0.355c0,0.118 -0.118,0.355 -0.355,0.355l-1.184,0l0,1.776l1.658,0c0.236,0 0.355,0.119 0.355,0.356c0,0.118 -0.119,0.355 -0.355,0.355l-1.658,0l0,2.724c0,0.237 -0.119,0.355 -0.356,0.355c-0.118,0 -0.355,-0.118 -0.355,-0.355l0,-2.724l0,0Zm0,-2.25l-1.776,0l0,1.776l1.776,0l0,-1.776Zm2.487,-1.658c-0.474,0 -1.066,0 -1.303,0c-0.947,0 -1.184,-0.474 -1.302,-1.066l0,-2.131c0,-0.593 0.473,-0.948 1.184,-1.066c0.237,0 0.71,0 1.303,0c1.302,0 2.25,0 2.368,1.184l0,9c0,0.829 -0.237,1.658 -1.895,1.658c-0.947,0 -1.302,-0.118 -1.302,-0.474c0,-0.236 0.118,-0.355 0.355,-0.355c0.355,0 0.71,0.119 0.947,0.119c0.711,0 1.066,-0.237 1.066,-1.066l0,-5.211l0,-0.592c-0.355,0 -0.947,0 -1.421,0Zm1.54,-2.369c0,-1.302 -0.119,-1.302 -1.658,-1.302c-1.54,0 -1.658,0 -1.658,1.302l3.316,0Zm0,0.593l-3.435,0c0,1.302 0,1.302 1.777,1.302c0.592,0 1.302,0 1.658,0l0,-1.302Z" style="fill:#275623;fill-rule:nonzero;"/><path d="M127.552,210.172c-0.237,-0.236 -0.474,-0.355 -0.592,-0.355c-0.237,0 -0.356,0.119 -0.593,0.355c-1.658,1.895 -4.855,3.908 -5.21,3.908c-0.237,0 -0.356,-0.236 -0.356,-0.355c0,-0.118 0.119,-0.237 0.237,-0.355c1.777,-0.829 3.79,-2.487 4.856,-3.79c0.237,-0.355 0.71,-0.473 1.066,-0.473c0.355,0 0.71,0.118 1.065,0.473c1.421,1.421 3.198,2.606 4.856,3.316c0.118,0.119 0.237,0.237 0.237,0.355c0,0.237 -0.119,0.356 -0.356,0.356c-0.592,0.237 -3.552,-1.777 -5.21,-3.435Zm-0.237,6.277c-1.303,0 -2.606,0 -3.553,0c-1.421,0 -1.421,-0.711 -1.421,-1.776c0,-0.711 0,-1.54 1.303,-1.54l6.395,0c0.71,0 1.302,0.474 1.302,1.066c0,0.237 0,0.355 0,0.592c0,0.947 0,1.658 -1.302,1.658c-0.711,0 -1.777,0 -2.724,0Zm-0.711,-2.724c-1.066,0 -2.013,0 -2.605,0c-0.829,0 -0.829,0.474 -0.829,1.184c0,0.474 0,0.948 0.829,1.066c0.71,0 1.658,0 2.605,0l0,-2.25Zm2.724,7.698l-4.737,0c-1.421,0 -1.421,-0.711 -1.421,-2.013c0,-0.356 0,-0.593 0,-0.948c0,-0.592 0.355,-1.066 1.303,-1.066l4.737,0c0.829,0 1.302,0.592 1.302,1.066l0,1.776c0.119,0.711 -0.355,1.066 -1.184,1.185Zm0.592,-2.369c0,-0.592 0,-1.066 -0.829,-1.066l-4.5,0c-0.474,0 -0.711,0.237 -0.711,0.711c0,0.118 0,0.237 0,0.474l6.04,0l0,-0.119Zm-6.04,0.592c0,0.237 0,0.356 0,0.592c0,0.593 0.356,0.711 2.961,0.711c0.829,0 1.776,0 2.369,0c0.829,0 0.829,-0.474 0.829,-1.184l-6.159,0l0,-0.119Zm1.303,-3.908c-0.118,0 -0.118,0 -0.237,-0.118c-0.237,-0.355 -0.592,-0.711 -0.829,-1.066l0,-0.118c0,-0.119 0.237,-0.237 0.356,-0.237c0.236,0 1.184,1.066 1.184,1.302c0,0.119 -0.237,0.237 -0.474,0.237Zm0,-3.552c-0.237,0 -0.355,-0.119 -0.355,-0.356c0,-0.118 0.118,-0.355 0.355,-0.355l3.671,0c0.237,0 0.356,0.118 0.356,0.355c0,0.119 -0.119,0.356 -0.356,0.356l-3.671,0Zm2.842,3.789c0,0 0,-0.118 0,0l0,-0.118c0.237,-0.474 0.711,-1.066 0.829,-1.658c0,-0.119 0.119,-0.119 0.237,-0.119c0.237,0 0.355,0.119 0.355,0.356c0,0.118 -0.71,1.184 -0.947,1.539c2.013,0 2.132,0 2.132,-1.184c0,-0.711 0,-1.066 -0.829,-1.184c-0.711,0 -1.777,0 -2.724,0l0,2.25l0.947,0l0,0.118Z" style="fill:#275623;fill-rule:nonzero;"/><path d="M136.433,217.633c-0.828,0 -1.302,-0.237 -1.302,-1.184l0,-4.737c0,-0.592 0.355,-1.066 0.829,-1.066l0.947,0c0.592,0 0.829,0.474 0.829,1.066l0,4.855c0,1.066 -0.71,1.066 -1.303,1.066Zm0.711,-3.197c0,-0.829 0,-1.777 0,-2.487c0,-0.592 -0.118,-0.711 -0.711,-0.711c-0.355,0 -0.71,0 -0.71,0.592l0,4.5c0,0.593 0.237,0.593 0.71,0.593c0.474,0 0.711,-0.119 0.711,-0.711c0,-0.355 0,-1.066 0,-1.776Zm5.092,-4.737c0,-0.237 0.237,-0.356 0.356,-0.356c0.236,0 0.355,0.119 0.355,0.356l0,1.066c1.303,0 2.605,0 3.671,0c0.237,0 0.355,0.118 0.355,0.355c0,0.118 -0.118,0.355 -0.355,0.355l-6.395,0c-0.71,0 -0.947,0.355 -0.947,0.947c0,0.593 0,1.185 0,1.658c0,2.487 -0.237,4.974 -1.658,6.987c-0.119,0.119 -0.237,0.237 -0.356,0.237c-0.236,0 -0.355,-0.118 -0.355,-0.355c0,-0.118 0,-0.118 0.119,-0.237c1.421,-1.895 1.658,-4.026 1.658,-6.158c0,-0.71 0,-1.539 0,-2.25l0,-0.118c0,-0.948 0.592,-1.421 1.658,-1.421l2.131,0l-0.237,-1.066Zm-2.96,10.421c0,-0.118 0,-0.118 0,0c0.473,-0.947 0.592,-2.25 0.592,-3.434c0,-0.474 0,-0.948 0,-1.421c0,-0.119 0.118,-0.237 0.237,-0.237c0.118,0 0.237,0.118 0.237,0.237l0,1.065c0,2.014 -0.237,4.027 -0.829,4.027c-0.119,0 -0.237,-0.119 -0.237,-0.237Zm1.776,-6.04l-1.066,0c-0.237,0 -0.355,-0.118 -0.355,-0.355c0,-0.118 0.118,-0.355 0.355,-0.355l1.066,0l0,-1.303c0,-0.237 0.118,-0.355 0.355,-0.355c0.119,0 0.356,0.118 0.356,0.355l0,1.303l1.065,0c0.237,0 0.356,0.118 0.356,0.355c0,0.119 -0.119,0.355 -0.356,0.355l-1.065,0l0,7.224c0,0.237 -0.119,0.237 -0.356,0.237c-0.118,0 -0.355,-0.118 -0.355,-0.237l0,-7.224Zm1.184,1.066c0,-0.118 0.119,-0.237 0.237,-0.237c0.119,0 0.237,0.119 0.237,0.237l0,3.79c0,0.118 -0.118,0.237 -0.237,0.237c-0.118,0 -0.237,-0.119 -0.237,-0.237l0,-3.79Zm0.711,4.974c0,-0.118 0,-0.118 0,0c0.592,-1.066 0.71,-2.605 0.71,-3.908c0,-0.355 0,-0.711 0,-0.947c0,-0.119 0.119,-0.237 0.237,-0.237c0.119,0 0.237,0.118 0.237,0.237c0,4.737 -0.71,5.092 -0.947,5.092c-0.119,0 -0.237,-0.119 -0.237,-0.237Zm1.776,-6.04l-1.184,0c-0.237,0 -0.355,-0.118 -0.355,-0.355c0,-0.118 0.118,-0.355 0.355,-0.355l1.184,0l0,-1.303c0,-0.237 0.119,-0.355 0.355,-0.355c0.119,0 0.356,0.118 0.356,0.355l0,1.303l1.302,0c0.237,0 0.356,0.118 0.356,0.355c0,0.119 -0.119,0.355 -0.356,0.355l-1.421,0l0,7.224c0,0.237 -0.118,0.237 -0.355,0.237c-0.118,0 -0.355,-0.118 -0.355,-0.237l0.118,-7.224Zm1.895,1.185l0,4.145c0,0.118 0,0.236 0.237,0.236c0.237,0 0.355,-0.118 0.355,-0.355c0,-0.237 0,-0.592 0,-0.947c0,-0.119 0.119,-0.237 0.237,-0.237c0.118,0 0.237,0.118 0.237,0.237l0,0.355c0,1.303 -0.355,1.421 -0.829,1.421c-0.592,0 -0.711,-0.237 -0.711,-0.829l0,-4.026c0,-0.237 0.119,-0.356 0.237,-0.356c0.119,0 0.237,0.119 0.237,0.356Z" style="fill:#275623;fill-rule:nonzero;"/></g><path d="M98.893,229.12c0,7.935 -6.513,14.33 -14.685,14.33" style="fill:none;stroke:#275623;stroke-width:3.55px;"/></g><g id="a.-dialog.-2"><g><path d="M114.643,250.318c-2.131,3.079 -4.855,4.856 -5.21,4.856c-0.237,0 -0.474,-0.237 -0.474,-0.356c0,-0.118 0,-0.236 0.237,-0.355c2.487,-1.421 4.618,-3.789 5.921,-6.158l-5.211,0c-0.236,0 -0.355,-0.118 -0.355,-0.355c0,-0.119 0.119,-0.355 0.355,-0.355l10.422,0c0.237,0 0.355,0.118 0.355,0.355c0,0.118 -0.118,0.355 -0.355,0.355l-4.264,0c-0.355,0.592 -0.71,1.184 -1.065,1.658l0.118,0c0.237,0 0.355,0.118 0.355,0.355l0,7.935c0,0.237 -0.237,0.355 -0.355,0.355c-0.237,0 -0.355,-0.118 -0.355,-0.355l-0.119,-7.935Zm5.329,4.145c-0.829,-1.184 -2.131,-2.131 -3.315,-2.842c-0.119,-0.118 -0.237,-0.237 -0.237,-0.355c0,-0.237 0.118,-0.356 0.355,-0.356c0.474,0 3.908,2.487 3.908,3.316c0,0.237 -0.237,0.474 -0.474,0.474c0,0 -0.118,-0.118 -0.237,-0.237Z" style="fill:#275623;fill-rule:nonzero;"/><path d="M127.67,255.411c-2.013,0.71 -4.145,1.302 -4.382,1.302c-0.236,0 -0.355,-0.237 -0.355,-0.355c0,-0.118 0.119,-0.355 0.237,-0.355c0.355,-0.119 0.829,-0.237 1.184,-0.237l0,-7.935l-1.066,0c-0.236,0 -0.355,-0.118 -0.355,-0.355c0,-0.118 0.119,-0.355 0.355,-0.355l6.04,0c0.237,0 0.355,0.118 0.355,0.355c0,0.119 -0.118,0.355 -0.355,0.355l-1.066,0l0,10.54c0,0.237 -0.237,0.355 -0.355,0.355c-0.237,0 -0.355,-0.118 -0.355,-0.355l0,-2.96l0.118,0Zm0,-7.698l-2.487,0l0,2.132l2.487,0l0,-2.132Zm0,2.724l-2.487,0l0,2.013l2.487,0l0,-2.013Zm0,2.605l-2.487,0l0,2.487c0.829,-0.237 1.658,-0.474 2.487,-0.829l0,-1.658Zm1.776,-3.316c-0.236,0 -0.355,-0.118 -0.355,-0.355c0,-0.118 0.119,-0.355 0.355,-0.355c1.066,0 2.606,0 3.672,0c0.71,0 1.184,0.355 1.184,1.065c0,0.474 -0.237,2.843 -1.777,5.211c0.711,0.948 1.658,1.777 2.724,2.25c0.119,0.119 0.237,0.237 0.237,0.356c0,0.236 -0.118,0.473 -0.355,0.473c-0.237,0 -1.658,-0.71 -2.961,-2.368c-1.302,1.658 -2.842,2.487 -3.079,2.487c-0.237,0 -0.355,-0.237 -0.355,-0.356c0,-0.118 0,-0.236 0.237,-0.355c1.066,-0.592 2.013,-1.421 2.842,-2.368c-1.421,-2.132 -1.776,-4.264 -1.776,-4.501c0,-0.236 0.236,-0.355 0.355,-0.355c0.118,0 0.237,0.119 0.355,0.237c0.237,1.303 0.711,2.724 1.421,4.026c1.303,-2.131 1.421,-4.144 1.421,-4.5c0,-0.237 -0.118,-0.473 -0.473,-0.473c-0.948,-0.119 -2.606,-0.119 -3.672,-0.119Z" style="fill:#275623;fill-rule:nonzero;"/><path d="M139.631,251.858c-0.711,-0.592 -1.303,-0.711 -2.013,-0.948c-0.119,0 -0.237,-0.118 -0.237,-0.236c0,-0.237 0.118,-0.356 0.355,-0.356c0.237,0 1.54,0.356 2.25,0.948c0.119,0.118 0.237,0.237 0.237,0.355c0,0.237 -0.118,0.474 -0.355,0.474c-0.119,-0.119 -0.237,-0.119 -0.237,-0.237Zm-1.303,6.513c-0.237,0 -0.355,-0.237 -0.355,-0.355c0,-0.118 0,-0.118 0.118,-0.237c0.948,-1.066 1.54,-2.25 2.251,-3.789c0,-0.119 0.236,-0.237 0.355,-0.237c0.237,0 0.355,0.118 0.355,0.355c0,0.118 -0.829,2.25 -2.25,4.026c-0.237,0.237 -0.355,0.237 -0.474,0.237Zm1.895,-9.355c-0.592,-0.711 -1.184,-1.066 -1.895,-1.421c-0.118,0 -0.118,-0.119 -0.118,-0.237c0,-0.119 0.118,-0.356 0.355,-0.356c0.355,0 1.777,0.829 2.132,1.422c0.118,0.118 0.118,0.236 0.118,0.355c0,0.237 -0.237,0.474 -0.473,0.474c0.118,-0.119 0,-0.237 -0.119,-0.237Zm3.198,0.355c-0.356,-0.592 -1.185,-1.303 -1.422,-1.54c-0.118,-0.118 -0.118,-0.118 -0.118,-0.236c0,-0.119 0.118,-0.356 0.355,-0.356c0.356,0 1.895,1.421 1.895,1.895c0,0.237 -0.237,0.474 -0.355,0.474c-0.119,-0.119 -0.237,-0.119 -0.355,-0.237Zm-0.356,6.04c0,1.184 0,2.25 0,2.96c0,0.237 -0.237,0.355 -0.355,0.355c-0.237,0 -0.355,-0.118 -0.355,-0.355l0,-6.75c0,-0.711 0.473,-1.303 1.539,-1.303c0.356,0 0.829,0 1.184,0l0,-3.434c0,-0.237 0.237,-0.355 0.356,-0.355c0.118,0 0.355,0.118 0.355,0.355l0,3.434c0.474,0 0.829,0 1.303,0c1.184,0 1.539,0.592 1.539,1.421l0,5.566c0,0.711 -0.355,1.421 -1.776,1.421c-1.066,0 -1.303,-0.236 -1.303,-0.473c0,-0.237 0.119,-0.355 0.355,-0.355l0.119,0c0.355,0 0.71,0.118 0.947,0.118c0.592,0 0.948,-0.237 0.948,-0.829c0,-0.355 0,-0.947 0,-1.658l-4.856,0l0,-0.118Zm0,-2.25l0,1.657l4.856,0c0,-0.592 0,-1.065 0,-1.657l-4.856,0Zm4.974,-0.593c0,-1.184 0,-1.658 -0.947,-1.658l-3.079,0c-0.592,0 -0.829,0.356 -0.829,0.829c0,0.237 0,0.593 0,0.829l4.855,0Zm-1.184,-3.315c0,-0.119 0,-0.237 0.118,-0.237c0.474,-0.474 1.185,-1.303 1.421,-1.777c0.119,-0.118 0.119,-0.118 0.237,-0.118c0.237,0 0.474,0.237 0.474,0.474c0,0.355 -1.54,2.131 -2.013,2.131c-0.119,-0.118 -0.237,-0.237 -0.237,-0.473Z" style="fill:#275623;fill-rule:nonzero;"/><path d="M157.632,252.924l-5.566,0c-0.356,0 -0.474,-0.237 -0.474,-0.474c0,-0.237 0.118,-0.474 0.474,-0.474l11.131,0c0.237,0 0.474,0.237 0.474,0.474c0,0.237 -0.118,0.474 -0.474,0.474l-5.565,0Z" style="fill:#275623;fill-rule:nonzero;"/><path d="M167.105,258.371l0.237,-7.579c-0.473,0.711 -0.829,1.184 -1.302,1.658c-0.119,0.118 -0.237,0.118 -0.356,0.118c-0.236,0 -0.355,-0.118 -0.355,-0.355c0,-0.118 0,-0.118 0.119,-0.237c1.421,-1.539 2.368,-3.197 3.079,-5.21c0.118,-0.237 0.236,-0.237 0.355,-0.237c0.237,0 0.474,0.118 0.474,0.355c0,0.118 -0.474,1.184 -1.185,2.487l-0.118,8.882c0,0.237 -0.237,0.355 -0.355,0.355c-0.474,0.118 -0.593,0 -0.593,-0.237Zm4.382,-10.421c-0.118,0.592 -0.237,1.184 -0.355,1.895c0.474,0 0.947,0 1.184,0c0.592,0 1.066,0.236 1.066,0.947c0,0.355 -0.592,5.211 -3.671,7.698c-0.119,0.118 -0.237,0.118 -0.355,0.118c-0.237,0 -0.356,-0.118 -0.356,-0.355c0,-0.119 0,-0.237 0.237,-0.355c1.421,-0.948 2.369,-2.487 2.842,-4.027c-0.473,-0.237 -1.066,-0.474 -1.421,-0.592c-0.118,0 -0.237,-0.118 -0.237,-0.237c0,-0.237 0.119,-0.355 0.356,-0.355c0,0 0.592,0.118 1.421,0.592c0,-0.118 0.355,-1.54 0.355,-2.25c0,-0.355 -0.237,-0.474 -0.474,-0.474c-0.118,0 -0.829,0 -1.184,0c-0.355,1.303 -0.947,2.487 -1.539,3.435c-0.119,0.118 -0.237,0.236 -0.356,0.236c-0.237,0 -0.355,-0.118 -0.355,-0.355c0,-0.118 0,-0.118 0.118,-0.237c1.066,-1.539 1.777,-3.316 2.132,-5.566l-1.066,0c-0.237,0 -0.355,-0.118 -0.355,-0.355c0,-0.118 0.118,-0.355 0.355,-0.355l3.79,0c0.237,0 0.355,0.118 0.355,0.355c0,0.118 -0.118,0.355 -0.355,0.355l-2.132,-0.118Zm2.961,0c0,-0.237 0.237,-0.355 0.355,-0.355c0.237,0 0.355,0.118 0.355,0.355l0,7.342c0,0.237 -0.118,0.355 -0.355,0.355c-0.118,0 -0.355,-0.118 -0.355,-0.355l0,-7.342Zm2.96,6.987c0,0.237 0,1.539 0,2.013c0,0.711 -0.473,1.421 -1.776,1.421c-0.947,0 -1.184,-0.237 -1.184,-0.473c0,-0.237 0.118,-0.356 0.355,-0.356l0.119,0c0.236,0 0.592,0.119 0.71,0.119c0.592,0 0.947,-0.237 0.947,-0.829l0,-9.83c0,-0.236 0.237,-0.355 0.356,-0.355c0.237,0 0.355,0.119 0.355,0.355l0,7.935l0.118,0Z" style="fill:#275623;fill-rule:nonzero;"/><path d="M186.053,252.924l-5.566,0c-0.355,0 -0.473,-0.237 -0.473,-0.474c0,-0.237 0.118,-0.474 0.473,-0.474l11.132,0c0.237,0 0.474,0.237 0.474,0.474c0,0.237 -0.118,0.474 -0.474,0.474l-5.566,0Z" style="fill:#275623;fill-rule:nonzero;"/><path d="M196.001,258.371l0.119,-7.697c-0.119,0.118 -1.54,2.131 -2.014,2.131c-0.237,0 -0.355,-0.118 -0.355,-0.355c0,-0.118 0,-0.237 0.118,-0.237c1.422,-1.421 2.843,-3.434 3.553,-5.566c0,-0.237 0.237,-0.237 0.355,-0.237c0.237,0 0.474,0.119 0.474,0.356c0,0.236 -0.474,1.421 -1.303,2.723l-0.118,8.764c0,0.237 -0.237,0.355 -0.355,0.355c-0.237,0.118 -0.474,0 -0.474,-0.237Zm5.448,-3.434l0,-3.553c-0.829,1.777 -1.895,3.316 -3.316,4.737c-0.119,0.119 -0.237,0.119 -0.356,0.119c-0.236,0 -0.355,-0.119 -0.355,-0.356c0,-0.118 0,-0.237 0.119,-0.355c1.539,-1.303 2.723,-2.961 3.552,-4.974l-2.96,0c-0.237,0 -0.356,-0.237 -0.356,-0.355c0,-0.119 0.119,-0.355 0.356,-0.355l3.197,0l0,-3.079c0,-0.237 0.237,-0.356 0.355,-0.356c0.237,0 0.356,0.119 0.356,0.356l0,3.079l3.552,0c0.237,0 0.356,0.118 0.356,0.355c0,0.237 -0.119,0.355 -0.356,0.355l-3.315,0c1.065,2.013 2.487,3.553 3.908,4.737c0.118,0.119 0.118,0.237 0.118,0.355c0,0.237 -0.118,0.356 -0.355,0.356c-0.119,0 -0.237,0 -0.356,-0.119c-1.302,-1.066 -2.605,-2.723 -3.552,-4.618l0,7.105c0,0.237 -0.237,0.355 -0.356,0.355c-0.236,0 -0.355,-0.118 -0.355,-0.355l0.119,-3.434Z" style="fill:#275623;fill-rule:nonzero;"/><path d="M211.278,252.568c-0.711,1.066 -1.54,2.25 -2.25,2.961c-0.119,0.118 -0.237,0.118 -0.355,0.118c-0.237,0 -0.356,-0.236 -0.356,-0.355c0,-0.118 0,-0.237 0.119,-0.237c0.829,-0.71 2.131,-2.131 2.842,-3.552l0,-0.356l-2.369,0c-0.236,0 -0.355,-0.118 -0.355,-0.355c0,-0.118 0.119,-0.355 0.355,-0.355l2.369,0l0,-2.132c-0.237,0 -1.54,0.355 -1.895,0.355c-0.237,0 -0.355,-0.118 -0.355,-0.355c0,-0.118 0.118,-0.355 0.355,-0.355c1.421,-0.119 2.842,-0.474 4.145,-0.948l0.118,0c0.237,0 0.356,0.119 0.356,0.356c0,0.355 -0.474,0.473 -1.777,0.829c0,0.118 0,1.184 0,2.368l2.013,0c0.237,0 0.356,0.119 0.356,0.355c0,0.119 -0.119,0.356 -0.356,0.356l-2.013,0l0,7.342c0,0.237 -0.237,0.355 -0.355,0.355c-0.237,0 -0.355,-0.118 -0.355,-0.355l-0.237,-6.04Zm2.368,1.422c-0.355,-0.474 -1.184,-1.066 -1.421,-1.185c-0.118,0 -0.118,-0.118 -0.118,-0.237c0,-0.118 0.118,-0.355 0.355,-0.355c0.355,0 1.421,0.948 1.776,1.184c0.119,0.119 0.119,0.237 0.119,0.237c0,0.237 -0.119,0.356 -0.355,0.356c-0.237,0.118 -0.356,0.118 -0.356,0Zm4.974,3.908l-2.368,0c-0.829,0 -1.421,-0.474 -1.421,-1.303l0,-7.106c0,-0.592 0.473,-1.065 1.421,-1.184l2.368,0c0.829,0 1.303,0.474 1.421,1.303c0,1.066 0.119,2.25 0.119,3.434c0,1.184 0,2.487 -0.119,3.553c-0.118,0.829 -0.592,1.303 -1.421,1.303Zm0.592,-4.856c0,-1.184 0,-2.368 0,-3.197c0,-0.592 -0.355,-0.829 -0.829,-0.829c-0.237,0 -0.71,0 -1.065,0c-0.948,0 -1.54,0 -1.658,0.829l0,6.513c0,0.829 0.592,0.829 1.894,0.829c1.303,0 1.658,-0.118 1.658,-0.829c0,-0.947 0,-2.132 0,-3.316Z" style="fill:#275623;fill-rule:nonzero;"/><path d="M227.857,252.213c0,1.658 0,3.198 0,4.027c0,0.947 0.829,1.065 2.014,1.065c2.723,0 3.197,-0.355 3.197,-2.013c0,-0.237 0.237,-0.355 0.355,-0.355c0,0 0.474,0 0.474,0.474c0,2.487 -1.658,2.605 -3.79,2.605c-1.421,0 -2.96,0 -2.96,-1.776c0,-0.711 0,-2.25 0,-3.908l-3.79,0.829l-0.118,0c-0.237,0 -0.356,-0.237 -0.356,-0.356c0,-0.118 0.119,-0.355 0.356,-0.355l4.026,-0.829l0,-4.5c0,-0.237 0.237,-0.355 0.355,-0.355c0.237,0 0.356,0.118 0.356,0.355c0,1.066 -0.119,2.724 -0.119,4.263l5.803,-1.184l0.119,0c0.236,0 0.355,0.237 0.355,0.355c0,0.119 -0.119,0.355 -0.237,0.355l-6.04,1.303Z" style="fill:#275623;fill-rule:nonzero;"/><path d="M115.591,273.411c0.829,2.487 2.96,4.737 5.21,5.329c0.237,0 0.356,0.237 0.356,0.356c0,0.236 -0.119,0.473 -0.474,0.473c-0.711,0 -4.382,-1.895 -5.566,-5.803c-1.303,4.974 -5.566,5.922 -5.684,5.922c-0.237,0 -0.474,-0.237 -0.474,-0.356c0,-0.118 0.118,-0.355 0.355,-0.355c2.961,-0.947 4.5,-3.079 5.093,-5.566l-4.145,0c-0.237,0 -0.356,-0.237 -0.356,-0.355c0,-0.237 0.119,-0.355 0.356,-0.355l4.263,0c0.118,-0.593 0.118,-0.829 0.118,-1.777c0,-0.473 0,-1.066 0,-1.421l-4.973,0c-0.237,0 -0.356,-0.237 -0.356,-0.355c0,-0.237 0.119,-0.355 0.356,-0.355l10.658,0c0.237,0 0.355,0.118 0.355,0.355c0,0.118 -0.118,0.355 -0.355,0.355l-4.856,0c0,2.132 0,2.369 -0.118,3.198l4.5,0c0.237,0 0.355,0.118 0.355,0.355c0,0.118 -0.118,0.355 -0.355,0.355l-4.263,0Z" style="fill:#275623;fill-rule:nonzero;"/><path d="M124.473,279.688l0.118,-7.461c-1.184,1.895 -1.421,2.013 -1.658,2.013c-0.237,0 -0.355,-0.118 -0.355,-0.355c0,-0.119 0,-0.119 0.118,-0.237c1.303,-1.54 2.25,-3.316 2.961,-5.448c0,-0.236 0.237,-0.236 0.355,-0.236c0.237,0 0.474,0.118 0.474,0.355c0,0.118 -0.355,1.184 -1.066,2.605l-0.237,8.764c0,0.237 -0.237,0.355 -0.355,0.355c-0.119,0 -0.355,-0.118 -0.355,-0.355Zm3.197,-2.487l0,2.487c0,0.237 -0.237,0.355 -0.355,0.355c-0.119,0 -0.355,-0.118 -0.355,-0.355c0,-2.843 0,-7.343 0,-10.303c0,-1.066 0.828,-1.066 1.776,-1.066c0.947,0 1.658,0.118 1.658,0.947c0,0.356 0,0.829 0,1.303c0,1.539 -0.355,1.776 -2.25,1.776c-0.119,0 -0.356,0 -0.474,0c0,0.237 0,0.948 0,1.658l2.132,0c0.237,0 0.355,0.119 0.355,0.356c0,0.118 -0.118,0.355 -0.355,0.355l-2.132,0l0,1.895l2.25,0c0.237,0 0.355,0.118 0.355,0.355c0,0.118 -0.118,0.355 -0.355,0.355l-2.25,0l0,-0.118Zm1.066,-5.448c1.066,0 1.066,-0.118 1.066,-1.421c0,-1.303 0,-1.421 -0.948,-1.421c-0.71,0 -1.066,0 -1.066,0.592l0,2.132c0.237,0 0.593,0.118 0.948,0.118Zm1.421,8.29c-0.237,0 -0.355,-0.118 -0.355,-0.355c0,-0.119 0.118,-0.237 0.237,-0.356c0.947,-0.473 1.658,-1.065 2.25,-1.658c-0.948,-1.302 -1.303,-2.368 -1.303,-2.605c0,-0.237 0.237,-0.355 0.355,-0.355c0.119,0 0.237,0 0.356,0.237c0.236,0.829 0.592,1.539 1.065,2.131c0.829,-1.066 1.185,-2.25 1.185,-2.487c0,-0.355 -0.237,-0.355 -0.474,-0.355c-0.829,0 -1.658,0 -2.605,0c-0.237,0 -0.356,-0.118 -0.356,-0.355c0,-0.237 0.119,-0.355 0.237,-0.355l2.724,0c0.829,0 1.066,0.355 1.066,0.829c0,0.473 -0.474,1.894 -1.421,3.197c0.592,0.592 1.302,1.184 2.131,1.54c0.119,0.118 0.237,0.236 0.237,0.355c0,0.237 -0.118,0.355 -0.355,0.355c-0.355,0 -1.421,-0.71 -2.369,-1.776c-1.065,1.421 -2.368,2.013 -2.605,2.013Zm1.184,-8.527c0.711,0 1.777,0 2.013,0c0.593,0 0.593,-0.118 0.593,-1.184c0,-1.066 0,-1.184 -0.593,-1.184l-1.894,0c-0.237,0 -0.356,-0.119 -0.356,-0.355c0,-0.119 0.119,-0.356 0.356,-0.356c0.592,0 1.539,0 2.131,0c1.185,0 1.185,0.592 1.185,1.895c0,1.184 0,1.776 -1.185,1.776l-2.131,0c-0.237,0 -0.356,-0.236 -0.356,-0.355c0,-0.118 0,-0.237 0.237,-0.237Z" style="fill:#275623;fill-rule:nonzero;"/><path d="M144.96,272.345c0.118,1.421 0.355,2.843 0.829,4.145c0.592,-0.829 1.066,-1.776 1.421,-2.724c0,-0.118 0.237,-0.236 0.355,-0.236c0.237,0 0.474,0.118 0.474,0.355c0,0.237 -0.71,1.895 -1.895,3.316c0.237,0.355 0.948,1.658 1.658,1.658c0.356,0 0.711,-0.474 0.948,-1.421c0,-0.237 0.237,-0.356 0.355,-0.356c0.237,0 0.474,0.119 0.474,0.356c0,0.236 -0.356,2.131 -1.777,2.131c-0.947,0 -1.539,-0.829 -2.131,-1.895c-1.54,1.54 -3.316,2.014 -3.553,2.014c-0.237,0 -0.355,-0.237 -0.355,-0.356c0,-0.118 0.118,-0.355 0.355,-0.355c1.421,-0.474 2.487,-1.184 3.316,-2.013c-0.592,-1.421 -0.948,-3.079 -1.066,-4.737l-3.079,0l0,2.368c0.71,-0.236 1.303,-0.473 1.776,-0.829l0.119,0c0.237,0 0.355,0.119 0.355,0.356c0,0.237 -0.118,0.355 -2.369,1.184l0,2.605c0,0.711 -0.236,1.54 -1.657,1.54c-1.303,0 -1.303,-0.237 -1.303,-0.474c0,-0.237 0.118,-0.355 0.355,-0.355l0.119,0c0.355,0.118 0.71,0.118 0.947,0.118c0.474,0 0.829,-0.237 0.829,-1.066l0,-2.25c-1.066,0.356 -2.25,0.711 -2.487,0.711c-0.237,0 -0.355,-0.237 -0.355,-0.355c0,-0.119 0.118,-0.356 0.355,-0.356c0.829,-0.236 1.776,-0.473 2.487,-0.71l0,-2.606l-2.605,0c-0.237,0 -0.356,-0.118 -0.356,-0.355c0,-0.118 0.119,-0.355 0.356,-0.355l2.605,0l0,-2.132c-0.592,0.119 -2.013,0.356 -2.132,0.356c-0.237,0 -0.355,-0.119 -0.355,-0.356c0,-0.118 0.118,-0.355 0.355,-0.355c1.303,-0.118 2.724,-0.355 4.145,-0.947l0.119,0c0.236,0 0.355,0.118 0.355,0.355c0,0.237 -0.355,0.474 -1.658,0.829l0,2.368l2.961,0c-0.119,-1.184 -0.119,-2.368 -0.119,-3.434c0,-0.237 0.237,-0.355 0.474,-0.355c0.237,0 0.355,0.118 0.355,0.355c0,2.132 0,2.724 0,3.434l4.027,0c0.236,0 0.355,0.119 0.355,0.356c0,0.118 -0.119,0.355 -0.355,0.355l-4.027,0.118Zm2.724,-1.776c-0.474,-0.592 -1.066,-0.947 -1.54,-1.303c-0.118,-0.118 -0.118,-0.118 -0.118,-0.237c0,-0.118 0.118,-0.355 0.355,-0.355c0.237,0 2.013,0.948 2.013,1.54c0,0.237 -0.236,0.473 -0.355,0.473c-0.237,0 -0.355,0 -0.355,-0.118Z" style="fill:#275623;fill-rule:nonzero;"/><path d="M151.237,278.03c0,-0.119 0,-0.237 0.118,-0.356c0.474,-0.355 1.066,-1.302 1.303,-1.894c0,-0.119 0.118,-0.237 0.237,-0.237c0.236,0 0.355,0.118 0.355,0.355c0,0.474 -1.184,2.369 -1.777,2.369c-0.118,0.118 -0.236,0 -0.236,-0.237Zm0.592,-7.698c-0.237,0 -0.356,-0.118 -0.356,-0.355c0,-0.119 0.119,-0.355 0.356,-0.355l2.487,0l0,-1.422c0,-0.236 0.236,-0.355 0.355,-0.355c0.118,0 0.355,0.119 0.355,0.355l0,1.422l2.606,0c0.236,0 0.355,0.118 0.355,0.355c0,0.118 -0.119,0.355 -0.355,0.355l-5.803,0Zm2.605,4.619c-1.066,0 -2.013,0 -2.132,-0.829l0,-1.658c0,-0.592 0.474,-0.948 1.185,-0.948l2.368,0c0.592,0 1.066,0.356 1.066,0.829l0,1.658c0,0.474 -0.355,0.829 -1.066,0.829c-0.237,0 -0.474,0 -0.71,0l0,3.198c0,0.71 -0.237,1.302 -1.303,1.302c-0.829,0 -1.066,-0.118 -1.066,-0.473c0,-0.237 0.119,-0.356 0.355,-0.356l0.119,0c0.237,0 0.473,0.119 0.71,0.119c0.474,0 0.592,-0.237 0.592,-0.829l0,-2.842l-0.118,0Zm1.895,-1.777c0,-1.066 0,-1.066 -1.658,-1.066c-0.355,0 -0.711,0 -1.066,0c-0.592,0 -0.592,0.237 -0.592,1.066c0,0.237 0,0.474 0,0.711c0,0.474 0.474,0.474 1.776,0.474c1.303,0 1.54,-0.119 1.54,-0.474c0,-0.119 0,-0.474 0,-0.711Zm0.592,4.264c-0.237,-0.474 -0.711,-0.948 -1.066,-1.303l-0.118,-0.119c0,-0.118 0.118,-0.355 0.355,-0.355c0.237,0 1.421,1.184 1.421,1.54c0,0.237 -0.237,0.355 -0.355,0.355c-0.119,0 -0.237,0 -0.237,-0.118Zm3.316,-5.685c-0.119,3.316 -0.829,6.277 -3.671,8.053c-0.119,0 -0.237,0.119 -0.237,0.119c-0.237,0 -0.355,-0.237 -0.355,-0.356c0,-0.118 0,-0.237 0.236,-0.355c2.724,-1.776 3.316,-4.5 3.435,-7.461l-1.777,0c-0.236,0 -0.355,-0.118 -0.355,-0.355c0,-0.118 0.119,-0.355 0.355,-0.355l1.777,0l0,-0.356c0,-0.829 0,-1.658 0,-2.487c0,-0.236 0.237,-0.355 0.355,-0.355c0.237,0 0.355,0.119 0.355,0.355c0,2.369 0,2.487 0,2.843l2.842,0c0.237,0 0.356,0.118 0.356,0.355c0,0.118 -0.119,0.355 -0.356,0.355l-2.96,0Zm-0.119,6.632c0,-0.592 0,-4.263 0.119,-4.737c0,-0.237 0.237,-0.355 0.355,-0.355c0.355,0 0.355,0.355 0.355,0.592c0,0.829 0,3.434 0,4.145c0,0.592 0,0.947 0.829,0.947c1.185,0 1.303,-0.237 1.303,-1.303c0,-0.236 0,-0.592 0.355,-0.592c0.237,0 0.356,0.119 0.356,0.356l0,0.118c0,2.013 -0.711,2.132 -2.014,2.132c-0.947,0 -1.658,-0.119 -1.658,-1.303Zm2.369,-8.408c-0.474,-0.474 -0.947,-0.711 -1.303,-0.948c-0.118,0 -0.118,-0.118 -0.118,-0.236c0,-0.119 0.118,-0.356 0.355,-0.356c0.355,0 1.658,0.711 1.658,1.185c0,0.236 -0.237,0.355 -0.355,0.355c-0.119,0 -0.119,0 -0.237,0Z" style="fill:#275623;fill-rule:nonzero;"/><path d="M171.487,271.635c-2.131,3.079 -4.855,4.855 -5.21,4.855c-0.237,0 -0.474,-0.237 -0.474,-0.355c0,-0.119 0,-0.237 0.237,-0.355c2.487,-1.421 4.618,-3.79 5.921,-6.158l-5.211,0c-0.237,0 -0.355,-0.119 -0.355,-0.356c0,-0.118 0.118,-0.355 0.355,-0.355l10.422,0c0.236,0 0.355,0.118 0.355,0.355c0,0.119 -0.119,0.356 -0.355,0.356l-4.264,0c-0.355,0.592 -0.71,1.184 -1.066,1.658l0.119,0c0.237,0 0.355,0.118 0.355,0.355l0,7.934c0,0.237 -0.237,0.356 -0.355,0.356c-0.237,0 -0.355,-0.119 -0.355,-0.356l-0.119,-7.934Zm5.329,4.145c-0.829,-1.185 -2.131,-2.132 -3.316,-2.843c-0.118,-0.118 -0.236,-0.236 -0.236,-0.355c0,-0.237 0.118,-0.355 0.355,-0.355c0.474,0 3.908,2.487 3.908,3.316c0,0.237 -0.237,0.473 -0.474,0.473c0,0 -0.118,-0.118 -0.237,-0.236Z" style="fill:#275623;fill-rule:nonzero;"/><path d="M188.54,273.174c1.066,0.829 2.25,1.54 3.435,2.014c0.118,0.118 0.237,0.236 0.237,0.355c0,0.237 -0.119,0.473 -0.356,0.473c-0.473,0 -3.434,-1.894 -5.092,-3.552c-0.237,-0.237 -0.355,-0.356 -0.592,-0.356c-0.237,0 -0.355,0.119 -0.592,0.356c-1.658,1.895 -4.737,3.908 -5.211,3.908c-0.237,0 -0.355,-0.237 -0.355,-0.356c0,-0.118 0.118,-0.236 0.237,-0.355c1.421,-0.592 2.96,-1.776 4.026,-2.842c-1.539,0.355 -3.671,0.829 -3.908,0.829c-0.237,0 -0.355,-0.118 -0.355,-0.355c0,-0.119 0.118,-0.237 0.237,-0.356c0.236,0 0.473,0 0.829,-0.118c0.236,-0.474 0.473,-0.947 0.592,-1.658c0,-0.118 0.237,-0.237 0.355,-0.237c0.237,0 0.355,0.119 0.355,0.356c0,0.118 -0.237,0.71 -0.71,1.421c0.71,-0.119 1.539,-0.356 2.131,-0.356c-0.236,-0.237 -0.355,-0.473 -0.592,-0.592l-0.118,-0.118c0,-0.119 0.118,-0.237 0.355,-0.237c0.355,0 1.066,0.947 1.184,0.947l0.356,-0.355c0.236,-0.355 0.592,-0.474 0.947,-0.474c0.355,0 0.711,0.119 1.066,0.474c0.118,0.118 0.355,0.355 0.592,0.474c0.237,-0.356 0.474,-0.948 0.71,-1.54c0,-0.118 0.237,-0.237 0.356,-0.237c0.237,0 0.355,0.119 0.355,0.356c0,0.237 -0.711,1.539 -0.829,1.658c0.711,0 1.658,-0.237 2.25,-0.356c-0.237,-0.237 -0.474,-0.473 -0.592,-0.592l-0.118,-0.118c0,-0.119 0.118,-0.237 0.355,-0.237c0.355,0 1.658,1.421 1.658,1.658c0,0.237 -0.237,0.355 -0.355,0.355c-0.119,0 -0.237,0 -0.237,-0.118c-0.119,-0.119 -0.237,-0.356 -0.356,-0.474c-0.592,0.118 -1.539,0.355 -2.25,0.355Zm-7.224,-2.487c-0.236,0 -0.355,-0.118 -0.355,-0.355c0,-0.118 0.119,-0.355 0.355,-0.355l2.132,0c0.355,-0.592 0.829,-1.54 1.066,-2.25c0,-0.119 0.237,-0.237 0.355,-0.237c0.237,0 0.474,0.118 0.474,0.355c0,0.237 -0.711,1.421 -1.184,2.013c1.539,-0.118 3.079,-0.236 4.5,-0.473c-0.356,-0.237 -0.711,-0.474 -0.948,-0.711c-0.118,-0.118 -0.118,-0.118 -0.118,-0.237c0,-0.118 0.118,-0.237 0.355,-0.237c0.355,0 2.842,1.658 2.842,2.251c0,0.236 -0.236,0.355 -0.355,0.355c-0.118,0 -0.237,0 -0.237,-0.119c-0.237,-0.236 -0.473,-0.592 -0.71,-0.829c-3.316,0.593 -6.869,0.829 -8.172,0.829Zm0.593,9.238c-0.237,0 -0.356,-0.119 -0.356,-0.356c0,-0.237 0.119,-0.355 0.356,-0.355c3.552,0 5.684,-0.947 7.46,-2.842c0.119,-0.119 0.237,-0.119 0.356,-0.119c0.236,0 0.473,0.237 0.473,0.356c0,0.118 0,0.118 -0.118,0.236c-1.303,1.303 -3.553,3.08 -8.171,3.08Zm5.802,-4.856c0.119,-0.118 0.237,-0.118 0.237,-0.118c0.237,0 0.355,0.118 0.355,0.355c0,0.118 0,0.237 -0.118,0.355c-2.487,2.369 -5.684,2.724 -5.921,2.724c-0.237,0 -0.355,-0.118 -0.355,-0.355c0,-0.119 0.118,-0.356 0.236,-0.356c2.132,-0.236 4.027,-1.184 5.566,-2.605Zm-5.447,1.54c-0.237,0 -0.355,-0.119 -0.355,-0.237c0,-0.119 0.118,-0.237 0.236,-0.356c1.303,-0.355 2.843,-1.184 3.908,-2.368c0.119,-0.118 0.237,-0.118 0.237,-0.118c0.237,0 0.356,0.118 0.356,0.355c0,0.118 0,0.118 -0.119,0.237c-1.303,1.658 -3.908,2.487 -4.263,2.487Z" style="fill:#275623;fill-rule:nonzero;"/><path d="M198.37,270.687c0.947,0 1.421,0.593 1.421,1.421c0,0.237 0,0.474 0,0.711c0,5.092 -0.592,6.395 -2.369,6.395c-0.355,0 -0.71,0 -1.184,-0.118c-0.237,0 -0.237,-0.237 -0.237,-0.356c0,-0.237 0.119,-0.355 0.355,-0.355l0.119,0c0.355,0.118 0.592,0.118 0.829,0.118c0.71,0 1.658,-0.236 1.658,-5.447c0,-0.355 0,-0.592 0,-0.829c0,-0.592 -0.356,-0.829 -0.829,-0.829c-0.237,0 -0.592,0 -0.948,0c0,0.118 0,0.237 0,0.355c-0.118,2.724 -0.71,5.685 -2.842,7.816c-0.118,0.119 -0.237,0.119 -0.355,0.119c-0.237,0 -0.355,-0.119 -0.355,-0.356c0,-0.118 0,-0.236 0.118,-0.236c2.013,-2.014 2.487,-4.737 2.724,-7.224l0,-0.474c-0.592,0 -1.303,0 -1.895,0c-0.237,0 -0.355,-0.118 -0.355,-0.355c0,-0.237 0.118,-0.356 0.355,-0.356l1.895,0l0,-2.487c0,-0.236 0.237,-0.355 0.355,-0.355c0.237,0 0.355,0.119 0.355,0.355c0,0.711 0,1.54 0,2.369l1.185,0l0,0.118Zm7.223,0.711c0,0.947 0.119,2.132 0.119,3.316c0,1.184 0,2.25 -0.119,3.316c0,0.829 -0.592,1.302 -1.421,1.302l-1.658,0c-0.829,0 -1.421,-0.473 -1.421,-1.302l0,-6.632c0,-1.421 1.303,-1.421 2.25,-1.421c0.237,0 0.593,0 0.829,0c0.948,0.118 1.421,0.592 1.421,1.421Zm-0.592,3.197c0,-1.065 0,-2.25 0,-3.079c0,-0.829 -0.592,-0.829 -1.539,-0.829c-0.711,0 -1.303,0 -1.303,0.829l0,6.277c0,0.71 0.592,0.829 1.421,0.829c1.303,0 1.421,-0.237 1.54,-0.829c-0.237,-0.948 -0.119,-2.132 -0.119,-3.198Z" style="fill:#275623;fill-rule:nonzero;"/><path d="M210.923,279.451c-0.356,0 -0.711,-0.355 -0.711,-0.711c0,-0.473 0.355,-0.71 0.711,-0.71c0.355,0 0.71,0.237 0.71,0.71c0,0.474 -0.474,0.711 -0.71,0.711Zm0,-2.961c-0.237,0 -0.356,-0.118 -0.356,-0.355l0,-0.592c0,-1.54 -0.118,-4.856 -0.118,-6.632c0,-0.355 0.237,-0.474 0.474,-0.474c0.236,0 0.473,0.237 0.473,0.592c0,1.658 -0.118,5.448 -0.118,6.869l0,0.355c0,0.119 -0.237,0.237 -0.355,0.237Z" style="fill:#275623;fill-rule:nonzero;"/></g><path d="M233.186,274.477c0.356,7.934 7.106,14.093 15.277,13.737" style="fill:none;stroke:#275623;stroke-width:3.55px;"/></g><path d="M293.228,305.623l-266.693,0c-2.25,0 -4.026,-1.777 -4.026,-4.027l0,-196.348c0,-2.25 1.776,-4.026 4.026,-4.026l266.693,0c2.25,0 4.026,1.776 4.026,4.026l0,196.348c0,2.25 -1.776,4.027 -4.026,4.027Z" style="fill:none;stroke:#275623;stroke-width:3.55px;"/><path d="M293.228,83.576l-266.693,0c-2.25,0 -4.026,-1.776 -4.026,-4.026l0,-49.146c0,-2.25 1.776,-4.027 4.026,-4.027l266.693,0c2.25,0 4.026,1.777 4.026,4.027l0,49.146c0,2.25 -1.776,4.026 -4.026,4.026Z" style="fill:none;stroke:#275623;stroke-width:3.55px;"/><path d="M58.629,78.958l0,27.238" style="fill:none;stroke:#275623;stroke-width:3.55px;"/><path d="M262.319,78.958l0,27.238" style="fill:none;stroke:#275623;stroke-width:3.55px;"/><g><path d="M61.719,168.725l0.13,0.004l0.129,0.006l0.129,0.01l0.128,0.011l0.127,0.014l0.127,0.017l0.127,0.019l0.125,0.022l0.125,0.024l0.124,0.027l0.123,0.028l0.123,0.032l0.121,0.033l0.121,0.036l0.119,0.039l0.119,0.04l0.118,0.043l0.117,0.045l0.115,0.047l0.115,0.05l0.113,0.051l0.113,0.054l0.111,0.056l0.11,0.058l0.108,0.06l0.108,0.062l0.106,0.064l0.105,0.067l0.103,0.068l0.102,0.07l0.101,0.072l0.099,0.074l0.098,0.076l0.096,0.078l0.095,0.08l0.094,0.081l0.091,0.084l0.09,0.085l0.089,0.087l0.087,0.089l0.085,0.09l0.083,0.092l0.082,0.094l0.08,0.096l0.078,0.097l0.076,0.099l0.075,0.101l0.072,0.102l0.071,0.104l0.068,0.105l0.067,0.107l0.064,0.109l0.063,0.11l0.06,0.111l0.058,0.113l0.056,0.114l0.054,0.115l0.051,0.117l0.05,0.119l0.047,0.119l0.044,0.121l0.043,0.122l0.031,0.098l6.603,19.806l0,31.673l-0.001,0.259l-0.001,0.262l-0.002,0.261l-0.003,0.26l-0.004,0.261l-0.005,0.261l-0.006,0.261l-0.006,0.26l-0.007,0.261l-0.009,0.26l-0.009,0.261l-0.01,0.26l-0.01,0.26l-0.012,0.26l-0.012,0.26l-0.014,0.26l-0.014,0.259l-0.015,0.26l-0.016,0.259l-0.017,0.259l-0.017,0.26l-0.019,0.259l-0.019,0.259l-0.02,0.258l-0.021,0.259l-0.022,0.259l-0.023,0.258l-0.023,0.258l-0.024,0.258l-0.026,0.258l-0.026,0.258l-0.027,0.258l-0.027,0.258l-0.029,0.257l-0.029,0.257l-0.031,0.257l-0.031,0.257l-0.032,0.257l-0.033,0.257l-0.033,0.256l-0.035,0.256l-0.035,0.256l-0.036,0.256l-0.037,0.256l-0.038,0.256l-0.039,0.255l-0.039,0.255l-0.04,0.255l-0.042,0.255l-0.042,0.255l-0.042,0.254l-0.044,0.255l-0.044,0.254l-0.046,0.254l-0.046,0.253l-0.047,0.254l-0.048,0.253l-0.048,0.253l-0.05,0.253l-0.05,0.253l-0.051,0.252l-0.052,0.253l-0.053,0.252l-0.053,0.252l-0.055,0.251l-0.055,0.251l-0.056,0.252l-0.057,0.251l-0.057,0.25l-0.059,0.251l-0.059,0.25l-0.06,0.25l-0.061,0.25l-0.062,0.249l-0.062,0.25l-0.064,0.249l-0.064,0.248l-0.065,0.249l-0.066,0.248l-0.066,0.248l-0.068,0.248l-0.068,0.248l-0.069,0.247l-0.07,0.247l-0.071,0.247l-0.071,0.246l-0.072,0.246l-0.073,0.246l-0.074,0.246l-0.075,0.245l-0.075,0.245l-0.077,0.245l-0.077,0.245l-0.078,0.244l-0.078,0.244l-0.08,0.243l-0.08,0.244l-0.081,0.243l-0.082,0.243l-0.083,0.242l-0.083,0.242l-0.085,0.242l-0.085,0.242l-0.086,0.241l-0.086,0.241l-0.088,0.241l-0.088,0.24l-0.089,0.24l-0.09,0.24l-0.091,0.239l-0.091,0.239l-0.092,0.239l-0.093,0.238l-0.094,0.238l-0.095,0.238l-0.095,0.238l-0.096,0.237l-0.097,0.236l-0.098,0.237l-0.098,0.236l-0.1,0.235l-0.1,0.236l-0.101,0.235l-0.101,0.234l-0.103,0.235l-0.103,0.234l-0.104,0.233l-0.105,0.233l-0.105,0.233l-0.106,0.233l-0.108,0.232l-0.107,0.232l-0.109,0.231l-0.11,0.231l-0.11,0.231l-0.111,0.23l-0.111,0.23l-0.113,0.229l-0.113,0.229l-0.114,0.229l-0.115,0.228l-0.116,0.228l-0.116,0.228l-0.117,0.227l-0.118,0.227l-0.119,0.226l-0.119,0.226l-0.12,0.226l-0.121,0.225l-0.122,0.224l-0.123,0.225l-0.123,0.224l-0.124,0.223l-0.125,0.223l-0.125,0.223l-0.127,0.222l-0.127,0.222l-0.127,0.221l-0.129,0.221l-0.129,0.22l-0.13,0.22l-0.131,0.22l-0.132,0.219l-0.132,0.219l-0.133,0.218l-0.134,0.218l-0.135,0.217l-0.135,0.217l-0.136,0.217l-0.137,0.216l-0.138,0.215l-0.138,0.215l-0.139,0.215l-0.14,0.214l-0.141,0.214l-0.141,0.213l-0.142,0.213l-0.143,0.212l-0.144,0.212l-0.144,0.211l-0.145,0.211l-0.146,0.21l-0.147,0.21l-0.147,0.21l-0.148,0.208l-0.149,0.209l-0.149,0.208l-0.151,0.207l-0.151,0.207l-0.151,0.207l-0.153,0.205l-0.153,0.206l-0.154,0.205l-0.155,0.204l-0.155,0.204l-0.156,0.203l-0.157,0.203l-0.158,0.202l-0.158,0.202l-0.159,0.202l-0.16,0.2l-0.161,0.2l-0.161,0.2l-0.162,0.199l-0.163,0.199l-0.163,0.198l-0.164,0.198l-0.165,0.196l-0.166,0.197l-0.166,0.196l-0.167,0.195l-0.168,0.195l-0.169,0.194l-0.169,0.194l-0.17,0.193l-0.17,0.193l-0.172,0.192l-0.172,0.191l-0.173,0.191l-0.173,0.19l-0.175,0.19l-0.175,0.189l-0.175,0.189l-0.177,0.188l-0.177,0.187l-0.178,0.187l-0.178,0.186l-0.18,0.186l-0.179,0.185l-0.181,0.184l-0.182,0.184l-0.182,0.184l-0.183,0.182l-0.183,0.182l-0.184,0.182l-0.185,0.181l-0.186,0.18l-0.186,0.179l-0.187,0.18l-0.188,0.178l-0.188,0.178l-0.189,0.177l-0.19,0.176l-0.191,0.176l-0.191,0.176l-0.192,0.174l-0.193,0.174l-0.193,0.174l-0.194,0.173l-0.195,0.172l-0.195,0.171l-0.196,0.171l-0.197,0.17l-0.198,0.17l-0.198,0.169l-0.198,0.167l-0.333,0.281l-0.339,0.281l-0.339,0.279l-0.341,0.277l-0.343,0.274l-0.344,0.272l-0.346,0.269l-0.348,0.266l-0.348,0.264l-0.349,0.261l-0.177,0.13l-0.177,0.129l-0.176,0.128l-0.177,0.128l-0.177,0.127l-0.178,0.126l-0.178,0.125l-0.178,0.125l-0.179,0.124l-0.179,0.123l-0.179,0.122l-0.18,0.122l-0.181,0.121l-0.18,0.12l-0.181,0.119l-0.182,0.119l-0.181,0.118l-0.182,0.117l-0.183,0.116l-0.183,0.115l-0.183,0.115l-0.183,0.114l-0.184,0.112l-0.184,0.112l-0.185,0.112l-0.185,0.11l-0.186,0.11l-0.185,0.108l-0.186,0.108l-0.187,0.107l-0.187,0.106l-0.187,0.105l-0.188,0.104l-0.188,0.103l-0.188,0.103l-0.188,0.101l-0.19,0.101l-0.189,0.099l-0.19,0.099l-0.19,0.098l-0.19,0.096l-0.191,0.096l-0.191,0.095l-0.192,0.094l-0.191,0.093l-0.193,0.091l-0.192,0.091l-0.193,0.09l-0.194,0.089l-0.193,0.088l-0.194,0.086l-0.195,0.086l-0.194,0.085l-0.195,0.083l-0.196,0.083l-0.195,0.081l-0.196,0.081l-0.197,0.079l-0.197,0.078l-0.197,0.077l-0.197,0.076l-0.198,0.075l-0.198,0.074l-0.199,0.073l-0.199,0.071l-0.199,0.071l-0.199,0.069l-0.2,0.068l-0.2,0.067l-0.201,0.066l-0.201,0.064l-0.201,0.064l-0.201,0.062l-0.202,0.061l-0.202,0.06l-0.203,0.058l-0.203,0.057l-0.203,0.057l-0.203,0.054l-0.204,0.054l-0.204,0.052l-0.205,0.051l-0.205,0.05l-0.205,0.049l-0.205,0.047l-0.206,0.046l-0.206,0.044l-0.206,0.044l-0.207,0.042l-0.207,0.04l-0.207,0.04l-0.207,0.038l-0.208,0.036l-0.208,0.036l-0.209,0.034l-0.208,0.032l-0.21,0.031l-0.209,0.03l-0.209,0.028l-0.21,0.027l-0.21,0.026l-0.211,0.024l-0.211,0.023l-0.211,0.021l-0.211,0.02l-0.212,0.018l-0.211,0.017l-0.206,0.015l-0.279,-0.001l-0.275,-0.045l-0.265,-0.088l-0.247,-0.128l-0.225,-0.165l-0.196,-0.198l-0.162,-0.227l-0.125,-0.249l-0.085,-0.265l-0.042,-0.276l0.001,-0.279l0.046,-0.275l0.087,-0.264l0.128,-0.248l0.165,-0.225l0.199,-0.196l0.226,-0.162l0.249,-0.125l0.266,-0.085l0.275,-0.042l0.194,-0.014l0.187,-0.015l0.187,-0.016l0.187,-0.018l0.187,-0.019l0.186,-0.02l0.187,-0.021l0.186,-0.023l0.186,-0.024l0.186,-0.025l0.185,-0.026l0.186,-0.028l0.185,-0.029l0.185,-0.03l0.186,-0.031l0.184,-0.033l0.185,-0.034l0.185,-0.035l0.184,-0.036l0.184,-0.038l0.184,-0.038l0.184,-0.04l0.184,-0.041l0.183,-0.042l0.184,-0.044l0.183,-0.044l0.183,-0.046l0.183,-0.047l0.183,-0.048l0.182,-0.049l0.182,-0.05l0.183,-0.052l0.182,-0.052l0.182,-0.054l0.181,-0.055l0.182,-0.056l0.181,-0.057l0.181,-0.058l0.181,-0.06l0.181,-0.06l0.181,-0.062l0.18,-0.062l0.18,-0.064l0.18,-0.065l0.18,-0.066l0.18,-0.067l0.179,-0.068l0.18,-0.069l0.179,-0.07l0.179,-0.071l0.178,-0.072l0.179,-0.073l0.178,-0.074l0.179,-0.076l0.177,-0.076l0.178,-0.077l0.178,-0.079l0.177,-0.079l0.177,-0.08l0.178,-0.082l0.176,-0.082l0.177,-0.083l0.176,-0.084l0.176,-0.086l0.176,-0.086l0.176,-0.087l0.176,-0.088l0.175,-0.089l0.175,-0.09l0.175,-0.091l0.175,-0.092l0.174,-0.093l0.174,-0.093l0.174,-0.095l0.174,-0.096l0.174,-0.096l0.173,-0.097l0.173,-0.098l0.173,-0.1l0.173,-0.1l0.172,-0.1l0.173,-0.102l0.171,-0.103l0.172,-0.103l0.172,-0.104l0.171,-0.105l0.171,-0.106l0.171,-0.107l0.17,-0.108l0.17,-0.108l0.17,-0.109l0.17,-0.111l0.17,-0.11l0.169,-0.112l0.169,-0.112l0.169,-0.114l0.168,-0.114l0.169,-0.114l0.168,-0.116l0.167,-0.116l0.168,-0.117l0.167,-0.118l0.167,-0.118l0.167,-0.12l0.166,-0.12l0.166,-0.12l0.166,-0.122l0.164,-0.121l0.332,-0.247l0.329,-0.249l0.328,-0.252l0.327,-0.255l0.326,-0.257l0.325,-0.259l0.323,-0.263l0.322,-0.264l0.321,-0.267l0.323,-0.272l0.19,-0.161l0.188,-0.16l0.188,-0.161l0.187,-0.162l0.186,-0.162l0.186,-0.163l0.185,-0.164l0.185,-0.164l0.183,-0.165l0.184,-0.166l0.182,-0.166l0.182,-0.166l0.181,-0.167l0.18,-0.168l0.18,-0.169l0.179,-0.169l0.179,-0.169l0.178,-0.171l0.177,-0.17l0.176,-0.172l0.176,-0.172l0.175,-0.172l0.175,-0.173l0.174,-0.174l0.173,-0.174l0.172,-0.175l0.172,-0.176l0.171,-0.176l0.171,-0.176l0.169,-0.177l0.169,-0.178l0.169,-0.178l0.168,-0.179l0.167,-0.179l0.166,-0.18l0.166,-0.18l0.165,-0.181l0.164,-0.182l0.164,-0.182l0.163,-0.183l0.162,-0.183l0.162,-0.184l0.161,-0.184l0.16,-0.184l0.16,-0.186l0.159,-0.186l0.158,-0.186l0.158,-0.187l0.156,-0.187l0.157,-0.188l0.155,-0.189l0.155,-0.189l0.154,-0.189l0.154,-0.19l0.152,-0.19l0.152,-0.191l0.152,-0.192l0.15,-0.192l0.15,-0.193l0.15,-0.192l0.148,-0.194l0.148,-0.194l0.147,-0.194l0.147,-0.195l0.146,-0.196l0.145,-0.196l0.144,-0.196l0.144,-0.197l0.143,-0.198l0.142,-0.198l0.142,-0.198l0.141,-0.199l0.14,-0.199l0.14,-0.2l0.139,-0.2l0.138,-0.201l0.137,-0.201l0.137,-0.202l0.136,-0.202l0.135,-0.202l0.135,-0.203l0.134,-0.204l0.133,-0.204l0.132,-0.204l0.132,-0.205l0.131,-0.205l0.13,-0.206l0.13,-0.206l0.129,-0.207l0.128,-0.207l0.128,-0.207l0.126,-0.208l0.126,-0.208l0.126,-0.209l0.124,-0.209l0.124,-0.21l0.124,-0.21l0.122,-0.21l0.122,-0.211l0.121,-0.211l0.12,-0.212l0.12,-0.212l0.119,-0.212l0.118,-0.213l0.117,-0.214l0.117,-0.213l0.116,-0.214l0.115,-0.215l0.115,-0.215l0.114,-0.215l0.113,-0.216l0.112,-0.216l0.112,-0.216l0.11,-0.217l0.111,-0.217l0.109,-0.218l0.109,-0.218l0.108,-0.218l0.107,-0.219l0.106,-0.219l0.106,-0.219l0.105,-0.22l0.105,-0.22l0.103,-0.221l0.103,-0.221l0.102,-0.221l0.101,-0.222l0.101,-0.222l0.1,-0.222l0.099,-0.223l0.098,-0.223l0.098,-0.223l0.097,-0.224l0.096,-0.224l0.096,-0.224l0.094,-0.225l0.094,-0.225l0.093,-0.226l0.093,-0.225l0.091,-0.226l0.091,-0.227l0.091,-0.226l0.089,-0.227l0.089,-0.228l0.088,-0.227l0.087,-0.228l0.086,-0.229l0.086,-0.228l0.085,-0.229l0.084,-0.23l0.084,-0.229l0.082,-0.23l0.082,-0.23l0.081,-0.23l0.081,-0.231l0.079,-0.231l0.079,-0.231l0.078,-0.232l0.078,-0.232l0.076,-0.232l0.076,-0.233l0.075,-0.232l0.075,-0.233l0.073,-0.234l0.073,-0.233l0.072,-0.234l0.071,-0.234l0.071,-0.235l0.069,-0.234l0.069,-0.235l0.069,-0.235l0.067,-0.236l0.067,-0.235l0.066,-0.236l0.065,-0.236l0.064,-0.237l0.064,-0.237l0.062,-0.237l0.062,-0.237l0.062,-0.237l0.06,-0.238l0.06,-0.238l0.059,-0.238l0.058,-0.238l0.057,-0.239l0.057,-0.239l0.056,-0.239l0.055,-0.239l0.054,-0.239l0.053,-0.24l0.053,-0.24l0.052,-0.24l0.051,-0.241l0.05,-0.24l0.05,-0.241l0.049,-0.241l0.048,-0.241l0.047,-0.242l0.046,-0.241l0.046,-0.242l0.045,-0.242l0.044,-0.242l0.043,-0.242l0.042,-0.243l0.042,-0.243l0.041,-0.243l0.04,-0.243l0.039,-0.243l0.039,-0.244l0.038,-0.243l0.036,-0.244l0.037,-0.244l0.035,-0.244l0.034,-0.245l0.034,-0.244l0.033,-0.245l0.032,-0.245l0.031,-0.245l0.031,-0.245l0.03,-0.245l0.029,-0.246l0.028,-0.245l0.027,-0.246l0.026,-0.246l0.026,-0.246l0.025,-0.246l0.024,-0.246l0.023,-0.247l0.023,-0.246l0.022,-0.247l0.02,-0.247l0.02,-0.247l0.02,-0.247l0.018,-0.247l0.018,-0.248l0.016,-0.247l0.016,-0.248l0.016,-0.248l0.014,-0.247l0.014,-0.248l0.012,-0.248l0.012,-0.249l0.011,-0.248l0.011,-0.248l0.009,-0.249l0.009,-0.248l0.007,-0.249l0.007,-0.249l0.007,-0.248l0.005,-0.249l0.005,-0.249l0.003,-0.25l0.003,-0.249l0.002,-0.249l0.001,-0.249l0.001,-0.251l0,-31.093l-6.425,-19.274l-0.025,-0.078l-0.019,-0.053l-0.019,-0.053l-0.02,-0.052l-0.022,-0.051l-0.022,-0.051l-0.023,-0.05l-0.025,-0.049l-0.025,-0.049l-0.026,-0.049l-0.027,-0.047l-0.028,-0.047l-0.029,-0.047l-0.03,-0.046l-0.031,-0.045l-0.032,-0.045l-0.032,-0.044l-0.033,-0.043l-0.035,-0.043l-0.035,-0.042l-0.035,-0.041l-0.037,-0.04l-0.038,-0.04l-0.038,-0.039l-0.039,-0.039l-0.04,-0.037l-0.04,-0.037l-0.041,-0.036l-0.042,-0.035l-0.043,-0.035l-0.043,-0.034l-0.044,-0.032l-0.045,-0.032l-0.045,-0.031l-0.046,-0.031l-0.047,-0.029l-0.047,-0.029l-0.047,-0.027l-0.049,-0.027l-0.049,-0.026l-0.049,-0.024l-0.05,-0.024l-0.05,-0.023l-0.051,-0.022l-0.051,-0.021l-0.052,-0.02l-0.052,-0.019l-0.053,-0.018l-0.053,-0.017l-0.053,-0.016l-0.054,-0.015l-0.055,-0.014l-0.054,-0.013l-0.055,-0.011l-0.056,-0.011l-0.055,-0.01l-0.056,-0.008l-0.057,-0.008l-0.056,-0.006l-0.058,-0.005l-0.057,-0.004l-0.058,-0.003l-0.058,-0.002l-0.067,0l-38.124,0l-0.277,-0.022l-0.272,-0.065l-0.257,-0.107l-0.238,-0.146l-0.212,-0.181l-0.181,-0.212l-0.145,-0.237l-0.107,-0.258l-0.065,-0.271l-0.022,-0.278l0.022,-0.278l0.065,-0.271l0.107,-0.257l0.145,-0.238l0.181,-0.212l0.212,-0.181l0.238,-0.146l0.257,-0.106l0.272,-0.065l0.277,-0.022l38.142,0l0.121,0.001Z" style="fill:#275623;"/><path d="M23.358,135.454l0.337,0.009l0.337,0.01l0.336,0.012l0.336,0.012l0.335,0.014l0.335,0.015l0.334,0.016l0.334,0.017l0.333,0.019l0.333,0.019l0.332,0.021l0.332,0.022l0.331,0.024l0.331,0.024l0.33,0.026l0.329,0.027l0.329,0.029l0.328,0.029l0.328,0.031l0.327,0.032l0.326,0.033l0.326,0.035l0.326,0.036l0.324,0.037l0.324,0.038l0.324,0.039l0.323,0.041l0.322,0.042l0.321,0.043l0.321,0.045l0.32,0.046l0.32,0.047l0.319,0.048l0.318,0.05l0.317,0.05l0.317,0.053l0.316,0.053l0.316,0.055l0.315,0.056l0.314,0.057l0.313,0.059l0.312,0.059l0.312,0.062l0.311,0.062l0.311,0.064l0.309,0.065l0.309,0.066l0.308,0.068l0.308,0.069l0.306,0.07l0.306,0.072l0.305,0.073l0.304,0.074l0.304,0.075l0.302,0.077l0.302,0.079l0.301,0.079l0.3,0.081l0.299,0.082l0.299,0.084l0.297,0.085l0.297,0.086l0.296,0.087l0.295,0.089l0.294,0.09l0.294,0.092l0.292,0.093l0.292,0.094l0.29,0.096l0.29,0.097l0.289,0.098l0.288,0.1l0.287,0.101l0.286,0.103l0.285,0.104l0.284,0.105l0.284,0.107l0.282,0.108l0.281,0.109l0.281,0.111l0.279,0.112l0.279,0.114l0.277,0.115l0.277,0.116l0.275,0.118l0.274,0.119l0.274,0.121l0.272,0.122l0.272,0.123l0.27,0.125l0.269,0.126l0.269,0.128l0.267,0.129l0.266,0.131l0.265,0.132l0.264,0.133l0.263,0.135l0.262,0.136l0.261,0.138l0.259,0.139l0.259,0.14l0.257,0.142l0.257,0.144l0.255,0.145l0.254,0.146l0.253,0.148l0.252,0.149l0.25,0.151l0.25,0.152l0.248,0.154l0.247,0.155l0.246,0.157l0.244,0.158l0.244,0.16l0.242,0.161l0.241,0.162l0.24,0.164l0.238,0.166l0.238,0.167l0.236,0.168l0.235,0.17l0.233,0.172l0.232,0.172l0.231,0.175l0.23,0.176l0.228,0.177l0.227,0.179l0.226,0.181l0.225,0.182l0.223,0.183l0.222,0.185l0.22,0.187l0.219,0.188l0.218,0.189l0.216,0.191l0.215,0.193l0.214,0.194l0.212,0.195l0.211,0.198l0.21,0.198l0.208,0.2l0.206,0.202l0.205,0.203l0.204,0.205l0.202,0.206l0.201,0.208l0.199,0.209l0.198,0.211l0.197,0.213l0.195,0.214l0.193,0.215l0.192,0.217l0.191,0.219l0.189,0.22l0.187,0.222l0.186,0.223l0.184,0.225l0.183,0.226l0.181,0.228l0.18,0.229l0.178,0.231l0.176,0.232l0.175,0.234l0.174,0.236l0.171,0.237l0.171,0.239l0.168,0.24l0.167,0.242l0.165,0.243l0.164,0.245l0.162,0.246l0.16,0.248l0.159,0.25l0.157,0.251l0.155,0.252l0.154,0.254l0.152,0.256l0.15,0.257l0.148,0.259l0.147,0.26l0.145,0.262l0.144,0.264l0.141,0.265l0.14,0.266l0.138,0.268l0.137,0.27l0.134,0.271l0.133,0.273l0.131,0.274l0.13,0.276l0.127,0.277l0.126,0.279l0.124,0.28l0.122,0.282l0.12,0.284l0.119,0.285l0.117,0.287l0.115,0.288l0.113,0.29l0.111,0.291l0.109,0.293l0.108,0.294l0.105,0.296l0.104,0.298l0.102,0.299l0.1,0.3l0.098,0.302l0.096,0.304l0.094,0.305l0.093,0.307l0.09,0.308l0.089,0.31l0.086,0.312l0.085,0.313l0.083,0.314l0.081,0.316l0.079,0.318l0.077,0.319l0.075,0.321l0.073,0.322l0.071,0.324l0.069,0.325l0.067,0.327l0.065,0.329l0.063,0.33l0.062,0.331l0.059,0.333l0.057,0.335l0.055,0.336l0.053,0.338l0.051,0.34l0.049,0.34l0.047,0.343l0.045,0.344l0.043,0.346l0.041,0.347l0.039,0.349l0.037,0.35l0.035,0.352l0.033,0.353l0.03,0.355l0.029,0.357l0.026,0.358l0.025,0.36l0.022,0.361l0.02,0.363l0.018,0.364l0.016,0.366l0.014,0.368l0.012,0.369l0.009,0.371l0.008,0.372l0.005,0.374l0.003,0.375l0.002,0.449l-1.546,18.433l-0.029,0.204l-0.053,0.2l-0.076,0.192l-0.097,0.182l-0.118,0.17l-0.137,0.155l-0.154,0.138l-0.168,0.119l-0.182,0.099l-0.192,0.076l-0.199,0.055l-0.204,0.03l-0.207,0.007l-0.206,-0.017l-0.202,-0.041l-0.196,-0.065l-0.188,-0.086l-0.176,-0.108l-0.163,-0.128l-0.146,-0.145l-0.129,-0.162l-0.109,-0.175l-0.088,-0.187l-0.066,-0.196l-0.042,-0.202l-0.019,-0.206l0.005,-0.206l1.534,-18.279l-0.001,-0.285l-0.003,-0.355l-0.005,-0.354l-0.007,-0.352l-0.01,-0.35l-0.011,-0.348l-0.013,-0.346l-0.015,-0.345l-0.017,-0.344l-0.019,-0.341l-0.021,-0.34l-0.023,-0.338l-0.025,-0.337l-0.026,-0.334l-0.029,-0.333l-0.031,-0.332l-0.032,-0.33l-0.035,-0.328l-0.036,-0.326l-0.039,-0.325l-0.04,-0.323l-0.042,-0.322l-0.044,-0.319l-0.046,-0.319l-0.047,-0.316l-0.05,-0.315l-0.051,-0.313l-0.053,-0.312l-0.055,-0.31l-0.057,-0.308l-0.059,-0.307l-0.061,-0.305l-0.062,-0.303l-0.064,-0.302l-0.066,-0.3l-0.067,-0.299l-0.07,-0.297l-0.071,-0.295l-0.073,-0.294l-0.075,-0.292l-0.076,-0.291l-0.079,-0.289l-0.08,-0.287l-0.081,-0.286l-0.084,-0.284l-0.085,-0.283l-0.087,-0.281l-0.088,-0.28l-0.09,-0.277l-0.092,-0.277l-0.094,-0.275l-0.095,-0.273l-0.097,-0.272l-0.099,-0.27l-0.1,-0.268l-0.102,-0.267l-0.104,-0.266l-0.105,-0.264l-0.107,-0.262l-0.108,-0.261l-0.11,-0.26l-0.112,-0.257l-0.113,-0.257l-0.115,-0.255l-0.117,-0.253l-0.118,-0.252l-0.119,-0.25l-0.121,-0.249l-0.123,-0.247l-0.125,-0.246l-0.126,-0.244l-0.127,-0.243l-0.129,-0.242l-0.131,-0.24l-0.132,-0.238l-0.134,-0.237l-0.135,-0.236l-0.136,-0.234l-0.139,-0.232l-0.139,-0.231l-0.142,-0.23l-0.142,-0.228l-0.145,-0.227l-0.145,-0.226l-0.148,-0.223l-0.148,-0.223l-0.15,-0.221l-0.152,-0.22l-0.153,-0.218l-0.155,-0.217l-0.156,-0.215l-0.157,-0.214l-0.159,-0.213l-0.161,-0.211l-0.161,-0.21l-0.164,-0.208l-0.164,-0.207l-0.166,-0.206l-0.168,-0.204l-0.169,-0.203l-0.17,-0.201l-0.172,-0.2l-0.173,-0.199l-0.174,-0.197l-0.176,-0.196l-0.178,-0.195l-0.178,-0.193l-0.18,-0.192l-0.182,-0.19l-0.182,-0.189l-0.185,-0.188l-0.185,-0.187l-0.187,-0.185l-0.188,-0.184l-0.19,-0.182l-0.191,-0.181l-0.192,-0.18l-0.193,-0.178l-0.195,-0.177l-0.196,-0.176l-0.198,-0.174l-0.199,-0.173l-0.2,-0.172l-0.201,-0.17l-0.203,-0.169l-0.204,-0.168l-0.205,-0.167l-0.207,-0.165l-0.208,-0.164l-0.209,-0.162l-0.21,-0.161l-0.212,-0.16l-0.213,-0.159l-0.214,-0.157l-0.216,-0.156l-0.217,-0.155l-0.218,-0.153l-0.219,-0.152l-0.22,-0.151l-0.222,-0.149l-0.223,-0.148l-0.224,-0.147l-0.225,-0.146l-0.226,-0.144l-0.228,-0.143l-0.229,-0.142l-0.23,-0.14l-0.231,-0.14l-0.233,-0.137l-0.234,-0.137l-0.234,-0.135l-0.236,-0.134l-0.237,-0.133l-0.239,-0.132l-0.239,-0.13l-0.241,-0.129l-0.241,-0.127l-0.243,-0.127l-0.244,-0.125l-0.245,-0.124l-0.247,-0.122l-0.247,-0.122l-0.248,-0.12l-0.25,-0.118l-0.251,-0.118l-0.251,-0.116l-0.253,-0.115l-0.254,-0.114l-0.255,-0.112l-0.256,-0.111l-0.257,-0.11l-0.258,-0.109l-0.259,-0.107l-0.261,-0.107l-0.261,-0.105l-0.262,-0.103l-0.264,-0.103l-0.264,-0.101l-0.266,-0.1l-0.266,-0.098l-0.267,-0.098l-0.269,-0.096l-0.269,-0.095l-0.27,-0.094l-0.272,-0.092l-0.272,-0.091l-0.273,-0.09l-0.275,-0.089l-0.275,-0.087l-0.276,-0.087l-0.277,-0.085l-0.278,-0.083l-0.279,-0.083l-0.28,-0.081l-0.281,-0.08l-0.282,-0.079l-0.283,-0.078l-0.283,-0.076l-0.285,-0.075l-0.285,-0.074l-0.286,-0.073l-0.287,-0.072l-0.288,-0.07l-0.289,-0.069l-0.29,-0.068l-0.29,-0.066l-0.292,-0.066l-0.292,-0.064l-0.293,-0.063l-0.294,-0.062l-0.295,-0.06l-0.295,-0.06l-0.297,-0.058l-0.297,-0.057l-0.298,-0.055l-0.298,-0.055l-0.3,-0.053l-0.3,-0.052l-0.301,-0.051l-0.302,-0.05l-0.303,-0.048l-0.303,-0.047l-0.304,-0.047l-0.305,-0.044l-0.306,-0.044l-0.306,-0.043l-0.307,-0.041l-0.308,-0.04l-0.308,-0.039l-0.309,-0.038l-0.31,-0.036l-0.31,-0.036l-0.312,-0.034l-0.312,-0.033l-0.312,-0.032l-0.313,-0.03l-0.314,-0.03l-0.315,-0.028l-0.315,-0.027l-0.316,-0.026l-0.316,-0.025l-0.317,-0.024l-0.318,-0.022l-0.318,-0.021l-0.319,-0.021l-0.319,-0.018l-0.32,-0.018l-0.321,-0.017l-0.321,-0.015l-0.322,-0.015l-0.322,-0.013l-0.323,-0.012l-0.324,-0.011l-0.324,-0.009l-0.324,-0.009l-0.329,-0.007l-0.205,-0.017l-0.203,-0.04l-0.197,-0.064l-0.187,-0.086l-0.177,-0.108l-0.163,-0.127l-0.147,-0.145l-0.129,-0.161l-0.109,-0.175l-0.089,-0.187l-0.066,-0.195l-0.043,-0.202l-0.02,-0.206l0.005,-0.207l0.029,-0.204l0.052,-0.2l0.075,-0.193l0.097,-0.182l0.117,-0.17l0.137,-0.155l0.153,-0.138l0.168,-0.12l0.182,-0.099l0.191,-0.078l0.199,-0.055l0.205,-0.031l0.206,-0.007l0.335,0.007Z" style="fill:#275623;"/><path d="M73.195,219.528c3.434,-0.711 6.632,-3.434 8.053,-7.342c2.013,-5.566 -0.356,-11.606 -5.211,-13.264c-1.184,-0.474 -2.25,-0.355 -3.553,-0.118" style="fill:none;stroke:#275623;stroke-width:3.55px;"/><path d="M36.365,206.501l21.79,0c1.658,0 2.96,-0.71 3.079,-1.776l2.605,-18.119c0.119,-1.184 -1.302,-2.132 -3.079,-2.132l-27.001,0c-1.776,0 -3.197,0.948 -3.079,2.132l2.606,18.119c0.118,1.066 1.539,1.776 3.079,1.776Z" style="fill:none;stroke:#275623;stroke-width:3.55px;"/><path d="M39.088,177.842l16.58,0" style="fill:none;stroke:#275623;stroke-width:3.55px;"/><path d="M25.47,216.567l0.829,2.961" style="fill:none;stroke:#275623;stroke-width:3.55px;"/><path d="M38.259,198.685c1.303,-2.96 4.737,-5.092 8.764,-5.092c3.789,0 7.105,1.895 8.526,4.737" style="fill:none;stroke:#275623;stroke-width:3.55px;"/><circle cx="53.181" cy="197.975" r="2.961" style="fill:#275623;"/><path d="M22.983,234.331c4.381,0.711 7.697,4.263 7.697,8.408c0,4.382 -3.552,7.935 -8.171,8.527" style="fill:none;stroke:#275623;stroke-width:3.55px;"/></g><g><path d="M296.972,135.457l0.321,0.065l0.304,0.123l0.276,0.177l0.239,0.225l0.193,0.265l0.142,0.295l0.085,0.317l0.025,0.327l-0.036,0.326l-0.094,0.313l-0.151,0.292l-0.202,0.258l-0.252,0.268l-0.255,0.269l-0.256,0.268l-0.256,0.267l-0.256,0.265l-0.258,0.265l-0.257,0.263l-0.259,0.261l-0.259,0.261l-0.259,0.259l-0.26,0.259l-0.26,0.257l-0.261,0.256l-0.261,0.255l-0.261,0.254l-0.263,0.252l-0.262,0.252l-0.263,0.25l-0.263,0.25l-0.263,0.248l-0.264,0.247l-0.264,0.246l-0.265,0.245l-0.265,0.244l-0.265,0.244l-0.265,0.242l-0.266,0.241l-0.266,0.24l-0.266,0.239l-0.266,0.238l-0.267,0.237l-0.267,0.236l-0.267,0.235l-0.267,0.235l-0.268,0.233l-0.267,0.233l-0.268,0.231l-0.268,0.231l-0.535,0.458l-0.537,0.456l-0.536,0.452l-0.537,0.448l-0.536,0.445l-0.537,0.443l-0.536,0.439l-0.536,0.436l-0.536,0.433l-0.535,0.431l-0.535,0.427l-0.534,0.426l-0.533,0.422l-0.532,0.42l-0.531,0.418l-0.53,0.415l-0.529,0.413l-0.528,0.41l-0.526,0.409l-1.047,0.811l-1.041,0.804l-1.032,0.797l-1.025,0.79l-1.014,0.785l-1.005,0.78l-0.498,0.388l-0.495,0.387l-0.492,0.386l-0.49,0.385l-0.486,0.384l-0.482,0.384l-0.48,0.383l-0.475,0.382l-0.473,0.382l-0.468,0.381l-0.465,0.381l-0.46,0.38l-0.457,0.381l-0.453,0.38l-0.448,0.38l-0.445,0.38l-0.22,0.189l-0.219,0.19l-0.218,0.19l-0.217,0.19l-0.216,0.19l-0.215,0.191l-0.213,0.19l-0.212,0.19l-0.211,0.19l-0.21,0.191l-0.209,0.19l-0.207,0.191l-0.206,0.19l-0.205,0.191l-0.204,0.191l-0.202,0.191l-0.201,0.191l-0.2,0.191l-0.198,0.192l-0.197,0.192l-0.195,0.191l-0.195,0.192l-0.193,0.192l-0.191,0.193l-0.19,0.192l-0.189,0.193l-0.187,0.193l-0.186,0.193l-0.184,0.194l-0.183,0.193l-0.181,0.194l-0.18,0.195l-0.179,0.194l-0.176,0.195l-0.176,0.195l-0.174,0.195l-0.172,0.196l-0.171,0.195l-0.169,0.197l-0.167,0.196l-0.166,0.197l-0.165,0.197l-0.163,0.198l-0.161,0.198l-0.159,0.198l-0.158,0.199l-0.156,0.199l-0.155,0.199l-0.153,0.2l-0.151,0.2l-0.15,0.2l-0.148,0.202l-0.146,0.201l-0.144,0.202l-0.143,0.202l-0.141,0.203l-0.139,0.203l-0.137,0.204l-0.136,0.204l-0.134,0.205l-0.132,0.205l-0.13,0.206l-0.129,0.206l-0.126,0.206l-0.125,0.208l-0.123,0.207l-0.121,0.209l-0.12,0.209l-0.117,0.209l-0.116,0.21l-0.114,0.211l-0.112,0.211l-0.109,0.212l-0.109,0.213l-0.106,0.213l-0.104,0.214l-0.102,0.214l-0.101,0.215l-0.098,0.216l-0.097,0.217l-0.094,0.217l-0.093,0.218l-0.09,0.219l-0.089,0.219l-0.087,0.221l-0.084,0.221l-0.083,0.222l-0.08,0.222l-0.079,0.224l-0.077,0.224l-0.074,0.225l-0.073,0.226l-0.07,0.227l-0.068,0.228l-0.067,0.228l-0.064,0.23l-0.062,0.23l-0.06,0.232l-0.058,0.232l-0.055,0.234l-0.054,0.234l-0.052,0.236l-0.049,0.236l-0.047,0.238l-0.045,0.238l-0.043,0.24l-0.04,0.241l-0.039,0.242l-0.036,0.243l-0.034,0.244l-0.031,0.245l-0.03,0.246l-0.027,0.248l-0.025,0.249l-0.022,0.25l-0.02,0.251l-0.018,0.253l-0.016,0.254l-0.013,0.255l-0.011,0.256l-0.008,0.258l-0.006,0.259l-0.004,0.26l-0.001,0.266l0,31.259l0,0.251l0.002,0.249l0.002,0.249l0.003,0.249l0.003,0.25l0.005,0.249l0.005,0.249l0.006,0.248l0.007,0.249l0.008,0.249l0.009,0.248l0.009,0.249l0.01,0.248l0.012,0.248l0.011,0.249l0.013,0.248l0.014,0.248l0.014,0.247l0.015,0.248l0.016,0.248l0.017,0.247l0.018,0.248l0.018,0.247l0.019,0.247l0.02,0.247l0.021,0.247l0.022,0.247l0.022,0.246l0.024,0.247l0.024,0.246l0.025,0.246l0.025,0.246l0.027,0.246l0.027,0.246l0.028,0.245l0.029,0.246l0.03,0.245l0.03,0.245l0.032,0.245l0.032,0.245l0.033,0.245l0.033,0.244l0.035,0.245l0.035,0.244l0.036,0.244l0.037,0.244l0.038,0.243l0.038,0.244l0.04,0.243l0.04,0.243l0.041,0.243l0.041,0.243l0.043,0.243l0.043,0.242l0.044,0.242l0.045,0.242l0.045,0.242l0.047,0.242l0.047,0.241l0.048,0.241l0.049,0.241l0.049,0.241l0.051,0.24l0.051,0.241l0.052,0.24l0.052,0.24l0.054,0.24l0.054,0.239l0.055,0.239l0.056,0.239l0.056,0.239l0.058,0.239l0.058,0.238l0.059,0.238l0.06,0.238l0.06,0.238l0.061,0.237l0.062,0.237l0.063,0.237l0.064,0.237l0.064,0.237l0.065,0.236l0.066,0.236l0.067,0.235l0.067,0.236l0.068,0.235l0.069,0.235l0.07,0.234l0.07,0.235l0.072,0.234l0.072,0.234l0.073,0.233l0.073,0.234l0.074,0.233l0.076,0.232l0.075,0.233l0.077,0.232l0.077,0.232l0.078,0.232l0.079,0.231l0.08,0.231l0.08,0.231l0.082,0.23l0.081,0.23l0.083,0.23l0.084,0.229l0.084,0.23l0.085,0.229l0.085,0.228l0.087,0.229l0.087,0.228l0.088,0.227l0.089,0.228l0.089,0.227l0.09,0.226l0.091,0.227l0.092,0.226l0.092,0.225l0.094,0.226l0.093,0.225l0.095,0.225l0.096,0.224l0.096,0.224l0.097,0.224l0.097,0.223l0.099,0.223l0.099,0.223l0.1,0.222l0.1,0.222l0.102,0.222l0.102,0.221l0.103,0.221l0.103,0.221l0.104,0.22l0.105,0.22l0.106,0.219l0.107,0.219l0.107,0.219l0.108,0.218l0.109,0.218l0.109,0.218l0.11,0.217l0.111,0.217l0.112,0.216l0.112,0.216l0.113,0.216l0.114,0.215l0.115,0.215l0.115,0.215l0.116,0.214l0.116,0.213l0.118,0.214l0.118,0.213l0.119,0.212l0.12,0.212l0.12,0.212l0.121,0.211l0.122,0.211l0.122,0.21l0.123,0.21l0.124,0.21l0.125,0.209l0.125,0.209l0.126,0.208l0.127,0.208l0.128,0.207l0.128,0.207l0.129,0.207l0.129,0.206l0.131,0.206l0.131,0.205l0.131,0.205l0.133,0.204l0.133,0.204l0.134,0.204l0.135,0.203l0.135,0.202l0.136,0.202l0.137,0.202l0.137,0.201l0.138,0.201l0.139,0.2l0.14,0.2l0.14,0.199l0.141,0.199l0.141,0.198l0.143,0.198l0.143,0.198l0.143,0.197l0.145,0.196l0.145,0.196l0.146,0.196l0.146,0.195l0.148,0.194l0.147,0.194l0.149,0.193l0.149,0.193l0.15,0.193l0.151,0.192l0.151,0.191l0.152,0.191l0.153,0.191l0.154,0.19l0.154,0.189l0.155,0.189l0.155,0.189l0.156,0.188l0.157,0.187l0.158,0.187l0.158,0.186l0.159,0.186l0.159,0.186l0.161,0.184l0.161,0.185l0.161,0.183l0.163,0.183l0.163,0.183l0.163,0.182l0.165,0.182l0.165,0.181l0.166,0.18l0.166,0.18l0.167,0.179l0.168,0.179l0.168,0.178l0.169,0.178l0.17,0.177l0.171,0.176l0.171,0.177l0.172,0.175l0.172,0.175l0.173,0.174l0.174,0.174l0.175,0.173l0.175,0.172l0.175,0.172l0.177,0.172l0.177,0.17l0.178,0.171l0.178,0.169l0.18,0.169l0.179,0.169l0.181,0.168l0.181,0.167l0.182,0.166l0.182,0.166l0.183,0.166l0.184,0.165l0.184,0.164l0.186,0.164l0.185,0.163l0.187,0.162l0.187,0.162l0.188,0.161l0.188,0.16l0.189,0.16l0.316,0.266l0.316,0.262l0.318,0.26l0.319,0.259l0.32,0.255l0.321,0.254l0.323,0.251l0.324,0.249l0.325,0.247l0.327,0.244l0.328,0.241l0.329,0.239l0.331,0.237l0.164,0.116l0.166,0.117l0.166,0.115l0.167,0.115l0.166,0.114l0.167,0.114l0.168,0.113l0.167,0.112l0.168,0.111l0.168,0.111l0.168,0.11l0.169,0.109l0.169,0.108l0.169,0.108l0.169,0.107l0.17,0.106l0.17,0.105l0.17,0.104l0.17,0.104l0.171,0.102l0.171,0.102l0.171,0.101l0.171,0.101l0.172,0.099l0.172,0.099l0.172,0.098l0.172,0.096l0.173,0.096l0.173,0.095l0.173,0.095l0.173,0.093l0.173,0.092l0.174,0.092l0.174,0.091l0.174,0.089l0.174,0.089l0.175,0.088l0.175,0.087l0.174,0.086l0.176,0.085l0.175,0.084l0.175,0.083l0.176,0.082l0.176,0.081l0.176,0.08l0.177,0.079l0.176,0.078l0.177,0.077l0.176,0.076l0.177,0.076l0.178,0.074l0.177,0.073l0.178,0.072l0.178,0.071l0.177,0.07l0.178,0.068l0.179,0.068l0.178,0.067l0.179,0.066l0.178,0.064l0.179,0.064l0.179,0.062l0.179,0.061l0.18,0.06l0.179,0.059l0.18,0.058l0.18,0.057l0.179,0.056l0.18,0.054l0.181,0.054l0.18,0.052l0.181,0.051l0.18,0.05l0.181,0.049l0.181,0.047l0.181,0.047l0.181,0.045l0.181,0.044l0.182,0.043l0.181,0.042l0.182,0.04l0.182,0.039l0.182,0.038l0.182,0.037l0.182,0.035l0.182,0.035l0.182,0.033l0.183,0.031l0.183,0.031l0.182,0.029l0.183,0.028l0.183,0.027l0.183,0.025l0.183,0.025l0.184,0.022l0.183,0.022l0.184,0.02l0.183,0.019l0.184,0.018l0.184,0.016l0.184,0.015l0.191,0.014l0.323,0.054l0.308,0.113l0.282,0.168l0.246,0.216l0.202,0.258l0.152,0.291l0.095,0.313l0.036,0.326l-0.024,0.327l-0.084,0.317l-0.14,0.296l-0.193,0.265l-0.238,0.225l-0.276,0.178l-0.303,0.124l-0.321,0.066l-0.328,0.006l-0.203,-0.015l-0.21,-0.017l-0.209,-0.018l-0.209,-0.021l-0.209,-0.021l-0.209,-0.023l-0.208,-0.025l-0.208,-0.026l-0.208,-0.027l-0.208,-0.029l-0.207,-0.03l-0.207,-0.032l-0.207,-0.033l-0.206,-0.034l-0.207,-0.036l-0.206,-0.038l-0.206,-0.038l-0.205,-0.04l-0.205,-0.042l-0.205,-0.043l-0.204,-0.044l-0.204,-0.045l-0.204,-0.047l-0.204,-0.048l-0.203,-0.049l-0.203,-0.051l-0.203,-0.052l-0.203,-0.053l-0.202,-0.055l-0.201,-0.055l-0.202,-0.057l-0.201,-0.059l-0.201,-0.059l-0.201,-0.061l-0.2,-0.062l-0.2,-0.063l-0.199,-0.064l-0.2,-0.066l-0.198,-0.067l-0.199,-0.068l-0.198,-0.069l-0.198,-0.07l-0.198,-0.071l-0.197,-0.073l-0.197,-0.074l-0.197,-0.074l-0.196,-0.076l-0.196,-0.077l-0.196,-0.078l-0.195,-0.079l-0.195,-0.081l-0.194,-0.081l-0.194,-0.082l-0.194,-0.084l-0.194,-0.084l-0.193,-0.086l-0.193,-0.086l-0.192,-0.088l-0.193,-0.089l-0.191,-0.089l-0.192,-0.091l-0.191,-0.091l-0.19,-0.093l-0.191,-0.093l-0.19,-0.095l-0.189,-0.095l-0.19,-0.097l-0.189,-0.097l-0.188,-0.098l-0.188,-0.099l-0.188,-0.1l-0.187,-0.101l-0.187,-0.102l-0.187,-0.103l-0.187,-0.104l-0.186,-0.104l-0.185,-0.106l-0.185,-0.106l-0.185,-0.107l-0.185,-0.108l-0.184,-0.109l-0.183,-0.109l-0.184,-0.111l-0.183,-0.111l-0.182,-0.112l-0.182,-0.113l-0.182,-0.113l-0.182,-0.115l-0.181,-0.115l-0.18,-0.116l-0.181,-0.116l-0.18,-0.118l-0.179,-0.118l-0.179,-0.119l-0.179,-0.119l-0.178,-0.121l-0.178,-0.121l-0.178,-0.121l-0.177,-0.123l-0.176,-0.123l-0.177,-0.123l-0.177,-0.126l-0.349,-0.25l-0.349,-0.253l-0.348,-0.256l-0.346,-0.258l-0.344,-0.261l-0.342,-0.263l-0.341,-0.266l-0.339,-0.267l-0.338,-0.27l-0.336,-0.272l-0.334,-0.274l-0.332,-0.276l-0.33,-0.276l-0.199,-0.168l-0.198,-0.169l-0.197,-0.17l-0.197,-0.17l-0.196,-0.171l-0.196,-0.171l-0.194,-0.172l-0.194,-0.173l-0.194,-0.174l-0.192,-0.174l-0.192,-0.174l-0.191,-0.176l-0.191,-0.176l-0.19,-0.176l-0.189,-0.177l-0.188,-0.178l-0.188,-0.178l-0.187,-0.18l-0.187,-0.179l-0.185,-0.18l-0.185,-0.181l-0.184,-0.182l-0.184,-0.182l-0.183,-0.183l-0.182,-0.183l-0.181,-0.184l-0.181,-0.184l-0.18,-0.185l-0.179,-0.186l-0.179,-0.186l-0.177,-0.187l-0.178,-0.187l-0.176,-0.188l-0.176,-0.189l-0.175,-0.189l-0.174,-0.19l-0.173,-0.19l-0.173,-0.191l-0.172,-0.191l-0.172,-0.192l-0.17,-0.193l-0.17,-0.193l-0.17,-0.194l-0.168,-0.194l-0.168,-0.195l-0.167,-0.195l-0.166,-0.196l-0.166,-0.197l-0.165,-0.197l-0.164,-0.197l-0.164,-0.198l-0.162,-0.199l-0.162,-0.199l-0.162,-0.2l-0.16,-0.2l-0.16,-0.2l-0.159,-0.202l-0.158,-0.202l-0.158,-0.202l-0.157,-0.203l-0.156,-0.203l-0.156,-0.204l-0.154,-0.204l-0.154,-0.205l-0.153,-0.206l-0.153,-0.205l-0.152,-0.207l-0.151,-0.207l-0.15,-0.207l-0.149,-0.208l-0.149,-0.209l-0.148,-0.208l-0.148,-0.21l-0.146,-0.21l-0.146,-0.21l-0.145,-0.211l-0.145,-0.211l-0.143,-0.212l-0.143,-0.212l-0.142,-0.213l-0.141,-0.213l-0.141,-0.214l-0.14,-0.214l-0.139,-0.215l-0.138,-0.215l-0.138,-0.215l-0.137,-0.216l-0.136,-0.217l-0.135,-0.217l-0.135,-0.217l-0.134,-0.218l-0.133,-0.218l-0.132,-0.219l-0.132,-0.219l-0.131,-0.22l-0.13,-0.22l-0.129,-0.22l-0.129,-0.221l-0.128,-0.221l-0.127,-0.222l-0.126,-0.222l-0.126,-0.223l-0.124,-0.223l-0.124,-0.223l-0.124,-0.224l-0.122,-0.225l-0.122,-0.224l-0.121,-0.226l-0.12,-0.225l-0.119,-0.226l-0.119,-0.226l-0.118,-0.227l-0.117,-0.227l-0.117,-0.228l-0.115,-0.228l-0.115,-0.228l-0.114,-0.228l-0.113,-0.23l-0.113,-0.229l-0.112,-0.23l-0.111,-0.23l-0.11,-0.231l-0.109,-0.231l-0.109,-0.231l-0.108,-0.232l-0.107,-0.232l-0.106,-0.233l-0.106,-0.232l-0.104,-0.234l-0.104,-0.233l-0.104,-0.234l-0.102,-0.234l-0.102,-0.235l-0.101,-0.235l-0.1,-0.236l-0.099,-0.235l-0.098,-0.236l-0.098,-0.237l-0.097,-0.236l-0.096,-0.237l-0.096,-0.238l-0.094,-0.238l-0.094,-0.238l-0.093,-0.238l-0.092,-0.239l-0.092,-0.239l-0.09,-0.239l-0.09,-0.24l-0.089,-0.24l-0.088,-0.24l-0.088,-0.241l-0.087,-0.241l-0.085,-0.241l-0.086,-0.242l-0.084,-0.242l-0.083,-0.242l-0.083,-0.242l-0.082,-0.243l-0.081,-0.243l-0.08,-0.244l-0.08,-0.243l-0.079,-0.244l-0.077,-0.244l-0.078,-0.245l-0.076,-0.245l-0.075,-0.245l-0.075,-0.245l-0.074,-0.246l-0.073,-0.246l-0.072,-0.246l-0.072,-0.246l-0.07,-0.247l-0.07,-0.247l-0.069,-0.247l-0.068,-0.248l-0.068,-0.248l-0.067,-0.248l-0.065,-0.248l-0.065,-0.249l-0.065,-0.248l-0.063,-0.249l-0.062,-0.25l-0.062,-0.249l-0.061,-0.25l-0.06,-0.25l-0.059,-0.25l-0.059,-0.251l-0.058,-0.25l-0.056,-0.251l-0.056,-0.251l-0.056,-0.252l-0.054,-0.251l-0.054,-0.252l-0.052,-0.252l-0.052,-0.253l-0.051,-0.252l-0.051,-0.253l-0.049,-0.253l-0.049,-0.253l-0.047,-0.253l-0.047,-0.254l-0.046,-0.253l-0.046,-0.254l-0.044,-0.254l-0.044,-0.255l-0.043,-0.254l-0.042,-0.255l-0.041,-0.255l-0.04,-0.255l-0.04,-0.255l-0.038,-0.255l-0.038,-0.256l-0.037,-0.256l-0.036,-0.256l-0.036,-0.256l-0.034,-0.256l-0.034,-0.256l-0.032,-0.257l-0.032,-0.257l-0.032,-0.257l-0.03,-0.257l-0.029,-0.257l-0.029,-0.257l-0.028,-0.258l-0.027,-0.258l-0.026,-0.257l-0.025,-0.258l-0.024,-0.259l-0.024,-0.258l-0.022,-0.258l-0.022,-0.259l-0.021,-0.259l-0.02,-0.258l-0.02,-0.259l-0.018,-0.259l-0.018,-0.26l-0.016,-0.259l-0.016,-0.259l-0.015,-0.26l-0.015,-0.259l-0.013,-0.26l-0.012,-0.26l-0.012,-0.26l-0.011,-0.26l-0.01,-0.26l-0.009,-0.261l-0.008,-0.26l-0.007,-0.261l-0.007,-0.26l-0.005,-0.261l-0.005,-0.261l-0.004,-0.261l-0.003,-0.26l-0.002,-0.262l-0.001,-0.261l-0.001,-0.259l0,-31.27l0.002,-0.291l0.004,-0.293l0.006,-0.293l0.01,-0.291l0.012,-0.29l0.015,-0.289l0.018,-0.287l0.02,-0.287l0.023,-0.285l0.026,-0.284l0.028,-0.283l0.031,-0.281l0.033,-0.281l0.036,-0.279l0.039,-0.278l0.041,-0.277l0.044,-0.276l0.046,-0.274l0.049,-0.274l0.051,-0.272l0.054,-0.271l0.056,-0.27l0.059,-0.269l0.061,-0.268l0.064,-0.266l0.066,-0.266l0.068,-0.264l0.071,-0.263l0.073,-0.262l0.076,-0.261l0.078,-0.26l0.08,-0.259l0.083,-0.258l0.085,-0.256l0.087,-0.256l0.09,-0.254l0.091,-0.253l0.094,-0.253l0.096,-0.251l0.099,-0.25l0.1,-0.249l0.103,-0.248l0.105,-0.247l0.107,-0.246l0.109,-0.245l0.111,-0.244l0.114,-0.243l0.115,-0.241l0.117,-0.241l0.12,-0.24l0.121,-0.239l0.124,-0.238l0.125,-0.237l0.128,-0.236l0.129,-0.235l0.131,-0.234l0.133,-0.233l0.136,-0.233l0.137,-0.231l0.138,-0.23l0.141,-0.23l0.142,-0.229l0.145,-0.227l0.146,-0.227l0.148,-0.226l0.149,-0.226l0.152,-0.224l0.153,-0.224l0.155,-0.222l0.156,-0.222l0.159,-0.222l0.16,-0.22l0.161,-0.22l0.163,-0.219l0.165,-0.218l0.166,-0.217l0.169,-0.217l0.169,-0.216l0.171,-0.215l0.173,-0.215l0.174,-0.214l0.176,-0.213l0.177,-0.213l0.179,-0.212l0.18,-0.211l0.182,-0.211l0.183,-0.21l0.185,-0.209l0.185,-0.209l0.188,-0.208l0.189,-0.208l0.19,-0.208l0.191,-0.206l0.193,-0.206l0.194,-0.206l0.196,-0.205l0.197,-0.205l0.198,-0.204l0.199,-0.204l0.201,-0.203l0.202,-0.203l0.203,-0.203l0.204,-0.202l0.206,-0.201l0.207,-0.201l0.207,-0.201l0.21,-0.201l0.21,-0.2l0.211,-0.199l0.213,-0.2l0.214,-0.199l0.215,-0.198l0.215,-0.199l0.218,-0.198l0.218,-0.198l0.219,-0.197l0.22,-0.198l0.221,-0.197l0.222,-0.197l0.224,-0.196l0.224,-0.196l0.225,-0.197l0.226,-0.196l0.228,-0.196l0.457,-0.391l0.461,-0.39l0.464,-0.39l0.468,-0.39l0.471,-0.389l0.475,-0.389l0.477,-0.389l0.481,-0.388l0.484,-0.389l0.487,-0.389l0.489,-0.389l0.493,-0.389l0.494,-0.39l0.498,-0.39l0.499,-0.39l0.503,-0.392l1.01,-0.784l1.018,-0.787l1.026,-0.792l1.033,-0.797l1.038,-0.801l1.043,-0.808l0.523,-0.406l0.524,-0.408l0.524,-0.41l0.526,-0.411l0.526,-0.414l0.527,-0.416l0.527,-0.417l0.527,-0.42l0.528,-0.422l0.528,-0.425l0.528,-0.427l0.527,-0.43l0.528,-0.432l0.528,-0.434l0.527,-0.438l0.526,-0.44l0.526,-0.443l0.526,-0.446l0.525,-0.45l0.262,-0.225l0.262,-0.227l0.261,-0.227l0.261,-0.228l0.262,-0.229l0.26,-0.23l0.261,-0.231l0.26,-0.231l0.26,-0.232l0.26,-0.234l0.259,-0.234l0.259,-0.234l0.259,-0.236l0.258,-0.237l0.258,-0.238l0.257,-0.238l0.257,-0.24l0.257,-0.24l0.256,-0.242l0.256,-0.242l0.255,-0.243l0.255,-0.245l0.255,-0.245l0.254,-0.246l0.253,-0.248l0.253,-0.248l0.252,-0.249l0.252,-0.251l0.251,-0.251l0.251,-0.253l0.25,-0.253l0.25,-0.255l0.249,-0.256l0.248,-0.257l0.248,-0.258l0.247,-0.259l0.247,-0.26l0.248,-0.263l0.245,-0.217l0.282,-0.169l0.307,-0.113l0.323,-0.055l0.328,0.005Z" style="fill:#275623;"/><path d="M296.947,135.454l0.204,0.031l0.199,0.055l0.191,0.078l0.182,0.099l0.168,0.12l0.154,0.138l0.136,0.155l0.117,0.17l0.097,0.182l0.075,0.193l0.052,0.2l0.029,0.204l0.005,0.207l-0.02,0.206l-0.043,0.202l-0.066,0.195l-0.088,0.187l-0.11,0.175l-0.129,0.161l-0.147,0.145l-0.163,0.127l-0.177,0.108l-0.187,0.086l-0.197,0.064l-0.202,0.04l-0.206,0.017l-0.329,0.007l-0.324,0.009l-0.324,0.009l-0.324,0.011l-0.323,0.012l-0.322,0.013l-0.322,0.014l-0.321,0.016l-0.321,0.016l-0.32,0.018l-0.32,0.019l-0.319,0.02l-0.318,0.021l-0.318,0.022l-0.317,0.024l-0.316,0.024l-0.316,0.026l-0.315,0.027l-0.315,0.028l-0.314,0.03l-0.313,0.03l-0.312,0.032l-0.312,0.033l-0.312,0.034l-0.31,0.035l-0.31,0.036l-0.309,0.038l-0.309,0.038l-0.307,0.04l-0.307,0.041l-0.307,0.042l-0.305,0.044l-0.305,0.044l-0.304,0.046l-0.304,0.047l-0.302,0.049l-0.302,0.049l-0.301,0.05l-0.301,0.052l-0.299,0.053l-0.299,0.054l-0.298,0.056l-0.297,0.056l-0.297,0.058l-0.295,0.059l-0.295,0.06l-0.294,0.062l-0.293,0.062l-0.292,0.064l-0.292,0.065l-0.29,0.066l-0.29,0.068l-0.289,0.069l-0.288,0.069l-0.287,0.072l-0.286,0.072l-0.286,0.073l-0.284,0.075l-0.284,0.076l-0.282,0.077l-0.282,0.079l-0.281,0.08l-0.28,0.08l-0.279,0.083l-0.278,0.083l-0.277,0.085l-0.276,0.085l-0.276,0.087l-0.274,0.089l-0.273,0.089l-0.272,0.091l-0.272,0.092l-0.27,0.093l-0.27,0.095l-0.268,0.096l-0.267,0.097l-0.267,0.098l-0.265,0.099l-0.265,0.101l-0.263,0.102l-0.262,0.103l-0.262,0.105l-0.26,0.105l-0.259,0.107l-0.258,0.109l-0.257,0.109l-0.256,0.111l-0.255,0.112l-0.254,0.113l-0.253,0.115l-0.252,0.115l-0.25,0.117l-0.25,0.119l-0.248,0.119l-0.247,0.121l-0.247,0.122l-0.245,0.124l-0.244,0.124l-0.243,0.126l-0.241,0.127l-0.241,0.129l-0.239,0.13l-0.239,0.131l-0.237,0.132l-0.236,0.134l-0.234,0.134l-0.234,0.137l-0.232,0.137l-0.232,0.139l-0.23,0.14l-0.229,0.141l-0.227,0.143l-0.227,0.144l-0.225,0.145l-0.224,0.146l-0.223,0.148l-0.221,0.149l-0.221,0.15l-0.219,0.152l-0.218,0.153l-0.217,0.154l-0.215,0.156l-0.214,0.157l-0.213,0.158l-0.212,0.159l-0.21,0.161l-0.209,0.162l-0.208,0.164l-0.207,0.165l-0.205,0.166l-0.204,0.167l-0.203,0.169l-0.201,0.17l-0.2,0.171l-0.199,0.173l-0.198,0.174l-0.196,0.176l-0.195,0.176l-0.193,0.178l-0.192,0.18l-0.191,0.18l-0.19,0.183l-0.188,0.183l-0.187,0.185l-0.185,0.186l-0.184,0.188l-0.183,0.189l-0.181,0.19l-0.18,0.191l-0.179,0.193l-0.177,0.195l-0.176,0.195l-0.175,0.198l-0.173,0.198l-0.171,0.2l-0.171,0.201l-0.168,0.203l-0.168,0.204l-0.166,0.205l-0.165,0.207l-0.163,0.208l-0.162,0.21l-0.16,0.211l-0.159,0.213l-0.157,0.214l-0.156,0.215l-0.155,0.217l-0.153,0.218l-0.151,0.219l-0.151,0.221l-0.148,0.223l-0.147,0.224l-0.146,0.225l-0.144,0.227l-0.143,0.228l-0.141,0.23l-0.14,0.231l-0.138,0.233l-0.137,0.234l-0.135,0.236l-0.134,0.237l-0.132,0.238l-0.131,0.24l-0.129,0.242l-0.127,0.243l-0.126,0.244l-0.124,0.246l-0.123,0.248l-0.121,0.249l-0.12,0.25l-0.118,0.252l-0.117,0.254l-0.114,0.255l-0.114,0.257l-0.111,0.258l-0.11,0.259l-0.109,0.262l-0.107,0.262l-0.105,0.265l-0.104,0.265l-0.101,0.268l-0.101,0.269l-0.098,0.27l-0.097,0.273l-0.096,0.273l-0.093,0.275l-0.092,0.277l-0.09,0.279l-0.089,0.28l-0.087,0.281l-0.085,0.283l-0.083,0.285l-0.082,0.287l-0.08,0.288l-0.078,0.289l-0.077,0.291l-0.074,0.293l-0.073,0.294l-0.072,0.297l-0.069,0.297l-0.068,0.3l-0.066,0.3l-0.064,0.303l-0.062,0.304l-0.061,0.306l-0.058,0.308l-0.057,0.309l-0.055,0.311l-0.054,0.312l-0.051,0.314l-0.049,0.316l-0.048,0.317l-0.046,0.319l-0.044,0.321l-0.042,0.323l-0.04,0.324l-0.039,0.326l-0.036,0.327l-0.034,0.329l-0.033,0.331l-0.031,0.333l-0.028,0.334l-0.027,0.336l-0.025,0.337l-0.023,0.34l-0.021,0.341l-0.019,0.343l-0.017,0.344l-0.015,0.346l-0.013,0.348l-0.011,0.35l-0.009,0.351l-0.007,0.353l-0.006,0.355l-0.003,0.356l0,0.287l1.533,18.279l0.005,0.206l-0.019,0.206l-0.042,0.202l-0.066,0.196l-0.088,0.187l-0.109,0.175l-0.129,0.162l-0.146,0.146l-0.163,0.127l-0.176,0.108l-0.188,0.086l-0.196,0.065l-0.202,0.041l-0.206,0.017l-0.207,-0.007l-0.204,-0.03l-0.199,-0.055l-0.192,-0.076l-0.181,-0.099l-0.169,-0.119l-0.154,-0.138l-0.137,-0.155l-0.118,-0.17l-0.097,-0.182l-0.076,-0.192l-0.052,-0.2l-0.03,-0.204l-1.546,-18.433l0.002,-0.45l0.003,-0.377l0.005,-0.375l0.008,-0.374l0.009,-0.372l0.012,-0.37l0.014,-0.369l0.016,-0.367l0.018,-0.366l0.02,-0.364l0.023,-0.362l0.024,-0.361l0.026,-0.359l0.029,-0.358l0.031,-0.356l0.032,-0.354l0.035,-0.353l0.037,-0.351l0.039,-0.35l0.041,-0.348l0.043,-0.347l0.045,-0.345l0.047,-0.343l0.049,-0.342l0.051,-0.34l0.053,-0.339l0.055,-0.337l0.057,-0.336l0.06,-0.334l0.061,-0.332l0.063,-0.331l0.065,-0.329l0.067,-0.328l0.069,-0.326l0.071,-0.324l0.073,-0.323l0.075,-0.322l0.077,-0.319l0.079,-0.319l0.081,-0.316l0.083,-0.316l0.084,-0.313l0.087,-0.312l0.089,-0.311l0.09,-0.309l0.093,-0.307l0.094,-0.305l0.096,-0.305l0.098,-0.302l0.1,-0.301l0.102,-0.3l0.104,-0.298l0.105,-0.296l0.108,-0.295l0.109,-0.293l0.111,-0.292l0.113,-0.29l0.115,-0.289l0.117,-0.287l0.118,-0.285l0.121,-0.284l0.122,-0.282l0.124,-0.281l0.126,-0.279l0.127,-0.278l0.129,-0.276l0.132,-0.274l0.132,-0.273l0.135,-0.272l0.137,-0.27l0.138,-0.268l0.14,-0.267l0.141,-0.265l0.144,-0.263l0.145,-0.262l0.147,-0.261l0.148,-0.259l0.15,-0.257l0.152,-0.256l0.154,-0.254l0.155,-0.253l0.157,-0.251l0.159,-0.249l0.16,-0.248l0.162,-0.247l0.164,-0.245l0.165,-0.243l0.167,-0.242l0.169,-0.24l0.17,-0.239l0.172,-0.237l0.173,-0.235l0.175,-0.234l0.176,-0.233l0.179,-0.23l0.179,-0.23l0.182,-0.227l0.182,-0.227l0.185,-0.224l0.186,-0.223l0.187,-0.222l0.189,-0.22l0.19,-0.218l0.192,-0.217l0.194,-0.216l0.195,-0.213l0.196,-0.213l0.198,-0.21l0.2,-0.209l0.201,-0.208l0.202,-0.206l0.204,-0.205l0.205,-0.203l0.206,-0.201l0.209,-0.2l0.209,-0.198l0.211,-0.197l0.212,-0.196l0.214,-0.193l0.215,-0.193l0.216,-0.191l0.218,-0.189l0.219,-0.187l0.221,-0.187l0.222,-0.184l0.223,-0.183l0.224,-0.182l0.226,-0.18l0.227,-0.179l0.229,-0.177l0.229,-0.176l0.231,-0.174l0.233,-0.172l0.233,-0.171l0.235,-0.17l0.236,-0.168l0.237,-0.167l0.239,-0.165l0.24,-0.163l0.241,-0.162l0.242,-0.161l0.244,-0.159l0.244,-0.158l0.246,-0.156l0.247,-0.155l0.249,-0.153l0.249,-0.152l0.251,-0.15l0.251,-0.149l0.253,-0.148l0.254,-0.146l0.256,-0.144l0.256,-0.143l0.257,-0.142l0.259,-0.14l0.26,-0.138l0.26,-0.138l0.262,-0.135l0.263,-0.135l0.264,-0.133l0.265,-0.131l0.266,-0.13l0.268,-0.129l0.268,-0.127l0.269,-0.126l0.271,-0.124l0.271,-0.123l0.273,-0.122l0.273,-0.12l0.275,-0.119l0.275,-0.117l0.277,-0.116l0.277,-0.114l0.278,-0.114l0.28,-0.111l0.28,-0.111l0.282,-0.109l0.282,-0.107l0.283,-0.106l0.284,-0.105l0.286,-0.104l0.286,-0.102l0.287,-0.1l0.288,-0.1l0.288,-0.098l0.29,-0.096l0.291,-0.095l0.291,-0.094l0.293,-0.093l0.293,-0.091l0.294,-0.09l0.295,-0.088l0.296,-0.087l0.297,-0.086l0.298,-0.084l0.298,-0.083l0.299,-0.082l0.301,-0.081l0.301,-0.079l0.301,-0.078l0.303,-0.076l0.303,-0.075l0.304,-0.074l0.305,-0.072l0.306,-0.072l0.307,-0.069l0.307,-0.069l0.308,-0.067l0.309,-0.066l0.309,-0.065l0.311,-0.063l0.311,-0.062l0.312,-0.061l0.312,-0.06l0.313,-0.058l0.314,-0.057l0.315,-0.056l0.316,-0.054l0.316,-0.053l0.316,-0.052l0.318,-0.05l0.318,-0.05l0.319,-0.048l0.319,-0.046l0.321,-0.046l0.32,-0.044l0.322,-0.043l0.322,-0.042l0.323,-0.04l0.323,-0.04l0.324,-0.038l0.325,-0.036l0.325,-0.036l0.326,-0.034l0.326,-0.033l0.327,-0.032l0.328,-0.031l0.328,-0.029l0.329,-0.028l0.329,-0.027l0.33,-0.026l0.331,-0.024l0.331,-0.023l0.331,-0.023l0.333,-0.02l0.332,-0.02l0.334,-0.018l0.333,-0.018l0.335,-0.016l0.334,-0.014l0.336,-0.014l0.335,-0.012l0.337,-0.012l0.336,-0.01l0.338,-0.009l0.334,-0.007l0.207,0.007Z" style="fill:#275623;"/><path d="M246.45,219.528c-3.434,-0.711 -6.632,-3.434 -8.053,-7.342c-2.013,-5.566 0.355,-11.606 5.211,-13.264c1.184,-0.474 2.25,-0.355 3.553,-0.118" style="fill:none;stroke:#275623;stroke-width:3.55px;"/><path d="M294.294,216.567l-0.829,2.961" style="fill:none;stroke:#275623;stroke-width:3.55px;"/><path d="M281.504,198.685c-1.303,-2.96 -4.737,-5.092 -8.764,-5.092c-3.789,0 -7.105,1.895 -8.526,4.737" style="fill:none;stroke:#275623;stroke-width:3.55px;"/><circle cx="273.096" cy="196.198" r="2.368" style="fill:#275623;"/><path d="M297.017,234.213c-4.5,0.592 -7.934,4.144 -7.934,8.408c0,4.381 3.553,7.934 8.171,8.526" style="fill:none;stroke:#275623;stroke-width:3.55px;"/><path d="M274.517,172.513c0,3.435 5.447,6.158 12.316,6.158" style="fill:none;stroke:#275623;stroke-width:3.55px;"/></g></g></g></svg>