<?xml version="1.0" encoding="UTF-8" standalone="no"?><!DOCTYPE svg PUBLIC "-//W3C//DTD SVG 1.1//EN" "http://www.w3.org/Graphics/SVG/1.1/DTD/svg11.dtd"><svg width="100%" height="100%" viewBox="0 0 320 320" version="1.1" xmlns="http://www.w3.org/2000/svg" xmlns:xlink="http://www.w3.org/1999/xlink" xml:space="preserve" style="fill-rule:evenodd;clip-rule:evenodd;stroke-linecap:round;stroke-linejoin:round;stroke-miterlimit:10;"><g id="圖層_2"><g><path d="M217.682,84.445c0,0 -8.342,-28.337 -57.601,-28.337c-52.437,0 -56.41,30.588 -56.41,30.588c-10.725,-34.428 23.438,-55.218 57.072,-55.218c33.634,0 62.104,20.922 56.939,52.967Z" style="fill:#d87341;fill-rule:nonzero;"/><path d="M99.964,78.619l-4.105,10.196l-12.712,19.597l-13.771,20.26c3.178,4.635 5.561,8.342 10.46,11.256c6.356,3.707 13.639,5.164 20.922,6.091l3.973,0l-0.53,-21.981l-5.297,-2.516c-1.059,-0.53 -1.986,-1.192 -2.78,-2.119c-2.649,-3.31 -4.502,-8.077 -3.708,-12.447c1.059,-5.826 6.753,-7.151 11.255,-9.667l-3.707,-18.67" style="fill:#d87341;fill-rule:nonzero;"/><path d="M221.39,78.619l4.105,10.196l12.712,19.597l13.771,20.26c-3.178,4.635 -5.561,8.342 -10.461,11.256c-6.356,3.707 -13.639,5.164 -20.922,6.091l-3.972,0l0.53,-21.981l5.296,-2.516c1.06,-0.53 1.987,-1.192 2.781,-2.119c2.648,-3.31 4.502,-8.077 3.708,-12.447c-1.06,-5.826 -6.754,-7.151 -11.256,-9.667l3.708,-18.67" style="fill:#d87341;fill-rule:nonzero;"/><path d="M167.629,303.992l-14.566,0l0,-62.236l7.813,-3.708l6.753,3.708l0,62.236Z" style="fill:#d87341;fill-opacity:0.5;fill-rule:nonzero;"/><path d="M143.132,110.664c0,2.648 -5.297,5.031 -11.918,5.031c-6.621,0 -11.917,-2.383 -11.917,-5.031c0,-3.973 5.296,0 11.917,0c6.621,0 11.918,-3.973 11.918,0Z" style="fill:#d87341;fill-opacity:0.5;fill-rule:nonzero;"/><path d="M201.395,110.664c0,2.648 -5.297,5.031 -11.917,5.031c-6.621,0 -11.918,-2.383 -11.918,-5.031c0,-3.973 5.297,0 11.918,0c6.62,0 11.917,-3.973 11.917,0Z" style="fill:#d87341;fill-opacity:0.5;fill-rule:nonzero;"/><path d="M161.115,54.122l0.371,0.002l0.37,0.002l0.37,0.004l0.37,0.005l0.369,0.005l0.368,0.007l0.368,0.008l0.367,0.009l0.367,0.01l0.366,0.011l0.366,0.012l0.365,0.013l0.365,0.014l0.364,0.015l0.363,0.016l0.363,0.018l0.362,0.018l0.362,0.019l0.361,0.021l0.36,0.021l0.36,0.023l0.359,0.024l0.358,0.025l0.358,0.026l0.357,0.027l0.357,0.028l0.356,0.029l0.355,0.03l0.354,0.032l0.354,0.032l0.353,0.033l0.352,0.035l0.352,0.036l0.351,0.037l0.35,0.038l0.35,0.039l0.348,0.04l0.348,0.041l0.348,0.042l0.346,0.044l0.346,0.045l0.345,0.045l0.344,0.047l0.343,0.048l0.343,0.049l0.342,0.05l0.341,0.052l0.34,0.052l0.339,0.054l0.339,0.055l0.337,0.056l0.337,0.057l0.336,0.058l0.335,0.059l0.334,0.061l0.334,0.061l0.332,0.063l0.332,0.064l0.331,0.065l0.33,0.066l0.329,0.068l0.328,0.068l0.327,0.07l0.326,0.071l0.325,0.072l0.325,0.073l0.323,0.075l0.322,0.075l0.322,0.077l0.32,0.078l0.32,0.079l0.318,0.081l0.318,0.081l0.317,0.083l0.315,0.084l0.315,0.085l0.313,0.087l0.313,0.087l0.311,0.089l0.311,0.09l0.309,0.091l0.309,0.093l0.307,0.093l0.306,0.095l0.305,0.096l0.305,0.097l0.303,0.099l0.302,0.1l0.3,0.101l0.3,0.102l0.299,0.104l0.297,0.104l0.297,0.106l0.295,0.107l0.294,0.109l0.293,0.11l0.292,0.111l0.29,0.112l0.29,0.113l0.288,0.115l0.287,0.116l0.286,0.118l0.285,0.118l0.284,0.12l0.282,0.121l0.281,0.123l0.28,0.123l0.278,0.125l0.278,0.127l0.276,0.127l0.275,0.129l0.273,0.13l0.273,0.132l0.271,0.133l0.269,0.134l0.269,0.135l0.267,0.137l0.266,0.138l0.264,0.14l0.263,0.14l0.262,0.142l0.261,0.144l0.259,0.144l0.258,0.147l0.256,0.147l0.255,0.149l0.254,0.15l0.252,0.151l0.251,0.153l0.249,0.154l0.248,0.156l0.247,0.157l0.245,0.158l0.244,0.16l0.242,0.161l0.241,0.162l0.239,0.164l0.238,0.165l0.236,0.167l0.235,0.167l0.233,0.17l0.232,0.17l0.23,0.173l0.229,0.173l0.227,0.175l0.226,0.176l0.224,0.178l0.223,0.179l0.221,0.181l0.219,0.182l0.218,0.183l0.216,0.185l0.214,0.186l0.213,0.188l0.212,0.189l0.209,0.19l0.208,0.192l0.207,0.193l0.204,0.195l0.203,0.196l0.201,0.198l0.2,0.199l0.198,0.2l0.196,0.202l0.194,0.204l0.193,0.205l0.191,0.206l0.189,0.208l0.187,0.209l0.186,0.21l0.183,0.212l0.182,0.214l0.181,0.215l0.178,0.216l0.176,0.218l0.175,0.22l0.173,0.22l0.171,0.223l0.169,0.223l0.167,0.226l0.165,0.226l0.163,0.228l0.162,0.23l0.159,0.231l0.158,0.232l0.155,0.234l0.154,0.235l0.152,0.237l0.149,0.238l0.148,0.24l0.146,0.241l0.143,0.243l0.142,0.244l0.14,0.245l0.137,0.247l0.136,0.249l0.133,0.249l0.132,0.252l0.129,0.252l0.127,0.254l0.126,0.256l0.123,0.257l0.121,0.258l0.119,0.26l0.116,0.262l0.115,0.262l0.113,0.264l0.11,0.266l0.108,0.267l0.106,0.268l0.104,0.27l0.101,0.271l0.1,0.273l0.097,0.274l0.095,0.276l0.093,0.277l0.09,0.278l0.089,0.28l0.086,0.281l0.084,0.282l0.081,0.284l0.08,0.285l0.077,0.287l0.075,0.288l0.072,0.29l0.07,0.291l0.068,0.292l0.066,0.293l0.063,0.295l0.061,0.297l0.059,0.298l0.056,0.299l0.054,0.3l0.052,0.302l0.049,0.304l0.047,0.304l0.045,0.306l0.042,0.308l0.04,0.308l0.038,0.311l0.035,0.311l0.032,0.313l0.031,0.314l0.028,0.316l0.025,0.317l0.024,0.318l0.02,0.32l0.019,0.321l0.015,0.323l0.014,0.323l0.011,0.325l0.009,0.327l0.006,0.328l0.003,0.329l0.002,0.327l0,34.963l-0.001,0.291l-0.001,0.292l-0.003,0.292l-0.003,0.292l-0.005,0.291l-0.005,0.292l-0.006,0.291l-0.007,0.292l-0.009,0.291l-0.009,0.291l-0.01,0.291l-0.011,0.291l-0.012,0.291l-0.013,0.291l-0.014,0.29l-0.015,0.291l-0.016,0.29l-0.016,0.29l-0.018,0.29l-0.019,0.29l-0.02,0.29l-0.02,0.29l-0.022,0.289l-0.022,0.29l-0.024,0.289l-0.024,0.289l-0.026,0.289l-0.026,0.289l-0.027,0.288l-0.028,0.289l-0.029,0.288l-0.031,0.288l-0.031,0.288l-0.032,0.288l-0.032,0.288l-0.034,0.287l-0.035,0.287l-0.036,0.288l-0.037,0.287l-0.037,0.286l-0.039,0.287l-0.039,0.286l-0.041,0.286l-0.041,0.286l-0.042,0.286l-0.043,0.286l-0.045,0.285l-0.045,0.285l-0.046,0.285l-0.047,0.285l-0.048,0.285l-0.048,0.284l-0.05,0.284l-0.051,0.284l-0.051,0.284l-0.053,0.283l-0.053,0.283l-0.055,0.283l-0.055,0.283l-0.056,0.283l-0.057,0.282l-0.058,0.282l-0.059,0.282l-0.06,0.281l-0.061,0.282l-0.062,0.281l-0.062,0.281l-0.064,0.28l-0.064,0.281l-0.066,0.28l-0.066,0.279l-0.067,0.28l-0.068,0.279l-0.069,0.279l-0.07,0.279l-0.071,0.278l-0.072,0.279l-0.072,0.277l-0.074,0.278l-0.075,0.277l-0.075,0.277l-0.076,0.277l-0.077,0.277l-0.079,0.276l-0.079,0.276l-0.079,0.275l-0.081,0.276l-0.082,0.275l-0.083,0.274l-0.083,0.275l-0.085,0.274l-0.085,0.273l-0.086,0.274l-0.087,0.273l-0.088,0.273l-0.089,0.272l-0.09,0.272l-0.091,0.272l-0.091,0.272l-0.093,0.271l-0.093,0.271l-0.094,0.27l-0.095,0.27l-0.096,0.27l-0.097,0.269l-0.098,0.269l-0.099,0.269l-0.099,0.269l-0.101,0.268l-0.101,0.267l-0.102,0.268l-0.103,0.266l-0.104,0.267l-0.105,0.266l-0.106,0.266l-0.107,0.266l-0.107,0.265l-0.109,0.264l-0.109,0.265l-0.11,0.264l-0.111,0.263l-0.112,0.263l-0.113,0.263l-0.113,0.262l-0.115,0.262l-0.115,0.262l-0.117,0.261l-0.117,0.261l-0.118,0.26l-0.119,0.26l-0.119,0.26l-0.121,0.259l-0.122,0.259l-0.122,0.258l-0.123,0.258l-0.124,0.257l-0.125,0.257l-0.126,0.257l-0.127,0.256l-0.127,0.256l-0.129,0.255l-0.129,0.255l-0.13,0.254l-0.131,0.254l-0.132,0.254l-0.132,0.253l-0.134,0.253l-0.134,0.252l-0.136,0.251l-0.136,0.252l-0.137,0.25l-0.137,0.251l-0.139,0.25l-0.14,0.249l-0.14,0.249l-0.141,0.248l-0.142,0.248l-0.143,0.248l-0.144,0.247l-0.145,0.246l-0.145,0.246l-0.146,0.246l-0.148,0.245l-0.148,0.245l-0.148,0.244l-0.15,0.243l-0.151,0.243l-0.151,0.243l-0.152,0.242l-0.153,0.241l-0.154,0.241l-0.155,0.241l-0.155,0.24l-0.157,0.239l-0.157,0.239l-0.158,0.239l-0.159,0.237l-0.16,0.238l-0.16,0.237l-0.162,0.236l-0.162,0.236l-0.163,0.235l-0.164,0.235l-0.165,0.234l-0.165,0.233l-0.167,0.233l-0.167,0.233l-0.168,0.232l-0.169,0.231l-0.169,0.231l-0.171,0.23l-0.171,0.23l-0.172,0.229l-0.173,0.228l-0.174,0.228l-0.175,0.228l-0.175,0.227l-0.176,0.226l-0.178,0.225l-0.177,0.225l-0.179,0.225l-0.18,0.224l-0.18,0.223l-0.181,0.223l-0.182,0.222l-0.183,0.221l-0.183,0.221l-0.185,0.22l-0.185,0.22l-0.186,0.219l-0.187,0.219l-0.187,0.217l-0.189,0.218l-0.189,0.216l-0.19,0.216l-0.191,0.215l-0.192,0.215l-0.192,0.214l-0.193,0.214l-0.194,0.212l-0.195,0.212l-0.196,0.212l-0.196,0.211l-0.198,0.21l-0.198,0.21l-0.199,0.208l-0.199,0.209l-0.201,0.207l-0.201,0.207l-0.202,0.207l-0.203,0.205l-0.203,0.205l-0.205,0.204l-0.205,0.204l-0.206,0.203l-0.207,0.202l-0.207,0.202l-0.209,0.2l-0.209,0.201l-0.21,0.199l-0.21,0.199l-0.212,0.198l-0.212,0.198l-0.213,0.196l-0.214,0.196l-0.215,0.196l-0.215,0.194l-0.216,0.194l-0.217,0.193l-0.218,0.193l-0.218,0.191l-0.22,0.191l-0.22,0.191l-0.22,0.189l-0.222,0.189l-0.223,0.189l-0.201,0.169l-0.201,0.167l-0.202,0.167l-0.202,0.166l-0.202,0.165l-0.203,0.165l-0.204,0.164l-0.204,0.163l-0.204,0.163l-0.205,0.162l-0.205,0.161l-0.206,0.16l-0.207,0.16l-0.207,0.158l-0.207,0.158l-0.208,0.157l-0.208,0.157l-0.209,0.155l-0.209,0.155l-0.209,0.154l-0.211,0.153l-0.21,0.152l-0.211,0.151l-0.212,0.15l-0.212,0.15l-0.212,0.148l-0.213,0.148l-0.214,0.147l-0.214,0.145l-0.214,0.145l-0.215,0.144l-0.215,0.143l-0.216,0.142l-0.216,0.141l-0.217,0.14l-0.217,0.139l-0.218,0.138l-0.218,0.137l-0.219,0.136l-0.219,0.134l-0.219,0.134l-0.22,0.133l-0.221,0.132l-0.22,0.13l-0.222,0.13l-0.221,0.128l-0.223,0.128l-0.222,0.126l-0.224,0.125l-0.223,0.124l-0.224,0.122l-0.225,0.122l-0.225,0.12l-0.225,0.119l-0.226,0.119l-0.226,0.116l-0.227,0.116l-0.227,0.114l-0.228,0.113l-0.228,0.112l-0.228,0.111l-0.229,0.109l-0.23,0.108l-0.23,0.107l-0.23,0.106l-0.231,0.104l-0.231,0.103l-0.231,0.101l-0.232,0.1l-0.233,0.099l-0.233,0.098l-0.233,0.096l-0.234,0.094l-0.234,0.094l-0.235,0.091l-0.235,0.091l-0.236,0.089l-0.235,0.087l-0.237,0.086l-0.237,0.085l-0.237,0.083l-0.238,0.082l-0.238,0.08l-0.238,0.079l-0.239,0.077l-0.239,0.076l-0.24,0.074l-0.24,0.072l-0.241,0.071l-0.241,0.07l-0.241,0.067l-0.242,0.067l-0.242,0.064l-0.242,0.063l-0.243,0.061l-0.244,0.06l-0.244,0.058l-0.244,0.056l-0.244,0.055l-0.245,0.053l-0.246,0.051l-0.245,0.05l-0.246,0.048l-0.247,0.046l-0.247,0.044l-0.247,0.043l-0.247,0.04l-0.248,0.039l-0.249,0.038l-0.248,0.035l-0.249,0.034l-0.25,0.032l-0.249,0.029l-0.251,0.029l-0.25,0.026l-0.251,0.024l-0.251,0.023l-0.251,0.02l-0.252,0.019l-0.252,0.017l-0.252,0.014l-0.253,0.013l-0.253,0.011l-0.254,0.009l-0.253,0.007l-0.254,0.005l-0.254,0.003l-0.255,0.001l-0.254,-0.001l-0.255,-0.003l-0.254,-0.005l-0.253,-0.007l-0.254,-0.009l-0.253,-0.011l-0.252,-0.013l-0.253,-0.014l-0.252,-0.017l-0.252,-0.019l-0.251,-0.02l-0.251,-0.023l-0.251,-0.024l-0.25,-0.026l-0.25,-0.029l-0.25,-0.029l-0.249,-0.032l-0.25,-0.034l-0.248,-0.035l-0.248,-0.038l-0.248,-0.039l-0.248,-0.04l-0.247,-0.043l-0.247,-0.044l-0.246,-0.046l-0.247,-0.048l-0.245,-0.05l-0.246,-0.051l-0.245,-0.053l-0.244,-0.055l-0.244,-0.056l-0.244,-0.058l-0.243,-0.06l-0.243,-0.061l-0.243,-0.063l-0.242,-0.064l-0.242,-0.067l-0.241,-0.067l-0.241,-0.07l-0.241,-0.071l-0.24,-0.072l-0.24,-0.074l-0.239,-0.076l-0.239,-0.077l-0.238,-0.079l-0.238,-0.08l-0.238,-0.082l-0.237,-0.083l-0.237,-0.085l-0.236,-0.086l-0.236,-0.087l-0.236,-0.089l-0.235,-0.091l-0.235,-0.091l-0.234,-0.094l-0.234,-0.094l-0.233,-0.096l-0.233,-0.098l-0.232,-0.099l-0.232,-0.1l-0.232,-0.101l-0.231,-0.103l-0.231,-0.104l-0.23,-0.106l-0.23,-0.107l-0.229,-0.108l-0.229,-0.109l-0.229,-0.111l-0.228,-0.112l-0.228,-0.113l-0.227,-0.114l-0.227,-0.116l-0.226,-0.116l-0.226,-0.119l-0.225,-0.119l-0.225,-0.12l-0.225,-0.122l-0.224,-0.122l-0.223,-0.124l-0.223,-0.125l-0.223,-0.126l-0.222,-0.128l-0.222,-0.128l-0.221,-0.13l-0.221,-0.13l-0.221,-0.132l-0.22,-0.133l-0.219,-0.134l-0.219,-0.134l-0.219,-0.136l-0.218,-0.137l-0.217,-0.138l-0.218,-0.139l-0.216,-0.14l-0.217,-0.141l-0.215,-0.142l-0.216,-0.143l-0.215,-0.144l-0.214,-0.145l-0.214,-0.145l-0.213,-0.147l-0.213,-0.148l-0.213,-0.148l-0.212,-0.15l-0.211,-0.15l-0.212,-0.151l-0.21,-0.152l-0.21,-0.153l-0.21,-0.154l-0.209,-0.155l-0.209,-0.155l-0.208,-0.157l-0.208,-0.157l-0.207,-0.158l-0.207,-0.158l-0.207,-0.16l-0.205,-0.16l-0.206,-0.161l-0.205,-0.162l-0.204,-0.163l-0.204,-0.163l-0.203,-0.164l-0.203,-0.165l-0.203,-0.165l-0.202,-0.166l-0.201,-0.167l-0.201,-0.167l-0.205,-0.172l-0.226,-0.193l-0.221,-0.19l-0.221,-0.191l-0.22,-0.192l-0.219,-0.192l-0.219,-0.194l-0.217,-0.193l-0.217,-0.195l-0.216,-0.195l-0.216,-0.196l-0.214,-0.197l-0.214,-0.197l-0.213,-0.199l-0.212,-0.198l-0.212,-0.2l-0.21,-0.2l-0.21,-0.201l-0.209,-0.201l-0.208,-0.202l-0.208,-0.203l-0.207,-0.204l-0.205,-0.204l-0.206,-0.205l-0.204,-0.205l-0.203,-0.206l-0.203,-0.207l-0.202,-0.208l-0.201,-0.208l-0.201,-0.208l-0.199,-0.21l-0.199,-0.21l-0.198,-0.21l-0.197,-0.212l-0.197,-0.212l-0.195,-0.212l-0.195,-0.214l-0.194,-0.213l-0.193,-0.215l-0.193,-0.215l-0.191,-0.216l-0.191,-0.216l-0.19,-0.217l-0.189,-0.218l-0.188,-0.218l-0.188,-0.219l-0.187,-0.219l-0.186,-0.22l-0.185,-0.22l-0.184,-0.222l-0.184,-0.221l-0.182,-0.223l-0.182,-0.223l-0.181,-0.223l-0.181,-0.224l-0.179,-0.225l-0.179,-0.225l-0.178,-0.226l-0.177,-0.227l-0.176,-0.227l-0.175,-0.227l-0.175,-0.229l-0.174,-0.228l-0.172,-0.23l-0.173,-0.229l-0.171,-0.231l-0.17,-0.231l-0.17,-0.231l-0.169,-0.232l-0.168,-0.233l-0.167,-0.233l-0.166,-0.234l-0.166,-0.234l-0.164,-0.235l-0.164,-0.235l-0.163,-0.236l-0.162,-0.236l-0.162,-0.237l-0.16,-0.237l-0.16,-0.238l-0.159,-0.239l-0.158,-0.239l-0.157,-0.239l-0.156,-0.24l-0.156,-0.24l-0.155,-0.241l-0.154,-0.242l-0.153,-0.242l-0.152,-0.242l-0.151,-0.243l-0.151,-0.244l-0.149,-0.244l-0.149,-0.244l-0.148,-0.245l-0.147,-0.246l-0.146,-0.246l-0.146,-0.246l-0.144,-0.247l-0.144,-0.247l-0.143,-0.248l-0.142,-0.248l-0.141,-0.249l-0.141,-0.249l-0.139,-0.25l-0.139,-0.25l-0.138,-0.25l-0.137,-0.252l-0.136,-0.251l-0.135,-0.252l-0.134,-0.252l-0.134,-0.253l-0.132,-0.253l-0.132,-0.254l-0.131,-0.254l-0.13,-0.255l-0.13,-0.255l-0.128,-0.255l-0.127,-0.256l-0.127,-0.256l-0.126,-0.257l-0.125,-0.257l-0.124,-0.257l-0.123,-0.258l-0.122,-0.259l-0.122,-0.258l-0.12,-0.26l-0.12,-0.259l-0.119,-0.26l-0.118,-0.26l-0.117,-0.261l-0.116,-0.261l-0.116,-0.262l-0.114,-0.262l-0.114,-0.262l-0.113,-0.263l-0.112,-0.263l-0.111,-0.263l-0.11,-0.264l-0.109,-0.264l-0.108,-0.265l-0.108,-0.265l-0.107,-0.265l-0.105,-0.265l-0.105,-0.266l-0.104,-0.267l-0.103,-0.267l-0.102,-0.267l-0.102,-0.267l-0.1,-0.268l-0.1,-0.268l-0.099,-0.268l-0.097,-0.269l-0.097,-0.269l-0.096,-0.27l-0.095,-0.269l-0.095,-0.271l-0.093,-0.27l-0.092,-0.271l-0.092,-0.271l-0.091,-0.271l-0.089,-0.272l-0.089,-0.272l-0.088,-0.272l-0.087,-0.273l-0.087,-0.273l-0.085,-0.273l-0.084,-0.274l-0.084,-0.274l-0.083,-0.274l-0.081,-0.275l-0.081,-0.274l-0.08,-0.275l-0.079,-0.276l-0.078,-0.275l-0.077,-0.276l-0.077,-0.276l-0.075,-0.277l-0.074,-0.277l-0.074,-0.277l-0.073,-0.277l-0.071,-0.277l-0.071,-0.278l-0.07,-0.278l-0.069,-0.279l-0.068,-0.278l-0.068,-0.279l-0.066,-0.279l-0.065,-0.28l-0.065,-0.279l-0.063,-0.28l-0.063,-0.28l-0.062,-0.28l-0.061,-0.281l-0.059,-0.281l-0.059,-0.281l-0.058,-0.281l-0.058,-0.282l-0.056,-0.281l-0.055,-0.282l-0.054,-0.282l-0.054,-0.283l-0.052,-0.282l-0.052,-0.283l-0.051,-0.283l-0.049,-0.283l-0.049,-0.284l-0.048,-0.283l-0.047,-0.284l-0.046,-0.284l-0.045,-0.284l-0.044,-0.285l-0.043,-0.284l-0.043,-0.285l-0.041,-0.285l-0.04,-0.285l-0.04,-0.286l-0.039,-0.285l-0.037,-0.286l-0.037,-0.286l-0.036,-0.286l-0.034,-0.286l-0.034,-0.286l-0.033,-0.287l-0.032,-0.286l-0.031,-0.287l-0.03,-0.287l-0.029,-0.287l-0.029,-0.288l-0.027,-0.287l-0.026,-0.288l-0.026,-0.287l-0.024,-0.288l-0.023,-0.288l-0.023,-0.288l-0.022,-0.289l-0.02,-0.288l-0.02,-0.289l-0.019,-0.288l-0.017,-0.289l-0.017,-0.289l-0.016,-0.289l-0.015,-0.289l-0.014,-0.289l-0.013,-0.29l-0.012,-0.289l-0.011,-0.29l-0.01,-0.289l-0.009,-0.29l-0.008,-0.29l-0.008,-0.29l-0.006,-0.29l-0.005,-0.29l-0.005,-0.29l-0.003,-0.291l-0.002,-0.29l-0.002,-0.291l0,-0.288l0,-34.964l0.001,-0.327l0.004,-0.329l0.006,-0.328l0.008,-0.326l0.011,-0.325l0.014,-0.324l0.015,-0.322l0.019,-0.321l0.02,-0.32l0.023,-0.318l0.026,-0.317l0.027,-0.316l0.031,-0.314l0.032,-0.313l0.035,-0.311l0.038,-0.31l0.039,-0.309l0.042,-0.307l0.045,-0.306l0.046,-0.305l0.05,-0.303l0.051,-0.302l0.054,-0.301l0.056,-0.299l0.058,-0.297l0.061,-0.297l0.063,-0.295l0.065,-0.293l0.068,-0.293l0.07,-0.29l0.072,-0.29l0.074,-0.288l0.077,-0.286l0.079,-0.286l0.081,-0.284l0.084,-0.282l0.086,-0.281l0.088,-0.28l0.09,-0.278l0.092,-0.277l0.095,-0.275l0.097,-0.274l0.099,-0.273l0.101,-0.271l0.103,-0.27l0.106,-0.268l0.107,-0.267l0.11,-0.266l0.112,-0.264l0.114,-0.263l0.117,-0.261l0.118,-0.26l0.121,-0.258l0.122,-0.257l0.125,-0.256l0.127,-0.254l0.129,-0.253l0.131,-0.251l0.133,-0.25l0.135,-0.248l0.137,-0.247l0.139,-0.245l0.141,-0.245l0.143,-0.242l0.146,-0.241l0.147,-0.24l0.149,-0.238l0.151,-0.237l0.153,-0.235l0.155,-0.234l0.157,-0.233l0.159,-0.231l0.161,-0.229l0.163,-0.228l0.165,-0.227l0.166,-0.225l0.169,-0.224l0.17,-0.222l0.172,-0.221l0.174,-0.219l0.176,-0.218l0.178,-0.217l0.18,-0.215l0.181,-0.213l0.183,-0.212l0.185,-0.211l0.187,-0.209l0.189,-0.208l0.19,-0.206l0.192,-0.205l0.194,-0.204l0.196,-0.202l0.197,-0.2l0.199,-0.199l0.201,-0.198l0.202,-0.196l0.204,-0.195l0.206,-0.193l0.208,-0.192l0.209,-0.191l0.211,-0.189l0.212,-0.188l0.214,-0.186l0.216,-0.185l0.217,-0.183l0.219,-0.182l0.22,-0.18l0.222,-0.18l0.224,-0.177l0.225,-0.177l0.227,-0.175l0.228,-0.173l0.23,-0.172l0.232,-0.171l0.233,-0.169l0.234,-0.168l0.236,-0.167l0.237,-0.165l0.239,-0.164l0.241,-0.162l0.241,-0.161l0.244,-0.16l0.244,-0.158l0.247,-0.157l0.247,-0.156l0.249,-0.154l0.251,-0.153l0.252,-0.151l0.253,-0.151l0.255,-0.148l0.256,-0.148l0.257,-0.146l0.259,-0.145l0.26,-0.143l0.262,-0.142l0.262,-0.141l0.265,-0.139l0.265,-0.138l0.267,-0.137l0.268,-0.136l0.27,-0.134l0.27,-0.133l0.272,-0.131l0.274,-0.131l0.274,-0.128l0.276,-0.128l0.277,-0.126l0.279,-0.125l0.279,-0.124l0.281,-0.123l0.282,-0.121l0.284,-0.12l0.284,-0.118l0.286,-0.118l0.287,-0.116l0.288,-0.114l0.29,-0.114l0.29,-0.112l0.292,-0.111l0.293,-0.11l0.294,-0.108l0.295,-0.108l0.296,-0.106l0.298,-0.104l0.298,-0.104l0.3,-0.102l0.301,-0.101l0.302,-0.1l0.303,-0.098l0.304,-0.098l0.305,-0.096l0.306,-0.095l0.308,-0.093l0.308,-0.093l0.31,-0.091l0.31,-0.09l0.312,-0.089l0.313,-0.087l0.313,-0.087l0.315,-0.085l0.316,-0.084l0.316,-0.083l0.318,-0.081l0.319,-0.081l0.32,-0.079l0.32,-0.078l0.322,-0.077l0.323,-0.075l0.323,-0.075l0.325,-0.073l0.325,-0.072l0.327,-0.071l0.327,-0.07l0.329,-0.068l0.329,-0.068l0.33,-0.066l0.331,-0.065l0.332,-0.064l0.333,-0.063l0.334,-0.061l0.335,-0.061l0.335,-0.059l0.337,-0.058l0.337,-0.057l0.338,-0.056l0.339,-0.055l0.34,-0.054l0.341,-0.052l0.341,-0.052l0.343,-0.05l0.343,-0.049l0.344,-0.048l0.345,-0.047l0.345,-0.045l0.347,-0.045l0.347,-0.044l0.348,-0.042l0.349,-0.041l0.349,-0.04l0.35,-0.039l0.351,-0.038l0.352,-0.037l0.352,-0.036l0.354,-0.035l0.354,-0.033l0.354,-0.033l0.355,-0.031l0.357,-0.03l0.356,-0.029l0.358,-0.028l0.358,-0.027l0.359,-0.026l0.359,-0.025l0.36,-0.024l0.361,-0.023l0.361,-0.021l0.362,-0.021l0.363,-0.019l0.364,-0.018l0.363,-0.018l0.365,-0.016l0.365,-0.015l0.366,-0.014l0.366,-0.013l0.367,-0.012l0.368,-0.011l0.368,-0.01l0.369,-0.009l0.369,-0.008l0.37,-0.007l0.37,-0.005l0.371,-0.005l0.372,-0.004l0.372,-0.002l0.372,-0.002l0.373,0l0.372,0Zm-0.734,3.973l-0.361,0.001l-0.361,0.003l-0.36,0.003l-0.36,0.005l-0.359,0.005l-0.359,0.007l-0.358,0.007l-0.357,0.009l-0.356,0.009l-0.356,0.011l-0.356,0.012l-0.354,0.012l-0.355,0.014l-0.353,0.015l-0.353,0.015l-0.352,0.017l-0.351,0.018l-0.351,0.019l-0.35,0.02l-0.349,0.021l-0.349,0.021l-0.347,0.023l-0.347,0.024l-0.347,0.025l-0.345,0.026l-0.345,0.028l-0.344,0.028l-0.344,0.029l-0.342,0.03l-0.342,0.031l-0.341,0.033l-0.34,0.033l-0.34,0.034l-0.338,0.036l-0.338,0.036l-0.337,0.038l-0.336,0.039l-0.336,0.039l-0.334,0.041l-0.334,0.042l-0.332,0.043l-0.332,0.044l-0.331,0.044l-0.33,0.047l-0.33,0.047l-0.328,0.048l-0.327,0.049l-0.327,0.05l-0.325,0.052l-0.325,0.052l-0.324,0.054l-0.322,0.054l-0.322,0.056l-0.321,0.057l-0.32,0.057l-0.319,0.059l-0.318,0.06l-0.317,0.061l-0.316,0.062l-0.315,0.064l-0.314,0.064l-0.313,0.065l-0.311,0.067l-0.311,0.067l-0.31,0.069l-0.309,0.07l-0.308,0.07l-0.306,0.072l-0.306,0.073l-0.305,0.074l-0.303,0.075l-0.302,0.077l-0.302,0.077l-0.3,0.078l-0.299,0.08l-0.298,0.081l-0.296,0.081l-0.296,0.083l-0.295,0.084l-0.293,0.085l-0.292,0.086l-0.291,0.087l-0.29,0.089l-0.289,0.089l-0.287,0.091l-0.287,0.091l-0.285,0.093l-0.284,0.094l-0.282,0.095l-0.282,0.096l-0.28,0.097l-0.279,0.098l-0.278,0.099l-0.277,0.101l-0.275,0.101l-0.274,0.103l-0.273,0.104l-0.271,0.105l-0.27,0.106l-0.269,0.107l-0.268,0.108l-0.266,0.109l-0.265,0.111l-0.264,0.112l-0.262,0.112l-0.261,0.114l-0.26,0.115l-0.258,0.116l-0.257,0.117l-0.256,0.118l-0.254,0.12l-0.253,0.12l-0.251,0.122l-0.25,0.122l-0.249,0.124l-0.247,0.125l-0.246,0.126l-0.245,0.127l-0.243,0.129l-0.241,0.129l-0.241,0.131l-0.239,0.131l-0.237,0.133l-0.236,0.134l-0.234,0.135l-0.233,0.136l-0.232,0.137l-0.23,0.139l-0.228,0.139l-0.227,0.141l-0.226,0.142l-0.224,0.142l-0.223,0.144l-0.221,0.145l-0.219,0.147l-0.219,0.147l-0.216,0.149l-0.215,0.149l-0.214,0.151l-0.212,0.152l-0.21,0.153l-0.209,0.154l-0.207,0.155l-0.206,0.156l-0.204,0.158l-0.203,0.159l-0.201,0.159l-0.199,0.161l-0.198,0.162l-0.196,0.163l-0.195,0.165l-0.193,0.165l-0.191,0.167l-0.19,0.167l-0.188,0.169l-0.187,0.17l-0.185,0.171l-0.183,0.173l-0.182,0.173l-0.18,0.175l-0.179,0.175l-0.176,0.177l-0.176,0.178l-0.173,0.179l-0.172,0.181l-0.17,0.181l-0.169,0.183l-0.167,0.184l-0.165,0.185l-0.163,0.186l-0.162,0.187l-0.16,0.189l-0.159,0.189l-0.156,0.191l-0.155,0.192l-0.154,0.193l-0.151,0.195l-0.15,0.195l-0.148,0.197l-0.147,0.198l-0.145,0.199l-0.143,0.201l-0.141,0.201l-0.14,0.203l-0.137,0.204l-0.136,0.205l-0.135,0.207l-0.132,0.208l-0.131,0.209l-0.129,0.21l-0.127,0.211l-0.126,0.213l-0.124,0.214l-0.122,0.215l-0.12,0.216l-0.118,0.218l-0.117,0.219l-0.115,0.22l-0.113,0.221l-0.111,0.223l-0.109,0.224l-0.108,0.226l-0.105,0.226l-0.104,0.228l-0.102,0.229l-0.1,0.231l-0.099,0.232l-0.096,0.233l-0.095,0.235l-0.093,0.236l-0.091,0.237l-0.089,0.238l-0.087,0.24l-0.085,0.242l-0.083,0.242l-0.082,0.244l-0.079,0.246l-0.078,0.246l-0.075,0.248l-0.074,0.25l-0.072,0.251l-0.07,0.252l-0.068,0.254l-0.066,0.255l-0.064,0.256l-0.062,0.258l-0.06,0.26l-0.058,0.261l-0.056,0.262l-0.054,0.264l-0.052,0.265l-0.05,0.266l-0.048,0.268l-0.046,0.27l-0.044,0.271l-0.041,0.272l-0.04,0.274l-0.038,0.275l-0.035,0.277l-0.034,0.279l-0.031,0.279l-0.03,0.282l-0.027,0.283l-0.025,0.284l-0.023,0.286l-0.021,0.287l-0.018,0.289l-0.017,0.29l-0.014,0.292l-0.012,0.294l-0.01,0.295l-0.008,0.296l-0.005,0.298l-0.004,0.3l-0.001,0.305l0,34.952l0.001,0.279l0.001,0.277l0.002,0.278l0.004,0.277l0.004,0.277l0.005,0.277l0.006,0.277l0.007,0.276l0.007,0.277l0.009,0.277l0.01,0.276l0.01,0.276l0.012,0.277l0.012,0.276l0.014,0.276l0.014,0.276l0.015,0.276l0.016,0.276l0.017,0.275l0.018,0.276l0.019,0.275l0.019,0.275l0.021,0.275l0.021,0.276l0.023,0.274l0.023,0.275l0.024,0.275l0.025,0.274l0.026,0.275l0.027,0.274l0.028,0.274l0.029,0.274l0.03,0.274l0.03,0.273l0.032,0.274l0.032,0.273l0.033,0.273l0.034,0.273l0.035,0.273l0.036,0.273l0.037,0.272l0.038,0.273l0.038,0.272l0.04,0.272l0.04,0.272l0.041,0.271l0.042,0.272l0.043,0.271l0.044,0.271l0.045,0.271l0.046,0.271l0.046,0.27l0.048,0.27l0.048,0.27l0.05,0.27l0.05,0.27l0.051,0.27l0.052,0.269l0.052,0.269l0.054,0.269l0.054,0.268l0.056,0.269l0.056,0.268l0.057,0.268l0.058,0.268l0.059,0.267l0.06,0.268l0.061,0.267l0.061,0.267l0.063,0.266l0.063,0.266l0.064,0.267l0.065,0.265l0.066,0.266l0.067,0.265l0.067,0.265l0.069,0.265l0.069,0.265l0.07,0.264l0.071,0.264l0.072,0.264l0.073,0.264l0.074,0.263l0.074,0.263l0.076,0.263l0.076,0.262l0.077,0.262l0.078,0.262l0.079,0.262l0.079,0.261l0.081,0.261l0.081,0.261l0.083,0.26l0.083,0.26l0.084,0.26l0.084,0.26l0.086,0.259l0.087,0.259l0.087,0.259l0.088,0.258l0.089,0.258l0.09,0.258l0.091,0.257l0.092,0.257l0.092,0.257l0.093,0.256l0.094,0.256l0.095,0.256l0.096,0.255l0.097,0.256l0.097,0.254l0.099,0.255l0.099,0.254l0.1,0.253l0.101,0.254l0.102,0.253l0.102,0.252l0.103,0.253l0.105,0.252l0.105,0.251l0.106,0.251l0.106,0.251l0.108,0.251l0.108,0.25l0.109,0.25l0.11,0.249l0.111,0.249l0.112,0.249l0.112,0.248l0.114,0.248l0.114,0.247l0.115,0.247l0.116,0.247l0.116,0.246l0.118,0.246l0.118,0.246l0.119,0.245l0.12,0.245l0.121,0.244l0.121,0.244l0.123,0.243l0.123,0.243l0.124,0.243l0.125,0.242l0.126,0.242l0.126,0.242l0.127,0.241l0.128,0.24l0.129,0.24l0.13,0.24l0.131,0.239l0.131,0.239l0.132,0.238l0.133,0.238l0.134,0.238l0.134,0.237l0.136,0.236l0.136,0.237l0.137,0.235l0.138,0.235l0.138,0.235l0.14,0.235l0.14,0.233l0.141,0.234l0.141,0.233l0.143,0.232l0.143,0.232l0.145,0.232l0.145,0.231l0.145,0.23l0.147,0.23l0.147,0.23l0.149,0.229l0.148,0.229l0.15,0.228l0.151,0.227l0.151,0.227l0.152,0.227l0.153,0.226l0.154,0.226l0.154,0.225l0.156,0.225l0.156,0.224l0.156,0.223l0.158,0.223l0.159,0.223l0.159,0.222l0.16,0.221l0.16,0.221l0.162,0.221l0.162,0.22l0.163,0.219l0.164,0.219l0.165,0.218l0.165,0.218l0.167,0.217l0.167,0.217l0.167,0.216l0.169,0.216l0.169,0.215l0.17,0.214l0.171,0.214l0.172,0.214l0.172,0.212l0.173,0.213l0.174,0.211l0.175,0.211l0.175,0.211l0.177,0.21l0.177,0.209l0.177,0.209l0.179,0.208l0.179,0.208l0.18,0.207l0.181,0.207l0.182,0.206l0.182,0.205l0.183,0.205l0.184,0.204l0.185,0.203l0.185,0.203l0.186,0.202l0.187,0.202l0.188,0.201l0.188,0.201l0.189,0.2l0.19,0.199l0.191,0.198l0.191,0.199l0.192,0.197l0.193,0.197l0.194,0.196l0.194,0.195l0.196,0.195l0.195,0.195l0.197,0.193l0.198,0.193l0.198,0.192l0.199,0.192l0.199,0.191l0.201,0.191l0.201,0.189l0.202,0.189l0.202,0.189l0.204,0.188l0.204,0.187l0.205,0.186l0.205,0.186l0.206,0.185l0.207,0.185l0.208,0.183l0.209,0.183l0.209,0.183l0.21,0.182l0.211,0.181l0.207,0.177l0.187,0.157l0.192,0.159l0.191,0.159l0.192,0.158l0.193,0.157l0.193,0.157l0.193,0.155l0.194,0.155l0.193,0.154l0.195,0.154l0.194,0.153l0.195,0.151l0.196,0.151l0.196,0.151l0.196,0.149l0.196,0.149l0.197,0.147l0.197,0.147l0.197,0.146l0.198,0.145l0.198,0.144l0.199,0.144l0.199,0.142l0.199,0.141l0.199,0.141l0.2,0.14l0.2,0.138l0.201,0.138l0.2,0.137l0.202,0.136l0.201,0.135l0.202,0.134l0.202,0.133l0.202,0.131l0.203,0.131l0.203,0.13l0.203,0.129l0.203,0.128l0.204,0.127l0.204,0.125l0.205,0.125l0.204,0.123l0.205,0.123l0.206,0.121l0.205,0.121l0.206,0.119l0.206,0.118l0.207,0.117l0.206,0.116l0.207,0.114l0.207,0.114l0.208,0.112l0.208,0.111l0.208,0.11l0.208,0.109l0.208,0.108l0.209,0.106l0.209,0.105l0.21,0.104l0.209,0.103l0.21,0.102l0.21,0.1l0.21,0.099l0.211,0.098l0.21,0.096l0.211,0.096l0.212,0.094l0.211,0.092l0.212,0.092l0.212,0.09l0.212,0.088l0.212,0.088l0.213,0.086l0.212,0.085l0.213,0.083l0.214,0.082l0.213,0.081l0.214,0.079l0.214,0.078l0.214,0.076l0.214,0.076l0.214,0.073l0.215,0.073l0.215,0.07l0.215,0.07l0.215,0.068l0.216,0.067l0.215,0.065l0.216,0.063l0.216,0.063l0.217,0.06l0.216,0.06l0.217,0.057l0.217,0.057l0.217,0.054l0.217,0.054l0.217,0.051l0.218,0.051l0.218,0.048l0.218,0.047l0.218,0.046l0.218,0.044l0.219,0.042l0.218,0.041l0.219,0.04l0.219,0.037l0.219,0.036l0.22,0.035l0.219,0.033l0.22,0.031l0.22,0.03l0.22,0.028l0.221,0.026l0.22,0.025l0.221,0.023l0.221,0.022l0.221,0.02l0.221,0.018l0.222,0.016l0.221,0.015l0.222,0.013l0.222,0.011l0.222,0.01l0.223,0.008l0.222,0.006l0.223,0.004l0.223,0.003l0.223,0.001l0.223,-0.001l0.223,-0.003l0.223,-0.004l0.223,-0.006l0.222,-0.008l0.222,-0.01l0.222,-0.011l0.222,-0.013l0.222,-0.015l0.221,-0.016l0.221,-0.018l0.221,-0.02l0.221,-0.022l0.221,-0.023l0.22,-0.025l0.221,-0.026l0.22,-0.028l0.22,-0.03l0.22,-0.031l0.219,-0.033l0.22,-0.035l0.219,-0.036l0.219,-0.037l0.219,-0.04l0.219,-0.041l0.218,-0.042l0.219,-0.044l0.218,-0.046l0.218,-0.047l0.217,-0.048l0.218,-0.051l0.217,-0.051l0.218,-0.054l0.217,-0.054l0.216,-0.057l0.217,-0.057l0.217,-0.06l0.216,-0.06l0.216,-0.063l0.216,-0.063l0.215,-0.065l0.216,-0.067l0.215,-0.068l0.215,-0.07l0.215,-0.07l0.215,-0.073l0.214,-0.073l0.215,-0.076l0.214,-0.076l0.213,-0.078l0.214,-0.079l0.214,-0.081l0.213,-0.082l0.213,-0.083l0.213,-0.085l0.212,-0.086l0.212,-0.088l0.213,-0.088l0.211,-0.09l0.212,-0.092l0.212,-0.092l0.211,-0.094l0.211,-0.096l0.211,-0.096l0.21,-0.098l0.21,-0.099l0.21,-0.1l0.21,-0.102l0.21,-0.103l0.209,-0.104l0.209,-0.105l0.209,-0.106l0.208,-0.108l0.208,-0.109l0.208,-0.11l0.208,-0.111l0.208,-0.112l0.207,-0.114l0.207,-0.114l0.207,-0.116l0.206,-0.117l0.206,-0.118l0.206,-0.119l0.205,-0.121l0.206,-0.121l0.205,-0.123l0.205,-0.123l0.204,-0.125l0.204,-0.125l0.204,-0.127l0.203,-0.128l0.204,-0.129l0.203,-0.13l0.202,-0.131l0.203,-0.131l0.202,-0.133l0.201,-0.134l0.202,-0.135l0.201,-0.136l0.201,-0.137l0.2,-0.138l0.2,-0.138l0.2,-0.14l0.199,-0.141l0.2,-0.141l0.198,-0.142l0.199,-0.144l0.198,-0.144l0.198,-0.145l0.197,-0.146l0.197,-0.147l0.197,-0.147l0.197,-0.149l0.196,-0.149l0.195,-0.151l0.196,-0.151l0.195,-0.151l0.194,-0.153l0.195,-0.154l0.194,-0.154l0.193,-0.155l0.193,-0.155l0.193,-0.157l0.193,-0.157l0.192,-0.158l0.192,-0.159l0.191,-0.159l0.19,-0.16l0.211,-0.178l0.21,-0.18l0.21,-0.18l0.209,-0.181l0.209,-0.181l0.208,-0.182l0.207,-0.183l0.206,-0.184l0.205,-0.184l0.205,-0.185l0.204,-0.186l0.203,-0.186l0.203,-0.187l0.202,-0.188l0.201,-0.188l0.2,-0.189l0.2,-0.19l0.198,-0.19l0.198,-0.191l0.198,-0.192l0.196,-0.192l0.196,-0.193l0.195,-0.194l0.195,-0.194l0.193,-0.195l0.193,-0.195l0.192,-0.196l0.192,-0.197l0.19,-0.197l0.19,-0.198l0.189,-0.199l0.188,-0.199l0.188,-0.2l0.187,-0.201l0.186,-0.201l0.185,-0.202l0.185,-0.202l0.184,-0.203l0.183,-0.204l0.182,-0.204l0.181,-0.205l0.181,-0.205l0.18,-0.206l0.179,-0.207l0.179,-0.207l0.177,-0.208l0.177,-0.208l0.177,-0.209l0.175,-0.209l0.175,-0.211l0.174,-0.21l0.173,-0.212l0.172,-0.211l0.172,-0.213l0.17,-0.213l0.17,-0.213l0.17,-0.215l0.168,-0.214l0.168,-0.215l0.167,-0.216l0.166,-0.217l0.165,-0.217l0.165,-0.217l0.164,-0.218l0.163,-0.219l0.162,-0.219l0.162,-0.219l0.16,-0.221l0.16,-0.22l0.159,-0.222l0.159,-0.221l0.157,-0.223l0.157,-0.223l0.156,-0.223l0.155,-0.224l0.155,-0.224l0.153,-0.225l0.153,-0.226l0.152,-0.226l0.152,-0.226l0.15,-0.227l0.15,-0.228l0.149,-0.228l0.148,-0.228l0.147,-0.229l0.147,-0.23l0.146,-0.23l0.145,-0.23l0.144,-0.231l0.143,-0.232l0.143,-0.232l0.141,-0.232l0.141,-0.233l0.14,-0.233l0.14,-0.234l0.138,-0.235l0.138,-0.234l0.137,-0.236l0.136,-0.235l0.136,-0.237l0.134,-0.236l0.134,-0.237l0.133,-0.238l0.132,-0.238l0.131,-0.239l0.131,-0.239l0.129,-0.239l0.129,-0.24l0.128,-0.24l0.128,-0.241l0.126,-0.241l0.126,-0.241l0.124,-0.242l0.124,-0.243l0.124,-0.243l0.122,-0.243l0.121,-0.244l0.121,-0.244l0.12,-0.244l0.119,-0.245l0.118,-0.246l0.118,-0.246l0.117,-0.246l0.115,-0.246l0.115,-0.247l0.114,-0.248l0.114,-0.248l0.112,-0.248l0.112,-0.249l0.111,-0.249l0.11,-0.249l0.109,-0.25l0.108,-0.25l0.108,-0.25l0.107,-0.251l0.105,-0.252l0.105,-0.251l0.105,-0.252l0.103,-0.253l0.103,-0.252l0.101,-0.254l0.101,-0.253l0.1,-0.254l0.099,-0.254l0.099,-0.255l0.097,-0.255l0.097,-0.255l0.096,-0.255l0.095,-0.256l0.094,-0.257l0.093,-0.256l0.092,-0.257l0.092,-0.258l0.091,-0.257l0.09,-0.258l0.089,-0.259l0.088,-0.258l0.087,-0.259l0.087,-0.26l0.085,-0.259l0.085,-0.26l0.084,-0.26l0.083,-0.261l0.083,-0.261l0.081,-0.261l0.08,-0.261l0.08,-0.262l0.079,-0.262l0.078,-0.263l0.077,-0.262l0.076,-0.263l0.076,-0.263l0.074,-0.264l0.074,-0.264l0.073,-0.264l0.072,-0.264l0.071,-0.265l0.07,-0.265l0.069,-0.265l0.069,-0.266l0.067,-0.265l0.067,-0.266l0.066,-0.267l0.065,-0.266l0.064,-0.267l0.063,-0.267l0.063,-0.267l0.061,-0.268l0.061,-0.267l0.06,-0.269l0.059,-0.268l0.058,-0.268l0.057,-0.269l0.056,-0.269l0.056,-0.269l0.054,-0.27l0.054,-0.27l0.052,-0.269l0.052,-0.271l0.051,-0.27l0.05,-0.27l0.05,-0.271l0.048,-0.271l0.048,-0.272l0.046,-0.271l0.046,-0.272l0.045,-0.272l0.044,-0.272l0.043,-0.272l0.042,-0.272l0.041,-0.273l0.04,-0.273l0.04,-0.273l0.038,-0.273l0.038,-0.273l0.037,-0.274l0.036,-0.274l0.035,-0.274l0.034,-0.274l0.033,-0.274l0.033,-0.274l0.031,-0.275l0.031,-0.275l0.029,-0.275l0.029,-0.275l0.028,-0.275l0.027,-0.276l0.026,-0.275l0.025,-0.276l0.024,-0.276l0.023,-0.276l0.023,-0.276l0.021,-0.276l0.021,-0.277l0.02,-0.276l0.018,-0.277l0.018,-0.277l0.017,-0.277l0.016,-0.277l0.015,-0.277l0.015,-0.278l0.013,-0.277l0.012,-0.278l0.012,-0.277l0.01,-0.278l0.01,-0.278l0.009,-0.278l0.008,-0.278l0.006,-0.279l0.006,-0.278l0.006,-0.278l0.004,-0.279l0.003,-0.279l0.002,-0.278l0.002,-0.279l0,-0.281l0,-34.952l-0.001,-0.305l-0.003,-0.3l-0.006,-0.298l-0.008,-0.296l-0.01,-0.295l-0.012,-0.293l-0.014,-0.292l-0.017,-0.29l-0.019,-0.289l-0.021,-0.287l-0.023,-0.286l-0.025,-0.284l-0.027,-0.283l-0.03,-0.282l-0.031,-0.279l-0.034,-0.279l-0.035,-0.276l-0.038,-0.276l-0.04,-0.273l-0.042,-0.273l-0.044,-0.271l-0.046,-0.269l-0.049,-0.268l-0.05,-0.267l-0.052,-0.265l-0.054,-0.263l-0.057,-0.263l-0.058,-0.26l-0.06,-0.26l-0.062,-0.258l-0.065,-0.256l-0.066,-0.255l-0.068,-0.254l-0.07,-0.252l-0.072,-0.251l-0.074,-0.249l-0.076,-0.248l-0.078,-0.247l-0.08,-0.245l-0.082,-0.244l-0.084,-0.243l-0.085,-0.241l-0.088,-0.24l-0.089,-0.239l-0.091,-0.237l-0.093,-0.236l-0.095,-0.234l-0.097,-0.233l-0.099,-0.232l-0.101,-0.231l-0.102,-0.229l-0.104,-0.228l-0.106,-0.227l-0.108,-0.225l-0.11,-0.224l-0.112,-0.223l-0.113,-0.221l-0.115,-0.221l-0.117,-0.218l-0.119,-0.218l-0.121,-0.217l-0.122,-0.215l-0.124,-0.214l-0.126,-0.212l-0.128,-0.212l-0.13,-0.21l-0.131,-0.209l-0.133,-0.207l-0.135,-0.207l-0.136,-0.205l-0.139,-0.204l-0.14,-0.203l-0.141,-0.202l-0.144,-0.2l-0.145,-0.199l-0.147,-0.198l-0.149,-0.197l-0.15,-0.196l-0.152,-0.194l-0.154,-0.193l-0.156,-0.193l-0.157,-0.19l-0.159,-0.19l-0.161,-0.189l-0.162,-0.187l-0.164,-0.186l-0.166,-0.185l-0.167,-0.184l-0.169,-0.183l-0.171,-0.181l-0.172,-0.181l-0.174,-0.179l-0.176,-0.178l-0.177,-0.177l-0.179,-0.176l-0.181,-0.174l-0.182,-0.174l-0.184,-0.172l-0.185,-0.171l-0.188,-0.17l-0.188,-0.169l-0.191,-0.168l-0.192,-0.166l-0.193,-0.166l-0.195,-0.164l-0.197,-0.163l-0.198,-0.162l-0.2,-0.161l-0.202,-0.16l-0.203,-0.159l-0.205,-0.157l-0.206,-0.157l-0.208,-0.155l-0.209,-0.154l-0.211,-0.153l-0.212,-0.152l-0.214,-0.151l-0.216,-0.149l-0.217,-0.149l-0.218,-0.147l-0.22,-0.147l-0.222,-0.145l-0.223,-0.144l-0.224,-0.143l-0.227,-0.141l-0.227,-0.141l-0.229,-0.14l-0.231,-0.138l-0.231,-0.137l-0.234,-0.136l-0.235,-0.135l-0.236,-0.134l-0.238,-0.133l-0.239,-0.132l-0.241,-0.13l-0.242,-0.13l-0.243,-0.128l-0.245,-0.127l-0.246,-0.126l-0.248,-0.125l-0.249,-0.124l-0.25,-0.123l-0.252,-0.122l-0.253,-0.12l-0.255,-0.119l-0.256,-0.119l-0.257,-0.117l-0.259,-0.116l-0.26,-0.115l-0.261,-0.114l-0.262,-0.112l-0.264,-0.112l-0.265,-0.11l-0.267,-0.11l-0.268,-0.108l-0.269,-0.107l-0.27,-0.106l-0.272,-0.105l-0.273,-0.104l-0.274,-0.102l-0.275,-0.102l-0.277,-0.101l-0.278,-0.099l-0.279,-0.098l-0.28,-0.097l-0.282,-0.096l-0.283,-0.095l-0.284,-0.094l-0.285,-0.093l-0.286,-0.091l-0.288,-0.091l-0.288,-0.089l-0.29,-0.089l-0.291,-0.087l-0.293,-0.086l-0.293,-0.085l-0.294,-0.084l-0.296,-0.083l-0.297,-0.081l-0.298,-0.081l-0.298,-0.08l-0.3,-0.078l-0.302,-0.077l-0.302,-0.077l-0.303,-0.075l-0.304,-0.074l-0.306,-0.073l-0.306,-0.072l-0.308,-0.071l-0.308,-0.069l-0.31,-0.069l-0.311,-0.067l-0.311,-0.067l-0.313,-0.065l-0.313,-0.064l-0.315,-0.064l-0.316,-0.062l-0.316,-0.061l-0.318,-0.06l-0.318,-0.059l-0.32,-0.057l-0.32,-0.057l-0.322,-0.056l-0.322,-0.054l-0.323,-0.054l-0.324,-0.052l-0.325,-0.052l-0.326,-0.05l-0.327,-0.049l-0.328,-0.048l-0.328,-0.048l-0.33,-0.046l-0.33,-0.045l-0.331,-0.043l-0.333,-0.043l-0.332,-0.042l-0.334,-0.041l-0.335,-0.04l-0.335,-0.038l-0.336,-0.038l-0.337,-0.036l-0.338,-0.036l-0.339,-0.034l-0.339,-0.033l-0.34,-0.033l-0.341,-0.031l-0.342,-0.03l-0.342,-0.029l-0.343,-0.029l-0.344,-0.027l-0.345,-0.026l-0.345,-0.025l-0.346,-0.024l-0.347,-0.023l-0.348,-0.021l-0.348,-0.021l-0.349,-0.02l-0.349,-0.019l-0.35,-0.018l-0.351,-0.017l-0.352,-0.015l-0.352,-0.015l-0.353,-0.014l-0.353,-0.012l-0.354,-0.012l-0.355,-0.011l-0.355,-0.009l-0.356,-0.009l-0.357,-0.007l-0.357,-0.007l-0.357,-0.005l-0.358,-0.005l-0.359,-0.003l-0.36,-0.003l-0.359,-0.001l-0.361,-0.001l-0.362,0.001Z" style="fill:#275623;"/><path d="M160.47,29.36l0.388,0.002l0.387,0.004l0.387,0.005l0.387,0.006l0.386,0.008l0.385,0.009l0.385,0.01l0.384,0.012l0.384,0.013l0.383,0.015l0.382,0.016l0.382,0.017l0.382,0.019l0.38,0.021l0.381,0.021l0.379,0.024l0.379,0.024l0.378,0.026l0.378,0.028l0.377,0.029l0.376,0.03l0.376,0.032l0.375,0.033l0.374,0.035l0.374,0.036l0.373,0.037l0.372,0.039l0.372,0.041l0.371,0.042l0.37,0.043l0.369,0.045l0.369,0.046l0.368,0.048l0.367,0.049l0.366,0.051l0.366,0.052l0.365,0.054l0.364,0.055l0.363,0.057l0.363,0.058l0.362,0.06l0.36,0.061l0.361,0.063l0.359,0.064l0.358,0.066l0.358,0.067l0.357,0.069l0.356,0.07l0.355,0.071l0.354,0.074l0.353,0.075l0.353,0.076l0.351,0.078l0.351,0.079l0.35,0.081l0.349,0.082l0.348,0.084l0.347,0.086l0.346,0.087l0.345,0.089l0.344,0.09l0.343,0.092l0.343,0.093l0.341,0.095l0.34,0.096l0.34,0.098l0.338,0.1l0.337,0.101l0.337,0.103l0.335,0.104l0.334,0.106l0.334,0.107l0.332,0.109l0.331,0.111l0.33,0.112l0.329,0.114l0.328,0.116l0.327,0.117l0.326,0.118l0.325,0.121l0.323,0.121l0.323,0.124l0.321,0.125l0.321,0.127l0.319,0.128l0.318,0.13l0.317,0.132l0.315,0.133l0.315,0.135l0.313,0.137l0.312,0.138l0.311,0.14l0.31,0.142l0.309,0.143l0.307,0.145l0.306,0.146l0.305,0.148l0.304,0.15l0.302,0.152l0.302,0.153l0.299,0.155l0.299,0.156l0.297,0.159l0.296,0.16l0.295,0.161l0.294,0.164l0.292,0.165l0.291,0.166l0.289,0.169l0.288,0.17l0.287,0.172l0.285,0.173l0.284,0.175l0.283,0.177l0.281,0.179l0.28,0.181l0.279,0.182l0.277,0.184l0.275,0.185l0.275,0.187l0.272,0.19l0.272,0.19l0.27,0.193l0.268,0.194l0.267,0.196l0.265,0.198l0.264,0.2l0.263,0.201l0.261,0.203l0.259,0.205l0.258,0.206l0.256,0.209l0.255,0.21l0.253,0.212l0.252,0.213l0.25,0.216l0.248,0.217l0.247,0.219l0.245,0.221l0.244,0.222l0.242,0.224l0.24,0.226l0.239,0.228l0.237,0.23l0.236,0.231l0.233,0.234l0.232,0.235l0.231,0.236l0.228,0.239l0.227,0.24l0.226,0.243l0.223,0.244l0.222,0.245l0.22,0.248l0.218,0.249l0.217,0.252l0.214,0.253l0.213,0.254l0.211,0.257l0.21,0.258l0.207,0.261l0.206,0.261l0.204,0.264l0.202,0.266l0.2,0.267l0.198,0.27l0.196,0.271l0.195,0.273l0.193,0.274l0.19,0.277l0.189,0.278l0.187,0.28l0.185,0.282l0.183,0.284l0.181,0.285l0.179,0.288l0.178,0.289l0.175,0.291l0.173,0.293l0.171,0.294l0.17,0.297l0.167,0.298l0.165,0.3l0.163,0.302l0.162,0.303l0.159,0.306l0.157,0.307l0.155,0.309l0.153,0.311l0.151,0.313l0.149,0.314l0.147,0.317l0.144,0.318l0.143,0.32l0.14,0.322l0.139,0.323l0.136,0.326l0.134,0.327l0.132,0.329l0.13,0.331l0.128,0.332l0.125,0.335l0.124,0.336l0.121,0.338l0.119,0.34l0.116,0.342l0.115,0.343l0.112,0.345l0.111,0.348l0.108,0.349l0.105,0.35l0.104,0.353l0.101,0.354l0.099,0.356l0.097,0.358l0.094,0.36l0.092,0.362l0.09,0.363l0.088,0.366l0.085,0.367l0.084,0.368l0.08,0.371l0.079,0.373l0.076,0.374l0.074,0.376l0.071,0.378l0.069,0.38l0.067,0.382l0.065,0.383l0.062,0.385l0.06,0.387l0.057,0.389l0.055,0.391l0.053,0.392l0.05,0.395l0.048,0.396l0.045,0.398l0.043,0.4l0.041,0.402l0.038,0.403l0.036,0.405l0.034,0.408l0.031,0.409l0.028,0.41l0.026,0.413l0.024,0.415l0.021,0.416l0.019,0.418l0.016,0.42l0.014,0.422l0.011,0.424l0.009,0.426l0.006,0.427l0.004,0.429l0.001,0.512l-1.728,20.61l-3.959,-0.332l1.714,-20.439l-0.001,-0.327l-0.003,-0.406l-0.006,-0.404l-0.008,-0.402l-0.011,-0.4l-0.013,-0.398l-0.015,-0.396l-0.018,-0.394l-0.02,-0.393l-0.022,-0.39l-0.025,-0.388l-0.026,-0.386l-0.03,-0.384l-0.031,-0.382l-0.034,-0.381l-0.035,-0.378l-0.039,-0.376l-0.04,-0.375l-0.042,-0.372l-0.045,-0.371l-0.047,-0.368l-0.049,-0.367l-0.052,-0.365l-0.053,-0.363l-0.056,-0.36l-0.058,-0.359l-0.06,-0.357l-0.062,-0.355l-0.064,-0.354l-0.067,-0.351l-0.069,-0.349l-0.07,-0.348l-0.073,-0.345l-0.075,-0.344l-0.077,-0.342l-0.079,-0.34l-0.081,-0.338l-0.083,-0.336l-0.086,-0.334l-0.087,-0.333l-0.089,-0.33l-0.092,-0.329l-0.093,-0.327l-0.095,-0.325l-0.098,-0.323l-0.099,-0.321l-0.102,-0.32l-0.103,-0.318l-0.105,-0.315l-0.108,-0.314l-0.109,-0.313l-0.111,-0.31l-0.113,-0.308l-0.115,-0.307l-0.117,-0.305l-0.119,-0.303l-0.121,-0.301l-0.123,-0.3l-0.125,-0.298l-0.126,-0.296l-0.129,-0.294l-0.13,-0.292l-0.132,-0.291l-0.134,-0.289l-0.136,-0.287l-0.138,-0.285l-0.139,-0.284l-0.142,-0.282l-0.143,-0.28l-0.145,-0.278l-0.147,-0.277l-0.149,-0.275l-0.15,-0.273l-0.153,-0.272l-0.154,-0.27l-0.155,-0.268l-0.158,-0.266l-0.16,-0.265l-0.161,-0.263l-0.163,-0.261l-0.164,-0.26l-0.167,-0.257l-0.168,-0.257l-0.17,-0.254l-0.171,-0.253l-0.174,-0.251l-0.175,-0.25l-0.176,-0.248l-0.179,-0.246l-0.18,-0.245l-0.182,-0.243l-0.183,-0.241l-0.185,-0.24l-0.187,-0.238l-0.189,-0.236l-0.19,-0.235l-0.192,-0.233l-0.193,-0.232l-0.195,-0.23l-0.197,-0.228l-0.199,-0.227l-0.2,-0.225l-0.201,-0.223l-0.204,-0.222l-0.204,-0.22l-0.207,-0.219l-0.208,-0.217l-0.21,-0.216l-0.211,-0.214l-0.213,-0.212l-0.214,-0.211l-0.216,-0.209l-0.218,-0.208l-0.219,-0.206l-0.221,-0.204l-0.222,-0.203l-0.224,-0.202l-0.225,-0.2l-0.227,-0.198l-0.228,-0.197l-0.23,-0.195l-0.232,-0.193l-0.232,-0.193l-0.235,-0.19l-0.236,-0.189l-0.237,-0.188l-0.239,-0.186l-0.241,-0.184l-0.241,-0.183l-0.244,-0.181l-0.245,-0.18l-0.246,-0.178l-0.248,-0.177l-0.249,-0.175l-0.25,-0.174l-0.253,-0.172l-0.253,-0.171l-0.255,-0.169l-0.256,-0.168l-0.258,-0.166l-0.259,-0.165l-0.261,-0.163l-0.262,-0.161l-0.263,-0.16l-0.265,-0.159l-0.266,-0.157l-0.267,-0.156l-0.269,-0.154l-0.27,-0.153l-0.272,-0.151l-0.273,-0.149l-0.274,-0.148l-0.275,-0.147l-0.277,-0.145l-0.279,-0.144l-0.279,-0.142l-0.281,-0.141l-0.282,-0.139l-0.283,-0.138l-0.285,-0.136l-0.286,-0.135l-0.287,-0.133l-0.289,-0.132l-0.29,-0.13l-0.291,-0.129l-0.292,-0.128l-0.293,-0.125l-0.295,-0.125l-0.296,-0.123l-0.297,-0.121l-0.299,-0.12l-0.299,-0.119l-0.301,-0.117l-0.302,-0.116l-0.303,-0.114l-0.305,-0.113l-0.305,-0.111l-0.307,-0.11l-0.308,-0.108l-0.309,-0.107l-0.31,-0.106l-0.311,-0.104l-0.312,-0.102l-0.314,-0.101l-0.315,-0.1l-0.315,-0.098l-0.317,-0.097l-0.318,-0.095l-0.319,-0.094l-0.32,-0.093l-0.321,-0.091l-0.323,-0.089l-0.323,-0.088l-0.324,-0.087l-0.325,-0.085l-0.327,-0.084l-0.327,-0.082l-0.329,-0.081l-0.329,-0.08l-0.331,-0.078l-0.331,-0.077l-0.332,-0.075l-0.334,-0.074l-0.334,-0.072l-0.336,-0.071l-0.336,-0.069l-0.337,-0.069l-0.338,-0.066l-0.339,-0.066l-0.34,-0.064l-0.341,-0.062l-0.342,-0.061l-0.343,-0.06l-0.344,-0.058l-0.344,-0.057l-0.346,-0.055l-0.346,-0.054l-0.347,-0.053l-0.348,-0.051l-0.349,-0.05l-0.35,-0.049l-0.35,-0.047l-0.352,-0.045l-0.352,-0.045l-0.353,-0.042l-0.354,-0.042l-0.355,-0.04l-0.355,-0.039l-0.356,-0.037l-0.357,-0.036l-0.358,-0.035l-0.358,-0.033l-0.36,-0.032l-0.36,-0.03l-0.36,-0.029l-0.362,-0.028l-0.362,-0.026l-0.363,-0.025l-0.364,-0.024l-0.364,-0.022l-0.365,-0.021l-0.366,-0.019l-0.366,-0.019l-0.367,-0.016l-0.368,-0.016l-0.368,-0.014l-0.369,-0.013l-0.369,-0.011l-0.371,-0.01l-0.37,-0.009l-0.372,-0.007l-0.372,-0.006l-0.373,-0.005l-0.373,-0.003l-0.374,-0.002l-0.374,-0.001l-0.374,0.001l-0.374,0.002l-0.373,0.003l-0.373,0.005l-0.372,0.006l-0.372,0.007l-0.37,0.009l-0.371,0.01l-0.369,0.011l-0.369,0.013l-0.368,0.014l-0.368,0.016l-0.367,0.016l-0.366,0.019l-0.366,0.019l-0.365,0.021l-0.364,0.022l-0.364,0.024l-0.363,0.025l-0.362,0.026l-0.362,0.028l-0.36,0.029l-0.36,0.03l-0.359,0.032l-0.359,0.033l-0.358,0.035l-0.357,0.036l-0.356,0.037l-0.355,0.039l-0.355,0.04l-0.354,0.042l-0.353,0.042l-0.352,0.045l-0.351,0.045l-0.351,0.047l-0.35,0.049l-0.349,0.05l-0.348,0.051l-0.347,0.053l-0.346,0.054l-0.346,0.055l-0.344,0.057l-0.344,0.058l-0.343,0.06l-0.342,0.061l-0.341,0.062l-0.34,0.064l-0.339,0.066l-0.338,0.066l-0.337,0.069l-0.336,0.069l-0.336,0.071l-0.334,0.072l-0.334,0.074l-0.332,0.075l-0.331,0.077l-0.331,0.078l-0.329,0.08l-0.329,0.081l-0.327,0.082l-0.326,0.084l-0.326,0.085l-0.324,0.087l-0.323,0.088l-0.323,0.089l-0.321,0.091l-0.32,0.093l-0.319,0.094l-0.318,0.095l-0.317,0.097l-0.315,0.098l-0.315,0.1l-0.313,0.101l-0.313,0.102l-0.311,0.104l-0.31,0.106l-0.309,0.107l-0.308,0.108l-0.307,0.11l-0.305,0.111l-0.305,0.113l-0.303,0.114l-0.302,0.116l-0.301,0.117l-0.299,0.119l-0.299,0.12l-0.297,0.121l-0.296,0.123l-0.295,0.125l-0.293,0.125l-0.292,0.128l-0.291,0.129l-0.29,0.13l-0.289,0.132l-0.287,0.133l-0.286,0.135l-0.285,0.136l-0.283,0.138l-0.282,0.139l-0.281,0.141l-0.279,0.142l-0.279,0.144l-0.277,0.145l-0.275,0.147l-0.274,0.148l-0.273,0.149l-0.272,0.151l-0.27,0.153l-0.269,0.154l-0.267,0.156l-0.266,0.157l-0.265,0.159l-0.263,0.16l-0.262,0.161l-0.261,0.163l-0.259,0.165l-0.258,0.166l-0.256,0.168l-0.255,0.169l-0.253,0.171l-0.253,0.172l-0.25,0.174l-0.249,0.175l-0.248,0.177l-0.246,0.178l-0.245,0.18l-0.244,0.181l-0.241,0.183l-0.241,0.184l-0.239,0.186l-0.237,0.188l-0.236,0.189l-0.235,0.19l-0.232,0.193l-0.232,0.193l-0.23,0.195l-0.228,0.197l-0.227,0.198l-0.225,0.2l-0.224,0.202l-0.222,0.203l-0.221,0.204l-0.219,0.206l-0.218,0.208l-0.216,0.209l-0.214,0.211l-0.213,0.212l-0.211,0.214l-0.21,0.216l-0.208,0.217l-0.206,0.219l-0.205,0.22l-0.204,0.222l-0.201,0.223l-0.2,0.225l-0.199,0.227l-0.196,0.228l-0.196,0.23l-0.193,0.232l-0.192,0.233l-0.19,0.235l-0.189,0.236l-0.187,0.238l-0.185,0.24l-0.183,0.241l-0.182,0.243l-0.18,0.245l-0.179,0.246l-0.176,0.248l-0.175,0.25l-0.174,0.251l-0.171,0.253l-0.17,0.254l-0.168,0.257l-0.167,0.258l-0.164,0.259l-0.163,0.261l-0.161,0.263l-0.16,0.265l-0.157,0.266l-0.156,0.269l-0.154,0.269l-0.153,0.272l-0.15,0.273l-0.149,0.275l-0.147,0.277l-0.145,0.278l-0.143,0.28l-0.142,0.282l-0.139,0.284l-0.138,0.285l-0.136,0.287l-0.134,0.289l-0.132,0.291l-0.13,0.292l-0.129,0.294l-0.126,0.296l-0.125,0.298l-0.123,0.3l-0.121,0.301l-0.119,0.303l-0.117,0.305l-0.115,0.307l-0.113,0.308l-0.111,0.31l-0.109,0.313l-0.108,0.314l-0.105,0.315l-0.103,0.318l-0.102,0.32l-0.099,0.321l-0.098,0.323l-0.095,0.325l-0.093,0.327l-0.092,0.329l-0.089,0.33l-0.087,0.333l-0.086,0.334l-0.083,0.336l-0.081,0.338l-0.079,0.34l-0.077,0.342l-0.075,0.344l-0.073,0.345l-0.07,0.348l-0.069,0.349l-0.066,0.351l-0.065,0.354l-0.062,0.355l-0.06,0.357l-0.058,0.359l-0.056,0.36l-0.053,0.363l-0.052,0.365l-0.049,0.367l-0.047,0.368l-0.045,0.371l-0.042,0.372l-0.04,0.375l-0.039,0.376l-0.035,0.378l-0.034,0.381l-0.031,0.382l-0.029,0.384l-0.027,0.386l-0.025,0.388l-0.022,0.39l-0.02,0.393l-0.018,0.394l-0.015,0.396l-0.013,0.398l-0.01,0.4l-0.009,0.402l-0.006,0.404l-0.003,0.406l-0.001,0.267l3.024,20.776l-3.931,0.572l-3.066,-21.067l0.001,-0.572l0.004,-0.429l0.006,-0.427l0.009,-0.426l0.011,-0.424l0.014,-0.422l0.016,-0.42l0.019,-0.418l0.021,-0.416l0.024,-0.415l0.026,-0.413l0.028,-0.41l0.031,-0.409l0.034,-0.408l0.036,-0.405l0.038,-0.403l0.041,-0.402l0.043,-0.4l0.045,-0.398l0.048,-0.396l0.05,-0.395l0.053,-0.392l0.055,-0.391l0.057,-0.389l0.06,-0.387l0.062,-0.385l0.065,-0.383l0.067,-0.382l0.069,-0.38l0.071,-0.378l0.074,-0.376l0.076,-0.374l0.079,-0.373l0.08,-0.371l0.084,-0.368l0.085,-0.367l0.088,-0.366l0.09,-0.363l0.092,-0.362l0.094,-0.36l0.097,-0.358l0.099,-0.356l0.101,-0.354l0.104,-0.353l0.105,-0.35l0.108,-0.349l0.111,-0.348l0.112,-0.345l0.115,-0.343l0.116,-0.342l0.119,-0.34l0.122,-0.338l0.123,-0.336l0.125,-0.335l0.128,-0.332l0.13,-0.331l0.132,-0.329l0.134,-0.327l0.136,-0.326l0.139,-0.323l0.14,-0.322l0.143,-0.32l0.144,-0.318l0.147,-0.317l0.149,-0.314l0.151,-0.313l0.153,-0.311l0.155,-0.309l0.157,-0.307l0.159,-0.306l0.162,-0.303l0.163,-0.302l0.165,-0.3l0.167,-0.298l0.17,-0.297l0.171,-0.294l0.173,-0.293l0.175,-0.291l0.178,-0.289l0.179,-0.288l0.181,-0.285l0.183,-0.284l0.185,-0.282l0.187,-0.28l0.189,-0.278l0.19,-0.277l0.193,-0.274l0.195,-0.273l0.196,-0.271l0.198,-0.27l0.2,-0.267l0.202,-0.266l0.204,-0.263l0.206,-0.263l0.207,-0.26l0.21,-0.258l0.211,-0.257l0.213,-0.254l0.214,-0.253l0.217,-0.252l0.218,-0.249l0.22,-0.248l0.222,-0.245l0.223,-0.244l0.226,-0.243l0.227,-0.24l0.228,-0.239l0.231,-0.236l0.232,-0.235l0.233,-0.234l0.236,-0.231l0.237,-0.23l0.239,-0.228l0.24,-0.226l0.242,-0.224l0.244,-0.222l0.245,-0.221l0.247,-0.219l0.248,-0.217l0.25,-0.216l0.252,-0.213l0.253,-0.212l0.255,-0.21l0.256,-0.209l0.258,-0.206l0.259,-0.205l0.261,-0.203l0.263,-0.201l0.264,-0.2l0.265,-0.198l0.267,-0.196l0.268,-0.194l0.27,-0.193l0.272,-0.19l0.272,-0.19l0.275,-0.187l0.275,-0.185l0.277,-0.184l0.279,-0.182l0.28,-0.181l0.281,-0.179l0.283,-0.177l0.284,-0.175l0.285,-0.173l0.287,-0.172l0.288,-0.17l0.289,-0.169l0.291,-0.166l0.292,-0.166l0.294,-0.163l0.295,-0.161l0.296,-0.16l0.297,-0.159l0.299,-0.156l0.3,-0.155l0.301,-0.153l0.302,-0.152l0.304,-0.15l0.305,-0.148l0.306,-0.146l0.307,-0.145l0.309,-0.143l0.31,-0.142l0.311,-0.14l0.312,-0.138l0.313,-0.137l0.315,-0.135l0.315,-0.133l0.317,-0.132l0.318,-0.13l0.319,-0.128l0.321,-0.127l0.321,-0.125l0.323,-0.124l0.323,-0.121l0.325,-0.121l0.326,-0.118l0.327,-0.117l0.328,-0.116l0.329,-0.114l0.33,-0.112l0.331,-0.111l0.332,-0.109l0.334,-0.107l0.334,-0.106l0.335,-0.104l0.337,-0.103l0.337,-0.101l0.338,-0.1l0.34,-0.098l0.34,-0.096l0.341,-0.095l0.343,-0.093l0.343,-0.092l0.344,-0.09l0.345,-0.089l0.346,-0.087l0.347,-0.086l0.348,-0.084l0.349,-0.082l0.35,-0.081l0.351,-0.079l0.351,-0.078l0.353,-0.076l0.353,-0.075l0.354,-0.074l0.355,-0.071l0.356,-0.07l0.357,-0.069l0.358,-0.067l0.358,-0.066l0.359,-0.064l0.361,-0.063l0.36,-0.061l0.362,-0.06l0.363,-0.058l0.363,-0.057l0.364,-0.055l0.365,-0.054l0.366,-0.052l0.366,-0.051l0.367,-0.049l0.368,-0.048l0.369,-0.046l0.369,-0.045l0.37,-0.043l0.371,-0.042l0.372,-0.041l0.372,-0.039l0.373,-0.037l0.374,-0.036l0.374,-0.035l0.375,-0.033l0.376,-0.032l0.376,-0.03l0.377,-0.029l0.378,-0.028l0.378,-0.026l0.379,-0.024l0.379,-0.024l0.381,-0.021l0.38,-0.021l0.382,-0.019l0.382,-0.017l0.382,-0.016l0.383,-0.015l0.384,-0.013l0.384,-0.012l0.385,-0.01l0.386,-0.009l0.385,-0.008l0.387,-0.006l0.387,-0.005l0.387,-0.004l0.388,-0.002l0.389,0l0.389,0Z" style="fill:#275623;"/><g><path d="M141.281,197.401l0.135,0.014l0.134,0.023l0.131,0.032l0.13,0.041l0.126,0.05l0.122,0.058l0.118,0.067l0.114,0.074l0.108,0.082l0.102,0.089l0.096,0.096l0.089,0.102l0.082,0.108l0.075,0.114l0.066,0.118l0.058,0.122l0.05,0.127l0.041,0.129l0.032,0.132l0.023,0.133l0.014,0.135l0.005,0.136l0,23.835l-0.005,0.135l-0.014,0.135l-0.023,0.134l-0.032,0.132l-0.041,0.129l-0.05,0.126l-0.058,0.123l-0.066,0.118l-0.075,0.113l-0.082,0.108l-0.089,0.103l-0.096,0.095l-0.102,0.09l-0.108,0.081l-0.114,0.075l-0.118,0.066l-0.122,0.059l-0.126,0.049l-0.13,0.041l-0.131,0.032l-0.134,0.024l-0.135,0.013l-0.136,0.005l-0.135,-0.005l-0.135,-0.013l-0.134,-0.024l-0.131,-0.032l-0.13,-0.041l-0.126,-0.049l-0.122,-0.059l-0.119,-0.066l-0.113,-0.075l-0.108,-0.081l-0.102,-0.09l-0.096,-0.095l-0.089,-0.103l-0.082,-0.108l-0.075,-0.113l-0.066,-0.118l-0.058,-0.123l-0.05,-0.126l-0.041,-0.129l-0.032,-0.132l-0.023,-0.134l-0.014,-0.135l-0.005,-0.135l0,-23.835l0.005,-0.136l0.014,-0.135l0.023,-0.133l0.032,-0.132l0.041,-0.129l0.05,-0.127l0.058,-0.122l0.066,-0.118l0.075,-0.114l0.082,-0.108l0.089,-0.102l0.096,-0.096l0.102,-0.089l0.108,-0.082l0.113,-0.074l0.119,-0.067l0.122,-0.058l0.126,-0.05l0.13,-0.041l0.131,-0.032l0.134,-0.023l0.135,-0.014l0.135,-0.004l0.136,0.004Z" style="fill:#275623;"/><path d="M179.682,197.401l0.135,0.014l0.133,0.023l0.132,0.032l0.129,0.041l0.127,0.05l0.122,0.058l0.118,0.067l0.114,0.074l0.108,0.082l0.102,0.089l0.096,0.096l0.089,0.102l0.082,0.108l0.074,0.114l0.067,0.118l0.058,0.122l0.05,0.127l0.041,0.129l0.032,0.132l0.023,0.133l0.014,0.135l0.005,0.136l0,23.835l-0.005,0.135l-0.014,0.135l-0.023,0.134l-0.032,0.132l-0.041,0.129l-0.05,0.126l-0.058,0.123l-0.067,0.118l-0.074,0.113l-0.082,0.108l-0.089,0.103l-0.096,0.095l-0.102,0.09l-0.108,0.081l-0.114,0.075l-0.118,0.066l-0.122,0.059l-0.127,0.049l-0.129,0.041l-0.132,0.032l-0.133,0.024l-0.135,0.013l-0.136,0.005l-0.135,-0.005l-0.135,-0.013l-0.134,-0.024l-0.132,-0.032l-0.129,-0.041l-0.126,-0.049l-0.123,-0.059l-0.118,-0.066l-0.113,-0.075l-0.108,-0.081l-0.102,-0.09l-0.096,-0.095l-0.089,-0.103l-0.082,-0.108l-0.075,-0.113l-0.066,-0.118l-0.059,-0.123l-0.049,-0.126l-0.041,-0.129l-0.032,-0.132l-0.023,-0.134l-0.014,-0.135l-0.005,-0.135l0,-23.835l0.005,-0.136l0.014,-0.135l0.023,-0.133l0.032,-0.132l0.041,-0.129l0.049,-0.127l0.059,-0.122l0.066,-0.118l0.075,-0.114l0.082,-0.108l0.089,-0.102l0.096,-0.096l0.102,-0.089l0.108,-0.082l0.113,-0.074l0.118,-0.067l0.123,-0.058l0.126,-0.05l0.129,-0.041l0.132,-0.032l0.134,-0.023l0.135,-0.014l0.135,-0.004l0.136,0.004Z" style="fill:#275623;"/></g><path d="M202.091,222.293l0.166,0.006l0.165,0.01l0.163,0.014l0.163,0.019l0.161,0.022l0.161,0.026l0.159,0.03l0.157,0.034l0.156,0.038l0.154,0.041l0.153,0.045l0.152,0.049l0.149,0.052l0.147,0.056l0.146,0.059l0.144,0.063l0.141,0.066l0.14,0.07l0.138,0.072l0.135,0.076l0.133,0.079l0.131,0.082l0.128,0.084l0.127,0.088l0.123,0.09l0.122,0.094l0.119,0.096l0.116,0.099l0.114,0.101l0.111,0.103l0.109,0.107l0.106,0.108l0.104,0.111l0.1,0.113l0.098,0.116l0.096,0.117l0.092,0.12l0.09,0.122l0.087,0.124l0.084,0.126l0.081,0.127l0.078,0.13l0.075,0.131l0.073,0.133l0.069,0.135l0.066,0.137l0.064,0.138l0.06,0.139l0.057,0.142l0.054,0.142l0.05,0.144l0.048,0.145l0.044,0.147l0.042,0.148l0.037,0.149l0.035,0.15l0.031,0.152l0.028,0.152l0.024,0.153l0.021,0.154l0.018,0.155l0.014,0.156l0.011,0.167l0.267,8.024l-0.002,0.188l-0.006,0.165l-0.01,0.165l-0.014,0.165l-0.019,0.163l-0.021,0.162l-0.026,0.161l-0.03,0.16l-0.034,0.158l-0.037,0.158l-0.04,0.155l-0.045,0.155l-0.048,0.153l-0.051,0.151l-0.055,0.15l-0.059,0.148l-0.062,0.147l-0.065,0.144l-0.068,0.143l-0.072,0.141l-0.075,0.139l-0.078,0.137l-0.081,0.135l-0.084,0.133l-0.087,0.131l-0.091,0.128l-0.093,0.126l-0.096,0.124l-0.099,0.122l-0.102,0.12l-0.104,0.117l-0.107,0.114l-0.111,0.112l-0.112,0.109l-0.116,0.107l-0.118,0.104l-0.12,0.101l-0.123,0.098l-0.126,0.095l-0.128,0.093l-0.131,0.089l-0.132,0.087l-0.136,0.083l-0.137,0.08l-0.14,0.077l-0.142,0.073l-0.144,0.07l-0.146,0.067l-0.148,0.063l-0.15,0.059l-0.152,0.056l-0.154,0.052l-0.155,0.048l-0.157,0.045l-0.159,0.04l-0.161,0.036l-0.162,0.033l-0.157,0.027l-0.088,0.013l-0.083,0.012l-0.083,0.01l-0.083,0.009l-0.083,0.009l-0.084,0.007l-0.084,0.006l-0.084,0.005l-0.084,0.004l-0.085,0.003l-0.084,0.001l-0.079,0.001l-36.961,0l-0.129,-0.002l-0.138,-0.004l-0.137,-0.007l-0.137,-0.009l-0.135,-0.013l-0.135,-0.015l-0.134,-0.018l-0.134,-0.02l-0.132,-0.023l-0.131,-0.026l-0.13,-0.028l-0.129,-0.031l-0.128,-0.033l-0.127,-0.036l-0.125,-0.038l-0.125,-0.041l-0.122,-0.043l-0.122,-0.046l-0.12,-0.047l-0.119,-0.05l-0.118,-0.052l-0.115,-0.055l-0.115,-0.056l-0.113,-0.059l-0.111,-0.061l-0.11,-0.062l-0.108,-0.065l-0.107,-0.066l-0.105,-0.069l-0.103,-0.07l-0.102,-0.072l-0.1,-0.074l-0.098,-0.075l-0.097,-0.077l-0.095,-0.079l-0.093,-0.08l-0.092,-0.082l-0.09,-0.084l-0.088,-0.084l-0.086,-0.087l-0.084,-0.087l-0.083,-0.089l-0.081,-0.09l-0.079,-0.092l-0.077,-0.092l-0.076,-0.094l-0.074,-0.095l-0.072,-0.097l-0.07,-0.097l-0.069,-0.098l-0.066,-0.1l-0.065,-0.1l-0.063,-0.102l-0.061,-0.102l-0.06,-0.104l-0.057,-0.104l-0.056,-0.105l-0.054,-0.106l-0.052,-0.106l-0.051,-0.108l-0.048,-0.109l-0.047,-0.109l-0.044,-0.11l-0.043,-0.11l-0.042,-0.112l-0.039,-0.111l-0.037,-0.113l-0.036,-0.113l-0.033,-0.114l-0.032,-0.115l-0.03,-0.115l-0.027,-0.115l-0.026,-0.116l-0.024,-0.116l-0.022,-0.117l-0.02,-0.118l-0.018,-0.117l-0.017,-0.118l-0.014,-0.119l-0.012,-0.119l-0.01,-0.119l-0.008,-0.12l-0.006,-0.12l-0.003,-0.12l-0.002,-0.12l0,-0.12l0.003,-0.121l0.004,-0.121l0.007,-0.121l0.009,-0.121l0.011,-0.121l0.014,-0.121l0.015,-0.121l0.018,-0.121l0.02,-0.121l0.023,-0.12l0.024,-0.121l0.027,-0.121l0.03,-0.12l0.032,-0.12l0.034,-0.119l0.036,-0.12l0.039,-0.119l0.042,-0.118l0.043,-0.118l0.047,-0.118l0.048,-0.116l0.051,-0.117l0.054,-0.115l0.056,-0.115l0.059,-0.114l0.061,-0.113l0.063,-0.113l0.066,-0.111l0.069,-0.111l0.071,-0.109l0.073,-0.108l0.076,-0.108l0.079,-0.106l0.08,-0.104l0.084,-0.104l0.085,-0.102l0.089,-0.101l0.09,-0.099l0.093,-0.098l0.095,-0.096l0.098,-0.095l0.117,-0.109l9.055,-7.723l0.11,-0.09l0.111,-0.087l0.114,-0.084l0.115,-0.082l0.116,-0.079l0.119,-0.076l0.119,-0.074l0.122,-0.071l0.123,-0.069l0.124,-0.066l0.125,-0.063l0.127,-0.061l0.128,-0.058l0.13,-0.055l0.13,-0.053l0.132,-0.049l0.133,-0.048l0.134,-0.044l0.135,-0.042l0.136,-0.038l0.137,-0.036l0.139,-0.033l0.139,-0.03l0.14,-0.028l0.14,-0.024l0.142,-0.021l0.143,-0.018l0.143,-0.015l0.144,-0.011l0.144,-0.008l0.145,-0.006l0.134,-0.001l27.964,0l0.154,0.002Zm-28.095,3.97l-0.064,0.001l-0.054,0.002l-0.054,0.003l-0.054,0.005l-0.054,0.005l-0.055,0.007l-0.055,0.008l-0.055,0.01l-0.055,0.01l-0.055,0.012l-0.055,0.013l-0.055,0.015l-0.055,0.015l-0.055,0.017l-0.054,0.018l-0.054,0.019l-0.054,0.021l-0.053,0.021l-0.053,0.023l-0.052,0.023l-0.051,0.025l-0.051,0.025l-0.05,0.027l-0.049,0.027l-0.048,0.029l-0.047,0.029l-0.047,0.03l-0.045,0.03l-0.044,0.032l-0.043,0.032l-0.042,0.032l-0.041,0.033l-8.954,7.638l-0.023,0.022l-0.04,0.038l-0.038,0.039l-0.037,0.039l-0.036,0.039l-0.035,0.04l-0.033,0.039l-0.032,0.041l-0.032,0.04l-0.03,0.041l-0.029,0.041l-0.028,0.041l-0.027,0.041l-0.026,0.042l-0.024,0.042l-0.025,0.043l-0.023,0.043l-0.022,0.043l-0.021,0.043l-0.02,0.044l-0.02,0.044l-0.018,0.045l-0.018,0.045l-0.017,0.045l-0.015,0.045l-0.016,0.046l-0.014,0.047l-0.013,0.046l-0.012,0.047l-0.012,0.047l-0.011,0.048l-0.009,0.047l-0.009,0.049l-0.008,0.048l-0.008,0.049l-0.006,0.049l-0.005,0.049l-0.005,0.05l-0.004,0.05l-0.003,0.05l-0.001,0.05l-0.002,0.05l0,0.051l0.001,0.051l0.002,0.051l0.002,0.051l0.004,0.051l0.004,0.051l0.005,0.051l0.006,0.051l0.007,0.051l0.008,0.051l0.009,0.051l0.009,0.052l0.011,0.05l0.011,0.051l0.013,0.051l0.013,0.051l0.013,0.05l0.015,0.05l0.016,0.05l0.016,0.05l0.018,0.049l0.018,0.049l0.019,0.049l0.019,0.048l0.021,0.048l0.021,0.048l0.022,0.047l0.023,0.046l0.024,0.047l0.024,0.045l0.025,0.046l0.026,0.044l0.026,0.045l0.027,0.043l0.028,0.043l0.028,0.043l0.029,0.041l0.03,0.042l0.03,0.04l0.031,0.04l0.032,0.039l0.032,0.039l0.033,0.037l0.033,0.037l0.034,0.037l0.034,0.035l0.035,0.035l0.035,0.034l0.036,0.033l0.036,0.033l0.037,0.032l0.038,0.031l0.037,0.03l0.039,0.029l0.038,0.029l0.04,0.027l0.039,0.028l0.041,0.026l0.04,0.025l0.041,0.024l0.042,0.024l0.042,0.023l0.042,0.022l0.044,0.022l0.043,0.02l0.044,0.019l0.045,0.019l0.045,0.018l0.046,0.017l0.046,0.017l0.047,0.015l0.047,0.014l0.049,0.014l0.049,0.013l0.049,0.012l0.051,0.011l0.05,0.01l0.052,0.009l0.053,0.008l0.053,0.007l0.055,0.006l0.055,0.005l0.056,0.004l0.057,0.003l0.058,0.002l0.069,0l36.928,0l0.039,0l0.033,-0.001l0.032,-0.001l0.032,-0.001l0.032,-0.002l0.032,-0.002l0.032,-0.003l0.031,-0.003l0.031,-0.004l0.031,-0.004l0.031,-0.004l0.025,-0.004l0.067,-0.011l0.061,-0.012l0.059,-0.014l0.06,-0.015l0.058,-0.016l0.058,-0.018l0.058,-0.02l0.056,-0.021l0.057,-0.022l0.055,-0.024l0.056,-0.025l0.054,-0.026l0.054,-0.028l0.053,-0.03l0.053,-0.03l0.052,-0.032l0.051,-0.033l0.05,-0.035l0.05,-0.036l0.049,-0.037l0.049,-0.039l0.047,-0.039l0.046,-0.041l0.046,-0.043l0.045,-0.043l0.044,-0.045l0.043,-0.045l0.042,-0.047l0.04,-0.048l0.04,-0.049l0.039,-0.05l0.038,-0.051l0.036,-0.052l0.035,-0.053l0.034,-0.054l0.033,-0.055l0.032,-0.055l0.03,-0.057l0.03,-0.057l0.027,-0.058l0.027,-0.059l0.025,-0.059l0.024,-0.061l0.022,-0.06l0.021,-0.062l0.02,-0.062l0.018,-0.063l0.016,-0.063l0.015,-0.064l0.014,-0.065l0.012,-0.065l0.011,-0.065l0.009,-0.067l0.007,-0.066l0.006,-0.068l0.004,-0.067l0.002,-0.068l0.001,-0.048l-0.262,-7.867l-0.004,-0.055l-0.006,-0.066l-0.007,-0.065l-0.009,-0.065l-0.01,-0.064l-0.012,-0.064l-0.013,-0.063l-0.014,-0.062l-0.016,-0.062l-0.017,-0.062l-0.018,-0.06l-0.02,-0.06l-0.021,-0.059l-0.022,-0.059l-0.023,-0.058l-0.025,-0.057l-0.026,-0.056l-0.027,-0.055l-0.028,-0.055l-0.029,-0.054l-0.03,-0.053l-0.032,-0.052l-0.032,-0.051l-0.034,-0.05l-0.034,-0.049l-0.036,-0.049l-0.036,-0.047l-0.038,-0.046l-0.038,-0.046l-0.04,-0.044l-0.04,-0.043l-0.041,-0.042l-0.042,-0.041l-0.043,-0.04l-0.044,-0.039l-0.044,-0.038l-0.045,-0.036l-0.046,-0.035l-0.047,-0.035l-0.048,-0.033l-0.048,-0.032l-0.049,-0.03l-0.05,-0.03l-0.05,-0.028l-0.052,-0.027l-0.052,-0.026l-0.053,-0.025l-0.053,-0.023l-0.054,-0.022l-0.056,-0.021l-0.056,-0.02l-0.056,-0.018l-0.058,-0.017l-0.058,-0.016l-0.059,-0.014l-0.061,-0.013l-0.06,-0.011l-0.062,-0.01l-0.064,-0.009l-0.064,-0.007l-0.065,-0.006l-0.066,-0.004l-0.067,-0.003l-0.08,-0.001l-27.917,0Z" style="fill:#275623;"/><path d="M147.382,222.292l0.145,0.006l0.145,0.008l0.144,0.011l0.143,0.015l0.142,0.018l0.142,0.021l0.141,0.024l0.14,0.028l0.139,0.03l0.138,0.033l0.137,0.036l0.136,0.038l0.135,0.042l0.134,0.044l0.133,0.048l0.132,0.049l0.131,0.053l0.129,0.055l0.128,0.058l0.127,0.061l0.126,0.063l0.124,0.066l0.123,0.069l0.121,0.071l0.12,0.074l0.118,0.076l0.117,0.079l0.115,0.082l0.113,0.084l0.112,0.087l0.11,0.09l9.054,7.723l0.117,0.109l0.098,0.095l0.095,0.096l0.093,0.098l0.091,0.099l0.088,0.101l0.086,0.102l0.083,0.104l0.081,0.104l0.078,0.106l0.076,0.108l0.074,0.108l0.071,0.109l0.068,0.111l0.066,0.111l0.064,0.113l0.061,0.113l0.058,0.114l0.056,0.115l0.054,0.115l0.051,0.117l0.049,0.117l0.046,0.117l0.044,0.118l0.041,0.118l0.039,0.119l0.037,0.12l0.034,0.119l0.031,0.12l0.03,0.12l0.027,0.121l0.025,0.12l0.022,0.121l0.02,0.121l0.018,0.121l0.016,0.121l0.013,0.121l0.011,0.121l0.009,0.121l0.007,0.121l0.005,0.121l0.002,0.121l0.001,0.12l-0.002,0.12l-0.004,0.12l-0.006,0.12l-0.008,0.12l-0.01,0.119l-0.012,0.119l-0.014,0.118l-0.016,0.119l-0.018,0.117l-0.02,0.118l-0.022,0.117l-0.024,0.116l-0.026,0.116l-0.028,0.115l-0.03,0.115l-0.032,0.115l-0.033,0.114l-0.036,0.113l-0.037,0.113l-0.039,0.111l-0.041,0.112l-0.043,0.11l-0.045,0.11l-0.047,0.109l-0.048,0.109l-0.05,0.107l-0.053,0.107l-0.053,0.106l-0.056,0.105l-0.058,0.104l-0.059,0.104l-0.062,0.102l-0.063,0.102l-0.064,0.1l-0.067,0.1l-0.068,0.098l-0.071,0.097l-0.072,0.097l-0.074,0.095l-0.075,0.094l-0.078,0.092l-0.079,0.092l-0.081,0.09l-0.082,0.089l-0.085,0.088l-0.086,0.086l-0.088,0.084l-0.09,0.084l-0.091,0.082l-0.094,0.08l-0.095,0.079l-0.096,0.077l-0.098,0.075l-0.1,0.074l-0.102,0.072l-0.104,0.07l-0.105,0.069l-0.106,0.066l-0.109,0.065l-0.109,0.062l-0.112,0.061l-0.113,0.059l-0.114,0.056l-0.116,0.055l-0.118,0.052l-0.118,0.05l-0.121,0.047l-0.121,0.046l-0.123,0.043l-0.124,0.041l-0.126,0.038l-0.127,0.036l-0.127,0.033l-0.129,0.031l-0.13,0.028l-0.132,0.026l-0.132,0.023l-0.133,0.02l-0.134,0.018l-0.135,0.015l-0.136,0.013l-0.137,0.009l-0.137,0.007l-0.138,0.004l-0.129,0.002l-36.961,0l-0.078,-0.001l-0.085,-0.001l-0.085,-0.003l-0.084,-0.004l-0.084,-0.005l-0.084,-0.006l-0.084,-0.007l-0.083,-0.009l-0.083,-0.009l-0.083,-0.01l-0.082,-0.012l-0.089,-0.013l-0.157,-0.027l-0.162,-0.033l-0.16,-0.036l-0.159,-0.04l-0.157,-0.045l-0.156,-0.048l-0.154,-0.052l-0.152,-0.056l-0.15,-0.059l-0.148,-0.063l-0.146,-0.067l-0.144,-0.07l-0.142,-0.073l-0.14,-0.077l-0.137,-0.08l-0.135,-0.083l-0.133,-0.087l-0.131,-0.089l-0.128,-0.093l-0.125,-0.095l-0.123,-0.098l-0.121,-0.101l-0.118,-0.104l-0.115,-0.107l-0.113,-0.109l-0.11,-0.112l-0.107,-0.115l-0.105,-0.116l-0.102,-0.12l-0.099,-0.121l-0.096,-0.125l-0.093,-0.126l-0.09,-0.128l-0.088,-0.131l-0.084,-0.133l-0.081,-0.135l-0.078,-0.137l-0.075,-0.139l-0.071,-0.141l-0.069,-0.143l-0.065,-0.144l-0.062,-0.147l-0.058,-0.148l-0.055,-0.15l-0.052,-0.151l-0.048,-0.153l-0.044,-0.155l-0.041,-0.155l-0.037,-0.158l-0.034,-0.158l-0.029,-0.16l-0.026,-0.161l-0.022,-0.162l-0.018,-0.164l-0.014,-0.164l-0.011,-0.165l-0.006,-0.166l-0.002,-0.187l0.267,-8.024l0.012,-0.167l0.014,-0.156l0.017,-0.155l0.021,-0.154l0.025,-0.153l0.027,-0.152l0.031,-0.152l0.035,-0.15l0.038,-0.149l0.041,-0.148l0.044,-0.147l0.048,-0.145l0.051,-0.144l0.054,-0.142l0.057,-0.142l0.06,-0.139l0.063,-0.138l0.066,-0.137l0.07,-0.135l0.072,-0.133l0.075,-0.131l0.079,-0.13l0.081,-0.127l0.084,-0.126l0.086,-0.124l0.09,-0.122l0.093,-0.12l0.095,-0.117l0.098,-0.116l0.101,-0.113l0.103,-0.111l0.106,-0.108l0.109,-0.107l0.111,-0.103l0.114,-0.101l0.116,-0.099l0.119,-0.096l0.122,-0.093l0.124,-0.091l0.126,-0.088l0.128,-0.084l0.131,-0.082l0.133,-0.079l0.136,-0.076l0.137,-0.072l0.14,-0.07l0.142,-0.066l0.143,-0.062l0.146,-0.06l0.147,-0.056l0.15,-0.052l0.151,-0.049l0.153,-0.045l0.154,-0.041l0.156,-0.038l0.158,-0.034l0.159,-0.03l0.16,-0.026l0.161,-0.022l0.163,-0.019l0.164,-0.014l0.164,-0.01l0.166,-0.006l0.154,-0.002l27.964,0l0.134,0.001Zm-28.073,3.971l-0.081,0.001l-0.067,0.003l-0.066,0.004l-0.065,0.006l-0.064,0.007l-0.063,0.009l-0.062,0.01l-0.061,0.011l-0.06,0.013l-0.06,0.014l-0.058,0.016l-0.058,0.017l-0.056,0.018l-0.056,0.02l-0.055,0.021l-0.055,0.022l-0.053,0.023l-0.053,0.025l-0.052,0.026l-0.051,0.027l-0.051,0.028l-0.05,0.03l-0.049,0.03l-0.048,0.032l-0.048,0.033l-0.046,0.034l-0.046,0.036l-0.046,0.036l-0.044,0.038l-0.044,0.039l-0.043,0.04l-0.042,0.041l-0.041,0.042l-0.04,0.043l-0.039,0.044l-0.039,0.046l-0.037,0.046l-0.037,0.047l-0.035,0.049l-0.035,0.049l-0.034,0.05l-0.032,0.051l-0.031,0.052l-0.031,0.053l-0.029,0.054l-0.028,0.055l-0.027,0.055l-0.026,0.056l-0.024,0.057l-0.024,0.058l-0.022,0.059l-0.021,0.059l-0.019,0.06l-0.019,0.06l-0.017,0.062l-0.015,0.062l-0.015,0.062l-0.013,0.063l-0.011,0.064l-0.011,0.064l-0.008,0.065l-0.008,0.065l-0.006,0.066l-0.003,0.055l-0.263,7.867l0.001,0.048l0.002,0.068l0.005,0.067l0.005,0.068l0.008,0.066l0.009,0.066l0.01,0.066l0.012,0.065l0.014,0.065l0.015,0.064l0.017,0.063l0.018,0.063l0.019,0.062l0.021,0.062l0.023,0.06l0.023,0.061l0.026,0.059l0.026,0.059l0.028,0.058l0.029,0.057l0.03,0.057l0.032,0.055l0.033,0.055l0.034,0.054l0.035,0.053l0.037,0.052l0.037,0.051l0.039,0.05l0.04,0.049l0.041,0.048l0.042,0.047l0.043,0.045l0.044,0.045l0.044,0.043l0.046,0.043l0.047,0.041l0.047,0.039l0.048,0.039l0.049,0.037l0.05,0.036l0.05,0.035l0.052,0.033l0.051,0.032l0.053,0.031l0.053,0.029l0.054,0.028l0.055,0.026l0.055,0.025l0.056,0.024l0.056,0.022l0.057,0.021l0.057,0.02l0.058,0.018l0.059,0.016l0.059,0.015l0.06,0.014l0.06,0.012l0.067,0.011l0.025,0.004l0.031,0.004l0.031,0.004l0.031,0.004l0.032,0.003l0.031,0.003l0.032,0.002l0.032,0.002l0.032,0.001l0.032,0.001l0.033,0.001l0.039,0l36.928,0l0.069,0l0.058,-0.002l0.057,-0.003l0.056,-0.004l0.056,-0.005l0.054,-0.006l0.053,-0.007l0.053,-0.008l0.052,-0.009l0.051,-0.01l0.05,-0.011l0.05,-0.012l0.049,-0.013l0.048,-0.014l0.047,-0.014l0.047,-0.015l0.047,-0.017l0.045,-0.017l0.046,-0.018l0.044,-0.019l0.044,-0.019l0.044,-0.02l0.043,-0.022l0.042,-0.022l0.043,-0.023l0.041,-0.023l0.041,-0.025l0.041,-0.025l0.04,-0.026l0.04,-0.027l0.039,-0.028l0.038,-0.029l0.039,-0.029l0.038,-0.03l0.037,-0.031l0.037,-0.032l0.036,-0.033l0.036,-0.033l0.036,-0.034l0.034,-0.035l0.035,-0.035l0.033,-0.037l0.034,-0.037l0.032,-0.037l0.033,-0.039l0.031,-0.039l0.031,-0.04l0.03,-0.04l0.03,-0.042l0.029,-0.041l0.029,-0.043l0.027,-0.043l0.027,-0.043l0.027,-0.045l0.025,-0.044l0.025,-0.045l0.025,-0.046l0.023,-0.047l0.023,-0.046l0.022,-0.047l0.022,-0.048l0.02,-0.048l0.02,-0.048l0.019,-0.049l0.018,-0.049l0.017,-0.049l0.016,-0.05l0.016,-0.05l0.015,-0.05l0.014,-0.05l0.013,-0.051l0.012,-0.051l0.011,-0.051l0.011,-0.051l0.01,-0.051l0.008,-0.051l0.008,-0.051l0.007,-0.051l0.006,-0.051l0.005,-0.051l0.005,-0.051l0.003,-0.052l0.003,-0.05l0.001,-0.051l0.001,-0.051l0,-0.051l-0.001,-0.05l-0.002,-0.05l-0.003,-0.05l-0.004,-0.05l-0.004,-0.05l-0.006,-0.049l-0.006,-0.049l-0.007,-0.049l-0.008,-0.048l-0.009,-0.048l-0.01,-0.048l-0.011,-0.048l-0.011,-0.047l-0.013,-0.047l-0.013,-0.047l-0.014,-0.046l-0.015,-0.046l-0.016,-0.045l-0.017,-0.045l-0.017,-0.045l-0.019,-0.045l-0.019,-0.044l-0.021,-0.044l-0.021,-0.043l-0.022,-0.043l-0.023,-0.043l-0.024,-0.043l-0.025,-0.042l-0.026,-0.042l-0.027,-0.041l-0.028,-0.041l-0.029,-0.041l-0.03,-0.041l-0.031,-0.041l-0.032,-0.039l-0.034,-0.04l-0.035,-0.04l-0.035,-0.039l-0.037,-0.039l-0.039,-0.039l-0.039,-0.038l-0.024,-0.022l-8.954,-7.638l-0.041,-0.033l-0.042,-0.032l-0.043,-0.032l-0.044,-0.032l-0.045,-0.03l-0.046,-0.03l-0.048,-0.029l-0.048,-0.029l-0.049,-0.027l-0.05,-0.027l-0.051,-0.025l-0.051,-0.025l-0.052,-0.023l-0.053,-0.023l-0.053,-0.021l-0.053,-0.021l-0.054,-0.019l-0.055,-0.018l-0.054,-0.017l-0.055,-0.015l-0.055,-0.015l-0.055,-0.013l-0.055,-0.012l-0.056,-0.01l-0.055,-0.01l-0.055,-0.008l-0.054,-0.007l-0.055,-0.005l-0.054,-0.005l-0.054,-0.003l-0.053,-0.002l-0.065,-0.001l-27.916,0Z" style="fill:#275623;"/><path d="M206.692,233.414l51.775,0c1.059,0 1.986,0.662 2.383,1.589l28.999,65.943c0.795,1.722 -0.529,3.708 -2.383,3.708l-257.551,0l30.721,-69.651c0.397,-0.927 1.324,-1.589 2.384,-1.589l51.377,0" style="fill:none;stroke:#275623;stroke-width:3.97px;"/><path d="M102.745,123.508c-3.841,-0.795 -7.416,-3.84 -9.005,-8.21c-2.251,-6.223 0.397,-12.977 5.827,-14.831c1.324,-0.529 2.78,-0.662 4.104,-0.529" style="fill:none;stroke:#275623;stroke-width:3.97px;"/><path d="M218.344,123.508c3.84,-0.795 7.416,-3.84 9.005,-8.21c2.251,-6.223 -0.398,-12.977 -5.827,-14.831c-1.324,-0.529 -2.516,-0.397 -3.972,-0.132" style="fill:none;stroke:#275623;stroke-width:3.97px;"/><path d="M155.314,125.494l-0.927,3.311" style="fill:none;stroke:#275623;stroke-width:3.97px;"/><path d="M164.98,125.494l0.927,3.311" style="fill:none;stroke:#275623;stroke-width:3.97px;"/><path d="M121.018,100.203c1.457,-3.311 5.297,-5.694 9.799,-5.694c4.237,0 7.945,2.118 9.534,5.296" style="fill:none;stroke:#275623;stroke-width:3.97px;"/><circle cx="135.054" cy="100.732" r="3.31" style="fill:#275623;"/><path d="M179.281,100.203c1.457,-3.311 5.297,-5.694 9.799,-5.694c4.238,0 7.945,2.118 9.534,5.296" style="fill:none;stroke:#275623;stroke-width:3.97px;"/><circle cx="193.318" cy="100.732" r="3.31" style="fill:#275623;"/><path d="M153.195,150.521c2.251,-0.53 4.767,-0.927 7.416,-0.927c2.118,0 4.105,0.265 5.958,0.662" style="fill:none;stroke:#275623;stroke-width:3.97px;"/><path d="M66.065,279.098c0,7.68 0,15.492 0,23.173c0,2.516 3.973,2.516 3.973,0c0,-7.681 0,-15.493 0,-23.173c0,-2.516 -3.973,-2.516 -3.973,0Z" style="fill:#275623;fill-rule:nonzero;"/><path d="M250.124,279.098c0,7.68 0,15.492 0,23.173c0,2.516 3.973,2.516 3.973,0c0,-7.681 0,-15.493 0,-23.173c0,-2.516 -3.973,-2.516 -3.973,0Z" style="fill:#275623;fill-rule:nonzero;"/><path d="M153.063,241.756l0,62.236" style="fill:none;stroke:#275623;stroke-width:3.97px;"/><path d="M167.629,241.756l0,62.236" style="fill:none;stroke:#275623;stroke-width:3.97px;"/><path d="M69.376,128.672l22.51,-33.236c4.767,-7.283 8.21,-15.361 9.667,-23.968" style="fill:none;stroke:#275623;stroke-width:3.97px;"/><path d="M69.376,128.672c3.442,9.931 17.214,17.347 33.633,17.347c0.53,0 1.192,0 1.722,0" style="fill:none;stroke:#275623;stroke-width:3.97px;"/><path d="M251.051,128.672l-22.511,-33.236c-4.767,-7.283 -8.607,-15.89 -10.063,-24.497" style="fill:none;stroke:#275623;stroke-width:3.97px;"/><path d="M217.417,146.151c16.42,0 30.192,-7.415 33.634,-17.346" style="fill:none;stroke:#275623;stroke-width:3.97px;"/><path d="M143.397,79.943c0,3.84 -4.37,6.886 -9.667,6.886" style="fill:none;stroke:#275623;stroke-width:3.97px;"/><path d="M176.103,79.943c0,3.84 4.37,6.886 9.667,6.886" style="fill:none;stroke:#275623;stroke-width:3.97px;"/></g></g></svg>