<?xml version="1.0" encoding="UTF-8" standalone="no"?><!DOCTYPE svg PUBLIC "-//W3C//DTD SVG 1.1//EN" "http://www.w3.org/Graphics/SVG/1.1/DTD/svg11.dtd"><svg width="100%" height="100%" viewBox="0 0 183 270" version="1.1" xmlns="http://www.w3.org/2000/svg" xmlns:xlink="http://www.w3.org/1999/xlink" xml:space="preserve" style="fill-rule:evenodd;clip-rule:evenodd;"><g id="轉外框.-淑芬.-d"><path id="Rectangle.-Copy" d="M182,7c0,-3.311 -2.689,-6 -6,-6l-169,0c-3.311,0 -6,2.689 -6,6l0,256c0,3.311 2.689,6 6,6l169,0c3.311,0 6,-2.689 6,-6l0,-256Z" style="fill:none;stroke:#4d4d4d;stroke-width:2px;"/><path id="Line.-Copy" d="M1.697,227.667l178.812,0" style="fill:none;stroke:#4d4d4d;stroke-width:2px;stroke-linecap:square;"/><path id="結餘" d="M24.62,251.218c-0.198,1.512 -0.486,3.168 -0.918,4.32c0.288,0.072 0.756,0.252 0.99,0.342c0.36,-1.116 0.72,-2.898 0.936,-4.482l-1.008,-0.18Zm1.998,0.126c0.216,1.296 0.432,2.97 0.486,4.086l0.972,-0.198c-0.072,-1.116 -0.288,-2.772 -0.522,-4.068l-0.936,0.18Zm1.818,-0.342c0.414,1.116 0.846,2.592 1.026,3.546l0.9,-0.324c-0.18,-0.936 -0.63,-2.358 -1.062,-3.474l-0.864,0.252Zm-0.072,-4.23c0.216,0.54 0.432,1.17 0.63,1.764l-3.222,0.432c1.476,-1.638 2.934,-3.726 4.14,-5.814l-1.026,-0.612c-0.414,0.792 -0.882,1.602 -1.35,2.358l-2.124,0.18c1.062,-1.368 2.124,-3.15 2.97,-4.896l-1.116,-0.468c-0.774,1.962 -2.106,4.05 -2.502,4.59c-0.396,0.522 -0.72,0.918 -1.008,0.99c0.126,0.306 0.288,0.846 0.36,1.098c0.252,-0.126 0.666,-0.216 2.718,-0.468c-0.702,1.044 -1.35,1.854 -1.656,2.178c-0.522,0.648 -0.954,1.098 -1.314,1.17c0.144,0.324 0.306,0.882 0.378,1.116c0.324,-0.18 0.882,-0.306 5.022,-0.918c0.108,0.414 0.198,0.774 0.252,1.08l0.972,-0.324c-0.18,-0.954 -0.702,-2.502 -1.206,-3.708l-0.918,0.252Zm9.486,3.672l-5.274,0l0,3.852l5.274,0l0,-3.852Zm-6.408,5.706l0,-6.804l7.56,0l0,6.732l-1.152,0l0,-0.684l-5.274,0l0,0.756l-1.134,0Zm8.586,-12.834l0,-1.116l-4.266,0l0,-2.448l-1.206,0l0,2.448l-3.996,0l0,1.116l3.996,0l0,2.97l-3.456,0l0,1.116l8.424,0l0,-1.116l-3.762,0l0,-2.97l4.266,0Zm13.374,-3.654l0.954,0.396c-0.126,0.234 -0.288,0.468 -0.432,0.702c1.278,1.512 2.808,2.538 4.446,3.402c-0.288,0.252 -0.594,0.612 -0.756,0.972c-1.566,-0.954 -3.006,-2.052 -4.284,-3.564c-1.152,1.404 -2.682,2.628 -4.23,3.438c-0.162,-0.27 -0.468,-0.63 -0.702,-0.846c1.98,-0.954 3.96,-2.664 5.004,-4.5Zm-4.77,2.718l-0.576,0.936c-0.576,-0.504 -1.638,-1.278 -2.556,-1.872c-0.918,1.224 -2.088,2.358 -3.258,3.168c-0.09,-0.234 -0.396,-0.828 -0.576,-1.08c1.44,-0.918 2.916,-2.358 3.744,-3.888l1.026,0.36c-0.108,0.198 -0.234,0.396 -0.378,0.612c0.936,0.558 1.998,1.278 2.574,1.764Zm-4.554,1.62l0,-0.882l3.042,0l0,0.882l-3.042,0Zm2.772,2.124l-2.862,0l0,1.512l2.862,0l0,-1.512Zm-2.862,4.086l2.862,0l0,-1.656l-2.862,0l0,1.656Zm1.836,1.692l0.9,-0.378c0.684,1.152 1.53,2.718 1.908,3.6l-0.954,0.486c-0.162,-0.414 -0.396,-0.936 -0.684,-1.494c-3.636,1.53 -4.14,1.764 -4.446,2.034c-0.072,-0.306 -0.252,-0.828 -0.432,-1.08c0.306,-0.108 0.756,-0.342 0.756,-0.99l0,-8.892l5.04,0l0,5.958l-3.924,0l0,3.15l2.592,-0.99c-0.252,-0.504 -0.504,-0.972 -0.756,-1.404Zm4.5,-1.53l1.008,0.306c-0.594,1.386 -1.404,2.988 -2.106,4.05c-0.18,-0.162 -0.63,-0.45 -0.882,-0.594c0.72,-1.008 1.476,-2.484 1.98,-3.762Zm7.74,-0.99l-4.104,0l0,5.454c0,0.666 -0.144,0.954 -0.558,1.116c-0.45,0.198 -1.116,0.198 -2.232,0.198c-0.054,-0.288 -0.234,-0.738 -0.378,-1.026c0.792,0.036 1.548,0.018 1.746,0.018c0.234,-0.018 0.306,-0.09 0.306,-0.306l0,-5.454l-3.96,0l0,-1.08l3.96,0l0,-2.25l-2.826,0l0,-1.08l6.804,0l0,1.08l-2.862,0l0,2.25l4.104,0l0,1.08Zm-2.844,1.296l0.918,-0.378c0.72,1.26 1.638,2.952 2.07,3.942l-0.954,0.468c-0.414,-1.008 -1.296,-2.736 -2.034,-4.032Z" style="fill:#303030;"/><g id="Group.-2"><path id="房貸.-15.2c.000.-油錢.-水電.-500" d="M37.526,52.236l-10.566,0l0,1.908l10.566,0l0,-1.908Zm2.502,5.688l-7.992,0c-0.072,0.522 -0.162,1.026 -0.288,1.476l6.408,0c0,0 -0.018,0.342 -0.054,0.486c-0.252,2.592 -0.54,3.654 -0.99,4.086c-0.306,0.288 -0.648,0.378 -1.152,0.396c-0.432,0.036 -1.314,0.036 -2.25,-0.036c-0.018,-0.306 -0.144,-0.738 -0.324,-1.026c0.918,0.09 1.8,0.108 2.124,0.108c0.324,0 0.486,-0.018 0.648,-0.162c0.306,-0.27 0.504,-1.044 0.72,-2.88l-5.418,0c-0.702,1.854 -2.07,3.204 -4.806,4.032c-0.126,-0.288 -0.414,-0.702 -0.666,-0.918c3.546,-0.972 4.518,-2.898 4.878,-5.562l-4.05,0c-0.252,2.25 -0.828,4.716 -2.178,6.516c-0.18,-0.234 -0.648,-0.666 -0.882,-0.81c1.836,-2.538 2.016,-6.084 2.016,-8.748l0,-5.58c4.05,-0.252 8.856,-0.702 11.466,-1.314l0.954,0.9c-2.898,0.63 -7.308,1.08 -11.232,1.314l0,1.062l11.736,0l0,3.87l-11.736,0c0,0.558 -0.018,1.17 -0.072,1.8l5.922,0c-0.234,-0.468 -0.558,-0.99 -0.864,-1.404l1.098,-0.324c0.432,0.522 0.846,1.188 1.098,1.728l5.886,0l0,0.99Zm16.29,-8.892l-0.612,0.72c-0.702,-0.396 -2.052,-0.882 -3.132,-1.152l0.576,-0.63c1.062,0.216 2.43,0.666 3.168,1.062Zm-9.162,1.368l3.258,-0.198c-0.36,-0.684 -0.63,-1.44 -0.738,-2.25l1.116,0c0.126,0.81 0.432,1.548 0.846,2.178l6.012,-0.342l0.108,0.936l-5.382,0.324c1.152,1.224 2.718,1.944 3.942,1.926c0.486,-0.018 0.63,-0.324 0.702,-1.368c0.252,0.198 0.63,0.36 0.936,0.45c-0.18,1.566 -0.612,1.98 -1.674,1.98c-1.782,0 -3.906,-1.098 -5.274,-2.898l-3.762,0.234l-0.09,-0.972Zm-1.656,8.946l0,1.332l9.252,0l0,-1.332l-9.252,0Zm0,-2.124l0,1.314l9.252,0l0,-1.314l-9.252,0Zm0,-2.088l0,1.278l9.252,0l0,-1.278l-9.252,0Zm-1.152,6.39l0,-7.236l11.592,0l0,7.236l-11.592,0Zm0.828,-7.758l0,-2.88c-0.864,0.612 -1.746,1.134 -2.592,1.548c-0.162,-0.216 -0.612,-0.63 -0.882,-0.828c1.98,-0.882 4.068,-2.25 5.31,-3.708l1.08,0.414c-0.504,0.594 -1.098,1.17 -1.764,1.71l0,3.744l-1.152,0Zm2.16,7.992c-1.314,0.702 -3.456,1.35 -5.292,1.746c0.27,0.216 0.684,0.666 0.882,0.9c1.782,-0.486 4.032,-1.296 5.49,-2.142l-1.08,-0.504Zm4.248,0.666c1.998,0.648 3.942,1.386 5.076,1.962l1.314,-0.63c-1.314,-0.576 -3.456,-1.332 -5.418,-1.944l-0.972,0.612Zm55.116,0.576l7.092,0l0,-1.224l-2.682,0l0,-11.952l-1.116,0c-0.684,0.414 -1.53,0.702 -2.664,0.9l0,0.954l2.322,0l0,10.098l-2.952,0l0,1.224Zm12.942,0.234c2.178,0 4.248,-1.638 4.248,-4.5c0,-2.916 -1.764,-4.212 -3.942,-4.212c-0.828,0 -1.44,0.216 -2.052,0.558l0.36,-3.996l5.004,0l0,-1.26l-6.3,0l-0.414,6.12l0.81,0.504c0.756,-0.504 1.332,-0.792 2.232,-0.792c1.71,0 2.826,1.17 2.826,3.114c0,1.98 -1.314,3.24 -2.898,3.24c-1.566,0 -2.538,-0.72 -3.294,-1.494l-0.738,0.972c0.882,0.882 2.106,1.746 4.158,1.746Zm6.552,3.096c1.494,-0.666 2.484,-1.962 2.484,-3.618c0,-1.134 -0.504,-1.818 -1.314,-1.818c-0.594,0 -1.134,0.396 -1.134,1.062c0,0.702 0.522,1.08 1.116,1.08c0.072,0 0.144,0 0.216,-0.018c-0.018,1.098 -0.684,1.944 -1.746,2.448l0.378,0.864Zm8.478,-3.096c-2.484,0 -4.05,-2.268 -4.05,-6.876c0,-4.572 1.566,-6.768 4.05,-6.768c2.466,0 4.014,2.214 4.014,6.768c0,4.608 -1.548,6.876 -4.014,6.876Zm0,-1.188c1.548,0 2.592,-1.764 2.592,-5.688c0,-3.852 -1.044,-5.58 -2.592,-5.58c-1.566,0 -2.628,1.728 -2.628,5.58c0,3.924 1.062,5.688 2.628,5.688Zm9.882,1.188c-2.484,0 -4.05,-2.268 -4.05,-6.876c0,-4.572 1.566,-6.768 4.05,-6.768c2.466,0 4.014,2.214 4.014,6.768c0,4.608 -1.548,6.876 -4.014,6.876Zm0,-1.188c1.548,0 2.592,-1.764 2.592,-5.688c0,-3.852 -1.044,-5.58 -2.592,-5.58c-1.566,0 -2.628,1.728 -2.628,5.58c0,3.924 1.062,5.688 2.628,5.688Zm9.882,1.188c-2.484,0 -4.05,-2.268 -4.05,-6.876c0,-4.572 1.566,-6.768 4.05,-6.768c2.466,0 4.014,2.214 4.014,6.768c0,4.608 -1.548,6.876 -4.014,6.876Zm0,-1.188c1.548,0 2.592,-1.764 2.592,-5.688c0,-3.852 -1.044,-5.58 -2.592,-5.58c-1.566,0 -2.628,1.728 -2.628,5.58c0,3.924 1.062,5.688 2.628,5.688Zm-126.594,22.872c-0.738,-0.558 -2.214,-1.35 -3.348,-1.836l-0.648,0.882c1.134,0.522 2.61,1.368 3.348,1.962l0.648,-1.008Zm-2.376,9.162c0.918,-1.458 1.998,-3.438 2.826,-5.094l-0.9,-0.756c-0.9,1.8 -2.124,3.852 -2.952,5.076l1.026,0.774Zm-0.72,-15.03c1.17,0.558 2.7,1.422 3.438,2.052l0.702,-0.99c-0.774,-0.594 -2.304,-1.44 -3.474,-1.926l-0.666,0.864Zm10.332,13.068l3.24,0l0,-4.122l-3.24,0l0,4.122Zm-4.284,-4.122l0,4.122l3.114,0l0,-4.122l-3.114,0Zm3.114,-5.112l-3.114,0l0,3.96l3.114,0l0,-3.96Zm4.41,0l-3.24,0l0,3.96l3.24,0l0,-3.96Zm-3.24,-1.152l4.41,0l0,12.474l-1.17,0l0,-0.936l-7.524,0l0,1.062l-1.134,0l0,-12.6l4.248,0l0,-3.744l1.17,0l0,3.744Zm21.708,-2.52l-0.612,0.756c-0.522,-0.396 -1.566,-0.918 -2.394,-1.26l0.576,-0.684c0.81,0.324 1.872,0.81 2.43,1.188Zm-0.882,2.304l1.008,0.324c-0.594,0.774 -1.404,1.404 -2.322,1.962c0.648,0.72 1.368,1.116 2.07,1.098c0.45,0 0.594,-0.45 0.666,-1.692c0.234,0.216 0.576,0.378 0.846,0.45c-0.18,1.746 -0.558,2.268 -1.548,2.268c-1.08,0 -2.106,-0.576 -2.97,-1.584c-1.296,0.648 -2.736,1.17 -4.122,1.566c-0.126,-0.216 -0.486,-0.648 -0.72,-0.864c1.458,-0.36 2.988,-0.828 4.266,-1.458c-0.378,-0.594 -0.702,-1.296 -0.972,-2.052l-2.736,0.234l-0.09,-0.99l2.538,-0.216c-0.216,-0.792 -0.36,-1.656 -0.414,-2.574l1.08,0c0.054,0.9 0.18,1.728 0.396,2.484l5.058,-0.396l0.108,0.99l-4.86,0.378c0.234,0.63 0.522,1.17 0.81,1.62c0.774,-0.45 1.422,-0.972 1.908,-1.548Zm-2.322,5.094l0.558,-0.702c0.918,0.288 2.142,0.72 2.754,1.08l-0.54,0.774c-0.63,-0.36 -1.818,-0.864 -2.772,-1.152Zm-7.758,5.202l2.466,-0.522l0.072,0.972c-2.178,0.522 -4.518,1.062 -6.192,1.458l-0.27,-1.08c0.792,-0.162 1.818,-0.36 2.952,-0.612l0,-5.328l-2.754,0l0,-1.062l2.754,0l0,-2.07l-1.8,0l0,-0.792c-0.306,0.288 -0.576,0.558 -0.882,0.81c-0.072,-0.27 -0.36,-0.918 -0.522,-1.188c1.386,-1.08 2.808,-2.754 3.672,-4.536l0.918,0.414c-0.126,0.27 -0.252,0.504 -0.396,0.774c1.116,0.756 2.214,1.692 2.934,2.412l-0.558,0.972c-0.702,-0.756 -1.818,-1.71 -2.898,-2.502c-0.612,0.936 -1.296,1.836 -2.016,2.592l4.464,0l0,1.044l-1.944,0l0,2.07l2.484,0l0,1.062l-2.484,0l0,5.112Zm-3.348,-3.888l0.774,-0.216c0.324,1.062 0.63,2.448 0.72,3.348l-0.828,0.234c-0.072,-0.918 -0.36,-2.286 -0.666,-3.366Zm4.608,3.168l-0.738,-0.252c0.324,-0.9 0.684,-2.376 0.846,-3.348l0.9,0.306c-0.306,1.098 -0.684,2.448 -1.008,3.294Zm8.82,-1.764l1.026,0.36c-0.648,0.9 -1.512,1.674 -2.502,2.34c0.756,0.846 1.566,1.332 2.34,1.314c0.468,0 0.63,-0.522 0.702,-1.98c0.252,0.234 0.576,0.378 0.882,0.486c-0.18,1.962 -0.594,2.52 -1.638,2.52c-1.134,0 -2.25,-0.648 -3.186,-1.764c-1.296,0.738 -2.772,1.314 -4.194,1.782c-0.126,-0.234 -0.486,-0.684 -0.702,-0.9c1.512,-0.396 3.006,-0.954 4.32,-1.674c-0.432,-0.702 -0.828,-1.512 -1.152,-2.394l-2.61,0.234l-0.072,-0.99l2.412,-0.216c-0.234,-0.846 -0.378,-1.746 -0.45,-2.7l1.08,0c0.054,0.936 0.198,1.8 0.432,2.61l5.526,-0.468l0.09,0.972l-5.328,0.468c0.27,0.72 0.612,1.386 0.972,1.926c0.828,-0.558 1.53,-1.206 2.052,-1.926Zm-26.37,23.214l0.774,0.306c-0.882,4.662 -3.006,7.956 -5.544,9.72c-0.198,-0.288 -0.684,-0.738 -0.954,-0.918c2.304,-1.494 4.194,-4.212 5.058,-7.866l-4.5,0l0,-1.188l4.932,0l0.234,-0.054Zm8.172,-1.17l1.08,0.774c-1.188,1.368 -2.754,3.024 -3.996,4.104c1.548,2.232 3.546,4.122 5.688,5.13c-0.306,0.252 -0.684,0.738 -0.9,1.08c-2.826,-1.494 -5.274,-4.446 -6.93,-7.794l0,8.028c0,0.846 -0.216,1.206 -0.702,1.44c-0.522,0.216 -1.386,0.252 -2.736,0.252c-0.054,-0.36 -0.27,-0.936 -0.468,-1.296c1.044,0.018 1.98,0.018 2.232,0.018c0.306,-0.018 0.414,-0.108 0.414,-0.414l0,-14.688l1.26,0l0,4.302c0.432,1.044 0.954,2.07 1.548,3.06c1.206,-1.134 2.646,-2.754 3.51,-3.996Zm11.646,4.446l0,-4.158l-5.742,0l0,2.952l-1.152,0l0,-3.834l6.894,0l0,-1.206l-6.102,0l0,-0.882l13.482,0l0,0.882l-6.21,0l0,1.206l7.038,0l0,3.834l-1.188,0l0,-2.952l-5.85,0l0,4.158l-1.17,0Zm6.516,-0.738l-0.288,0.828c-0.99,-0.342 -2.808,-0.774 -4.212,-0.972l0.306,-0.738c1.368,0.162 3.204,0.54 4.194,0.882Zm-0.81,-3.06l0.54,0.702c-1.044,0.432 -2.52,0.81 -3.582,1.044l-0.432,-0.648c1.026,-0.216 2.592,-0.774 3.474,-1.098Zm-10.602,0.738l0.36,-0.666c1.17,0.198 2.718,0.612 3.528,0.972l-0.36,0.756c-0.81,-0.378 -2.322,-0.846 -3.528,-1.062Zm-0.072,3.078l-0.36,-0.954c1.116,-0.144 2.646,-0.36 4.266,-0.594l0.036,0.774c-1.404,0.288 -2.754,0.558 -3.942,0.774Zm0.774,5.04l4.176,0l0,-1.332l-4.176,0l0,1.332Zm4.176,-3.456l-4.176,0l0,1.296l4.176,0l0,-1.296Zm5.58,1.296l0,-1.296l-4.446,0l0,1.296l4.446,0Zm-4.446,2.16l4.446,0l0,-1.332l-4.446,0l0,1.332Zm1.368,2.268l4.104,0c0.972,0 1.134,-0.324 1.242,-2.16c0.27,0.18 0.702,0.342 1.044,0.396c-0.18,2.178 -0.558,2.736 -2.214,2.736l-4.23,0c-1.89,0 -2.448,-0.324 -2.448,-1.71l0,-0.63l-4.176,0l0,0.954l-1.152,0l0,-6.21l12.096,0l0,5.256l-5.634,0l0,0.648c0,0.594 0.234,0.72 1.368,0.72Zm82.008,0.09c2.178,0 4.248,-1.638 4.248,-4.5c0,-2.916 -1.764,-4.212 -3.942,-4.212c-0.828,0 -1.44,0.216 -2.052,0.558l0.36,-3.996l5.004,0l0,-1.26l-6.3,0l-0.414,6.12l0.81,0.504c0.756,-0.504 1.332,-0.792 2.232,-0.792c1.71,0 2.826,1.17 2.826,3.114c0,1.98 -1.314,3.24 -2.898,3.24c-1.566,0 -2.538,-0.72 -3.294,-1.494l-0.738,0.972c0.882,0.882 2.106,1.746 4.158,1.746Zm10.17,0c-2.484,0 -4.05,-2.268 -4.05,-6.876c0,-4.572 1.566,-6.768 4.05,-6.768c2.466,0 4.014,2.214 4.014,6.768c0,4.608 -1.548,6.876 -4.014,6.876Zm0,-1.188c1.548,0 2.592,-1.764 2.592,-5.688c0,-3.852 -1.044,-5.58 -2.592,-5.58c-1.566,0 -2.628,1.728 -2.628,5.58c0,3.924 1.062,5.688 2.628,5.688Zm9.882,1.188c-2.484,0 -4.05,-2.268 -4.05,-6.876c0,-4.572 1.566,-6.768 4.05,-6.768c2.466,0 4.014,2.214 4.014,6.768c0,4.608 -1.548,6.876 -4.014,6.876Zm0,-1.188c1.548,0 2.592,-1.764 2.592,-5.688c0,-3.852 -1.044,-5.58 -2.592,-5.58c-1.566,0 -2.628,1.728 -2.628,5.58c0,3.924 1.062,5.688 2.628,5.688Zm-115.56,19.254l1.26,0.396c-0.486,1.674 -1.134,3.708 -1.674,5.022l-1.026,-0.378c0.504,-1.314 1.152,-3.492 1.44,-5.04Zm-6.75,5.346l-1.152,0.396c-0.234,-1.35 -0.756,-3.672 -1.242,-5.436l1.098,-0.288c0.522,1.764 1.098,4.032 1.296,5.328Zm-3.564,-8.658l1.134,0.36c-0.486,1.296 -1.098,2.61 -1.782,3.816l0,12.168l-1.224,0l0,-10.188c-0.558,0.81 -1.152,1.548 -1.746,2.178c-0.108,-0.27 -0.468,-0.9 -0.702,-1.17c1.728,-1.728 3.33,-4.428 4.32,-7.164Zm5.706,-0.036l1.26,0c0,2.646 0,4.968 -0.18,7.038c0.594,4.212 2.016,7.164 5.454,8.298c-0.27,0.234 -0.612,0.702 -0.792,1.062c-2.808,-1.08 -4.302,-3.186 -5.13,-6.264c-0.738,2.88 -2.214,4.968 -5.328,6.318c-0.162,-0.288 -0.54,-0.72 -0.828,-0.936c5.76,-2.412 5.544,-7.362 5.544,-15.516Zm20.106,6.192l-7.722,0l0,1.386l7.722,0l0,-1.386Zm-7.722,3.654l7.722,0l0,-1.386l-7.722,0l0,1.386Zm0,0.936l0,3.96l4.446,-0.81c-0.018,0.324 -0.018,0.81 -0.018,1.026c-4.698,0.936 -5.31,1.098 -5.706,1.314c-0.09,-0.27 -0.36,-0.72 -0.558,-0.936c0.252,-0.162 0.666,-0.54 0.666,-1.26l0,-8.802l10.08,0l0,5.508l-8.91,0Zm9.864,-0.234l0.918,0.684c-1.044,0.81 -2.358,1.62 -3.492,2.268c1.242,0.72 2.412,1.44 3.204,2.034l-0.846,0.81c-1.476,-1.116 -4.464,-2.934 -6.768,-4.158l0.792,-0.684c0.81,0.432 1.728,0.918 2.628,1.44c1.224,-0.702 2.682,-1.656 3.564,-2.394Zm-8.28,-6.984l4.716,0c-0.9,-0.594 -1.746,-1.278 -2.448,-1.944c-0.666,0.702 -1.422,1.368 -2.268,1.944Zm2.178,-3.654l1.098,0.54c-0.108,0.126 -0.216,0.27 -0.324,0.396c1.782,1.782 4.968,3.474 7.686,4.248c-0.252,0.252 -0.63,0.702 -0.792,1.008c-1.584,-0.522 -3.348,-1.386 -4.932,-2.412l0,0.756l-5.058,0l0,-0.774c-1.476,1.026 -3.186,1.854 -4.914,2.448c-0.18,-0.306 -0.504,-0.738 -0.792,-1.008c3.204,-0.972 6.408,-2.88 8.028,-5.202Zm15.498,13.914l1.08,0.486c-1.476,0.81 -3.744,1.62 -5.526,2.088c-0.198,-0.234 -0.63,-0.684 -0.864,-0.9c1.818,-0.378 3.996,-0.99 5.31,-1.674Zm-1.872,-2.088l0,1.224l9.216,0l0,-1.224l-9.216,0Zm5.958,-6.012l-3.51,0c-0.306,0.468 -0.756,0.918 -1.386,1.314l8.28,0c-0.036,-0.198 -0.108,-0.432 -0.216,-0.594c0.576,0.054 1.098,0.072 1.296,0.072c0.18,0 0.306,-0.018 0.396,-0.108c0.09,-0.09 0.162,-0.306 0.216,-0.684l-3.942,0l0,1.242l-1.134,0l0,-1.242Zm-4.05,-1.962l-2.628,0c-0.054,0.396 -0.126,0.774 -0.18,1.134l2.502,0c0.18,-0.36 0.27,-0.738 0.306,-1.134Zm1.134,-1.89l0,1.08l2.916,0l0,-1.08l-2.916,0Zm7.002,0l-2.952,0l0,1.08l2.952,0l0,-1.08Zm-4.086,3.024l0,-1.134l-2.934,0c-0.036,0.396 -0.09,0.774 -0.198,1.134l3.132,0Zm3.258,4.122l0,-1.188l-9.216,0l0,1.188l9.216,0Zm0,1.944l0,-1.17l-9.216,0l0,1.17l9.216,0Zm1.206,2.808l-3.294,0c1.98,0.54 4.014,1.242 5.292,1.782l-0.918,0.756c-1.224,-0.558 -3.276,-1.296 -5.346,-1.908l0.648,-0.63l-7.974,0l0,-5.76c-0.486,0.126 -1.044,0.27 -1.656,0.396c-0.108,-0.288 -0.36,-0.72 -0.558,-0.936c2.286,-0.45 3.6,-1.044 4.356,-1.746l-3.096,0c0.162,-0.774 0.342,-1.872 0.45,-2.772l3.618,0l0,-1.08l-4.446,0l0,-0.828l4.446,0l0,-1.026l1.098,0l0,1.026l2.916,0l0,-1.026l1.134,0l0,1.026l4.05,0l0,2.718l-4.05,0l0,1.134l5.148,0c0,0 -0.018,0.27 -0.018,0.414c-0.126,0.936 -0.234,1.44 -0.504,1.674c-0.18,0.198 -0.45,0.288 -0.828,0.306l-0.468,0l0,6.48Zm46.53,0.342c1.314,0 2.304,-1.26 2.304,-3.078c0,-1.836 -0.774,-3.042 -2.466,-3.042c-0.846,0 -1.872,0.486 -2.772,1.746c0.18,2.79 1.188,4.374 2.934,4.374Zm3.474,-11.16l-0.828,0.918c-0.54,-0.63 -1.332,-1.008 -2.124,-1.008c-1.854,0 -3.42,1.422 -3.492,5.634c0.828,-0.99 1.98,-1.602 3.042,-1.602c2.232,0 3.636,1.386 3.636,4.14c0,2.52 -1.71,4.248 -3.708,4.248c-2.538,0 -4.356,-2.196 -4.356,-6.498c0,-5.202 2.304,-7.146 4.824,-7.146c1.314,0 2.286,0.558 3.006,1.314Zm2.358,15.426c1.494,-0.666 2.484,-1.962 2.484,-3.618c0,-1.134 -0.504,-1.818 -1.314,-1.818c-0.594,0 -1.134,0.396 -1.134,1.062c0,0.702 0.522,1.08 1.116,1.08c0.072,0 0.144,0 0.216,-0.018c-0.018,1.098 -0.684,1.944 -1.746,2.448l0.378,0.864Zm8.478,-3.096c-2.484,0 -4.05,-2.268 -4.05,-6.876c0,-4.572 1.566,-6.768 4.05,-6.768c2.466,0 4.014,2.214 4.014,6.768c0,4.608 -1.548,6.876 -4.014,6.876Zm0,-1.188c1.548,0 2.592,-1.764 2.592,-5.688c0,-3.852 -1.044,-5.58 -2.592,-5.58c-1.566,0 -2.628,1.728 -2.628,5.58c0,3.924 1.062,5.688 2.628,5.688Zm9.882,1.188c-2.484,0 -4.05,-2.268 -4.05,-6.876c0,-4.572 1.566,-6.768 4.05,-6.768c2.466,0 4.014,2.214 4.014,6.768c0,4.608 -1.548,6.876 -4.014,6.876Zm0,-1.188c1.548,0 2.592,-1.764 2.592,-5.688c0,-3.852 -1.044,-5.58 -2.592,-5.58c-1.566,0 -2.628,1.728 -2.628,5.58c0,3.924 1.062,5.688 2.628,5.688Zm9.882,1.188c-2.484,0 -4.05,-2.268 -4.05,-6.876c0,-4.572 1.566,-6.768 4.05,-6.768c2.466,0 4.014,2.214 4.014,6.768c0,4.608 -1.548,6.876 -4.014,6.876Zm0,-1.188c1.548,0 2.592,-1.764 2.592,-5.688c0,-3.852 -1.044,-5.58 -2.592,-5.58c-1.566,0 -2.628,1.728 -2.628,5.58c0,3.924 1.062,5.688 2.628,5.688Zm-114.444,25.212l-7.452,0l0,-3.06l6.444,0l0,-1.152l-6.444,0l0,-3.006c2.142,-0.27 4.122,-0.63 5.634,-1.08l-0.882,-0.972c-2.682,0.864 -7.974,1.332 -12.222,1.548c0.108,0.27 0.27,0.738 0.306,1.062c1.872,-0.09 3.942,-0.234 5.94,-0.432l0,2.88l-6.264,0l0,1.152l6.264,0l0,3.06l-7.452,0l0,1.17l7.452,0l0,4.176c0,0.378 -0.162,0.504 -0.558,0.522c-0.396,0 -1.8,0.018 -3.348,-0.018c0.198,0.324 0.432,0.828 0.522,1.17c1.908,0.018 3.042,0 3.69,-0.198c0.63,-0.198 0.918,-0.558 0.918,-1.458l0,-4.194l7.452,0l0,-1.17Zm17.856,-1.692l-0.792,0.288c-0.054,-0.216 -0.144,-0.504 -0.252,-0.828c-2.682,0.414 -3.114,0.504 -3.33,0.63c-0.054,-0.216 -0.198,-0.72 -0.324,-0.972c0.27,-0.054 0.558,-0.36 0.9,-0.792c0.198,-0.252 0.63,-0.864 1.116,-1.674c-1.404,0.198 -1.692,0.288 -1.872,0.396c-0.054,-0.216 -0.198,-0.666 -0.324,-0.936c0.234,-0.018 0.414,-0.252 0.63,-0.594c0.216,-0.306 0.936,-1.62 1.35,-2.844l0.9,0.288c-0.45,1.08 -1.026,2.142 -1.584,2.97l1.404,-0.144c0.234,-0.396 0.468,-0.846 0.648,-1.26l0.936,0.342c-0.792,1.494 -1.728,2.952 -2.664,4.068l1.944,-0.252c-0.144,-0.396 -0.306,-0.792 -0.468,-1.152l0.756,-0.216c0.396,0.864 0.846,1.998 1.026,2.682Zm-6.444,0.324l-0.81,0.288c-0.054,-0.216 -0.126,-0.486 -0.216,-0.774c-2.646,0.396 -3.078,0.468 -3.312,0.594c-0.036,-0.18 -0.162,-0.666 -0.27,-0.918c0.252,-0.054 0.558,-0.342 0.918,-0.792c0.198,-0.252 0.702,-0.882 1.206,-1.71c-1.494,0.216 -1.818,0.324 -1.998,0.414c-0.036,-0.198 -0.198,-0.684 -0.288,-0.936c0.216,-0.054 0.432,-0.27 0.666,-0.648c0.252,-0.36 1.116,-1.782 1.584,-3.132l0.9,0.306c-0.522,1.188 -1.188,2.394 -1.836,3.312l1.512,-0.162c0.216,-0.414 0.45,-0.81 0.648,-1.242l0.864,0.36c-0.81,1.458 -1.782,2.898 -2.736,4.014l1.908,-0.252c-0.144,-0.414 -0.306,-0.81 -0.468,-1.188l0.774,-0.216c0.396,0.864 0.792,2.016 0.954,2.682Zm-4.932,0.684l-0.594,0.9c-0.18,-0.504 -0.612,-1.404 -1.008,-2.178l0,9.036l-1.062,0l0,-8.766c-0.468,1.926 -1.098,3.78 -1.746,4.914c-0.126,-0.342 -0.396,-0.882 -0.558,-1.17c0.9,-1.494 1.782,-4.32 2.196,-6.75l-1.836,0l0,-1.134l1.944,0l0,-3.474l1.062,0l0,3.474l1.476,0l0,1.134l-1.476,0l0,1.242c0.414,0.63 1.368,2.322 1.602,2.772Zm9.324,1.89l1.044,0.36c-0.558,1.098 -1.314,2.088 -2.25,2.934c0.558,0.864 1.206,1.35 1.998,1.422c0.378,0.036 0.612,-0.666 0.774,-1.962c0.198,0.216 0.612,0.486 0.81,0.594c-0.324,1.944 -0.846,2.592 -1.548,2.538c-1.206,-0.09 -2.142,-0.756 -2.88,-1.908c-0.954,0.72 -2.016,1.332 -3.204,1.8c-0.162,-0.216 -0.432,-0.558 -0.666,-0.738c1.278,-0.504 2.43,-1.152 3.402,-1.926c-0.45,-0.936 -0.792,-2.088 -1.062,-3.384l-3.042,0l0,0.738c0.864,0.684 1.962,1.62 2.502,2.196l-0.756,0.738c-0.414,-0.486 -1.17,-1.17 -1.89,-1.782c-0.288,1.458 -1.026,3.06 -2.682,4.302c-0.162,-0.216 -0.558,-0.612 -0.792,-0.738c2.124,-1.53 2.574,-3.564 2.574,-5.076l0,-0.378l-1.404,0l0,-0.972l5.292,0c-0.432,-2.556 -0.666,-5.688 -0.774,-9.126l1.044,0c0.09,3.51 0.342,6.642 0.792,9.126l2.754,0c-0.45,-0.396 -1.152,-0.882 -1.728,-1.224l0.612,-0.576c0.666,0.36 1.512,0.918 1.926,1.296l-0.468,0.504l1.494,0l0,0.972l-4.392,0c0.234,1.026 0.504,1.908 0.828,2.646c0.72,-0.72 1.278,-1.512 1.692,-2.376Zm9.486,3.312l1.08,0.486c-1.476,0.81 -3.744,1.62 -5.526,2.088c-0.198,-0.234 -0.63,-0.684 -0.864,-0.9c1.818,-0.378 3.996,-0.99 5.31,-1.674Zm-1.872,-2.088l0,1.224l9.216,0l0,-1.224l-9.216,0Zm5.958,-6.012l-3.51,0c-0.306,0.468 -0.756,0.918 -1.386,1.314l8.28,0c-0.036,-0.198 -0.108,-0.432 -0.216,-0.594c0.576,0.054 1.098,0.072 1.296,0.072c0.18,0 0.306,-0.018 0.396,-0.108c0.09,-0.09 0.162,-0.306 0.216,-0.684l-3.942,0l0,1.242l-1.134,0l0,-1.242Zm-4.05,-1.962l-2.628,0c-0.054,0.396 -0.126,0.774 -0.18,1.134l2.502,0c0.18,-0.36 0.27,-0.738 0.306,-1.134Zm1.134,-1.89l0,1.08l2.916,0l0,-1.08l-2.916,0Zm7.002,0l-2.952,0l0,1.08l2.952,0l0,-1.08Zm-4.086,3.024l0,-1.134l-2.934,0c-0.036,0.396 -0.09,0.774 -0.198,1.134l3.132,0Zm3.258,4.122l0,-1.188l-9.216,0l0,1.188l9.216,0Zm0,1.944l0,-1.17l-9.216,0l0,1.17l9.216,0Zm1.206,2.808l-3.294,0c1.98,0.54 4.014,1.242 5.292,1.782l-0.918,0.756c-1.224,-0.558 -3.276,-1.296 -5.346,-1.908l0.648,-0.63l-7.974,0l0,-5.76c-0.486,0.126 -1.044,0.27 -1.656,0.396c-0.108,-0.288 -0.36,-0.72 -0.558,-0.936c2.286,-0.45 3.6,-1.044 4.356,-1.746l-3.096,0c0.162,-0.774 0.342,-1.872 0.45,-2.772l3.618,0l0,-1.08l-4.446,0l0,-0.828l4.446,0l0,-1.026l1.098,0l0,1.026l2.916,0l0,-1.026l1.134,0l0,1.026l4.05,0l0,2.718l-4.05,0l0,1.134l5.148,0c0,0 -0.018,0.27 -0.018,0.414c-0.126,0.936 -0.234,1.44 -0.504,1.674c-0.18,0.198 -0.45,0.288 -0.828,0.306l-0.468,0l0,6.48Zm42.75,1.278l7.092,0l0,-1.224l-2.682,0l0,-11.952l-1.116,0c-0.684,0.414 -1.53,0.702 -2.664,0.9l0,0.954l2.322,0l0,10.098l-2.952,0l0,1.224Zm9.612,3.33c1.494,-0.666 2.484,-1.962 2.484,-3.618c0,-1.134 -0.504,-1.818 -1.314,-1.818c-0.594,0 -1.134,0.396 -1.134,1.062c0,0.702 0.522,1.08 1.116,1.08c0.072,0 0.144,0 0.216,-0.018c-0.018,1.098 -0.684,1.944 -1.746,2.448l0.378,0.864Zm8.478,-3.096c-2.484,0 -4.05,-2.268 -4.05,-6.876c0,-4.572 1.566,-6.768 4.05,-6.768c2.466,0 4.014,2.214 4.014,6.768c0,4.608 -1.548,6.876 -4.014,6.876Zm0,-1.188c1.548,0 2.592,-1.764 2.592,-5.688c0,-3.852 -1.044,-5.58 -2.592,-5.58c-1.566,0 -2.628,1.728 -2.628,5.58c0,3.924 1.062,5.688 2.628,5.688Zm9.882,1.188c-2.484,0 -4.05,-2.268 -4.05,-6.876c0,-4.572 1.566,-6.768 4.05,-6.768c2.466,0 4.014,2.214 4.014,6.768c0,4.608 -1.548,6.876 -4.014,6.876Zm0,-1.188c1.548,0 2.592,-1.764 2.592,-5.688c0,-3.852 -1.044,-5.58 -2.592,-5.58c-1.566,0 -2.628,1.728 -2.628,5.58c0,3.924 1.062,5.688 2.628,5.688Zm9.882,1.188c-2.484,0 -4.05,-2.268 -4.05,-6.876c0,-4.572 1.566,-6.768 4.05,-6.768c2.466,0 4.014,2.214 4.014,6.768c0,4.608 -1.548,6.876 -4.014,6.876Zm0,-1.188c1.548,0 2.592,-1.764 2.592,-5.688c0,-3.852 -1.044,-5.58 -2.592,-5.58c-1.566,0 -2.628,1.728 -2.628,5.58c0,3.924 1.062,5.688 2.628,5.688Zm-126.306,18.228l-1.656,0c-0.558,0.9 -1.206,1.71 -1.872,2.322c-0.18,-0.18 -0.594,-0.594 -0.846,-0.792c1.134,-0.99 2.16,-2.448 2.772,-3.96l1.08,0.288c-0.162,0.396 -0.342,0.774 -0.54,1.17l4.77,0l0,0.972l-3.528,0c0.558,0.504 1.26,1.206 1.62,1.656l-0.792,0.648c-0.36,-0.468 -1.098,-1.224 -1.692,-1.8l0.684,-0.504Zm8.712,10.656l-8.838,0l0,1.854l8.838,0l0,-1.854Zm-0.918,-4.86l-7.92,0l0,1.638l7.92,0l0,-1.638Zm-7.92,2.574l0,1.332l10.026,0l0,4.338l-1.188,0l0,-0.576l-8.838,0l0,0.612l-1.206,0l0,-9.216l10.296,0l0,3.51l-9.09,0Zm2.898,-6.804l1.08,-0.216c0.288,0.396 0.54,0.954 0.702,1.386l6.606,0l0,2.916l-1.206,0l0,-1.962l-12.06,0l0,1.962l-1.152,0l0,-2.916l6.606,0c-0.144,-0.396 -0.36,-0.81 -0.576,-1.17Zm7.038,0.18l-0.792,0.72c-0.396,-0.504 -1.242,-1.278 -1.908,-1.836l0.774,-0.63c0.684,0.522 1.512,1.26 1.926,1.746Zm-3.492,-2.718l5.598,0l0,0.972l-6.192,0c-0.396,0.576 -0.828,1.098 -1.296,1.494c-0.198,-0.18 -0.63,-0.558 -0.918,-0.72c0.972,-0.774 1.8,-1.962 2.25,-3.186l1.116,0.252c-0.162,0.414 -0.342,0.792 -0.558,1.188Zm12.798,10.17l0.198,1.134c-1.908,0.648 -3.96,1.35 -5.526,1.854l-0.288,-1.206c0.684,-0.18 1.53,-0.45 2.448,-0.756l0,-4.986l-2.088,0l0,-1.116l2.088,0l0,-4.05l-2.25,0l0,-1.134l5.508,0l0,1.134l-2.106,0l0,4.05l1.854,0l0,1.116l-1.854,0l0,4.626c0.648,-0.216 1.35,-0.45 2.016,-0.666Zm2.106,-6.21l0,2.448l2.898,0l0,-2.448l-2.898,0Zm0,-3.402l0,2.394l2.898,0l0,-2.394l-2.898,0Zm6.876,2.394l0,-2.394l-2.934,0l0,2.394l2.934,0Zm0,3.456l0,-2.448l-2.934,0l0,2.448l2.934,0Zm-2.844,6.948l4.86,0l0,1.098l-11.628,0l0,-1.098l5.562,0l0,-2.592l-4.158,0l0,-1.098l4.158,0l0,-2.214l-3.924,0l0,-7.956l9.126,0l0,7.956l-3.996,0l0,2.214l4.266,0l0,1.098l-4.266,0l0,2.592Zm11.898,-0.882l1.08,0.486c-1.476,0.81 -3.744,1.62 -5.526,2.088c-0.198,-0.234 -0.63,-0.684 -0.864,-0.9c1.818,-0.378 3.996,-0.99 5.31,-1.674Zm-1.872,-2.088l0,1.224l9.216,0l0,-1.224l-9.216,0Zm5.958,-6.012l-3.51,0c-0.306,0.468 -0.756,0.918 -1.386,1.314l8.28,0c-0.036,-0.198 -0.108,-0.432 -0.216,-0.594c0.576,0.054 1.098,0.072 1.296,0.072c0.18,0 0.306,-0.018 0.396,-0.108c0.09,-0.09 0.162,-0.306 0.216,-0.684l-3.942,0l0,1.242l-1.134,0l0,-1.242Zm-4.05,-1.962l-2.628,0c-0.054,0.396 -0.126,0.774 -0.18,1.134l2.502,0c0.18,-0.36 0.27,-0.738 0.306,-1.134Zm1.134,-1.89l0,1.08l2.916,0l0,-1.08l-2.916,0Zm7.002,0l-2.952,0l0,1.08l2.952,0l0,-1.08Zm-4.086,3.024l0,-1.134l-2.934,0c-0.036,0.396 -0.09,0.774 -0.198,1.134l3.132,0Zm3.258,4.122l0,-1.188l-9.216,0l0,1.188l9.216,0Zm0,1.944l0,-1.17l-9.216,0l0,1.17l9.216,0Zm1.206,2.808l-3.294,0c1.98,0.54 4.014,1.242 5.292,1.782l-0.918,0.756c-1.224,-0.558 -3.276,-1.296 -5.346,-1.908l0.648,-0.63l-7.974,0l0,-5.76c-0.486,0.126 -1.044,0.27 -1.656,0.396c-0.108,-0.288 -0.36,-0.72 -0.558,-0.936c2.286,-0.45 3.6,-1.044 4.356,-1.746l-3.096,0c0.162,-0.774 0.342,-1.872 0.45,-2.772l3.618,0l0,-1.08l-4.446,0l0,-0.828l4.446,0l0,-1.026l1.098,0l0,1.026l2.916,0l0,-1.026l1.134,0l0,1.026l4.05,0l0,2.718l-4.05,0l0,1.134l5.148,0c0,0 -0.018,0.27 -0.018,0.414c-0.126,0.936 -0.234,1.44 -0.504,1.674c-0.18,0.198 -0.45,0.288 -0.828,0.306l-0.468,0l0,6.48Zm58.734,1.278l1.53,0c0.216,-5.148 0.792,-8.28 3.906,-12.294l0,-0.882l-8.154,0l0,1.26l6.462,0c-2.592,3.6 -3.528,6.84 -3.744,11.916Zm11.232,0.234c-2.484,0 -4.05,-2.268 -4.05,-6.876c0,-4.572 1.566,-6.768 4.05,-6.768c2.466,0 4.014,2.214 4.014,6.768c0,4.608 -1.548,6.876 -4.014,6.876Zm0,-1.188c1.548,0 2.592,-1.764 2.592,-5.688c0,-3.852 -1.044,-5.58 -2.592,-5.58c-1.566,0 -2.628,1.728 -2.628,5.58c0,3.924 1.062,5.688 2.628,5.688Zm9.882,1.188c-2.484,0 -4.05,-2.268 -4.05,-6.876c0,-4.572 1.566,-6.768 4.05,-6.768c2.466,0 4.014,2.214 4.014,6.768c0,4.608 -1.548,6.876 -4.014,6.876Zm0,-1.188c1.548,0 2.592,-1.764 2.592,-5.688c0,-3.852 -1.044,-5.58 -2.592,-5.58c-1.566,0 -2.628,1.728 -2.628,5.58c0,3.924 1.062,5.688 2.628,5.688Z" style="fill:#303030;"/><path id="月薪.-21.2c.509" d="M28.002,26.374l8.586,0l0,-3.186l-8.388,0c0,0.99 -0.054,2.07 -0.198,3.186Zm8.586,-7.47l-8.388,0l0,3.15l8.388,0l0,-3.15Zm1.242,-1.17l0,13.59c0,0.918 -0.252,1.314 -0.9,1.53c-0.666,0.216 -1.836,0.234 -3.762,0.234c-0.09,-0.36 -0.324,-0.918 -0.504,-1.26c1.512,0.054 2.952,0.036 3.384,0.018c0.396,0 0.54,-0.144 0.54,-0.522l0,-3.78l-8.802,0c-0.45,2.052 -1.35,4.086 -3.114,5.652c-0.18,-0.252 -0.648,-0.702 -0.9,-0.864c2.916,-2.592 3.222,-6.246 3.222,-9.162l0,-5.436l10.836,0Zm15.12,2.646l1.17,0l0,-1.188l4.014,0l0,-1.008l-4.014,0l0,-1.386l-1.17,0l0,1.386l-2.394,0l0,1.008l2.394,0l0,1.188Zm-10.548,1.224l0,0.954l7.812,0l0,-0.954l-3.096,0c-0.252,-0.486 -0.558,-1.098 -0.864,-1.566l-1.116,0.324c0.216,0.36 0.45,0.828 0.63,1.242l-3.366,0Zm3.816,-1.566l1.17,0l0,-0.846l2.322,0l0,-1.008l-2.322,0l0,-1.404l-1.17,0l0,1.404l-3.888,0l0,1.008l3.888,0l0,0.846Zm-2.376,8.64l0.972,0.234c-0.432,1.224 -1.116,2.466 -1.818,3.294c-0.18,-0.144 -0.594,-0.45 -0.828,-0.594c0.702,-0.774 1.296,-1.854 1.674,-2.934Zm6.426,-0.396l-3.366,0l0,4.842l-1.152,0l0,-4.842l-3.348,0l0,-0.954l3.348,0l0,-1.422l-3.6,0l0,-0.954l2.304,0c-0.126,-0.576 -0.414,-1.368 -0.756,-1.98l0.936,-0.288c0.396,0.63 0.72,1.494 0.828,2.07l-0.558,0.198l2.07,0c0.378,-0.684 0.792,-1.674 1.062,-2.34l1.044,0.306c-0.324,0.702 -0.684,1.44 -1.008,2.034l2.412,0l0,0.954l-3.582,0l0,1.422l3.366,0l0,0.954Zm-2.502,0.702l0.828,-0.396c0.504,0.774 1.062,1.782 1.296,2.43l-0.864,0.486c-0.252,-0.684 -0.792,-1.746 -1.26,-2.52Zm10.494,-3.942l0,1.062l-2.178,0l0,7.038l-1.134,0l0,-7.038l-2.466,0l0,0.324c0,2.016 -0.198,4.842 -1.422,6.732c-0.162,-0.216 -0.594,-0.612 -0.846,-0.756c1.08,-1.746 1.188,-4.14 1.188,-5.994l0,-4.716c2.016,-0.306 4.338,-0.792 5.616,-1.296l0.954,0.864c-1.458,0.522 -3.564,0.918 -5.49,1.206l0,2.574l5.778,0Zm47.878,6.768l8.154,0l0,-1.26l-3.78,0c-0.666,0 -1.458,0.036 -2.16,0.108c3.222,-3.024 5.31,-5.742 5.31,-8.406c0,-2.34 -1.44,-3.852 -3.78,-3.852c-1.638,0 -2.772,0.774 -3.834,1.926l0.864,0.828c0.756,-0.882 1.71,-1.566 2.808,-1.566c1.692,0 2.502,1.17 2.502,2.718c0,2.286 -1.872,4.95 -6.084,8.622l0,0.882Zm10.674,0l7.092,0l0,-1.224l-2.682,0l0,-11.952l-1.116,0c-0.684,0.414 -1.53,0.702 -2.664,0.9l0,0.954l2.322,0l0,10.098l-2.952,0l0,1.224Zm9.612,3.33c1.494,-0.666 2.484,-1.962 2.484,-3.618c0,-1.134 -0.504,-1.818 -1.314,-1.818c-0.594,0 -1.134,0.396 -1.134,1.062c0,0.702 0.522,1.08 1.116,1.08c0.072,0 0.144,0 0.216,-0.018c-0.018,1.098 -0.684,1.944 -1.746,2.448l0.378,0.864Zm8.19,-3.096c2.178,0 4.248,-1.638 4.248,-4.5c0,-2.916 -1.764,-4.212 -3.942,-4.212c-0.828,0 -1.44,0.216 -2.052,0.558l0.36,-3.996l5.004,0l0,-1.26l-6.3,0l-0.414,6.12l0.81,0.504c0.756,-0.504 1.332,-0.792 2.232,-0.792c1.71,0 2.826,1.17 2.826,3.114c0,1.98 -1.314,3.24 -2.898,3.24c-1.566,0 -2.538,-0.72 -3.294,-1.494l-0.738,0.972c0.882,0.882 2.106,1.746 4.158,1.746Zm10.17,0c-2.484,0 -4.05,-2.268 -4.05,-6.876c0,-4.572 1.566,-6.768 4.05,-6.768c2.466,0 4.014,2.214 4.014,6.768c0,4.608 -1.548,6.876 -4.014,6.876Zm0,-1.188c1.548,0 2.592,-1.764 2.592,-5.688c0,-3.852 -1.044,-5.58 -2.592,-5.58c-1.566,0 -2.628,1.728 -2.628,5.58c0,3.924 1.062,5.688 2.628,5.688Zm9.576,-5.166c0.9,0 1.926,-0.522 2.844,-1.818c-0.144,-2.754 -1.188,-4.32 -2.97,-4.32c-1.314,0 -2.304,1.26 -2.304,3.096c0,1.818 0.792,3.042 2.43,3.042Zm-3.582,5.04l0.81,-0.918c0.576,0.63 1.368,1.008 2.25,1.008c1.728,0 3.258,-1.458 3.384,-5.706c-0.828,1.008 -1.944,1.674 -3.096,1.674c-2.196,0 -3.6,-1.422 -3.6,-4.14c0,-2.52 1.692,-4.248 3.708,-4.248c2.538,0 4.374,2.088 4.374,6.21c0,5.4 -2.286,7.434 -4.734,7.434c-1.386,0 -2.376,-0.558 -3.096,-1.314Z" style="fill:#303030;"/><path id="Rectangle.-2.-Copy" d="M166.366,33.223c0,-2.32 -1.883,-4.203 -4.203,-4.203l-137.594,0c-2.319,0 -4.203,1.883 -4.203,4.203c0,2.319 1.884,4.203 4.203,4.203l137.594,0c2.32,0 4.203,-1.884 4.203,-4.203Z" style="fill:#4d4d4d;fill-opacity:0.15;"/></g><path id="_500" d="M133.662,92.834c2.178,0 4.248,-1.638 4.248,-4.5c0,-2.916 -1.764,-4.212 -3.942,-4.212c-0.828,0 -1.44,0.216 -2.052,0.558l0.36,-3.996l5.004,0l0,-1.26l-6.3,0l-0.414,6.12l0.81,0.504c0.756,-0.504 1.332,-0.792 2.232,-0.792c1.71,0 2.826,1.17 2.826,3.114c0,1.98 -1.314,3.24 -2.898,3.24c-1.566,0 -2.538,-0.72 -3.294,-1.494l-0.738,0.972c0.882,0.882 2.106,1.746 4.158,1.746Zm10.17,0c-2.484,0 -4.05,-2.268 -4.05,-6.876c0,-4.572 1.566,-6.768 4.05,-6.768c2.466,0 4.014,2.214 4.014,6.768c0,4.608 -1.548,6.876 -4.014,6.876Zm0,-1.188c1.548,0 2.592,-1.764 2.592,-5.688c0,-3.852 -1.044,-5.58 -2.592,-5.58c-1.566,0 -2.628,1.728 -2.628,5.58c0,3.924 1.062,5.688 2.628,5.688Zm9.882,1.188c-2.484,0 -4.05,-2.268 -4.05,-6.876c0,-4.572 1.566,-6.768 4.05,-6.768c2.466,0 4.014,2.214 4.014,6.768c0,4.608 -1.548,6.876 -4.014,6.876Zm0,-1.188c1.548,0 2.592,-1.764 2.592,-5.688c0,-3.852 -1.044,-5.58 -2.592,-5.58c-1.566,0 -2.628,1.728 -2.628,5.58c0,3.924 1.062,5.688 2.628,5.688Z" style="fill:#303030;"/><path id="_.-2191" d="M114.828,250.354l4.554,0l0,-1.152l-4.554,0l0,1.152Zm6.156,4.446l8.154,0l0,-1.26l-3.78,0c-0.666,0 -1.458,0.036 -2.16,0.108c3.222,-3.024 5.31,-5.742 5.31,-8.406c0,-2.34 -1.44,-3.852 -3.78,-3.852c-1.638,0 -2.772,0.774 -3.834,1.926l0.864,0.828c0.756,-0.882 1.71,-1.566 2.808,-1.566c1.692,0 2.502,1.17 2.502,2.718c0,2.286 -1.872,4.95 -6.084,8.622l0,0.882Zm10.674,0l7.092,0l0,-1.224l-2.682,0l0,-11.952l-1.116,0c-0.684,0.414 -1.53,0.702 -2.664,0.9l0,0.954l2.322,0l0,10.098l-2.952,0l0,1.224Zm12.924,-6.12c0.9,0 1.926,-0.522 2.844,-1.818c-0.144,-2.754 -1.188,-4.32 -2.97,-4.32c-1.314,0 -2.304,1.26 -2.304,3.096c0,1.818 0.792,3.042 2.43,3.042Zm-3.582,5.04l0.81,-0.918c0.576,0.63 1.368,1.008 2.25,1.008c1.728,0 3.258,-1.458 3.384,-5.706c-0.828,1.008 -1.944,1.674 -3.096,1.674c-2.196,0 -3.6,-1.422 -3.6,-4.14c0,-2.52 1.692,-4.248 3.708,-4.248c2.538,0 4.374,2.088 4.374,6.21c0,5.4 -2.286,7.434 -4.734,7.434c-1.386,0 -2.376,-0.558 -3.096,-1.314Zm10.422,1.08l7.092,0l0,-1.224l-2.682,0l0,-11.952l-1.116,0c-0.684,0.414 -1.53,0.702 -2.664,0.9l0,0.954l2.322,0l0,10.098l-2.952,0l0,1.224Z" style="fill:#d87341;stroke:#d87341;stroke-width:1px;stroke-linejoin:round;stroke-miterlimit:1.41421;"/></g></svg>