<?xml version="1.0" encoding="UTF-8" standalone="no"?><!DOCTYPE svg PUBLIC "-//W3C//DTD SVG 1.1//EN" "http://www.w3.org/Graphics/SVG/1.1/DTD/svg11.dtd"><svg width="100%" height="100%" viewBox="0 0 320 320" version="1.1" xmlns="http://www.w3.org/2000/svg" xmlns:xlink="http://www.w3.org/1999/xlink" xml:space="preserve" style="fill-rule:evenodd;clip-rule:evenodd;stroke-linecap:round;stroke-linejoin:round;stroke-miterlimit:10;"><g id="圖層_2"><g><path d="M249.544,100.777c0,0 -7.822,-26.567 -54.004,-26.567c-49.162,0 -52.887,28.678 -52.887,28.678c-10.056,-32.278 -3.724,-54.377 53.507,-51.77c55.743,-5.214 58.225,19.616 53.384,49.659Z" style="fill:#d87341;fill-rule:nonzero;"/><circle cx="196.285" cy="168.686" r="7.697" style="fill:#d87341;fill-opacity:0.5;"/><path d="M109.63,226.787c0,4.841 -0.869,9.435 -2.483,13.78c-0.372,1.117 -17.629,-2.855 -18.374,2.235c-0.993,7.2 15.146,4.469 14.029,6.083c-6.828,9.932 -18.126,16.76 -32.03,16.76c-4.221,0 -8.318,-0.621 -12.291,-1.738c0,0 11.174,1.738 11.174,-3.725c0,-5.214 -6.58,-5.462 -6.58,-5.462c3.476,-3.476 -1.738,-7.449 -1.738,-7.449c0,0 1.986,-4.966 0.248,-6.58c-0.372,-0.745 -31.782,-2.11 -31.285,0.497c-2.235,-4.47 -3.476,-9.436 -3.476,-14.401c18.622,7.2 19.988,9.435 42.831,9.435c22.843,0 31.285,-4.718 39.975,-9.435Z" style="fill:#d87341;fill-opacity:0.5;fill-rule:nonzero;"/><path d="M252.896,242.057c0,14.897 -25.823,28.554 -57.853,28.554c-32.03,0 -57.852,-13.657 -57.852,-28.554l15.394,0.248c9.187,9.435 25.698,15.022 42.334,15.022c16.636,0 36.127,-6.083 41.713,-14.898l16.264,-0.372Z" style="fill:#d87341;fill-opacity:0.5;fill-rule:nonzero;"/><path d="M196.509,72.224l0.348,0.001l0.347,0.003l0.347,0.003l0.346,0.005l0.346,0.005l0.346,0.006l0.345,0.008l0.344,0.008l0.344,0.009l0.343,0.011l0.343,0.011l0.343,0.012l0.341,0.013l0.342,0.015l0.34,0.015l0.34,0.016l0.34,0.017l0.339,0.018l0.338,0.02l0.338,0.02l0.338,0.021l0.336,0.023l0.336,0.023l0.336,0.024l0.335,0.025l0.334,0.027l0.333,0.027l0.333,0.028l0.333,0.03l0.331,0.03l0.331,0.032l0.331,0.032l0.329,0.034l0.329,0.034l0.329,0.036l0.327,0.036l0.327,0.038l0.327,0.039l0.325,0.039l0.325,0.041l0.324,0.042l0.323,0.043l0.323,0.044l0.322,0.045l0.321,0.046l0.321,0.047l0.319,0.048l0.319,0.049l0.318,0.051l0.318,0.051l0.316,0.052l0.316,0.054l0.315,0.054l0.314,0.056l0.314,0.057l0.312,0.057l0.312,0.059l0.311,0.06l0.31,0.061l0.309,0.062l0.309,0.064l0.307,0.064l0.307,0.065l0.306,0.067l0.305,0.067l0.304,0.069l0.303,0.07l0.302,0.071l0.302,0.072l0.3,0.073l0.3,0.074l0.299,0.076l0.297,0.076l0.297,0.078l0.296,0.078l0.295,0.08l0.294,0.081l0.293,0.082l0.292,0.084l0.291,0.084l0.29,0.085l0.289,0.087l0.288,0.088l0.288,0.089l0.286,0.09l0.285,0.091l0.284,0.092l0.283,0.094l0.282,0.095l0.281,0.096l0.28,0.097l0.279,0.098l0.278,0.099l0.277,0.101l0.275,0.101l0.275,0.103l0.274,0.104l0.272,0.105l0.272,0.107l0.27,0.107l0.269,0.109l0.268,0.11l0.267,0.111l0.266,0.113l0.265,0.113l0.263,0.115l0.262,0.116l0.262,0.117l0.26,0.119l0.259,0.12l0.257,0.12l0.257,0.122l0.255,0.124l0.254,0.124l0.253,0.126l0.252,0.127l0.25,0.128l0.249,0.13l0.248,0.13l0.247,0.132l0.246,0.134l0.244,0.134l0.243,0.136l0.241,0.137l0.241,0.138l0.239,0.139l0.238,0.141l0.236,0.142l0.235,0.143l0.234,0.145l0.233,0.146l0.231,0.147l0.23,0.148l0.228,0.15l0.227,0.151l0.226,0.152l0.224,0.154l0.223,0.154l0.222,0.157l0.22,0.157l0.219,0.159l0.217,0.16l0.216,0.161l0.215,0.163l0.213,0.164l0.211,0.165l0.21,0.167l0.209,0.168l0.207,0.169l0.206,0.17l0.204,0.172l0.203,0.174l0.201,0.174l0.199,0.176l0.198,0.177l0.197,0.179l0.195,0.18l0.193,0.181l0.192,0.183l0.191,0.184l0.188,0.185l0.187,0.187l0.186,0.187l0.184,0.19l0.182,0.191l0.181,0.192l0.178,0.193l0.178,0.195l0.175,0.196l0.174,0.197l0.173,0.199l0.17,0.2l0.169,0.202l0.167,0.203l0.166,0.204l0.163,0.206l0.162,0.207l0.161,0.208l0.158,0.21l0.157,0.211l0.155,0.212l0.153,0.214l0.151,0.215l0.15,0.217l0.147,0.218l0.146,0.219l0.144,0.221l0.142,0.222l0.141,0.223l0.138,0.225l0.137,0.226l0.135,0.227l0.132,0.229l0.131,0.23l0.129,0.232l0.127,0.233l0.126,0.234l0.123,0.235l0.121,0.237l0.12,0.239l0.117,0.239l0.115,0.241l0.114,0.242l0.111,0.244l0.11,0.245l0.107,0.246l0.106,0.248l0.103,0.249l0.101,0.25l0.1,0.252l0.097,0.253l0.095,0.254l0.094,0.256l0.091,0.257l0.089,0.258l0.087,0.26l0.085,0.261l0.083,0.262l0.08,0.263l0.079,0.265l0.076,0.266l0.075,0.268l0.072,0.269l0.07,0.27l0.068,0.271l0.066,0.273l0.064,0.274l0.061,0.275l0.06,0.277l0.057,0.278l0.055,0.279l0.053,0.28l0.05,0.282l0.049,0.283l0.046,0.285l0.044,0.285l0.042,0.287l0.04,0.288l0.037,0.29l0.035,0.291l0.033,0.292l0.031,0.293l0.028,0.295l0.026,0.296l0.024,0.297l0.022,0.298l0.02,0.3l0.017,0.301l0.015,0.302l0.012,0.304l0.011,0.305l0.008,0.306l0.005,0.307l0.004,0.309l0.001,0.307l0,57.735l-0.001,0.307l-0.004,0.31l-0.005,0.309l-0.008,0.31l-0.011,0.308l-0.012,0.308l-0.015,0.308l-0.017,0.307l-0.02,0.307l-0.021,0.306l-0.024,0.306l-0.026,0.305l-0.029,0.305l-0.03,0.304l-0.033,0.304l-0.035,0.303l-0.037,0.303l-0.039,0.302l-0.042,0.302l-0.043,0.301l-0.046,0.3l-0.048,0.3l-0.05,0.299l-0.053,0.299l-0.054,0.298l-0.057,0.297l-0.058,0.297l-0.061,0.297l-0.063,0.295l-0.065,0.295l-0.067,0.295l-0.069,0.293l-0.072,0.293l-0.073,0.293l-0.075,0.292l-0.078,0.291l-0.079,0.29l-0.082,0.29l-0.083,0.289l-0.086,0.288l-0.088,0.288l-0.089,0.287l-0.092,0.286l-0.093,0.286l-0.096,0.284l-0.098,0.285l-0.099,0.283l-0.102,0.282l-0.103,0.282l-0.106,0.281l-0.107,0.28l-0.109,0.28l-0.112,0.279l-0.113,0.278l-0.115,0.277l-0.117,0.276l-0.119,0.276l-0.12,0.274l-0.123,0.274l-0.125,0.273l-0.126,0.273l-0.128,0.271l-0.13,0.271l-0.132,0.269l-0.134,0.269l-0.136,0.268l-0.137,0.267l-0.139,0.267l-0.141,0.265l-0.143,0.265l-0.145,0.263l-0.146,0.263l-0.148,0.262l-0.15,0.261l-0.152,0.26l-0.153,0.259l-0.156,0.258l-0.157,0.257l-0.158,0.257l-0.161,0.255l-0.162,0.254l-0.164,0.254l-0.165,0.252l-0.167,0.252l-0.169,0.25l-0.171,0.25l-0.172,0.249l-0.174,0.247l-0.176,0.247l-0.177,0.245l-0.179,0.245l-0.18,0.244l-0.182,0.242l-0.184,0.242l-0.186,0.24l-0.187,0.24l-0.188,0.238l-0.19,0.238l-0.192,0.236l-0.193,0.235l-0.195,0.235l-0.197,0.233l-0.198,0.232l-0.199,0.231l-0.201,0.23l-0.203,0.229l-0.204,0.227l-0.206,0.227l-0.207,0.225l-0.209,0.225l-0.21,0.223l-0.212,0.222l-0.213,0.221l-0.214,0.22l-0.216,0.219l-0.218,0.218l-0.219,0.216l-0.22,0.215l-0.222,0.214l-0.224,0.213l-0.224,0.212l-0.226,0.211l-0.228,0.209l-0.229,0.209l-0.23,0.207l-0.232,0.205l-0.233,0.205l-0.235,0.203l-0.236,0.203l-0.237,0.201l-0.239,0.199l-0.24,0.199l-0.241,0.197l-0.243,0.196l-0.243,0.195l-0.246,0.193l-0.246,0.192l-0.248,0.191l-0.249,0.19l-0.251,0.188l-0.252,0.188l-0.253,0.185l-0.254,0.185l-0.256,0.183l-0.256,0.182l-0.259,0.181l-0.259,0.179l-0.26,0.178l-0.262,0.176l-0.263,0.176l-0.264,0.174l-0.266,0.172l-0.266,0.171l-0.268,0.17l-0.269,0.169l-0.271,0.167l-0.271,0.166l-0.272,0.164l-0.274,0.163l-0.275,0.162l-0.276,0.16l-0.277,0.158l-0.278,0.158l-0.28,0.156l-0.28,0.154l-0.282,0.153l-0.283,0.152l-0.284,0.15l-0.284,0.149l-0.286,0.147l-0.288,0.146l-0.288,0.145l-0.289,0.143l-0.29,0.141l-0.291,0.14l-0.293,0.139l-0.293,0.137l-0.295,0.135l-0.295,0.134l-0.297,0.133l-0.297,0.131l-0.298,0.129l-0.3,0.128l-0.3,0.127l-0.302,0.124l-0.302,0.124l-0.304,0.122l-0.304,0.12l-0.305,0.119l-0.306,0.117l-0.308,0.115l-0.308,0.114l-0.309,0.113l-0.31,0.11l-0.311,0.11l-0.311,0.107l-0.313,0.106l-0.314,0.105l-0.314,0.102l-0.315,0.101l-0.316,0.1l-0.318,0.098l-0.317,0.096l-0.319,0.095l-0.32,0.093l-0.32,0.091l-0.322,0.09l-0.322,0.088l-0.323,0.086l-0.323,0.084l-0.325,0.083l-0.325,0.082l-0.326,0.079l-0.327,0.078l-0.328,0.076l-0.328,0.074l-0.329,0.073l-0.33,0.071l-0.331,0.069l-0.331,0.068l-0.333,0.065l-0.332,0.064l-0.334,0.063l-0.334,0.06l-0.335,0.059l-0.336,0.057l-0.337,0.055l-0.337,0.053l-0.337,0.052l-0.339,0.05l-0.339,0.047l-0.34,0.047l-0.34,0.044l-0.341,0.042l-0.342,0.041l-0.342,0.039l-0.343,0.037l-0.344,0.035l-0.344,0.034l-0.345,0.031l-0.345,0.03l-0.346,0.027l-0.346,0.026l-0.347,0.024l-0.348,0.022l-0.348,0.02l-0.349,0.019l-0.349,0.016l-0.35,0.015l-0.351,0.012l-0.35,0.011l-0.352,0.009l-0.352,0.006l-0.352,0.005l-0.353,0.003l-0.354,0.001l-0.353,-0.001l-0.353,-0.003l-0.352,-0.005l-0.352,-0.006l-0.352,-0.009l-0.35,-0.011l-0.351,-0.012l-0.35,-0.015l-0.349,-0.016l-0.349,-0.019l-0.348,-0.02l-0.348,-0.022l-0.347,-0.024l-0.346,-0.026l-0.346,-0.027l-0.345,-0.03l-0.345,-0.031l-0.344,-0.034l-0.344,-0.035l-0.343,-0.037l-0.342,-0.039l-0.342,-0.041l-0.341,-0.042l-0.34,-0.044l-0.34,-0.047l-0.339,-0.047l-0.339,-0.05l-0.337,-0.052l-0.337,-0.053l-0.337,-0.055l-0.336,-0.057l-0.335,-0.059l-0.334,-0.06l-0.334,-0.063l-0.332,-0.064l-0.333,-0.065l-0.331,-0.068l-0.331,-0.069l-0.33,-0.071l-0.329,-0.073l-0.328,-0.074l-0.328,-0.076l-0.327,-0.078l-0.326,-0.079l-0.325,-0.082l-0.325,-0.083l-0.323,-0.084l-0.323,-0.086l-0.322,-0.088l-0.322,-0.09l-0.32,-0.091l-0.32,-0.093l-0.319,-0.095l-0.317,-0.096l-0.318,-0.098l-0.316,-0.1l-0.315,-0.101l-0.314,-0.102l-0.314,-0.105l-0.313,-0.106l-0.311,-0.107l-0.311,-0.11l-0.31,-0.11l-0.309,-0.113l-0.308,-0.114l-0.308,-0.115l-0.306,-0.117l-0.305,-0.119l-0.304,-0.12l-0.304,-0.122l-0.302,-0.124l-0.302,-0.124l-0.3,-0.127l-0.3,-0.128l-0.298,-0.129l-0.297,-0.131l-0.297,-0.133l-0.295,-0.134l-0.295,-0.135l-0.293,-0.137l-0.293,-0.139l-0.291,-0.14l-0.29,-0.141l-0.289,-0.143l-0.289,-0.145l-0.287,-0.146l-0.286,-0.147l-0.284,-0.149l-0.284,-0.15l-0.283,-0.152l-0.282,-0.153l-0.28,-0.154l-0.28,-0.156l-0.278,-0.158l-0.277,-0.158l-0.276,-0.16l-0.275,-0.162l-0.274,-0.163l-0.272,-0.164l-0.271,-0.166l-0.271,-0.167l-0.269,-0.169l-0.268,-0.17l-0.266,-0.171l-0.266,-0.172l-0.264,-0.174l-0.263,-0.176l-0.262,-0.176l-0.26,-0.178l-0.259,-0.179l-0.259,-0.181l-0.256,-0.182l-0.256,-0.183l-0.254,-0.185l-0.253,-0.185l-0.252,-0.188l-0.251,-0.188l-0.249,-0.19l-0.248,-0.191l-0.246,-0.192l-0.246,-0.193l-0.243,-0.195l-0.243,-0.196l-0.241,-0.197l-0.24,-0.199l-0.239,-0.199l-0.237,-0.201l-0.236,-0.203l-0.235,-0.203l-0.233,-0.205l-0.232,-0.205l-0.23,-0.207l-0.229,-0.209l-0.228,-0.209l-0.226,-0.211l-0.224,-0.212l-0.224,-0.213l-0.222,-0.214l-0.22,-0.215l-0.219,-0.216l-0.218,-0.218l-0.216,-0.219l-0.214,-0.22l-0.214,-0.221l-0.211,-0.222l-0.21,-0.223l-0.209,-0.225l-0.207,-0.225l-0.206,-0.227l-0.204,-0.227l-0.203,-0.229l-0.201,-0.23l-0.199,-0.231l-0.198,-0.232l-0.197,-0.233l-0.195,-0.235l-0.193,-0.235l-0.192,-0.236l-0.19,-0.238l-0.188,-0.238l-0.187,-0.24l-0.186,-0.24l-0.184,-0.242l-0.182,-0.242l-0.18,-0.244l-0.179,-0.245l-0.177,-0.245l-0.176,-0.247l-0.174,-0.247l-0.172,-0.249l-0.171,-0.25l-0.169,-0.25l-0.167,-0.252l-0.165,-0.252l-0.164,-0.254l-0.162,-0.254l-0.161,-0.255l-0.158,-0.257l-0.157,-0.257l-0.156,-0.258l-0.153,-0.259l-0.152,-0.26l-0.15,-0.261l-0.148,-0.262l-0.146,-0.263l-0.145,-0.263l-0.143,-0.265l-0.141,-0.265l-0.139,-0.267l-0.137,-0.267l-0.136,-0.268l-0.134,-0.269l-0.132,-0.269l-0.13,-0.271l-0.128,-0.271l-0.126,-0.273l-0.125,-0.273l-0.123,-0.274l-0.12,-0.274l-0.119,-0.276l-0.117,-0.276l-0.115,-0.277l-0.113,-0.278l-0.112,-0.279l-0.109,-0.28l-0.107,-0.28l-0.106,-0.281l-0.103,-0.282l-0.102,-0.282l-0.099,-0.284l-0.098,-0.284l-0.096,-0.284l-0.093,-0.286l-0.092,-0.286l-0.089,-0.287l-0.088,-0.288l-0.086,-0.288l-0.083,-0.289l-0.082,-0.29l-0.079,-0.29l-0.078,-0.291l-0.075,-0.292l-0.073,-0.293l-0.072,-0.293l-0.069,-0.293l-0.067,-0.295l-0.065,-0.295l-0.063,-0.295l-0.061,-0.297l-0.058,-0.297l-0.057,-0.297l-0.054,-0.298l-0.053,-0.299l-0.05,-0.299l-0.048,-0.3l-0.046,-0.3l-0.043,-0.301l-0.042,-0.302l-0.039,-0.302l-0.037,-0.303l-0.035,-0.303l-0.033,-0.304l-0.03,-0.304l-0.029,-0.305l-0.026,-0.305l-0.024,-0.306l-0.021,-0.306l-0.02,-0.307l-0.017,-0.307l-0.015,-0.308l-0.012,-0.308l-0.011,-0.309l-0.008,-0.309l-0.005,-0.309l-0.004,-0.31l-0.001,-0.307l0,-57.735l0.001,-0.307l0.004,-0.309l0.005,-0.307l0.008,-0.306l0.011,-0.305l0.012,-0.303l0.015,-0.302l0.017,-0.301l0.019,-0.3l0.022,-0.299l0.024,-0.297l0.026,-0.296l0.028,-0.294l0.031,-0.293l0.033,-0.292l0.035,-0.291l0.037,-0.29l0.039,-0.288l0.042,-0.287l0.044,-0.285l0.046,-0.284l0.048,-0.283l0.05,-0.282l0.053,-0.281l0.055,-0.279l0.057,-0.278l0.059,-0.276l0.061,-0.275l0.063,-0.274l0.066,-0.273l0.067,-0.271l0.07,-0.27l0.072,-0.269l0.074,-0.268l0.076,-0.266l0.079,-0.265l0.08,-0.263l0.083,-0.262l0.084,-0.261l0.087,-0.26l0.088,-0.258l0.091,-0.257l0.093,-0.255l0.095,-0.255l0.097,-0.253l0.099,-0.251l0.101,-0.251l0.103,-0.249l0.105,-0.247l0.107,-0.247l0.109,-0.244l0.111,-0.244l0.113,-0.242l0.115,-0.241l0.117,-0.24l0.119,-0.238l0.12,-0.237l0.123,-0.236l0.125,-0.234l0.127,-0.233l0.128,-0.231l0.131,-0.23l0.132,-0.229l0.134,-0.228l0.136,-0.226l0.138,-0.224l0.14,-0.224l0.142,-0.222l0.143,-0.22l0.146,-0.22l0.147,-0.218l0.149,-0.216l0.151,-0.215l0.153,-0.214l0.154,-0.213l0.156,-0.211l0.158,-0.21l0.16,-0.208l0.161,-0.207l0.164,-0.206l0.164,-0.204l0.167,-0.203l0.169,-0.201l0.17,-0.201l0.171,-0.199l0.174,-0.197l0.175,-0.196l0.177,-0.195l0.178,-0.193l0.18,-0.193l0.182,-0.19l0.184,-0.19l0.185,-0.188l0.186,-0.186l0.188,-0.186l0.19,-0.184l0.192,-0.182l0.193,-0.182l0.194,-0.18l0.196,-0.178l0.198,-0.177l0.199,-0.176l0.201,-0.175l0.202,-0.173l0.204,-0.172l0.205,-0.171l0.206,-0.169l0.209,-0.168l0.209,-0.167l0.211,-0.165l0.213,-0.164l0.214,-0.163l0.216,-0.161l0.217,-0.16l0.218,-0.159l0.22,-0.157l0.221,-0.157l0.222,-0.154l0.224,-0.154l0.226,-0.152l0.227,-0.151l0.228,-0.15l0.229,-0.148l0.231,-0.147l0.232,-0.146l0.234,-0.145l0.234,-0.143l0.237,-0.142l0.237,-0.141l0.239,-0.14l0.24,-0.138l0.241,-0.137l0.243,-0.135l0.244,-0.135l0.245,-0.133l0.246,-0.132l0.248,-0.131l0.249,-0.129l0.25,-0.129l0.252,-0.127l0.252,-0.125l0.254,-0.125l0.255,-0.123l0.256,-0.122l0.258,-0.121l0.259,-0.12l0.259,-0.118l0.261,-0.118l0.263,-0.116l0.263,-0.114l0.264,-0.114l0.266,-0.112l0.267,-0.112l0.268,-0.11l0.269,-0.108l0.27,-0.108l0.271,-0.106l0.273,-0.106l0.273,-0.104l0.275,-0.103l0.275,-0.101l0.277,-0.101l0.278,-0.099l0.279,-0.098l0.28,-0.097l0.281,-0.096l0.282,-0.095l0.283,-0.094l0.284,-0.092l0.285,-0.091l0.286,-0.09l0.287,-0.089l0.289,-0.088l0.289,-0.087l0.29,-0.085l0.291,-0.085l0.292,-0.083l0.293,-0.082l0.294,-0.081l0.296,-0.08l0.296,-0.078l0.296,-0.078l0.298,-0.076l0.299,-0.076l0.3,-0.074l0.301,-0.073l0.301,-0.072l0.303,-0.071l0.303,-0.07l0.305,-0.069l0.305,-0.067l0.306,-0.067l0.307,-0.065l0.308,-0.064l0.308,-0.064l0.31,-0.062l0.311,-0.061l0.311,-0.06l0.312,-0.059l0.313,-0.057l0.314,-0.057l0.314,-0.056l0.316,-0.054l0.316,-0.054l0.317,-0.052l0.318,-0.052l0.319,-0.05l0.319,-0.049l0.32,-0.048l0.321,-0.047l0.322,-0.046l0.322,-0.045l0.324,-0.044l0.324,-0.043l0.324,-0.042l0.326,-0.041l0.326,-0.039l0.327,-0.039l0.328,-0.038l0.328,-0.036l0.329,-0.036l0.33,-0.034l0.33,-0.034l0.331,-0.032l0.332,-0.032l0.333,-0.03l0.333,-0.03l0.334,-0.028l0.334,-0.027l0.335,-0.027l0.336,-0.025l0.336,-0.024l0.337,-0.024l0.338,-0.022l0.338,-0.021l0.339,-0.02l0.34,-0.02l0.34,-0.018l0.34,-0.017l0.342,-0.016l0.341,-0.015l0.343,-0.015l0.343,-0.013l0.343,-0.012l0.344,-0.011l0.345,-0.011l0.345,-0.009l0.346,-0.008l0.346,-0.008l0.347,-0.006l0.347,-0.005l0.348,-0.005l0.348,-0.003l0.349,-0.003l0.349,-0.001l0.349,-0.001l0.349,0.001Zm-0.688,3.724l-0.339,0.002l-0.338,0.002l-0.338,0.003l-0.337,0.005l-0.337,0.005l-0.336,0.006l-0.335,0.007l-0.335,0.008l-0.335,0.009l-0.333,0.01l-0.334,0.011l-0.332,0.012l-0.332,0.013l-0.331,0.013l-0.331,0.015l-0.33,0.016l-0.33,0.017l-0.328,0.017l-0.328,0.019l-0.328,0.019l-0.327,0.021l-0.326,0.021l-0.325,0.023l-0.325,0.023l-0.324,0.025l-0.323,0.025l-0.323,0.027l-0.322,0.027l-0.321,0.028l-0.32,0.03l-0.32,0.03l-0.319,0.031l-0.318,0.032l-0.318,0.034l-0.317,0.034l-0.315,0.035l-0.316,0.036l-0.314,0.038l-0.314,0.038l-0.312,0.039l-0.312,0.04l-0.311,0.041l-0.311,0.042l-0.309,0.044l-0.309,0.044l-0.308,0.045l-0.307,0.046l-0.306,0.047l-0.305,0.048l-0.304,0.05l-0.304,0.05l-0.302,0.051l-0.302,0.052l-0.301,0.053l-0.3,0.054l-0.299,0.056l-0.298,0.056l-0.297,0.057l-0.296,0.058l-0.296,0.06l-0.294,0.06l-0.293,0.061l-0.293,0.062l-0.291,0.064l-0.291,0.064l-0.289,0.065l-0.289,0.067l-0.287,0.067l-0.287,0.069l-0.285,0.069l-0.285,0.07l-0.283,0.072l-0.283,0.072l-0.281,0.074l-0.28,0.075l-0.28,0.075l-0.278,0.077l-0.277,0.077l-0.276,0.079l-0.275,0.08l-0.274,0.08l-0.273,0.082l-0.272,0.083l-0.271,0.084l-0.269,0.085l-0.269,0.086l-0.267,0.087l-0.266,0.088l-0.265,0.089l-0.264,0.09l-0.263,0.091l-0.261,0.092l-0.261,0.093l-0.259,0.094l-0.258,0.095l-0.257,0.097l-0.256,0.097l-0.254,0.098l-0.254,0.1l-0.252,0.1l-0.251,0.101l-0.249,0.103l-0.249,0.104l-0.247,0.104l-0.246,0.106l-0.245,0.106l-0.243,0.108l-0.242,0.109l-0.241,0.11l-0.24,0.111l-0.238,0.112l-0.237,0.112l-0.236,0.114l-0.235,0.116l-0.233,0.116l-0.232,0.117l-0.23,0.118l-0.229,0.119l-0.228,0.12l-0.227,0.122l-0.225,0.122l-0.224,0.124l-0.222,0.124l-0.222,0.126l-0.219,0.126l-0.219,0.128l-0.217,0.128l-0.216,0.13l-0.214,0.131l-0.213,0.132l-0.211,0.133l-0.211,0.134l-0.208,0.135l-0.208,0.136l-0.205,0.137l-0.205,0.138l-0.203,0.139l-0.201,0.14l-0.201,0.142l-0.198,0.142l-0.198,0.143l-0.195,0.145l-0.195,0.146l-0.193,0.146l-0.191,0.148l-0.19,0.148l-0.188,0.15l-0.187,0.151l-0.186,0.152l-0.184,0.153l-0.182,0.154l-0.181,0.155l-0.18,0.156l-0.178,0.158l-0.176,0.158l-0.175,0.159l-0.174,0.161l-0.172,0.161l-0.17,0.163l-0.169,0.163l-0.167,0.165l-0.166,0.166l-0.164,0.167l-0.163,0.168l-0.161,0.169l-0.16,0.17l-0.158,0.171l-0.156,0.173l-0.155,0.173l-0.153,0.175l-0.152,0.175l-0.15,0.177l-0.149,0.178l-0.146,0.179l-0.146,0.18l-0.144,0.181l-0.142,0.182l-0.14,0.184l-0.139,0.184l-0.138,0.186l-0.135,0.186l-0.134,0.188l-0.133,0.189l-0.131,0.19l-0.129,0.192l-0.127,0.192l-0.126,0.194l-0.125,0.195l-0.122,0.195l-0.121,0.197l-0.12,0.199l-0.117,0.199l-0.116,0.201l-0.115,0.201l-0.112,0.203l-0.111,0.204l-0.11,0.205l-0.107,0.207l-0.106,0.208l-0.104,0.208l-0.103,0.21l-0.101,0.212l-0.099,0.212l-0.097,0.214l-0.096,0.215l-0.094,0.216l-0.092,0.217l-0.09,0.219l-0.089,0.22l-0.087,0.221l-0.085,0.223l-0.084,0.223l-0.082,0.225l-0.079,0.226l-0.079,0.228l-0.076,0.229l-0.074,0.23l-0.073,0.231l-0.071,0.233l-0.069,0.233l-0.068,0.236l-0.065,0.236l-0.064,0.238l-0.062,0.239l-0.06,0.241l-0.058,0.242l-0.056,0.243l-0.054,0.244l-0.053,0.246l-0.051,0.248l-0.048,0.248l-0.047,0.25l-0.045,0.251l-0.043,0.253l-0.041,0.254l-0.04,0.255l-0.037,0.257l-0.035,0.258l-0.034,0.26l-0.031,0.261l-0.029,0.262l-0.028,0.264l-0.025,0.265l-0.024,0.267l-0.021,0.268l-0.02,0.269l-0.017,0.271l-0.016,0.272l-0.013,0.274l-0.012,0.275l-0.009,0.277l-0.007,0.277l-0.005,0.28l-0.003,0.281l-0.002,0.285l0,57.722l0.002,0.286l0.003,0.282l0.005,0.282l0.007,0.282l0.01,0.281l0.011,0.28l0.014,0.281l0.015,0.279l0.018,0.28l0.019,0.278l0.022,0.279l0.024,0.278l0.026,0.277l0.027,0.277l0.03,0.276l0.032,0.276l0.034,0.276l0.036,0.275l0.037,0.274l0.04,0.274l0.042,0.274l0.044,0.273l0.045,0.272l0.048,0.272l0.049,0.272l0.052,0.27l0.053,0.271l0.056,0.27l0.057,0.269l0.059,0.269l0.061,0.268l0.063,0.267l0.065,0.267l0.067,0.267l0.069,0.266l0.071,0.265l0.072,0.265l0.074,0.264l0.077,0.264l0.078,0.263l0.08,0.262l0.081,0.262l0.084,0.261l0.085,0.261l0.088,0.26l0.089,0.259l0.091,0.259l0.092,0.258l0.095,0.257l0.096,0.257l0.098,0.256l0.1,0.255l0.102,0.255l0.103,0.254l0.106,0.254l0.107,0.253l0.108,0.252l0.111,0.251l0.112,0.251l0.114,0.25l0.116,0.249l0.117,0.249l0.119,0.247l0.121,0.248l0.123,0.246l0.124,0.246l0.126,0.245l0.128,0.244l0.129,0.243l0.131,0.243l0.133,0.242l0.135,0.241l0.136,0.241l0.137,0.239l0.14,0.239l0.141,0.238l0.142,0.238l0.145,0.236l0.146,0.236l0.147,0.235l0.149,0.234l0.151,0.233l0.152,0.232l0.154,0.232l0.156,0.231l0.157,0.23l0.159,0.229l0.16,0.228l0.162,0.227l0.163,0.227l0.165,0.225l0.167,0.225l0.168,0.224l0.169,0.223l0.171,0.222l0.173,0.221l0.174,0.22l0.176,0.219l0.177,0.219l0.179,0.217l0.18,0.217l0.181,0.215l0.184,0.215l0.184,0.213l0.186,0.213l0.188,0.212l0.189,0.211l0.19,0.21l0.192,0.208l0.193,0.208l0.195,0.207l0.196,0.206l0.198,0.205l0.199,0.204l0.2,0.203l0.202,0.202l0.203,0.2l0.205,0.2l0.206,0.199l0.207,0.197l0.208,0.197l0.211,0.196l0.211,0.194l0.213,0.194l0.214,0.192l0.215,0.191l0.217,0.191l0.218,0.189l0.219,0.188l0.221,0.187l0.222,0.185l0.223,0.185l0.225,0.184l0.225,0.182l0.228,0.181l0.228,0.18l0.23,0.179l0.23,0.178l0.233,0.177l0.233,0.176l0.235,0.174l0.235,0.173l0.238,0.172l0.238,0.171l0.239,0.17l0.241,0.168l0.242,0.167l0.243,0.166l0.244,0.165l0.246,0.163l0.246,0.163l0.248,0.161l0.249,0.16l0.25,0.158l0.251,0.158l0.253,0.156l0.253,0.155l0.255,0.153l0.256,0.153l0.257,0.151l0.258,0.149l0.259,0.149l0.26,0.147l0.261,0.146l0.262,0.144l0.264,0.143l0.264,0.142l0.266,0.141l0.266,0.139l0.268,0.138l0.268,0.136l0.27,0.135l0.271,0.134l0.272,0.133l0.272,0.131l0.274,0.129l0.275,0.129l0.276,0.127l0.276,0.125l0.278,0.124l0.279,0.123l0.279,0.121l0.281,0.12l0.281,0.119l0.283,0.117l0.283,0.115l0.285,0.115l0.285,0.112l0.286,0.112l0.287,0.109l0.288,0.109l0.289,0.107l0.29,0.105l0.291,0.104l0.291,0.102l0.293,0.101l0.293,0.1l0.294,0.098l0.295,0.096l0.296,0.095l0.297,0.093l0.298,0.092l0.298,0.091l0.299,0.088l0.3,0.088l0.301,0.085l0.302,0.084l0.302,0.083l0.303,0.081l0.304,0.079l0.305,0.078l0.305,0.077l0.307,0.074l0.307,0.073l0.308,0.072l0.308,0.07l0.309,0.068l0.31,0.067l0.311,0.065l0.311,0.063l0.313,0.062l0.312,0.06l0.314,0.058l0.314,0.057l0.315,0.055l0.316,0.054l0.316,0.052l0.317,0.05l0.317,0.048l0.318,0.047l0.319,0.045l0.32,0.044l0.32,0.041l0.321,0.04l0.321,0.039l0.322,0.036l0.323,0.035l0.323,0.033l0.324,0.031l0.324,0.03l0.325,0.028l0.325,0.026l0.326,0.024l0.327,0.023l0.327,0.021l0.328,0.019l0.328,0.017l0.329,0.015l0.329,0.014l0.33,0.012l0.33,0.01l0.331,0.008l0.332,0.007l0.331,0.004l0.333,0.003l0.332,0.001l0.333,-0.001l0.333,-0.003l0.331,-0.004l0.332,-0.007l0.331,-0.008l0.33,-0.01l0.33,-0.012l0.329,-0.014l0.329,-0.015l0.328,-0.017l0.328,-0.019l0.327,-0.021l0.327,-0.023l0.326,-0.024l0.325,-0.026l0.325,-0.028l0.324,-0.03l0.324,-0.031l0.323,-0.033l0.323,-0.035l0.322,-0.036l0.321,-0.039l0.321,-0.04l0.32,-0.041l0.32,-0.044l0.319,-0.045l0.318,-0.047l0.317,-0.048l0.317,-0.05l0.316,-0.052l0.316,-0.054l0.315,-0.055l0.314,-0.057l0.314,-0.058l0.312,-0.06l0.313,-0.062l0.311,-0.063l0.311,-0.065l0.31,-0.067l0.309,-0.068l0.308,-0.07l0.308,-0.072l0.307,-0.073l0.307,-0.074l0.305,-0.077l0.305,-0.078l0.304,-0.079l0.303,-0.081l0.302,-0.083l0.302,-0.084l0.301,-0.085l0.3,-0.088l0.299,-0.088l0.298,-0.091l0.298,-0.092l0.297,-0.093l0.296,-0.095l0.295,-0.096l0.294,-0.098l0.293,-0.1l0.293,-0.101l0.291,-0.102l0.291,-0.104l0.29,-0.105l0.289,-0.107l0.288,-0.109l0.287,-0.109l0.286,-0.112l0.285,-0.112l0.285,-0.115l0.283,-0.115l0.283,-0.117l0.281,-0.119l0.281,-0.12l0.279,-0.121l0.279,-0.123l0.278,-0.124l0.276,-0.125l0.276,-0.127l0.275,-0.129l0.274,-0.129l0.272,-0.131l0.272,-0.133l0.271,-0.134l0.27,-0.135l0.268,-0.136l0.268,-0.138l0.266,-0.139l0.266,-0.141l0.264,-0.142l0.264,-0.143l0.262,-0.144l0.261,-0.146l0.26,-0.147l0.259,-0.149l0.258,-0.149l0.257,-0.151l0.256,-0.153l0.255,-0.153l0.253,-0.155l0.253,-0.156l0.251,-0.158l0.25,-0.158l0.249,-0.16l0.248,-0.161l0.246,-0.163l0.246,-0.163l0.244,-0.165l0.243,-0.166l0.242,-0.167l0.241,-0.168l0.239,-0.17l0.238,-0.171l0.237,-0.172l0.236,-0.173l0.235,-0.174l0.233,-0.176l0.232,-0.177l0.231,-0.178l0.23,-0.179l0.228,-0.18l0.228,-0.181l0.225,-0.182l0.225,-0.184l0.223,-0.185l0.222,-0.185l0.221,-0.187l0.219,-0.188l0.218,-0.189l0.217,-0.191l0.215,-0.191l0.214,-0.192l0.213,-0.194l0.211,-0.194l0.211,-0.196l0.208,-0.197l0.207,-0.197l0.206,-0.199l0.205,-0.2l0.203,-0.2l0.202,-0.202l0.2,-0.203l0.199,-0.204l0.198,-0.205l0.196,-0.206l0.195,-0.207l0.193,-0.208l0.192,-0.208l0.19,-0.21l0.189,-0.211l0.188,-0.212l0.186,-0.213l0.184,-0.213l0.183,-0.215l0.182,-0.215l0.18,-0.217l0.179,-0.217l0.177,-0.219l0.176,-0.219l0.174,-0.22l0.173,-0.221l0.171,-0.222l0.169,-0.223l0.168,-0.224l0.167,-0.225l0.165,-0.225l0.163,-0.227l0.162,-0.227l0.16,-0.228l0.159,-0.229l0.157,-0.23l0.156,-0.231l0.154,-0.232l0.152,-0.232l0.151,-0.233l0.149,-0.234l0.147,-0.235l0.146,-0.236l0.145,-0.236l0.142,-0.238l0.141,-0.238l0.14,-0.239l0.137,-0.239l0.137,-0.241l0.134,-0.241l0.133,-0.242l0.131,-0.243l0.129,-0.243l0.128,-0.244l0.126,-0.245l0.124,-0.246l0.123,-0.246l0.121,-0.247l0.119,-0.248l0.117,-0.249l0.116,-0.249l0.114,-0.25l0.112,-0.251l0.111,-0.251l0.108,-0.252l0.107,-0.253l0.106,-0.254l0.103,-0.254l0.102,-0.255l0.1,-0.255l0.098,-0.256l0.096,-0.257l0.095,-0.257l0.092,-0.258l0.091,-0.259l0.089,-0.259l0.088,-0.26l0.085,-0.261l0.084,-0.261l0.081,-0.262l0.08,-0.262l0.078,-0.263l0.077,-0.264l0.074,-0.264l0.072,-0.265l0.071,-0.265l0.069,-0.266l0.067,-0.267l0.065,-0.267l0.063,-0.267l0.061,-0.268l0.059,-0.269l0.057,-0.269l0.056,-0.27l0.053,-0.271l0.052,-0.27l0.049,-0.272l0.048,-0.272l0.045,-0.272l0.044,-0.273l0.042,-0.274l0.04,-0.274l0.037,-0.274l0.036,-0.275l0.034,-0.276l0.032,-0.276l0.03,-0.276l0.027,-0.277l0.026,-0.277l0.024,-0.278l0.022,-0.279l0.019,-0.278l0.018,-0.28l0.015,-0.279l0.014,-0.28l0.011,-0.281l0.01,-0.281l0.007,-0.282l0.005,-0.281l0.003,-0.283l0.002,-0.286l0,-57.721l-0.002,-0.286l-0.003,-0.281l-0.005,-0.279l-0.007,-0.278l-0.01,-0.277l-0.011,-0.275l-0.013,-0.273l-0.016,-0.272l-0.018,-0.271l-0.019,-0.27l-0.022,-0.267l-0.023,-0.267l-0.026,-0.265l-0.028,-0.264l-0.029,-0.262l-0.032,-0.261l-0.033,-0.259l-0.036,-0.259l-0.037,-0.256l-0.04,-0.256l-0.041,-0.254l-0.043,-0.252l-0.045,-0.251l-0.047,-0.25l-0.049,-0.249l-0.051,-0.247l-0.053,-0.246l-0.055,-0.244l-0.056,-0.243l-0.058,-0.242l-0.061,-0.241l-0.062,-0.239l-0.064,-0.238l-0.066,-0.236l-0.067,-0.235l-0.07,-0.234l-0.071,-0.233l-0.073,-0.231l-0.075,-0.23l-0.076,-0.229l-0.079,-0.227l-0.08,-0.227l-0.082,-0.224l-0.084,-0.224l-0.085,-0.222l-0.088,-0.222l-0.089,-0.219l-0.091,-0.219l-0.092,-0.217l-0.094,-0.217l-0.096,-0.214l-0.098,-0.214l-0.1,-0.213l-0.101,-0.211l-0.103,-0.21l-0.104,-0.209l-0.107,-0.208l-0.108,-0.206l-0.11,-0.205l-0.111,-0.204l-0.113,-0.203l-0.115,-0.202l-0.116,-0.201l-0.118,-0.199l-0.12,-0.198l-0.121,-0.197l-0.124,-0.196l-0.124,-0.195l-0.127,-0.193l-0.128,-0.193l-0.129,-0.191l-0.132,-0.19l-0.133,-0.189l-0.134,-0.188l-0.136,-0.187l-0.138,-0.186l-0.14,-0.184l-0.141,-0.183l-0.142,-0.183l-0.144,-0.181l-0.146,-0.18l-0.148,-0.179l-0.149,-0.178l-0.15,-0.177l-0.153,-0.175l-0.153,-0.175l-0.156,-0.173l-0.157,-0.173l-0.158,-0.171l-0.16,-0.17l-0.162,-0.169l-0.163,-0.168l-0.165,-0.167l-0.166,-0.166l-0.168,-0.165l-0.169,-0.164l-0.171,-0.162l-0.172,-0.162l-0.174,-0.16l-0.176,-0.16l-0.176,-0.158l-0.179,-0.157l-0.18,-0.156l-0.181,-0.156l-0.183,-0.154l-0.185,-0.153l-0.186,-0.152l-0.187,-0.15l-0.189,-0.15l-0.191,-0.149l-0.192,-0.148l-0.193,-0.146l-0.195,-0.146l-0.196,-0.144l-0.198,-0.144l-0.199,-0.142l-0.2,-0.142l-0.202,-0.14l-0.204,-0.139l-0.205,-0.138l-0.206,-0.137l-0.208,-0.137l-0.209,-0.135l-0.21,-0.133l-0.212,-0.133l-0.214,-0.132l-0.214,-0.131l-0.216,-0.13l-0.218,-0.129l-0.219,-0.127l-0.22,-0.127l-0.221,-0.125l-0.223,-0.125l-0.225,-0.123l-0.225,-0.123l-0.227,-0.121l-0.228,-0.12l-0.23,-0.12l-0.231,-0.118l-0.232,-0.117l-0.234,-0.116l-0.234,-0.115l-0.236,-0.114l-0.238,-0.113l-0.238,-0.112l-0.24,-0.111l-0.241,-0.11l-0.243,-0.109l-0.244,-0.107l-0.245,-0.107l-0.246,-0.106l-0.247,-0.104l-0.249,-0.104l-0.25,-0.102l-0.251,-0.102l-0.252,-0.1l-0.254,-0.1l-0.254,-0.098l-0.256,-0.097l-0.257,-0.097l-0.258,-0.095l-0.26,-0.094l-0.26,-0.093l-0.262,-0.092l-0.263,-0.091l-0.264,-0.09l-0.265,-0.089l-0.266,-0.088l-0.267,-0.087l-0.269,-0.086l-0.27,-0.085l-0.27,-0.084l-0.272,-0.083l-0.273,-0.082l-0.274,-0.08l-0.275,-0.08l-0.276,-0.079l-0.277,-0.077l-0.278,-0.077l-0.279,-0.076l-0.281,-0.074l-0.281,-0.074l-0.282,-0.072l-0.284,-0.072l-0.284,-0.07l-0.285,-0.069l-0.287,-0.069l-0.287,-0.067l-0.288,-0.067l-0.29,-0.065l-0.29,-0.064l-0.291,-0.064l-0.292,-0.062l-0.293,-0.061l-0.294,-0.061l-0.295,-0.059l-0.296,-0.058l-0.297,-0.057l-0.298,-0.056l-0.298,-0.056l-0.3,-0.054l-0.3,-0.053l-0.302,-0.052l-0.302,-0.051l-0.303,-0.051l-0.304,-0.049l-0.304,-0.048l-0.306,-0.047l-0.306,-0.046l-0.308,-0.045l-0.308,-0.045l-0.309,-0.043l-0.309,-0.042l-0.311,-0.041l-0.311,-0.04l-0.312,-0.039l-0.313,-0.039l-0.314,-0.037l-0.314,-0.036l-0.316,-0.035l-0.316,-0.034l-0.316,-0.034l-0.318,-0.032l-0.318,-0.031l-0.319,-0.03l-0.319,-0.03l-0.321,-0.028l-0.321,-0.027l-0.322,-0.027l-0.322,-0.025l-0.323,-0.025l-0.324,-0.023l-0.324,-0.023l-0.325,-0.021l-0.326,-0.021l-0.327,-0.019l-0.327,-0.019l-0.327,-0.017l-0.329,-0.017l-0.329,-0.016l-0.329,-0.015l-0.33,-0.013l-0.331,-0.013l-0.332,-0.012l-0.332,-0.011l-0.332,-0.01l-0.333,-0.009l-0.334,-0.008l-0.334,-0.007l-0.335,-0.006l-0.335,-0.005l-0.336,-0.005l-0.336,-0.003l-0.337,-0.002l-0.338,-0.002l-0.338,0l-0.339,0Z" style="fill:#275623;"/><path d="M209.583,49.05l0.721,0.003l0.72,0.004l0.717,0.007l0.714,0.009l0.712,0.011l0.709,0.014l0.705,0.017l0.354,0.009l0.351,0.011l0.351,0.011l0.349,0.012l0.35,0.012l0.348,0.014l0.347,0.014l0.347,0.016l0.346,0.016l0.345,0.017l0.345,0.018l0.343,0.02l0.343,0.02l0.342,0.021l0.341,0.022l0.34,0.024l0.339,0.024l0.338,0.026l0.338,0.027l0.336,0.028l0.336,0.029l0.335,0.03l0.333,0.032l0.333,0.033l0.332,0.034l0.331,0.036l0.329,0.037l0.329,0.038l0.328,0.04l0.327,0.041l0.326,0.042l0.324,0.044l0.324,0.046l0.323,0.047l0.321,0.049l0.321,0.05l0.319,0.051l0.319,0.054l0.317,0.055l0.316,0.057l0.315,0.058l0.314,0.06l0.313,0.062l0.311,0.063l0.31,0.066l0.31,0.067l0.308,0.069l0.306,0.071l0.306,0.073l0.304,0.075l0.303,0.076l0.302,0.079l0.301,0.081l0.299,0.083l0.298,0.085l0.297,0.086l0.295,0.09l0.294,0.091l0.293,0.093l0.291,0.096l0.29,0.097l0.289,0.1l0.287,0.103l0.286,0.104l0.284,0.107l0.283,0.11l0.282,0.111l0.279,0.114l0.279,0.117l0.277,0.119l0.275,0.121l0.274,0.124l0.273,0.127l0.27,0.129l0.27,0.132l0.267,0.134l0.266,0.137l0.264,0.14l0.261,0.141l0.133,0.074l0.13,0.073l0.13,0.073l0.129,0.074l0.129,0.075l0.128,0.076l0.128,0.077l0.128,0.077l0.127,0.077l0.127,0.079l0.126,0.079l0.126,0.08l0.125,0.081l0.125,0.081l0.125,0.082l0.124,0.083l0.123,0.084l0.123,0.084l0.123,0.085l0.122,0.086l0.122,0.086l0.121,0.087l0.12,0.088l0.12,0.089l0.12,0.089l0.119,0.091l0.119,0.091l0.118,0.091l0.118,0.093l0.117,0.093l0.117,0.094l0.116,0.095l0.115,0.096l0.115,0.096l0.115,0.097l0.114,0.098l0.114,0.099l0.113,0.099l0.112,0.1l0.112,0.101l0.112,0.102l0.11,0.103l0.111,0.103l0.11,0.104l0.109,0.105l0.108,0.106l0.109,0.106l0.107,0.108l0.107,0.108l0.107,0.109l0.105,0.109l0.106,0.111l0.104,0.111l0.105,0.112l0.103,0.113l0.103,0.114l0.103,0.115l0.102,0.115l0.101,0.116l0.1,0.117l0.1,0.118l0.1,0.119l0.099,0.119l0.098,0.121l0.098,0.121l0.097,0.122l0.096,0.123l0.096,0.123l0.095,0.125l0.095,0.125l0.094,0.126l0.093,0.127l0.093,0.128l0.092,0.128l0.091,0.13l0.091,0.13l0.09,0.131l0.09,0.132l0.089,0.133l0.088,0.133l0.088,0.135l0.087,0.135l0.087,0.136l0.085,0.137l0.085,0.138l0.085,0.139l0.084,0.139l0.083,0.141l0.082,0.141l0.082,0.142l0.082,0.143l0.08,0.144l0.08,0.145l0.079,0.145l0.079,0.147l0.078,0.147l0.077,0.148l0.077,0.149l0.075,0.15l0.076,0.15l0.074,0.152l0.074,0.152l0.073,0.154l0.073,0.154l0.072,0.155l0.071,0.156l0.07,0.157l0.07,0.157l0.07,0.159l0.068,0.159l0.068,0.161l0.067,0.161l0.066,0.162l0.066,0.163l0.065,0.164l0.065,0.165l0.063,0.165l0.063,0.167l0.063,0.167l0.061,0.169l0.061,0.169l0.06,0.17l0.06,0.171l0.059,0.172l0.058,0.173l0.058,0.174l0.056,0.175l0.056,0.175l0.056,0.177l0.054,0.177l0.054,0.179l0.054,0.179l0.052,0.18l0.052,0.181l0.051,0.182l0.051,0.183l0.05,0.184l0.049,0.185l0.048,0.186l0.048,0.187l0.047,0.187l0.046,0.189l0.045,0.19l0.045,0.19l0.044,0.192l0.044,0.192l0.042,0.193l0.042,0.195l0.042,0.195l0.04,0.196l0.04,0.198l0.039,0.198l0.038,0.199l0.038,0.2l0.037,0.201l0.036,0.203l0.036,0.203l0.035,0.204l0.034,0.205l0.033,0.206l0.033,0.207l0.032,0.208l0.031,0.209l0.03,0.21l0.03,0.211l0.029,0.212l0.028,0.213l0.028,0.214l0.027,0.215l0.026,0.216l0.025,0.217l0.025,0.219l0.024,0.219l0.023,0.22l0.022,0.221l0.022,0.222l0.021,0.224l0.02,0.224l0.02,0.225l0.018,0.227l0.018,0.227l0.018,0.229l0.016,0.229l0.016,0.231l0.015,0.232l0.014,0.232l0.014,0.234l0.012,0.235l0.012,0.236l0.012,0.237l0.01,0.238l0.01,0.239l0.009,0.24l0.008,0.242l0.008,0.242l0.007,0.244l0.006,0.244l0.005,0.246l0.005,0.247l0.003,0.248l0.003,0.248l0.002,0.251l0.002,0.251l0.001,0.253l-0.001,0.507l-0.004,0.513l-0.007,0.517l-0.01,0.521l-0.014,0.526l-0.016,0.531l-0.019,0.535l-0.023,0.54l-0.026,0.544l-0.029,0.55l-0.032,0.554l-0.035,0.558l-0.038,0.564l-0.042,0.568l-0.044,0.573l-0.048,0.578l-0.051,0.582l-0.055,0.588l-0.057,0.592l-0.061,0.597l-0.064,0.603l-0.067,0.607l-0.067,0.579l-1.612,19.214l-3.711,-0.311l1.616,-19.272l0.073,-0.629l0.065,-0.591l0.063,-0.585l0.059,-0.581l0.056,-0.575l0.052,-0.57l0.05,-0.565l0.046,-0.56l0.044,-0.555l0.04,-0.549l0.037,-0.545l0.034,-0.54l0.031,-0.534l0.028,-0.53l0.024,-0.525l0.022,-0.519l0.019,-0.515l0.015,-0.51l0.013,-0.505l0.01,-0.5l0.007,-0.495l0.003,-0.491l0.001,-0.487l0,-0.239l-0.002,-0.24l-0.002,-0.239l-0.003,-0.237l-0.003,-0.236l-0.005,-0.235l-0.005,-0.234l-0.005,-0.233l-0.007,-0.231l-0.007,-0.231l-0.008,-0.229l-0.008,-0.228l-0.01,-0.227l-0.01,-0.225l-0.01,-0.225l-0.012,-0.223l-0.012,-0.222l-0.013,-0.221l-0.013,-0.22l-0.014,-0.219l-0.015,-0.217l-0.016,-0.216l-0.016,-0.216l-0.017,-0.214l-0.018,-0.213l-0.018,-0.212l-0.019,-0.21l-0.02,-0.21l-0.02,-0.208l-0.021,-0.207l-0.022,-0.207l-0.022,-0.205l-0.023,-0.204l-0.024,-0.202l-0.024,-0.202l-0.025,-0.201l-0.026,-0.199l-0.026,-0.199l-0.027,-0.197l-0.028,-0.196l-0.028,-0.195l-0.029,-0.194l-0.03,-0.193l-0.03,-0.192l-0.031,-0.19l-0.031,-0.19l-0.032,-0.189l-0.033,-0.187l-0.033,-0.186l-0.035,-0.186l-0.034,-0.184l-0.036,-0.183l-0.035,-0.182l-0.037,-0.181l-0.037,-0.18l-0.038,-0.179l-0.038,-0.178l-0.039,-0.177l-0.04,-0.176l-0.04,-0.175l-0.041,-0.173l-0.042,-0.173l-0.042,-0.171l-0.042,-0.171l-0.044,-0.17l-0.044,-0.168l-0.044,-0.168l-0.045,-0.166l-0.046,-0.166l-0.046,-0.164l-0.047,-0.164l-0.047,-0.162l-0.048,-0.162l-0.049,-0.16l-0.049,-0.16l-0.049,-0.158l-0.051,-0.157l-0.051,-0.157l-0.051,-0.155l-0.052,-0.155l-0.053,-0.153l-0.053,-0.153l-0.053,-0.152l-0.055,-0.15l-0.054,-0.15l-0.056,-0.149l-0.056,-0.147l-0.056,-0.147l-0.057,-0.146l-0.058,-0.145l-0.058,-0.144l-0.058,-0.143l-0.06,-0.142l-0.059,-0.141l-0.06,-0.141l-0.061,-0.139l-0.061,-0.138l-0.062,-0.138l-0.063,-0.136l-0.063,-0.136l-0.063,-0.135l-0.064,-0.134l-0.064,-0.133l-0.065,-0.132l-0.066,-0.131l-0.066,-0.13l-0.066,-0.13l-0.067,-0.128l-0.068,-0.128l-0.068,-0.127l-0.069,-0.126l-0.069,-0.125l-0.069,-0.124l-0.07,-0.123l-0.071,-0.123l-0.071,-0.122l-0.072,-0.121l-0.072,-0.12l-0.072,-0.119l-0.074,-0.118l-0.073,-0.118l-0.074,-0.116l-0.075,-0.116l-0.075,-0.115l-0.075,-0.115l-0.077,-0.113l-0.076,-0.113l-0.077,-0.112l-0.078,-0.111l-0.078,-0.11l-0.078,-0.11l-0.079,-0.109l-0.079,-0.108l-0.08,-0.107l-0.081,-0.106l-0.081,-0.106l-0.081,-0.105l-0.082,-0.104l-0.082,-0.104l-0.083,-0.103l-0.083,-0.101l-0.084,-0.102l-0.084,-0.1l-0.085,-0.1l-0.085,-0.099l-0.086,-0.099l-0.086,-0.097l-0.087,-0.097l-0.087,-0.096l-0.087,-0.096l-0.089,-0.095l-0.088,-0.094l-0.089,-0.093l-0.09,-0.093l-0.089,-0.092l-0.091,-0.091l-0.091,-0.091l-0.091,-0.09l-0.092,-0.089l-0.092,-0.089l-0.093,-0.088l-0.093,-0.087l-0.094,-0.087l-0.094,-0.086l-0.095,-0.086l-0.095,-0.084l-0.096,-0.085l-0.096,-0.083l-0.097,-0.083l-0.096,-0.082l-0.098,-0.082l-0.098,-0.081l-0.098,-0.08l-0.099,-0.08l-0.1,-0.079l-0.1,-0.079l-0.1,-0.077l-0.101,-0.078l-0.101,-0.076l-0.102,-0.077l-0.102,-0.075l-0.103,-0.075l-0.103,-0.074l-0.104,-0.074l-0.104,-0.073l-0.104,-0.073l-0.106,-0.072l-0.105,-0.071l-0.106,-0.071l-0.107,-0.07l-0.107,-0.07l-0.107,-0.069l-0.108,-0.069l-0.108,-0.068l-0.109,-0.067l-0.11,-0.067l-0.109,-0.066l-0.111,-0.066l-0.111,-0.065l-0.111,-0.065l-0.111,-0.064l-0.113,-0.064l-0.112,-0.063l-0.111,-0.061l-0.23,-0.125l-0.229,-0.121l-0.232,-0.119l-0.233,-0.117l-0.235,-0.115l-0.237,-0.113l-0.239,-0.111l-0.24,-0.109l-0.243,-0.107l-0.244,-0.105l-0.246,-0.103l-0.248,-0.101l-0.25,-0.099l-0.251,-0.098l-0.254,-0.095l-0.255,-0.093l-0.257,-0.092l-0.259,-0.089l-0.26,-0.088l-0.262,-0.086l-0.264,-0.084l-0.266,-0.083l-0.267,-0.08l-0.269,-0.079l-0.271,-0.077l-0.273,-0.076l-0.274,-0.073l-0.276,-0.072l-0.277,-0.071l-0.279,-0.068l-0.281,-0.067l-0.283,-0.065l-0.284,-0.064l-0.285,-0.062l-0.288,-0.061l-0.288,-0.059l-0.291,-0.057l-0.292,-0.056l-0.293,-0.054l-0.295,-0.053l-0.296,-0.052l-0.298,-0.05l-0.3,-0.048l-0.301,-0.047l-0.302,-0.046l-0.304,-0.044l-0.305,-0.043l-0.307,-0.042l-0.308,-0.04l-0.309,-0.039l-0.311,-0.038l-0.312,-0.036l-0.314,-0.035l-0.315,-0.034l-0.316,-0.033l-0.317,-0.031l-0.319,-0.03l-0.32,-0.029l-0.321,-0.028l-0.323,-0.027l-0.324,-0.026l-0.325,-0.024l-0.326,-0.024l-0.328,-0.023l-0.328,-0.021l-0.33,-0.021l-0.331,-0.019l-0.332,-0.019l-0.334,-0.017l-0.334,-0.017l-0.336,-0.016l-0.336,-0.015l-0.338,-0.014l-0.339,-0.013l-0.34,-0.012l-0.34,-0.012l-0.342,-0.011l-0.343,-0.01l-0.343,-0.009l-0.692,-0.016l-0.694,-0.014l-0.699,-0.011l-0.702,-0.009l-0.705,-0.006l-0.709,-0.005l-0.713,-0.003l-0.715,0l-0.719,0l-0.721,0.002l-0.725,0.004l-0.727,0.004l-1.464,0.011l-1.473,0.013l-1.482,0.014l-1.491,0.013l-0.748,0.006l-0.751,0.005l-0.752,0.004l-0.753,0.004l-0.756,0.002l-0.756,0.001l-1.435,-0.002l-1.436,-0.002l-1.435,-0.002l-1.433,-0.002l-0.715,0l-0.715,0.001l-0.714,0.002l-0.713,0.002l-0.712,0.004l-0.71,0.005l-0.709,0.007l-0.708,0.008l-0.706,0.01l-0.704,0.012l-0.702,0.014l-0.701,0.016l-0.698,0.018l-0.696,0.021l-0.694,0.024l-0.345,0.013l-0.345,0.014l-0.345,0.014l-0.344,0.015l-0.343,0.016l-0.342,0.016l-0.342,0.018l-0.341,0.018l-0.34,0.019l-0.34,0.02l-0.338,0.021l-0.338,0.021l-0.337,0.023l-0.336,0.024l-0.336,0.024l-0.334,0.026l-0.334,0.026l-0.333,0.028l-0.331,0.028l-0.331,0.029l-0.33,0.031l-0.329,0.032l-0.328,0.032l-0.327,0.034l-0.326,0.035l-0.325,0.036l-0.324,0.037l-0.323,0.039l-0.322,0.039l-0.32,0.041l-0.32,0.042l-0.319,0.043l-0.317,0.045l-0.316,0.046l-0.315,0.047l-0.314,0.048l-0.312,0.05l-0.312,0.051l-0.31,0.052l-0.309,0.054l-0.307,0.055l-0.307,0.057l-0.305,0.058l-0.304,0.059l-0.302,0.061l-0.301,0.062l-0.3,0.064l-0.298,0.065l-0.297,0.067l-0.295,0.069l-0.294,0.069l-0.293,0.072l-0.291,0.073l-0.29,0.074l-0.288,0.077l-0.287,0.077l-0.285,0.08l-0.284,0.081l-0.282,0.083l-0.28,0.084l-0.279,0.086l-0.278,0.088l-0.275,0.09l-0.274,0.091l-0.273,0.093l-0.271,0.095l-0.269,0.097l-0.268,0.098l-0.265,0.1l-0.265,0.102l-0.262,0.104l-0.261,0.106l-0.259,0.107l-0.257,0.109l-0.256,0.112l-0.253,0.113l-0.252,0.115l-0.25,0.117l-0.249,0.119l-0.246,0.121l-0.245,0.123l-0.243,0.125l-0.241,0.127l-0.239,0.129l-0.237,0.131l-0.236,0.133l-0.233,0.135l-0.232,0.137l-0.232,0.141l-0.112,0.069l-0.114,0.071l-0.113,0.071l-0.113,0.072l-0.112,0.073l-0.112,0.073l-0.111,0.074l-0.111,0.074l-0.11,0.075l-0.11,0.075l-0.11,0.076l-0.108,0.076l-0.109,0.077l-0.108,0.077l-0.107,0.079l-0.107,0.078l-0.107,0.079l-0.106,0.08l-0.105,0.08l-0.105,0.081l-0.105,0.082l-0.104,0.082l-0.103,0.082l-0.103,0.084l-0.103,0.083l-0.102,0.085l-0.101,0.085l-0.102,0.085l-0.1,0.086l-0.1,0.087l-0.1,0.087l-0.099,0.088l-0.098,0.089l-0.099,0.089l-0.097,0.09l-0.097,0.09l-0.097,0.091l-0.096,0.091l-0.095,0.093l-0.096,0.093l-0.094,0.093l-0.094,0.094l-0.094,0.095l-0.093,0.095l-0.092,0.096l-0.092,0.097l-0.092,0.097l-0.091,0.098l-0.091,0.099l-0.09,0.099l-0.089,0.1l-0.089,0.1l-0.089,0.102l-0.088,0.102l-0.087,0.102l-0.087,0.103l-0.086,0.104l-0.086,0.105l-0.086,0.105l-0.085,0.106l-0.084,0.107l-0.084,0.107l-0.083,0.108l-0.083,0.109l-0.082,0.11l-0.082,0.11l-0.082,0.111l-0.08,0.111l-0.08,0.113l-0.08,0.113l-0.079,0.114l-0.079,0.114l-0.078,0.115l-0.078,0.117l-0.077,0.116l-0.076,0.118l-0.076,0.118l-0.076,0.119l-0.074,0.12l-0.075,0.12l-0.074,0.122l-0.073,0.122l-0.073,0.122l-0.072,0.124l-0.071,0.124l-0.072,0.126l-0.07,0.126l-0.07,0.126l-0.07,0.128l-0.068,0.128l-0.069,0.129l-0.068,0.13l-0.067,0.131l-0.066,0.132l-0.066,0.132l-0.066,0.133l-0.065,0.134l-0.064,0.135l-0.064,0.136l-0.063,0.136l-0.063,0.138l-0.062,0.138l-0.062,0.139l-0.061,0.14l-0.06,0.141l-0.06,0.141l-0.059,0.143l-0.058,0.143l-0.058,0.144l-0.058,0.145l-0.057,0.146l-0.056,0.147l-0.056,0.148l-0.055,0.148l-0.054,0.15l-0.054,0.15l-0.053,0.151l-0.053,0.153l-0.052,0.153l-0.051,0.154l-0.051,0.154l-0.05,0.156l-0.049,0.157l-0.049,0.157l-0.048,0.159l-0.048,0.159l-0.047,0.161l-0.046,0.161l-0.046,0.162l-0.045,0.163l-0.044,0.164l-0.044,0.165l-0.043,0.166l-0.043,0.167l-0.042,0.168l-0.041,0.169l-0.04,0.17l-0.04,0.17l-0.04,0.172l-0.038,0.173l-0.038,0.173l-0.037,0.175l-0.037,0.175l-0.036,0.177l-0.035,0.178l-0.034,0.178l-0.034,0.179l-0.033,0.181l-0.033,0.181l-0.031,0.183l-0.032,0.183l-0.03,0.185l-0.03,0.185l-0.029,0.186l-0.028,0.188l-0.028,0.188l-0.026,0.19l-0.027,0.19l-0.025,0.192l-0.025,0.192l-0.024,0.194l-0.023,0.194l-0.023,0.196l-0.022,0.196l-0.021,0.198l-0.02,0.199l-0.02,0.199l-0.019,0.201l-0.018,0.202l-0.017,0.202l-0.017,0.204l-0.016,0.205l-0.015,0.206l-0.015,0.207l-0.014,0.208l-0.013,0.209l-0.012,0.21l-0.011,0.211l-0.011,0.213l-0.01,0.213l-0.009,0.214l-0.009,0.216l-0.007,0.216l-0.007,0.218l-0.006,0.219l-0.005,0.219l-0.005,0.221l-0.004,0.222l-0.003,0.223l-0.002,0.224l-0.001,0.225l-0.001,0.227l0,0.227l0.001,0.229l0.002,0.229l0.003,0.231l0.003,0.232l0.004,0.232l0.005,0.234l0.006,0.236l0.007,0.236l0.007,0.237l0.008,0.238l0.009,0.24l0.01,0.241l0.011,0.241l0.011,0.243l0.013,0.244l0.013,0.246l0.014,0.246l0.015,0.247l0.015,0.249l0.017,0.249l0.017,0.251l0.019,0.252l0.019,0.253l0.02,0.255l0.02,0.255l0.022,0.257l0.022,0.257l0.024,0.259l0.024,0.26l0.025,0.261l0.026,0.263l0.027,0.263l0.027,0.265l0.029,0.266l0.029,0.267l0.03,0.268l0.031,0.268l0.065,0.544l0.069,0.547l0.072,0.551l0.075,0.557l0.079,0.561l0.084,0.571l2.855,19.616l-3.686,0.536l-2.855,-19.615l-0.084,-0.579l-0.082,-0.58l-0.078,-0.576l-0.075,-0.571l-0.071,-0.566l-0.067,-0.561l-0.032,-0.281l-0.032,-0.278l-0.03,-0.277l-0.03,-0.276l-0.028,-0.275l-0.028,-0.274l-0.027,-0.273l-0.026,-0.272l-0.025,-0.27l-0.025,-0.27l-0.023,-0.268l-0.022,-0.268l-0.022,-0.266l-0.021,-0.265l-0.02,-0.265l-0.019,-0.263l-0.018,-0.262l-0.017,-0.261l-0.017,-0.26l-0.015,-0.259l-0.015,-0.258l-0.014,-0.256l-0.013,-0.256l-0.012,-0.255l-0.011,-0.254l-0.01,-0.252l-0.01,-0.252l-0.008,-0.25l-0.008,-0.25l-0.007,-0.248l-0.006,-0.248l-0.006,-0.246l-0.004,-0.246l-0.004,-0.244l-0.002,-0.244l-0.002,-0.242l-0.001,-0.241l0,-0.241l0,-0.239l0.002,-0.239l0.002,-0.237l0.003,-0.236l0.004,-0.236l0.005,-0.234l0.006,-0.233l0.006,-0.233l0.007,-0.231l0.009,-0.231l0.009,-0.229l0.009,-0.228l0.011,-0.228l0.011,-0.226l0.013,-0.226l0.013,-0.225l0.014,-0.223l0.014,-0.223l0.016,-0.221l0.016,-0.221l0.017,-0.22l0.018,-0.219l0.019,-0.218l0.02,-0.216l0.02,-0.216l0.021,-0.215l0.022,-0.215l0.023,-0.213l0.024,-0.212l0.024,-0.211l0.025,-0.21l0.026,-0.21l0.027,-0.208l0.028,-0.208l0.028,-0.206l0.029,-0.206l0.03,-0.205l0.031,-0.204l0.031,-0.203l0.033,-0.202l0.033,-0.201l0.034,-0.2l0.035,-0.199l0.035,-0.198l0.036,-0.198l0.037,-0.197l0.038,-0.195l0.039,-0.195l0.039,-0.194l0.04,-0.193l0.041,-0.192l0.042,-0.191l0.043,-0.19l0.043,-0.19l0.044,-0.188l0.045,-0.188l0.045,-0.187l0.047,-0.186l0.047,-0.185l0.047,-0.184l0.049,-0.183l0.049,-0.182l0.051,-0.182l0.051,-0.18l0.051,-0.18l0.053,-0.179l0.053,-0.178l0.054,-0.177l0.054,-0.177l0.056,-0.175l0.056,-0.175l0.057,-0.174l0.058,-0.173l0.058,-0.172l0.059,-0.171l0.06,-0.17l0.061,-0.17l0.061,-0.168l0.062,-0.168l0.063,-0.167l0.064,-0.166l0.064,-0.165l0.065,-0.165l0.066,-0.163l0.067,-0.163l0.067,-0.162l0.068,-0.161l0.069,-0.161l0.069,-0.159l0.07,-0.159l0.071,-0.157l0.072,-0.157l0.072,-0.156l0.073,-0.156l0.074,-0.154l0.074,-0.154l0.075,-0.153l0.076,-0.152l0.077,-0.151l0.077,-0.15l0.078,-0.15l0.079,-0.148l0.079,-0.148l0.08,-0.147l0.081,-0.146l0.081,-0.146l0.082,-0.145l0.083,-0.143l0.084,-0.143l0.084,-0.143l0.085,-0.141l0.085,-0.141l0.087,-0.139l0.087,-0.139l0.087,-0.138l0.088,-0.138l0.089,-0.136l0.09,-0.136l0.09,-0.135l0.091,-0.134l0.092,-0.134l0.092,-0.132l0.093,-0.132l0.093,-0.131l0.094,-0.13l0.095,-0.129l0.096,-0.129l0.096,-0.128l0.096,-0.127l0.098,-0.126l0.098,-0.126l0.098,-0.124l0.099,-0.124l0.1,-0.123l0.101,-0.123l0.101,-0.121l0.102,-0.121l0.102,-0.12l0.103,-0.119l0.103,-0.118l0.104,-0.118l0.105,-0.117l0.105,-0.116l0.106,-0.115l0.107,-0.115l0.107,-0.114l0.108,-0.113l0.108,-0.112l0.109,-0.111l0.109,-0.111l0.11,-0.11l0.111,-0.109l0.111,-0.109l0.111,-0.108l0.113,-0.107l0.112,-0.106l0.114,-0.105l0.114,-0.105l0.114,-0.104l0.115,-0.103l0.115,-0.103l0.116,-0.102l0.117,-0.101l0.117,-0.1l0.118,-0.099l0.118,-0.099l0.119,-0.098l0.119,-0.098l0.12,-0.096l0.12,-0.096l0.121,-0.095l0.121,-0.095l0.122,-0.094l0.122,-0.093l0.123,-0.092l0.123,-0.092l0.123,-0.091l0.125,-0.09l0.124,-0.089l0.126,-0.089l0.125,-0.088l0.126,-0.088l0.127,-0.087l0.127,-0.086l0.128,-0.085l0.128,-0.085l0.128,-0.084l0.129,-0.083l0.129,-0.083l0.13,-0.082l0.13,-0.081l0.133,-0.082l0.261,-0.158l0.265,-0.156l0.266,-0.155l0.268,-0.151l0.269,-0.149l0.272,-0.146l0.273,-0.144l0.274,-0.141l0.277,-0.139l0.277,-0.136l0.28,-0.134l0.281,-0.131l0.282,-0.129l0.284,-0.127l0.285,-0.124l0.287,-0.122l0.289,-0.12l0.289,-0.118l0.292,-0.115l0.292,-0.113l0.294,-0.111l0.295,-0.108l0.297,-0.107l0.298,-0.104l0.3,-0.102l0.3,-0.1l0.302,-0.098l0.303,-0.096l0.305,-0.094l0.305,-0.092l0.307,-0.09l0.308,-0.088l0.31,-0.087l0.31,-0.084l0.312,-0.082l0.312,-0.081l0.314,-0.079l0.315,-0.076l0.317,-0.076l0.317,-0.073l0.318,-0.072l0.319,-0.069l0.321,-0.069l0.321,-0.066l0.323,-0.065l0.323,-0.063l0.324,-0.062l0.326,-0.06l0.326,-0.059l0.328,-0.057l0.328,-0.055l0.329,-0.054l0.33,-0.052l0.331,-0.051l0.332,-0.05l0.333,-0.048l0.333,-0.047l0.335,-0.045l0.335,-0.045l0.336,-0.042l0.337,-0.042l0.337,-0.04l0.339,-0.039l0.339,-0.037l0.34,-0.037l0.341,-0.035l0.341,-0.034l0.342,-0.033l0.343,-0.032l0.343,-0.03l0.344,-0.03l0.345,-0.028l0.345,-0.028l0.346,-0.026l0.347,-0.025l0.347,-0.025l0.348,-0.023l0.348,-0.022l0.349,-0.022l0.349,-0.02l0.35,-0.02l0.351,-0.019l0.351,-0.018l0.351,-0.017l0.352,-0.016l0.353,-0.015l0.352,-0.015l0.354,-0.014l0.354,-0.013l0.708,-0.024l0.71,-0.021l0.711,-0.019l0.713,-0.017l0.714,-0.014l0.714,-0.012l0.716,-0.01l0.717,-0.008l0.717,-0.007l0.718,-0.005l0.718,-0.004l0.719,-0.003l0.718,-0.002l0.719,0l0.72,0l1.437,0.001l1.436,0.003l1.433,0.002l1.431,0.001l0.749,-0.001l0.749,-0.002l0.748,-0.003l0.748,-0.004l0.746,-0.006l0.745,-0.005l1.488,-0.014l1.482,-0.013l1.477,-0.013l1.469,-0.012l0.733,-0.004l0.73,-0.003l0.728,-0.002l0.727,-0.001l0.724,0.001Z" style="fill:#275623;"/><g><path d="M177.926,209.163l0.138,0.016l0.137,0.025l0.135,0.036l0.131,0.046l0.128,0.056l0.123,0.065l0.118,0.074l0.112,0.083l0.105,0.091l0.099,0.098l0.091,0.106l0.082,0.112l0.074,0.118l0.066,0.123l0.055,0.128l0.046,0.131l0.036,0.135l0.026,0.136l0.016,0.139l0.005,0.139l0,27.312l-0.005,0.139l-0.016,0.139l-0.026,0.137l-0.036,0.134l-0.046,0.132l-0.055,0.127l-0.066,0.123l-0.074,0.118l-0.082,0.112l-0.091,0.106l-0.099,0.098l-0.105,0.091l-0.112,0.083l-0.118,0.074l-0.123,0.065l-0.128,0.056l-0.131,0.046l-0.135,0.036l-0.137,0.026l-0.138,0.015l-0.139,0.005l-0.139,-0.005l-0.139,-0.015l-0.137,-0.026l-0.134,-0.036l-0.132,-0.046l-0.127,-0.056l-0.123,-0.065l-0.118,-0.074l-0.112,-0.083l-0.106,-0.091l-0.098,-0.098l-0.091,-0.106l-0.083,-0.112l-0.074,-0.118l-0.065,-0.123l-0.056,-0.127l-0.046,-0.132l-0.036,-0.134l-0.026,-0.137l-0.015,-0.139l-0.005,-0.139l0,-27.312l0.005,-0.139l0.015,-0.139l0.026,-0.136l0.036,-0.135l0.046,-0.131l0.056,-0.128l0.065,-0.123l0.074,-0.118l0.083,-0.112l0.091,-0.106l0.098,-0.098l0.106,-0.091l0.112,-0.083l0.118,-0.074l0.123,-0.065l0.127,-0.056l0.132,-0.046l0.134,-0.036l0.137,-0.025l0.139,-0.016l0.139,-0.005l0.139,0.005Z" style="fill:#275623;"/><path d="M213.929,209.163l0.138,0.016l0.137,0.025l0.134,0.036l0.132,0.046l0.127,0.056l0.123,0.065l0.118,0.074l0.112,0.083l0.106,0.091l0.098,0.098l0.091,0.106l0.083,0.112l0.074,0.118l0.065,0.123l0.056,0.128l0.046,0.131l0.036,0.135l0.026,0.136l0.015,0.139l0.006,0.139l0,27.312l-0.006,0.139l-0.015,0.139l-0.026,0.137l-0.036,0.134l-0.046,0.132l-0.056,0.127l-0.065,0.123l-0.074,0.118l-0.083,0.112l-0.091,0.106l-0.098,0.098l-0.106,0.091l-0.112,0.083l-0.118,0.074l-0.123,0.065l-0.127,0.056l-0.132,0.046l-0.134,0.036l-0.137,0.026l-0.138,0.015l-0.14,0.005l-0.139,-0.005l-0.138,-0.015l-0.137,-0.026l-0.135,-0.036l-0.131,-0.046l-0.128,-0.056l-0.123,-0.065l-0.118,-0.074l-0.112,-0.083l-0.105,-0.091l-0.099,-0.098l-0.091,-0.106l-0.082,-0.112l-0.074,-0.118l-0.065,-0.123l-0.056,-0.127l-0.046,-0.132l-0.036,-0.134l-0.026,-0.137l-0.016,-0.139l-0.005,-0.139l0,-27.312l0.005,-0.139l0.016,-0.139l0.026,-0.136l0.036,-0.135l0.046,-0.131l0.056,-0.128l0.065,-0.123l0.074,-0.118l0.082,-0.112l0.091,-0.106l0.099,-0.098l0.105,-0.091l0.112,-0.083l0.118,-0.074l0.123,-0.065l0.128,-0.056l0.131,-0.046l0.135,-0.036l0.137,-0.025l0.138,-0.016l0.139,-0.005l0.14,0.005Z" style="fill:#275623;"/></g><path d="M111.368,242.926l41.962,0" style="fill:none;stroke:#275623;stroke-width:3.72px;"/><path d="M88.773,275.08l2.607,-5.711" style="fill:none;stroke:#275623;stroke-width:3.72px;"/><path d="M237.75,242.926l50.031,0c0.993,0 1.862,0.62 2.235,1.49l27.188,61.825c0.745,1.614 -0.497,3.476 -2.235,3.476l-241.466,0" style="fill:none;stroke:#275623;stroke-width:3.72px;"/><path d="M141.784,137.401c-3.6,-0.745 -6.952,-3.601 -8.442,-7.697c-2.11,-5.835 0.373,-12.167 5.463,-13.905c1.241,-0.496 2.607,-0.621 3.848,-0.496" style="fill:none;stroke:#275623;stroke-width:3.72px;"/><path d="M250.164,137.401c3.601,-0.745 6.953,-3.601 8.442,-7.697c2.111,-5.835 -0.372,-12.167 -5.462,-13.905c-1.241,-0.496 -2.359,-0.372 -3.724,-0.124" style="fill:none;stroke:#275623;stroke-width:3.72px;"/><path d="M191.07,135.539l-0.869,3.103" style="fill:none;stroke:#275623;stroke-width:3.72px;"/><path d="M200.133,135.539l0.869,3.103" style="fill:none;stroke:#275623;stroke-width:3.72px;"/><path d="M158.916,115.551c1.366,-3.104 4.966,-5.339 9.187,-5.339c3.973,0 7.449,1.987 8.939,4.966" style="fill:none;stroke:#275623;stroke-width:3.72px;"/><circle cx="164.627" cy="118.53" r="3.104" style="fill:#275623;"/><path d="M213.541,115.551c1.366,-3.104 4.966,-5.339 9.187,-5.339c3.973,0 7.449,1.987 8.939,4.966" style="fill:none;stroke:#275623;stroke-width:3.72px;"/><circle cx="219.252" cy="118.53" r="3.104" style="fill:#275623;"/><path d="M211.555,101.77c2.483,-2.731 7.573,-4.717 13.408,-4.717c5.214,0 9.807,1.49 12.538,3.848" style="fill:none;stroke:#275623;stroke-width:3.72px;"/><path d="M180.394,101.77c-2.483,-2.731 -7.573,-4.717 -13.408,-4.717c-5.214,0 -9.808,1.49 -12.539,3.848" style="fill:none;stroke:#275623;stroke-width:3.72px;"/><path d="M279.96,285.756c0,7.201 0,14.526 0,21.726c0,2.359 3.724,2.359 3.724,0c0,-7.2 0,-14.525 0,-21.726c0,-2.358 -3.724,-2.358 -3.724,0Z" style="fill:#275623;fill-rule:nonzero;"/><path d="M109.878,285.756c0,7.201 0,14.526 0,21.726c0,2.359 3.725,2.359 3.725,0c0,-7.2 0,-14.525 0,-21.726c0,-2.358 -3.725,-2.358 -3.725,0Z" style="fill:#275623;fill-rule:nonzero;"/><path d="M153.676,240.972l0.236,0.061l0.226,0.091l0.212,0.12l0.194,0.146l0.174,0.171l0.173,0.193l0.168,0.184l0.172,0.185l0.175,0.183l0.177,0.183l0.181,0.182l0.183,0.181l0.187,0.181l0.189,0.179l0.192,0.179l0.195,0.179l0.198,0.177l0.201,0.177l0.203,0.175l0.206,0.175l0.21,0.174l0.211,0.174l0.215,0.172l0.218,0.171l0.22,0.171l0.223,0.169l0.226,0.169l0.228,0.167l0.231,0.167l0.234,0.166l0.236,0.164l0.239,0.164l0.242,0.163l0.244,0.161l0.247,0.161l0.249,0.159l0.252,0.158l0.255,0.158l0.257,0.156l0.259,0.155l0.262,0.154l0.265,0.152l0.267,0.152l0.269,0.15l0.272,0.149l0.275,0.148l0.276,0.147l0.279,0.146l0.282,0.144l0.284,0.143l0.286,0.142l0.288,0.14l0.291,0.14l0.293,0.138l0.295,0.136l0.298,0.135l0.3,0.134l0.302,0.133l0.304,0.131l0.306,0.13l0.309,0.129l0.311,0.127l0.312,0.125l0.315,0.125l0.317,0.122l0.32,0.122l0.321,0.12l0.323,0.118l0.325,0.117l0.328,0.116l0.329,0.114l0.331,0.112l0.333,0.111l0.336,0.11l0.337,0.108l0.339,0.106l0.341,0.105l0.343,0.103l0.344,0.102l0.347,0.1l0.348,0.099l0.35,0.097l0.352,0.095l0.354,0.093l0.356,0.092l0.357,0.091l0.359,0.088l0.361,0.087l0.362,0.086l0.364,0.083l0.366,0.082l0.367,0.08l0.369,0.079l0.371,0.076l0.372,0.075l0.374,0.074l0.375,0.071l0.377,0.07l0.379,0.067l0.38,0.066l0.381,0.065l0.383,0.062l0.385,0.061l0.386,0.058l0.387,0.057l0.389,0.055l0.39,0.053l0.391,0.052l0.393,0.049l0.394,0.048l0.396,0.045l0.397,0.044l0.398,0.042l0.399,0.039l0.401,0.038l0.402,0.036l0.403,0.034l0.405,0.032l0.405,0.03l0.407,0.028l0.408,0.026l0.409,0.024l0.411,0.021l0.411,0.02l0.413,0.018l0.413,0.016l0.415,0.014l0.415,0.011l0.417,0.01l0.418,0.007l0.419,0.005l0.419,0.004l0.421,0.001l0.418,-0.001l0.417,-0.004l0.416,-0.005l0.415,-0.007l0.415,-0.009l0.413,-0.012l0.412,-0.013l0.411,-0.016l0.41,-0.017l0.409,-0.019l0.408,-0.022l0.407,-0.023l0.406,-0.026l0.404,-0.027l0.404,-0.03l0.402,-0.031l0.401,-0.033l0.4,-0.035l0.399,-0.037l0.397,-0.04l0.396,-0.041l0.395,-0.042l0.394,-0.045l0.393,-0.047l0.391,-0.048l0.389,-0.051l0.389,-0.052l0.387,-0.054l0.385,-0.056l0.385,-0.058l0.383,-0.059l0.381,-0.062l0.38,-0.063l0.378,-0.065l0.377,-0.066l0.376,-0.069l0.374,-0.07l0.372,-0.072l0.371,-0.074l0.37,-0.075l0.367,-0.078l0.367,-0.079l0.364,-0.08l0.363,-0.083l0.361,-0.084l0.36,-0.085l0.358,-0.088l0.356,-0.089l0.354,-0.09l0.353,-0.092l0.351,-0.094l0.349,-0.096l0.348,-0.097l0.345,-0.099l0.344,-0.1l0.342,-0.102l0.34,-0.103l0.338,-0.105l0.336,-0.107l0.335,-0.108l0.332,-0.11l0.331,-0.111l0.328,-0.112l0.327,-0.115l0.325,-0.115l0.322,-0.117l0.321,-0.119l0.318,-0.12l0.317,-0.121l0.314,-0.123l0.312,-0.124l0.31,-0.126l0.308,-0.127l0.306,-0.129l0.304,-0.129l0.301,-0.132l0.3,-0.132l0.297,-0.134l0.294,-0.135l0.293,-0.137l0.29,-0.138l0.288,-0.139l0.286,-0.141l0.283,-0.141l0.281,-0.143l0.279,-0.145l0.277,-0.145l0.273,-0.147l0.272,-0.148l0.269,-0.149l0.267,-0.15l0.264,-0.152l0.262,-0.152l0.259,-0.154l0.257,-0.155l0.254,-0.156l0.252,-0.158l0.249,-0.158l0.247,-0.159l0.244,-0.161l0.241,-0.162l0.239,-0.162l0.236,-0.164l0.233,-0.165l0.231,-0.165l0.228,-0.167l0.226,-0.168l0.223,-0.168l0.22,-0.17l0.217,-0.171l0.214,-0.171l0.212,-0.173l0.209,-0.173l0.206,-0.174l0.204,-0.175l0.2,-0.176l0.198,-0.177l0.195,-0.178l0.192,-0.178l0.189,-0.18l0.186,-0.18l0.183,-0.181l0.181,-0.181l0.177,-0.183l0.175,-0.183l0.171,-0.184l0.169,-0.184l0.172,-0.193l0.174,-0.171l0.194,-0.146l0.213,-0.12l0.225,-0.091l0.236,-0.061l0.242,-0.03l0.244,0.003l0.241,0.034l0.235,0.065l0.224,0.095l0.21,0.124l0.191,0.15l0.171,0.174l0.146,0.195l0.12,0.212l0.091,0.226l0.061,0.236l0.03,0.241l-0.003,0.244l-0.034,0.241l-0.065,0.235l-0.095,0.224l-0.124,0.21l-0.15,0.192l-0.186,0.207l-0.195,0.214l-0.198,0.213l-0.202,0.211l-0.204,0.21l-0.207,0.209l-0.21,0.207l-0.213,0.206l-0.216,0.205l-0.218,0.203l-0.222,0.202l-0.224,0.2l-0.227,0.199l-0.229,0.198l-0.233,0.197l-0.235,0.195l-0.238,0.193l-0.24,0.193l-0.243,0.19l-0.246,0.19l-0.248,0.188l-0.251,0.187l-0.254,0.185l-0.256,0.184l-0.259,0.182l-0.261,0.181l-0.264,0.18l-0.266,0.178l-0.269,0.177l-0.271,0.176l-0.274,0.173l-0.276,0.173l-0.278,0.171l-0.281,0.17l-0.284,0.168l-0.285,0.166l-0.288,0.165l-0.291,0.164l-0.292,0.162l-0.295,0.161l-0.298,0.159l-0.299,0.158l-0.302,0.156l-0.304,0.155l-0.306,0.153l-0.309,0.152l-0.311,0.15l-0.312,0.149l-0.315,0.147l-0.318,0.145l-0.319,0.144l-0.321,0.142l-0.324,0.141l-0.326,0.139l-0.327,0.138l-0.33,0.136l-0.332,0.135l-0.333,0.133l-0.336,0.131l-0.338,0.129l-0.34,0.128l-0.342,0.127l-0.343,0.125l-0.346,0.123l-0.347,0.121l-0.35,0.12l-0.351,0.118l-0.353,0.116l-0.355,0.115l-0.357,0.113l-0.359,0.112l-0.36,0.109l-0.363,0.108l-0.364,0.107l-0.365,0.104l-0.368,0.103l-0.369,0.101l-0.371,0.099l-0.373,0.098l-0.374,0.095l-0.376,0.094l-0.378,0.092l-0.379,0.091l-0.381,0.088l-0.383,0.087l-0.384,0.085l-0.385,0.083l-0.388,0.082l-0.389,0.079l-0.39,0.078l-0.392,0.075l-0.393,0.074l-0.395,0.072l-0.396,0.07l-0.398,0.069l-0.399,0.066l-0.4,0.064l-0.402,0.063l-0.404,0.061l-0.404,0.058l-0.406,0.057l-0.408,0.055l-0.408,0.053l-0.41,0.05l-0.412,0.049l-0.412,0.047l-0.414,0.045l-0.415,0.043l-0.416,0.041l-0.418,0.039l-0.419,0.037l-0.42,0.035l-0.421,0.032l-0.422,0.031l-0.423,0.029l-0.425,0.026l-0.425,0.025l-0.427,0.022l-0.427,0.021l-0.429,0.018l-0.43,0.016l-0.431,0.014l-0.431,0.012l-0.433,0.01l-0.434,0.007l-0.435,0.006l-0.435,0.003l-0.437,0.001l-0.439,-0.001l-0.439,-0.003l-0.438,-0.006l-0.436,-0.008l-0.436,-0.01l-0.435,-0.012l-0.433,-0.014l-0.433,-0.017l-0.431,-0.018l-0.43,-0.021l-0.429,-0.023l-0.428,-0.025l-0.427,-0.027l-0.426,-0.029l-0.425,-0.032l-0.423,-0.033l-0.422,-0.035l-0.421,-0.038l-0.42,-0.04l-0.419,-0.041l-0.417,-0.044l-0.416,-0.046l-0.414,-0.048l-0.414,-0.049l-0.412,-0.052l-0.41,-0.054l-0.41,-0.056l-0.408,-0.057l-0.406,-0.06l-0.405,-0.062l-0.404,-0.063l-0.402,-0.066l-0.401,-0.067l-0.4,-0.07l-0.397,-0.071l-0.397,-0.073l-0.395,-0.076l-0.393,-0.077l-0.392,-0.078l-0.39,-0.081l-0.389,-0.083l-0.387,-0.084l-0.385,-0.087l-0.384,-0.088l-0.383,-0.09l-0.38,-0.091l-0.379,-0.094l-0.377,-0.095l-0.376,-0.097l-0.374,-0.099l-0.372,-0.101l-0.37,-0.103l-0.369,-0.104l-0.367,-0.106l-0.365,-0.107l-0.363,-0.11l-0.361,-0.111l-0.36,-0.113l-0.358,-0.114l-0.355,-0.117l-0.354,-0.118l-0.353,-0.119l-0.35,-0.121l-0.348,-0.123l-0.346,-0.125l-0.345,-0.126l-0.342,-0.128l-0.34,-0.13l-0.339,-0.131l-0.336,-0.132l-0.335,-0.135l-0.332,-0.136l-0.33,-0.137l-0.328,-0.139l-0.327,-0.141l-0.324,-0.142l-0.321,-0.144l-0.32,-0.145l-0.318,-0.147l-0.315,-0.149l-0.313,-0.15l-0.311,-0.151l-0.309,-0.153l-0.307,-0.155l-0.304,-0.156l-0.302,-0.157l-0.3,-0.159l-0.298,-0.161l-0.295,-0.162l-0.293,-0.163l-0.29,-0.165l-0.288,-0.167l-0.286,-0.167l-0.284,-0.17l-0.281,-0.17l-0.278,-0.172l-0.276,-0.174l-0.274,-0.175l-0.271,-0.176l-0.269,-0.178l-0.266,-0.179l-0.264,-0.181l-0.261,-0.182l-0.259,-0.183l-0.256,-0.185l-0.254,-0.186l-0.251,-0.187l-0.248,-0.189l-0.246,-0.19l-0.243,-0.192l-0.24,-0.193l-0.238,-0.194l-0.235,-0.196l-0.232,-0.197l-0.23,-0.198l-0.227,-0.199l-0.224,-0.201l-0.221,-0.203l-0.218,-0.203l-0.216,-0.205l-0.213,-0.206l-0.21,-0.207l-0.207,-0.209l-0.204,-0.21l-0.201,-0.211l-0.198,-0.213l-0.195,-0.214l-0.186,-0.208l-0.15,-0.191l-0.124,-0.21l-0.095,-0.224l-0.065,-0.235l-0.034,-0.241l-0.003,-0.244l0.03,-0.242l0.061,-0.235l0.091,-0.226l0.12,-0.212l0.146,-0.195l0.171,-0.174l0.192,-0.15l0.21,-0.124l0.224,-0.095l0.234,-0.065l0.242,-0.034l0.243,-0.003l0.242,0.03Z" style="fill:#275623;"/><path d="M151.964,242.802l25.823,-3.477" style="fill:none;stroke:#275623;stroke-width:3.72px;"/><path d="M239.86,242.802l-25.822,-3.477" style="fill:none;stroke:#275623;stroke-width:3.72px;"/><path d="M30.672,240.691c-2.607,-5.711 -4.096,-12.042 -4.096,-18.87" style="fill:none;stroke:#275623;stroke-width:3.72px;"/><path d="M103.298,247.892c-7.697,10.8 -20.236,17.753 -34.14,17.753c-3.724,0 -7.201,-0.497 -10.677,-1.366" style="fill:none;stroke:#275623;stroke-width:3.72px;"/><path d="M111.492,221.821c0,6.455 -1.365,12.539 -3.848,18.125" style="fill:none;stroke:#275623;stroke-width:3.72px;"/><path d="M111.492,221.324c0,8.194 -18.994,14.898 -42.458,14.898c-23.464,0 -42.458,-6.704 -42.458,-14.898" style="fill:none;stroke:#275623;stroke-width:3.72px;"/><path d="M30.176,227.656c-1.117,-3.352 -1.614,-6.953 -1.614,-10.677c0,-20.981 18.125,-37.865 40.596,-37.865c22.471,0 40.596,17.008 40.596,37.865c0,3.724 -0.496,7.201 -1.614,10.552" style="fill:none;stroke:#275623;stroke-width:3.72px;"/><path d="M63.944,205.682c0,-1.366 1.117,-2.607 2.607,-2.607c1.366,0 2.607,1.117 2.607,2.607" style="fill:none;stroke:#275623;stroke-width:2.48px;"/><path d="M85.918,213.875c0,-1.614 1.241,-2.855 2.855,-2.855c1.614,0 2.856,1.241 2.856,2.855" style="fill:none;stroke:#275623;stroke-width:2.48px;"/><path d="M88.773,193.763c-0.124,-1.117 0.745,-1.986 1.862,-2.11c1.118,-0.124 1.987,0.745 2.111,1.862" style="fill:none;stroke:#275623;stroke-width:2.48px;"/><path d="M46.191,224.304c0,-1.614 1.241,-2.856 2.855,-2.856c1.614,0 2.856,1.242 2.856,2.856" style="fill:none;stroke:#275623;stroke-width:2.48px;"/><path d="M40.977,204.44c0,-1.241 0.993,-2.11 2.11,-2.11c1.117,0 2.111,0.993 2.111,2.11" style="fill:none;stroke:#275623;stroke-width:2.48px;"/><path d="M76.11,222.814c0,-0.993 0.869,-1.862 1.862,-1.862c0.994,0 1.863,0.869 1.863,1.862" style="fill:none;stroke:#275623;stroke-width:2.48px;"/><path d="M50.039,193.019c0,-0.994 0.869,-1.863 1.863,-1.863c0.993,0 1.862,0.869 1.862,1.863" style="fill:none;stroke:#275623;stroke-width:2.48px;"/><path d="M97.215,206.675c0,-0.993 0.869,-1.862 1.862,-1.862c0.994,0 1.863,0.869 1.863,1.862" style="fill:none;stroke:#275623;stroke-width:2.48px;"/><path d="M66.923,188.798c0,-1.118 0.869,-1.987 1.987,-1.987c1.117,0 1.986,0.869 1.986,1.987" style="fill:none;stroke:#275623;stroke-width:2.48px;"/><path d="M59.102,247.767l-25.822,0c-2.235,0 -3.973,-1.862 -3.973,-3.972c0,-2.235 1.862,-3.973 3.973,-3.973l25.946,0c2.235,0 3.973,1.862 3.973,3.973c0,2.234 -1.862,3.972 -4.097,3.972Z" style="fill:none;stroke:#275623;stroke-width:3.72px;"/><path d="M108.264,240.443c0.497,0.124 0.994,0.372 1.49,0.745c1.738,1.365 1.986,3.972 0.497,5.71l-11.422,13.781c-1.117,1.241 -2.855,1.738 -4.345,1.241" style="fill:none;stroke:#275623;stroke-width:3.72px;"/><path d="M104.664,247.767l-11.794,0c-2.235,0 -3.973,-1.862 -3.973,-3.972c0,-2.235 1.863,-3.973 3.973,-3.973l11.794,0c2.235,0 3.973,1.862 3.973,3.973c0,2.234 -1.738,3.972 -3.973,3.972Z" style="fill:none;stroke:#275623;stroke-width:3.72px;"/><path d="M60.468,255.837l-25.947,0c-2.235,0 -3.973,-1.862 -3.973,-3.973c0,-2.234 1.862,-3.972 3.973,-3.972l25.947,0c2.234,0 3.972,1.862 3.972,3.972c0,2.111 -1.738,3.973 -3.972,3.973Z" style="fill:none;stroke:#275623;stroke-width:3.72px;"/><path d="M65.682,263.907l-25.823,0c-2.234,0 -3.972,-1.863 -3.972,-3.973c0,-2.235 1.862,-3.973 3.972,-3.973l25.947,0c2.235,0 3.973,1.862 3.973,3.973c0,2.11 -1.862,3.973 -4.097,3.973Z" style="fill:none;stroke:#275623;stroke-width:3.72px;"/><path d="M94.484,263.907c0,3.476 -2.855,6.455 -6.456,6.455l-34.513,0c-3.476,0 -6.455,-2.855 -6.455,-6.455" style="fill:none;stroke:#275623;stroke-width:3.72px;"/><path d="M92.87,259.561c0.993,1.118 1.614,2.608 1.614,4.346" style="fill:none;stroke:#275623;stroke-width:3.72px;"/><path d="M72.634,309.717l-13.408,-39.355l27.064,0l14.029,39.355l-27.685,0" style="fill:none;stroke:#275623;stroke-width:3.72px;"/><ellipse cx="195.912" cy="168.934" rx="8.194" ry="8.442" style="fill:none;stroke:#275623;stroke-width:3.72px;"/></g></g></svg>