<?xml version="1.0" encoding="UTF-8" standalone="no"?><!DOCTYPE svg PUBLIC "-//W3C//DTD SVG 1.1//EN" "http://www.w3.org/Graphics/SVG/1.1/DTD/svg11.dtd"><svg width="100%" height="100%" viewBox="0 0 320 320" version="1.1" xmlns="http://www.w3.org/2000/svg" xmlns:xlink="http://www.w3.org/1999/xlink" xml:space="preserve" style="fill-rule:evenodd;clip-rule:evenodd;stroke-linecap:round;stroke-linejoin:round;stroke-miterlimit:10;"><g id="圖層_2"><g><path d="M249.209,100.105c0,0 -7.923,-26.913 -54.706,-26.913c-49.802,0 -53.575,29.051 -53.575,29.051c-10.186,-32.699 -3.772,-55.084 54.204,-52.443c56.467,-5.282 58.982,19.87 54.077,50.305Z" style="fill:#d87341;fill-rule:nonzero;"/><circle cx="195.257" cy="168.896" r="7.797" style="fill:#d87341;fill-opacity:0.5;"/><path d="M53.272,240.455l0,-54.329c0,-0.629 0.503,-1.132 1.132,-1.132l14.84,0l-15.972,55.461Z" style="fill:#d87341;fill-opacity:0.2;fill-rule:nonzero;"/><path d="M47.865,239.323l-12.954,-48.544c-0.126,-0.629 0.252,-1.258 0.881,-1.509l12.701,-3.396l-0.628,53.449Z" style="fill:#d87341;fill-opacity:0.2;fill-rule:nonzero;"/><path d="M42.331,240.58l-25.404,-42.759c-0.377,-0.503 -0.126,-1.257 0.378,-1.634l12.953,-7.42l12.073,51.813Z" style="fill:#d87341;fill-opacity:0.2;fill-rule:nonzero;"/><path d="M31.767,239.952l-30.308,-30.435c-0.503,-0.503 -0.503,-1.257 0,-1.635l10.564,-10.564l24.02,42.634l-4.276,0Z" style="fill:#d87341;fill-opacity:0.2;fill-rule:nonzero;"/><path d="M60.315,236.179l14.211,-52.82c0.126,-0.629 0.88,-1.006 1.509,-0.88l13.708,3.647l-29.428,50.053Z" style="fill:#d87341;fill-opacity:0.2;fill-rule:nonzero;"/><path d="M69.873,226.998l24.524,-42.382c0.377,-0.503 1.006,-0.754 1.634,-0.377l10.942,6.288l-37.1,36.471Z" style="fill:#d87341;fill-opacity:0.2;fill-rule:nonzero;"/><path d="M85.593,257.558l-19.116,-19.115c-0.503,-0.504 -0.503,-1.258 0,-1.635l46.658,-46.658c0.503,-0.503 1.258,-0.503 1.635,0l19.116,19.116c0.503,0.503 0.503,1.257 0,1.635l-29.806,29.805l-14.337,0.755c-0.88,0 -1.76,0.251 -2.515,0.754c-0.88,0.503 -1.509,1.258 -1.509,2.138c0.126,1.887 1.635,3.396 3.521,3.773l6.288,1.258l-8.174,8.174c-0.503,0.503 -1.258,0.503 -1.761,0Z" style="fill:#d87341;fill-opacity:0.5;fill-rule:nonzero;"/><path d="M253.862,243.221c0,15.092 -26.158,28.926 -58.605,28.926c-32.446,0 -58.605,-13.834 -58.605,-28.926l15.595,0.252c9.306,9.558 26.033,15.217 42.885,15.217c16.852,0 36.596,-6.162 42.256,-15.091l16.474,-0.378Z" style="fill:#d87341;fill-opacity:0.5;fill-rule:nonzero;"/><path d="M208.728,47.705l0.732,0.002l0.728,0.005l0.727,0.007l0.723,0.009l0.721,0.011l0.719,0.014l0.714,0.017l0.358,0.01l0.356,0.01l0.355,0.011l0.354,0.012l0.354,0.013l0.353,0.014l0.352,0.015l0.351,0.015l0.351,0.017l0.35,0.017l0.348,0.019l0.348,0.019l0.347,0.021l0.347,0.021l0.345,0.023l0.345,0.023l0.343,0.025l0.343,0.026l0.342,0.027l0.341,0.029l0.34,0.029l0.339,0.031l0.338,0.032l0.337,0.034l0.336,0.034l0.335,0.036l0.334,0.038l0.333,0.039l0.332,0.04l0.331,0.041l0.33,0.044l0.329,0.044l0.328,0.046l0.327,0.048l0.326,0.049l0.325,0.051l0.323,0.052l0.323,0.054l0.321,0.056l0.32,0.058l0.319,0.059l0.318,0.061l0.317,0.062l0.316,0.065l0.314,0.066l0.313,0.068l0.312,0.07l0.311,0.072l0.31,0.074l0.308,0.075l0.307,0.078l0.306,0.08l0.304,0.082l0.303,0.084l0.302,0.085l0.301,0.089l0.299,0.09l0.298,0.092l0.296,0.095l0.295,0.096l0.294,0.099l0.293,0.102l0.29,0.103l0.29,0.106l0.288,0.109l0.287,0.11l0.285,0.114l0.283,0.115l0.282,0.118l0.281,0.121l0.279,0.123l0.278,0.126l0.275,0.128l0.275,0.131l0.272,0.133l0.271,0.136l0.27,0.139l0.265,0.14l0.136,0.073l0.132,0.073l0.133,0.073l0.132,0.074l0.131,0.074l0.131,0.076l0.131,0.076l0.13,0.076l0.13,0.078l0.129,0.078l0.129,0.079l0.128,0.079l0.128,0.08l0.128,0.081l0.127,0.082l0.126,0.082l0.126,0.084l0.126,0.083l0.125,0.085l0.125,0.085l0.124,0.087l0.123,0.086l0.124,0.088l0.122,0.088l0.123,0.09l0.121,0.089l0.121,0.091l0.121,0.092l0.12,0.092l0.12,0.093l0.119,0.093l0.119,0.095l0.118,0.095l0.118,0.096l0.117,0.097l0.117,0.097l0.116,0.099l0.115,0.099l0.115,0.1l0.115,0.101l0.114,0.101l0.113,0.103l0.113,0.103l0.112,0.103l0.112,0.105l0.111,0.106l0.111,0.106l0.11,0.107l0.109,0.108l0.109,0.109l0.109,0.109l0.108,0.111l0.107,0.111l0.107,0.112l0.106,0.113l0.105,0.113l0.105,0.115l0.104,0.115l0.104,0.116l0.103,0.117l0.103,0.118l0.102,0.118l0.101,0.12l0.101,0.12l0.1,0.121l0.1,0.122l0.099,0.122l0.098,0.124l0.098,0.124l0.097,0.126l0.096,0.126l0.096,0.126l0.095,0.128l0.095,0.129l0.094,0.129l0.093,0.13l0.093,0.132l0.092,0.131l0.091,0.133l0.091,0.134l0.09,0.134l0.089,0.136l0.089,0.136l0.088,0.137l0.088,0.138l0.087,0.139l0.086,0.139l0.086,0.141l0.085,0.141l0.084,0.142l0.083,0.144l0.083,0.143l0.083,0.145l0.081,0.146l0.081,0.147l0.08,0.147l0.08,0.148l0.079,0.149l0.078,0.15l0.078,0.151l0.077,0.152l0.076,0.153l0.075,0.153l0.075,0.155l0.074,0.155l0.074,0.156l0.073,0.157l0.072,0.158l0.071,0.159l0.071,0.16l0.07,0.161l0.07,0.161l0.068,0.163l0.068,0.163l0.068,0.164l0.066,0.165l0.066,0.166l0.065,0.167l0.065,0.168l0.064,0.169l0.063,0.169l0.062,0.171l0.062,0.171l0.061,0.173l0.06,0.173l0.06,0.174l0.059,0.175l0.058,0.176l0.058,0.177l0.056,0.178l0.056,0.179l0.056,0.18l0.055,0.18l0.054,0.182l0.053,0.183l0.052,0.183l0.052,0.185l0.051,0.185l0.051,0.186l0.049,0.188l0.049,0.188l0.049,0.189l0.047,0.19l0.047,0.191l0.046,0.192l0.046,0.193l0.044,0.194l0.044,0.195l0.043,0.196l0.043,0.197l0.042,0.198l0.041,0.199l0.04,0.2l0.04,0.2l0.039,0.202l0.038,0.203l0.037,0.204l0.037,0.204l0.036,0.206l0.035,0.207l0.035,0.208l0.034,0.208l0.033,0.21l0.032,0.211l0.032,0.212l0.03,0.212l0.031,0.214l0.029,0.215l0.029,0.216l0.027,0.217l0.028,0.217l0.026,0.219l0.026,0.22l0.025,0.221l0.024,0.222l0.023,0.223l0.023,0.224l0.022,0.226l0.021,0.226l0.021,0.227l0.019,0.228l0.019,0.23l0.019,0.23l0.017,0.232l0.017,0.232l0.016,0.234l0.015,0.234l0.015,0.236l0.013,0.237l0.013,0.238l0.012,0.239l0.012,0.24l0.011,0.241l0.009,0.242l0.01,0.244l0.008,0.244l0.008,0.246l0.006,0.246l0.007,0.248l0.005,0.249l0.004,0.25l0.004,0.251l0.003,0.252l0.003,0.254l0.001,0.254l0.001,0.256l0,0.257l-0.001,0.257l-0.002,0.259l-0.002,0.262l-0.007,0.522l-0.011,0.529l-0.013,0.533l-0.017,0.537l-0.019,0.542l-0.023,0.547l-0.026,0.552l-0.029,0.556l-0.033,0.561l-0.035,0.566l-0.039,0.571l-0.042,0.576l-0.045,0.58l-0.049,0.585l-0.052,0.59l-0.055,0.596l-0.058,0.6l-0.062,0.605l-0.065,0.61l-0.068,0.615l-0.067,0.587l-1.633,19.464l-3.76,-0.316l1.638,-19.522l0.073,-0.637l0.067,-0.599l0.063,-0.593l0.06,-0.588l0.056,-0.583l0.054,-0.577l0.05,-0.572l0.047,-0.568l0.044,-0.562l0.04,-0.556l0.038,-0.552l0.034,-0.547l0.032,-0.541l0.028,-0.537l0.025,-0.532l0.022,-0.526l0.019,-0.521l0.016,-0.517l0.012,-0.511l0.01,-0.507l0.007,-0.503l0.002,-0.248l0.002,-0.248l0.001,-0.246l0,-0.245l-0.001,-0.245l-0.001,-0.243l-0.002,-0.241l-0.003,-0.241l-0.004,-0.239l-0.004,-0.238l-0.005,-0.237l-0.006,-0.236l-0.007,-0.234l-0.007,-0.233l-0.008,-0.233l-0.009,-0.23l-0.009,-0.23l-0.01,-0.229l-0.011,-0.227l-0.011,-0.226l-0.013,-0.225l-0.013,-0.224l-0.013,-0.223l-0.015,-0.221l-0.015,-0.221l-0.015,-0.219l-0.017,-0.218l-0.017,-0.217l-0.018,-0.216l-0.019,-0.214l-0.019,-0.214l-0.02,-0.212l-0.02,-0.211l-0.022,-0.21l-0.022,-0.209l-0.022,-0.208l-0.023,-0.206l-0.024,-0.206l-0.025,-0.204l-0.026,-0.203l-0.026,-0.202l-0.026,-0.201l-0.028,-0.2l-0.028,-0.199l-0.028,-0.197l-0.029,-0.197l-0.03,-0.195l-0.031,-0.195l-0.031,-0.193l-0.032,-0.192l-0.033,-0.191l-0.033,-0.19l-0.034,-0.188l-0.034,-0.188l-0.036,-0.187l-0.035,-0.185l-0.037,-0.185l-0.037,-0.183l-0.037,-0.183l-0.039,-0.181l-0.039,-0.18l-0.039,-0.179l-0.04,-0.178l-0.041,-0.177l-0.041,-0.176l-0.042,-0.175l-0.043,-0.174l-0.043,-0.173l-0.044,-0.172l-0.045,-0.17l-0.045,-0.17l-0.045,-0.169l-0.046,-0.167l-0.047,-0.167l-0.048,-0.166l-0.048,-0.164l-0.048,-0.164l-0.05,-0.162l-0.049,-0.162l-0.051,-0.16l-0.051,-0.16l-0.051,-0.158l-0.052,-0.158l-0.053,-0.156l-0.053,-0.156l-0.054,-0.154l-0.054,-0.154l-0.055,-0.153l-0.056,-0.151l-0.056,-0.151l-0.056,-0.15l-0.058,-0.148l-0.057,-0.148l-0.059,-0.147l-0.058,-0.146l-0.06,-0.145l-0.06,-0.144l-0.06,-0.143l-0.061,-0.142l-0.062,-0.141l-0.062,-0.14l-0.063,-0.139l-0.063,-0.139l-0.063,-0.137l-0.065,-0.137l-0.065,-0.135l-0.065,-0.135l-0.066,-0.134l-0.066,-0.133l-0.067,-0.132l-0.067,-0.131l-0.068,-0.13l-0.069,-0.129l-0.069,-0.129l-0.069,-0.127l-0.07,-0.127l-0.071,-0.126l-0.07,-0.125l-0.072,-0.124l-0.072,-0.123l-0.073,-0.123l-0.073,-0.121l-0.073,-0.121l-0.074,-0.12l-0.075,-0.119l-0.075,-0.118l-0.075,-0.118l-0.076,-0.116l-0.077,-0.116l-0.077,-0.115l-0.078,-0.114l-0.078,-0.114l-0.078,-0.112l-0.079,-0.112l-0.08,-0.111l-0.079,-0.11l-0.081,-0.11l-0.081,-0.108l-0.082,-0.108l-0.081,-0.107l-0.083,-0.107l-0.083,-0.105l-0.083,-0.105l-0.084,-0.104l-0.084,-0.103l-0.085,-0.103l-0.086,-0.102l-0.085,-0.101l-0.087,-0.1l-0.087,-0.1l-0.087,-0.099l-0.088,-0.098l-0.088,-0.097l-0.089,-0.097l-0.089,-0.096l-0.089,-0.096l-0.091,-0.094l-0.09,-0.094l-0.091,-0.093l-0.092,-0.093l-0.092,-0.092l-0.093,-0.091l-0.093,-0.091l-0.093,-0.089l-0.094,-0.09l-0.095,-0.088l-0.095,-0.088l-0.095,-0.087l-0.096,-0.087l-0.096,-0.086l-0.097,-0.085l-0.098,-0.084l-0.097,-0.084l-0.099,-0.084l-0.098,-0.082l-0.1,-0.082l-0.099,-0.082l-0.101,-0.08l-0.1,-0.081l-0.102,-0.079l-0.101,-0.079l-0.102,-0.078l-0.103,-0.078l-0.103,-0.077l-0.104,-0.077l-0.104,-0.076l-0.104,-0.075l-0.105,-0.075l-0.106,-0.074l-0.106,-0.073l-0.106,-0.073l-0.107,-0.072l-0.108,-0.072l-0.107,-0.071l-0.109,-0.071l-0.109,-0.07l-0.109,-0.069l-0.11,-0.069l-0.11,-0.069l-0.111,-0.067l-0.111,-0.068l-0.112,-0.066l-0.112,-0.066l-0.113,-0.066l-0.113,-0.065l-0.113,-0.064l-0.114,-0.064l-0.115,-0.063l-0.115,-0.063l-0.113,-0.061l-0.235,-0.124l-0.234,-0.121l-0.237,-0.119l-0.238,-0.116l-0.24,-0.115l-0.242,-0.112l-0.243,-0.111l-0.246,-0.108l-0.248,-0.106l-0.249,-0.105l-0.251,-0.102l-0.253,-0.1l-0.255,-0.099l-0.256,-0.096l-0.259,-0.095l-0.26,-0.093l-0.262,-0.09l-0.264,-0.089l-0.266,-0.088l-0.267,-0.085l-0.269,-0.083l-0.271,-0.082l-0.273,-0.08l-0.274,-0.078l-0.276,-0.076l-0.278,-0.075l-0.279,-0.073l-0.281,-0.071l-0.283,-0.069l-0.285,-0.068l-0.286,-0.066l-0.287,-0.065l-0.29,-0.063l-0.291,-0.061l-0.292,-0.06l-0.294,-0.058l-0.296,-0.057l-0.297,-0.055l-0.299,-0.053l-0.3,-0.052l-0.302,-0.051l-0.304,-0.049l-0.304,-0.048l-0.307,-0.046l-0.307,-0.045l-0.31,-0.043l-0.31,-0.043l-0.312,-0.04l-0.314,-0.04l-0.315,-0.038l-0.316,-0.037l-0.318,-0.035l-0.319,-0.035l-0.32,-0.033l-0.321,-0.032l-0.323,-0.03l-0.325,-0.03l-0.325,-0.028l-0.327,-0.027l-0.328,-0.026l-0.329,-0.025l-0.331,-0.024l-0.332,-0.023l-0.332,-0.022l-0.335,-0.02l-0.335,-0.02l-0.336,-0.019l-0.338,-0.018l-0.339,-0.017l-0.34,-0.016l-0.341,-0.015l-0.342,-0.014l-0.343,-0.013l-0.344,-0.013l-0.345,-0.012l-0.347,-0.011l-0.347,-0.01l-0.347,-0.009l-0.701,-0.017l-0.704,-0.014l-0.707,-0.011l-0.711,-0.009l-0.715,-0.006l-0.718,-0.005l-0.722,-0.003l-0.725,-0.001l-0.728,0.001l-0.731,0.002l-0.734,0.004l-0.736,0.004l-1.483,0.011l-1.492,0.013l-1.502,0.014l-1.51,0.014l-0.758,0.006l-0.76,0.005l-0.762,0.004l-0.764,0.004l-0.765,0.002l-0.766,0.001l-1.454,-0.002l-1.454,-0.002l-1.453,-0.003l-1.453,-0.001l-0.724,0l-0.724,0.001l-0.724,0.001l-0.722,0.003l-0.721,0.004l-0.719,0.005l-0.719,0.007l-0.716,0.008l-0.716,0.01l-0.713,0.012l-0.711,0.015l-0.71,0.016l-0.707,0.019l-0.705,0.021l-0.703,0.024l-0.35,0.013l-0.349,0.014l-0.349,0.014l-0.349,0.015l-0.347,0.016l-0.347,0.017l-0.346,0.018l-0.346,0.018l-0.345,0.02l-0.343,0.02l-0.344,0.021l-0.342,0.022l-0.341,0.023l-0.341,0.024l-0.34,0.025l-0.338,0.025l-0.338,0.027l-0.337,0.028l-0.337,0.029l-0.335,0.03l-0.334,0.031l-0.333,0.032l-0.333,0.033l-0.331,0.034l-0.33,0.035l-0.329,0.037l-0.328,0.038l-0.327,0.039l-0.326,0.04l-0.325,0.041l-0.324,0.042l-0.323,0.044l-0.321,0.045l-0.32,0.047l-0.319,0.047l-0.318,0.049l-0.317,0.051l-0.315,0.052l-0.315,0.053l-0.312,0.054l-0.312,0.056l-0.31,0.057l-0.309,0.059l-0.308,0.06l-0.306,0.062l-0.305,0.063l-0.304,0.064l-0.302,0.067l-0.301,0.067l-0.299,0.07l-0.298,0.07l-0.297,0.073l-0.294,0.074l-0.294,0.075l-0.292,0.077l-0.29,0.079l-0.289,0.081l-0.288,0.082l-0.285,0.084l-0.285,0.085l-0.282,0.088l-0.281,0.089l-0.279,0.09l-0.278,0.093l-0.276,0.094l-0.275,0.096l-0.272,0.098l-0.271,0.1l-0.27,0.101l-0.267,0.103l-0.266,0.105l-0.264,0.108l-0.263,0.108l-0.26,0.111l-0.259,0.113l-0.257,0.115l-0.255,0.116l-0.254,0.119l-0.251,0.12l-0.25,0.123l-0.248,0.125l-0.246,0.126l-0.244,0.129l-0.242,0.13l-0.241,0.133l-0.238,0.135l-0.237,0.137l-0.237,0.14l-0.114,0.069l-0.116,0.071l-0.116,0.071l-0.115,0.072l-0.115,0.072l-0.114,0.073l-0.114,0.074l-0.113,0.074l-0.113,0.074l-0.112,0.076l-0.112,0.075l-0.111,0.077l-0.111,0.076l-0.11,0.078l-0.11,0.078l-0.11,0.078l-0.108,0.079l-0.109,0.08l-0.108,0.08l-0.107,0.081l-0.107,0.081l-0.106,0.082l-0.106,0.083l-0.105,0.083l-0.105,0.083l-0.105,0.085l-0.104,0.084l-0.103,0.086l-0.103,0.086l-0.102,0.087l-0.102,0.087l-0.102,0.088l-0.1,0.088l-0.101,0.089l-0.1,0.09l-0.099,0.09l-0.099,0.091l-0.098,0.092l-0.098,0.092l-0.097,0.093l-0.097,0.093l-0.097,0.094l-0.095,0.095l-0.096,0.095l-0.094,0.096l-0.095,0.097l-0.093,0.097l-0.094,0.098l-0.092,0.098l-0.093,0.1l-0.091,0.099l-0.092,0.101l-0.09,0.101l-0.09,0.102l-0.09,0.103l-0.089,0.103l-0.089,0.104l-0.088,0.104l-0.087,0.106l-0.088,0.106l-0.086,0.106l-0.086,0.108l-0.086,0.108l-0.085,0.109l-0.084,0.109l-0.084,0.11l-0.083,0.111l-0.083,0.112l-0.082,0.112l-0.082,0.113l-0.081,0.114l-0.081,0.115l-0.08,0.115l-0.08,0.116l-0.079,0.117l-0.079,0.117l-0.078,0.118l-0.077,0.12l-0.077,0.119l-0.077,0.121l-0.075,0.121l-0.076,0.122l-0.075,0.123l-0.074,0.124l-0.073,0.124l-0.074,0.125l-0.072,0.126l-0.072,0.127l-0.072,0.128l-0.071,0.128l-0.07,0.129l-0.07,0.13l-0.069,0.131l-0.069,0.132l-0.068,0.132l-0.067,0.134l-0.067,0.134l-0.066,0.135l-0.066,0.136l-0.065,0.136l-0.065,0.138l-0.064,0.138l-0.064,0.139l-0.063,0.14l-0.062,0.141l-0.062,0.142l-0.061,0.142l-0.06,0.144l-0.06,0.144l-0.06,0.145l-0.058,0.146l-0.059,0.147l-0.057,0.148l-0.057,0.149l-0.056,0.149l-0.056,0.151l-0.055,0.151l-0.055,0.153l-0.054,0.153l-0.053,0.154l-0.053,0.155l-0.052,0.156l-0.051,0.157l-0.051,0.158l-0.05,0.158l-0.049,0.16l-0.049,0.16l-0.048,0.162l-0.048,0.162l-0.047,0.164l-0.046,0.164l-0.046,0.165l-0.045,0.167l-0.044,0.167l-0.044,0.168l-0.043,0.169l-0.042,0.17l-0.042,0.171l-0.041,0.172l-0.041,0.173l-0.039,0.174l-0.039,0.175l-0.039,0.176l-0.037,0.176l-0.037,0.178l-0.037,0.179l-0.035,0.18l-0.035,0.181l-0.035,0.181l-0.033,0.183l-0.033,0.184l-0.032,0.185l-0.032,0.186l-0.031,0.186l-0.03,0.188l-0.029,0.189l-0.029,0.19l-0.028,0.191l-0.027,0.192l-0.026,0.193l-0.026,0.194l-0.025,0.195l-0.025,0.196l-0.023,0.197l-0.023,0.198l-0.022,0.199l-0.022,0.2l-0.02,0.201l-0.02,0.203l-0.019,0.203l-0.019,0.204l-0.018,0.206l-0.017,0.206l-0.016,0.208l-0.015,0.208l-0.015,0.21l-0.014,0.211l-0.013,0.211l-0.012,0.213l-0.012,0.214l-0.011,0.215l-0.01,0.216l-0.009,0.218l-0.009,0.218l-0.007,0.219l-0.007,0.221l-0.007,0.221l-0.005,0.223l-0.005,0.223l-0.003,0.225l-0.003,0.226l-0.003,0.227l-0.001,0.228l-0.001,0.23l0.001,0.23l0.001,0.231l0.001,0.233l0.003,0.233l0.003,0.235l0.005,0.236l0.005,0.237l0.006,0.238l0.006,0.24l0.008,0.24l0.008,0.242l0.009,0.242l0.01,0.244l0.011,0.245l0.012,0.246l0.012,0.247l0.014,0.249l0.014,0.249l0.015,0.251l0.016,0.251l0.017,0.253l0.017,0.255l0.019,0.255l0.019,0.256l0.02,0.258l0.021,0.258l0.022,0.26l0.023,0.261l0.023,0.263l0.025,0.263l0.025,0.265l0.026,0.265l0.028,0.267l0.028,0.269l0.028,0.269l0.03,0.27l0.031,0.272l0.031,0.273l0.033,0.274l0.033,0.275l0.034,0.277l0.035,0.277l0.036,0.279l0.037,0.279l0.077,0.565l0.08,0.568l0.084,0.579l2.893,19.87l-3.734,0.544l-2.892,-19.87l-0.086,-0.587l-0.083,-0.587l-0.079,-0.582l-0.038,-0.291l-0.037,-0.289l-0.036,-0.287l-0.036,-0.287l-0.034,-0.285l-0.034,-0.284l-0.033,-0.283l-0.031,-0.282l-0.031,-0.281l-0.03,-0.28l-0.029,-0.278l-0.029,-0.278l-0.027,-0.276l-0.026,-0.275l-0.026,-0.274l-0.024,-0.274l-0.024,-0.272l-0.023,-0.27l-0.022,-0.27l-0.021,-0.269l-0.02,-0.268l-0.019,-0.266l-0.019,-0.266l-0.017,-0.264l-0.017,-0.263l-0.016,-0.263l-0.014,-0.261l-0.014,-0.26l-0.014,-0.259l-0.012,-0.258l-0.011,-0.257l-0.011,-0.256l-0.009,-0.255l-0.009,-0.254l-0.008,-0.253l-0.007,-0.251l-0.006,-0.251l-0.006,-0.25l-0.004,-0.248l-0.004,-0.248l-0.002,-0.247l-0.002,-0.245l-0.001,-0.245l0,-0.243l0,-0.243l0.002,-0.241l0.002,-0.24l0.003,-0.24l0.004,-0.238l0.005,-0.238l0.006,-0.236l0.006,-0.236l0.008,-0.234l0.008,-0.233l0.009,-0.233l0.01,-0.231l0.011,-0.231l0.011,-0.229l0.013,-0.229l0.013,-0.227l0.014,-0.227l0.015,-0.225l0.016,-0.225l0.016,-0.223l0.018,-0.223l0.018,-0.222l0.019,-0.22l0.02,-0.22l0.02,-0.219l0.022,-0.218l0.022,-0.216l0.023,-0.216l0.024,-0.215l0.025,-0.214l0.025,-0.213l0.027,-0.212l0.027,-0.212l0.028,-0.21l0.029,-0.209l0.029,-0.208l0.03,-0.208l0.032,-0.206l0.032,-0.206l0.032,-0.204l0.034,-0.204l0.034,-0.203l0.035,-0.202l0.036,-0.201l0.037,-0.2l0.038,-0.199l0.038,-0.198l0.039,-0.197l0.04,-0.197l0.041,-0.195l0.041,-0.195l0.042,-0.194l0.043,-0.192l0.044,-0.192l0.045,-0.191l0.045,-0.19l0.046,-0.189l0.047,-0.189l0.048,-0.187l0.049,-0.187l0.049,-0.185l0.05,-0.185l0.051,-0.184l0.051,-0.183l0.053,-0.182l0.053,-0.181l0.054,-0.181l0.054,-0.179l0.056,-0.179l0.056,-0.178l0.057,-0.176l0.057,-0.177l0.059,-0.175l0.059,-0.174l0.06,-0.173l0.061,-0.173l0.061,-0.172l0.062,-0.17l0.063,-0.17l0.064,-0.17l0.064,-0.168l0.065,-0.167l0.066,-0.167l0.067,-0.166l0.067,-0.165l0.069,-0.164l0.068,-0.163l0.07,-0.162l0.07,-0.162l0.071,-0.16l0.072,-0.16l0.073,-0.159l0.073,-0.158l0.074,-0.157l0.075,-0.157l0.075,-0.156l0.076,-0.154l0.077,-0.154l0.078,-0.153l0.078,-0.153l0.079,-0.151l0.08,-0.151l0.08,-0.15l0.081,-0.149l0.082,-0.148l0.083,-0.147l0.083,-0.147l0.084,-0.145l0.084,-0.145l0.086,-0.144l0.086,-0.143l0.086,-0.143l0.088,-0.141l0.088,-0.141l0.088,-0.14l0.09,-0.139l0.09,-0.139l0.09,-0.137l0.092,-0.137l0.092,-0.136l0.093,-0.135l0.093,-0.134l0.094,-0.134l0.095,-0.132l0.095,-0.132l0.096,-0.131l0.097,-0.131l0.097,-0.129l0.098,-0.129l0.099,-0.128l0.099,-0.127l0.1,-0.126l0.101,-0.125l0.101,-0.125l0.101,-0.124l0.103,-0.123l0.103,-0.122l0.104,-0.122l0.104,-0.121l0.105,-0.12l0.105,-0.119l0.106,-0.118l0.107,-0.118l0.107,-0.117l0.108,-0.116l0.109,-0.115l0.109,-0.115l0.109,-0.113l0.11,-0.113l0.111,-0.112l0.112,-0.112l0.112,-0.111l0.112,-0.109l0.113,-0.11l0.114,-0.108l0.114,-0.107l0.115,-0.107l0.115,-0.106l0.116,-0.106l0.117,-0.104l0.117,-0.104l0.117,-0.103l0.118,-0.103l0.119,-0.101l0.119,-0.101l0.12,-0.1l0.12,-0.1l0.121,-0.098l0.121,-0.098l0.122,-0.097l0.122,-0.097l0.123,-0.095l0.123,-0.095l0.124,-0.095l0.125,-0.093l0.124,-0.093l0.126,-0.092l0.126,-0.092l0.126,-0.09l0.127,-0.09l0.127,-0.09l0.128,-0.088l0.128,-0.088l0.129,-0.087l0.129,-0.087l0.13,-0.085l0.13,-0.085l0.13,-0.085l0.131,-0.084l0.132,-0.083l0.132,-0.082l0.132,-0.082l0.133,-0.081l0.136,-0.081l0.266,-0.158l0.269,-0.156l0.272,-0.153l0.273,-0.151l0.275,-0.148l0.276,-0.146l0.278,-0.143l0.28,-0.14l0.282,-0.138l0.283,-0.136l0.284,-0.133l0.286,-0.131l0.288,-0.128l0.289,-0.126l0.291,-0.124l0.292,-0.121l0.293,-0.119l0.295,-0.117l0.297,-0.114l0.297,-0.112l0.3,-0.11l0.3,-0.108l0.302,-0.106l0.303,-0.103l0.305,-0.102l0.306,-0.099l0.307,-0.097l0.308,-0.096l0.31,-0.093l0.311,-0.091l0.312,-0.089l0.313,-0.088l0.315,-0.085l0.315,-0.083l0.317,-0.082l0.318,-0.08l0.319,-0.078l0.321,-0.076l0.321,-0.074l0.322,-0.073l0.324,-0.07l0.324,-0.07l0.326,-0.067l0.327,-0.066l0.327,-0.064l0.329,-0.062l0.33,-0.061l0.33,-0.059l0.332,-0.058l0.332,-0.056l0.334,-0.055l0.334,-0.053l0.335,-0.052l0.337,-0.05l0.337,-0.049l0.338,-0.047l0.338,-0.046l0.34,-0.045l0.34,-0.043l0.342,-0.042l0.342,-0.041l0.342,-0.039l0.344,-0.038l0.344,-0.037l0.345,-0.036l0.346,-0.034l0.347,-0.034l0.347,-0.032l0.348,-0.031l0.348,-0.03l0.349,-0.028l0.35,-0.028l0.351,-0.027l0.351,-0.026l0.352,-0.024l0.352,-0.024l0.353,-0.022l0.353,-0.022l0.354,-0.021l0.355,-0.02l0.355,-0.019l0.355,-0.018l0.356,-0.017l0.357,-0.017l0.357,-0.015l0.357,-0.015l0.358,-0.014l0.359,-0.014l0.717,-0.024l0.719,-0.022l0.721,-0.019l0.722,-0.016l0.723,-0.015l0.724,-0.012l0.725,-0.01l0.726,-0.009l0.726,-0.006l0.728,-0.006l0.727,-0.004l0.728,-0.002l0.728,-0.002l0.729,-0.001l0.728,0l1.456,0.002l1.455,0.002l1.452,0.003l1.449,0.001l0.759,-0.001l0.759,-0.002l0.758,-0.004l0.757,-0.004l0.756,-0.005l0.755,-0.006l1.507,-0.013l1.502,-0.014l1.495,-0.014l1.488,-0.011l0.743,-0.004l0.739,-0.004l0.738,-0.002l0.736,0l0.733,0.001Z" style="fill:#275623;"/><g><g><path d="M49.625,240.58l0,-55.712c0,-2.012 1.635,-3.773 3.773,-3.773l17.607,0" style="fill:none;stroke:#275623;stroke-width:3.77px;"/><path d="M53.272,240.455l0,-54.204c0,-0.754 0.629,-1.383 1.384,-1.383l14.714,0" style="fill:none;stroke:#275623;stroke-width:1.26px;"/><path d="M58.429,217.566l0.88,0c0.126,0 0.126,0 0.126,0.126c0,0.251 0.125,0.503 0.251,0.754c0.881,-2.515 1.761,-5.03 2.515,-7.671c-0.88,0.126 -2.515,1.509 -2.892,4.527c0,0.126 0,0.126 -0.126,0.126l-0.88,0c-0.755,0 -1.132,0.503 -1.132,1.006c0.126,0.629 0.503,1.132 1.258,1.132l0,0Z" style="fill:#275623;fill-rule:nonzero;"/></g><g><path d="M55.159,240.58l15.972,-59.485c0.503,-2.012 2.641,-3.144 4.527,-2.641l15.846,4.276" style="fill:none;stroke:#275623;stroke-width:3.77px;"/><path d="M80.688,258.816l-17.606,-4.653" style="fill:none;stroke:#275623;stroke-width:3.77px;"/><path d="M58.806,241.084l15.469,-57.725c0.251,-0.755 1.006,-1.132 1.635,-1.006l13.708,3.647" style="fill:none;stroke:#275623;stroke-width:1.26px;"/><path d="M71.131,215.051l0.628,0.126c1.006,-1.761 2.138,-3.396 3.27,-5.157c-0.754,0.503 -1.76,1.51 -2.264,3.144c0,0.126 -0.125,0.126 -0.125,0.126l-0.881,-0.251c-0.754,-0.252 -1.257,0.251 -1.383,0.754c-0.126,0.503 0,1.006 0.755,1.258Z" style="fill:#275623;fill-rule:nonzero;"/></g><g><path d="M63.082,232.909l29.302,-50.808c1.006,-1.76 3.396,-2.389 5.157,-1.383l12.576,7.294" style="fill:none;stroke:#275623;stroke-width:3.77px;"/><path d="M58.806,241.084l4.276,-8.175" style="fill:none;stroke:#275623;stroke-width:3.77px;"/><path d="M78.299,257.81l-17.229,-9.935" style="fill:none;stroke:#275623;stroke-width:3.77px;"/><path d="M70.879,226.621l24.021,-41.627c0.377,-0.629 1.257,-0.881 1.886,-0.503l9.684,5.533" style="fill:none;stroke:#275623;stroke-width:1.26px;"/><path d="M70.628,248.503l-8.175,-4.527c-0.629,-0.377 -0.88,-1.258 -0.503,-1.886l0.755,-1.384" style="fill:none;stroke:#275623;stroke-width:1.26px;"/></g><g><path d="M100.182,250.013l-11.067,11.067c-1.635,1.635 -4.276,1.635 -5.911,0l-20.122,-20.122c-1.635,-1.635 -1.635,-4.276 0,-5.911l48.041,-48.041c1.635,-1.635 4.276,-1.635 5.911,0l20.122,20.122c1.634,1.635 1.634,4.276 0,5.911l-29.177,29.176" style="fill:none;stroke:#275623;stroke-width:3.77px;"/><path d="M95.025,249.761l-7.671,7.672c-0.629,0.628 -1.509,0.628 -2.138,0l-18.613,-18.613c-0.629,-0.629 -0.629,-1.509 0,-2.138l46.406,-46.406c0.629,-0.629 1.509,-0.629 2.138,0l18.613,18.613c0.629,0.628 0.629,1.509 0,2.137l-29.806,29.806" style="fill:none;stroke:#275623;stroke-width:1.26px;"/><path d="M94.522,215.931c-0.503,-0.503 -0.503,-1.132 -0.125,-1.509c0.377,-0.377 1.006,-0.503 1.509,0.126l0.628,0.629c0.126,0.125 0.126,0.125 0.252,0c2.641,-2.138 4.905,-1.635 5.408,-1.132c0.503,0.503 0.377,1.257 0,1.76c-0.252,0.252 -0.629,0.378 -1.006,0.252c-1.51,-0.252 -2.767,0.629 -2.767,0.755c-0.126,0.125 0,0.125 0,0.251c1.132,1.132 2.641,2.641 4.15,4.15c0.126,0.126 0.377,0.126 1.509,-0.377c2.012,-0.755 3.773,-0.252 4.905,0.754c1.383,1.384 1.635,3.773 0.126,5.785c-0.126,0.126 -0.126,0.126 0,0.252c0.251,0.252 0.377,0.377 0.503,0.503c0.503,0.377 0.628,1.006 0.125,1.635c-0.377,0.377 -0.88,0.503 -1.383,0l-0.629,-0.629l-0.126,0c-1.76,1.258 -3.395,1.384 -4.024,0.755c-0.503,-0.503 -0.503,-1.258 0,-1.761c0.252,-0.251 0.629,-0.377 1.132,-0.377c0.755,0.126 1.383,-0.252 1.509,-0.252l0,-0.126c-1.006,-1.006 -2.138,-2.137 -3.27,-3.269c-0.125,-0.126 -0.125,-0.126 -0.251,-0.126c-1.635,0.629 -4.528,1.509 -6.666,-0.629c-1.509,-1.509 -1.76,-4.15 -0.377,-6.414c0,-0.125 0,-0.125 0,-0.251l-1.132,-0.755Zm12.702,9.935c0.126,0.126 0.126,0.126 0.126,0c0,0 1.006,-1.509 -0.126,-2.641c-0.629,-0.628 -1.635,-0.754 -2.767,-0.377l0,0.126l2.767,2.892Zm-10.187,-7.42c-0.125,-0.125 -0.125,-0.125 -0.251,-0.125c-0.252,0.251 -0.755,1.886 0.377,3.018c0.629,0.629 1.761,1.006 3.019,0.629c0.125,0 0.125,0 0.125,-0.126c0,0 0,-0.126 -0.125,-0.126l-3.145,-3.27Z" style="fill:#275623;fill-rule:nonzero;"/></g><g><path d="M44.092,240.832l-13.457,-50.43c-0.503,-2.013 0.629,-4.025 2.641,-4.528l28.297,-7.546c2.012,-0.503 4.024,0.629 4.527,2.641" style="fill:none;stroke:#275623;stroke-width:3.77px;"/><path d="M47.865,240.58l-13.331,-49.801c-0.252,-0.755 0.251,-1.509 1.006,-1.635l13.96,-3.773" style="fill:none;stroke:#275623;stroke-width:1.26px;"/><path d="M49.122,212.787l0,-0.126c-0.754,0.755 -1.509,2.264 -1.132,4.779c0,0.126 0,0.126 -0.125,0.126l-0.881,0.252c-0.754,0.251 -1.006,0.754 -0.88,1.257c0.126,0.503 0.629,0.881 1.258,0.629l0.88,-0.251c0.126,0 0.126,0 0.251,0.125c0,0.126 0.126,0.126 0.126,0.252c0.126,-2.264 0.126,-4.779 0.503,-7.043Z" style="fill:#275623;fill-rule:nonzero;"/></g><g><path d="M37.175,240.58l-24.146,-41.878c-1.006,-1.761 -0.378,-4.15 1.383,-5.156l25.404,-14.715c1.761,-1.006 4.15,-0.377 5.156,1.384l0.88,1.509" style="fill:none;stroke:#275623;stroke-width:3.77px;"/><path d="M41.451,240.58l-24.524,-42.633c-0.377,-0.629 -0.126,-1.509 0.503,-1.886l23.14,-13.331c0.629,-0.377 1.51,-0.126 1.887,0.503" style="fill:none;stroke:#275623;stroke-width:1.26px;"/><path d="M36.923,214.925c-0.628,0.755 -1.257,2.641 -0.125,5.282c0,0.126 0,0.126 -0.126,0.252l-0.755,0.377c-0.629,0.377 -0.754,1.006 -0.503,1.509c0.252,0.377 0.755,0.629 1.384,0.377l0.754,-0.503c0.126,0 0.126,0 0.252,0c0.377,0.503 0.88,0.881 1.383,1.132c-0.754,-2.767 -1.509,-5.533 -2.264,-8.426Z" style="fill:#275623;fill-rule:nonzero;"/></g><g><path d="M28.12,241.335l-30.057,-30.057c-1.509,-1.509 -1.509,-3.899 0,-5.282l20.751,-20.625c1.509,-1.509 3.898,-1.509 5.282,0l1.257,1.258" style="fill:none;stroke:#275623;stroke-width:3.77px;"/><path d="M33.276,241.335l-31.692,-31.692c-0.503,-0.503 -0.503,-1.383 0,-1.886l18.865,-18.865c0.503,-0.503 1.383,-0.503 1.886,0" style="fill:none;stroke:#275623;stroke-width:1.26px;"/><path d="M26.485,221.842c-0.503,-0.252 -0.88,-0.503 -1.132,-0.88c-0.377,0.88 -0.377,2.766 1.384,5.03c0.125,0.126 0,0.126 0,0.252l-0.629,0.628c-0.503,0.503 -0.377,1.132 -0.126,1.51c0.377,0.377 1.006,0.503 1.509,-0.126l0.629,-0.629c0.126,-0.126 0.126,-0.126 0.252,0c0.88,0.629 1.76,0.88 2.641,1.006c-0.503,-0.754 -1.007,-1.635 -1.635,-2.389c-1.006,-1.509 -2.013,-2.893 -2.893,-4.402Z" style="fill:#275623;fill-rule:nonzero;"/></g></g><path d="M195.485,71.18l0.352,0.001l0.352,0.003l0.351,0.003l0.351,0.005l0.35,0.005l0.35,0.007l0.35,0.007l0.349,0.008l0.348,0.01l0.348,0.01l0.347,0.012l0.347,0.012l0.346,0.013l0.346,0.015l0.345,0.015l0.345,0.017l0.344,0.017l0.343,0.019l0.343,0.019l0.342,0.021l0.342,0.021l0.341,0.023l0.34,0.023l0.34,0.025l0.339,0.026l0.339,0.026l0.338,0.028l0.337,0.029l0.337,0.029l0.336,0.031l0.335,0.032l0.335,0.033l0.334,0.034l0.333,0.035l0.333,0.036l0.332,0.037l0.331,0.038l0.33,0.039l0.33,0.041l0.329,0.041l0.328,0.042l0.328,0.044l0.327,0.044l0.326,0.046l0.325,0.046l0.325,0.048l0.324,0.049l0.323,0.05l0.322,0.051l0.322,0.052l0.32,0.053l0.32,0.054l0.319,0.055l0.319,0.057l0.317,0.057l0.317,0.059l0.316,0.059l0.314,0.061l0.315,0.062l0.313,0.063l0.312,0.064l0.312,0.065l0.311,0.066l0.309,0.067l0.309,0.069l0.308,0.07l0.307,0.07l0.307,0.072l0.305,0.073l0.304,0.074l0.304,0.075l0.302,0.077l0.302,0.077l0.301,0.079l0.299,0.079l0.299,0.081l0.298,0.082l0.297,0.084l0.296,0.084l0.295,0.085l0.293,0.087l0.293,0.088l0.292,0.089l0.291,0.09l0.29,0.091l0.289,0.092l0.288,0.094l0.286,0.095l0.286,0.096l0.285,0.097l0.283,0.098l0.283,0.099l0.282,0.101l0.28,0.102l0.279,0.103l0.278,0.104l0.278,0.106l0.276,0.106l0.275,0.108l0.273,0.109l0.273,0.11l0.272,0.112l0.27,0.112l0.269,0.114l0.268,0.115l0.267,0.117l0.266,0.117l0.265,0.119l0.263,0.12l0.262,0.121l0.261,0.122l0.26,0.124l0.259,0.125l0.257,0.126l0.256,0.127l0.255,0.129l0.254,0.13l0.253,0.131l0.251,0.133l0.25,0.133l0.248,0.135l0.248,0.136l0.246,0.138l0.245,0.139l0.243,0.14l0.242,0.141l0.241,0.142l0.24,0.144l0.238,0.145l0.237,0.147l0.236,0.148l0.234,0.149l0.233,0.15l0.231,0.151l0.23,0.153l0.229,0.155l0.227,0.155l0.226,0.157l0.224,0.158l0.223,0.16l0.222,0.16l0.22,0.163l0.219,0.163l0.217,0.165l0.216,0.166l0.214,0.167l0.213,0.169l0.212,0.17l0.209,0.172l0.209,0.173l0.207,0.174l0.205,0.175l0.204,0.177l0.202,0.178l0.2,0.18l0.2,0.181l0.197,0.182l0.196,0.183l0.194,0.185l0.193,0.187l0.191,0.187l0.19,0.19l0.188,0.19l0.186,0.192l0.185,0.193l0.182,0.194l0.182,0.196l0.179,0.198l0.178,0.198l0.176,0.2l0.175,0.202l0.173,0.203l0.171,0.204l0.169,0.205l0.168,0.207l0.166,0.209l0.164,0.209l0.162,0.211l0.16,0.213l0.159,0.214l0.157,0.215l0.155,0.217l0.154,0.218l0.151,0.219l0.15,0.221l0.147,0.222l0.146,0.223l0.144,0.225l0.143,0.226l0.14,0.228l0.138,0.229l0.137,0.23l0.134,0.232l0.133,0.233l0.131,0.235l0.128,0.236l0.127,0.237l0.125,0.239l0.123,0.24l0.121,0.241l0.119,0.243l0.117,0.244l0.115,0.245l0.112,0.247l0.111,0.248l0.109,0.25l0.107,0.251l0.105,0.252l0.102,0.253l0.101,0.255l0.099,0.256l0.096,0.258l0.095,0.259l0.092,0.26l0.09,0.262l0.088,0.263l0.086,0.264l0.084,0.266l0.082,0.267l0.08,0.268l0.077,0.27l0.076,0.271l0.073,0.272l0.071,0.274l0.069,0.275l0.066,0.276l0.065,0.277l0.062,0.279l0.06,0.28l0.058,0.282l0.056,0.283l0.054,0.284l0.051,0.285l0.049,0.287l0.047,0.288l0.044,0.29l0.043,0.29l0.04,0.292l0.038,0.293l0.035,0.295l0.034,0.296l0.031,0.297l0.029,0.298l0.026,0.3l0.025,0.301l0.022,0.303l0.019,0.303l0.018,0.305l0.015,0.307l0.013,0.307l0.01,0.309l0.008,0.31l0.006,0.311l0.004,0.313l0.001,0.311l0,58.486l-0.001,0.311l-0.004,0.314l-0.006,0.313l-0.008,0.314l-0.01,0.312l-0.013,0.312l-0.015,0.312l-0.018,0.311l-0.019,0.311l-0.022,0.31l-0.024,0.31l-0.027,0.309l-0.028,0.309l-0.031,0.308l-0.033,0.308l-0.036,0.307l-0.037,0.307l-0.04,0.306l-0.042,0.305l-0.044,0.305l-0.047,0.304l-0.049,0.304l-0.05,0.303l-0.053,0.303l-0.055,0.302l-0.058,0.301l-0.059,0.301l-0.062,0.3l-0.064,0.3l-0.065,0.298l-0.068,0.299l-0.07,0.297l-0.073,0.297l-0.074,0.296l-0.076,0.296l-0.079,0.295l-0.08,0.294l-0.083,0.294l-0.085,0.292l-0.086,0.292l-0.089,0.292l-0.091,0.291l-0.093,0.289l-0.094,0.29l-0.097,0.288l-0.099,0.288l-0.101,0.287l-0.103,0.286l-0.105,0.286l-0.107,0.284l-0.108,0.284l-0.111,0.283l-0.113,0.283l-0.114,0.281l-0.117,0.281l-0.118,0.28l-0.121,0.279l-0.122,0.278l-0.124,0.278l-0.126,0.276l-0.129,0.276l-0.129,0.275l-0.132,0.274l-0.134,0.274l-0.135,0.272l-0.138,0.271l-0.139,0.271l-0.141,0.27l-0.143,0.269l-0.145,0.268l-0.146,0.267l-0.148,0.266l-0.15,0.265l-0.152,0.264l-0.154,0.264l-0.156,0.262l-0.157,0.262l-0.159,0.26l-0.161,0.26l-0.162,0.259l-0.164,0.258l-0.166,0.256l-0.168,0.256l-0.169,0.255l-0.171,0.254l-0.173,0.252l-0.175,0.252l-0.176,0.251l-0.178,0.25l-0.179,0.249l-0.182,0.248l-0.182,0.246l-0.185,0.246l-0.186,0.245l-0.188,0.243l-0.189,0.243l-0.191,0.242l-0.193,0.24l-0.194,0.239l-0.196,0.239l-0.197,0.237l-0.199,0.236l-0.201,0.235l-0.202,0.234l-0.204,0.233l-0.205,0.232l-0.207,0.231l-0.208,0.229l-0.21,0.229l-0.211,0.227l-0.213,0.226l-0.215,0.226l-0.216,0.223l-0.217,0.223l-0.219,0.222l-0.22,0.22l-0.222,0.219l-0.224,0.219l-0.224,0.216l-0.227,0.216l-0.227,0.215l-0.229,0.213l-0.231,0.212l-0.232,0.211l-0.233,0.21l-0.235,0.208l-0.236,0.208l-0.238,0.206l-0.239,0.205l-0.24,0.203l-0.242,0.202l-0.243,0.202l-0.244,0.199l-0.246,0.199l-0.247,0.197l-0.249,0.196l-0.25,0.195l-0.251,0.193l-0.252,0.192l-0.254,0.191l-0.255,0.19l-0.256,0.188l-0.258,0.187l-0.259,0.186l-0.26,0.184l-0.261,0.183l-0.263,0.181l-0.264,0.181l-0.265,0.179l-0.267,0.177l-0.267,0.176l-0.269,0.175l-0.27,0.174l-0.272,0.172l-0.272,0.17l-0.274,0.17l-0.275,0.167l-0.276,0.167l-0.277,0.165l-0.278,0.164l-0.28,0.162l-0.281,0.161l-0.282,0.159l-0.283,0.158l-0.284,0.157l-0.285,0.155l-0.287,0.154l-0.287,0.152l-0.289,0.15l-0.289,0.15l-0.291,0.147l-0.292,0.147l-0.293,0.145l-0.294,0.143l-0.295,0.142l-0.296,0.14l-0.298,0.139l-0.298,0.137l-0.299,0.136l-0.3,0.134l-0.302,0.133l-0.302,0.131l-0.304,0.13l-0.304,0.128l-0.305,0.126l-0.307,0.125l-0.307,0.123l-0.308,0.122l-0.309,0.12l-0.311,0.119l-0.311,0.117l-0.312,0.116l-0.313,0.113l-0.314,0.113l-0.315,0.11l-0.316,0.109l-0.316,0.108l-0.318,0.105l-0.319,0.105l-0.319,0.102l-0.32,0.101l-0.322,0.099l-0.322,0.098l-0.322,0.095l-0.324,0.095l-0.325,0.092l-0.325,0.091l-0.327,0.089l-0.327,0.087l-0.328,0.086l-0.328,0.084l-0.33,0.082l-0.33,0.081l-0.331,0.079l-0.332,0.077l-0.333,0.075l-0.333,0.074l-0.335,0.072l-0.335,0.07l-0.335,0.068l-0.337,0.067l-0.337,0.064l-0.338,0.063l-0.339,0.062l-0.339,0.059l-0.34,0.058l-0.341,0.056l-0.341,0.054l-0.343,0.052l-0.342,0.05l-0.344,0.049l-0.344,0.047l-0.345,0.045l-0.345,0.043l-0.347,0.041l-0.346,0.039l-0.348,0.038l-0.348,0.035l-0.348,0.034l-0.35,0.032l-0.349,0.03l-0.351,0.028l-0.351,0.026l-0.352,0.025l-0.352,0.022l-0.352,0.02l-0.354,0.019l-0.354,0.017l-0.354,0.014l-0.355,0.013l-0.355,0.011l-0.356,0.009l-0.357,0.007l-0.357,0.005l-0.357,0.002l-0.358,0.001l-0.358,-0.001l-0.358,-0.002l-0.357,-0.005l-0.356,-0.007l-0.356,-0.009l-0.356,-0.011l-0.355,-0.013l-0.354,-0.014l-0.354,-0.017l-0.353,-0.019l-0.353,-0.02l-0.352,-0.022l-0.352,-0.025l-0.351,-0.026l-0.35,-0.028l-0.35,-0.03l-0.349,-0.032l-0.349,-0.034l-0.348,-0.035l-0.347,-0.038l-0.347,-0.039l-0.346,-0.041l-0.346,-0.043l-0.344,-0.045l-0.345,-0.047l-0.343,-0.049l-0.343,-0.05l-0.342,-0.052l-0.342,-0.054l-0.34,-0.056l-0.341,-0.058l-0.339,-0.059l-0.339,-0.062l-0.338,-0.063l-0.337,-0.064l-0.336,-0.067l-0.336,-0.068l-0.335,-0.07l-0.334,-0.072l-0.334,-0.074l-0.332,-0.075l-0.332,-0.077l-0.331,-0.079l-0.331,-0.081l-0.329,-0.082l-0.329,-0.084l-0.328,-0.086l-0.327,-0.087l-0.326,-0.089l-0.326,-0.091l-0.324,-0.092l-0.324,-0.095l-0.323,-0.095l-0.322,-0.098l-0.321,-0.099l-0.321,-0.101l-0.319,-0.102l-0.319,-0.105l-0.317,-0.105l-0.317,-0.108l-0.316,-0.109l-0.315,-0.11l-0.314,-0.113l-0.313,-0.113l-0.312,-0.116l-0.311,-0.117l-0.31,-0.119l-0.309,-0.12l-0.309,-0.122l-0.307,-0.123l-0.306,-0.125l-0.306,-0.126l-0.304,-0.128l-0.303,-0.13l-0.303,-0.131l-0.301,-0.133l-0.3,-0.134l-0.3,-0.136l-0.298,-0.137l-0.297,-0.139l-0.296,-0.14l-0.295,-0.142l-0.295,-0.143l-0.293,-0.145l-0.291,-0.147l-0.291,-0.147l-0.29,-0.15l-0.289,-0.15l-0.287,-0.152l-0.286,-0.154l-0.286,-0.155l-0.284,-0.157l-0.283,-0.158l-0.282,-0.159l-0.281,-0.161l-0.279,-0.162l-0.279,-0.164l-0.277,-0.165l-0.276,-0.167l-0.275,-0.167l-0.274,-0.17l-0.272,-0.17l-0.271,-0.172l-0.27,-0.174l-0.269,-0.175l-0.268,-0.176l-0.266,-0.177l-0.266,-0.179l-0.264,-0.181l-0.262,-0.181l-0.262,-0.183l-0.26,-0.184l-0.259,-0.186l-0.257,-0.187l-0.257,-0.188l-0.255,-0.19l-0.254,-0.191l-0.252,-0.192l-0.251,-0.193l-0.25,-0.195l-0.248,-0.196l-0.248,-0.197l-0.245,-0.199l-0.245,-0.199l-0.243,-0.202l-0.242,-0.202l-0.24,-0.203l-0.239,-0.205l-0.237,-0.206l-0.237,-0.208l-0.234,-0.208l-0.234,-0.21l-0.232,-0.211l-0.23,-0.212l-0.229,-0.213l-0.228,-0.215l-0.226,-0.216l-0.225,-0.216l-0.223,-0.219l-0.222,-0.219l-0.221,-0.22l-0.218,-0.222l-0.218,-0.223l-0.216,-0.224l-0.214,-0.225l-0.213,-0.226l-0.212,-0.227l-0.209,-0.229l-0.209,-0.229l-0.207,-0.231l-0.205,-0.232l-0.204,-0.233l-0.202,-0.234l-0.2,-0.235l-0.199,-0.236l-0.198,-0.237l-0.196,-0.238l-0.194,-0.24l-0.192,-0.24l-0.191,-0.242l-0.19,-0.243l-0.188,-0.243l-0.186,-0.245l-0.184,-0.246l-0.183,-0.246l-0.181,-0.248l-0.18,-0.249l-0.178,-0.25l-0.176,-0.251l-0.174,-0.251l-0.173,-0.253l-0.171,-0.254l-0.17,-0.255l-0.167,-0.256l-0.166,-0.256l-0.165,-0.258l-0.162,-0.259l-0.161,-0.26l-0.159,-0.26l-0.157,-0.262l-0.156,-0.262l-0.153,-0.264l-0.152,-0.264l-0.15,-0.265l-0.149,-0.266l-0.146,-0.267l-0.145,-0.268l-0.143,-0.269l-0.141,-0.27l-0.139,-0.27l-0.137,-0.272l-0.136,-0.272l-0.133,-0.274l-0.132,-0.274l-0.13,-0.275l-0.128,-0.275l-0.126,-0.277l-0.124,-0.278l-0.123,-0.278l-0.12,-0.279l-0.119,-0.28l-0.116,-0.281l-0.115,-0.281l-0.113,-0.283l-0.11,-0.283l-0.109,-0.284l-0.107,-0.284l-0.105,-0.286l-0.103,-0.286l-0.1,-0.287l-0.099,-0.288l-0.097,-0.288l-0.095,-0.29l-0.093,-0.289l-0.091,-0.291l-0.088,-0.292l-0.087,-0.292l-0.085,-0.292l-0.082,-0.294l-0.081,-0.294l-0.078,-0.295l-0.077,-0.296l-0.074,-0.296l-0.072,-0.297l-0.07,-0.297l-0.068,-0.299l-0.066,-0.298l-0.064,-0.3l-0.061,-0.3l-0.06,-0.301l-0.057,-0.301l-0.055,-0.302l-0.053,-0.303l-0.051,-0.303l-0.049,-0.304l-0.046,-0.304l-0.044,-0.305l-0.042,-0.305l-0.04,-0.306l-0.038,-0.307l-0.035,-0.307l-0.033,-0.308l-0.031,-0.308l-0.029,-0.309l-0.026,-0.309l-0.025,-0.31l-0.021,-0.31l-0.02,-0.311l-0.017,-0.311l-0.015,-0.312l-0.013,-0.312l-0.011,-0.312l-0.008,-0.314l-0.006,-0.313l-0.003,-0.314l-0.001,-0.311l0,-58.486l0.001,-0.311l0.003,-0.312l0.006,-0.312l0.008,-0.31l0.011,-0.309l0.012,-0.307l0.015,-0.306l0.018,-0.305l0.019,-0.304l0.022,-0.302l0.024,-0.301l0.027,-0.3l0.028,-0.298l0.031,-0.297l0.034,-0.296l0.035,-0.294l0.038,-0.294l0.04,-0.292l0.042,-0.29l0.044,-0.289l0.047,-0.288l0.049,-0.287l0.051,-0.285l0.053,-0.285l0.055,-0.282l0.058,-0.282l0.06,-0.28l0.062,-0.279l0.064,-0.277l0.067,-0.277l0.068,-0.274l0.071,-0.274l0.073,-0.272l0.075,-0.271l0.077,-0.27l0.079,-0.268l0.082,-0.267l0.083,-0.266l0.086,-0.264l0.088,-0.263l0.089,-0.261l0.092,-0.261l0.094,-0.259l0.097,-0.257l0.098,-0.256l0.1,-0.255l0.102,-0.254l0.105,-0.252l0.106,-0.251l0.108,-0.249l0.111,-0.248l0.112,-0.247l0.115,-0.246l0.116,-0.244l0.119,-0.243l0.12,-0.241l0.123,-0.24l0.124,-0.238l0.126,-0.238l0.129,-0.236l0.13,-0.234l0.132,-0.233l0.134,-0.232l0.136,-0.23l0.138,-0.229l0.14,-0.228l0.141,-0.226l0.144,-0.225l0.145,-0.224l0.148,-0.222l0.149,-0.221l0.151,-0.219l0.152,-0.218l0.155,-0.217l0.156,-0.215l0.159,-0.214l0.16,-0.212l0.162,-0.211l0.163,-0.21l0.165,-0.208l0.168,-0.207l0.168,-0.206l0.171,-0.204l0.172,-0.203l0.174,-0.202l0.176,-0.2l0.177,-0.198l0.18,-0.198l0.18,-0.196l0.183,-0.194l0.184,-0.193l0.186,-0.192l0.187,-0.191l0.189,-0.189l0.191,-0.188l0.192,-0.186l0.194,-0.185l0.195,-0.184l0.197,-0.182l0.199,-0.181l0.2,-0.179l0.202,-0.179l0.203,-0.176l0.205,-0.176l0.207,-0.174l0.207,-0.173l0.21,-0.171l0.211,-0.171l0.212,-0.168l0.214,-0.168l0.215,-0.166l0.217,-0.165l0.219,-0.163l0.219,-0.162l0.222,-0.161l0.222,-0.16l0.224,-0.158l0.226,-0.157l0.227,-0.155l0.228,-0.155l0.23,-0.153l0.231,-0.151l0.232,-0.151l0.234,-0.149l0.235,-0.147l0.237,-0.147l0.237,-0.145l0.24,-0.144l0.24,-0.143l0.242,-0.141l0.243,-0.14l0.245,-0.139l0.246,-0.137l0.247,-0.136l0.248,-0.135l0.25,-0.134l0.251,-0.132l0.252,-0.132l0.253,-0.13l0.255,-0.128l0.256,-0.128l0.257,-0.126l0.258,-0.125l0.26,-0.123l0.261,-0.123l0.262,-0.121l0.263,-0.12l0.264,-0.119l0.266,-0.117l0.267,-0.117l0.268,-0.115l0.269,-0.113l0.27,-0.113l0.271,-0.112l0.273,-0.11l0.274,-0.109l0.274,-0.108l0.276,-0.106l0.277,-0.106l0.279,-0.104l0.279,-0.103l0.28,-0.102l0.282,-0.1l0.282,-0.1l0.284,-0.098l0.284,-0.097l0.286,-0.096l0.287,-0.095l0.288,-0.094l0.288,-0.092l0.29,-0.091l0.291,-0.09l0.292,-0.089l0.293,-0.088l0.294,-0.087l0.295,-0.085l0.296,-0.084l0.297,-0.084l0.298,-0.082l0.299,-0.081l0.3,-0.079l0.3,-0.079l0.302,-0.077l0.303,-0.077l0.304,-0.075l0.304,-0.074l0.306,-0.073l0.306,-0.072l0.308,-0.071l0.308,-0.069l0.309,-0.069l0.31,-0.067l0.311,-0.066l0.312,-0.065l0.313,-0.064l0.313,-0.063l0.315,-0.062l0.315,-0.061l0.316,-0.059l0.317,-0.059l0.318,-0.057l0.319,-0.057l0.319,-0.055l0.321,-0.054l0.321,-0.053l0.322,-0.052l0.323,-0.051l0.323,-0.05l0.325,-0.049l0.325,-0.048l0.326,-0.046l0.326,-0.046l0.328,-0.044l0.328,-0.044l0.329,-0.042l0.33,-0.041l0.33,-0.041l0.331,-0.039l0.332,-0.038l0.333,-0.037l0.333,-0.036l0.334,-0.035l0.335,-0.034l0.336,-0.033l0.336,-0.032l0.336,-0.031l0.338,-0.029l0.338,-0.029l0.339,-0.028l0.339,-0.026l0.341,-0.026l0.34,-0.025l0.342,-0.023l0.342,-0.023l0.342,-0.021l0.344,-0.021l0.343,-0.019l0.345,-0.019l0.345,-0.017l0.346,-0.017l0.346,-0.015l0.347,-0.015l0.347,-0.013l0.348,-0.012l0.349,-0.012l0.349,-0.01l0.349,-0.01l0.351,-0.008l0.35,-0.007l0.352,-0.007l0.351,-0.005l0.353,-0.005l0.352,-0.003l0.354,-0.003l0.353,-0.001l0.355,-0.001l0.353,0.001Zm-0.697,3.773l-0.343,0.001l-0.343,0.003l-0.342,0.003l-0.342,0.004l-0.341,0.005l-0.34,0.007l-0.34,0.007l-0.34,0.008l-0.338,0.009l-0.338,0.01l-0.338,0.011l-0.337,0.012l-0.336,0.013l-0.336,0.014l-0.335,0.015l-0.334,0.016l-0.334,0.017l-0.333,0.018l-0.332,0.019l-0.332,0.019l-0.331,0.021l-0.33,0.022l-0.33,0.023l-0.329,0.024l-0.328,0.024l-0.328,0.026l-0.326,0.027l-0.327,0.027l-0.325,0.029l-0.325,0.03l-0.323,0.031l-0.324,0.031l-0.322,0.033l-0.321,0.034l-0.321,0.034l-0.32,0.036l-0.32,0.037l-0.318,0.037l-0.318,0.039l-0.316,0.04l-0.316,0.04l-0.316,0.042l-0.314,0.043l-0.314,0.044l-0.312,0.044l-0.312,0.046l-0.311,0.047l-0.31,0.048l-0.309,0.048l-0.309,0.05l-0.307,0.051l-0.307,0.052l-0.305,0.053l-0.305,0.054l-0.304,0.054l-0.303,0.056l-0.302,0.057l-0.301,0.058l-0.3,0.059l-0.299,0.06l-0.298,0.061l-0.297,0.062l-0.296,0.064l-0.296,0.064l-0.294,0.065l-0.293,0.066l-0.292,0.067l-0.292,0.069l-0.29,0.069l-0.289,0.07l-0.288,0.072l-0.288,0.072l-0.286,0.073l-0.285,0.075l-0.284,0.075l-0.283,0.077l-0.282,0.078l-0.28,0.078l-0.28,0.08l-0.279,0.081l-0.277,0.081l-0.277,0.083l-0.275,0.084l-0.274,0.085l-0.273,0.086l-0.272,0.087l-0.271,0.088l-0.27,0.089l-0.268,0.09l-0.267,0.092l-0.267,0.092l-0.265,0.093l-0.263,0.095l-0.263,0.095l-0.261,0.096l-0.261,0.098l-0.259,0.098l-0.258,0.1l-0.256,0.101l-0.256,0.102l-0.254,0.102l-0.253,0.104l-0.251,0.105l-0.251,0.106l-0.249,0.107l-0.248,0.108l-0.246,0.109l-0.246,0.11l-0.244,0.112l-0.242,0.112l-0.242,0.113l-0.24,0.115l-0.239,0.115l-0.238,0.117l-0.236,0.117l-0.235,0.119l-0.233,0.12l-0.232,0.121l-0.231,0.121l-0.23,0.123l-0.228,0.124l-0.227,0.125l-0.225,0.126l-0.224,0.128l-0.223,0.128l-0.221,0.129l-0.22,0.13l-0.219,0.132l-0.217,0.132l-0.215,0.134l-0.215,0.134l-0.212,0.136l-0.212,0.137l-0.21,0.138l-0.208,0.139l-0.207,0.139l-0.206,0.142l-0.204,0.142l-0.203,0.143l-0.201,0.144l-0.2,0.145l-0.199,0.147l-0.196,0.147l-0.196,0.149l-0.194,0.149l-0.192,0.151l-0.191,0.152l-0.189,0.152l-0.188,0.154l-0.187,0.155l-0.185,0.156l-0.183,0.157l-0.182,0.159l-0.18,0.159l-0.179,0.16l-0.177,0.162l-0.176,0.162l-0.174,0.164l-0.173,0.164l-0.171,0.166l-0.169,0.167l-0.168,0.168l-0.166,0.169l-0.165,0.17l-0.163,0.172l-0.162,0.172l-0.16,0.173l-0.159,0.175l-0.156,0.176l-0.156,0.177l-0.153,0.177l-0.152,0.179l-0.151,0.181l-0.149,0.181l-0.147,0.182l-0.146,0.184l-0.144,0.184l-0.142,0.186l-0.141,0.187l-0.139,0.188l-0.137,0.189l-0.136,0.191l-0.134,0.191l-0.133,0.193l-0.131,0.193l-0.129,0.195l-0.128,0.196l-0.126,0.198l-0.124,0.198l-0.122,0.2l-0.121,0.201l-0.12,0.202l-0.117,0.203l-0.116,0.204l-0.114,0.205l-0.112,0.207l-0.111,0.208l-0.109,0.209l-0.107,0.211l-0.106,0.211l-0.104,0.213l-0.102,0.214l-0.1,0.215l-0.099,0.217l-0.097,0.218l-0.095,0.219l-0.094,0.22l-0.091,0.221l-0.09,0.223l-0.088,0.224l-0.086,0.225l-0.085,0.227l-0.083,0.228l-0.081,0.229l-0.079,0.23l-0.077,0.232l-0.076,0.233l-0.073,0.234l-0.072,0.236l-0.07,0.237l-0.069,0.238l-0.066,0.24l-0.064,0.241l-0.063,0.242l-0.061,0.244l-0.059,0.245l-0.057,0.246l-0.055,0.248l-0.053,0.249l-0.051,0.25l-0.05,0.252l-0.047,0.253l-0.046,0.255l-0.043,0.256l-0.042,0.257l-0.04,0.259l-0.037,0.26l-0.036,0.262l-0.034,0.263l-0.032,0.264l-0.03,0.266l-0.028,0.267l-0.025,0.269l-0.024,0.27l-0.022,0.271l-0.02,0.273l-0.017,0.274l-0.016,0.276l-0.014,0.277l-0.011,0.279l-0.01,0.28l-0.007,0.282l-0.005,0.283l-0.003,0.284l-0.001,0.29l0,58.472l0.001,0.29l0.003,0.286l0.005,0.285l0.008,0.286l0.009,0.284l0.012,0.284l0.013,0.284l0.016,0.284l0.018,0.282l0.02,0.283l0.022,0.282l0.024,0.281l0.026,0.281l0.028,0.281l0.03,0.28l0.033,0.279l0.034,0.279l0.036,0.279l0.038,0.278l0.041,0.278l0.042,0.277l0.044,0.276l0.046,0.276l0.049,0.276l0.05,0.275l0.052,0.274l0.054,0.274l0.056,0.273l0.058,0.273l0.06,0.272l0.062,0.272l0.064,0.271l0.066,0.271l0.068,0.27l0.069,0.269l0.072,0.269l0.073,0.268l0.075,0.268l0.078,0.267l0.079,0.266l0.081,0.266l0.082,0.265l0.085,0.265l0.087,0.263l0.088,0.264l0.09,0.263l0.092,0.262l0.094,0.261l0.096,0.261l0.098,0.26l0.099,0.259l0.101,0.259l0.103,0.258l0.105,0.258l0.107,0.256l0.108,0.256l0.11,0.256l0.112,0.254l0.114,0.254l0.115,0.254l0.118,0.252l0.119,0.252l0.12,0.251l0.123,0.25l0.124,0.25l0.126,0.249l0.128,0.248l0.129,0.248l0.131,0.246l0.133,0.246l0.134,0.245l0.136,0.245l0.138,0.243l0.14,0.243l0.141,0.242l0.143,0.241l0.144,0.24l0.146,0.24l0.148,0.239l0.15,0.238l0.151,0.237l0.153,0.236l0.154,0.235l0.156,0.235l0.157,0.234l0.16,0.233l0.16,0.232l0.163,0.231l0.164,0.23l0.165,0.229l0.167,0.229l0.169,0.228l0.17,0.226l0.172,0.226l0.173,0.225l0.175,0.224l0.177,0.223l0.178,0.222l0.179,0.221l0.181,0.221l0.183,0.219l0.184,0.218l0.185,0.218l0.187,0.216l0.188,0.216l0.19,0.214l0.192,0.214l0.193,0.212l0.194,0.212l0.196,0.211l0.197,0.209l0.199,0.209l0.2,0.207l0.202,0.207l0.203,0.205l0.204,0.205l0.206,0.203l0.207,0.203l0.209,0.201l0.21,0.2l0.211,0.199l0.213,0.198l0.214,0.197l0.215,0.196l0.217,0.195l0.218,0.194l0.22,0.193l0.221,0.191l0.222,0.191l0.224,0.189l0.224,0.188l0.227,0.187l0.227,0.186l0.229,0.185l0.23,0.184l0.231,0.182l0.233,0.182l0.234,0.18l0.235,0.179l0.236,0.178l0.238,0.176l0.239,0.176l0.24,0.174l0.241,0.173l0.243,0.172l0.244,0.17l0.245,0.17l0.246,0.168l0.248,0.167l0.248,0.166l0.25,0.164l0.251,0.163l0.252,0.162l0.254,0.161l0.254,0.159l0.256,0.158l0.257,0.157l0.258,0.156l0.259,0.154l0.26,0.153l0.261,0.152l0.263,0.15l0.263,0.149l0.265,0.148l0.265,0.146l0.267,0.145l0.268,0.144l0.269,0.142l0.27,0.141l0.271,0.14l0.272,0.138l0.274,0.137l0.274,0.136l0.275,0.134l0.276,0.133l0.278,0.131l0.278,0.13l0.279,0.128l0.281,0.128l0.281,0.125l0.282,0.125l0.283,0.123l0.285,0.121l0.285,0.12l0.286,0.119l0.287,0.117l0.288,0.115l0.289,0.115l0.29,0.112l0.291,0.111l0.292,0.11l0.293,0.109l0.293,0.106l0.295,0.106l0.295,0.103l0.296,0.103l0.297,0.1l0.298,0.1l0.299,0.097l0.3,0.096l0.301,0.095l0.301,0.093l0.302,0.092l0.303,0.089l0.304,0.089l0.305,0.087l0.306,0.085l0.306,0.084l0.307,0.082l0.308,0.08l0.309,0.079l0.309,0.077l0.31,0.076l0.311,0.074l0.312,0.072l0.313,0.071l0.313,0.069l0.314,0.068l0.315,0.066l0.315,0.064l0.317,0.063l0.316,0.06l0.318,0.06l0.318,0.057l0.319,0.056l0.32,0.054l0.32,0.053l0.321,0.051l0.322,0.049l0.322,0.047l0.323,0.046l0.324,0.044l0.324,0.042l0.325,0.041l0.326,0.038l0.326,0.037l0.327,0.036l0.327,0.033l0.328,0.032l0.329,0.03l0.329,0.028l0.329,0.026l0.331,0.025l0.331,0.023l0.331,0.021l0.332,0.019l0.333,0.018l0.333,0.015l0.333,0.014l0.334,0.012l0.335,0.01l0.335,0.009l0.336,0.006l0.336,0.005l0.337,0.003l0.337,0.001l0.337,-0.001l0.336,-0.003l0.337,-0.005l0.335,-0.006l0.335,-0.009l0.335,-0.01l0.334,-0.012l0.334,-0.014l0.333,-0.015l0.332,-0.018l0.332,-0.019l0.332,-0.021l0.331,-0.023l0.33,-0.025l0.33,-0.026l0.329,-0.028l0.328,-0.03l0.328,-0.032l0.328,-0.033l0.326,-0.036l0.327,-0.037l0.325,-0.038l0.325,-0.041l0.324,-0.042l0.324,-0.044l0.323,-0.046l0.322,-0.047l0.322,-0.049l0.321,-0.051l0.32,-0.053l0.32,-0.054l0.319,-0.056l0.318,-0.057l0.318,-0.06l0.317,-0.06l0.316,-0.063l0.316,-0.064l0.314,-0.066l0.314,-0.068l0.314,-0.069l0.312,-0.071l0.312,-0.072l0.311,-0.074l0.31,-0.076l0.31,-0.077l0.308,-0.079l0.308,-0.08l0.308,-0.082l0.306,-0.084l0.305,-0.085l0.305,-0.087l0.304,-0.089l0.303,-0.089l0.302,-0.092l0.302,-0.093l0.3,-0.095l0.3,-0.096l0.299,-0.097l0.298,-0.1l0.297,-0.1l0.296,-0.103l0.296,-0.103l0.294,-0.106l0.294,-0.106l0.293,-0.109l0.291,-0.11l0.291,-0.111l0.29,-0.112l0.289,-0.115l0.288,-0.115l0.287,-0.117l0.286,-0.119l0.286,-0.12l0.284,-0.121l0.283,-0.123l0.282,-0.125l0.282,-0.125l0.28,-0.128l0.279,-0.128l0.279,-0.13l0.277,-0.131l0.276,-0.133l0.276,-0.134l0.274,-0.136l0.273,-0.137l0.272,-0.138l0.271,-0.14l0.27,-0.141l0.269,-0.142l0.268,-0.144l0.267,-0.145l0.266,-0.146l0.264,-0.148l0.264,-0.149l0.262,-0.15l0.262,-0.152l0.26,-0.153l0.259,-0.154l0.258,-0.156l0.257,-0.157l0.255,-0.158l0.255,-0.159l0.253,-0.161l0.252,-0.162l0.251,-0.163l0.25,-0.164l0.249,-0.166l0.247,-0.167l0.246,-0.168l0.245,-0.17l0.244,-0.17l0.243,-0.172l0.241,-0.173l0.24,-0.174l0.239,-0.176l0.238,-0.176l0.236,-0.178l0.236,-0.179l0.234,-0.18l0.232,-0.182l0.231,-0.182l0.231,-0.184l0.228,-0.185l0.228,-0.186l0.226,-0.187l0.225,-0.188l0.223,-0.189l0.223,-0.191l0.22,-0.191l0.22,-0.193l0.218,-0.194l0.217,-0.195l0.215,-0.196l0.215,-0.197l0.212,-0.198l0.212,-0.199l0.21,-0.2l0.208,-0.201l0.208,-0.203l0.205,-0.203l0.205,-0.205l0.203,-0.205l0.201,-0.207l0.2,-0.207l0.199,-0.209l0.197,-0.209l0.196,-0.211l0.195,-0.212l0.193,-0.212l0.191,-0.214l0.19,-0.214l0.188,-0.216l0.187,-0.216l0.186,-0.218l0.184,-0.218l0.182,-0.219l0.181,-0.221l0.18,-0.221l0.178,-0.222l0.176,-0.223l0.175,-0.224l0.173,-0.225l0.172,-0.226l0.17,-0.226l0.169,-0.228l0.167,-0.229l0.166,-0.229l0.164,-0.23l0.162,-0.231l0.161,-0.232l0.159,-0.233l0.158,-0.234l0.155,-0.235l0.155,-0.235l0.153,-0.236l0.151,-0.237l0.149,-0.238l0.148,-0.239l0.146,-0.24l0.145,-0.24l0.142,-0.241l0.142,-0.242l0.139,-0.243l0.138,-0.243l0.136,-0.245l0.135,-0.245l0.132,-0.246l0.131,-0.246l0.13,-0.248l0.127,-0.248l0.126,-0.249l0.125,-0.25l0.122,-0.25l0.121,-0.251l0.119,-0.252l0.117,-0.252l0.115,-0.254l0.114,-0.254l0.112,-0.254l0.11,-0.256l0.109,-0.256l0.106,-0.256l0.105,-0.258l0.103,-0.258l0.101,-0.259l0.1,-0.259l0.097,-0.26l0.096,-0.261l0.094,-0.261l0.092,-0.262l0.09,-0.263l0.089,-0.263l0.086,-0.264l0.085,-0.265l0.083,-0.265l0.081,-0.266l0.079,-0.266l0.077,-0.267l0.075,-0.268l0.074,-0.268l0.071,-0.269l0.07,-0.269l0.068,-0.27l0.065,-0.271l0.064,-0.271l0.062,-0.272l0.06,-0.272l0.058,-0.273l0.056,-0.273l0.054,-0.274l0.053,-0.274l0.05,-0.275l0.048,-0.276l0.046,-0.276l0.044,-0.276l0.043,-0.277l0.04,-0.278l0.038,-0.278l0.037,-0.278l0.034,-0.28l0.032,-0.279l0.03,-0.28l0.028,-0.281l0.026,-0.281l0.024,-0.281l0.022,-0.282l0.02,-0.283l0.018,-0.282l0.016,-0.284l0.014,-0.284l0.011,-0.284l0.01,-0.284l0.007,-0.286l0.006,-0.285l0.003,-0.286l0.001,-0.29l0,-58.472l-0.001,-0.29l-0.003,-0.284l-0.006,-0.283l-0.007,-0.282l-0.01,-0.28l-0.011,-0.278l-0.014,-0.277l-0.016,-0.276l-0.017,-0.274l-0.02,-0.273l-0.022,-0.272l-0.024,-0.27l-0.026,-0.268l-0.028,-0.267l-0.03,-0.266l-0.032,-0.264l-0.034,-0.263l-0.036,-0.262l-0.038,-0.26l-0.04,-0.258l-0.041,-0.258l-0.044,-0.256l-0.046,-0.254l-0.048,-0.253l-0.049,-0.252l-0.052,-0.25l-0.053,-0.249l-0.056,-0.248l-0.057,-0.246l-0.059,-0.245l-0.061,-0.244l-0.063,-0.242l-0.065,-0.241l-0.066,-0.24l-0.069,-0.238l-0.07,-0.237l-0.072,-0.235l-0.074,-0.235l-0.076,-0.233l-0.078,-0.231l-0.079,-0.231l-0.082,-0.229l-0.083,-0.228l-0.085,-0.226l-0.086,-0.226l-0.089,-0.224l-0.09,-0.222l-0.092,-0.222l-0.094,-0.22l-0.095,-0.219l-0.097,-0.218l-0.099,-0.216l-0.101,-0.215l-0.103,-0.214l-0.104,-0.213l-0.106,-0.212l-0.108,-0.21l-0.109,-0.209l-0.111,-0.208l-0.113,-0.207l-0.115,-0.205l-0.116,-0.205l-0.118,-0.203l-0.119,-0.202l-0.122,-0.201l-0.123,-0.199l-0.125,-0.199l-0.126,-0.197l-0.128,-0.196l-0.13,-0.195l-0.131,-0.194l-0.133,-0.193l-0.135,-0.191l-0.136,-0.19l-0.138,-0.19l-0.139,-0.188l-0.142,-0.187l-0.143,-0.185l-0.144,-0.185l-0.146,-0.183l-0.148,-0.183l-0.149,-0.181l-0.151,-0.18l-0.153,-0.179l-0.154,-0.178l-0.156,-0.177l-0.157,-0.176l-0.159,-0.174l-0.16,-0.174l-0.163,-0.172l-0.163,-0.172l-0.166,-0.17l-0.166,-0.169l-0.169,-0.168l-0.17,-0.167l-0.171,-0.166l-0.173,-0.165l-0.175,-0.163l-0.176,-0.163l-0.178,-0.161l-0.179,-0.161l-0.181,-0.159l-0.182,-0.158l-0.184,-0.157l-0.186,-0.156l-0.187,-0.155l-0.188,-0.154l-0.19,-0.153l-0.191,-0.152l-0.193,-0.151l-0.194,-0.149l-0.196,-0.149l-0.198,-0.147l-0.198,-0.147l-0.201,-0.145l-0.201,-0.144l-0.204,-0.143l-0.204,-0.143l-0.206,-0.141l-0.208,-0.14l-0.209,-0.138l-0.21,-0.138l-0.212,-0.137l-0.213,-0.136l-0.215,-0.134l-0.216,-0.134l-0.218,-0.132l-0.219,-0.132l-0.22,-0.13l-0.222,-0.13l-0.223,-0.128l-0.224,-0.127l-0.226,-0.126l-0.227,-0.125l-0.229,-0.124l-0.229,-0.123l-0.232,-0.122l-0.232,-0.121l-0.234,-0.12l-0.235,-0.118l-0.237,-0.118l-0.238,-0.116l-0.239,-0.116l-0.24,-0.114l-0.242,-0.114l-0.243,-0.112l-0.244,-0.111l-0.246,-0.111l-0.247,-0.109l-0.248,-0.108l-0.249,-0.107l-0.251,-0.106l-0.252,-0.105l-0.253,-0.104l-0.254,-0.102l-0.256,-0.102l-0.257,-0.101l-0.258,-0.099l-0.259,-0.099l-0.26,-0.098l-0.262,-0.096l-0.263,-0.095l-0.263,-0.095l-0.266,-0.093l-0.266,-0.092l-0.267,-0.092l-0.269,-0.09l-0.27,-0.089l-0.27,-0.088l-0.272,-0.087l-0.273,-0.086l-0.275,-0.085l-0.275,-0.084l-0.276,-0.083l-0.278,-0.081l-0.278,-0.081l-0.28,-0.08l-0.281,-0.078l-0.282,-0.078l-0.282,-0.077l-0.284,-0.075l-0.285,-0.075l-0.286,-0.073l-0.287,-0.073l-0.288,-0.071l-0.289,-0.07l-0.29,-0.07l-0.292,-0.068l-0.292,-0.067l-0.293,-0.066l-0.294,-0.065l-0.295,-0.065l-0.296,-0.063l-0.297,-0.062l-0.297,-0.061l-0.299,-0.06l-0.3,-0.059l-0.301,-0.058l-0.301,-0.057l-0.303,-0.056l-0.303,-0.055l-0.304,-0.053l-0.306,-0.053l-0.306,-0.052l-0.307,-0.051l-0.308,-0.05l-0.308,-0.049l-0.31,-0.047l-0.31,-0.047l-0.312,-0.046l-0.312,-0.045l-0.313,-0.043l-0.313,-0.043l-0.315,-0.042l-0.315,-0.04l-0.316,-0.04l-0.317,-0.039l-0.318,-0.037l-0.319,-0.037l-0.319,-0.036l-0.32,-0.034l-0.321,-0.034l-0.321,-0.033l-0.323,-0.031l-0.323,-0.031l-0.324,-0.03l-0.324,-0.029l-0.325,-0.027l-0.326,-0.027l-0.327,-0.026l-0.327,-0.024l-0.328,-0.024l-0.329,-0.023l-0.329,-0.022l-0.33,-0.021l-0.331,-0.019l-0.331,-0.019l-0.332,-0.018l-0.333,-0.017l-0.333,-0.016l-0.334,-0.015l-0.334,-0.014l-0.335,-0.013l-0.336,-0.012l-0.336,-0.011l-0.337,-0.01l-0.338,-0.009l-0.338,-0.008l-0.338,-0.007l-0.339,-0.007l-0.34,-0.005l-0.34,-0.004l-0.341,-0.003l-0.341,-0.003l-0.342,-0.001l-0.342,-0.001l-0.344,0.001Z" style="fill:#275623;"/><g><path d="M176.66,209.9l0.14,0.016l0.139,0.026l0.136,0.036l0.133,0.047l0.129,0.056l0.125,0.066l0.12,0.075l0.113,0.084l0.107,0.092l0.1,0.1l0.092,0.107l0.084,0.113l0.075,0.12l0.066,0.125l0.056,0.129l0.047,0.133l0.036,0.136l0.026,0.139l0.016,0.14l0.005,0.141l0,27.668l-0.005,0.141l-0.016,0.14l-0.026,0.138l-0.036,0.137l-0.047,0.133l-0.056,0.129l-0.066,0.125l-0.075,0.119l-0.084,0.114l-0.092,0.107l-0.1,0.099l-0.107,0.093l-0.113,0.083l-0.12,0.075l-0.125,0.066l-0.129,0.057l-0.133,0.046l-0.136,0.037l-0.139,0.026l-0.14,0.016l-0.141,0.005l-0.141,-0.005l-0.14,-0.016l-0.139,-0.026l-0.136,-0.037l-0.133,-0.046l-0.13,-0.057l-0.124,-0.066l-0.12,-0.075l-0.113,-0.083l-0.107,-0.093l-0.1,-0.099l-0.092,-0.107l-0.084,-0.114l-0.075,-0.119l-0.066,-0.125l-0.056,-0.129l-0.047,-0.133l-0.036,-0.137l-0.026,-0.138l-0.016,-0.14l-0.005,-0.141l0,-27.668l0.005,-0.141l0.016,-0.14l0.026,-0.139l0.036,-0.136l0.047,-0.133l0.056,-0.129l0.066,-0.125l0.075,-0.12l0.084,-0.113l0.092,-0.107l0.1,-0.1l0.107,-0.092l0.113,-0.084l0.12,-0.075l0.124,-0.066l0.13,-0.056l0.133,-0.047l0.136,-0.036l0.139,-0.026l0.14,-0.016l0.141,-0.005l0.141,0.005Z" style="fill:#275623;"/><path d="M213.131,209.9l0.14,0.016l0.139,0.026l0.136,0.036l0.133,0.047l0.129,0.056l0.125,0.066l0.12,0.075l0.113,0.084l0.107,0.092l0.1,0.1l0.092,0.107l0.083,0.113l0.076,0.12l0.065,0.125l0.057,0.129l0.046,0.133l0.037,0.136l0.026,0.139l0.016,0.14l0.005,0.141l0,27.668l-0.005,0.141l-0.016,0.14l-0.026,0.138l-0.037,0.137l-0.046,0.133l-0.057,0.129l-0.065,0.125l-0.076,0.119l-0.083,0.114l-0.092,0.107l-0.1,0.099l-0.107,0.093l-0.113,0.083l-0.12,0.075l-0.125,0.066l-0.129,0.057l-0.133,0.046l-0.136,0.037l-0.139,0.026l-0.14,0.016l-0.141,0.005l-0.141,-0.005l-0.14,-0.016l-0.139,-0.026l-0.136,-0.037l-0.133,-0.046l-0.13,-0.057l-0.124,-0.066l-0.12,-0.075l-0.113,-0.083l-0.107,-0.093l-0.1,-0.099l-0.092,-0.107l-0.084,-0.114l-0.075,-0.119l-0.066,-0.125l-0.056,-0.129l-0.047,-0.133l-0.036,-0.137l-0.026,-0.138l-0.016,-0.14l-0.006,-0.141l0,-27.668l0.006,-0.141l0.016,-0.14l0.026,-0.139l0.036,-0.136l0.047,-0.133l0.056,-0.129l0.066,-0.125l0.075,-0.12l0.084,-0.113l0.092,-0.107l0.1,-0.1l0.107,-0.092l0.113,-0.084l0.12,-0.075l0.124,-0.066l0.13,-0.056l0.133,-0.047l0.136,-0.036l0.139,-0.026l0.14,-0.016l0.141,-0.005l0.141,0.005Z" style="fill:#275623;"/></g><path d="M109.236,244.102l42.508,0" style="fill:none;stroke:#275623;stroke-width:3.77px;"/><path d="M86.348,276.674l2.641,-5.785" style="fill:none;stroke:#275623;stroke-width:3.77px;"/><path d="M237.262,244.102l50.682,0c1.006,0 1.886,0.629 2.264,1.509l27.541,62.629c0.755,1.635 -0.503,3.522 -2.263,3.522l-244.607,0" style="fill:none;stroke:#275623;stroke-width:3.77px;"/><path d="M140.048,137.204c-3.647,-0.754 -7.043,-3.647 -8.552,-7.797c-2.138,-5.911 0.378,-12.325 5.534,-14.085c1.257,-0.503 2.641,-0.629 3.898,-0.503" style="fill:none;stroke:#275623;stroke-width:3.77px;"/><path d="M249.838,137.204c3.647,-0.754 7.043,-3.647 8.552,-7.797c2.138,-5.911 -0.377,-12.325 -5.534,-14.085c-1.257,-0.503 -2.389,-0.378 -3.773,-0.126" style="fill:none;stroke:#275623;stroke-width:3.77px;"/><path d="M189.975,135.318l-0.88,3.144" style="fill:none;stroke:#275623;stroke-width:3.77px;"/><path d="M199.156,135.318l0.88,3.144" style="fill:none;stroke:#275623;stroke-width:3.77px;"/><path d="M157.403,115.07c1.384,-3.144 5.031,-5.408 9.307,-5.408c4.024,0 7.545,2.013 9.054,5.031" style="fill:none;stroke:#275623;stroke-width:3.77px;"/><circle cx="163.188" cy="118.089" r="3.144" style="fill:#275623;"/><path d="M212.738,115.07c1.384,-3.144 5.031,-5.408 9.307,-5.408c4.024,0 7.545,2.013 9.055,5.031" style="fill:none;stroke:#275623;stroke-width:3.77px;"/><circle cx="218.523" cy="118.089" r="3.144" style="fill:#275623;"/><path d="M210.726,101.111c2.515,-2.767 7.672,-4.779 13.582,-4.779c5.282,0 9.936,1.509 12.702,3.898" style="fill:none;stroke:#275623;stroke-width:3.77px;"/><path d="M179.16,101.111c-2.515,-2.767 -7.672,-4.779 -13.582,-4.779c-5.282,0 -9.936,1.509 -12.702,3.898" style="fill:none;stroke:#275623;stroke-width:3.77px;"/><path d="M280.021,287.49c0,7.294 0,14.714 0,22.008c0,2.389 3.773,2.389 3.773,0c0,-7.294 0,-14.714 0,-22.008c0,-2.39 -3.773,-2.39 -3.773,0Z" style="fill:#275623;fill-rule:nonzero;"/><path d="M107.727,287.49c0,7.294 0,14.714 0,22.008c0,2.389 3.773,2.389 3.773,0c0,-7.294 0,-14.714 0,-22.008c0,-2.39 -3.773,-2.39 -3.773,0Z" style="fill:#275623;fill-rule:nonzero;"/><path d="M152.095,242.123l0.238,0.061l0.229,0.092l0.215,0.122l0.197,0.148l0.176,0.173l0.175,0.195l0.171,0.188l0.174,0.186l0.177,0.186l0.18,0.185l0.183,0.185l0.185,0.183l0.189,0.183l0.192,0.182l0.195,0.182l0.197,0.18l0.2,0.18l0.204,0.179l0.206,0.178l0.209,0.177l0.212,0.176l0.215,0.176l0.217,0.174l0.22,0.174l0.223,0.173l0.226,0.171l0.229,0.171l0.231,0.17l0.234,0.169l0.237,0.167l0.24,0.167l0.242,0.166l0.244,0.165l0.248,0.163l0.25,0.163l0.253,0.161l0.255,0.161l0.258,0.159l0.26,0.158l0.263,0.157l0.266,0.156l0.268,0.155l0.27,0.153l0.273,0.153l0.275,0.151l0.278,0.15l0.281,0.148l0.282,0.148l0.285,0.146l0.288,0.145l0.29,0.144l0.292,0.142l0.295,0.141l0.296,0.14l0.3,0.138l0.301,0.137l0.304,0.136l0.306,0.134l0.308,0.133l0.31,0.132l0.313,0.13l0.314,0.128l0.317,0.128l0.319,0.126l0.321,0.124l0.324,0.123l0.325,0.122l0.328,0.12l0.329,0.118l0.332,0.117l0.333,0.116l0.336,0.114l0.337,0.112l0.34,0.111l0.341,0.11l0.344,0.107l0.345,0.107l0.348,0.104l0.349,0.103l0.351,0.102l0.353,0.099l0.354,0.098l0.357,0.097l0.358,0.095l0.36,0.093l0.362,0.091l0.364,0.09l0.366,0.088l0.367,0.087l0.368,0.084l0.371,0.083l0.372,0.082l0.374,0.079l0.376,0.078l0.377,0.076l0.378,0.074l0.381,0.072l0.381,0.071l0.384,0.068l0.385,0.067l0.386,0.065l0.388,0.064l0.39,0.061l0.39,0.059l0.393,0.058l0.394,0.056l0.395,0.054l0.396,0.052l0.398,0.05l0.4,0.048l0.4,0.046l0.403,0.044l0.403,0.042l0.405,0.041l0.406,0.038l0.407,0.036l0.408,0.035l0.41,0.032l0.411,0.03l0.412,0.029l0.413,0.026l0.415,0.024l0.415,0.022l0.417,0.02l0.418,0.018l0.419,0.016l0.42,0.014l0.421,0.012l0.422,0.01l0.423,0.007l0.424,0.005l0.426,0.004l0.426,0.001l0.423,-0.001l0.423,-0.003l0.421,-0.006l0.421,-0.007l0.419,-0.01l0.419,-0.011l0.417,-0.014l0.417,-0.015l0.415,-0.018l0.415,-0.02l0.413,-0.021l0.412,-0.024l0.411,-0.026l0.41,-0.028l0.409,-0.029l0.407,-0.032l0.406,-0.034l0.406,-0.035l0.403,-0.038l0.403,-0.04l0.401,-0.041l0.401,-0.044l0.398,-0.045l0.398,-0.047l0.396,-0.049l0.395,-0.051l0.393,-0.053l0.392,-0.055l0.391,-0.057l0.389,-0.058l0.388,-0.061l0.387,-0.062l0.384,-0.064l0.384,-0.065l0.382,-0.068l0.38,-0.069l0.379,-0.072l0.377,-0.073l0.376,-0.074l0.374,-0.077l0.373,-0.078l0.371,-0.08l0.369,-0.082l0.368,-0.083l0.366,-0.085l0.364,-0.087l0.362,-0.088l0.361,-0.091l0.359,-0.091l0.357,-0.094l0.356,-0.095l0.354,-0.097l0.352,-0.098l0.35,-0.1l0.348,-0.102l0.346,-0.103l0.345,-0.105l0.342,-0.106l0.341,-0.108l0.339,-0.11l0.337,-0.111l0.334,-0.112l0.333,-0.114l0.331,-0.116l0.329,-0.117l0.327,-0.119l0.324,-0.12l0.323,-0.121l0.32,-0.123l0.319,-0.125l0.316,-0.126l0.314,-0.127l0.312,-0.129l0.31,-0.13l0.308,-0.131l0.305,-0.133l0.303,-0.135l0.301,-0.135l0.299,-0.137l0.296,-0.139l0.294,-0.139l0.292,-0.141l0.29,-0.143l0.287,-0.143l0.284,-0.145l0.283,-0.146l0.28,-0.148l0.277,-0.148l0.275,-0.15l0.273,-0.151l0.27,-0.152l0.268,-0.154l0.265,-0.155l0.263,-0.156l0.26,-0.157l0.257,-0.158l0.255,-0.159l0.253,-0.16l0.249,-0.162l0.248,-0.162l0.244,-0.164l0.242,-0.165l0.239,-0.166l0.237,-0.167l0.234,-0.167l0.231,-0.169l0.228,-0.17l0.226,-0.171l0.223,-0.172l0.22,-0.173l0.217,-0.174l0.215,-0.174l0.211,-0.176l0.209,-0.176l0.206,-0.178l0.203,-0.178l0.201,-0.179l0.197,-0.18l0.194,-0.181l0.192,-0.182l0.189,-0.182l0.185,-0.183l0.183,-0.184l0.18,-0.185l0.176,-0.186l0.174,-0.186l0.171,-0.187l0.174,-0.195l0.177,-0.173l0.197,-0.148l0.215,-0.122l0.228,-0.092l0.239,-0.062l0.245,-0.03l0.247,0.003l0.244,0.034l0.238,0.066l0.227,0.097l0.213,0.125l0.194,0.152l0.173,0.176l0.148,0.198l0.122,0.214l0.092,0.229l0.062,0.239l0.029,0.245l-0.002,0.247l-0.034,0.244l-0.066,0.238l-0.097,0.227l-0.125,0.213l-0.152,0.194l-0.188,0.21l-0.198,0.217l-0.201,0.215l-0.204,0.214l-0.207,0.213l-0.21,0.211l-0.213,0.21l-0.215,0.209l-0.219,0.207l-0.221,0.206l-0.225,0.205l-0.227,0.203l-0.229,0.201l-0.233,0.201l-0.236,0.199l-0.238,0.197l-0.241,0.197l-0.243,0.194l-0.246,0.194l-0.249,0.192l-0.252,0.19l-0.254,0.189l-0.257,0.188l-0.26,0.186l-0.262,0.185l-0.264,0.184l-0.268,0.182l-0.269,0.18l-0.273,0.179l-0.274,0.178l-0.278,0.176l-0.279,0.175l-0.282,0.173l-0.285,0.172l-0.287,0.17l-0.289,0.169l-0.292,0.167l-0.294,0.166l-0.297,0.164l-0.299,0.163l-0.301,0.162l-0.303,0.159l-0.306,0.159l-0.308,0.156l-0.31,0.155l-0.313,0.154l-0.314,0.152l-0.317,0.151l-0.32,0.149l-0.321,0.147l-0.323,0.146l-0.326,0.144l-0.328,0.143l-0.329,0.141l-0.332,0.139l-0.334,0.138l-0.337,0.136l-0.338,0.135l-0.34,0.133l-0.342,0.131l-0.344,0.13l-0.346,0.128l-0.349,0.126l-0.35,0.125l-0.352,0.123l-0.354,0.121l-0.356,0.12l-0.357,0.118l-0.36,0.116l-0.361,0.115l-0.364,0.113l-0.365,0.111l-0.367,0.109l-0.369,0.108l-0.37,0.106l-0.373,0.104l-0.374,0.102l-0.375,0.1l-0.378,0.099l-0.379,0.097l-0.381,0.095l-0.383,0.094l-0.384,0.091l-0.386,0.09l-0.387,0.088l-0.389,0.086l-0.391,0.084l-0.392,0.083l-0.394,0.08l-0.396,0.079l-0.397,0.077l-0.398,0.074l-0.4,0.073l-0.401,0.071l-0.403,0.07l-0.404,0.067l-0.406,0.065l-0.407,0.063l-0.409,0.062l-0.41,0.059l-0.411,0.058l-0.413,0.055l-0.414,0.054l-0.415,0.051l-0.417,0.05l-0.418,0.047l-0.419,0.046l-0.42,0.043l-0.422,0.042l-0.423,0.039l-0.424,0.037l-0.426,0.036l-0.426,0.033l-0.428,0.031l-0.429,0.029l-0.43,0.027l-0.431,0.025l-0.432,0.023l-0.433,0.02l-0.434,0.019l-0.436,0.016l-0.436,0.014l-0.437,0.012l-0.439,0.01l-0.439,0.008l-0.441,0.005l-0.441,0.004l-0.442,0.001l-0.446,-0.002l-0.444,-0.003l-0.443,-0.006l-0.442,-0.007l-0.442,-0.01l-0.44,-0.013l-0.439,-0.014l-0.438,-0.017l-0.437,-0.019l-0.436,-0.021l-0.435,-0.023l-0.434,-0.025l-0.432,-0.028l-0.431,-0.029l-0.43,-0.032l-0.429,-0.034l-0.428,-0.036l-0.427,-0.038l-0.425,-0.04l-0.424,-0.042l-0.422,-0.045l-0.422,-0.046l-0.42,-0.048l-0.418,-0.051l-0.418,-0.052l-0.416,-0.055l-0.414,-0.056l-0.414,-0.059l-0.412,-0.06l-0.41,-0.063l-0.409,-0.064l-0.407,-0.067l-0.406,-0.068l-0.405,-0.07l-0.403,-0.072l-0.402,-0.075l-0.4,-0.076l-0.398,-0.078l-0.397,-0.08l-0.395,-0.081l-0.394,-0.084l-0.392,-0.086l-0.391,-0.087l-0.389,-0.089l-0.387,-0.091l-0.385,-0.093l-0.384,-0.095l-0.382,-0.097l-0.381,-0.098l-0.378,-0.1l-0.377,-0.102l-0.376,-0.104l-0.373,-0.106l-0.372,-0.107l-0.369,-0.109l-0.368,-0.111l-0.366,-0.113l-0.365,-0.114l-0.362,-0.116l-0.361,-0.118l-0.358,-0.119l-0.357,-0.121l-0.355,-0.123l-0.352,-0.125l-0.351,-0.126l-0.349,-0.128l-0.347,-0.129l-0.345,-0.132l-0.343,-0.132l-0.34,-0.135l-0.339,-0.136l-0.337,-0.138l-0.334,-0.139l-0.333,-0.141l-0.33,-0.143l-0.328,-0.144l-0.326,-0.145l-0.324,-0.148l-0.322,-0.148l-0.32,-0.151l-0.317,-0.152l-0.315,-0.153l-0.313,-0.155l-0.31,-0.157l-0.309,-0.158l-0.306,-0.159l-0.303,-0.161l-0.302,-0.163l-0.299,-0.164l-0.296,-0.166l-0.295,-0.167l-0.292,-0.168l-0.289,-0.17l-0.287,-0.172l-0.285,-0.173l-0.282,-0.174l-0.28,-0.176l-0.277,-0.177l-0.275,-0.179l-0.272,-0.18l-0.27,-0.181l-0.267,-0.183l-0.265,-0.184l-0.262,-0.186l-0.259,-0.187l-0.257,-0.189l-0.255,-0.19l-0.251,-0.191l-0.249,-0.193l-0.246,-0.194l-0.244,-0.195l-0.241,-0.197l-0.238,-0.198l-0.235,-0.199l-0.232,-0.201l-0.23,-0.202l-0.227,-0.204l-0.224,-0.205l-0.221,-0.206l-0.219,-0.207l-0.215,-0.209l-0.213,-0.21l-0.21,-0.212l-0.206,-0.213l-0.204,-0.214l-0.201,-0.215l-0.198,-0.217l-0.188,-0.21l-0.152,-0.194l-0.125,-0.213l-0.097,-0.227l-0.066,-0.238l-0.034,-0.244l-0.003,-0.247l0.03,-0.245l0.062,-0.239l0.092,-0.228l0.122,-0.215l0.148,-0.197l0.173,-0.177l0.194,-0.152l0.213,-0.125l0.227,-0.097l0.238,-0.066l0.244,-0.034l0.247,-0.002l0.245,0.03Z" style="fill:#275623;"/><path d="M150.36,243.976l26.159,-3.521" style="fill:none;stroke:#275623;stroke-width:3.77px;"/><path d="M239.4,243.976l-26.159,-3.521" style="fill:none;stroke:#275623;stroke-width:3.77px;"/><path d="M56.291,249.007l-26.159,0c-2.263,0 -4.024,-1.887 -4.024,-4.025c0,-2.264 1.886,-4.024 4.024,-4.024l26.284,0c2.264,0 4.025,1.886 4.025,4.024c0,2.264 -1.887,4.025 -4.15,4.025Z" style="fill:none;stroke:#275623;stroke-width:3.77px;"/><path d="M106.092,241.587c0.503,0.125 1.006,0.377 1.509,0.754c1.761,1.384 2.013,4.025 0.504,5.785l-11.571,13.96c-1.131,1.257 -2.892,1.76 -4.401,1.257" style="fill:none;stroke:#275623;stroke-width:3.77px;"/><path d="M102.445,249.007l-11.947,0c-2.264,0 -4.024,-1.887 -4.024,-4.025c0,-2.264 1.886,-4.024 4.024,-4.024l11.947,0c2.264,0 4.025,1.886 4.025,4.024c0,2.264 -1.761,4.025 -4.025,4.025Z" style="fill:none;stroke:#275623;stroke-width:3.77px;"/><path d="M57.674,257.181l-26.284,0c-2.264,0 -4.025,-1.886 -4.025,-4.024c0,-2.264 1.887,-4.025 4.025,-4.025l26.284,0c2.264,0 4.024,1.887 4.024,4.025c0,2.138 -1.76,4.024 -4.024,4.024Z" style="fill:none;stroke:#275623;stroke-width:3.77px;"/><path d="M62.956,265.356l-26.158,0c-2.264,0 -4.025,-1.887 -4.025,-4.025c0,-2.264 1.887,-4.024 4.025,-4.024l26.284,0c2.264,0 4.024,1.886 4.024,4.024c0,2.138 -1.886,4.025 -4.15,4.025Z" style="fill:none;stroke:#275623;stroke-width:3.77px;"/><path d="M92.133,265.356c0,3.521 -2.893,6.539 -6.54,6.539l-34.962,0c-3.521,0 -6.539,-2.892 -6.539,-6.539" style="fill:none;stroke:#275623;stroke-width:3.77px;"/><path d="M90.498,260.954c1.006,1.132 1.635,2.641 1.635,4.402" style="fill:none;stroke:#275623;stroke-width:3.77px;"/><path d="M69.999,311.762l-13.583,-39.867l27.417,0l14.211,39.867l-28.045,0" style="fill:none;stroke:#275623;stroke-width:3.77px;"/><ellipse cx="194.88" cy="169.148" rx="8.3" ry="8.552" style="fill:none;stroke:#275623;stroke-width:3.77px;"/></g></g></svg>