<?xml version="1.0" encoding="UTF-8" standalone="no"?><!DOCTYPE svg PUBLIC "-//W3C//DTD SVG 1.1//EN" "http://www.w3.org/Graphics/SVG/1.1/DTD/svg11.dtd"><svg width="100%" height="100%" viewBox="0 0 320 320" version="1.1" xmlns="http://www.w3.org/2000/svg" xmlns:xlink="http://www.w3.org/1999/xlink" xml:space="preserve" style="fill-rule:evenodd;clip-rule:evenodd;stroke-linecap:round;stroke-linejoin:round;stroke-miterlimit:10;"><g id="圖層_2"><g><path d="M221.596,277.392c0,16.808 -13.021,24.62 -38.114,28.053c8.049,-8.878 19.412,-33.143 13.73,-33.38c-4.853,-23.2 -22.608,-67.114 -31.959,-68.771c-30.302,12.428 -44.032,46.045 -49.004,68.179c-0.828,3.67 1.776,20.596 11.955,32.433c-24.028,-0.592 -39.771,-4.735 -39.771,-30.894c5.8,-48.175 40.481,-81.555 66.285,-84.632c3.433,0 7.221,3.195 10.535,3.906c14.914,-15.98 54.449,33.261 56.343,85.106Z" style="fill:#d87341;fill-rule:nonzero;"/><path d="M229.171,164.943l-136.003,0c-1.894,0 -3.433,-1.539 -3.433,-3.433c0,-1.894 1.539,-3.432 3.433,-3.432l135.885,0c1.894,0 3.433,1.538 3.433,3.432c0,1.894 -1.421,3.433 -3.315,3.433Z" style="fill:#d87341;fill-opacity:0.5;fill-rule:nonzero;"/><path d="M239.084,285.798l0.079,0.006l0.079,0.009l0.079,0.013l0.078,0.016l0.077,0.02l0.076,0.023l0.076,0.027l0.073,0.03l0.073,0.033l0.071,0.037l0.069,0.039l0.067,0.043l0.065,0.046l0.063,0.048l0.061,0.052l0.059,0.054l0.137,0.132l0.139,0.136l0.137,0.137l0.136,0.137l0.133,0.137l0.131,0.137l0.13,0.138l0.127,0.138l0.126,0.138l0.123,0.139l0.122,0.14l0.119,0.14l0.118,0.14l0.115,0.142l0.113,0.142l0.112,0.142l0.109,0.144l0.107,0.145l0.105,0.145l0.103,0.146l0.1,0.147l0.099,0.148l0.096,0.149l0.094,0.15l0.092,0.151l0.089,0.152l0.087,0.153l0.085,0.155l0.082,0.155l0.081,0.157l0.077,0.157l0.075,0.159l0.073,0.16l0.07,0.162l0.068,0.162l0.065,0.163l0.063,0.165l0.06,0.166l0.058,0.167l0.055,0.169l0.052,0.169l0.05,0.17l0.047,0.172l0.045,0.173l0.042,0.174l0.039,0.175l0.037,0.176l0.035,0.178l0.031,0.178l0.029,0.18l0.027,0.181l0.024,0.182l0.022,0.183l0.019,0.184l0.016,0.186l0.014,0.186l0.012,0.188l0.009,0.189l0.007,0.191l0.004,0.191l0.002,0.193l0,0.195l-0.003,0.195l-0.005,0.187l-0.004,0.08l-0.007,0.079l-0.011,0.079l-0.014,0.078l-0.018,0.078l-0.022,0.077l-0.025,0.075l-0.028,0.075l-0.031,0.073l-0.035,0.072l-0.038,0.07l-0.041,0.068l-0.044,0.067l-0.047,0.064l-0.05,0.062l-0.053,0.06l-0.055,0.057l-0.058,0.055l-0.06,0.052l-0.063,0.05l-0.064,0.047l-0.067,0.043l-0.068,0.041l-0.071,0.037l-0.071,0.035l-0.074,0.031l-0.074,0.028l-0.076,0.024l-0.077,0.021l-0.078,0.017l-0.078,0.014l-0.079,0.011l-0.08,0.007l-0.079,0.003l-0.08,0l-0.08,-0.004l-0.079,-0.007l-0.079,-0.011l-0.078,-0.015l-0.078,-0.018l-0.077,-0.021l-0.075,-0.025l-0.075,-0.028l-0.073,-0.032l-0.072,-0.034l-0.07,-0.038l-0.068,-0.042l-0.066,-0.044l-0.065,-0.047l-0.062,-0.049l-0.06,-0.053l-0.057,-0.055l-0.055,-0.058l-0.052,-0.06l-0.05,-0.063l-0.046,-0.064l-0.044,-0.067l-0.041,-0.068l-0.037,-0.071l-0.035,-0.072l-0.031,-0.073l-0.027,-0.075l-0.025,-0.076l-0.021,-0.076l-0.017,-0.078l-0.014,-0.079l-0.011,-0.079l-0.007,-0.079l-0.003,-0.08l0,-0.079l0.004,-0.166l0.003,-0.154l0,-0.152l-0.002,-0.149l-0.003,-0.147l-0.005,-0.145l-0.007,-0.143l-0.009,-0.14l-0.01,-0.139l-0.012,-0.136l-0.014,-0.135l-0.016,-0.133l-0.017,-0.13l-0.019,-0.13l-0.021,-0.127l-0.022,-0.126l-0.024,-0.124l-0.026,-0.123l-0.027,-0.122l-0.029,-0.12l-0.031,-0.119l-0.032,-0.117l-0.034,-0.117l-0.036,-0.116l-0.038,-0.114l-0.039,-0.114l-0.041,-0.113l-0.042,-0.112l-0.045,-0.111l-0.046,-0.111l-0.048,-0.11l-0.05,-0.11l-0.052,-0.11l-0.054,-0.109l-0.055,-0.109l-0.058,-0.108l-0.059,-0.109l-0.062,-0.108l-0.064,-0.108l-0.066,-0.109l-0.067,-0.108l-0.07,-0.108l-0.073,-0.109l-0.074,-0.109l-0.077,-0.109l-0.079,-0.109l-0.081,-0.11l-0.083,-0.109l-0.086,-0.111l-0.088,-0.11l-0.091,-0.111l-0.093,-0.111l-0.095,-0.112l-0.098,-0.113l-0.1,-0.112l-0.103,-0.114l-0.105,-0.114l-0.108,-0.114l-0.11,-0.115l-0.113,-0.116l-0.115,-0.117l-0.118,-0.117l-0.12,-0.118l-0.127,-0.122l-0.056,-0.057l-0.054,-0.059l-0.051,-0.062l-0.048,-0.063l-0.045,-0.066l-0.042,-0.068l-0.039,-0.069l-0.036,-0.071l-0.032,-0.073l-0.03,-0.074l-0.026,-0.075l-0.022,-0.077l-0.019,-0.077l-0.016,-0.078l-0.012,-0.079l-0.008,-0.079l-0.005,-0.08l-0.002,-0.079l0.002,-0.08l0.006,-0.08l0.009,-0.079l0.013,-0.078l0.017,-0.078l0.019,-0.077l0.024,-0.077l0.026,-0.075l0.03,-0.074l0.034,-0.072l0.036,-0.071l0.04,-0.069l0.043,-0.067l0.045,-0.065l0.049,-0.064l0.051,-0.06l0.054,-0.059l0.057,-0.056l0.059,-0.054l0.061,-0.05l0.064,-0.048l0.066,-0.045l0.067,-0.042l0.07,-0.039l0.071,-0.036l0.073,-0.033l0.074,-0.029l0.075,-0.026l0.077,-0.023l0.077,-0.019l0.078,-0.015l0.079,-0.012l0.079,-0.009l0.08,-0.005l0.079,-0.001l0.08,0.002Z" style="fill:#d87341;fill-opacity:0.5;"/><rect x="161.11" y="246.261" width="24.62" height="5.563" style="fill:#d87341;fill-opacity:0.5;"/><rect x="127.849" y="246.261" width="24.62" height="5.563" style="fill:#d87341;fill-opacity:0.5;"/><path d="M221.596,277.392c0,16.808 -12.784,26.395 -38.114,28.053c8.049,-8.878 19.412,-33.143 13.73,-33.38" style="fill:#d87341;fill-rule:nonzero;"/><circle cx="157.441" cy="280.587" r="6.273" style="fill:#d87341;fill-opacity:0.5;"/><path d="M132.939,269.224l-9.943,0c-1.539,0 -2.841,-1.302 -2.841,-2.841c0,-1.538 1.302,-2.84 2.841,-2.84l9.943,0c1.539,0 2.841,1.302 2.841,2.84c0,1.539 -1.302,2.841 -2.841,2.841Z" style="fill:#d87341;fill-opacity:0.5;fill-rule:nonzero;"/><path d="M189.637,269.224l-9.943,0c-1.539,0 -2.841,-1.302 -2.841,-2.841c0,-1.538 1.302,-2.84 2.841,-2.84l9.943,0c1.538,0 2.84,1.302 2.84,2.84c0,1.539 -1.302,2.841 -2.84,2.841Z" style="fill:#d87341;fill-opacity:0.5;fill-rule:nonzero;"/><g><path d="M100.98,159.853l0,1.657c0,0.829 -0.474,1.539 -1.894,1.539c-0.947,0 -1.421,-0.118 -1.421,-0.71c0,-0.355 0.237,-0.592 0.474,-0.592l0.118,0c0.237,0 0.474,0.118 0.711,0.118c0.355,0 0.591,-0.118 0.591,-0.71l0,-1.302l-2.84,0c-0.356,0 -0.592,-0.237 -0.592,-0.592c0,-0.118 0,-0.118 0,-0.236c-0.592,0.236 -1.302,0.591 -1.421,0.591c-0.355,0 -0.592,-0.236 -0.592,-0.591c0,-0.237 0.119,-0.474 0.474,-0.592c0.592,-0.119 1.184,-0.355 1.657,-0.711c-0.118,-0.118 -0.355,-0.236 -0.473,-0.236c-0.237,-0.119 -0.237,-0.237 -0.237,-0.355c0,-0.237 0.355,-0.592 0.592,-0.592c0.236,0 0.473,0.118 1.065,0.592c0.237,-0.237 0.355,-0.355 0.592,-0.592c-0.237,-0.119 -0.355,-0.237 -0.592,-0.355c-0.237,-0.119 -0.237,-0.237 -0.237,-0.355c0,-0.237 0.355,-0.592 0.592,-0.592c0.355,0 0.829,0.355 0.947,0.473c0.237,-0.355 0.474,-0.71 0.474,-0.828c0,-0.119 -0.119,-0.237 -0.237,-0.237c-0.237,0 -0.829,0 -1.184,0c-1.184,1.42 -2.486,2.249 -2.959,2.249c-0.355,0 -0.592,-0.237 -0.592,-0.592c0,-0.118 0.118,-0.355 0.355,-0.473c1.066,-0.711 1.894,-1.302 2.841,-2.723c0.118,-0.237 0.355,-0.237 0.592,-0.237c0.118,0 0.237,0 0.355,0.119l0,-0.119l0,-0.355l-3.196,0c-0.473,0 -0.592,-0.236 -0.592,-0.591c0,-0.356 0.237,-0.592 0.592,-0.592l3.196,0l0,-0.592c0,-0.355 0.355,-0.592 0.71,-0.592c0.355,0 0.592,0.237 0.592,0.592l0,0.592l1.775,0l0,-0.592c0,-0.355 0.356,-0.592 0.711,-0.592c0.355,0 0.592,0.237 0.592,0.592l0,0.592l3.195,0c0.356,0 0.592,0.236 0.592,0.592c0,0.236 -0.236,0.591 -0.592,0.591l-3.195,0l0,0.237c0,0.355 -0.356,0.592 -0.711,0.592c-0.355,0 -0.592,-0.237 -0.592,-0.592l0,-0.355l-1.775,0l0,0.237c0,0.355 -0.355,0.592 -0.71,0.592c-0.119,0 -0.237,0 -0.355,0l0,0.118c0,0.118 0,0.237 -0.119,0.355c0.355,0 0.829,0 1.066,0c0.473,0 0.71,0.118 0.947,0.355c0.118,-0.118 0.236,-0.118 0.473,-0.118c0.118,0 0.355,0.118 0.473,0.236c0.356,0.711 0.947,1.421 1.539,2.013c0.355,-0.355 1.066,-1.066 1.066,-1.184c0,-0.118 -0.119,-0.118 -0.237,-0.118l-1.421,0c-0.355,0 -0.591,-0.237 -0.591,-0.592c0,-0.592 0.473,-0.592 0.947,-0.592c0.591,0 1.42,0 1.657,0c0.828,0 1.065,0.355 1.065,0.829c0,0.473 -0.355,1.065 -1.657,2.249c0.592,0.355 1.302,0.71 2.13,0.828c0.356,0.118 0.474,0.355 0.474,0.592c0,0.355 -0.237,0.71 -0.71,0.71c-0.592,0 -1.776,-0.473 -3.196,-1.539c0,0.237 -0.237,0.474 -0.592,0.474l-2.841,0c-0.355,0 -0.473,-0.119 -0.592,-0.355c-0.473,0.473 -0.947,0.828 -1.538,1.183l6.983,0c0.355,0 0.592,0.237 0.592,0.592c0,0.237 -0.237,0.592 -0.592,0.592l-2.722,0Zm-5.563,2.841c-0.356,0 -0.592,-0.355 -0.592,-0.592c0,-0.237 0.118,-0.473 0.473,-0.592c0.829,-0.236 1.657,-0.71 2.367,-1.302c0.119,-0.118 0.237,-0.118 0.356,-0.118c0.355,0 0.591,0.355 0.591,0.592c0,0.118 -0.118,0.355 -0.236,0.473c-0.947,0.71 -2.486,1.539 -2.959,1.539Zm6.391,-5.8c-0.592,-0.592 -1.183,-1.184 -1.538,-1.894c-0.119,0.237 -0.592,1.065 -1.184,1.894l2.722,0Zm2.368,5.563c-0.474,-0.473 -1.302,-0.947 -2.013,-1.183c-0.355,-0.119 -0.473,-0.356 -0.473,-0.474c0,-0.355 0.237,-0.592 0.592,-0.592c0.237,0 2.841,0.829 2.841,1.776c0,0.355 -0.355,0.71 -0.711,0.71c0.119,-0.118 -0.118,-0.118 -0.236,-0.237Z" style="fill:#275623;fill-rule:nonzero;"/><path d="M115.539,159.025c0.947,1.42 2.722,2.13 4.379,2.604c0.356,0.118 0.592,0.355 0.592,0.71c0,0.355 -0.355,0.71 -0.828,0.71c-0.355,0 -3.788,-0.829 -5.327,-3.551c-1.42,3.078 -5.326,3.669 -5.326,3.669c-0.474,0 -0.71,-0.355 -0.71,-0.71c0,-0.237 0.118,-0.473 0.591,-0.592c2.368,-0.591 3.67,-1.42 4.262,-2.84l-4.262,0c-0.473,0 -0.71,-0.356 -0.71,-0.592c0,-0.237 0.237,-0.592 0.71,-0.592l1.421,0l0,-1.776c0,-0.71 0.473,-1.183 1.539,-1.183c0.591,0 1.183,0 1.893,0c0,-0.237 0,-0.355 0,-0.474c0,-0.473 0.356,-0.592 0.711,-0.592c0.355,0 0.71,0.237 0.71,0.711l0,0.473c0.71,0 1.302,0 1.894,0c0.71,0 1.42,0.474 1.42,1.302l0,1.776l1.42,0c0.474,0 0.592,0.355 0.592,0.591c0,0.237 -0.236,0.592 -0.592,0.592l-4.379,-0.236Zm1.539,-6.037l0,0.71c0,0.355 -0.355,0.592 -0.711,0.592c-0.355,0 -0.71,-0.237 -0.71,-0.592l0,-0.71l-2.604,0l0,0.71c0,0.355 -0.355,0.592 -0.71,0.592c-0.355,0 -0.71,-0.237 -0.71,-0.592l0,-0.71l-2.723,0c-0.473,0 -0.71,-0.355 -0.71,-0.592c0,-0.355 0.237,-0.592 0.71,-0.592l2.723,0l0,-0.828c0,-0.356 0.355,-0.592 0.71,-0.592c0.355,0 0.71,0.236 0.71,0.592l0,0.828l2.604,0l0,-0.828c0,-0.356 0.355,-0.592 0.71,-0.592c0.356,0 0.711,0.236 0.711,0.592l0,0.828l2.84,0c0.474,0 0.592,0.355 0.592,0.592c0,0.355 -0.236,0.592 -0.592,0.592l-2.84,0Zm-3.433,4.853c0.118,-0.474 0.118,-0.829 0.118,-1.894c-2.012,0 -2.13,0 -2.13,0.71l0,1.302l2.012,0l0,-0.118Zm3.433,-1.184c0,-0.592 -0.237,-0.592 -0.711,-0.71c-0.355,0 -0.828,0 -1.302,0c0,0.355 0,1.184 -0.118,1.894l0,0.118l2.131,0l0,-1.302l0,0Z" style="fill:#275623;fill-rule:nonzero;"/><path d="M134.004,154.408l-2.249,0c-0.237,1.657 -0.947,3.314 -2.13,4.735c1.183,1.065 2.722,1.775 4.498,2.131c0.473,0.118 0.591,0.355 0.591,0.71c0,0.473 -0.355,0.828 -0.828,0.828c-0.119,0 -2.841,-0.355 -5.208,-2.722c-2.604,2.604 -5.445,2.841 -5.445,2.841c-0.474,0 -0.829,-0.355 -0.829,-0.829c0,-0.355 0.237,-0.592 0.592,-0.71c1.894,-0.355 3.433,-1.184 4.735,-2.486c-0.592,-0.71 -1.066,-1.539 -1.421,-2.367c-1.065,0.947 -1.42,1.065 -1.538,1.065c-0.356,0 -0.711,-0.355 -0.711,-0.71c0,-0.237 0.119,-0.592 0.592,-0.71c0.71,-0.355 1.421,-1.066 1.657,-1.539c0.119,-0.118 0.237,-0.237 0.474,-0.237c0.355,0 0.71,0.237 0.71,0.592c0,0.118 0,0.118 -0.118,0.355c0.355,0.947 0.71,1.776 1.302,2.486c0.828,-1.065 1.302,-2.367 1.538,-3.67c-0.355,0 -0.828,0 -1.183,0c-1.421,0 -2.841,0 -5.682,0.119c-0.473,0 -0.71,-0.355 -0.71,-0.592c0,-0.355 0.237,-0.71 0.71,-0.71l4.616,0l0,-2.012c0,-0.474 0.356,-0.711 0.711,-0.711c0.355,0 0.71,0.237 0.71,0.711l0,2.012l4.498,0c0.473,0 0.592,0.355 0.592,0.71c0.118,0.355 -0.119,0.71 -0.474,0.71Z" style="fill:#275623;fill-rule:nonzero;"/><path d="M141.343,162.102c-0.474,0 -0.829,-0.355 -0.829,-0.828c0,-0.356 0.119,-0.711 0.355,-0.947c0.947,-1.066 2.605,-2.841 3.907,-4.38c0.591,-0.71 0.828,-1.302 0.828,-1.776c0,-0.946 -0.71,-1.42 -1.42,-1.42c-0.592,0 -1.302,0.355 -1.776,1.065c-0.237,0.355 -0.473,0.474 -0.71,0.474c-0.473,0 -0.829,-0.355 -0.829,-0.71c0,-0.474 1.066,-2.131 3.315,-2.131c1.657,0 3.196,1.065 3.196,2.722c0,0.829 -0.355,1.776 -1.184,2.841c-1.065,1.421 -2.486,2.604 -3.669,3.788c1.183,0 2.84,-0.118 3.906,-0.118c0.592,0 0.828,0.355 0.828,0.71c0,0.355 -0.355,0.828 -0.947,0.828l-4.971,0l0,-0.118Z" style="fill:#275623;fill-rule:nonzero;"/><path d="M149.155,158.669c0,-0.591 -0.118,-1.183 -0.118,-1.775c0,-0.592 0,-1.065 0.118,-1.657c0.237,-2.486 1.539,-3.788 3.433,-3.788c1.894,0 3.196,1.302 3.432,3.669c0,0.592 0.119,1.302 0.119,1.894c0,1.657 -0.119,5.445 -3.551,5.445c-1.894,-0.118 -3.196,-1.42 -3.433,-3.788Zm5.208,0c0.119,-0.591 0.119,-1.302 0.119,-2.012c0,-1.065 0,-3.906 -1.894,-3.906c-0.947,0 -1.776,0.947 -1.894,2.486c0,0.473 -0.118,1.065 -0.118,1.539c0,0.591 0,1.183 0.118,1.775c0.118,1.42 0.947,2.249 1.894,2.249c0.828,0 1.657,-0.71 1.775,-2.131Z" style="fill:#275623;fill-rule:nonzero;"/><path d="M161.229,162.22c-0.356,0 -0.829,-0.236 -0.829,-0.828c0,-1.302 0,-4.38 0,-6.274c0,-2.012 -0.118,-2.13 -0.592,-2.13l-0.118,0l-0.119,0c-0.473,0 -0.71,-0.355 -0.71,-0.71c0,-0.355 0.237,-0.829 0.71,-0.829c0.237,0 0.356,0 0.711,0c0.947,0 1.657,0.592 1.657,1.539l0,8.404c0.118,0.592 -0.237,0.828 -0.71,0.828Z" style="fill:#275623;fill-rule:nonzero;"/><path d="M169.633,162.339c-1.894,0 -3.551,-1.302 -3.551,-3.67c0,-1.183 0.473,-2.367 0.947,-3.432c0.591,-1.066 2.722,-3.788 3.669,-3.788c0.473,0 0.828,0.474 0.828,0.829c0,0.236 -0.118,0.355 -0.355,0.591c-1.657,1.066 -3.077,2.96 -3.077,3.315l0.118,0c0.474,-0.237 1.066,-0.355 1.539,-0.355c2.131,0 3.314,1.538 3.314,3.196c0.119,1.893 -1.42,3.314 -3.432,3.314Zm0,-5.327c-1.421,0 -2.131,0.947 -2.131,2.013c0,1.183 0.947,1.893 2.012,1.893c1.421,0 2.131,-0.947 2.131,-1.893c0.118,-1.066 -0.71,-2.013 -2.012,-2.013Z" style="fill:#275623;fill-rule:nonzero;"/><path d="M178.747,153.461c0.592,0.237 1.184,0.592 1.539,0.829c0.118,0.118 0.236,0.237 0.236,0.473c0,0.355 -0.355,0.711 -0.591,0.711c-0.119,0 -0.237,0 -0.356,-0.119c-0.355,-0.355 -0.828,-0.71 -1.302,-0.947c-0.71,0.947 -2.012,1.421 -2.367,1.421c-0.355,0 -0.592,-0.355 -0.592,-0.592c0,-0.237 0.119,-0.474 0.474,-0.474c1.538,-0.355 2.13,-1.42 2.13,-3.196c0,-0.118 0,-0.118 0,-0.236c0,-0.355 0.237,-0.592 0.592,-0.592c0.355,0 0.592,0.237 0.592,0.592c0,0.236 0,0.592 0,0.828c0.237,-0.118 0.473,-0.355 0.71,-0.473c0.119,-0.119 0.237,-0.119 0.355,-0.119c0.355,0 0.592,0.356 0.592,0.592c0,0.355 -0.473,0.592 -1.775,1.184l-0.119,0l-0.118,0.118Zm-2.012,4.617c0,0.355 -0.355,0.591 -0.711,0.591c-0.71,0 -0.71,-0.473 -0.71,-1.065c0,-0.71 0,-1.775 1.539,-1.894l8.049,0c1.657,0 1.657,0.829 1.657,1.894c0,0.592 0,1.065 -0.71,1.065c-0.355,0 -0.71,-0.236 -0.71,-0.591c0,-0.119 0,-0.356 0,-0.474c0,-0.473 -0.119,-0.71 -0.71,-0.71l-6.866,0c-0.71,0 -0.828,0.237 -0.828,0.592l0,0.592Zm-1.184,-4.617c0,-0.118 0,-0.236 0.237,-0.355c0.236,-0.237 0.592,-0.828 0.592,-1.302c0,-0.355 0.236,-0.473 0.473,-0.473c0.237,0 0.592,0.236 0.592,0.473c0,0.355 -0.355,2.249 -1.302,2.249c-0.355,-0.118 -0.592,-0.355 -0.592,-0.592Zm8.167,4.617c0.947,0 1.539,0.473 1.539,1.302c0,0.118 0,0.236 0,0.355c-0.118,1.183 -0.473,3.196 -3.196,3.196c-1.657,0 -1.775,-0.474 -1.775,-0.829c0,-0.355 0.236,-0.592 0.591,-0.592c0,0 0.119,0 0.237,0c0.355,0.119 0.71,0.119 1.066,0.119c1.657,0 1.657,-1.776 1.657,-2.013c0,-0.355 -0.237,-0.473 -0.474,-0.473c-0.71,0 -1.302,0 -2.012,0c-1.184,3.551 -5.09,3.906 -5.09,3.906c-0.473,0 -0.71,-0.355 -0.71,-0.71c0,-0.237 0.118,-0.474 0.473,-0.592c1.894,-0.355 3.196,-1.302 3.788,-2.722c-0.828,0 -1.775,0 -2.604,0c-0.355,0 -0.473,-0.237 -0.473,-0.592c0,-0.237 0.118,-0.592 0.473,-0.592c0.947,0 2.012,0 2.959,0c0,-0.237 0,-0.355 0,-0.592c0,-0.355 0.355,-0.592 0.71,-0.592c0.356,0 0.592,0.237 0.592,0.592c0,0.237 0,0.473 0,0.473l2.249,0l0,0.356Zm-2.367,-2.486c-0.355,0 -0.592,-0.355 -0.592,-0.592c0,-0.237 0.118,-0.473 0.474,-0.473c1.42,-0.356 1.893,-1.302 1.893,-3.078c0,-0.118 0,-0.237 0,-0.355c0,-0.355 0.237,-0.592 0.592,-0.592c0.355,0 0.592,0.237 0.592,0.592c0,0.237 0,0.592 0,0.829c0.237,-0.119 0.474,-0.356 0.829,-0.474c0.118,-0.118 0.236,-0.118 0.355,-0.118c0.355,0 0.71,0.355 0.71,0.592c0,0.355 -0.237,0.591 -2.012,1.183c0,0.119 0,0.119 -0.119,0.237c0.592,0.118 1.539,0.592 2.131,0.947c0.118,0.118 0.237,0.237 0.237,0.473c0,0.355 -0.355,0.711 -0.71,0.711c-0.119,0 -0.237,0 -0.356,-0.119c-0.473,-0.473 -1.065,-0.828 -1.657,-1.184c-0.947,1.184 -2.249,1.421 -2.367,1.421Zm-0.71,-2.249c0,-0.118 0,-0.237 0.236,-0.355c0.237,-0.237 0.592,-0.829 0.592,-1.302c0,-0.237 0.237,-0.355 0.474,-0.355c0.237,0 0.592,0.118 0.592,0.473c0,0.355 -0.355,2.131 -1.302,2.131c-0.237,-0.119 -0.592,-0.355 -0.592,-0.592Z" style="fill:#275623;fill-rule:nonzero;"/><path d="M191.767,159.853l-1.894,0c-0.355,0 -0.591,-0.237 -0.591,-0.473c0,-0.237 0.236,-0.474 0.591,-0.474l1.894,0l0,-0.592c-2.13,0 -2.249,0 -2.249,-2.012c0,-1.775 0.355,-1.775 2.249,-1.775l0,-0.592l-2.13,0c-0.355,0 -0.592,-0.237 -0.592,-0.474c0,-0.236 0.237,-0.473 0.592,-0.473l2.13,0l0,-0.592c-0.828,0 -1.539,0 -1.775,0c-0.355,0 -0.592,-0.237 -0.592,-0.592c0,-0.237 0.237,-0.592 0.592,-0.592c0.236,0 0.592,0 0.828,0c1.066,0 2.249,-0.118 3.551,-0.355l0.119,0c0.355,0 0.592,0.237 0.592,0.592c0,0.474 -0.237,0.592 -2.131,0.71l0,0.71l2.131,0c0.355,0 0.591,0.237 0.591,0.474l0,0.118c0.119,0 0.237,-0.118 0.355,-0.118c0.356,0 0.711,0 1.184,0l0,-2.249c0,-0.474 0.355,-0.592 0.71,-0.592c0.355,0 0.711,0.237 0.711,0.592l0,2.249c0.355,0 0.71,0 1.065,0c0.947,0 1.539,0.592 1.539,1.539c0,0.355 0,0.828 0,1.302c0,2.722 -0.237,6.273 -2.841,6.273c-0.355,0 -0.829,-0.118 -1.184,-0.237c-0.355,-0.118 -0.473,-0.355 -0.473,-0.591c0,-0.355 0.236,-0.711 0.592,-0.711c0.118,0 0.118,0 0.236,0c0.237,0.119 0.474,0.119 0.71,0.119c0.592,0 1.658,-0.355 1.658,-5.09c0,-0.355 0,-0.71 0,-0.947c0,-0.355 -0.237,-0.473 -0.474,-0.592c-0.237,0 -0.473,0 -0.71,0c-0.118,2.959 -0.947,6.274 -3.551,8.049c-0.118,0.119 -0.355,0.119 -0.474,0.119c-0.355,0 -0.71,-0.356 -0.71,-0.711c0,-0.236 0.119,-0.355 0.355,-0.591c0.237,-0.119 0.474,-0.356 0.592,-0.474c-1.539,0.474 -4.735,0.947 -5.208,0.947c-0.355,0 -0.592,-0.355 -0.592,-0.592c0,-0.237 0.119,-0.592 0.474,-0.592c0.71,0 1.538,-0.118 2.367,-0.236l-0.237,-0.474Zm0,-3.077l-1.183,0c0,0.118 0,0.236 0,0.236c0,0.474 0.118,0.474 1.183,0.474l0,-0.71Zm0.119,-1.421c-1.066,0 -1.184,0 -1.184,0.474l0,0.118l1.184,0l0,-0.592Zm1.065,4.498l0,0.71c0.71,-0.118 1.302,-0.236 1.775,-0.355l0.119,0c0.237,0 0.355,0.119 0.473,0.355c1.421,-1.657 1.776,-3.669 1.776,-5.8c-0.355,0 -0.829,0 -1.184,0c-0.355,0 -0.592,-0.355 -0.592,-0.592c0,0 0,-0.118 0,-0.236c-0.118,0 -0.236,0.118 -0.355,0.118l-2.13,0l0,0.592c1.893,0 2.367,0 2.367,1.775c0,1.894 -0.237,2.013 -2.367,2.013l0,0.592l1.775,0c0.355,0 0.474,0.236 0.474,0.473c0,0.237 -0.237,0.473 -0.592,0.473l-1.539,-0.118Zm1.184,-4.024c0,-0.474 -0.237,-0.474 -1.184,-0.474l0,0.71l1.184,0l0,-0.236Zm-1.184,0.947l0,0.71c0.947,0 1.184,0 1.184,-0.474c0,-0.118 0,-0.118 0,-0.236l-1.184,0Z" style="fill:#275623;fill-rule:nonzero;"/><path d="M214.257,154.645c-0.118,1.775 -0.592,3.433 -1.539,4.853c0.71,0.829 1.539,1.539 2.723,2.012c0.236,0.119 0.355,0.355 0.355,0.592c0,0.355 -0.355,0.829 -0.71,0.829c-0.356,0 -1.776,-0.711 -3.196,-2.368c-1.421,1.657 -3.433,2.486 -3.788,2.486c-0.474,0 -0.71,-0.355 -0.71,-0.71c0,-0.237 0.118,-0.474 0.473,-0.592c1.539,-0.592 2.604,-1.302 3.433,-2.249c-0.592,-0.947 -0.947,-2.012 -1.184,-2.959c-0.118,0.118 -0.118,0.355 -0.237,0.473c-0.118,0.355 -0.355,0.474 -0.591,0.474c-0.356,0 -0.592,-0.237 -0.592,-0.592c0,-0.118 0,-0.237 0.118,-0.355l0.118,-0.119c0,0 -0.118,0 -0.236,0l-1.066,0l0,3.078c0.474,-0.237 0.947,-0.355 1.421,-0.592c0.118,0 0.237,0 0.237,0c0.355,0 0.473,0.237 0.473,0.592c0,0.237 -0.118,0.473 -0.355,0.592c-1.539,0.828 -4.971,1.775 -5.445,1.775c-0.355,0 -0.71,-0.355 -0.71,-0.591c0,-0.237 0.237,-0.592 0.592,-0.592c0.118,0 0.236,0 0.355,-0.119l0,-5.208c0,-0.355 0.355,-0.592 0.592,-0.592c0.355,0 0.591,0.237 0.591,0.592l0,4.853c0.237,-0.118 0.592,-0.118 0.829,-0.237l0,-6.865l-2.131,0c-0.355,0 -0.591,-0.355 -0.591,-0.592c0,-0.236 0.236,-0.591 0.591,-0.591l4.853,0c0.356,0 0.592,0.355 0.592,0.591c0,0.237 -0.236,0.592 -0.592,0.592l-1.538,0l0,2.249l1.065,0c0.355,0 0.473,0.237 0.592,0.355c0.592,-1.183 0.947,-2.722 1.184,-4.379c0,-0.355 0.355,-0.592 0.71,-0.592c0.355,0 0.71,0.237 0.71,0.592c0,0.118 -0.118,1.065 -0.474,2.249l3.907,0c0.355,0 0.591,0.355 0.591,0.591c0,0.356 -0.236,0.592 -0.591,0.592l-0.829,0l0,-0.118Zm-3.433,0c0.119,1.302 0.474,2.604 1.066,3.669c0.591,-1.065 0.828,-2.249 0.947,-3.669l-2.013,0Z" style="fill:#275623;fill-rule:nonzero;"/><path d="M217.926,163.049c-0.473,0 -0.71,-0.355 -0.71,-0.71c0,-0.355 0.237,-0.592 0.592,-0.592c1.894,-0.237 3.078,-0.947 3.551,-2.131c0.118,-0.355 0.355,-0.473 0.592,-0.473c0.355,0 0.71,0.355 0.71,0.71c0,0.118 0,0.237 -0.118,0.237c-1.066,2.722 -4.617,2.959 -4.617,2.959Zm3.315,-4.143c-1.066,0 -1.657,-0.592 -1.657,-1.42l0,-5.09c0,-0.71 0.473,-1.302 1.538,-1.42l4.853,0c0.829,0 1.421,0.71 1.421,1.302l0,5.326c0,0.71 -0.592,1.421 -1.539,1.421c-0.237,0 -0.474,0 -0.71,0c0,0.591 0,1.183 0,1.657c0,0.828 0.118,0.947 1.42,0.947c1.065,0 1.776,-0.119 1.776,-1.421c0,-0.473 0.355,-0.71 0.71,-0.71c0.237,0 0.71,0.118 0.71,0.71c0,2.486 -1.657,2.604 -3.314,2.604c-1.421,0 -2.723,-0.118 -2.723,-1.775c0,-0.355 0,-1.421 0,-2.249c-0.828,0.118 -1.657,0.118 -2.485,0.118Zm4.971,-4.616l-5.326,0l0,1.065l5.326,0l0,-1.065Zm0,-1.065c0,-0.237 0,-0.356 0,-0.592c0,-0.355 -0.237,-0.592 -0.71,-0.592l-4.025,0c-0.473,0 -0.71,0.355 -0.71,0.592c0,0.118 0,0.355 0,0.592l5.445,0Zm-5.445,3.314c0,0.237 0,0.355 0,0.592c0,0.473 0.237,0.591 0.71,0.591l4.025,0c0.71,0 0.71,-0.591 0.71,-1.183l-5.445,0Z" style="fill:#275623;fill-rule:nonzero;"/></g><g><rect x="68.192" y="61.964" width="187.848" height="78.122" style="fill:none;"/><g><text x="68.213px" y="72.388px" style="font-family:'STHeitiSC-Medium', 'Heiti SC';font-size:11.837px;fill:#275623;">「為因應受低薪化影響的低所得勞</text><text x="68.213px" y="93.694px" style="font-family:'STHeitiSC-Medium', 'Heiti SC';font-size:11.837px;fill:#275623;">工，我們主張應訂定『最低工資法</text><text x="68.213px" y="115px" style="font-family:'STHeitiSC-Medium', 'Heiti SC';font-size:11.837px;fill:#275623;">』，保障勞工及其家庭的最低生活</text><text x="68.213px" y="136.306px" style="font-family:'STHeitiSC-Medium', 'Heiti SC';font-size:11.837px;fill:#275623;">水準，立法改變目前基本工資審議</text></g></g><g><path d="M241.837,272.657l0,-19.886c0,-1.894 -1.539,-3.432 -3.433,-3.432c-1.894,0 -3.433,1.538 -3.433,3.432l0,22.135" style="fill:none;stroke:#275623;stroke-width:3.55px;"/><path d="M248.82,272.894l0,-22.017c0,-1.894 -1.539,-3.432 -3.432,-3.432c-1.894,0 -3.433,1.538 -3.433,3.432l0,21.78" style="fill:none;stroke:#275623;stroke-width:3.55px;"/><path d="M255.685,270.053l0,-17.755c0,-1.894 -1.538,-3.433 -3.432,-3.433c-1.894,0 -3.433,1.539 -3.433,3.433l0,20.596" style="fill:none;stroke:#275623;stroke-width:3.55px;"/><path d="M244.204,279.996c0.118,0.473 0.355,0.828 0.592,1.183c1.183,1.421 3.314,1.776 4.734,0.592l4.262,-3.433c1.42,-1.183 1.538,-3.195 0.355,-4.734c-1.184,-1.421 -3.315,-1.776 -4.735,-0.592l-4.261,3.433" style="fill:none;stroke:#275623;stroke-width:3.55px;"/><path d="M258.408,276.445l1.302,0c1.894,0 3.433,-1.658 3.433,-3.551c0,-1.894 -1.658,-3.433 -3.551,-3.433l-1.302,0c-1.894,0 -3.433,1.657 -3.433,3.551c0,1.894 1.657,3.433 3.551,3.433Z" style="fill:none;stroke:#275623;stroke-width:3.55px;"/><path d="M234.261,286.269l9.351,-6.155c1.776,-1.184 2.367,-3.669 1.184,-5.445c-1.184,-1.775 -3.67,-2.367 -5.445,-1.184l-9.351,6.156c-1.776,1.183 -2.368,3.669 -1.184,5.444c1.184,1.894 3.551,2.368 5.445,1.184Z" style="fill:none;stroke:#275623;stroke-width:3.55px;"/><path d="M262.077,276.326l0,12.547c0,8.759 -7.22,15.98 -15.979,15.98c-8.759,0 -15.98,-7.221 -15.98,-15.98l0,-1.894" style="fill:none;stroke:#275623;stroke-width:3.55px;"/><path d="M241.126,286.387c2.486,2.249 4.025,5.564 4.025,9.115" style="fill:none;stroke:#275623;stroke-width:3.55px;"/></g><g><path d="M155.902,314.322c-24.028,0 -39.535,-18.702 -39.535,-42.612c0,0 10.535,-52.437 47.584,-68.298c0.71,-0.237 1.539,-0.237 2.131,0.237c16.571,12.665 31.249,68.534 31.249,68.534c-0.119,24.029 -17.519,42.139 -41.429,42.139Z" style="fill:none;stroke:#275623;stroke-width:3.55px;"/><path d="M129.625,304.498c-35.392,0 -46.637,-16.572 -39.653,-44.862c9.587,-39.179 50.306,-83.685 74.097,-68.297c0.592,0.355 1.421,0.355 2.013,0c6.273,-3.788 12.428,-1.776 18.702,3.432c17.518,14.441 36.812,52.2 36.812,81.082c0,20.951 -15.861,28.289 -39.18,29.592" style="fill:none;stroke:#275623;stroke-width:3.55px;"/><path d="M148.824,239.161l0.143,0.005l0.141,0.008l0.14,0.012l0.14,0.016l0.139,0.019l0.138,0.022l0.137,0.025l0.136,0.029l0.134,0.032l0.134,0.035l0.132,0.038l0.131,0.042l0.129,0.044l0.128,0.048l0.126,0.05l0.125,0.054l0.124,0.057l0.121,0.059l0.12,0.062l0.118,0.066l0.117,0.067l0.114,0.071l0.113,0.073l0.11,0.076l0.109,0.079l0.107,0.081l0.104,0.084l0.102,0.086l0.101,0.089l0.097,0.09l0.096,0.094l0.093,0.095l0.091,0.098l0.089,0.101l0.086,0.102l0.084,0.104l0.081,0.107l0.079,0.109l0.076,0.11l0.073,0.113l0.071,0.114l0.067,0.117l0.066,0.118l0.062,0.12l0.059,0.121l0.057,0.124l0.053,0.124l0.051,0.127l0.048,0.128l0.044,0.129l0.042,0.131l0.038,0.132l0.035,0.134l0.032,0.134l0.029,0.136l0.025,0.137l0.022,0.138l0.019,0.139l0.015,0.139l0.012,0.141l0.009,0.141l0.005,0.142l0.002,0.132l0,3.999l0.004,0.086l0.002,0.148l-0.002,0.147l-0.006,0.146l-0.01,0.145l-0.014,0.144l-0.018,0.144l-0.021,0.142l-0.026,0.141l-0.029,0.14l-0.033,0.138l-0.036,0.137l-0.04,0.136l-0.044,0.134l-0.047,0.132l-0.051,0.13l-0.053,0.129l-0.057,0.127l-0.061,0.125l-0.063,0.123l-0.066,0.121l-0.07,0.118l-0.072,0.117l-0.075,0.115l-0.078,0.112l-0.081,0.11l-0.083,0.108l-0.086,0.105l-0.088,0.104l-0.091,0.1l-0.094,0.099l-0.095,0.095l-0.098,0.094l-0.1,0.091l-0.102,0.088l-0.105,0.086l-0.106,0.083l-0.109,0.081l-0.11,0.078l-0.112,0.075l-0.114,0.073l-0.116,0.07l-0.118,0.067l-0.12,0.064l-0.121,0.062l-0.122,0.059l-0.125,0.055l-0.126,0.053l-0.127,0.05l-0.128,0.047l-0.13,0.044l-0.132,0.041l-0.132,0.038l-0.134,0.035l-0.135,0.031l-0.136,0.029l-0.137,0.025l-0.138,0.022l-0.139,0.018l-0.14,0.016l-0.141,0.012l-0.142,0.008l-0.142,0.005l-0.132,0.002l-17.184,0l-0.132,-0.002l-0.142,-0.005l-0.142,-0.008l-0.14,-0.012l-0.14,-0.016l-0.139,-0.019l-0.138,-0.022l-0.137,-0.025l-0.136,-0.029l-0.134,-0.032l-0.133,-0.035l-0.133,-0.038l-0.131,-0.042l-0.129,-0.044l-0.128,-0.048l-0.126,-0.051l-0.125,-0.053l-0.124,-0.057l-0.121,-0.059l-0.12,-0.062l-0.118,-0.066l-0.116,-0.067l-0.115,-0.071l-0.113,-0.073l-0.11,-0.076l-0.109,-0.079l-0.106,-0.081l-0.105,-0.084l-0.102,-0.086l-0.1,-0.088l-0.098,-0.092l-0.096,-0.093l-0.093,-0.095l-0.091,-0.099l-0.089,-0.1l-0.086,-0.102l-0.084,-0.104l-0.081,-0.107l-0.079,-0.109l-0.075,-0.11l-0.074,-0.113l-0.07,-0.114l-0.068,-0.117l-0.065,-0.118l-0.063,-0.12l-0.059,-0.121l-0.057,-0.124l-0.053,-0.124l-0.051,-0.127l-0.048,-0.128l-0.044,-0.129l-0.041,-0.131l-0.039,-0.132l-0.035,-0.134l-0.032,-0.134l-0.029,-0.136l-0.025,-0.137l-0.022,-0.138l-0.019,-0.139l-0.015,-0.139l-0.012,-0.141l-0.009,-0.141l-0.005,-0.143l-0.002,-0.132l0,-4.046l0.002,-0.131l0.005,-0.143l0.009,-0.141l0.012,-0.141l0.015,-0.139l0.019,-0.139l0.022,-0.138l0.025,-0.137l0.029,-0.136l0.032,-0.134l0.035,-0.134l0.039,-0.132l0.041,-0.131l0.044,-0.129l0.048,-0.128l0.051,-0.127l0.053,-0.124l0.057,-0.124l0.059,-0.121l0.063,-0.12l0.065,-0.118l0.068,-0.117l0.07,-0.114l0.074,-0.113l0.075,-0.11l0.079,-0.109l0.081,-0.107l0.084,-0.104l0.086,-0.102l0.089,-0.1l0.091,-0.099l0.093,-0.095l0.096,-0.094l0.098,-0.09l0.1,-0.089l0.102,-0.086l0.105,-0.084l0.106,-0.081l0.109,-0.079l0.11,-0.076l0.113,-0.073l0.115,-0.071l0.116,-0.067l0.118,-0.066l0.12,-0.062l0.121,-0.059l0.124,-0.057l0.125,-0.054l0.126,-0.05l0.128,-0.048l0.129,-0.044l0.131,-0.042l0.133,-0.038l0.133,-0.035l0.134,-0.032l0.136,-0.029l0.137,-0.025l0.138,-0.022l0.139,-0.019l0.14,-0.016l0.14,-0.012l0.141,-0.008l0.143,-0.005l0.132,-0.002l17.184,0l0.132,0.002Zm-17.295,3.549l-0.067,0.001l-0.055,0.002l-0.055,0.003l-0.054,0.005l-0.053,0.006l-0.053,0.007l-0.051,0.008l-0.051,0.01l-0.05,0.01l-0.05,0.012l-0.049,0.013l-0.048,0.014l-0.047,0.015l-0.047,0.016l-0.046,0.017l-0.045,0.018l-0.045,0.019l-0.044,0.02l-0.043,0.021l-0.042,0.022l-0.042,0.023l-0.041,0.024l-0.04,0.025l-0.04,0.026l-0.039,0.027l-0.038,0.027l-0.037,0.029l-0.037,0.029l-0.036,0.03l-0.035,0.031l-0.034,0.032l-0.034,0.033l-0.033,0.033l-0.031,0.035l-0.031,0.035l-0.031,0.036l-0.029,0.036l-0.028,0.038l-0.028,0.038l-0.027,0.039l-0.026,0.039l-0.024,0.041l-0.024,0.041l-0.023,0.042l-0.022,0.042l-0.022,0.043l-0.02,0.044l-0.019,0.045l-0.018,0.045l-0.017,0.046l-0.016,0.047l-0.015,0.047l-0.014,0.048l-0.013,0.049l-0.012,0.049l-0.01,0.051l-0.01,0.05l-0.008,0.052l-0.007,0.053l-0.006,0.053l-0.005,0.054l-0.003,0.054l-0.002,0.056l-0.001,0.067l0,4.003l0.001,0.067l0.002,0.056l0.003,0.054l0.005,0.054l0.006,0.053l0.007,0.053l0.008,0.052l0.01,0.05l0.01,0.051l0.012,0.049l0.013,0.049l0.014,0.048l0.015,0.047l0.016,0.047l0.017,0.046l0.018,0.045l0.019,0.045l0.02,0.044l0.022,0.043l0.022,0.042l0.023,0.042l0.024,0.041l0.024,0.041l0.026,0.039l0.027,0.039l0.028,0.038l0.028,0.038l0.029,0.036l0.031,0.036l0.031,0.035l0.031,0.034l0.033,0.034l0.034,0.033l0.034,0.032l0.035,0.031l0.036,0.03l0.036,0.029l0.038,0.029l0.038,0.027l0.039,0.027l0.04,0.026l0.04,0.025l0.041,0.024l0.042,0.023l0.042,0.022l0.043,0.021l0.044,0.02l0.045,0.019l0.045,0.018l0.046,0.017l0.047,0.016l0.047,0.015l0.048,0.014l0.049,0.013l0.05,0.012l0.05,0.01l0.051,0.01l0.051,0.008l0.053,0.007l0.053,0.006l0.054,0.005l0.055,0.003l0.055,0.002l0.067,0.001l17.142,0l0.067,-0.001l0.056,-0.002l0.056,-0.003l0.055,-0.005l0.054,-0.006l0.054,-0.007l0.053,-0.009l0.053,-0.009l0.052,-0.011l0.052,-0.012l0.051,-0.014l0.051,-0.014l0.05,-0.016l0.049,-0.016l0.049,-0.018l0.048,-0.019l0.047,-0.02l0.046,-0.02l0.046,-0.022l0.045,-0.023l0.044,-0.024l0.043,-0.025l0.043,-0.025l0.042,-0.027l0.04,-0.027l0.04,-0.028l0.039,-0.029l0.038,-0.03l0.037,-0.031l0.037,-0.031l0.035,-0.032l0.034,-0.032l0.033,-0.034l0.032,-0.033l0.031,-0.035l0.03,-0.035l0.029,-0.036l0.028,-0.036l0.027,-0.036l0.026,-0.038l0.024,-0.037l0.024,-0.038l0.023,-0.039l0.021,-0.039l0.02,-0.039l0.02,-0.04l0.018,-0.041l0.017,-0.041l0.016,-0.041l0.015,-0.041l0.013,-0.043l0.013,-0.042l0.012,-0.044l0.01,-0.043l0.009,-0.045l0.008,-0.045l0.007,-0.045l0.006,-0.046l0.004,-0.047l0.004,-0.048l0.002,-0.048l0,-0.05l0,-0.05l-0.005,-0.112l0,-4.051l-0.001,-0.067l-0.002,-0.056l-0.003,-0.054l-0.005,-0.054l-0.006,-0.053l-0.007,-0.053l-0.008,-0.052l-0.01,-0.05l-0.01,-0.051l-0.012,-0.049l-0.013,-0.049l-0.014,-0.048l-0.015,-0.047l-0.016,-0.047l-0.017,-0.046l-0.018,-0.045l-0.019,-0.045l-0.02,-0.044l-0.021,-0.043l-0.023,-0.043l-0.022,-0.041l-0.024,-0.041l-0.025,-0.041l-0.026,-0.039l-0.027,-0.039l-0.027,-0.038l-0.029,-0.038l-0.029,-0.036l-0.03,-0.036l-0.032,-0.035l-0.031,-0.035l-0.033,-0.033l-0.034,-0.033l-0.034,-0.032l-0.035,-0.031l-0.036,-0.03l-0.036,-0.029l-0.038,-0.029l-0.038,-0.027l-0.039,-0.027l-0.039,-0.026l-0.041,-0.025l-0.041,-0.024l-0.042,-0.023l-0.042,-0.022l-0.043,-0.021l-0.044,-0.02l-0.045,-0.019l-0.045,-0.018l-0.046,-0.017l-0.047,-0.016l-0.047,-0.015l-0.048,-0.014l-0.049,-0.013l-0.049,-0.012l-0.051,-0.01l-0.05,-0.01l-0.052,-0.008l-0.053,-0.007l-0.053,-0.006l-0.054,-0.005l-0.055,-0.003l-0.055,-0.002l-0.067,-0.001l-17.142,0Z" style="fill:#275623;"/><path d="M182.204,239.161l0.142,0.005l0.141,0.008l0.141,0.012l0.14,0.016l0.139,0.019l0.138,0.022l0.136,0.025l0.136,0.029l0.135,0.032l0.133,0.035l0.132,0.038l0.131,0.042l0.129,0.044l0.128,0.048l0.127,0.051l0.125,0.053l0.123,0.057l0.122,0.059l0.12,0.062l0.118,0.065l0.116,0.068l0.115,0.071l0.112,0.073l0.111,0.076l0.109,0.079l0.106,0.081l0.104,0.084l0.103,0.086l0.1,0.088l0.098,0.091l0.095,0.094l0.094,0.095l0.091,0.099l0.089,0.1l0.086,0.102l0.083,0.104l0.082,0.107l0.078,0.109l0.076,0.11l0.073,0.113l0.071,0.114l0.068,0.117l0.065,0.118l0.062,0.12l0.06,0.121l0.056,0.124l0.054,0.124l0.051,0.127l0.047,0.128l0.045,0.129l0.041,0.131l0.038,0.132l0.036,0.134l0.031,0.134l0.029,0.136l0.026,0.137l0.022,0.138l0.019,0.139l0.015,0.139l0.012,0.141l0.009,0.141l0.005,0.143l0.001,0.132l0,4.046l-0.001,0.134l-0.006,0.145l-0.009,0.145l-0.013,0.143l-0.017,0.142l-0.021,0.141l-0.023,0.14l-0.028,0.139l-0.031,0.138l-0.034,0.136l-0.037,0.134l-0.041,0.134l-0.044,0.131l-0.047,0.131l-0.05,0.128l-0.054,0.127l-0.056,0.125l-0.059,0.123l-0.062,0.121l-0.065,0.12l-0.067,0.117l-0.07,0.116l-0.073,0.113l-0.076,0.112l-0.077,0.109l-0.081,0.108l-0.083,0.105l-0.085,0.103l-0.087,0.101l-0.09,0.099l-0.091,0.096l-0.094,0.095l-0.096,0.091l-0.099,0.09l-0.1,0.087l-0.102,0.085l-0.104,0.082l-0.106,0.08l-0.108,0.077l-0.11,0.075l-0.111,0.073l-0.113,0.069l-0.115,0.067l-0.117,0.065l-0.118,0.061l-0.12,0.059l-0.121,0.056l-0.123,0.053l-0.124,0.051l-0.126,0.047l-0.127,0.045l-0.128,0.041l-0.13,0.039l-0.131,0.035l-0.131,0.032l-0.133,0.029l-0.135,0.026l-0.135,0.023l-0.136,0.019l-0.137,0.016l-0.138,0.012l-0.138,0.009l-0.139,0.005l-0.128,0.002l-17.186,0l-0.132,-0.002l-0.142,-0.005l-0.141,-0.008l-0.141,-0.012l-0.14,-0.016l-0.138,-0.019l-0.138,-0.022l-0.137,-0.025l-0.136,-0.029l-0.135,-0.032l-0.133,-0.035l-0.132,-0.038l-0.131,-0.042l-0.129,-0.044l-0.128,-0.048l-0.127,-0.051l-0.125,-0.053l-0.123,-0.057l-0.122,-0.059l-0.12,-0.062l-0.118,-0.066l-0.116,-0.067l-0.114,-0.071l-0.113,-0.073l-0.111,-0.076l-0.108,-0.079l-0.107,-0.081l-0.104,-0.084l-0.103,-0.086l-0.1,-0.089l-0.098,-0.09l-0.095,-0.094l-0.094,-0.096l-0.091,-0.097l-0.088,-0.101l-0.087,-0.102l-0.083,-0.104l-0.081,-0.107l-0.079,-0.109l-0.076,-0.11l-0.073,-0.113l-0.071,-0.114l-0.068,-0.117l-0.065,-0.118l-0.062,-0.12l-0.06,-0.121l-0.056,-0.124l-0.054,-0.124l-0.05,-0.127l-0.048,-0.128l-0.045,-0.129l-0.041,-0.131l-0.038,-0.132l-0.035,-0.134l-0.032,-0.134l-0.029,-0.136l-0.025,-0.137l-0.023,-0.138l-0.018,-0.139l-0.016,-0.14l-0.012,-0.14l-0.009,-0.141l-0.005,-0.143l-0.001,-0.131l0,-4.047l0.001,-0.132l0.005,-0.142l0.009,-0.141l0.012,-0.14l0.016,-0.14l0.018,-0.139l0.022,-0.138l0.026,-0.137l0.029,-0.136l0.032,-0.134l0.035,-0.134l0.038,-0.132l0.041,-0.131l0.045,-0.129l0.048,-0.128l0.05,-0.127l0.054,-0.124l0.056,-0.124l0.06,-0.121l0.062,-0.12l0.065,-0.118l0.068,-0.117l0.071,-0.114l0.073,-0.113l0.076,-0.11l0.079,-0.109l0.081,-0.107l0.083,-0.104l0.086,-0.102l0.089,-0.101l0.091,-0.098l0.094,-0.095l0.095,-0.094l0.098,-0.09l0.1,-0.089l0.103,-0.086l0.104,-0.084l0.107,-0.081l0.108,-0.079l0.111,-0.076l0.112,-0.073l0.115,-0.071l0.116,-0.068l0.118,-0.065l0.12,-0.062l0.122,-0.059l0.123,-0.057l0.125,-0.053l0.127,-0.051l0.128,-0.048l0.129,-0.044l0.131,-0.042l0.132,-0.038l0.133,-0.035l0.135,-0.032l0.136,-0.029l0.136,-0.025l0.139,-0.022l0.138,-0.019l0.14,-0.016l0.141,-0.012l0.141,-0.008l0.142,-0.005l0.132,-0.002l17.185,0l0.132,0.002Zm-17.295,3.549l-0.067,0.001l-0.056,0.002l-0.055,0.003l-0.054,0.005l-0.053,0.006l-0.052,0.007l-0.052,0.008l-0.051,0.009l-0.05,0.011l-0.05,0.012l-0.048,0.013l-0.048,0.014l-0.048,0.015l-0.046,0.016l-0.046,0.017l-0.046,0.018l-0.044,0.019l-0.044,0.02l-0.043,0.021l-0.043,0.022l-0.042,0.023l-0.041,0.024l-0.04,0.025l-0.04,0.026l-0.038,0.027l-0.039,0.027l-0.037,0.029l-0.037,0.029l-0.035,0.03l-0.035,0.031l-0.035,0.032l-0.033,0.033l-0.033,0.033l-0.032,0.035l-0.031,0.035l-0.03,0.036l-0.03,0.036l-0.028,0.038l-0.028,0.038l-0.026,0.039l-0.026,0.039l-0.025,0.041l-0.024,0.041l-0.023,0.042l-0.022,0.042l-0.021,0.043l-0.02,0.044l-0.019,0.045l-0.018,0.045l-0.018,0.046l-0.016,0.047l-0.015,0.047l-0.014,0.048l-0.012,0.049l-0.012,0.049l-0.011,0.051l-0.009,0.05l-0.009,0.052l-0.007,0.052l-0.005,0.054l-0.005,0.054l-0.003,0.054l-0.002,0.056l-0.001,0.067l0,4.003l0.001,0.067l0.002,0.056l0.003,0.054l0.005,0.054l0.005,0.053l0.007,0.053l0.009,0.051l0.009,0.051l0.011,0.051l0.012,0.049l0.012,0.049l0.014,0.048l0.015,0.047l0.016,0.047l0.018,0.046l0.018,0.045l0.019,0.045l0.02,0.044l0.021,0.043l0.022,0.042l0.023,0.042l0.024,0.041l0.025,0.041l0.026,0.039l0.026,0.039l0.028,0.038l0.029,0.038l0.029,0.036l0.03,0.036l0.031,0.035l0.032,0.035l0.033,0.033l0.033,0.033l0.035,0.032l0.035,0.031l0.035,0.03l0.037,0.029l0.037,0.029l0.039,0.027l0.038,0.027l0.04,0.026l0.041,0.025l0.041,0.024l0.041,0.023l0.043,0.022l0.043,0.021l0.044,0.02l0.044,0.019l0.046,0.018l0.046,0.017l0.046,0.016l0.048,0.015l0.048,0.014l0.048,0.013l0.05,0.012l0.05,0.01l0.051,0.01l0.052,0.008l0.052,0.007l0.053,0.006l0.054,0.005l0.055,0.003l0.056,0.002l0.067,0.001l17.141,0l0.06,-0.001l0.048,-0.002l0.048,-0.003l0.048,-0.004l0.048,-0.006l0.048,-0.006l0.048,-0.008l0.047,-0.009l0.047,-0.011l0.047,-0.011l0.046,-0.013l0.047,-0.013l0.046,-0.015l0.046,-0.016l0.046,-0.018l0.045,-0.018l0.045,-0.019l0.044,-0.021l0.044,-0.022l0.044,-0.022l0.043,-0.024l0.042,-0.025l0.042,-0.026l0.042,-0.027l0.04,-0.028l0.041,-0.028l0.039,-0.03l0.039,-0.031l0.038,-0.031l0.037,-0.033l0.037,-0.033l0.036,-0.034l0.035,-0.035l0.034,-0.036l0.033,-0.037l0.032,-0.037l0.031,-0.038l0.031,-0.039l0.029,-0.039l0.029,-0.04l0.027,-0.041l0.027,-0.041l0.025,-0.042l0.024,-0.042l0.023,-0.043l0.023,-0.043l0.021,-0.044l0.02,-0.045l0.019,-0.045l0.017,-0.045l0.017,-0.046l0.016,-0.047l0.014,-0.047l0.013,-0.047l0.012,-0.048l0.011,-0.049l0.01,-0.049l0.008,-0.049l0.007,-0.05l0.006,-0.051l0.005,-0.052l0.004,-0.051l0.002,-0.053l0,-0.065l0,-4.002l0,-0.067l-0.002,-0.056l-0.004,-0.054l-0.004,-0.054l-0.006,-0.053l-0.007,-0.053l-0.009,-0.052l-0.009,-0.051l-0.011,-0.05l-0.011,-0.049l-0.013,-0.049l-0.014,-0.048l-0.015,-0.047l-0.016,-0.047l-0.017,-0.046l-0.019,-0.045l-0.019,-0.045l-0.02,-0.044l-0.021,-0.043l-0.022,-0.043l-0.023,-0.041l-0.024,-0.041l-0.025,-0.041l-0.026,-0.039l-0.026,-0.039l-0.028,-0.038l-0.028,-0.038l-0.03,-0.036l-0.03,-0.036l-0.031,-0.035l-0.032,-0.035l-0.032,-0.033l-0.034,-0.033l-0.034,-0.032l-0.035,-0.031l-0.036,-0.03l-0.037,-0.029l-0.037,-0.029l-0.038,-0.027l-0.039,-0.027l-0.04,-0.026l-0.04,-0.025l-0.041,-0.024l-0.042,-0.023l-0.043,-0.022l-0.043,-0.021l-0.044,-0.02l-0.044,-0.019l-0.045,-0.018l-0.046,-0.017l-0.047,-0.016l-0.048,-0.015l-0.048,-0.014l-0.048,-0.013l-0.05,-0.012l-0.05,-0.011l-0.051,-0.009l-0.052,-0.008l-0.052,-0.007l-0.053,-0.006l-0.054,-0.005l-0.055,-0.003l-0.055,-0.002l-0.068,-0.001l-17.141,0Z" style="fill:#275623;"/><path d="M153.18,259.755l-0.711,2.486" style="fill:none;stroke:#275623;stroke-width:3.55px;"/><path d="M160.518,259.755l0.711,2.486" style="fill:none;stroke:#275623;stroke-width:3.55px;"/><ellipse cx="157.086" cy="280.706" rx="6.629" ry="6.865" style="fill:none;stroke:#275623;stroke-width:3.55px;"/><path d="M149.274,235.253l-15.388,0" style="fill:none;stroke:#275623;stroke-width:3.55px;"/><path d="M180.049,235.253l-14.204,0" style="fill:none;stroke:#275623;stroke-width:3.55px;"/><path d="M147.853,248.628c-1.065,-2.485 -4.024,-4.379 -7.457,-4.379c-3.314,0 -6.037,1.657 -7.22,4.024" style="fill:none;stroke:#275623;stroke-width:3.55px;"/><circle cx="140.159" cy="246.024" r="2.486" style="fill:#275623;"/><path d="M180.049,248.628c-1.065,-2.485 -4.025,-4.379 -7.457,-4.379c-3.314,0 -6.037,1.657 -7.221,4.024" style="fill:none;stroke:#275623;stroke-width:3.55px;"/><circle cx="172.355" cy="246.024" r="2.486" style="fill:#275623;"/></g><path d="M288,104.102c0,-19.175 -11.008,-35.983 -27.343,-45.098c-9.233,-16.926 -28.053,-28.526 -49.714,-28.526c-9.115,0 -17.637,2.012 -25.331,5.682c-7.575,-3.67 -16.216,-5.682 -25.33,-5.682c-8.049,0 -15.625,1.539 -22.49,4.498c-6.865,-2.841 -14.559,-4.498 -22.49,-4.498c-20.122,0 -37.759,9.943 -47.583,24.975c-20.478,7.813 -34.919,26.633 -34.919,48.649c0,21.306 13.494,39.535 32.788,47.821c9.233,16.926 28.053,28.644 49.833,28.644c8.048,0 15.624,-1.538 22.489,-4.498c6.866,2.841 14.559,4.498 22.49,4.498c9.114,0 17.637,-2.012 25.331,-5.681c7.575,3.669 16.216,5.681 25.33,5.681c23.318,0 43.322,-13.375 51.726,-32.432c15.151,-9.47 25.213,-25.568 25.213,-44.033Z" style="fill:none;stroke:#275623;stroke-width:3.55px;"/><circle cx="68.547" cy="181.988" r="7.22" style="fill:none;stroke:#275623;stroke-width:3.55px;"/><circle cx="77.425" cy="199.98" r="4.971" style="fill:none;stroke:#275623;stroke-width:3.55px;"/><circle cx="92.457" cy="208.384" r="3.906" style="fill:none;stroke:#275623;stroke-width:3.55px;"/></g></g></svg>