<?xml version="1.0" encoding="UTF-8" standalone="no"?><!DOCTYPE svg PUBLIC "-//W3C//DTD SVG 1.1//EN" "http://www.w3.org/Graphics/SVG/1.1/DTD/svg11.dtd"><svg width="100%" height="100%" viewBox="0 0 320 320" version="1.1" xmlns="http://www.w3.org/2000/svg" xmlns:xlink="http://www.w3.org/1999/xlink" xml:space="preserve" style="fill-rule:evenodd;clip-rule:evenodd;stroke-linecap:round;stroke-linejoin:round;stroke-miterlimit:10;"><g id="圖層_2"><g><path d="M161.63,264.294l6.403,-6.403c1.164,-1.165 1.164,-2.911 0,-4.075c-1.164,-1.165 -2.91,-1.165 -4.075,0l-6.403,6.403l-6.403,-6.403c-1.164,-1.165 -2.911,-1.165 -4.075,0c-1.164,1.164 -1.164,2.91 0,4.075l6.403,6.403l-6.403,6.403c-1.164,1.164 -1.164,2.911 0,4.075c1.164,1.164 2.911,1.164 4.075,0l6.403,-6.403l6.403,6.403c1.165,1.164 2.911,1.164 4.075,0c1.164,-1.164 1.164,-2.911 0,-4.075l-6.403,-6.403Z" style="fill:#d87341;fill-rule:nonzero;"/><path d="M234.86,72.195l-143.433,0c-1.863,0 -3.377,-1.513 -3.377,-3.376c0,-1.863 1.514,-3.376 3.377,-3.376l143.433,0c1.863,0 3.377,1.513 3.377,3.376c0,1.863 -1.514,3.376 -3.377,3.376Z" style="fill:#d87341;fill-opacity:0.5;fill-rule:nonzero;"/><path d="M156.507,100.835c-0.349,0 0.233,0 0,0c-24.798,0.466 -47.85,13.971 -41.563,45.056c0,0 3.726,-9.43 7.335,-16.765c0,0 16.998,-0.465 34.461,-0.465c-0.116,0.582 35.975,0.465 35.975,0.465l7.567,17.58c2.213,-11.06 0.466,-19.908 -3.725,-26.894c0,0 0,1.514 -8.266,-4.889c-3.726,-3.959 -2.911,-6.287 -2.911,-6.287c-8.266,-5.006 -18.627,-7.568 -28.873,-7.801Z" style="fill:#d87341;fill-rule:nonzero;"/><path d="M124.491,158.814l23.285,0l2.444,-17.114l-28.058,0l2.329,17.114Z" style="fill:#d87341;fill-opacity:0.5;fill-rule:nonzero;"/><path d="M166.869,158.814l23.285,0l2.328,-17.114l-28.058,0l2.445,17.114Z" style="fill:#d87341;fill-opacity:0.5;fill-rule:nonzero;"/><path d="M272.349,288.51l-225.396,0c-1.164,0 -2.212,-0.932 -2.212,-2.212l0,-5.821l11.06,0c1.514,-0.117 2.329,-5.239 0.815,-5.589l-11.875,-1.63l15.484,-0.815c1.164,-0.116 1.747,-4.424 0.582,-4.54l-16.066,-1.048l14.204,-0.582c1.397,-0.233 0.116,-4.541 -1.281,-4.773l-12.923,-1.048l13.854,-0.815c1.048,-0.233 0.699,-4.424 -0.465,-4.541l-13.389,-1.047l0,-10.711c0,-1.165 0.931,-2.212 2.212,-2.212l225.279,0c1.164,0 2.212,0.931 2.212,2.212l0,10.711l-12.108,1.397c-1.513,0.232 -1.746,4.074 -0.233,4.307l12.225,0.699l-14.437,1.63c-1.048,0.233 0.699,3.842 1.747,4.075l12.69,0.698l-14.553,1.281c-1.048,0.233 -1.048,3.958 0,4.191l14.553,1.746l-11.41,1.048c-0.815,0.233 0.35,4.541 1.281,4.774l10.129,0.582l0,5.821c0.116,1.28 -0.815,2.212 -1.979,2.212Z" style="fill:#d87341;fill-opacity:0.2;fill-rule:nonzero;"/><g><path d="M95.851,60.32c-0.466,0 -0.815,-0.349 -0.815,-0.698c0,-0.35 0.233,-0.815 0.815,-0.815l6.519,0l0,-0.466c0,-0.117 0,-0.233 0.117,-0.349c-4.075,0 -4.657,0 -4.657,-2.795c0,-1.513 0.116,-2.561 1.979,-2.677l7.218,0c1.165,0 1.747,0.698 1.863,1.63c0,0.232 0,0.582 0,0.931c0,1.63 -0.116,2.794 -1.979,2.911c-0.931,0 -1.863,0 -2.794,0c0.116,0.116 0.116,0.232 0.116,0.349l0,0.466l6.52,0c0.466,0 0.698,0.349 0.698,0.698c0,0.349 -0.232,0.699 -0.698,0.699l-14.902,0l0,0.116Zm3.725,5.006c0.117,-0.116 0.233,-0.116 0.466,-0.116c0.466,0 0.931,0.466 0.931,0.815c0,0.233 -0.116,0.465 -0.349,0.582c-1.281,0.931 -3.493,1.746 -4.191,1.746c-0.582,0 -1.048,-0.465 -1.048,-0.931c0,-0.349 0.233,-0.699 0.699,-0.815c1.28,-0.117 2.444,-0.582 3.492,-1.281Zm4.89,-0.233c0,0.466 0,1.048 0,1.514c0,1.164 -0.582,2.096 -2.561,2.096c-1.397,0 -1.979,-0.233 -1.979,-0.932c0,-0.349 0.232,-0.698 0.698,-0.698l0.117,0c0.349,0 0.698,0.116 0.931,0.116c0.582,0 0.931,-0.233 0.931,-1.048l0,-1.164c-3.842,0 -4.424,-0.116 -4.424,-1.979c0,-0.932 0,-1.863 1.863,-1.979l6.52,0c1.397,0 1.746,0.698 1.746,1.862c0.116,1.98 -0.233,2.096 -3.842,2.212Zm2.794,-9.197l-7.8,0c0,0.116 0,0.116 0,0.233c0,0.582 0.116,0.582 4.075,0.582c0.931,0 1.979,0 2.794,0c0.466,0 0.815,-0.233 0.815,-0.582l0.116,-0.233Zm0,-1.164c0,-0.117 0,-0.117 0,-0.233c0,-0.699 -0.233,-0.699 -3.725,-0.699c-1.165,0 -2.212,0 -3.144,0c-0.582,0 -0.815,0.35 -0.931,0.699l0,0.116l7.8,0l0,0.117Zm-0.582,8.266c0,-0.466 -0.233,-0.582 -0.582,-0.582c-0.931,0 -1.979,0 -3.027,0c-3.027,0 -3.027,0 -3.027,0.582c0,0.116 0,0.116 0,0.233c0,0.116 0.233,0.349 0.582,0.349c0.931,0 2.096,0 3.26,0c2.678,0 2.794,0 2.794,-0.349c0,-0.117 0,-0.117 0,-0.233Zm2.445,5.122c-0.815,-0.582 -1.979,-1.047 -2.911,-1.28c-0.465,-0.117 -0.698,-0.466 -0.698,-0.699c0,-0.465 0.349,-0.815 0.931,-0.815c0.233,0 4.308,0.815 4.308,2.096c0,0.466 -0.466,0.931 -0.931,0.931c-0.233,0 -0.466,-0.116 -0.699,-0.233Z" style="fill:#275623;fill-rule:nonzero;"/><path d="M120.882,68.004c0,0.466 -0.466,0.699 -0.815,0.699c-0.349,0 -0.815,-0.233 -0.815,-0.699l0,-2.911c-1.747,1.747 -3.842,3.027 -4.541,3.027c-0.465,0 -0.815,-0.349 -0.815,-0.815c0,-0.232 0.117,-0.582 0.582,-0.698c1.747,-0.699 2.911,-1.514 4.075,-2.561l-3.492,0.116c-0.466,0 -0.699,-0.349 -0.699,-0.699c0,-0.349 0.233,-0.698 0.699,-0.698l1.746,0c-0.233,-0.349 -0.466,-0.699 -0.815,-0.931c-0.116,-0.117 -0.233,-0.233 -0.233,-0.466c0,-0.349 0.466,-0.699 0.815,-0.699c0.582,0 1.863,1.63 1.863,2.096l0.698,0l0,-1.863c0,-0.582 0.466,-0.815 0.815,-0.815c0.466,0 0.815,0.233 0.815,0.699l0,1.863l0.815,0c0.35,-0.583 0.699,-1.165 0.815,-1.747c0.117,-0.349 0.35,-0.466 0.582,-0.466c0.466,0 0.932,0.35 0.932,0.815c0,0.233 -0.117,0.466 -0.699,1.398l1.397,0c0.466,0 0.699,0.349 0.699,0.698c0,0.349 -0.233,0.699 -0.699,0.699l-3.26,-0.117c1.165,0.932 2.445,1.747 3.842,2.329c0.466,0.116 0.583,0.465 0.583,0.698c0,0.466 -0.466,0.932 -0.932,0.932c-0.582,0 -2.678,-1.398 -4.075,-2.795l0.117,2.911Zm-2.911,-12.69c-0.582,0.931 -1.397,1.746 -2.212,2.445c-0.233,0.233 -0.466,0.233 -0.698,0.233c-0.466,0 -0.932,-0.35 -0.932,-0.815c0,-0.233 0.117,-0.466 0.349,-0.699c1.398,-1.048 2.213,-2.445 2.911,-3.842c0.116,-0.349 0.466,-0.466 0.699,-0.466c0.465,0 1.047,0.35 1.047,0.815c0,0.117 0,0.233 -0.232,0.699l8.848,0c0.582,0 0.815,0.349 0.815,0.815c0,0.466 -0.233,0.815 -0.815,0.815l-9.78,0Zm-2.095,4.657c-0.466,0 -0.699,-0.349 -0.699,-0.699c0,-0.349 0.233,-0.698 0.699,-0.698l9.43,0c1.048,0 1.979,0.698 1.979,1.746c0,0.582 0,1.281 0,2.096c0,3.143 1.048,4.074 1.281,4.074c0.233,0 0.465,-0.465 0.582,-1.513c0,-0.466 0.465,-0.699 0.815,-0.699c0.465,0 0.931,0.35 0.931,0.815c0,1.048 -0.698,3.26 -2.328,3.26c-0.582,0 -1.165,-0.349 -1.514,-0.815c-1.397,-1.746 -1.397,-4.657 -1.397,-6.519c0,-0.699 0,-1.165 -0.815,-1.165c0,0.117 0,0.117 -8.964,0.117Zm2.328,-2.445c-0.466,0 -0.815,-0.349 -0.815,-0.699c0,-0.349 0.233,-0.698 0.815,-0.698l8.15,0c0.465,0 0.698,0.349 0.698,0.698c0,0.35 -0.233,0.699 -0.698,0.699l-8.15,0Z" style="fill:#275623;fill-rule:nonzero;"/><path d="M139.626,58.923c-2.445,3.376 -5.472,5.472 -6.287,5.472c-0.582,0 -1.048,-0.466 -1.048,-0.932c0,-0.349 0.117,-0.582 0.582,-0.814c3.027,-1.514 5.356,-4.425 6.986,-7.219l-5.938,0.117c-0.582,0 -0.815,-0.466 -0.815,-0.815c0,-0.466 0.349,-0.932 0.932,-0.932l13.388,0c0.582,0 0.932,0.466 0.815,0.815c0,0.466 -0.233,0.815 -0.815,0.815l-5.355,-0.116c-0.349,0.582 -0.699,1.281 -1.048,1.863c0.349,0.116 0.699,0.349 0.699,0.815l0,9.779c0,0.582 -0.466,0.815 -0.932,0.815c-0.466,0 -0.931,-0.233 -0.931,-0.815l-0.233,-8.848Zm6.985,4.191c-0.931,-1.28 -2.328,-2.561 -3.725,-3.492c-0.35,-0.233 -0.466,-0.466 -0.466,-0.699c0,-0.466 0.349,-0.815 0.931,-0.815c0.932,0 3.959,2.445 4.89,3.726c0.233,0.232 0.233,0.465 0.233,0.815c0,0.582 -0.466,1.047 -1.048,1.047c-0.349,0 -0.582,-0.233 -0.815,-0.582Z" style="fill:#275623;fill-rule:nonzero;"/><path d="M156.158,56.129c1.164,0 1.63,0.698 1.63,1.746c0,1.397 -0.349,3.376 -1.164,5.356c1.746,0.931 1.862,1.513 1.862,1.862c0,0.583 -0.349,1.048 -0.814,1.048c-0.233,0 -0.35,-0.116 -0.583,-0.233c-0.465,-0.465 -0.815,-0.815 -1.164,-1.047c-1.63,2.794 -3.609,3.725 -4.191,3.725c-0.582,0 -0.931,-0.466 -0.931,-0.931c0,-0.35 0.116,-0.582 0.465,-0.699c1.514,-0.698 2.562,-1.746 3.26,-2.91c-0.349,-0.117 -0.815,-0.233 -1.281,-0.35c-0.116,0.582 -0.582,0.815 -0.931,0.815c-0.349,0 -0.815,-0.233 -0.815,-0.815c0,-0.116 0,-0.233 0.117,-0.465c0.582,-1.747 1.047,-3.609 1.397,-5.472c-0.35,0 -0.815,0 -1.048,0c-0.466,0 -0.815,-0.35 -0.815,-0.815c0,-0.466 0.233,-0.815 0.815,-0.815c0.465,0 0.931,0 1.397,0c0.116,-1.048 0.233,-1.979 0.349,-3.027c0,-0.466 0.466,-0.815 0.815,-0.815c0.466,0 0.931,0.349 0.931,0.815c0,0.582 -0.232,2.445 -0.349,2.91l1.048,0l0,0.117Zm-1.513,1.513c-0.233,1.514 -0.583,3.027 -0.932,4.541c0.466,0.116 1.048,0.233 1.63,0.349c0.815,-1.979 0.931,-3.958 0.931,-4.54c0,-0.233 -0.232,-0.35 -0.465,-0.35l-1.164,0Zm9.896,3.726c0,0.233 0,0.466 0,0.698c0,0.932 -0.117,1.863 -0.233,3.027c-0.35,2.096 -1.863,3.377 -3.959,3.377c-1.164,0 -2.095,-0.233 -2.095,-1.165c0,-0.465 0.349,-0.931 0.815,-0.931c0.116,0 0.232,0 0.232,0c0.35,0.116 0.699,0.116 1.048,0.116c1.048,0 1.863,-0.582 2.212,-1.862c0.233,-0.932 0.233,-1.747 0.233,-2.562c0,-0.232 0,-0.582 0,-0.815l-4.191,0c-0.582,0 -0.815,-0.349 -0.815,-0.815c0,-0.349 0.233,-0.814 0.815,-0.814l3.842,0c-0.349,-0.932 -0.815,-1.63 -1.397,-1.98c-0.233,-0.116 -0.349,-0.349 -0.349,-0.582c0,-0.465 0.465,-0.815 0.931,-0.815c0.116,0 0.349,0 0.698,0.233c0.466,-0.466 1.398,-1.397 1.398,-1.63c0,-0.116 -0.233,-0.116 -1.048,-0.116c-0.932,0 -2.212,0 -3.493,0.116c-0.466,0 -0.815,-0.349 -0.815,-0.815c0,-0.465 0.233,-0.815 0.815,-0.815l5.123,0c1.047,0 1.513,0.582 1.513,1.164c0,0.35 -0.116,0.815 -0.466,1.165c-0.349,0.465 -1.397,1.513 -1.979,1.979c0.35,0.466 0.582,1.164 0.815,1.979l2.562,0c0.582,0 0.815,0.466 0.815,0.815c0,0.349 -0.233,0.815 -0.815,0.815l-2.212,0l0,0.233Z" style="fill:#275623;fill-rule:nonzero;"/><path d="M176.881,58.923c-2.445,3.376 -5.472,5.472 -6.286,5.472c-0.583,0 -1.048,-0.466 -1.048,-0.932c0,-0.349 0.116,-0.582 0.582,-0.814c3.027,-1.514 5.355,-4.425 6.985,-7.219l-5.937,0.117c-0.582,0 -0.815,-0.466 -0.815,-0.815c0,-0.466 0.349,-0.932 0.931,-0.932l13.389,0c0.582,0 0.931,0.466 0.815,0.815c0,0.466 -0.233,0.815 -0.815,0.815l-5.356,-0.116c-0.349,0.582 -0.698,1.281 -1.048,1.863c0.35,0.116 0.699,0.349 0.699,0.815l0,9.779c0,0.582 -0.466,0.815 -0.931,0.815c-0.466,0 -0.932,-0.233 -0.932,-0.815l-0.233,-8.848Zm6.986,4.191c-0.932,-1.28 -2.329,-2.561 -3.726,-3.492c-0.349,-0.233 -0.465,-0.466 -0.465,-0.699c0,-0.466 0.349,-0.815 0.931,-0.815c0.931,0 3.958,2.445 4.89,3.726c0.233,0.232 0.233,0.465 0.233,0.815c0,0.582 -0.466,1.047 -1.048,1.047c-0.35,0 -0.582,-0.233 -0.815,-0.582Z" style="fill:#275623;fill-rule:nonzero;"/><path d="M189.106,57.992c-0.582,0 -0.815,-0.35 -0.815,-0.815c0,-0.35 0.233,-0.815 0.815,-0.815c0.233,0 0.582,0 0.815,0c0.466,-0.815 1.164,-2.445 1.397,-3.377c0.116,-0.349 0.466,-0.582 0.698,-0.582c0.466,0 0.932,0.35 0.932,0.815c0,0.117 -0.117,0.815 -1.397,3.027c0.815,-0.116 1.63,-0.233 2.328,-0.349c-0.116,-0.116 -0.233,-0.116 -0.349,-0.233c-0.233,-0.116 -0.233,-0.349 -0.233,-0.466c0,-0.349 0.349,-0.698 0.815,-0.698c0.582,0 2.329,1.63 2.329,2.445c0,0.465 -0.35,0.815 -0.815,0.815c-0.35,0 -0.466,-0.117 -0.815,-0.699c-2.096,0.582 -4.774,0.932 -5.705,0.932Zm1.863,7.101c0,1.048 0,2.096 0,2.795c0,0.465 -0.35,0.815 -0.815,0.815c-0.466,0 -0.815,-0.233 -0.815,-0.815l0,-7.568c0,-1.63 0.931,-1.63 3.027,-1.63c0.582,0 1.164,0 1.513,0c1.048,0 1.514,0.582 1.63,1.63l0,6.287c0,1.164 -0.815,1.979 -2.095,1.979c-0.815,0 -1.514,-0.233 -1.514,-0.931c0,-0.35 0.233,-0.699 0.699,-0.699c0,0 0.116,0 0.232,0c0.233,0 0.466,0.117 0.583,0.117c0.349,0 0.582,-0.233 0.582,-0.815c0,-0.35 0,-0.699 0,-1.048l-3.027,0l0,-0.117Zm0,-2.444l0,1.164l3.143,0c0,-0.35 0,-0.815 0,-1.164l-3.143,0Zm3.143,-1.281c0,-0.233 0,-0.466 0,-0.699c0,-0.582 -0.116,-0.582 -1.63,-0.582c-1.397,0 -1.513,0 -1.513,0.582c0,0.233 0,0.466 0,0.699l3.143,0Zm4.657,-3.726c0,0.932 0.815,0.932 1.746,0.932c1.747,0 2.096,-0.466 2.096,-1.397c0,-0.466 0.349,-0.699 0.815,-0.699c0.116,0 0.931,0 0.931,0.931c0,2.096 -1.397,2.678 -3.958,2.678c-2.561,0 -3.376,-0.698 -3.376,-2.095c0,-1.048 0,-3.61 0,-4.657c0,-0.466 0.465,-0.815 0.931,-0.815c0.466,0 0.815,0.233 0.815,0.815c0,0.465 0,1.164 0,1.862c1.164,-0.349 2.561,-0.931 3.493,-1.397c0.116,-0.116 0.233,-0.116 0.349,-0.116c0.466,0 0.931,0.466 0.931,0.931c0,0.35 -0.116,0.582 -0.582,0.815c-1.048,0.466 -2.794,1.048 -4.191,1.281l0,0.931Zm0,8.266c0,0.815 0.699,0.932 1.746,0.932c1.397,0 2.212,-0.233 2.212,-1.397c0,-0.466 0.466,-0.815 0.815,-0.815c0.117,0 1.048,0 1.048,0.931c0,1.979 -1.397,2.794 -4.075,2.794c-1.513,0 -3.376,-0.116 -3.376,-2.212c0,-1.164 0,-3.842 0,-4.89c0,-0.582 0.466,-0.815 0.815,-0.815c0.466,0 0.931,0.233 0.931,0.815c0,0.466 0,1.048 0,1.863c1.165,-0.465 2.445,-0.931 3.377,-1.513c0.116,-0.117 0.233,-0.117 0.465,-0.117c0.466,0 0.932,0.466 0.932,0.932c0,0.349 -0.117,0.582 -0.582,0.815c-1.048,0.465 -2.795,1.047 -4.192,1.397l0,1.28l-0.116,0Z" style="fill:#275623;fill-rule:nonzero;"/><path d="M207.501,56.711c-0.582,0 -0.815,-0.349 -0.815,-0.815c0,-0.349 0.233,-0.815 0.815,-0.815l4.773,0c0.582,0 0.815,0.349 0.815,0.815c0,0.349 -0.233,0.815 -0.815,0.815l-4.773,0Zm2.212,11.409c-0.349,0 -0.815,0 -1.164,0c-0.815,0 -1.398,-0.698 -1.398,-1.513l0,-2.678c0,-0.698 0.466,-1.397 1.281,-1.397l2.445,0c0.699,0 1.397,0.466 1.397,1.281l0,2.794c0,0.116 0,0.349 -0.116,0.466c1.164,-1.98 1.397,-5.356 1.397,-8.15c0,-1.397 0,-2.561 0,-3.609l0,-0.117c0,-1.513 0.698,-2.212 2.212,-2.212l5.122,0c1.165,0 1.863,0.815 1.863,1.98l0,11.409c0,1.164 -0.698,2.329 -2.561,2.329c-1.048,0 -1.863,-0.117 -1.863,-0.932c0,-0.466 0.233,-0.931 0.815,-0.931c0,0 0.116,0 0.233,0c0.349,0 0.698,0.116 0.931,0.116c0.466,0 0.932,-0.233 0.932,-1.164c0,0 0,-1.397 0,-3.143c0,-2.678 0,-6.287 0,-7.452c0,-0.349 -0.35,-0.582 -0.815,-0.698l-4.308,0c-0.582,0 -0.815,0.349 -0.815,0.931l0,3.144c0,3.376 -0.116,7.451 -1.513,9.546c-0.233,0.35 -0.583,0.466 -0.932,0.466c-0.465,0 -0.931,-0.349 -0.931,-0.698c0,-0.117 0,-0.117 0,-0.233c-0.349,0.349 -0.582,0.465 -2.212,0.465Zm-1.63,-13.97c-0.466,0 -0.699,-0.35 -0.699,-0.699c0,-0.349 0.233,-0.698 0.699,-0.698l3.493,0c0.465,0 0.815,0.349 0.815,0.698c0,0.349 -0.35,0.699 -0.815,0.699l-3.493,0Zm0.116,5.006c-0.465,0 -0.698,-0.349 -0.698,-0.699c0,-0.349 0.233,-0.698 0.698,-0.698l3.493,0c0.466,0 0.815,0.349 0.815,0.698c0,0.35 -0.233,0.699 -0.815,0.699l-3.493,0Zm0,2.328c-0.465,0 -0.698,-0.349 -0.698,-0.698c0,-0.35 0.233,-0.699 0.698,-0.699l3.493,0c0.466,0 0.815,0.349 0.815,0.699c0,0.349 -0.233,0.698 -0.815,0.698l-3.493,0Zm2.678,3.842c0,-0.349 0,-0.698 0,-0.931c0,-0.466 -0.349,-0.466 -1.048,-0.466c-1.048,0 -1.048,0 -1.048,1.397c0,0.35 0,0.699 0,0.932c0,0.232 0.117,0.465 1.048,0.465c0.815,0 1.164,-0.116 1.164,-0.465c-0.116,-0.233 -0.116,-0.582 -0.116,-0.932Zm5.239,-5.122c-0.466,0 -0.698,-0.35 -0.698,-0.699c0,-0.349 0.232,-0.698 0.698,-0.698l1.164,0l0,-1.165l-1.048,0c-0.465,0 -0.698,-0.349 -0.698,-0.698c0,-0.349 0.233,-0.699 0.698,-0.699l1.048,0l0,-0.931c0,-0.466 0.466,-0.699 0.815,-0.699c0.466,0 0.815,0.233 0.815,0.699l0,0.931l1.164,0c0.466,0 0.583,0.35 0.583,0.699c0,0.349 -0.233,0.698 -0.583,0.698l-1.164,0l0,1.165l1.281,0c0.466,0 0.582,0.349 0.582,0.698c0,0.349 -0.233,0.699 -0.582,0.699l-4.075,0Zm1.863,5.821c-1.281,0 -2.212,-0.117 -2.212,-1.164l0,-2.795c0,-1.164 1.164,-1.164 2.328,-1.164c1.164,0 2.096,0.117 2.212,1.164c0,0.583 0,1.165 0,1.747c0,1.63 0,2.212 -2.328,2.212Zm0.931,-2.445c0,-0.349 0,-0.699 0,-0.931c0,-0.233 0,-0.35 -0.815,-0.35c-0.931,0 -0.931,0 -0.931,1.164c0,1.165 0,1.165 0.815,1.165c0.815,0 0.931,0 0.931,-0.35c0,-0.232 0,-0.465 0,-0.698Z" style="fill:#275623;fill-rule:nonzero;"/><path d="M229.039,68.12c-0.698,0 -1.281,-0.582 -1.281,-1.28c0,-0.815 0.815,-1.281 1.281,-1.281c0.699,0 1.281,0.466 1.281,1.281c0,0.931 -0.815,1.28 -1.281,1.28Zm-0.815,-4.657c0,-0.116 0,-0.232 0,-0.349c0,-1.863 -0.233,-6.17 -0.349,-9.081c0,-0.698 0.582,-1.048 1.048,-1.048c0.582,0 1.164,0.35 1.164,1.048c0,2.212 -0.349,7.335 -0.349,9.081c0,0.466 0,1.281 -0.815,1.281c-0.35,-0.117 -0.699,-0.349 -0.699,-0.932Z" style="fill:#275623;fill-rule:nonzero;"/></g><path d="M274.444,281.059l0,3.958c0,1.863 -1.513,3.376 -3.376,3.376l-222.834,0c-1.863,0 -3.377,-1.513 -3.377,-3.376l0,-3.609" style="fill:none;stroke:#275623;stroke-width:3.49px;"/><path d="M44.857,253.699l0,-9.779c0,-1.863 1.514,-3.377 3.377,-3.377l222.834,0c1.863,0 3.376,1.514 3.376,3.377l0,10.129" style="fill:none;stroke:#275623;stroke-width:3.49px;"/><g><path d="M200.05,170.806c2.91,-0.582 5.588,-2.911 6.752,-6.287c1.747,-4.773 -0.233,-9.78 -4.424,-11.293c-1.048,-0.349 -1.863,-0.233 -2.91,-0.117" style="fill:none;stroke:#275623;stroke-width:3.49px;"/><path d="M168.848,159.746l18.511,0c1.398,0 2.445,-0.699 2.562,-1.514l2.212,-15.368c0.116,-0.931 -1.048,-1.746 -2.561,-1.746l-22.936,0c-1.513,0 -2.794,0.815 -2.561,1.746l2.212,15.368c0,0.815 1.164,1.514 2.561,1.514Z" style="fill:none;stroke:#275623;stroke-width:3.49px;"/><path d="M159.534,168.245l0.699,2.561" style="fill:none;stroke:#275623;stroke-width:3.49px;"/><path d="M170.362,153.109c1.047,-2.561 3.958,-4.307 7.451,-4.307c3.26,0 6.054,1.63 7.218,3.958" style="fill:none;stroke:#275623;stroke-width:3.49px;"/><circle cx="182.004" cy="151.48" r="2.561" style="fill:#275623;"/><path d="M190.149,127.381l0.111,0.003l0.11,0.006l0.111,0.008l0.11,0.009l0.109,0.013l0.109,0.014l0.109,0.016l0.108,0.019l0.108,0.02l0.106,0.023l0.107,0.024l0.105,0.027l0.106,0.028l0.104,0.031l0.103,0.033l0.103,0.034l0.103,0.037l0.101,0.038l0.1,0.041l0.1,0.042l0.099,0.044l0.097,0.046l0.097,0.047l0.096,0.05l0.095,0.051l0.094,0.054l0.093,0.054l0.092,0.057l0.092,0.059l0.089,0.06l0.089,0.062l0.088,0.063l0.086,0.065l0.085,0.067l0.084,0.069l0.083,0.07l0.082,0.072l0.08,0.073l0.079,0.075l0.078,0.077l0.076,0.078l0.075,0.08l0.074,0.081l0.072,0.082l0.07,0.084l0.069,0.086l0.068,0.087l0.066,0.089l0.065,0.09l0.062,0.091l0.062,0.093l0.059,0.094l0.058,0.096l0.057,0.096l0.054,0.098l0.053,0.1l0.051,0.101l0.049,0.101l0.047,0.103l0.046,0.105l0.043,0.105l0.042,0.107l0.042,0.116l5.687,16.942l0,26.833l-0.001,0.442l-0.004,0.445l-0.008,0.445l-0.01,0.444l-0.013,0.444l-0.016,0.444l-0.019,0.443l-0.022,0.443l-0.025,0.443l-0.027,0.442l-0.031,0.442l-0.033,0.441l-0.037,0.441l-0.039,0.441l-0.042,0.44l-0.045,0.439l-0.048,0.439l-0.05,0.439l-0.054,0.438l-0.056,0.437l-0.059,0.437l-0.062,0.436l-0.065,0.436l-0.068,0.435l-0.07,0.434l-0.074,0.434l-0.076,0.433l-0.079,0.432l-0.082,0.432l-0.084,0.431l-0.088,0.431l-0.09,0.429l-0.093,0.429l-0.096,0.428l-0.098,0.427l-0.102,0.427l-0.104,0.426l-0.107,0.425l-0.109,0.424l-0.113,0.423l-0.115,0.422l-0.118,0.422l-0.12,0.42l-0.124,0.42l-0.126,0.418l-0.129,0.418l-0.132,0.417l-0.134,0.416l-0.137,0.415l-0.14,0.413l-0.142,0.413l-0.146,0.412l-0.147,0.411l-0.151,0.409l-0.153,0.409l-0.156,0.407l-0.159,0.407l-0.162,0.405l-0.164,0.404l-0.167,0.403l-0.169,0.402l-0.172,0.4l-0.175,0.399l-0.177,0.399l-0.18,0.396l-0.183,0.396l-0.186,0.394l-0.188,0.393l-0.19,0.392l-0.194,0.391l-0.195,0.389l-0.199,0.388l-0.201,0.386l-0.204,0.385l-0.206,0.384l-0.21,0.382l-0.211,0.381l-0.214,0.379l-0.217,0.378l-0.22,0.377l-0.222,0.375l-0.224,0.373l-0.227,0.372l-0.23,0.371l-0.233,0.369l-0.234,0.367l-0.238,0.366l-0.24,0.364l-0.243,0.362l-0.245,0.361l-0.247,0.36l-0.251,0.357l-0.252,0.356l-0.256,0.355l-0.257,0.352l-0.261,0.351l-0.263,0.349l-0.265,0.348l-0.268,0.345l-0.27,0.344l-0.273,0.342l-0.274,0.339l-0.14,0.171l-0.139,0.169l-0.14,0.168l-0.141,0.168l-0.141,0.168l-0.141,0.167l-0.143,0.167l-0.143,0.166l-0.143,0.166l-0.145,0.165l-0.144,0.165l-0.146,0.164l-0.146,0.164l-0.147,0.163l-0.147,0.163l-0.148,0.162l-0.148,0.162l-0.149,0.162l-0.15,0.16l-0.15,0.161l-0.151,0.16l-0.152,0.159l-0.152,0.159l-0.153,0.158l-0.153,0.158l-0.155,0.158l-0.154,0.156l-0.155,0.157l-0.156,0.156l-0.157,0.155l-0.157,0.155l-0.157,0.154l-0.159,0.154l-0.159,0.153l-0.159,0.153l-0.16,0.152l-0.161,0.152l-0.161,0.151l-0.162,0.151l-0.162,0.15l-0.164,0.149l-0.163,0.149l-0.164,0.149l-0.165,0.148l-0.166,0.147l-0.166,0.147l-0.167,0.146l-0.167,0.146l-0.168,0.145l-0.168,0.145l-0.169,0.144l-0.171,0.144l-0.286,0.24l-0.288,0.239l-0.29,0.237l-0.291,0.234l-0.293,0.233l-0.294,0.231l-0.295,0.229l-0.296,0.226l-0.298,0.224l-0.299,0.222l-0.3,0.22l-0.302,0.218l-0.303,0.215l-0.305,0.212l-0.305,0.211l-0.307,0.207l-0.308,0.205l-0.31,0.203l-0.311,0.199l-0.312,0.198l-0.313,0.194l-0.313,0.19l-0.16,0.096l-0.158,0.094l-0.158,0.093l-0.159,0.093l-0.159,0.091l-0.159,0.091l-0.16,0.091l-0.16,0.089l-0.16,0.089l-0.161,0.088l-0.161,0.087l-0.161,0.086l-0.162,0.086l-0.162,0.085l-0.162,0.084l-0.163,0.083l-0.162,0.082l-0.164,0.082l-0.163,0.08l-0.164,0.08l-0.164,0.079l-0.164,0.078l-0.165,0.078l-0.165,0.076l-0.165,0.076l-0.166,0.075l-0.166,0.073l-0.166,0.073l-0.166,0.072l-0.167,0.072l-0.167,0.07l-0.168,0.069l-0.167,0.069l-0.168,0.067l-0.169,0.067l-0.168,0.065l-0.169,0.065l-0.17,0.064l-0.169,0.062l-0.17,0.062l-0.17,0.061l-0.17,0.06l-0.171,0.059l-0.171,0.057l-0.171,0.057l-0.172,0.056l-0.172,0.055l-0.172,0.054l-0.172,0.052l-0.173,0.052l-0.173,0.051l-0.173,0.05l-0.174,0.048l-0.174,0.048l-0.174,0.046l-0.174,0.045l-0.175,0.045l-0.175,0.043l-0.175,0.042l-0.175,0.041l-0.176,0.04l-0.176,0.039l-0.176,0.037l-0.177,0.037l-0.177,0.035l-0.177,0.034l-0.177,0.033l-0.178,0.032l-0.177,0.031l-0.179,0.029l-0.178,0.029l-0.179,0.027l-0.178,0.026l-0.18,0.025l-0.179,0.023l-0.179,0.023l-0.18,0.021l-0.18,0.02l-0.181,0.018l-0.18,0.018l-0.181,0.016l-0.181,0.015l-0.181,0.013l-0.234,0.016l-1.153,0l-0.221,-0.011l-0.182,-0.011l-0.182,-0.013l-0.182,-0.013l-0.181,-0.015l-0.181,-0.016l-0.181,-0.018l-0.181,-0.019l-0.18,-0.02l-0.181,-0.022l-0.179,-0.023l-0.18,-0.024l-0.179,-0.025l-0.179,-0.027l-0.179,-0.028l-0.179,-0.029l-0.178,-0.03l-0.178,-0.032l-0.178,-0.033l-0.178,-0.034l-0.177,-0.035l-0.177,-0.037l-0.176,-0.038l-0.177,-0.039l-0.176,-0.04l-0.176,-0.041l-0.175,-0.043l-0.175,-0.043l-0.175,-0.045l-0.175,-0.046l-0.174,-0.047l-0.175,-0.048l-0.173,-0.049l-0.174,-0.051l-0.173,-0.051l-0.173,-0.053l-0.172,-0.053l-0.173,-0.055l-0.172,-0.056l-0.171,-0.057l-0.172,-0.057l-0.171,-0.059l-0.171,-0.06l-0.17,-0.061l-0.17,-0.062l-0.17,-0.063l-0.17,-0.064l-0.169,-0.065l-0.169,-0.066l-0.169,-0.067l-0.168,-0.068l-0.168,-0.069l-0.168,-0.07l-0.167,-0.071l-0.167,-0.071l-0.167,-0.073l-0.166,-0.074l-0.166,-0.074l-0.166,-0.076l-0.166,-0.076l-0.165,-0.077l-0.165,-0.078l-0.164,-0.079l-0.164,-0.08l-0.164,-0.08l-0.164,-0.082l-0.163,-0.082l-0.163,-0.084l-0.163,-0.084l-0.162,-0.084l-0.162,-0.086l-0.162,-0.087l-0.161,-0.087l-0.161,-0.088l-0.161,-0.089l-0.16,-0.089l-0.16,-0.091l-0.16,-0.091l-0.159,-0.092l-0.159,-0.093l-0.159,-0.093l-0.158,-0.094l-0.159,-0.095l-0.159,-0.097l-0.313,-0.192l-0.313,-0.196l-0.312,-0.199l-0.311,-0.201l-0.309,-0.205l-0.308,-0.206l-0.307,-0.21l-0.305,-0.211l-0.304,-0.214l-0.303,-0.217l-0.302,-0.218l-0.3,-0.221l-0.298,-0.223l-0.298,-0.226l-0.296,-0.227l-0.295,-0.229l-0.293,-0.232l-0.292,-0.233l-0.291,-0.235l-0.289,-0.237l-0.288,-0.238l-0.289,-0.243l-0.174,-0.148l-0.169,-0.145l-0.168,-0.146l-0.168,-0.146l-0.167,-0.147l-0.166,-0.148l-0.166,-0.148l-0.166,-0.148l-0.164,-0.149l-0.165,-0.15l-0.163,-0.15l-0.163,-0.151l-0.162,-0.151l-0.162,-0.151l-0.161,-0.153l-0.161,-0.152l-0.16,-0.153l-0.159,-0.154l-0.159,-0.154l-0.158,-0.155l-0.158,-0.155l-0.157,-0.156l-0.156,-0.156l-0.156,-0.157l-0.155,-0.157l-0.154,-0.157l-0.154,-0.159l-0.154,-0.158l-0.152,-0.159l-0.153,-0.16l-0.151,-0.16l-0.151,-0.161l-0.15,-0.161l-0.15,-0.161l-0.149,-0.162l-0.149,-0.164l-0.294,-0.325l-0.293,-0.328l-0.29,-0.331l-0.288,-0.332l-0.285,-0.333l-0.283,-0.336l-0.28,-0.337l-0.278,-0.339l-0.275,-0.341l-0.273,-0.343l-0.27,-0.345l-0.268,-0.346l-0.265,-0.348l-0.263,-0.349l-0.26,-0.351l-0.258,-0.353l-0.255,-0.355l-0.253,-0.356l-0.25,-0.358l-0.247,-0.359l-0.245,-0.361l-0.243,-0.363l-0.24,-0.364l-0.237,-0.366l-0.235,-0.367l-0.232,-0.369l-0.23,-0.37l-0.227,-0.372l-0.225,-0.373l-0.222,-0.375l-0.219,-0.376l-0.217,-0.378l-0.214,-0.379l-0.212,-0.38l-0.209,-0.382l-0.206,-0.383l-0.204,-0.385l-0.201,-0.386l-0.199,-0.387l-0.196,-0.389l-0.193,-0.39l-0.191,-0.391l-0.188,-0.392l-0.185,-0.394l-0.183,-0.395l-0.18,-0.396l-0.177,-0.397l-0.175,-0.399l-0.172,-0.4l-0.17,-0.401l-0.166,-0.402l-0.164,-0.403l-0.162,-0.405l-0.159,-0.405l-0.156,-0.407l-0.153,-0.407l-0.151,-0.409l-0.148,-0.41l-0.145,-0.411l-0.142,-0.412l-0.14,-0.413l-0.137,-0.414l-0.135,-0.415l-0.131,-0.416l-0.129,-0.417l-0.126,-0.417l-0.124,-0.419l-0.121,-0.42l-0.118,-0.42l-0.115,-0.422l-0.112,-0.422l-0.11,-0.423l-0.107,-0.424l-0.104,-0.425l-0.101,-0.426l-0.099,-0.426l-0.096,-0.427l-0.093,-0.428l-0.09,-0.429l-0.087,-0.43l-0.085,-0.43l-0.082,-0.431l-0.079,-0.432l-0.076,-0.432l-0.073,-0.433l-0.071,-0.434l-0.067,-0.434l-0.065,-0.435l-0.062,-0.436l-0.059,-0.436l-0.057,-0.437l-0.053,-0.437l-0.051,-0.438l-0.048,-0.438l-0.045,-0.439l-0.042,-0.44l-0.039,-0.44l-0.036,-0.44l-0.034,-0.441l-0.03,-0.442l-0.028,-0.442l-0.025,-0.442l-0.021,-0.443l-0.019,-0.443l-0.016,-0.443l-0.014,-0.444l-0.01,-0.444l-0.007,-0.445l-0.005,-0.445l-0.001,-0.442l0,-26.833l5.669,-16.89l0.02,-0.065l0.035,-0.111l0.038,-0.11l0.04,-0.108l0.043,-0.108l0.044,-0.106l0.047,-0.105l0.049,-0.104l0.051,-0.102l0.053,-0.101l0.055,-0.1l0.057,-0.098l0.059,-0.097l0.061,-0.095l0.062,-0.094l0.065,-0.092l0.067,-0.091l0.068,-0.089l0.07,-0.088l0.071,-0.086l0.074,-0.084l0.075,-0.082l0.076,-0.081l0.079,-0.079l0.079,-0.078l0.082,-0.076l0.082,-0.073l0.084,-0.073l0.086,-0.07l0.086,-0.069l0.089,-0.066l0.089,-0.065l0.091,-0.063l0.092,-0.062l0.093,-0.059l0.094,-0.058l0.095,-0.055l0.097,-0.054l0.097,-0.052l0.099,-0.05l0.099,-0.048l0.101,-0.046l0.101,-0.044l0.103,-0.042l0.103,-0.04l0.104,-0.039l0.105,-0.036l0.106,-0.034l0.106,-0.032l0.107,-0.031l0.108,-0.028l0.109,-0.026l0.109,-0.024l0.11,-0.022l0.11,-0.02l0.111,-0.018l0.112,-0.016l0.112,-0.014l0.112,-0.011l0.113,-0.01l0.114,-0.008l0.114,-0.005l0.114,-0.003l0.106,-0.001l66.029,0l0.103,0.001Zm-66.116,3.492l-0.057,0l-0.048,0.002l-0.048,0.002l-0.048,0.003l-0.047,0.004l-0.047,0.005l-0.047,0.006l-0.046,0.006l-0.045,0.007l-0.045,0.009l-0.045,0.009l-0.044,0.009l-0.044,0.011l-0.043,0.011l-0.043,0.012l-0.042,0.013l-0.042,0.013l-0.041,0.015l-0.04,0.015l-0.04,0.015l-0.04,0.017l-0.039,0.017l-0.038,0.017l-0.038,0.018l-0.038,0.019l-0.036,0.02l-0.036,0.02l-0.036,0.021l-0.035,0.021l-0.034,0.022l-0.034,0.022l-0.033,0.023l-0.032,0.024l-0.032,0.024l-0.031,0.024l-0.031,0.026l-0.03,0.025l-0.029,0.026l-0.029,0.027l-0.027,0.027l-0.028,0.028l-0.026,0.028l-0.026,0.029l-0.026,0.029l-0.025,0.03l-0.024,0.03l-0.023,0.03l-0.023,0.031l-0.022,0.032l-0.021,0.032l-0.021,0.032l-0.02,0.033l-0.02,0.034l-0.019,0.034l-0.018,0.035l-0.017,0.035l-0.017,0.036l-0.016,0.036l-0.016,0.037l-0.014,0.037l-0.014,0.038l-0.014,0.039l-0.012,0.039l-0.026,0.087l-5.507,16.407l0,26.256l0.001,0.425l0.004,0.422l0.007,0.422l0.01,0.421l0.012,0.421l0.016,0.42l0.018,0.421l0.02,0.419l0.024,0.42l0.026,0.419l0.029,0.418l0.032,0.418l0.034,0.418l0.037,0.417l0.04,0.416l0.043,0.417l0.045,0.415l0.048,0.415l0.051,0.415l0.053,0.414l0.056,0.413l0.059,0.413l0.061,0.412l0.065,0.412l0.066,0.411l0.07,0.41l0.072,0.41l0.075,0.409l0.078,0.408l0.08,0.408l0.083,0.407l0.085,0.406l0.088,0.406l0.091,0.404l0.093,0.404l0.096,0.404l0.099,0.402l0.101,0.402l0.104,0.401l0.106,0.4l0.11,0.399l0.111,0.398l0.115,0.397l0.116,0.397l0.12,0.396l0.122,0.394l0.125,0.394l0.127,0.393l0.13,0.392l0.132,0.391l0.135,0.39l0.137,0.389l0.141,0.388l0.142,0.387l0.145,0.386l0.148,0.385l0.15,0.383l0.153,0.383l0.155,0.382l0.158,0.38l0.16,0.38l0.163,0.378l0.166,0.377l0.168,0.376l0.17,0.375l0.173,0.374l0.175,0.372l0.178,0.371l0.181,0.37l0.182,0.369l0.186,0.368l0.187,0.366l0.191,0.365l0.192,0.364l0.196,0.362l0.197,0.361l0.2,0.36l0.203,0.358l0.205,0.357l0.207,0.356l0.21,0.354l0.213,0.353l0.214,0.352l0.217,0.35l0.22,0.348l0.222,0.347l0.224,0.346l0.227,0.344l0.229,0.343l0.232,0.341l0.234,0.34l0.236,0.338l0.239,0.337l0.241,0.335l0.244,0.333l0.246,0.332l0.248,0.33l0.25,0.329l0.253,0.327l0.256,0.325l0.257,0.324l0.26,0.322l0.263,0.32l0.264,0.319l0.267,0.317l0.27,0.315l0.271,0.314l0.274,0.312l0.277,0.31l0.279,0.309l0.14,0.152l0.14,0.153l0.142,0.153l0.142,0.152l0.142,0.152l0.143,0.151l0.144,0.151l0.144,0.15l0.145,0.15l0.145,0.149l0.146,0.149l0.147,0.148l0.147,0.148l0.147,0.148l0.149,0.147l0.148,0.146l0.15,0.146l0.15,0.146l0.15,0.145l0.151,0.145l0.152,0.144l0.152,0.144l0.153,0.143l0.153,0.142l0.154,0.143l0.154,0.141l0.155,0.142l0.156,0.14l0.156,0.141l0.157,0.139l0.157,0.14l0.158,0.139l0.158,0.138l0.159,0.138l0.16,0.137l0.156,0.133l0.269,0.226l0.272,0.225l0.273,0.224l0.274,0.221l0.276,0.22l0.276,0.218l0.277,0.215l0.278,0.214l0.279,0.211l0.28,0.209l0.28,0.207l0.282,0.204l0.283,0.202l0.283,0.2l0.284,0.197l0.285,0.194l0.286,0.192l0.287,0.189l0.287,0.186l0.288,0.184l0.289,0.181l0.291,0.179l0.144,0.087l0.145,0.087l0.146,0.087l0.145,0.085l0.146,0.085l0.146,0.085l0.146,0.083l0.147,0.083l0.146,0.082l0.147,0.081l0.147,0.08l0.147,0.08l0.147,0.078l0.148,0.078l0.147,0.077l0.148,0.077l0.148,0.075l0.148,0.075l0.148,0.074l0.148,0.073l0.149,0.072l0.148,0.071l0.149,0.071l0.149,0.069l0.149,0.069l0.149,0.068l0.149,0.067l0.15,0.066l0.149,0.065l0.15,0.064l0.15,0.063l0.15,0.063l0.15,0.062l0.15,0.06l0.151,0.06l0.15,0.059l0.151,0.058l0.151,0.056l0.151,0.056l0.151,0.055l0.151,0.055l0.151,0.053l0.152,0.052l0.151,0.051l0.152,0.05l0.151,0.049l0.152,0.049l0.152,0.047l0.152,0.046l0.153,0.045l0.152,0.044l0.152,0.044l0.153,0.042l0.152,0.041l0.153,0.04l0.153,0.039l0.153,0.038l0.153,0.037l0.153,0.036l0.154,0.035l0.153,0.034l0.154,0.033l0.153,0.032l0.154,0.03l0.154,0.03l0.154,0.028l0.154,0.028l0.154,0.026l0.154,0.025l0.154,0.025l0.155,0.023l0.154,0.021l0.155,0.021l0.155,0.02l0.155,0.018l0.155,0.018l0.155,0.016l0.155,0.015l0.155,0.014l0.156,0.013l0.155,0.012l0.156,0.01l0.156,0.009l0.117,0.006l0.943,0l0.103,-0.007l0.157,-0.011l0.157,-0.013l0.156,-0.014l0.156,-0.015l0.156,-0.016l0.156,-0.018l0.156,-0.018l0.156,-0.019l0.156,-0.021l0.156,-0.021l0.155,-0.023l0.155,-0.023l0.155,-0.025l0.156,-0.026l0.155,-0.027l0.154,-0.027l0.155,-0.029l0.155,-0.03l0.154,-0.031l0.155,-0.032l0.154,-0.033l0.154,-0.034l0.154,-0.035l0.154,-0.036l0.154,-0.037l0.154,-0.038l0.153,-0.039l0.154,-0.039l0.153,-0.041l0.153,-0.042l0.153,-0.043l0.153,-0.044l0.153,-0.045l0.153,-0.045l0.152,-0.047l0.153,-0.048l0.152,-0.048l0.152,-0.05l0.152,-0.05l0.152,-0.052l0.152,-0.052l0.152,-0.053l0.151,-0.054l0.152,-0.056l0.151,-0.056l0.151,-0.056l0.151,-0.058l0.151,-0.059l0.15,-0.059l0.151,-0.061l0.15,-0.061l0.151,-0.063l0.15,-0.063l0.15,-0.064l0.15,-0.064l0.149,-0.066l0.15,-0.067l0.149,-0.067l0.15,-0.068l0.149,-0.069l0.149,-0.07l0.148,-0.071l0.149,-0.072l0.148,-0.072l0.149,-0.073l0.148,-0.074l0.148,-0.075l0.147,-0.076l0.148,-0.076l0.147,-0.077l0.148,-0.078l0.147,-0.079l0.147,-0.08l0.146,-0.08l0.147,-0.081l0.147,-0.082l0.146,-0.083l0.146,-0.083l0.146,-0.084l0.145,-0.085l0.146,-0.086l0.145,-0.086l0.144,-0.086l0.291,-0.177l0.289,-0.179l0.288,-0.182l0.287,-0.185l0.286,-0.187l0.286,-0.19l0.285,-0.193l0.284,-0.195l0.283,-0.198l0.282,-0.2l0.281,-0.203l0.281,-0.205l0.279,-0.208l0.279,-0.21l0.278,-0.212l0.276,-0.214l0.276,-0.217l0.275,-0.218l0.274,-0.221l0.272,-0.223l0.272,-0.225l0.272,-0.228l0.159,-0.134l0.159,-0.136l0.159,-0.136l0.158,-0.137l0.158,-0.138l0.157,-0.138l0.157,-0.138l0.156,-0.139l0.155,-0.14l0.155,-0.14l0.155,-0.14l0.153,-0.141l0.153,-0.142l0.153,-0.142l0.152,-0.142l0.152,-0.143l0.151,-0.144l0.15,-0.144l0.15,-0.144l0.149,-0.145l0.149,-0.146l0.148,-0.146l0.147,-0.146l0.147,-0.147l0.147,-0.148l0.146,-0.148l0.145,-0.148l0.145,-0.149l0.144,-0.15l0.143,-0.149l0.143,-0.151l0.143,-0.151l0.141,-0.151l0.142,-0.152l0.14,-0.152l0.14,-0.153l0.14,-0.153l0.139,-0.153l0.138,-0.154l0.138,-0.155l0.137,-0.155l0.137,-0.155l0.136,-0.156l0.136,-0.157l0.134,-0.156l0.135,-0.158l0.133,-0.157l0.134,-0.159l0.132,-0.158l0.132,-0.159l0.132,-0.16l0.129,-0.158l0.261,-0.323l0.258,-0.323l0.255,-0.324l0.253,-0.326l0.25,-0.328l0.249,-0.33l0.245,-0.331l0.244,-0.333l0.241,-0.335l0.239,-0.336l0.236,-0.338l0.234,-0.339l0.231,-0.341l0.229,-0.342l0.227,-0.344l0.224,-0.346l0.222,-0.347l0.22,-0.348l0.217,-0.351l0.215,-0.351l0.212,-0.353l0.21,-0.354l0.207,-0.356l0.205,-0.357l0.203,-0.359l0.2,-0.36l0.197,-0.362l0.196,-0.362l0.192,-0.364l0.191,-0.366l0.187,-0.367l0.186,-0.368l0.182,-0.369l0.181,-0.37l0.178,-0.372l0.175,-0.373l0.173,-0.375l0.17,-0.375l0.168,-0.377l0.166,-0.378l0.162,-0.379l0.161,-0.38l0.158,-0.381l0.155,-0.382l0.153,-0.384l0.15,-0.385l0.148,-0.385l0.145,-0.387l0.142,-0.388l0.141,-0.389l0.137,-0.39l0.135,-0.39l0.132,-0.392l0.13,-0.393l0.127,-0.394l0.125,-0.395l0.122,-0.395l0.12,-0.397l0.117,-0.397l0.114,-0.399l0.112,-0.399l0.109,-0.4l0.106,-0.401l0.104,-0.402l0.101,-0.402l0.099,-0.404l0.096,-0.404l0.093,-0.405l0.091,-0.405l0.088,-0.407l0.086,-0.407l0.083,-0.408l0.08,-0.408l0.077,-0.409l0.075,-0.41l0.072,-0.411l0.07,-0.411l0.067,-0.412l0.064,-0.412l0.061,-0.413l0.059,-0.414l0.056,-0.414l0.054,-0.414l0.05,-0.416l0.048,-0.415l0.046,-0.416l0.042,-0.417l0.04,-0.417l0.037,-0.418l0.035,-0.418l0.031,-0.418l0.029,-0.419l0.027,-0.42l0.023,-0.419l0.021,-0.42l0.018,-0.421l0.015,-0.421l0.013,-0.421l0.009,-0.421l0.007,-0.422l0.004,-0.422l0.002,-0.425l0,-26.256l-5.49,-16.355l-0.013,-0.036l-0.017,-0.044l-0.018,-0.042l-0.018,-0.043l-0.02,-0.042l-0.019,-0.041l-0.021,-0.041l-0.021,-0.039l-0.022,-0.04l-0.023,-0.039l-0.023,-0.038l-0.024,-0.038l-0.024,-0.037l-0.025,-0.036l-0.026,-0.036l-0.026,-0.035l-0.027,-0.035l-0.028,-0.034l-0.028,-0.033l-0.028,-0.033l-0.03,-0.033l-0.029,-0.031l-0.03,-0.031l-0.031,-0.03l-0.031,-0.03l-0.032,-0.029l-0.032,-0.028l-0.033,-0.028l-0.033,-0.027l-0.034,-0.026l-0.034,-0.026l-0.034,-0.025l-0.035,-0.024l-0.035,-0.024l-0.036,-0.022l-0.036,-0.023l-0.036,-0.021l-0.037,-0.021l-0.037,-0.02l-0.037,-0.019l-0.037,-0.018l-0.038,-0.018l-0.038,-0.017l-0.039,-0.016l-0.038,-0.016l-0.039,-0.015l-0.039,-0.014l-0.039,-0.013l-0.04,-0.012l-0.039,-0.012l-0.04,-0.011l-0.04,-0.01l-0.04,-0.009l-0.04,-0.009l-0.041,-0.007l-0.04,-0.007l-0.041,-0.006l-0.04,-0.006l-0.041,-0.004l-0.041,-0.004l-0.041,-0.003l-0.041,-0.002l-0.041,-0.001l-0.051,0l-65.995,0Z" style="fill:#275623;"/><path d="M196.658,118.429l0.15,0.025l0.148,0.039l0.143,0.051l0.139,0.064l0.132,0.075l0.125,0.087l0.118,0.097l0.108,0.107l0.099,0.116l0.088,0.125l0.077,0.131l0.133,0.253l0.135,0.26l0.133,0.262l0.131,0.263l0.13,0.266l0.127,0.267l0.126,0.268l0.123,0.27l0.122,0.272l0.12,0.273l0.118,0.276l0.116,0.276l0.115,0.279l0.112,0.28l0.11,0.282l0.108,0.283l0.107,0.286l0.104,0.286l0.102,0.289l0.101,0.29l0.098,0.292l0.096,0.294l0.094,0.296l0.092,0.297l0.09,0.299l0.088,0.3l0.086,0.303l0.084,0.304l0.081,0.306l0.08,0.308l0.077,0.309l0.075,0.311l0.074,0.313l0.07,0.315l0.069,0.317l0.067,0.318l0.064,0.32l0.062,0.322l0.06,0.324l0.057,0.325l0.056,0.328l0.053,0.329l0.051,0.331l0.048,0.333l0.047,0.334l0.044,0.337l0.041,0.338l0.04,0.34l0.037,0.343l0.035,0.343l0.032,0.346l0.03,0.348l0.028,0.35l0.025,0.351l0.023,0.353l0.021,0.356l0.018,0.357l0.016,0.359l0.013,0.361l0.011,0.363l0.009,0.365l0.006,0.367l0.004,0.369l0.001,0.439l-1.287,15.675l-0.019,0.151l-0.032,0.149l-0.045,0.146l-0.057,0.141l-0.07,0.135l-0.081,0.129l-0.092,0.122l-0.103,0.112l-0.111,0.104l-0.121,0.093l-0.128,0.083l-0.135,0.071l-0.14,0.059l-0.145,0.047l-0.149,0.033l-0.151,0.021l-0.152,0.008l-0.152,-0.006l-0.151,-0.019l-0.149,-0.033l-0.146,-0.045l-0.141,-0.057l-0.135,-0.07l-0.129,-0.081l-0.121,-0.092l-0.113,-0.102l-0.104,-0.112l-0.093,-0.12l-0.083,-0.128l-0.071,-0.135l-0.059,-0.141l-0.046,-0.145l-0.034,-0.148l-0.021,-0.151l-0.007,-0.152l0.005,-0.153l1.275,-15.526l-0.001,-0.279l-0.003,-0.345l-0.006,-0.344l-0.008,-0.341l-0.01,-0.339l-0.013,-0.337l-0.015,-0.335l-0.017,-0.333l-0.019,-0.331l-0.021,-0.329l-0.024,-0.327l-0.026,-0.324l-0.028,-0.323l-0.03,-0.321l-0.032,-0.319l-0.034,-0.316l-0.037,-0.315l-0.038,-0.313l-0.041,-0.311l-0.043,-0.309l-0.044,-0.307l-0.047,-0.305l-0.049,-0.303l-0.051,-0.301l-0.053,-0.299l-0.055,-0.298l-0.057,-0.296l-0.059,-0.293l-0.061,-0.292l-0.063,-0.29l-0.065,-0.288l-0.067,-0.287l-0.069,-0.284l-0.07,-0.283l-0.073,-0.281l-0.074,-0.279l-0.077,-0.278l-0.078,-0.276l-0.08,-0.274l-0.082,-0.272l-0.084,-0.27l-0.085,-0.269l-0.088,-0.267l-0.089,-0.266l-0.091,-0.263l-0.093,-0.262l-0.095,-0.261l-0.096,-0.259l-0.099,-0.257l-0.1,-0.255l-0.101,-0.254l-0.104,-0.252l-0.105,-0.251l-0.107,-0.249l-0.108,-0.248l-0.111,-0.246l-0.112,-0.244l-0.113,-0.243l-0.116,-0.242l-0.117,-0.24l-0.119,-0.238l-0.12,-0.237l-0.122,-0.236l-0.127,-0.24l-0.065,-0.137l-0.053,-0.143l-0.04,-0.147l-0.028,-0.15l-0.014,-0.152l-0.001,-0.152l0.013,-0.152l0.025,-0.15l0.039,-0.148l0.051,-0.143l0.064,-0.138l0.075,-0.133l0.087,-0.125l0.097,-0.117l0.107,-0.109l0.116,-0.098l0.124,-0.089l0.132,-0.077l0.138,-0.065l0.142,-0.053l0.147,-0.04l0.15,-0.027l0.152,-0.015l0.152,0l0.152,0.012Z" style="fill:#275623;"/><path d="M157.767,99.212l0.295,0.007l0.294,0.008l0.294,0.009l0.293,0.011l0.293,0.011l0.292,0.013l0.292,0.013l0.291,0.015l0.291,0.015l0.29,0.017l0.29,0.018l0.289,0.019l0.288,0.02l0.289,0.021l0.287,0.022l0.287,0.023l0.286,0.025l0.286,0.025l0.286,0.027l0.284,0.027l0.284,0.029l0.284,0.03l0.283,0.031l0.282,0.032l0.282,0.034l0.281,0.034l0.281,0.035l0.279,0.037l0.28,0.038l0.278,0.039l0.278,0.04l0.278,0.041l0.277,0.043l0.276,0.043l0.275,0.045l0.275,0.046l0.274,0.047l0.273,0.048l0.273,0.049l0.272,0.051l0.272,0.052l0.27,0.053l0.27,0.054l0.27,0.055l0.268,0.057l0.268,0.057l0.268,0.059l0.266,0.06l0.266,0.062l0.265,0.062l0.264,0.064l0.264,0.065l0.262,0.066l0.263,0.067l0.261,0.069l0.26,0.07l0.26,0.071l0.259,0.072l0.258,0.074l0.258,0.075l0.256,0.076l0.256,0.077l0.214,0.066l0.067,0.018l0.119,0.033l0.115,0.034l0.115,0.035l0.21,0.068l0.392,0.13l0.176,0.057l0.075,0.023l0.071,0.021l0.064,0.018l0.073,0.019l0.193,0.063l0.185,0.084l0.173,0.106l0.16,0.125l0.145,0.143l0.127,0.158l0.108,0.172l0.087,0.184l0.065,0.192l0.042,0.199l0.019,0.202l-0.005,0.203l-0.028,0.201l-0.051,0.197l-0.074,0.189l-0.095,0.179l-0.115,0.167l-0.134,0.153l-0.151,0.136l-0.166,0.117l-0.178,0.098l-0.188,0.076l-0.196,0.054l-0.201,0.031l-0.203,0.007l-0.202,-0.017l-0.199,-0.039l-0.104,-0.028l-0.119,-0.033l-0.115,-0.034l-0.114,-0.035l-0.211,-0.068l-0.203,-0.068l-0.189,-0.062l-0.176,-0.057l-0.075,-0.023l-0.071,-0.021l-0.063,-0.018l-0.111,-0.029l-0.277,-0.085l-0.238,-0.072l-0.239,-0.071l-0.24,-0.07l-0.24,-0.068l-0.242,-0.068l-0.242,-0.066l-0.243,-0.065l-0.244,-0.064l-0.245,-0.063l-0.246,-0.062l-0.246,-0.061l-0.247,-0.059l-0.249,-0.059l-0.249,-0.057l-0.249,-0.057l-0.251,-0.055l-0.252,-0.054l-0.252,-0.053l-0.253,-0.052l-0.254,-0.051l-0.254,-0.05l-0.256,-0.049l-0.256,-0.047l-0.257,-0.047l-0.258,-0.045l-0.258,-0.044l-0.259,-0.044l-0.26,-0.042l-0.261,-0.041l-0.262,-0.04l-0.262,-0.039l-0.263,-0.038l-0.263,-0.037l-0.265,-0.036l-0.265,-0.034l-0.266,-0.034l-0.266,-0.033l-0.267,-0.031l-0.268,-0.031l-0.269,-0.029l-0.269,-0.029l-0.27,-0.027l-0.27,-0.026l-0.272,-0.026l-0.272,-0.024l-0.272,-0.023l-0.273,-0.022l-0.274,-0.021l-0.275,-0.02l-0.275,-0.019l-0.275,-0.018l-0.277,-0.017l-0.277,-0.016l-0.277,-0.015l-0.278,-0.014l-0.279,-0.013l-0.279,-0.012l-0.28,-0.011l-0.281,-0.01l-0.281,-0.009l-0.281,-0.007l-0.283,-0.007l-0.267,-0.006l-0.546,0l-0.259,0.006l-0.274,0.006l-0.274,0.008l-0.273,0.009l-0.273,0.01l-0.272,0.01l-0.272,0.012l-0.272,0.013l-0.271,0.013l-0.27,0.015l-0.27,0.015l-0.269,0.017l-0.269,0.018l-0.268,0.018l-0.268,0.02l-0.268,0.02l-0.266,0.022l-0.267,0.022l-0.265,0.024l-0.265,0.024l-0.265,0.025l-0.264,0.027l-0.263,0.027l-0.263,0.029l-0.263,0.029l-0.261,0.031l-0.262,0.031l-0.26,0.033l-0.26,0.033l-0.259,0.035l-0.259,0.035l-0.258,0.037l-0.258,0.037l-0.257,0.038l-0.256,0.04l-0.256,0.04l-0.254,0.042l-0.255,0.043l-0.253,0.043l-0.253,0.045l-0.253,0.045l-0.252,0.047l-0.251,0.047l-0.25,0.049l-0.249,0.05l-0.249,0.05l-0.249,0.052l-0.247,0.053l-0.247,0.054l-0.246,0.054l-0.246,0.056l-0.244,0.057l-0.244,0.058l-0.243,0.059l-0.243,0.06l-0.242,0.061l-0.241,0.062l-0.24,0.063l-0.239,0.064l-0.239,0.065l-0.238,0.066l-0.237,0.067l-0.237,0.068l-0.235,0.069l-0.235,0.071l-0.234,0.071l-0.233,0.072l-0.232,0.074l-0.232,0.074l-0.231,0.076l-0.23,0.076l-0.229,0.078l-0.228,0.078l-0.228,0.08l-0.226,0.081l-0.226,0.082l-0.225,0.082l-0.224,0.084l-0.223,0.085l-0.222,0.086l-0.222,0.087l-0.22,0.088l-0.22,0.089l-0.219,0.091l-0.218,0.091l-0.217,0.092l-0.216,0.093l-0.215,0.095l-0.214,0.095l-0.214,0.097l-0.212,0.098l-0.212,0.098l-0.21,0.1l-0.21,0.101l-0.209,0.102l-0.207,0.103l-0.207,0.103l-0.206,0.106l-0.205,0.106l-0.204,0.107l-0.203,0.108l-0.202,0.11l-0.201,0.11l-0.2,0.111l-0.199,0.113l-0.198,0.114l-0.197,0.114l-0.196,0.116l-0.195,0.117l-0.194,0.118l-0.193,0.119l-0.192,0.12l-0.191,0.121l-0.19,0.123l-0.189,0.123l-0.188,0.124l-0.187,0.126l-0.186,0.127l-0.185,0.127l-0.184,0.129l-0.183,0.13l-0.181,0.131l-0.181,0.132l-0.179,0.133l-0.179,0.135l-0.177,0.135l-0.177,0.137l-0.175,0.137l-0.174,0.139l-0.173,0.14l-0.172,0.141l-0.171,0.142l-0.17,0.143l-0.169,0.144l-0.167,0.146l-0.167,0.146l-0.165,0.148l-0.164,0.148l-0.164,0.15l-0.162,0.151l-0.16,0.152l-0.16,0.154l-0.159,0.154l-0.157,0.156l-0.157,0.156l-0.155,0.158l-0.154,0.159l-0.153,0.16l-0.152,0.161l-0.15,0.163l-0.15,0.163l-0.148,0.165l-0.147,0.166l-0.146,0.166l-0.145,0.169l-0.143,0.169l-0.143,0.17l-0.141,0.172l-0.14,0.173l-0.139,0.174l-0.137,0.175l-0.136,0.176l-0.136,0.178l-0.134,0.178l-0.132,0.18l-0.132,0.181l-0.13,0.183l-0.129,0.183l-0.128,0.185l-0.127,0.186l-0.125,0.187l-0.124,0.188l-0.123,0.19l-0.122,0.19l-0.12,0.192l-0.119,0.193l-0.118,0.195l-0.116,0.195l-0.116,0.197l-0.114,0.198l-0.112,0.2l-0.112,0.2l-0.11,0.202l-0.109,0.203l-0.107,0.205l-0.106,0.205l-0.105,0.207l-0.104,0.208l-0.102,0.21l-0.101,0.21l-0.1,0.212l-0.098,0.213l-0.097,0.215l-0.095,0.216l-0.095,0.217l-0.093,0.218l-0.091,0.22l-0.09,0.221l-0.089,0.222l-0.087,0.224l-0.086,0.225l-0.085,0.226l-0.083,0.227l-0.082,0.229l-0.081,0.23l-0.079,0.232l-0.077,0.233l-0.076,0.234l-0.075,0.235l-0.073,0.237l-0.072,0.239l-0.071,0.239l-0.069,0.241l-0.067,0.242l-0.066,0.244l-0.065,0.245l-0.063,0.246l-0.062,0.248l-0.06,0.249l-0.059,0.251l-0.057,0.251l-0.056,0.254l-0.054,0.254l-0.052,0.256l-0.051,0.258l-0.05,0.258l-0.048,0.261l-0.047,0.261l-0.045,0.263l-0.043,0.265l-0.042,0.265l-0.04,0.268l-0.039,0.268l-0.037,0.27l-0.036,0.272l-0.034,0.272l-0.032,0.275l-0.031,0.275l-0.029,0.278l-0.028,0.278l-0.026,0.28l-0.024,0.282l-0.023,0.282l-0.021,0.285l-0.019,0.285l-0.018,0.288l-0.016,0.288l-0.014,0.29l-0.013,0.292l-0.011,0.293l-0.01,0.294l-0.007,0.296l-0.006,0.298l-0.005,0.298l-0.002,0.301l-0.001,0.232l1.275,15.527l0.005,0.203l-0.019,0.203l-0.042,0.198l-0.065,0.193l-0.087,0.183l-0.108,0.173l-0.126,0.158l-0.145,0.143l-0.16,0.125l-0.173,0.106l-0.185,0.085l-0.193,0.062l-0.199,0.04l-0.202,0.017l-0.203,-0.007l-0.201,-0.03l-0.196,-0.054l-0.188,-0.076l-0.178,-0.097l-0.166,-0.118l-0.151,-0.136l-0.134,-0.152l-0.116,-0.167l-0.095,-0.179l-0.074,-0.189l-0.052,-0.197l-0.028,-0.201l-1.287,-15.674l0.001,-0.391l0.003,-0.321l0.005,-0.319l0.006,-0.317l0.008,-0.317l0.01,-0.315l0.012,-0.313l0.014,-0.313l0.015,-0.311l0.017,-0.309l0.019,-0.308l0.021,-0.307l0.023,-0.306l0.024,-0.304l0.027,-0.303l0.027,-0.302l0.03,-0.3l0.032,-0.299l0.033,-0.298l0.035,-0.296l0.037,-0.295l0.038,-0.294l0.04,-0.292l0.042,-0.291l0.044,-0.29l0.046,-0.288l0.047,-0.287l0.049,-0.286l0.05,-0.285l0.052,-0.283l0.054,-0.281l0.056,-0.281l0.058,-0.279l0.059,-0.278l0.061,-0.276l0.062,-0.276l0.064,-0.273l0.066,-0.273l0.067,-0.271l0.07,-0.27l0.07,-0.269l0.073,-0.267l0.074,-0.266l0.076,-0.264l0.077,-0.264l0.079,-0.262l0.081,-0.26l0.082,-0.26l0.084,-0.258l0.086,-0.256l0.087,-0.256l0.089,-0.254l0.09,-0.253l0.092,-0.251l0.094,-0.25l0.095,-0.249l0.097,-0.247l0.098,-0.247l0.1,-0.244l0.101,-0.244l0.103,-0.242l0.105,-0.241l0.106,-0.239l0.108,-0.239l0.109,-0.237l0.11,-0.235l0.113,-0.234l0.113,-0.233l0.116,-0.232l0.117,-0.23l0.118,-0.229l0.12,-0.228l0.121,-0.226l0.123,-0.225l0.124,-0.224l0.126,-0.222l0.127,-0.221l0.128,-0.22l0.13,-0.218l0.132,-0.217l0.133,-0.216l0.134,-0.214l0.136,-0.213l0.137,-0.212l0.139,-0.21l0.14,-0.209l0.142,-0.208l0.142,-0.207l0.145,-0.205l0.145,-0.203l0.147,-0.203l0.149,-0.201l0.15,-0.2l0.151,-0.198l0.152,-0.197l0.154,-0.196l0.155,-0.195l0.156,-0.193l0.158,-0.192l0.159,-0.19l0.161,-0.189l0.161,-0.188l0.164,-0.187l0.164,-0.185l0.165,-0.184l0.167,-0.182l0.168,-0.181l0.17,-0.18l0.17,-0.179l0.172,-0.177l0.173,-0.176l0.175,-0.175l0.175,-0.173l0.177,-0.172l0.178,-0.171l0.179,-0.169l0.181,-0.168l0.181,-0.167l0.183,-0.166l0.184,-0.164l0.185,-0.163l0.186,-0.161l0.188,-0.161l0.188,-0.159l0.19,-0.157l0.191,-0.157l0.192,-0.155l0.193,-0.153l0.194,-0.153l0.195,-0.151l0.197,-0.15l0.197,-0.149l0.199,-0.147l0.199,-0.146l0.201,-0.145l0.202,-0.143l0.203,-0.142l0.204,-0.141l0.205,-0.14l0.206,-0.138l0.207,-0.137l0.208,-0.136l0.209,-0.135l0.21,-0.133l0.211,-0.132l0.212,-0.131l0.213,-0.129l0.214,-0.129l0.215,-0.127l0.216,-0.125l0.217,-0.125l0.218,-0.123l0.219,-0.122l0.22,-0.121l0.221,-0.119l0.222,-0.119l0.222,-0.117l0.224,-0.116l0.225,-0.114l0.225,-0.114l0.226,-0.112l0.228,-0.111l0.228,-0.109l0.229,-0.109l0.23,-0.107l0.23,-0.106l0.232,-0.105l0.232,-0.103l0.234,-0.103l0.234,-0.101l0.235,-0.1l0.236,-0.099l0.237,-0.097l0.237,-0.097l0.239,-0.095l0.239,-0.094l0.24,-0.093l0.241,-0.091l0.241,-0.091l0.243,-0.089l0.243,-0.088l0.244,-0.087l0.245,-0.086l0.245,-0.085l0.247,-0.083l0.247,-0.082l0.248,-0.081l0.248,-0.08l0.249,-0.079l0.25,-0.077l0.251,-0.077l0.252,-0.075l0.252,-0.074l0.253,-0.073l0.254,-0.072l0.254,-0.071l0.255,-0.069l0.256,-0.069l0.256,-0.067l0.257,-0.066l0.258,-0.065l0.259,-0.064l0.259,-0.063l0.26,-0.061l0.26,-0.061l0.261,-0.059l0.262,-0.058l0.262,-0.058l0.263,-0.056l0.264,-0.055l0.264,-0.053l0.265,-0.053l0.266,-0.052l0.266,-0.05l0.267,-0.049l0.267,-0.049l0.268,-0.047l0.269,-0.046l0.269,-0.045l0.269,-0.044l0.271,-0.043l0.271,-0.042l0.271,-0.04l0.272,-0.04l0.272,-0.038l0.273,-0.038l0.274,-0.036l0.274,-0.035l0.275,-0.035l0.275,-0.033l0.276,-0.032l0.276,-0.031l0.277,-0.03l0.277,-0.029l0.278,-0.027l0.278,-0.027l0.279,-0.026l0.279,-0.025l0.279,-0.023l0.281,-0.023l0.28,-0.021l0.281,-0.021l0.282,-0.019l0.282,-0.019l0.282,-0.017l0.283,-0.016l0.284,-0.016l0.283,-0.014l0.285,-0.013l0.284,-0.012l0.285,-0.012l0.286,-0.01l0.286,-0.009l0.286,-0.008l0.287,-0.007l0.302,-0.007l0.619,0l0.31,0.007Z" style="fill:#275623;"/><path d="M114.129,170.806c-2.91,-0.582 -5.588,-2.911 -6.752,-6.287c-1.747,-4.773 0.232,-9.78 4.424,-11.293c1.048,-0.349 1.862,-0.233 2.91,-0.117" style="fill:none;stroke:#275623;stroke-width:3.49px;"/><path d="M145.447,159.746l-18.511,0c-1.397,0 -2.445,-0.699 -2.562,-1.514l-2.212,-15.368c-0.116,-0.931 1.048,-1.746 2.562,-1.746l22.935,0c1.514,0 2.794,0.815 2.561,1.746l-2.212,15.368c-0.116,0.815 -1.164,1.514 -2.561,1.514Z" style="fill:none;stroke:#275623;stroke-width:3.49px;"/><path d="M143.351,136.228l-15.135,0" style="fill:none;stroke:#275623;stroke-width:3.49px;"/><path d="M185.264,136.228l-13.971,0" style="fill:none;stroke:#275623;stroke-width:3.49px;"/><path d="M154.645,168.245l-0.583,2.561" style="fill:none;stroke:#275623;stroke-width:3.49px;"/><path d="M143.817,153.109c-1.048,-2.561 -3.958,-4.307 -7.451,-4.307c-3.26,0 -6.054,1.63 -7.218,3.958" style="fill:none;stroke:#275623;stroke-width:3.49px;"/><circle cx="141.139" cy="151.48" r="2.561" style="fill:#275623;"/><path d="M157.341,180.652l0.146,0.002l0.146,0.005l0.147,0.006l0.147,0.009l0.147,0.011l0.148,0.014l0.147,0.015l0.149,0.018l0.148,0.02l0.148,0.022l0.149,0.024l0.149,0.027l0.149,0.028l0.149,0.031l0.15,0.034l0.149,0.035l0.146,0.037l0.103,0.028l0.104,0.028l0.103,0.03l0.102,0.031l0.102,0.032l0.101,0.033l0.101,0.034l0.1,0.036l0.1,0.036l0.099,0.038l0.098,0.038l0.098,0.04l0.097,0.041l0.097,0.041l0.096,0.043l0.095,0.044l0.095,0.045l0.094,0.046l0.094,0.046l0.093,0.048l0.092,0.049l0.092,0.05l0.091,0.051l0.09,0.051l0.089,0.053l0.089,0.053l0.088,0.055l0.088,0.055l0.087,0.057l0.086,0.057l0.085,0.058l0.085,0.059l0.084,0.06l0.083,0.06l0.082,0.062l0.082,0.062l0.081,0.064l0.08,0.064l0.08,0.065l0.079,0.065l0.078,0.067l0.077,0.067l0.077,0.068l0.075,0.069l0.075,0.07l0.074,0.07l0.074,0.071l0.073,0.072l0.071,0.073l0.071,0.073l0.071,0.074l0.069,0.075l0.068,0.075l0.068,0.077l0.067,0.077l0.066,0.077l0.066,0.078l0.064,0.079l0.064,0.08l0.063,0.08l0.061,0.081l0.062,0.081l0.06,0.082l0.059,0.083l0.059,0.083l0.057,0.084l0.057,0.085l0.056,0.085l0.055,0.086l0.054,0.086l0.053,0.087l0.053,0.087l0.051,0.088l0.051,0.089l0.049,0.089l0.049,0.089l0.048,0.09l0.047,0.091l0.046,0.091l0.045,0.092l0.044,0.092l0.043,0.092l0.042,0.093l0.041,0.094l0.04,0.094l0.04,0.095l0.038,0.094l0.037,0.096l0.037,0.096l0.035,0.096l0.035,0.097l0.033,0.097l0.032,0.097l0.032,0.098l0.03,0.098l0.03,0.099l0.028,0.099l0.027,0.1l0.027,0.099l0.025,0.1l0.024,0.101l0.023,0.101l0.022,0.101l0.021,0.101l0.02,0.102l0.019,0.102l0.018,0.103l0.017,0.102l0.016,0.103l0.014,0.103l0.014,0.104l0.012,0.104l0.011,0.104l0.01,0.104l0.009,0.104l0.008,0.105l0.007,0.105l0.006,0.105l0.004,0.105l0.003,0.106l0.003,0.106l0.001,0.106l-0.001,0.106l-0.001,0.106l-0.002,0.106l-0.004,0.106l-0.005,0.107l-0.005,0.097l-0.01,0.105l-0.015,0.105l-0.022,0.103l-0.028,0.101l-0.034,0.1l-0.04,0.098l-0.046,0.095l-0.051,0.092l-0.057,0.089l-0.063,0.085l-0.067,0.081l-0.072,0.077l-0.076,0.073l-0.081,0.068l-0.085,0.062l-0.088,0.058l-0.092,0.052l-0.095,0.047l-0.097,0.04l-0.1,0.035l-0.101,0.029l-0.103,0.022l-0.104,0.017l-0.105,0.009l-0.106,0.004l-0.105,-0.003l-0.105,-0.009l-0.105,-0.016l-0.103,-0.021l-0.102,-0.028l-0.1,-0.034l-0.097,-0.04l-0.095,-0.046l-0.092,-0.052l-0.089,-0.057l-0.085,-0.062l-0.081,-0.067l-0.078,-0.072l-0.072,-0.077l-0.068,-0.081l-0.063,-0.084l-0.057,-0.089l-0.052,-0.091l-0.047,-0.095l-0.041,-0.097l-0.034,-0.1l-0.029,-0.102l-0.023,-0.103l-0.016,-0.104l-0.01,-0.105l-0.003,-0.105l0.003,-0.106l0.004,-0.077l0.003,-0.068l0.002,-0.068l0.002,-0.067l0.001,-0.068l0,-0.068l-0.001,-0.067l-0.001,-0.067l-0.002,-0.067l-0.003,-0.068l-0.004,-0.067l-0.004,-0.066l-0.005,-0.067l-0.006,-0.067l-0.006,-0.066l-0.007,-0.067l-0.008,-0.066l-0.009,-0.066l-0.009,-0.066l-0.01,-0.066l-0.011,-0.065l-0.011,-0.066l-0.012,-0.065l-0.013,-0.065l-0.014,-0.065l-0.014,-0.065l-0.015,-0.065l-0.015,-0.064l-0.017,-0.065l-0.016,-0.064l-0.018,-0.063l-0.018,-0.064l-0.019,-0.063l-0.02,-0.063l-0.02,-0.063l-0.021,-0.063l-0.021,-0.063l-0.022,-0.062l-0.023,-0.062l-0.023,-0.061l-0.024,-0.062l-0.025,-0.061l-0.025,-0.061l-0.026,-0.06l-0.027,-0.061l-0.027,-0.06l-0.028,-0.059l-0.028,-0.06l-0.029,-0.059l-0.03,-0.059l-0.03,-0.058l-0.031,-0.058l-0.031,-0.058l-0.032,-0.057l-0.033,-0.057l-0.033,-0.057l-0.034,-0.056l-0.034,-0.056l-0.035,-0.056l-0.035,-0.055l-0.036,-0.055l-0.037,-0.054l-0.037,-0.054l-0.038,-0.054l-0.038,-0.053l-0.039,-0.053l-0.039,-0.052l-0.04,-0.052l-0.04,-0.052l-0.041,-0.051l-0.041,-0.05l-0.042,-0.051l-0.043,-0.049l-0.042,-0.049l-0.044,-0.049l-0.044,-0.049l-0.044,-0.047l-0.045,-0.048l-0.045,-0.047l-0.046,-0.046l-0.046,-0.046l-0.047,-0.045l-0.047,-0.045l-0.048,-0.044l-0.048,-0.044l-0.049,-0.043l-0.049,-0.043l-0.05,-0.042l-0.049,-0.042l-0.051,-0.041l-0.051,-0.041l-0.051,-0.04l-0.052,-0.039l-0.052,-0.039l-0.052,-0.038l-0.053,-0.038l-0.054,-0.037l-0.053,-0.037l-0.054,-0.036l-0.055,-0.035l-0.055,-0.035l-0.055,-0.034l-0.056,-0.034l-0.056,-0.033l-0.057,-0.032l-0.057,-0.032l-0.057,-0.031l-0.058,-0.031l-0.058,-0.029l-0.058,-0.03l-0.059,-0.028l-0.059,-0.028l-0.059,-0.028l-0.06,-0.026l-0.061,-0.026l-0.06,-0.026l-0.061,-0.024l-0.061,-0.024l-0.062,-0.024l-0.062,-0.022l-0.062,-0.022l-0.063,-0.022l-0.063,-0.02l-0.063,-0.02l-0.064,-0.02l-0.064,-0.018l-0.065,-0.018l-0.066,-0.017l-0.104,-0.027l-0.101,-0.024l-0.101,-0.022l-0.1,-0.021l-0.1,-0.019l-0.099,-0.018l-0.099,-0.016l-0.099,-0.015l-0.098,-0.013l-0.098,-0.012l-0.097,-0.01l-0.097,-0.009l-0.097,-0.007l-0.096,-0.006l-0.096,-0.004l-0.095,-0.003l-0.095,-0.002l-0.094,0l-0.094,0.001l-0.094,0.003l-0.093,0.004l-0.093,0.005l-0.092,0.006l-0.092,0.008l-0.091,0.009l-0.091,0.011l-0.091,0.012l-0.09,0.013l-0.089,0.014l-0.089,0.015l-0.089,0.017l-0.088,0.018l-0.087,0.02l-0.087,0.02l-0.087,0.022l-0.086,0.022l-0.085,0.025l-0.085,0.025l-0.085,0.026l-0.084,0.028l-0.083,0.028l-0.083,0.03l-0.082,0.031l-0.082,0.032l-0.081,0.034l-0.081,0.034l-0.08,0.035l-0.079,0.037l-0.079,0.037l-0.078,0.039l-0.077,0.04l-0.077,0.041l-0.076,0.041l-0.076,0.043l-0.075,0.044l-0.074,0.045l-0.074,0.046l-0.073,0.047l-0.072,0.048l-0.071,0.049l-0.071,0.05l-0.07,0.051l-0.069,0.052l-0.069,0.052l-0.067,0.054l-0.067,0.055l-0.067,0.055l-0.065,0.057l-0.065,0.057l-0.063,0.058l-0.063,0.059l-0.063,0.06l-0.061,0.061l-0.06,0.062l-0.06,0.062l-0.059,0.064l-0.058,0.064l-0.057,0.065l-0.056,0.066l-0.055,0.066l-0.054,0.068l-0.053,0.068l-0.053,0.069l-0.051,0.069l-0.051,0.07l-0.049,0.072l-0.049,0.071l-0.047,0.073l-0.047,0.073l-0.046,0.074l-0.044,0.075l-0.044,0.075l-0.042,0.076l-0.042,0.076l-0.04,0.078l-0.039,0.077l-0.039,0.079l-0.037,0.079l-0.036,0.08l-0.035,0.08l-0.034,0.081l-0.033,0.081l-0.031,0.083l-0.031,0.082l-0.029,0.083l-0.029,0.084l-0.027,0.084l-0.026,0.085l-0.025,0.086l-0.023,0.086l-0.023,0.086l-0.021,0.087l-0.02,0.087l-0.019,0.088l-0.017,0.089l-0.017,0.089l-0.015,0.089l-0.014,0.09l-0.012,0.09l-0.011,0.091l-0.01,0.091l-0.009,0.092l-0.008,0.092l-0.006,0.093l-0.004,0.093l-0.004,0.094l-0.002,0.094l-0.001,0.107l-0.004,0.105l-0.01,0.105l-0.017,0.104l-0.022,0.103l-0.03,0.102l-0.035,0.099l-0.041,0.097l-0.047,0.095l-0.052,0.091l-0.058,0.088l-0.063,0.085l-0.068,0.08l-0.073,0.077l-0.077,0.072l-0.082,0.066l-0.085,0.062l-0.089,0.057l-0.093,0.051l-0.095,0.046l-0.098,0.039l-0.1,0.034l-0.101,0.028l-0.104,0.021l-0.104,0.015l-0.105,0.009l-0.106,0.002l-0.105,-0.004l-0.105,-0.01l-0.104,-0.017l-0.103,-0.023l-0.102,-0.029l-0.099,-0.035l-0.097,-0.041l-0.095,-0.047l-0.091,-0.052l-0.088,-0.058l-0.085,-0.063l-0.08,-0.068l-0.077,-0.073l-0.072,-0.078l-0.066,-0.081l-0.062,-0.085l-0.057,-0.089l-0.051,-0.093l-0.046,-0.095l-0.039,-0.098l-0.034,-0.1l-0.028,-0.101l-0.021,-0.104l-0.015,-0.104l-0.009,-0.105l-0.002,-0.106l0.001,-0.132l0.003,-0.145l0.005,-0.145l0.007,-0.143l0.01,-0.144l0.011,-0.143l0.014,-0.142l0.015,-0.142l0.018,-0.141l0.02,-0.141l0.021,-0.14l0.024,-0.139l0.025,-0.139l0.028,-0.138l0.029,-0.137l0.031,-0.136l0.033,-0.136l0.035,-0.135l0.037,-0.135l0.039,-0.133l0.041,-0.133l0.042,-0.132l0.045,-0.131l0.046,-0.13l0.048,-0.13l0.049,-0.128l0.052,-0.128l0.053,-0.127l0.055,-0.125l0.056,-0.125l0.058,-0.124l0.06,-0.123l0.062,-0.122l0.063,-0.121l0.065,-0.12l0.067,-0.118l0.068,-0.118l0.069,-0.117l0.072,-0.115l0.073,-0.115l0.074,-0.113l0.076,-0.113l0.077,-0.111l0.079,-0.11l0.081,-0.109l0.081,-0.107l0.084,-0.107l0.084,-0.105l0.087,-0.104l0.087,-0.103l0.089,-0.101l0.091,-0.1l0.091,-0.099l0.093,-0.098l0.095,-0.096l0.096,-0.095l0.097,-0.094l0.098,-0.092l0.1,-0.091l0.101,-0.09l0.102,-0.088l0.103,-0.087l0.105,-0.085l0.106,-0.084l0.107,-0.083l0.108,-0.081l0.11,-0.079l0.111,-0.078l0.111,-0.077l0.113,-0.075l0.114,-0.073l0.115,-0.072l0.116,-0.07l0.118,-0.069l0.118,-0.067l0.12,-0.066l0.12,-0.064l0.121,-0.062l0.123,-0.061l0.123,-0.059l0.125,-0.057l0.125,-0.055l0.126,-0.054l0.127,-0.052l0.128,-0.051l0.129,-0.048l0.13,-0.047l0.131,-0.045l0.132,-0.043l0.132,-0.042l0.133,-0.039l0.134,-0.038l0.135,-0.036l0.135,-0.033l0.137,-0.032l0.137,-0.031l0.137,-0.028l0.138,-0.026l0.14,-0.024l0.139,-0.022l0.14,-0.021l0.141,-0.018l0.142,-0.016l0.142,-0.015l0.142,-0.012l0.143,-0.01l0.144,-0.008l0.144,-0.006l0.145,-0.004l0.145,-0.002l0.145,0.001Z" style="fill:#275623;"/></g><g><path d="M55.801,260.452l-20.723,0c-1.747,0 -3.26,-1.397 -3.26,-3.26c0,-1.746 1.397,-3.26 3.26,-3.26l20.723,0c1.746,0 3.26,1.397 3.26,3.26c-0.116,1.863 -1.514,3.26 -3.26,3.26Z" style="fill:none;stroke:#275623;stroke-width:3.49px;"/><path d="M56.732,266.972l-20.606,0c-1.747,0 -3.26,-1.398 -3.26,-3.26c0,-1.747 1.397,-3.26 3.26,-3.26l20.723,0c1.746,0 3.26,1.397 3.26,3.26c-0.117,1.746 -1.514,3.26 -3.377,3.26Z" style="fill:none;stroke:#275623;stroke-width:3.49px;"/><path d="M58.246,273.375l-20.723,0c-1.747,0 -3.26,-1.397 -3.26,-3.26c0,-1.746 1.397,-3.26 3.26,-3.26l20.723,0c1.746,0 3.26,1.397 3.26,3.26c-0.117,1.746 -1.514,3.26 -3.26,3.26Z" style="fill:none;stroke:#275623;stroke-width:3.49px;"/><path d="M54.52,280.477l-12.457,0c-1.746,0 -3.26,-1.397 -3.26,-3.26c0,-1.747 1.397,-3.26 3.26,-3.26l12.457,0c1.747,0 3.26,1.397 3.26,3.26c-0.116,1.863 -1.513,3.26 -3.26,3.26Z" style="fill:none;stroke:#275623;stroke-width:3.49px;"/><path d="M33.681,254.281c0,-3.958 5.006,-7.218 11.293,-7.218" style="fill:none;stroke:#275623;stroke-width:3.49px;"/></g><g><path d="M264.199,260.452l20.723,0c1.747,0 3.26,-1.397 3.26,-3.26c0,-1.746 -1.397,-3.26 -3.26,-3.26l-20.723,0c-1.746,0 -3.26,1.397 -3.26,3.26c0,1.863 1.397,3.26 3.26,3.26Z" style="fill:none;stroke:#275623;stroke-width:3.49px;"/><path d="M263.151,266.972l20.723,0c1.747,0 3.26,-1.398 3.26,-3.26c0,-1.747 -1.397,-3.26 -3.26,-3.26l-20.723,0c-1.746,0 -3.26,1.397 -3.26,3.26c0,1.746 1.514,3.26 3.26,3.26Z" style="fill:none;stroke:#275623;stroke-width:3.49px;"/><path d="M261.754,273.375l20.723,0c1.747,0 3.26,-1.397 3.26,-3.26c0,-1.746 -1.397,-3.26 -3.26,-3.26l-20.723,0c-1.746,0 -3.26,1.397 -3.26,3.26c0,1.746 1.397,3.26 3.26,3.26Z" style="fill:none;stroke:#275623;stroke-width:3.49px;"/><path d="M265.363,280.477l12.457,0c1.747,0 3.26,-1.397 3.26,-3.26c0,-1.747 -1.397,-3.26 -3.26,-3.26l-12.457,0c-1.746,0 -3.26,1.397 -3.26,3.26c0.117,1.863 1.514,3.26 3.26,3.26Z" style="fill:none;stroke:#275623;stroke-width:3.49px;"/><path d="M286.203,254.281c0,-3.958 -5.006,-7.218 -11.293,-7.218" style="fill:none;stroke:#275623;stroke-width:3.49px;"/></g><g><path d="M144.068,227.044l0.09,0.009l0.089,0.014l0.088,0.018l0.087,0.023l0.085,0.027l0.084,0.032l0.083,0.036l0.08,0.04l0.079,0.045l0.075,0.048l0.074,0.052l0.07,0.056l0.068,0.059l0.064,0.063l0.061,0.066l0.058,0.069l0.054,0.072l0.05,0.074l0.046,0.078l0.043,0.079l0.038,0.081l0.034,0.084l0.029,0.085l0.025,0.086l0.021,0.087l0.016,0.089l0.012,0.089l0.007,0.09l0.002,0.09l0,11.642l-0.002,0.09l-0.007,0.09l-0.012,0.089l-0.016,0.088l-0.021,0.088l-0.025,0.086l-0.029,0.085l-0.034,0.083l-0.038,0.082l-0.043,0.079l-0.046,0.077l-0.05,0.075l-0.054,0.072l-0.058,0.069l-0.061,0.066l-0.064,0.063l-0.068,0.059l-0.07,0.056l-0.074,0.052l-0.075,0.048l-0.079,0.044l-0.08,0.041l-0.083,0.036l-0.084,0.031l-0.085,0.028l-0.087,0.023l-0.088,0.018l-0.089,0.014l-0.09,0.009l-0.089,0.005l-0.09,0l-0.09,-0.005l-0.09,-0.009l-0.089,-0.014l-0.088,-0.018l-0.087,-0.023l-0.085,-0.028l-0.084,-0.031l-0.083,-0.036l-0.08,-0.041l-0.078,-0.044l-0.076,-0.048l-0.074,-0.052l-0.07,-0.056l-0.068,-0.059l-0.064,-0.063l-0.061,-0.066l-0.058,-0.069l-0.054,-0.072l-0.05,-0.075l-0.046,-0.077l-0.043,-0.079l-0.038,-0.082l-0.034,-0.083l-0.029,-0.085l-0.025,-0.086l-0.021,-0.088l-0.016,-0.088l-0.012,-0.089l-0.006,-0.09l-0.003,-0.09l0,-11.642l0.003,-0.09l0.006,-0.09l0.012,-0.089l0.016,-0.089l0.021,-0.087l0.025,-0.086l0.029,-0.085l0.034,-0.084l0.038,-0.081l0.043,-0.079l0.046,-0.078l0.05,-0.074l0.054,-0.072l0.058,-0.069l0.061,-0.066l0.064,-0.063l0.068,-0.059l0.07,-0.056l0.074,-0.052l0.076,-0.048l0.078,-0.045l0.08,-0.04l0.083,-0.036l0.084,-0.032l0.085,-0.027l0.087,-0.023l0.088,-0.018l0.089,-0.014l0.09,-0.009l0.09,-0.005l0.09,0l0.089,0.005Z" style="fill:#275623;"/><path d="M172.01,227.044l0.089,0.009l0.089,0.014l0.088,0.018l0.087,0.023l0.086,0.027l0.084,0.032l0.082,0.036l0.081,0.04l0.078,0.045l0.076,0.048l0.073,0.052l0.071,0.056l0.067,0.059l0.065,0.063l0.061,0.066l0.058,0.069l0.054,0.072l0.05,0.074l0.046,0.078l0.042,0.079l0.038,0.081l0.034,0.084l0.03,0.085l0.025,0.086l0.021,0.087l0.016,0.089l0.011,0.089l0.007,0.09l0.003,0.09l0,11.642l-0.003,0.09l-0.007,0.09l-0.011,0.089l-0.016,0.088l-0.021,0.088l-0.025,0.086l-0.03,0.085l-0.034,0.083l-0.038,0.082l-0.042,0.079l-0.046,0.077l-0.05,0.075l-0.054,0.072l-0.058,0.069l-0.061,0.066l-0.065,0.063l-0.067,0.059l-0.071,0.056l-0.073,0.052l-0.076,0.048l-0.078,0.044l-0.081,0.041l-0.082,0.036l-0.084,0.031l-0.086,0.028l-0.087,0.023l-0.088,0.018l-0.089,0.014l-0.089,0.009l-0.09,0.005l-0.09,0l-0.09,-0.005l-0.089,-0.009l-0.089,-0.014l-0.088,-0.018l-0.087,-0.023l-0.086,-0.028l-0.084,-0.031l-0.082,-0.036l-0.081,-0.041l-0.078,-0.044l-0.076,-0.048l-0.073,-0.052l-0.071,-0.056l-0.067,-0.059l-0.064,-0.063l-0.062,-0.066l-0.057,-0.069l-0.054,-0.072l-0.05,-0.075l-0.047,-0.077l-0.042,-0.079l-0.038,-0.082l-0.034,-0.083l-0.029,-0.085l-0.026,-0.086l-0.02,-0.088l-0.016,-0.088l-0.012,-0.089l-0.007,-0.09l-0.002,-0.09l0,-11.642l0.002,-0.09l0.007,-0.09l0.012,-0.089l0.016,-0.089l0.02,-0.087l0.026,-0.086l0.029,-0.085l0.034,-0.084l0.038,-0.081l0.042,-0.079l0.047,-0.078l0.05,-0.074l0.054,-0.072l0.057,-0.069l0.062,-0.066l0.064,-0.063l0.067,-0.059l0.071,-0.056l0.073,-0.052l0.076,-0.048l0.078,-0.045l0.081,-0.04l0.082,-0.036l0.084,-0.032l0.086,-0.027l0.087,-0.023l0.088,-0.018l0.089,-0.014l0.089,-0.009l0.09,-0.005l0.09,0l0.09,0.005Z" style="fill:#275623;"/></g><path d="M254.769,307.953l-194.078,0" style="fill:none;stroke:#275623;stroke-width:3.49px;"/><path d="M50.096,288.393l10.129,18.628" style="fill:none;stroke:#275623;stroke-width:3.49px;"/><path d="M78.853,288.393l10.129,18.628" style="fill:none;stroke:#275623;stroke-width:3.49px;"/><path d="M265.13,288.393l-10.129,18.628" style="fill:none;stroke:#275623;stroke-width:3.49px;"/><path d="M236.374,288.393l-10.129,18.628" style="fill:none;stroke:#275623;stroke-width:3.49px;"/><path d="M281.178,114.458l0.096,0.004l0.097,0.007l0.095,0.009l0.095,0.012l0.093,0.014l0.093,0.016l0.092,0.019l0.092,0.021l0.09,0.024l0.088,0.025l0.088,0.028l0.087,0.03l0.086,0.031l0.084,0.034l0.083,0.036l0.083,0.037l0.08,0.039l0.08,0.041l0.078,0.043l0.078,0.045l0.075,0.046l0.075,0.048l0.073,0.049l0.072,0.051l0.071,0.052l0.069,0.054l0.068,0.056l0.067,0.057l0.065,0.058l0.064,0.06l0.063,0.061l0.061,0.062l0.06,0.065l0.058,0.065l0.057,0.066l0.056,0.069l0.053,0.069l0.053,0.071l0.051,0.072l0.049,0.073l0.048,0.074l0.046,0.076l0.045,0.077l0.042,0.079l0.041,0.079l0.04,0.081l0.037,0.083l0.036,0.082l0.033,0.085l0.032,0.086l0.03,0.087l0.028,0.088l0.025,0.088l0.023,0.09l0.022,0.091l0.018,0.092l0.017,0.093l0.014,0.094l0.012,0.095l0.009,0.095l0.007,0.097l0.004,0.096l0.001,0.085l0,10.153l-0.001,0.085l-0.004,0.097l-0.007,0.096l-0.009,0.096l-0.012,0.095l-0.014,0.093l-0.016,0.093l-0.019,0.092l-0.022,0.092l-0.023,0.09l-0.025,0.088l-0.028,0.088l-0.03,0.087l-0.032,0.086l-0.033,0.084l-0.036,0.083l-0.037,0.082l-0.04,0.081l-0.041,0.08l-0.042,0.078l-0.045,0.078l-0.046,0.075l-0.048,0.075l-0.049,0.073l-0.051,0.072l-0.053,0.071l-0.053,0.069l-0.056,0.068l-0.057,0.067l-0.058,0.065l-0.06,0.064l-0.061,0.063l-0.063,0.061l-0.064,0.06l-0.065,0.058l-0.067,0.057l-0.068,0.056l-0.069,0.053l-0.071,0.053l-0.072,0.051l-0.073,0.049l-0.075,0.048l-0.075,0.046l-0.078,0.045l-0.078,0.042l-0.08,0.041l-0.081,0.04l-0.082,0.037l-0.083,0.036l-0.084,0.033l-0.086,0.032l-0.087,0.03l-0.087,0.027l-0.089,0.026l-0.091,0.023l-0.091,0.022l-0.091,0.018l-0.094,0.017l-0.093,0.014l-0.095,0.012l-0.095,0.009l-0.097,0.007l-0.096,0.004l-0.086,0.001l-76.502,0l-0.228,-0.015l-0.224,-0.045l-0.216,-0.073l-0.205,-0.101l-0.19,-0.127l-0.172,-0.151l-0.15,-0.171l-0.127,-0.19l-0.101,-0.205l-0.074,-0.217l-0.044,-0.224l-0.015,-0.227l0.015,-0.228l0.044,-0.224l0.074,-0.217l0.101,-0.205l0.127,-0.19l0.15,-0.171l0.172,-0.151l0.19,-0.127l0.205,-0.101l0.216,-0.073l0.224,-0.045l0.228,-0.015l76.478,0l0.013,0l0.001,0l0.001,0l0.001,0l0.002,0l0.002,-0.001l0.002,0l0.003,-0.001l0.003,0l0.003,-0.001l0.004,-0.001l0.004,-0.002l0.004,-0.001l0.005,-0.002l0.005,-0.002l0.005,-0.002l0.005,-0.002l0.006,-0.003l0.006,-0.003l0.006,-0.004l0.006,-0.003l0.007,-0.004l0.006,-0.004l0.007,-0.005l0.007,-0.004l0.006,-0.005l0.007,-0.006l0.007,-0.005l0.006,-0.006l0.007,-0.006l0.006,-0.006l0.007,-0.006l0.006,-0.007l0.006,-0.006l0.006,-0.007l0.006,-0.006l0.005,-0.007l0.006,-0.007l0.005,-0.006l0.004,-0.007l0.005,-0.007l0.004,-0.006l0.004,-0.007l0.004,-0.006l0.003,-0.006l0.003,-0.006l0.003,-0.006l0.002,-0.005l0.002,-0.006l0.002,-0.004l0.002,-0.005l0.001,-0.004l0.002,-0.004l0.001,-0.004l0.001,-0.003l0,-0.003l0.001,-0.003l0,-0.002l0.001,-0.002l0,-0.001l0,-0.002l0,-0.001l0,-0.001l0,-0.013l0,-10.105l0,-0.012l0,-0.001l0,-0.001l0,-0.002l0,-0.001l-0.001,-0.002l0,-0.003l-0.001,-0.002l0,-0.003l-0.001,-0.003l-0.001,-0.004l-0.002,-0.004l-0.001,-0.004l-0.002,-0.005l-0.002,-0.004l-0.002,-0.006l-0.002,-0.006l-0.003,-0.005l-0.003,-0.006l-0.003,-0.006l-0.004,-0.006l-0.004,-0.007l-0.004,-0.006l-0.005,-0.007l-0.004,-0.007l-0.005,-0.006l-0.006,-0.007l-0.005,-0.007l-0.006,-0.006l-0.006,-0.008l-0.006,-0.006l-0.006,-0.006l-0.007,-0.007l-0.006,-0.005l-0.007,-0.006l-0.006,-0.006l-0.007,-0.005l-0.007,-0.006l-0.006,-0.005l-0.007,-0.004l-0.007,-0.005l-0.006,-0.004l-0.007,-0.004l-0.006,-0.004l-0.006,-0.003l-0.006,-0.003l-0.006,-0.003l-0.005,-0.002l-0.005,-0.003l-0.005,-0.001l-0.005,-0.002l-0.004,-0.002l-0.004,-0.001l-0.004,-0.001l-0.003,-0.001l-0.003,0l-0.003,-0.001l-0.002,0l-0.002,-0.001l-0.002,0l-0.001,0l-0.001,0l-0.001,0l-0.013,0l-75.546,0l-0.228,-0.015l-0.224,-0.045l-0.217,-0.073l-0.205,-0.101l-0.19,-0.127l-0.171,-0.151l-0.151,-0.172l-0.127,-0.19l-0.101,-0.204l-0.073,-0.217l-0.045,-0.224l-0.015,-0.228l0.015,-0.228l0.045,-0.224l0.073,-0.216l0.101,-0.205l0.127,-0.19l0.151,-0.172l0.171,-0.15l0.19,-0.127l0.205,-0.101l0.217,-0.074l0.224,-0.044l0.228,-0.015l75.57,0l0.086,0.001Z" style="fill:#275623;"/><path d="M177.677,96.235l0.139,0.004l0.139,0.007l0.14,0.01l0.14,0.012l0.14,0.015l0.14,0.018l0.141,0.021l0.141,0.024l0.141,0.026l0.141,0.03l0.141,0.032l0.141,0.035l0.142,0.038l0.141,0.041l0.141,0.043l0.14,0.047l0.141,0.049l0.14,0.053l0.14,0.055l0.14,0.058l0.157,0.069l20.29,9.912l0.117,0.063l0.113,0.072l0.107,0.081l0.1,0.088l0.094,0.096l0.085,0.103l0.078,0.109l0.069,0.114l0.06,0.12l0.05,0.124l0.042,0.127l0.031,0.13l0.021,0.132l0.011,0.134l0,0.133l-0.009,0.134l-0.02,0.132l-0.03,0.131l-0.039,0.127l-0.05,0.125l-0.058,0.12l-0.068,0.115l-0.076,0.11l-0.085,0.104l-0.092,0.097l-0.1,0.089l-0.106,0.082l-0.112,0.073l-0.117,0.065l-0.121,0.055l-0.126,0.046l-0.129,0.036l-0.131,0.026l-0.133,0.016l-0.134,0.006l-0.133,-0.004l-0.133,-0.015l-0.132,-0.025l-0.129,-0.034l-0.126,-0.045l-0.122,-0.054l-20.226,-9.88l-0.061,-0.027l-0.079,-0.033l-0.079,-0.031l-0.079,-0.03l-0.078,-0.027l-0.079,-0.026l-0.077,-0.024l-0.078,-0.023l-0.077,-0.02l-0.076,-0.019l-0.076,-0.018l-0.076,-0.015l-0.075,-0.014l-0.074,-0.013l-0.073,-0.011l-0.073,-0.009l-0.072,-0.008l-0.072,-0.006l-0.07,-0.005l-0.069,-0.004l-0.069,-0.001l-0.067,-0.001l-0.067,0.001l-0.065,0.002l-0.064,0.003l-0.063,0.005l-0.061,0.006l-0.06,0.007l-0.059,0.008l-0.058,0.01l-0.056,0.01l-0.055,0.011l-0.053,0.013l-0.051,0.013l-0.05,0.014l-0.048,0.015l-0.046,0.015l-0.045,0.017l-0.043,0.016l-0.041,0.018l-0.04,0.018l-0.038,0.018l-0.036,0.019l-0.034,0.018l-0.032,0.02l-0.031,0.019l-0.029,0.019l-0.027,0.02l-0.025,0.019l-0.024,0.019l-0.022,0.019l-0.021,0.019l-0.02,0.019l-0.018,0.019l-0.016,0.018l-0.016,0.019l-0.014,0.018l-0.013,0.018l-0.013,0.018l-0.011,0.018l-0.01,0.018l-0.01,0.018l-0.01,0.019l-0.008,0.019l-0.008,0.02l-0.007,0.019l-0.007,0.02l-0.005,0.02l-0.005,0.02l-0.005,0.02l-0.004,0.021l-0.003,0.022l-0.002,0.022l-0.002,0.024l-0.001,0.024l0,0.025l0,0.027l0.002,0.027l0.002,0.029l0.004,0.031l0.004,0.031l0.006,0.032l0.007,0.034l0.009,0.035l0.009,0.037l0.011,0.037l0.013,0.039l0.014,0.039l0.016,0.041l0.017,0.042l0.019,0.043l0.021,0.044l0.023,0.044l0.024,0.046l0.026,0.046l0.028,0.046l0.029,0.048l0.032,0.048l0.033,0.048l0.035,0.049l0.037,0.049l0.039,0.049l0.04,0.05l0.043,0.05l0.044,0.049l0.046,0.05l0.048,0.05l0.049,0.05l0.052,0.049l0.053,0.05l0.055,0.049l0.057,0.048l0.058,0.049l0.06,0.048l0.062,0.047l0.063,0.047l0.065,0.047l0.066,0.046l0.069,0.045l0.069,0.045l0.072,0.043l0.072,0.043l0.075,0.043l0.075,0.041l0.078,0.04l0.078,0.04l0.08,0.038l0.116,0.054l7.821,3.852l0.118,0.064l0.112,0.072l0.107,0.081l0.1,0.089l0.093,0.096l0.085,0.103l0.077,0.109l0.069,0.115l0.06,0.12l0.05,0.124l0.04,0.127l0.031,0.13l0.021,0.133l0.01,0.133l0.001,0.134l-0.01,0.133l-0.02,0.132l-0.031,0.131l-0.04,0.127l-0.05,0.125l-0.059,0.12l-0.068,0.115l-0.076,0.109l-0.085,0.104l-0.093,0.096l-0.1,0.089l-0.106,0.082l-0.112,0.073l-0.117,0.064l-0.122,0.055l-0.126,0.045l-0.129,0.036l-0.131,0.026l-0.133,0.015l-0.134,0.006l-0.134,-0.005l-0.133,-0.015l-0.131,-0.025l-0.129,-0.035l-0.126,-0.045l-0.122,-0.055l-7.78,-3.832l-0.101,-0.046l-0.133,-0.064l-0.132,-0.067l-0.13,-0.068l-0.129,-0.07l-0.126,-0.072l-0.125,-0.073l-0.123,-0.076l-0.121,-0.077l-0.119,-0.079l-0.117,-0.081l-0.115,-0.082l-0.113,-0.084l-0.112,-0.086l-0.109,-0.088l-0.107,-0.089l-0.105,-0.09l-0.103,-0.093l-0.102,-0.093l-0.098,-0.096l-0.097,-0.097l-0.095,-0.098l-0.092,-0.1l-0.09,-0.102l-0.088,-0.102l-0.086,-0.105l-0.083,-0.106l-0.081,-0.107l-0.078,-0.109l-0.076,-0.11l-0.073,-0.112l-0.071,-0.113l-0.068,-0.115l-0.066,-0.116l-0.063,-0.118l-0.06,-0.119l-0.057,-0.12l-0.054,-0.122l-0.051,-0.123l-0.048,-0.124l-0.045,-0.126l-0.042,-0.128l-0.038,-0.129l-0.034,-0.129l-0.032,-0.131l-0.027,-0.133l-0.024,-0.133l-0.02,-0.135l-0.015,-0.135l-0.012,-0.137l-0.007,-0.137l-0.003,-0.138l0.001,-0.139l0.006,-0.139l0.011,-0.139l0.015,-0.139l0.02,-0.14l0.025,-0.139l0.03,-0.139l0.034,-0.138l0.04,-0.137l0.045,-0.137l0.05,-0.135l0.054,-0.134l0.06,-0.132l0.063,-0.13l0.069,-0.126l0.072,-0.124l0.076,-0.121l0.08,-0.117l0.084,-0.114l0.087,-0.111l0.09,-0.108l0.094,-0.104l0.097,-0.1l0.099,-0.097l0.102,-0.093l0.104,-0.09l0.107,-0.086l0.109,-0.083l0.111,-0.079l0.113,-0.076l0.115,-0.072l0.117,-0.069l0.118,-0.065l0.12,-0.062l0.121,-0.059l0.123,-0.055l0.124,-0.053l0.125,-0.049l0.127,-0.045l0.127,-0.043l0.129,-0.04l0.129,-0.036l0.131,-0.034l0.131,-0.031l0.132,-0.027l0.133,-0.025l0.134,-0.021l0.134,-0.019l0.136,-0.016l0.135,-0.013l0.137,-0.01l0.137,-0.008l0.137,-0.004l0.138,-0.002l0.139,0.001Z" style="fill:#275623;"/><path d="M200.268,106.543l0.072,0.006l0.071,0.008l0.071,0.012l0.071,0.015l0.07,0.017l0.069,0.02l0.069,0.024l0.067,0.026l0.066,0.028l0.065,0.032l0.1,0.05l0.111,0.059l0.11,0.061l0.11,0.063l0.11,0.065l0.108,0.067l0.108,0.07l0.108,0.072l0.106,0.073l0.106,0.077l0.104,0.078l0.104,0.081l0.103,0.083l0.101,0.085l0.101,0.088l0.099,0.09l0.098,0.092l0.096,0.095l0.095,0.097l0.094,0.1l0.092,0.101l0.091,0.104l0.088,0.107l0.088,0.109l0.085,0.111l0.084,0.113l0.082,0.116l0.08,0.118l0.078,0.12l0.076,0.123l0.074,0.125l0.087,0.152l2.698,5.397l0.031,0.065l0.028,0.067l0.026,0.067l0.022,0.069l0.02,0.069l0.017,0.07l0.014,0.071l0.011,0.072l0.008,0.071l0.005,0.072l0.003,0.072l-0.001,0.073l-0.004,0.072l-0.007,0.072l-0.01,0.071l-0.012,0.071l-0.016,0.071l-0.019,0.069l-0.021,0.069l-0.024,0.068l-0.027,0.067l-0.03,0.066l-0.032,0.064l-0.036,0.063l-0.037,0.062l-0.04,0.06l-0.043,0.058l-0.045,0.057l-0.047,0.054l-0.05,0.053l-0.052,0.05l-0.053,0.048l-0.056,0.046l-0.057,0.044l-0.06,0.041l-0.06,0.039l-0.063,0.036l-0.064,0.034l-0.065,0.031l-0.066,0.028l-0.068,0.026l-0.068,0.022l-0.07,0.02l-0.07,0.017l-0.071,0.014l-0.071,0.011l-0.072,0.008l-0.072,0.005l-0.072,0.002l-0.072,-0.001l-0.072,-0.003l-0.072,-0.007l-0.072,-0.01l-0.071,-0.013l-0.07,-0.015l-0.07,-0.019l-0.069,-0.021l-0.068,-0.024l-0.067,-0.028l-0.066,-0.029l-0.064,-0.033l-0.063,-0.035l-0.062,-0.038l-0.06,-0.04l-0.058,-0.042l-0.056,-0.045l-0.055,-0.048l-0.052,-0.049l-0.051,-0.052l-0.048,-0.053l-0.046,-0.056l-0.044,-0.058l-0.041,-0.059l-0.039,-0.061l-0.036,-0.062l-0.034,-0.064l-2.657,-5.314l-0.024,-0.042l-0.039,-0.066l-0.039,-0.064l-0.041,-0.062l-0.041,-0.06l-0.041,-0.059l-0.043,-0.057l-0.043,-0.056l-0.043,-0.054l-0.044,-0.054l-0.045,-0.051l-0.046,-0.051l-0.046,-0.049l-0.047,-0.048l-0.048,-0.047l-0.048,-0.045l-0.05,-0.045l-0.05,-0.044l-0.05,-0.042l-0.052,-0.042l-0.052,-0.041l-0.054,-0.04l-0.054,-0.039l-0.055,-0.038l-0.056,-0.037l-0.056,-0.037l-0.058,-0.036l-0.059,-0.035l-0.06,-0.034l-0.06,-0.033l-0.062,-0.033l-0.074,-0.038l-0.064,-0.034l-0.062,-0.037l-0.061,-0.039l-0.059,-0.042l-0.057,-0.044l-0.055,-0.046l-0.053,-0.049l-0.051,-0.051l-0.05,-0.053l-0.046,-0.054l-0.045,-0.057l-0.042,-0.059l-0.04,-0.06l-0.037,-0.062l-0.035,-0.063l-0.032,-0.065l-0.029,-0.066l-0.026,-0.067l-0.024,-0.068l-0.021,-0.069l-0.018,-0.07l-0.015,-0.071l-0.012,-0.071l-0.009,-0.072l-0.007,-0.072l-0.003,-0.072l0,-0.072l0.003,-0.072l0.005,-0.072l0.009,-0.072l0.012,-0.071l0.014,-0.071l0.018,-0.07l0.02,-0.069l0.023,-0.068l0.026,-0.068l0.029,-0.066l0.031,-0.065l0.034,-0.063l0.037,-0.063l0.039,-0.06l0.042,-0.059l0.044,-0.057l0.047,-0.055l0.048,-0.054l0.051,-0.051l0.053,-0.049l0.055,-0.047l0.057,-0.045l0.058,-0.042l0.061,-0.039l0.062,-0.038l0.063,-0.034l0.065,-0.032l0.066,-0.029l0.067,-0.027l0.068,-0.024l0.069,-0.02l0.07,-0.018l0.071,-0.015l0.071,-0.013l0.071,-0.009l0.072,-0.006l0.072,-0.003l0.072,-0.001l0.073,0.003Z" style="fill:#275623;"/><path d="M196.496,118.416l0.083,0.005l0.082,0.008l0.082,0.013l0.082,0.016l0.081,0.02l0.079,0.024l0.079,0.028l0.076,0.032l0.076,0.035l0.073,0.038l0.072,0.043l0.07,0.045l0.067,0.049l0.065,0.052l0.062,0.055l0.06,0.057l0.057,0.061l0.054,0.063l0.051,0.066l0.047,0.068l0.045,0.07l0.041,0.073l0.037,0.074l3.493,7.334l0.033,0.069l0.027,0.055l0.028,0.054l0.028,0.053l0.029,0.051l0.029,0.051l0.03,0.05l0.03,0.048l0.031,0.048l0.031,0.046l0.032,0.046l0.032,0.044l0.032,0.043l0.033,0.043l0.033,0.041l0.034,0.041l0.034,0.04l0.034,0.039l0.035,0.038l0.035,0.037l0.036,0.036l0.036,0.035l0.036,0.034l0.036,0.034l0.037,0.033l0.038,0.032l0.037,0.031l0.038,0.03l0.039,0.03l0.038,0.029l0.039,0.028l0.04,0.027l0.039,0.027l0.04,0.025l0.041,0.025l0.04,0.025l0.041,0.023l0.042,0.023l0.041,0.022l0.042,0.021l0.043,0.021l0.042,0.02l0.043,0.019l0.044,0.019l0.043,0.018l0.044,0.017l0.044,0.016l0.045,0.016l0.045,0.014l0.045,0.015l0.046,0.013l0.045,0.013l0.047,0.012l0.046,0.011l0.046,0.011l0.047,0.01l0.048,0.009l0.047,0.008l0.048,0.008l0.048,0.006l0.048,0.007l0.048,0.005l0.049,0.005l0.063,0.005l0.082,0.008l0.083,0.013l0.081,0.016l0.081,0.02l0.079,0.024l0.079,0.028l0.077,0.032l0.075,0.035l0.073,0.038l0.072,0.042l0.07,0.046l0.067,0.049l0.065,0.052l0.062,0.054l0.06,0.058l0.057,0.061l0.054,0.063l0.051,0.066l0.047,0.068l0.045,0.07l0.041,0.072l0.037,0.075l0.034,0.076l0.031,0.077l0.026,0.079l0.023,0.08l0.019,0.081l0.015,0.081l0.011,0.083l0.007,0.082l0.004,0.083l-0.001,0.084l-0.005,0.083l-0.008,0.082l-0.013,0.082l-0.016,0.082l-0.02,0.081l-0.024,0.079l-0.028,0.078l-0.031,0.077l-0.036,0.076l-0.038,0.073l-0.042,0.072l-0.046,0.07l-0.049,0.067l-0.051,0.065l-0.055,0.062l-0.058,0.06l-0.061,0.057l-0.063,0.054l-0.066,0.051l-0.068,0.047l-0.07,0.045l-0.072,0.041l-0.075,0.037l-0.075,0.034l-0.078,0.03l-0.079,0.027l-0.079,0.023l-0.081,0.019l-0.082,0.015l-0.083,0.011l-0.082,0.007l-0.083,0.004l-0.083,-0.001l-0.083,-0.005l-0.091,-0.007l-0.103,-0.01l-0.103,-0.011l-0.104,-0.013l-0.103,-0.015l-0.102,-0.016l-0.103,-0.019l-0.102,-0.019l-0.102,-0.022l-0.102,-0.023l-0.102,-0.024l-0.101,-0.027l-0.1,-0.028l-0.101,-0.029l-0.099,-0.032l-0.1,-0.033l-0.099,-0.034l-0.098,-0.037l-0.098,-0.038l-0.098,-0.04l-0.097,-0.041l-0.096,-0.043l-0.096,-0.045l-0.095,-0.046l-0.094,-0.048l-0.094,-0.05l-0.093,-0.051l-0.093,-0.053l-0.091,-0.055l-0.091,-0.056l-0.09,-0.058l-0.089,-0.06l-0.088,-0.061l-0.088,-0.063l-0.086,-0.064l-0.086,-0.066l-0.085,-0.068l-0.083,-0.069l-0.083,-0.071l-0.081,-0.073l-0.081,-0.074l-0.08,-0.075l-0.078,-0.077l-0.077,-0.079l-0.076,-0.08l-0.075,-0.082l-0.074,-0.083l-0.072,-0.085l-0.072,-0.086l-0.07,-0.087l-0.068,-0.089l-0.068,-0.091l-0.066,-0.091l-0.065,-0.094l-0.063,-0.094l-0.062,-0.096l-0.061,-0.097l-0.06,-0.099l-0.057,-0.1l-0.057,-0.101l-0.055,-0.103l-0.054,-0.104l-0.052,-0.105l-0.044,-0.094l-3.493,-7.335l-0.034,-0.075l-0.03,-0.078l-0.027,-0.079l-0.023,-0.079l-0.019,-0.081l-0.015,-0.082l-0.011,-0.083l-0.007,-0.082l-0.004,-0.083l0.001,-0.083l0.005,-0.083l0.008,-0.083l0.013,-0.082l0.016,-0.082l0.02,-0.08l0.024,-0.08l0.028,-0.078l0.032,-0.077l0.035,-0.076l0.038,-0.073l0.042,-0.072l0.046,-0.069l0.049,-0.068l0.052,-0.065l0.054,-0.062l0.058,-0.06l0.061,-0.057l0.063,-0.054l0.066,-0.05l0.068,-0.048l0.07,-0.045l0.073,-0.041l0.074,-0.037l0.076,-0.034l0.077,-0.03l0.079,-0.027l0.08,-0.023l0.081,-0.019l0.081,-0.015l0.083,-0.011l0.082,-0.007l0.084,-0.003l0.083,0Z" style="fill:#275623;"/><path d="M188.06,105.54l0.117,0.004l0.118,0.006l0.117,0.009l0.118,0.011l0.117,0.015l0.116,0.017l0.117,0.02l0.116,0.023l0.116,0.026l0.115,0.028l0.115,0.032l0.115,0.034l0.114,0.037l0.113,0.04l0.112,0.043l0.112,0.045l0.111,0.049l0.11,0.051l0.109,0.054l0.108,0.057l0.107,0.059l0.105,0.063l0.105,0.065l0.103,0.068l0.102,0.071l0.103,0.075l8.284,6.417l0.08,0.062l0.098,0.079l0.096,0.082l0.093,0.084l0.09,0.086l0.088,0.088l0.085,0.09l0.083,0.091l0.08,0.094l0.078,0.095l0.074,0.097l0.072,0.098l0.069,0.1l0.067,0.102l0.063,0.102l0.061,0.104l0.058,0.105l0.056,0.107l0.052,0.107l0.05,0.109l0.047,0.109l0.044,0.11l0.042,0.112l0.038,0.112l0.036,0.112l0.033,0.114l0.03,0.114l0.028,0.114l0.024,0.115l0.022,0.116l0.019,0.116l0.016,0.116l0.014,0.117l0.01,0.117l0.008,0.117l0.005,0.117l0.002,0.117l0,0.118l-0.003,0.117l-0.006,0.118l-0.009,0.117l-0.012,0.117l-0.015,0.117l-0.017,0.117l-0.02,0.117l-0.023,0.116l-0.026,0.116l-0.028,0.115l-0.032,0.115l-0.034,0.115l-0.037,0.113l-0.04,0.114l-0.042,0.112l-0.046,0.111l-0.048,0.111l-0.052,0.111l-0.054,0.108l-0.056,0.108l-0.06,0.107l-0.062,0.106l-0.066,0.105l-0.068,0.103l-0.07,0.102l-0.074,0.101l-0.077,0.1l-0.08,0.098l-0.082,0.095l-0.083,0.093l-0.086,0.091l-0.088,0.088l-0.09,0.085l-0.092,0.083l-0.093,0.08l-0.096,0.077l-0.097,0.075l-0.098,0.072l-0.1,0.069l-0.101,0.066l-0.103,0.064l-0.104,0.061l-0.105,0.058l-0.106,0.056l-0.108,0.052l-0.108,0.05l-0.11,0.047l-0.11,0.044l-0.111,0.041l-0.112,0.039l-0.113,0.036l-0.113,0.033l-0.114,0.03l-0.115,0.027l-0.115,0.025l-0.115,0.022l-0.116,0.019l-0.117,0.016l-0.116,0.013l-0.117,0.011l-0.117,0.008l-0.117,0.005l-0.118,0.002l-0.117,0l-0.118,-0.004l-0.117,-0.006l-0.117,-0.009l-0.118,-0.011l-0.117,-0.015l-0.117,-0.017l-0.116,-0.02l-0.116,-0.023l-0.116,-0.026l-0.116,-0.029l-0.115,-0.031l-0.114,-0.034l-0.114,-0.037l-0.113,-0.04l-0.112,-0.043l-0.112,-0.045l-0.111,-0.049l-0.11,-0.051l-0.109,-0.054l-0.108,-0.057l-0.107,-0.059l-0.106,-0.063l-0.104,-0.065l-0.103,-0.068l-0.102,-0.071l-0.103,-0.075l-8.284,-6.417l-0.08,-0.062l-0.098,-0.079l-0.096,-0.082l-0.093,-0.084l-0.09,-0.086l-0.088,-0.088l-0.086,-0.09l-0.082,-0.092l-0.08,-0.093l-0.078,-0.095l-0.074,-0.097l-0.072,-0.099l-0.07,-0.099l-0.066,-0.102l-0.064,-0.102l-0.061,-0.104l-0.058,-0.106l-0.055,-0.106l-0.053,-0.107l-0.05,-0.109l-0.046,-0.109l-0.045,-0.111l-0.041,-0.111l-0.039,-0.112l-0.035,-0.112l-0.033,-0.114l-0.031,-0.114l-0.027,-0.114l-0.025,-0.115l-0.021,-0.116l-0.019,-0.116l-0.017,-0.116l-0.013,-0.117l-0.011,-0.117l-0.007,-0.117l-0.006,-0.117l-0.002,-0.117l0.001,-0.118l0.003,-0.117l0.006,-0.118l0.009,-0.117l0.012,-0.117l0.014,-0.117l0.018,-0.117l0.02,-0.117l0.023,-0.116l0.025,-0.116l0.029,-0.115l0.031,-0.115l0.035,-0.115l0.037,-0.113l0.04,-0.114l0.042,-0.112l0.046,-0.112l0.048,-0.11l0.051,-0.111l0.054,-0.109l0.057,-0.107l0.06,-0.107l0.062,-0.106l0.065,-0.105l0.068,-0.103l0.071,-0.102l0.074,-0.101l0.077,-0.1l0.079,-0.098l0.082,-0.095l0.084,-0.093l0.086,-0.091l0.088,-0.088l0.09,-0.085l0.092,-0.083l0.093,-0.08l0.095,-0.077l0.097,-0.075l0.099,-0.072l0.1,-0.069l0.101,-0.067l0.103,-0.063l0.104,-0.061l0.105,-0.058l0.106,-0.056l0.107,-0.052l0.109,-0.05l0.109,-0.047l0.111,-0.044l0.111,-0.042l0.112,-0.038l0.113,-0.036l0.113,-0.033l0.114,-0.03l0.114,-0.027l0.115,-0.025l0.116,-0.022l0.116,-0.019l0.116,-0.016l0.117,-0.013l0.117,-0.011l0.117,-0.008l0.117,-0.005l0.117,-0.002l0.118,0Zm-0.126,3.493l-0.034,0.002l-0.034,0.002l-0.034,0.003l-0.034,0.004l-0.033,0.005l-0.034,0.005l-0.033,0.006l-0.032,0.007l-0.033,0.008l-0.032,0.009l-0.032,0.009l-0.032,0.01l-0.031,0.011l-0.031,0.011l-0.03,0.012l-0.031,0.013l-0.029,0.014l-0.03,0.014l-0.029,0.016l-0.028,0.015l-0.029,0.017l-0.028,0.017l-0.027,0.018l-0.027,0.019l-0.027,0.019l-0.026,0.021l-0.026,0.021l-0.025,0.021l-0.025,0.023l-0.025,0.023l-0.024,0.024l-0.024,0.026l-0.023,0.026l-0.023,0.026l-0.023,0.028l-0.022,0.03l-0.023,0.03l-0.022,0.032l-0.021,0.032l-0.02,0.032l-0.019,0.032l-0.018,0.032l-0.017,0.033l-0.016,0.033l-0.015,0.033l-0.015,0.033l-0.014,0.033l-0.012,0.034l-0.012,0.034l-0.011,0.033l-0.01,0.035l-0.01,0.034l-0.008,0.034l-0.008,0.034l-0.007,0.035l-0.006,0.034l-0.005,0.035l-0.004,0.034l-0.003,0.035l-0.003,0.034l-0.002,0.035l-0.001,0.034l0,0.035l0.001,0.034l0.001,0.034l0.002,0.034l0.004,0.034l0.003,0.034l0.005,0.033l0.006,0.034l0.006,0.033l0.007,0.033l0.008,0.032l0.008,0.032l0.009,0.032l0.01,0.032l0.011,0.031l0.012,0.031l0.012,0.03l0.013,0.031l0.014,0.029l0.014,0.03l0.015,0.029l0.016,0.029l0.016,0.028l0.018,0.028l0.018,0.027l0.018,0.027l0.02,0.027l0.02,0.026l0.021,0.026l0.022,0.025l0.022,0.025l0.024,0.025l0.024,0.024l0.025,0.024l0.026,0.023l0.027,0.023l0.028,0.023l0.048,0.037l8.249,6.39l0.029,0.021l0.031,0.022l0.032,0.021l0.032,0.02l0.032,0.019l0.033,0.018l0.032,0.017l0.033,0.017l0.033,0.015l0.033,0.014l0.034,0.014l0.033,0.013l0.034,0.012l0.034,0.011l0.034,0.01l0.034,0.009l0.034,0.009l0.035,0.007l0.034,0.007l0.035,0.006l0.034,0.005l0.035,0.004l0.034,0.004l0.035,0.002l0.034,0.002l0.035,0.001l0.034,0l0.035,0l0.034,-0.002l0.034,-0.002l0.034,-0.003l0.033,-0.004l0.034,-0.005l0.033,-0.005l0.033,-0.006l0.033,-0.007l0.033,-0.008l0.032,-0.009l0.032,-0.009l0.031,-0.01l0.032,-0.011l0.031,-0.011l0.03,-0.013l0.03,-0.012l0.03,-0.014l0.029,-0.015l0.03,-0.015l0.028,-0.015l0.028,-0.017l0.028,-0.017l0.028,-0.018l0.027,-0.019l0.026,-0.019l0.026,-0.021l0.026,-0.021l0.026,-0.021l0.025,-0.023l0.024,-0.023l0.025,-0.025l0.023,-0.025l0.024,-0.026l0.023,-0.027l0.023,-0.028l0.022,-0.029l0.023,-0.03l0.022,-0.032l0.02,-0.032l0.02,-0.032l0.019,-0.032l0.018,-0.032l0.018,-0.033l0.016,-0.033l0.015,-0.033l0.015,-0.033l0.013,-0.033l0.013,-0.034l0.012,-0.034l0.011,-0.034l0.01,-0.034l0.009,-0.034l0.009,-0.034l0.007,-0.034l0.007,-0.035l0.006,-0.034l0.005,-0.035l0.005,-0.034l0.003,-0.035l0.003,-0.034l0.002,-0.035l0,-0.034l0.001,-0.035l-0.001,-0.034l-0.001,-0.034l-0.003,-0.035l-0.003,-0.033l-0.004,-0.034l-0.004,-0.033l-0.006,-0.034l-0.006,-0.033l-0.007,-0.033l-0.008,-0.032l-0.008,-0.032l-0.01,-0.032l-0.01,-0.032l-0.011,-0.031l-0.011,-0.031l-0.012,-0.03l-0.013,-0.031l-0.014,-0.03l-0.014,-0.029l-0.015,-0.029l-0.016,-0.029l-0.017,-0.028l-0.017,-0.028l-0.018,-0.027l-0.019,-0.027l-0.019,-0.027l-0.02,-0.026l-0.021,-0.026l-0.022,-0.025l-0.023,-0.025l-0.023,-0.025l-0.024,-0.024l-0.025,-0.024l-0.026,-0.023l-0.027,-0.023l-0.028,-0.023l-0.049,-0.038l-8.248,-6.389l-0.029,-0.021l-0.032,-0.022l-0.031,-0.021l-0.033,-0.02l-0.032,-0.019l-0.032,-0.018l-0.033,-0.017l-0.032,-0.017l-0.034,-0.015l-0.033,-0.014l-0.033,-0.014l-0.034,-0.013l-0.033,-0.012l-0.034,-0.011l-0.034,-0.01l-0.034,-0.009l-0.035,-0.009l-0.034,-0.007l-0.034,-0.007l-0.035,-0.006l-0.035,-0.005l-0.034,-0.004l-0.035,-0.004l-0.034,-0.003l-0.035,-0.001l-0.034,-0.001l-0.035,0l-0.034,0Z" style="fill:#275623;"/><path d="M232.182,86.981l-13.039,0l-2.561,12.457c-0.233,1.281 -1.979,1.514 -2.562,0.35l-7.101,-12.923l-114.212,0c-13.039,0.116 -23.867,-10.595 -23.867,-23.751c0,-13.156 10.711,-23.867 23.867,-23.867l139.359,0c13.156,0 23.867,10.711 23.867,23.867c0.116,13.156 -10.595,23.867 -23.751,23.867Z" style="fill:none;stroke:#275623;stroke-width:3.49px;"/></g></g></svg>