<?xml version="1.0" encoding="utf-8"?>
<!-- Generator: Adobe Illustrator 18.0.0, SVG Export Plug-In . SVG Version: 6.00 Build 0)  -->
<!DOCTYPE svg PUBLIC "-//W3C//DTD SVG 1.1//EN" "http://www.w3.org/Graphics/SVG/1.1/DTD/svg11.dtd">
<svg version="1.1" xmlns="http://www.w3.org/2000/svg" xmlns:xlink="http://www.w3.org/1999/xlink" x="0px" y="0px"
	 viewBox="0 0 320 320" enable-background="new 0 0 320 320" xml:space="preserve">
<g id="圖層_2">
	<rect id="bg_6_" x="0.1" fill="#EFEFEF" width="320" height="320"/>
	<g>
		<g>
			<path opacity="0.1" fill="#D87341" d="M114.2,142.8h-7.7c-0.6,0-1-0.4-1-1v-2.9c0-0.6,0.4-1,1-1h7.7c0.6,0,1,0.4,1,1v2.9
				C115.2,142.3,114.7,142.8,114.2,142.8z"/>
			<path opacity="0.1" fill="#D87341" d="M130.7,142.8H123c-0.6,0-1-0.4-1-1v-2.9c0-0.6,0.4-1,1-1h7.7c0.6,0,1,0.4,1,1v2.9
				C131.7,142.3,131.3,142.8,130.7,142.8z"/>
			<path opacity="0.5" fill="#D87341" d="M147.3,142.8h-7.7c-0.6,0-1-0.4-1-1v-2.9c0-0.6,0.4-1,1-1h7.7c0.6,0,1,0.4,1,1v2.9
				C148.3,142.3,147.8,142.8,147.3,142.8z"/>
			<path opacity="0.5" fill="#D87341" d="M163.9,142.8h-7.7c-0.6,0-1-0.4-1-1v-2.9c0-0.6,0.4-1,1-1h7.7c0.6,0,1,0.4,1,1v2.9
				C164.9,142.3,164.4,142.8,163.9,142.8z"/>
			<path opacity="0.5" fill="#D87341" d="M180.4,142.8h-7.7c-0.6,0-1-0.4-1-1v-2.9c0-0.6,0.4-1,1-1h7.7c0.6,0,1,0.4,1,1v2.9
				C181.4,142.3,181,142.8,180.4,142.8z"/>
			<path opacity="0.5" fill="#D87341" d="M197,142.8h-7.7c-0.6,0-1-0.4-1-1v-2.9c0-0.6,0.4-1,1-1h7.7c0.6,0,1,0.4,1,1v2.9
				C198,142.3,197.5,142.8,197,142.8z"/>
			<path opacity="0.5" fill="#D87341" d="M213.5,142.8h-7.7c-0.6,0-1-0.4-1-1v-2.9c0-0.6,0.4-1,1-1h7.7c0.6,0,1,0.4,1,1v2.9
				C214.5,142.3,214.1,142.8,213.5,142.8z"/>
		</g>
		<g>
			<path opacity="0.5" fill="#D87341" d="M114.2,156.7h-7.7c-0.6,0-1-0.4-1-1v-2.9c0-0.6,0.4-1,1-1h7.7c0.6,0,1,0.4,1,1v2.9
				C115.2,156.2,114.7,156.7,114.2,156.7z"/>
			<path opacity="0.5" fill="#D87341" d="M130.7,156.7H123c-0.6,0-1-0.4-1-1v-2.9c0-0.6,0.4-1,1-1h7.7c0.6,0,1,0.4,1,1v2.9
				C131.7,156.2,131.3,156.7,130.7,156.7z"/>
			<path opacity="0.5" fill="#D87341" d="M147.3,156.7h-7.7c-0.6,0-1-0.4-1-1v-2.9c0-0.6,0.4-1,1-1h7.7c0.6,0,1,0.4,1,1v2.9
				C148.3,156.2,147.8,156.7,147.3,156.7z"/>
			<path opacity="0.5" fill="#D87341" d="M163.9,156.7h-7.7c-0.6,0-1-0.4-1-1v-2.9c0-0.6,0.4-1,1-1h7.7c0.6,0,1,0.4,1,1v2.9
				C164.9,156.2,164.4,156.7,163.9,156.7z"/>
			<path opacity="0.5" fill="#D87341" d="M180.4,156.7h-7.7c-0.6,0-1-0.4-1-1v-2.9c0-0.6,0.4-1,1-1h7.7c0.6,0,1,0.4,1,1v2.9
				C181.4,156.2,181,156.7,180.4,156.7z"/>
			<path opacity="0.5" fill="#D87341" d="M197,156.7h-7.7c-0.6,0-1-0.4-1-1v-2.9c0-0.6,0.4-1,1-1h7.7c0.6,0,1,0.4,1,1v2.9
				C198,156.2,197.5,156.7,197,156.7z"/>
			<path opacity="0.5" fill="#D87341" d="M213.5,156.7h-7.7c-0.6,0-1-0.4-1-1v-2.9c0-0.6,0.4-1,1-1h7.7c0.6,0,1,0.4,1,1v2.9
				C214.5,156.2,214.1,156.7,213.5,156.7z"/>
		</g>
		<g>
			<path opacity="0.5" fill="#D87341" d="M114.2,170.5h-7.7c-0.6,0-1-0.4-1-1v-2.9c0-0.6,0.4-1,1-1h7.7c0.6,0,1,0.4,1,1v2.9
				C115.2,170.1,114.7,170.5,114.2,170.5z"/>
			<path opacity="0.5" fill="#D87341" d="M130.7,170.5H123c-0.6,0-1-0.4-1-1v-2.9c0-0.6,0.4-1,1-1h7.7c0.6,0,1,0.4,1,1v2.9
				C131.7,170.1,131.3,170.5,130.7,170.5z"/>
			<path opacity="0.5" fill="#D87341" d="M147.3,170.5h-7.7c-0.6,0-1-0.4-1-1v-2.9c0-0.6,0.4-1,1-1h7.7c0.6,0,1,0.4,1,1v2.9
				C148.3,170.1,147.8,170.5,147.3,170.5z"/>
			<path opacity="0.5" fill="#D87341" d="M163.9,170.5h-7.7c-0.6,0-1-0.4-1-1v-2.9c0-0.6,0.4-1,1-1h7.7c0.6,0,1,0.4,1,1v2.9
				C164.9,170.1,164.4,170.5,163.9,170.5z"/>
			<path opacity="0.5" fill="#D87341" d="M180.4,170.5h-7.7c-0.6,0-1-0.4-1-1v-2.9c0-0.6,0.4-1,1-1h7.7c0.6,0,1,0.4,1,1v2.9
				C181.4,170.1,181,170.5,180.4,170.5z"/>
			<path opacity="0.5" fill="#D87341" d="M197,170.5h-7.7c-0.6,0-1-0.4-1-1v-2.9c0-0.6,0.4-1,1-1h7.7c0.6,0,1,0.4,1,1v2.9
				C198,170.1,197.5,170.5,197,170.5z"/>
			<path opacity="0.5" fill="#D87341" d="M213.5,170.5h-7.7c-0.6,0-1-0.4-1-1v-2.9c0-0.6,0.4-1,1-1h7.7c0.6,0,1,0.4,1,1v2.9
				C214.5,170.1,214.1,170.5,213.5,170.5z"/>
		</g>
		<g>
			<path opacity="0.5" fill="#D87341" d="M114.2,184.4h-7.7c-0.6,0-1-0.4-1-1v-2.9c0-0.6,0.4-1,1-1h7.7c0.6,0,1,0.4,1,1v2.9
				C115.2,184,114.7,184.4,114.2,184.4z"/>
			<path opacity="0.5" fill="#D87341" d="M130.7,184.4H123c-0.6,0-1-0.4-1-1v-2.9c0-0.6,0.4-1,1-1h7.7c0.6,0,1,0.4,1,1v2.9
				C131.7,184,131.3,184.4,130.7,184.4z"/>
			<path opacity="0.5" fill="#D87341" d="M147.3,184.4h-7.7c-0.6,0-1-0.4-1-1v-2.9c0-0.6,0.4-1,1-1h7.7c0.6,0,1,0.4,1,1v2.9
				C148.3,184,147.8,184.4,147.3,184.4z"/>
			<path opacity="0.5" fill="#D87341" d="M163.9,184.4h-7.7c-0.6,0-1-0.4-1-1v-2.9c0-0.6,0.4-1,1-1h7.7c0.6,0,1,0.4,1,1v2.9
				C164.9,184,164.4,184.4,163.9,184.4z"/>
			<path opacity="0.5" fill="#D87341" d="M180.4,184.4h-7.7c-0.6,0-1-0.4-1-1v-2.9c0-0.6,0.4-1,1-1h7.7c0.6,0,1,0.4,1,1v2.9
				C181.4,184,181,184.4,180.4,184.4z"/>
			<path opacity="0.5" fill="#D87341" d="M197,184.4h-7.7c-0.6,0-1-0.4-1-1v-2.9c0-0.6,0.4-1,1-1h7.7c0.6,0,1,0.4,1,1v2.9
				C198,184,197.5,184.4,197,184.4z"/>
			<path opacity="0.5" fill="#D87341" d="M213.5,184.4h-7.7c-0.6,0-1-0.4-1-1v-2.9c0-0.6,0.4-1,1-1h7.7c0.6,0,1,0.4,1,1v2.9
				C214.5,184,214.1,184.4,213.5,184.4z"/>
		</g>
		<g>
			<path opacity="0.5" fill="#D87341" d="M114.2,198.3h-7.7c-0.6,0-1-0.4-1-1v-2.9c0-0.6,0.4-1,1-1h7.7c0.6,0,1,0.4,1,1v2.9
				C115.2,197.8,114.7,198.3,114.2,198.3z"/>
			<path opacity="0.5" fill="#D87341" d="M130.7,198.3H123c-0.6,0-1-0.4-1-1v-2.9c0-0.6,0.4-1,1-1h7.7c0.6,0,1,0.4,1,1v2.9
				C131.7,197.8,131.3,198.3,130.7,198.3z"/>
			<path opacity="0.5" fill="#D87341" d="M147.3,198.3h-7.7c-0.6,0-1-0.4-1-1v-2.9c0-0.6,0.4-1,1-1h7.7c0.6,0,1,0.4,1,1v2.9
				C148.3,197.8,147.8,198.3,147.3,198.3z"/>
			<path opacity="0.5" fill="#D87341" d="M163.9,198.3h-7.7c-0.6,0-1-0.4-1-1v-2.9c0-0.6,0.4-1,1-1h7.7c0.6,0,1,0.4,1,1v2.9
				C164.9,197.8,164.4,198.3,163.9,198.3z"/>
			<path opacity="0.5" fill="#D87341" d="M180.4,198.3h-7.7c-0.6,0-1-0.4-1-1v-2.9c0-0.6,0.4-1,1-1h7.7c0.6,0,1,0.4,1,1v2.9
				C181.4,197.8,181,198.3,180.4,198.3z"/>
			<path opacity="0.1" fill="#D87341" d="M197,198.3h-7.7c-0.6,0-1-0.4-1-1v-2.9c0-0.6,0.4-1,1-1h7.7c0.6,0,1,0.4,1,1v2.9
				C198,197.8,197.5,198.3,197,198.3z"/>
			<path opacity="0.1" fill="#D87341" d="M213.5,198.3h-7.7c-0.6,0-1-0.4-1-1v-2.9c0-0.6,0.4-1,1-1h7.7c0.6,0,1,0.4,1,1v2.9
				C214.5,197.8,214.1,198.3,213.5,198.3z"/>
		</g>
		<g>
			<g opacity="0.5">
				<path fill="#D87341" d="M110.8,130.2c-1.1,0-1.6-0.7-1.6-0.9c0-0.1,0.1-0.2,0.2-0.2c0.1,0,0.1,0,0.2,0.1
					c0.2,0.4,0.6,0.6,1.2,0.6c0.7,0,1.1-0.4,1.1-0.9c0-0.3-0.2-0.7-0.6-0.9c-0.3-0.2-0.7-0.4-1.1-0.6c-0.5-0.3-0.7-0.7-0.7-1.1
					c0-0.6,0.5-1.1,1.3-1.1c0.8,0,1.4,0.5,1.4,0.7c0,0.1-0.1,0.2-0.2,0.2c-0.1,0-0.1,0-0.2-0.1c-0.2-0.2-0.5-0.4-1-0.4
					c-0.6,0-0.9,0.4-0.9,0.8c0,0.3,0.2,0.6,0.5,0.8c0.3,0.2,0.8,0.4,1.1,0.5c0.6,0.3,0.9,0.8,0.9,1.3
					C112.4,129.5,111.8,130.2,110.8,130.2z"/>
			</g>
			<g opacity="0.5">
				<path fill="#D87341" d="M209.7,130.2c-1.1,0-1.6-0.7-1.6-0.9c0-0.1,0.1-0.2,0.2-0.2c0.1,0,0.1,0,0.2,0.1
					c0.2,0.4,0.6,0.6,1.2,0.6c0.7,0,1.1-0.4,1.1-0.9c0-0.3-0.2-0.7-0.6-0.9c-0.3-0.2-0.7-0.4-1.1-0.6c-0.5-0.3-0.7-0.7-0.7-1.1
					c0-0.6,0.5-1.1,1.3-1.1c0.8,0,1.4,0.5,1.4,0.7c0,0.1-0.1,0.2-0.2,0.2c-0.1,0-0.1,0-0.2-0.1c-0.2-0.2-0.5-0.4-1-0.4
					c-0.6,0-0.9,0.4-0.9,0.8c0,0.3,0.2,0.6,0.5,0.8c0.3,0.2,0.8,0.4,1.1,0.5c0.6,0.3,0.9,0.8,0.9,1.3
					C211.2,129.5,210.7,130.2,209.7,130.2z"/>
			</g>
			<g opacity="0.5">
				<path fill="#D87341" d="M124.9,125.8c0-0.1-0.1-0.2-0.1-0.2c0,0-0.1,0.1-0.1,0.2c-0.1,0.6-0.2,3.2-0.2,4.1
					c0,0.1-0.1,0.2-0.2,0.2c-0.1,0-0.2-0.1-0.2-0.2v0c0-1.2,0.2-3.3,0.3-4.3c0-0.3,0.2-0.5,0.5-0.5c0.2,0,0.4,0.1,0.5,0.4
					c0.4,1,0.9,3,1.2,3.9c0,0.1,0.1,0.1,0.1,0.1c0.1,0,0.1-0.1,1.3-3.9c0.1-0.3,0.3-0.4,0.5-0.4c0.3,0,0.5,0.2,0.5,0.5
					c0,0.9,0.2,3.2,0.2,4.2v0c0,0.1-0.1,0.2-0.2,0.2c-0.1,0-0.2-0.1-0.2-0.2c-0.1-1-0.2-4.1-0.2-4.1c0-0.1-0.1-0.2-0.1-0.2
					c0,0-0.1,0-0.1,0.2c-0.3,0.9-1,3.1-1.3,4c-0.1,0.2-0.2,0.3-0.4,0.3c-0.2,0-0.3-0.1-0.4-0.3C126,129.2,125.2,126.6,124.9,125.8z"
					/>
			</g>
			<g opacity="0.5">
				<path fill="#D87341" d="M161.2,130.1c-0.2,0-0.4-0.2-0.5-0.6c-0.2-0.7-0.7-3.2-0.7-3.8c0-0.1-0.1-0.2-0.1-0.2
					c-0.1,0-0.1,0.1-0.1,0.2c-0.1,0.6-0.6,2.9-0.8,3.8c-0.1,0.4-0.3,0.6-0.6,0.6c-0.2,0-0.5-0.2-0.6-0.6c-0.2-1-0.7-3.2-0.9-4.2
					c0,0,0,0,0,0c0-0.1,0.1-0.2,0.2-0.2c0.1,0,0.2,0.1,0.2,0.2c0.2,1,0.7,3.4,0.8,4.1c0,0.2,0.1,0.2,0.2,0.2c0.1,0,0.1-0.1,0.2-0.2
					c0.1-0.6,0.6-2.9,0.8-3.9c0.1-0.3,0.3-0.4,0.5-0.4c0.2,0,0.4,0.2,0.5,0.4c0.2,0.8,0.6,3,0.7,3.9c0,0.2,0.1,0.2,0.2,0.2
					c0.1,0,0.1-0.1,0.2-0.2c0.2-0.7,0.7-3.2,0.9-4.1c0-0.1,0.1-0.2,0.2-0.2c0.1,0,0.2,0.1,0.2,0.2c0,0.1,0,0.4-1,4.2
					C161.7,130,161.5,130.1,161.2,130.1z"/>
			</g>
			<g opacity="0.5">
				<path fill="#D87341" d="M143.7,129.9c0,0.1-0.1,0.2-0.2,0.2s-0.2-0.1-0.2-0.2v0c0-0.6,0-1.8,0-2.9c0-0.5,0-1,0-1.4
					c0-0.1,0-0.1-0.5-0.1c-0.3,0-0.7,0-1,0c-0.1,0-0.2-0.1-0.2-0.2c0-0.1,0.1-0.2,0.2-0.2h0c0.4,0,1.1,0,1.8,0c0.6,0,1.2,0,1.6,0h0
					c0.1,0,0.2,0.1,0.2,0.2c0,0.1-0.1,0.2-0.2,0.2h0c-0.3,0-0.5,0-0.7,0c-0.3,0-0.6,0-0.7,0c-0.1,0-0.1,0-0.1,0.1c0,0.3,0,0.8,0,1.3
					C143.6,128,143.7,129.3,143.7,129.9L143.7,129.9z"/>
			</g>
			<g opacity="0.5">
				<path fill="#D87341" d="M176.8,129.9c0,0.1-0.1,0.2-0.2,0.2s-0.2-0.1-0.2-0.2v0c0-0.6,0-1.8,0-2.9c0-0.5,0-1,0-1.4
					c0-0.1,0-0.1-0.5-0.1c-0.3,0-0.7,0-1,0c-0.1,0-0.2-0.1-0.2-0.2c0-0.1,0.1-0.2,0.2-0.2h0c0.4,0,1.1,0,1.8,0c0.6,0,1.2,0,1.6,0h0
					c0.1,0,0.2,0.1,0.2,0.2c0,0.1-0.1,0.2-0.2,0.2h0c-0.3,0-0.5,0-0.7,0c-0.3,0-0.6,0-0.7,0c-0.1,0-0.1,0-0.1,0.1c0,0.3,0,0.8,0,1.3
					C176.8,128,176.8,129.3,176.8,129.9L176.8,129.9z"/>
			</g>
			<g opacity="0.5">
				<path fill="#D87341" d="M191.6,129.9c0-0.8,0-3.3,0-4c0-0.4,0.3-0.7,0.8-0.7c0.1,0,0.5,0,0.9,0s0.7,0,0.8,0
					c0.1,0,0.2,0.1,0.2,0.2c0,0.1-0.1,0.2-0.2,0.2h0c-0.1,0-0.6,0-1,0c-0.3,0-0.5,0-0.6,0c-0.3,0-0.4,0.2-0.4,0.4c0,0.2,0,0.8,0,1.2
					c0,0.1,0,0.1,0.6,0.1c0.4,0,0.9,0,1.1,0c0,0,0.2,0,0.2,0.2c0,0.1-0.1,0.2-0.2,0.2h0c-0.2,0-0.6,0-0.9,0c-0.8,0-0.8,0-0.8,0.1
					c0,0.4,0,1.4,0,1.9v0.3c0,0.1-0.1,0.2-0.2,0.2C191.7,130.1,191.6,130.1,191.6,129.9L191.6,129.9z"/>
			</g>
		</g>
	</g>
	<path opacity="0.5" fill="#D87341" d="M263.3,82.7H162.9c-1.6,0-2.9-1.3-2.9-2.9v0c0-1.6,1.3-2.9,2.9-2.9h100.4
		c1.6,0,2.9,1.3,2.9,2.9v0C266.2,81.4,264.9,82.7,263.3,82.7z"/>
	<path opacity="0.5" fill="#D87341" d="M50.8,233.3c0,3.9-2.8,7.1-6.8,7.1v-14.3C48,226.2,50.8,229.4,50.8,233.3z"/>
	<path opacity="0.5" fill="#D87341" d="M269.2,233.3c0,3.9,2.8,7.1,6.8,7.1v-14.3C272,226.2,269.2,229.4,269.2,233.3z"/>
	<path fill="#D87341" d="M276.5,144.2c-9.4,8-13.5,11.4-21.2,17.4c-17.7,13.8-21.2,24.3-21.2,24.3c-8-25.6,16.9-41.2,42-41.7
		C276.5,144.2,275.6,144.2,276.5,144.2z"/>
	<path fill="#D87341" d="M43.7,172.3c17.8,0,35.2,0.5,35.2,0.5c3.6,7.4,7.4,16.9,7.4,16.9c6.4-31.4-16.9-45.1-42-45.6
		C43.9,144.2,44.6,172.3,43.7,172.3z"/>
	<polygon opacity="0.5" fill="#D87341" points="76.6,201.6 53.8,201.6 51.4,184.8 78.9,184.8 	"/>
	<path opacity="0.5" fill="#D87341" d="M251.8,211.2H242c-1.6,0-2.9-1.3-2.9-2.9l0,0c0-1.6,1.3-2.9,2.9-2.9h9.8
		c1.6,0,2.9,1.3,2.9,2.9l0,0C254.7,209.9,253.4,211.2,251.8,211.2z"/>
</g>
<g id="圖層_1">
	<g>
		<path fill="#275623" d="M177.3,79.8c-0.4,0-0.8-0.2-0.9-0.6c-0.2-0.5-0.6-1.7-1.1-3.2c0-0.1-0.1-0.1-0.2-0.1c-0.3,0-0.9,0-1.6,0
			c-1,0-2,0-2.4,0c-0.1,0-0.2,0-0.2,0.1c-0.4,1.3-0.8,2.4-1,3.2c-0.1,0.4-0.5,0.7-0.9,0.7c-0.4,0-0.9-0.3-0.9-0.8
			c0-0.3,0-0.4,3.6-10.3c0.3-0.7,0.8-1.1,1.4-1.1c0.6,0,1.2,0.4,1.5,1.1c1,2.9,3.1,8.5,3.6,9.7c0.1,0.2,0.1,0.3,0.1,0.5
			C178.3,79.4,177.8,79.8,177.3,79.8z M174.6,73.9c-0.5-1.5-1-3-1.2-3.7c-0.1-0.3-0.2-0.4-0.3-0.4c-0.1,0-0.2,0.1-0.3,0.5
			c-0.2,0.6-1.3,3.6-1.3,3.8c0,0.1,0,0.1,0.1,0.1c0.3,0,0.9,0,1.5,0c0.6,0,1.1,0,1.4,0C174.6,74.1,174.7,74.1,174.6,73.9
			C174.7,74,174.7,74,174.6,73.9z"/>
		<path fill="#275623" d="M181.5,72.7c0,0.7,0,1.9,0,2.8c0,0.6,0,1.2,0,1.4c0.1,1,0.7,1.5,1.3,1.5c0.9,0,1.9-0.8,2-1.8
			c0-0.4,0-0.8,0-1.5s0-1.5,0-2.4c0-0.6,0.4-0.8,0.8-0.8s0.8,0.3,0.8,0.8c0,0,0,0,0,0c0,1.7-0.1,2.7-0.1,3.7c0,0.7,0.1,1.4,0.4,2
			c0.1,0.2,0.1,0.4,0.1,0.6c0,0.5-0.4,0.8-0.8,0.8c-0.5,0-0.8-0.4-0.9-0.9c0,0,0-0.1,0-0.1c0,0,0,0-0.1,0c-0.6,0.7-1.5,1.1-2.4,1.1
			c-1.4,0-2.7-0.9-2.8-2.7c0-0.5,0-1.7,0-2.7c0-0.7,0-1.3,0-1.7c0-0.6,0.4-0.8,0.8-0.8C181.1,71.9,181.5,72.1,181.5,72.7L181.5,72.7
			z"/>
		<path fill="#275623" d="M190.3,78c0,0.3,0.2,0.4,2.6,0.4c2.4,0,3.5,1.2,3.5,2.5c0,2.1-2.1,3-4.2,3c-2.9,0-3.9-1.5-3.9-2.5
			c0-0.9,0.6-1.5,1.4-1.8c0,0,0.1,0,0.1-0.1c0,0,0-0.1-0.1-0.1c-0.6-0.2-0.9-0.7-0.9-1.1c0-0.6,0.3-1.1,0.9-1.4
			c0.1-0.1,0.2-0.1,0.2-0.1c0,0,0-0.1-0.2-0.2c-0.6-0.5-1-1.3-1-2c0-1.9,1.6-2.8,3.2-2.8c0,0,0,0,0,0c0.6,0,1.2,0.1,1.8,0.4
			c0.1,0.1,0.2,0.1,0.3,0.1c0.1,0,0.2,0,0.3-0.1c0.5-0.2,0.7-0.3,1.1-0.3c0.5,0,1.1,0,1.1,0.8c0,0.4-0.2,0.7-0.7,0.7
			c-0.1,0-0.1,0-0.2,0c-0.1,0-0.2,0-0.2,0c-0.2,0-0.2,0-0.3,0.1c0,0-0.1,0-0.1,0.1c0,0,0,0,0,0.1c0.1,0.3,0.1,0.5,0.1,0.9
			c0,1.5-1.1,2.6-3,2.7C191.4,77.3,190.3,77.4,190.3,78z M192.2,79.7c-2.1,0-2.3,1.3-2.3,1.5c0,0.1,0,1.2,2.4,1.2
			c0.4,0,2.5-0.1,2.5-1.5C194.7,79.7,193.4,79.7,192.2,79.7z M191.9,73.1c-0.9,0-1.7,0.6-1.7,1.4c0,0.4,0.2,1.4,1.6,1.4
			c0.9,0,1.7-0.5,1.7-1.4C193.6,73.8,193.1,73.1,191.9,73.1z"/>
		<path fill="#275623" d="M199.6,72.7c0,0.7,0,1.9,0,2.8c0,0.6,0,1.2,0,1.4c0.1,1,0.7,1.5,1.3,1.5c0.9,0,1.9-0.8,2-1.8
			c0-0.4,0-0.8,0-1.5s0-1.5,0-2.4c0-0.6,0.4-0.8,0.8-0.8s0.8,0.3,0.8,0.8c0,0,0,0,0,0c0,1.7-0.1,2.7-0.1,3.7c0,0.7,0.1,1.4,0.4,2
			c0.1,0.2,0.1,0.4,0.1,0.6c0,0.5-0.4,0.8-0.8,0.8c-0.5,0-0.8-0.4-0.9-0.9c0,0,0-0.1,0-0.1c0,0,0,0-0.1,0c-0.6,0.7-1.5,1.1-2.4,1.1
			c-1.4,0-2.7-0.9-2.8-2.7c0-0.5,0-1.7,0-2.7c0-0.7,0-1.3,0-1.7c0-0.6,0.4-0.8,0.8-0.8C199.2,71.9,199.6,72.1,199.6,72.7L199.6,72.7
			z"/>
		<path fill="#275623" d="M209,79.9c-2,0-2.8-1.1-2.8-1.6c0-0.4,0.4-0.8,0.8-0.8c0.2,0,0.5,0.1,0.6,0.3c0.2,0.3,0.6,0.6,1.3,0.6
			c0.8,0,1.2-0.4,1.2-0.8c0-0.5-0.4-0.8-2.2-1.7c-1-0.4-1.4-1.2-1.4-2c0-1.1,0.9-2.1,2.4-2.1c1.5,0,2.5,0.7,2.5,1.3
			c0,0.4-0.4,0.8-0.8,0.8c-0.2,0-0.4-0.1-0.7-0.3c-0.2-0.2-0.4-0.4-1-0.4c-0.5,0-0.8,0.3-0.8,0.7c0,0.2,0.2,0.5,0.5,0.7
			c0.4,0.2,1.1,0.5,1.6,0.8c1.1,0.6,1.6,1.4,1.6,2.2C211.8,78.8,210.6,79.9,209,79.9z"/>
		<path fill="#275623" d="M216.1,73.4c-0.2,0-0.2,0.1-0.2,0.2c0,0.6,0,2,0,3c0,1.2,0,1.8,0.9,1.8c0.1,0,0.2,0,0.4,0c0,0,0.1,0,0.1,0
			c0.4,0,0.7,0.4,0.7,0.7c0,0.6-0.5,0.8-1.4,0.8c-2.4,0-2.4-2.1-2.4-2.8c0-0.9,0-2.5,0-3.2c0-0.1,0-0.2,0-0.2c0-0.2-0.1-0.2-0.3-0.2
			h-0.5c-0.5,0-0.7-0.4-0.7-0.8c0-0.4,0.2-0.7,0.7-0.7h0.5c0.3,0,0.3,0,0.3-0.3c0,0,0-0.3,0-0.7c0-0.2,0-0.4,0-0.6c0,0,0,0,0,0
			c0-0.5,0.4-0.7,0.8-0.7c0.8,0,0.8,0.8,0.8,1c0,0.4,0,1,0,1c0,0.3,0.1,0.3,0.2,0.3h1.1c0.5,0,0.7,0.4,0.7,0.8
			c0,0.4-0.2,0.8-0.7,0.8H216.1z"/>
		<path fill="#275623" d="M224.6,79.7c-0.6,0-0.9-0.4-0.9-0.9c0-0.4,0.1-0.7,0.5-1.1c1.1-1.2,3-3.2,4.4-4.9c0.6-0.8,0.9-1.5,0.9-2
			c0-1-0.8-1.6-1.7-1.6c-0.7,0-1.4,0.4-2,1.2c-0.2,0.3-0.5,0.5-0.8,0.5c-0.5,0-0.9-0.4-0.9-0.8c0-0.6,1.2-2.5,3.7-2.5
			c1.9,0,3.6,1.2,3.6,3.1c0,0.9-0.4,2-1.3,3.2c-1.2,1.5-2.8,2.9-4.1,4.3c1.3,0,3.1-0.1,4.5-0.1c0.7,0,1,0.4,1,0.8
			c0,0.5-0.4,0.9-1,0.9H224.6z"/>
		<path fill="#275623" d="M233.4,75.8c-0.1-0.7-0.1-1.4-0.1-2c0-0.6,0-1.2,0.1-1.9c0.2-2.8,1.7-4.3,3.9-4.3c2.1,0,3.6,1.5,3.9,4.1
			c0.1,0.7,0.1,1.4,0.1,2.1c0,1.8-0.1,6.2-4,6.2C235.2,79.9,233.6,78.5,233.4,75.8z M239.3,75.8c0.1-0.7,0.1-1.5,0.1-2.3
			c0-1.2,0-4.4-2.2-4.4c-1.1,0-2,1-2.1,2.7c0,0.6-0.1,1.2-0.1,1.8c0,0.7,0,1.3,0.1,2c0.2,1.6,1.1,2.6,2.1,2.6
			C238.3,78.2,239.1,77.3,239.3,75.8z"/>
		<path fill="#275623" d="M247.1,79.8c-0.5,0-0.9-0.3-0.9-0.9c0-1.5,0.1-4.9,0.1-7c0-2.2-0.1-2.4-0.6-2.4c0,0-0.1,0-0.1,0
			c0,0,0,0-0.1,0c-0.5,0-0.8-0.4-0.8-0.8c0-0.5,0.3-0.9,0.8-1c0.3,0,0.4,0,0.8,0c1.1,0,1.8,0.7,1.9,1.7c0,0.2,0,0.5,0,0.8
			c0,1.3,0,3.4,0,5.7c0,1,0,2,0,3c0,0,0,0,0,0C248,79.5,247.6,79.8,247.1,79.8z"/>
		<path fill="#275623" d="M258.5,67.7c1.2,0,1.8,0.7,1.8,1.5c0,0.3-0.1,0.7-0.3,1c-1.3,2.4-3.7,5.7-4.4,8.7c-0.1,0.6-0.6,0.9-1,0.9
			c-0.4,0-0.9-0.3-0.9-0.9c0-0.1,0-0.2,0-0.4c0.7-2.7,3.5-6.8,4.4-8.6c0-0.1,0.1-0.2,0.1-0.3c0-0.2-0.1-0.3-0.3-0.3
			c-0.1,0-4.1,0.1-4.3,0.1c0,0-0.1,0-0.1,0c-0.6,0-0.9-0.4-0.9-0.8c0-0.4,0.3-0.9,0.9-0.9C253.6,67.7,253.6,67.7,258.5,67.7z"/>
	</g>
	<g>
		<path fill="#275623" d="M107.8,211.2c-1.7,2.2-4.3,3.9-4.6,3.9c-0.2,0-0.3-0.2-0.3-0.3c0-0.1,0.1-0.2,0.2-0.3
			c1.7-0.8,3.5-2.4,4.7-4l0.1-0.1v-3.1h-4c-0.2,0-0.3-0.1-0.3-0.3c0-0.1,0.1-0.3,0.3-0.3l4,0v-1.4c0-0.2,0.2-0.3,0.3-0.3
			c0.2,0,0.3,0.1,0.3,0.3l0,1.4l4,0c0.2,0,0.3,0.1,0.3,0.3c0,0.1-0.1,0.3-0.3,0.3h-4c0,1.2,0,2.7,0,3.1c1.2,1.6,3.1,3.1,4.8,3.9
			c0.1,0.1,0.2,0.2,0.2,0.3c0,0.2-0.2,0.4-0.4,0.4c-0.4,0-2.9-1.7-4.6-3.8c0,1.4,0,4.1,0,4.1c0,0.2-0.2,0.3-0.3,0.3
			c-0.2,0-0.3-0.1-0.3-0.3L107.8,211.2z M103.8,211.6c-0.2,0-0.3-0.1-0.3-0.3c0-0.1,0-0.2,0.1-0.2c0.9-0.7,1.6-2,1.9-3
			c0-0.1,0.2-0.2,0.3-0.2c0.2,0,0.3,0.1,0.3,0.3c0,0.2-0.2,0.6-0.4,1c0.4,0.2,1.2,0.9,1.2,1.2c0,0.2-0.2,0.3-0.3,0.3
			c-0.1,0-0.1,0-0.2-0.1c-0.3-0.4-0.7-0.8-0.9-1C104.8,210.7,104.1,211.6,103.8,211.6z M109.5,210.7c-0.2,0-0.3-0.1-0.3-0.3
			c0-0.1,0-0.1,0.1-0.2c0.5-0.6,1-1.5,1.2-2.2c0-0.1,0.1-0.2,0.2-0.2c0.2,0,0.4,0.1,0.4,0.3c0,0.2-0.5,1.1-0.5,1.1c0,0,0,0,0,0
			c0.2,0.1,1.9,1,1.9,1.5c0,0.2-0.2,0.3-0.3,0.3c-0.1,0-0.2,0-0.2-0.1c-0.5-0.5-1-1-1.6-1.3C109.9,210.5,109.7,210.7,109.5,210.7z"
			/>
		<path fill="#275623" d="M115.4,215.2c0.1-2.2,0.1-6.2,0.1-8.8c0-1,0.9-1,1.9-1c0.4,0,0.8,0,1,0c0.6,0,1,0.3,1,0.8
			c0,0.3,0,0.7,0,1.1c0,0.3,0,0.5,0,0.7c0,0.5-0.3,0.9-1.1,0.9c-0.2,0-0.6,0-1,0c-0.4,0-0.9,0-1.2,0v1.2c0,1.5,0,3.2,0,5
			c0,0.2-0.2,0.3-0.3,0.3C115.6,215.5,115.4,215.4,115.4,215.2L115.4,215.2z M118.9,207c0-1,0-1.1-1.4-1.1c-1.3,0-1.4,0-1.4,1.1
			H118.9z M116.1,207.5v1.1c0.3,0,0.8,0,1.3,0c1.4,0,1.5,0,1.5-1.1H116.1z M120.8,212.3h-1.5c-0.1,1.4-0.5,2.2-1.9,2.7
			c-0.1,0-0.1,0-0.2,0c-0.2,0-0.3-0.1-0.3-0.3c0-0.1,0.1-0.2,0.2-0.3c1.2-0.3,1.5-1.1,1.5-2.1h-1.3c-0.2,0-0.3-0.1-0.3-0.3
			c0-0.1,0.1-0.3,0.3-0.3l1.4,0v-0.4c0-0.3,0-0.8,0-1.1l-1.1,0c-0.2,0-0.3-0.1-0.3-0.3c0-0.1,0.1-0.3,0.3-0.3h4.8
			c0.2,0,0.3,0.1,0.3,0.3c0,0.1-0.1,0.3-0.3,0.3l-1,0v1.5l1.4,0c0.2,0,0.3,0.1,0.3,0.3c0,0.1-0.1,0.3-0.3,0.3h-1.4v2.3
			c0,0.2-0.1,0.3-0.3,0.3c-0.1,0-0.3-0.1-0.3-0.3V212.3z M120.8,210.4h-1.5v1.5h1.5V210.4z M122.9,209c-0.4,0-0.9,0-1.1,0
			c-0.8,0-1-0.4-1.1-0.9c0-0.2,0-0.4,0-0.7c0-0.4,0-0.7,0-1.1c0-0.5,0.4-0.8,1-0.9c0.2,0,0.6,0,1.1,0c1.1,0,1.9,0,2,1
			c0,2,0,4.3,0,6.1c0,0.6,0,1.1,0,1.5c0,0.7-0.2,1.4-1.6,1.4c-0.8,0-1.1-0.1-1.1-0.4c0-0.2,0.1-0.3,0.3-0.3h0c0.3,0,0.6,0.1,0.8,0.1
			c0.6,0,0.9-0.2,0.9-0.9c0-0.4,0-0.8,0-1.3c0-1,0-2.1,0-3.1V209C123.8,209,123.3,209,122.9,209z M124.2,207c0-1.1-0.1-1.1-1.4-1.1
			c-1.3,0-1.4,0-1.4,1.1H124.2z M124.2,207.5h-2.9c0,1.1,0,1.1,1.5,1.1c0.5,0,1.1,0,1.4,0V207.5z"/>
		<path fill="#275623" d="M132.7,205.8c-0.2-0.2-0.4-0.3-0.5-0.3c-0.2,0-0.3,0.1-0.5,0.3c-1.4,1.6-4.1,3.3-4.4,3.3
			c-0.2,0-0.3-0.2-0.3-0.3c0-0.1,0.1-0.2,0.2-0.3c1.5-0.7,3.2-2.1,4.1-3.2c0.2-0.3,0.6-0.4,0.9-0.4c0.3,0,0.6,0.1,0.9,0.4
			c1.2,1.2,2.7,2.2,4.1,2.8c0.1,0.1,0.2,0.2,0.2,0.3c0,0.2-0.1,0.3-0.3,0.3C136.6,208.9,134.1,207.2,132.7,205.8z M132.5,211.1
			c-1.1,0-2.2,0-3,0c-1.2,0-1.2-0.6-1.2-1.5c0-0.6,0-1.3,1.1-1.3c0.8,0,2.1,0,3.3,0c0.8,0,1.5,0,2.1,0c0.6,0,1.1,0.4,1.1,0.9
			c0,0.2,0,0.3,0,0.5c0,0.8,0,1.4-1.1,1.4C134.2,211.1,133.3,211.1,132.5,211.1z M131.9,208.8c-0.9,0-1.7,0-2.2,0
			c-0.7,0-0.7,0.4-0.7,1c0,0.4,0,0.8,0.7,0.9c0.6,0,1.4,0,2.2,0V208.8z M134.2,215.3c-0.6,0-1.3,0-2,0c-0.7,0-1.4,0-2,0
			c-1.2,0-1.2-0.6-1.2-1.7c0-0.3,0-0.5,0-0.8c0-0.5,0.3-0.9,1.1-0.9c0.6,0,1.3,0,2,0c0.7,0,1.5,0,2,0c0.7,0,1.1,0.5,1.1,0.9
			c0,0.2,0,0.5,0,0.7c0,0.3,0,0.6,0,0.8C135.3,214.9,134.9,215.2,134.2,215.3z M134.7,213.3c0-0.5,0-0.9-0.7-0.9c-0.7,0-1.7,0-2.6,0
			c-0.5,0-0.9,0-1.2,0c-0.4,0-0.6,0.2-0.6,0.6c0,0.1,0,0.2,0,0.4H134.7z M129.6,213.8c0,0.2,0,0.3,0,0.5c0,0.5,0.3,0.6,2.5,0.6
			c0.7,0,1.5,0,2,0c0.7,0,0.7-0.4,0.7-1H129.6z M130.7,210.5c-0.1,0-0.1,0-0.2-0.1c-0.2-0.3-0.5-0.6-0.7-0.9c0,0,0-0.1,0-0.1
			c0-0.1,0.2-0.2,0.3-0.2c0.2,0,1,0.9,1,1.1C131.1,210.4,130.9,210.5,130.7,210.5z M130.7,207.5c-0.2,0-0.3-0.1-0.3-0.3
			c0-0.1,0.1-0.3,0.3-0.3h3.1c0.2,0,0.3,0.1,0.3,0.3c0,0.1-0.1,0.3-0.3,0.3H130.7z M133.1,210.7
			C133.1,210.7,133.1,210.6,133.1,210.7c0-0.1,0-0.1,0-0.1c0.2-0.4,0.6-0.9,0.7-1.4c0-0.1,0.1-0.1,0.2-0.1c0.2,0,0.3,0.1,0.3,0.3
			c0,0.1-0.6,1-0.8,1.3c1.7,0,1.8,0,1.8-1c0-0.6,0-0.9-0.7-1c-0.6,0-1.5,0-2.3,0v1.9H133.1z"/>
		<path fill="#275623" d="M140.2,212.1c-0.7,0-1.1-0.2-1.1-1c0-0.6,0-1.3,0-2s0-1.4,0-2c0-0.5,0.3-0.9,0.7-0.9c0.1,0,0.3,0,0.4,0
			s0.3,0,0.4,0c0.5,0,0.7,0.4,0.7,0.9c0,0.7,0,1.5,0,2.4c0,0.6,0,1.2,0,1.7C141.3,212.1,140.7,212.1,140.2,212.1z M140.8,209.4
			c0-0.7,0-1.5,0-2.1c0-0.5-0.1-0.6-0.6-0.6c-0.3,0-0.6,0-0.6,0.5c0,0.6,0,1.4,0,2.2c0,0.6,0,1.1,0,1.6c0,0.5,0.2,0.5,0.6,0.5
			c0.4,0,0.6-0.1,0.6-0.6C140.8,210.6,140.8,210,140.8,209.4z M145.1,205.4c0-0.2,0.2-0.3,0.3-0.3c0.2,0,0.3,0.1,0.3,0.3v0.9
			c1.1,0,2.2,0,3.1,0c0.2,0,0.3,0.1,0.3,0.3c0,0.1-0.1,0.3-0.3,0.3c-0.9,0-2.1,0-3.2,0c-0.8,0-1.6,0-2.2,0c-0.6,0-0.8,0.3-0.8,0.8v0
			c0,0.5,0,1,0,1.4c0,2.1-0.2,4.2-1.4,5.9c-0.1,0.1-0.2,0.2-0.3,0.2c-0.2,0-0.3-0.1-0.3-0.3c0-0.1,0-0.1,0.1-0.2
			c1.2-1.6,1.4-3.4,1.4-5.2c0-0.6,0-1.3,0-1.9v-0.1c0-0.8,0.5-1.2,1.4-1.2h1.8L145.1,205.4z M142.6,214.2
			C142.6,214.1,142.6,214.1,142.6,214.2c0.4-0.8,0.5-1.9,0.5-2.9c0-0.4,0-0.8,0-1.2c0-0.1,0.1-0.2,0.2-0.2c0.1,0,0.2,0.1,0.2,0.2
			v0.9c0,1.7-0.2,3.4-0.7,3.4C142.7,214.4,142.6,214.3,142.6,214.2z M144.1,209.1h-0.9c-0.2,0-0.3-0.1-0.3-0.3
			c0-0.1,0.1-0.3,0.3-0.3l0.9,0v-1.1c0-0.2,0.1-0.3,0.3-0.3c0.1,0,0.3,0.1,0.3,0.3v1.1l0.9,0c0.2,0,0.3,0.1,0.3,0.3
			c0,0.1-0.1,0.3-0.3,0.3h-0.9l0,6.1c0,0.2-0.1,0.2-0.3,0.2c-0.1,0-0.3-0.1-0.3-0.2L144.1,209.1z M145.1,210c0-0.1,0.1-0.2,0.2-0.2
			c0.1,0,0.2,0.1,0.2,0.2v3.2c0,0.1-0.1,0.2-0.2,0.2c-0.1,0-0.2-0.1-0.2-0.2V210z M145.7,214.2C145.7,214.1,145.7,214.1,145.7,214.2
			c0.5-0.9,0.6-2.2,0.6-3.3c0-0.3,0-0.6,0-0.8c0-0.1,0.1-0.2,0.2-0.2c0.1,0,0.2,0.1,0.2,0.2c0,4-0.6,4.3-0.8,4.3
			C145.8,214.4,145.7,214.3,145.7,214.2z M147.2,209.1h-1c-0.2,0-0.3-0.1-0.3-0.3c0-0.1,0.1-0.3,0.3-0.3l1,0v-1.1
			c0-0.2,0.1-0.3,0.3-0.3c0.1,0,0.3,0.1,0.3,0.3v1.1l1.1,0c0.2,0,0.3,0.1,0.3,0.3c0,0.1-0.1,0.3-0.3,0.3h-1.2l0,6.1
			c0,0.2-0.1,0.2-0.3,0.2c-0.1,0-0.3-0.1-0.3-0.2L147.2,209.1z M148.8,210.1c0,0.5,0,1.5,0,2.3c0,0.5,0,1,0,1.2c0,0.1,0,0.2,0.2,0.2
			c0.2,0,0.3-0.1,0.3-0.3c0-0.2,0-0.5,0-0.8c0-0.1,0.1-0.2,0.2-0.2c0.1,0,0.2,0.1,0.2,0.2v0.3c0,1.1-0.3,1.2-0.7,1.2
			c-0.5,0-0.6-0.2-0.6-0.7v-3.4c0-0.2,0.1-0.3,0.2-0.3S148.8,209.9,148.8,210.1L148.8,210.1z"/>
	</g>
	<g>
		<path fill="#275623" d="M121.8,239.7c-1.8,2.6-4.1,4.1-4.4,4.1c-0.2,0-0.4-0.2-0.4-0.3c0-0.1,0-0.2,0.2-0.3c2.1-1.2,3.9-3.2,5-5.2
			l-4.4,0c-0.2,0-0.3-0.1-0.3-0.3c0-0.1,0.1-0.3,0.3-0.3h8.8c0.2,0,0.3,0.1,0.3,0.3c0,0.1-0.1,0.3-0.3,0.3l-3.6,0
			c-0.3,0.5-0.6,1-0.9,1.4c0,0,0.1,0,0.1,0c0.2,0,0.3,0.1,0.3,0.3l0,6.7c0,0.2-0.2,0.3-0.3,0.3c-0.2,0-0.3-0.1-0.3-0.3L121.8,239.7z
			 M126.3,243.2c-0.7-1-1.8-1.8-2.8-2.4c-0.1-0.1-0.2-0.2-0.2-0.3c0-0.2,0.1-0.3,0.3-0.3c0.4,0,3.3,2.1,3.3,2.8
			c0,0.2-0.2,0.4-0.4,0.4C126.5,243.4,126.4,243.3,126.3,243.2z"/>
		<path fill="#275623" d="M132.8,244c-1.7,0.6-3.5,1.1-3.7,1.1c-0.2,0-0.3-0.2-0.3-0.3c0-0.1,0.1-0.3,0.2-0.3c0.3-0.1,0.7-0.2,1-0.2
			l0-6.7h-0.9c-0.2,0-0.3-0.1-0.3-0.3c0-0.1,0.1-0.3,0.3-0.3h5.1c0.2,0,0.3,0.1,0.3,0.3c0,0.1-0.1,0.3-0.3,0.3h-0.9l0,8.9
			c0,0.2-0.2,0.3-0.3,0.3c-0.2,0-0.3-0.1-0.3-0.3V244z M132.8,237.5h-2.1v1.8h2.1V237.5z M132.8,239.8h-2.1v1.7h2.1V239.8z
			 M132.8,242h-2.1l0,2.1c0.7-0.2,1.4-0.4,2.1-0.7L132.8,242z M134.3,239.2c-0.2,0-0.3-0.1-0.3-0.3c0-0.1,0.1-0.3,0.3-0.3
			c0.9,0,2.2,0,3.1,0c0.6,0,1,0.3,1,0.9c0,0.4-0.2,2.4-1.5,4.4c0.6,0.8,1.4,1.5,2.3,1.9c0.1,0.1,0.2,0.2,0.2,0.3
			c0,0.2-0.1,0.4-0.3,0.4s-1.4-0.6-2.5-2c-1.1,1.4-2.4,2.1-2.6,2.1c-0.2,0-0.3-0.2-0.3-0.3c0-0.1,0-0.2,0.2-0.3
			c0.9-0.5,1.7-1.2,2.4-2c-1.2-1.8-1.5-3.6-1.5-3.8c0-0.2,0.2-0.3,0.3-0.3c0.1,0,0.2,0.1,0.3,0.2c0.2,1.1,0.6,2.3,1.2,3.4
			c1.1-1.8,1.2-3.5,1.2-3.8c0-0.2-0.1-0.4-0.4-0.4C136.6,239.2,135.2,239.2,134.3,239.2L134.3,239.2z"/>
		<path fill="#275623" d="M142.9,241c-0.6-0.5-1.1-0.6-1.7-0.8c-0.1,0-0.2-0.1-0.2-0.2c0-0.2,0.1-0.3,0.3-0.3c0.2,0,1.3,0.3,1.9,0.8
			c0.1,0.1,0.2,0.2,0.2,0.3c0,0.2-0.1,0.4-0.3,0.4C143,241.1,142.9,241.1,142.9,241z M141.8,246.5c-0.2,0-0.3-0.2-0.3-0.3
			c0-0.1,0-0.1,0.1-0.2c0.8-0.9,1.3-1.9,1.9-3.2c0-0.1,0.2-0.2,0.3-0.2c0.2,0,0.3,0.1,0.3,0.3c0,0.1-0.7,1.9-1.9,3.4
			C142,246.5,141.9,246.5,141.8,246.5z M143.4,238.6c-0.5-0.6-1-0.9-1.6-1.2c-0.1,0-0.1-0.1-0.1-0.2c0-0.1,0.1-0.3,0.3-0.3
			c0.3,0,1.5,0.7,1.8,1.2c0.1,0.1,0.1,0.2,0.1,0.3c0,0.2-0.2,0.4-0.4,0.4C143.6,238.7,143.5,238.6,143.4,238.6z M146.1,238.9
			c-0.3-0.5-1-1.1-1.2-1.3c-0.1-0.1-0.1-0.1-0.1-0.2c0-0.1,0.1-0.3,0.3-0.3c0.3,0,1.6,1.2,1.6,1.6c0,0.2-0.2,0.4-0.3,0.4
			C146.3,239,146.2,239,146.1,238.9z M145.8,244c0,1,0,1.9,0,2.5v0c0,0.2-0.2,0.3-0.3,0.3c-0.2,0-0.3-0.1-0.3-0.3c0-0.7,0-1.8,0-2.8
			c0-1.1,0-2.2,0-2.9c0-0.6,0.4-1.1,1.3-1.1c0.3,0,0.7,0,1,0l0-2.9c0-0.2,0.2-0.3,0.3-0.3s0.3,0.1,0.3,0.3l0,2.9c0.4,0,0.7,0,1.1,0
			c1,0,1.3,0.5,1.3,1.2c0,0.6,0,3,0,3.4c0,0.4,0,0.9,0,1.3c0,0.6-0.3,1.2-1.5,1.2c-0.9,0-1.1-0.2-1.1-0.4c0-0.2,0.1-0.3,0.3-0.3h0.1
			c0.3,0,0.6,0.1,0.8,0.1c0.5,0,0.8-0.2,0.8-0.7c0-0.3,0-0.8,0-1.4H145.8z M145.8,242.1v1.4h4.1c0-0.5,0-0.9,0-1.4H145.8z
			 M150,241.6c0-1,0-1.4-0.8-1.4c-0.4,0-0.8,0-1.3,0c-0.5,0-0.9,0-1.3,0c-0.5,0-0.7,0.3-0.7,0.7c0,0.2,0,0.5,0,0.7H150z M149,238.8
			c0-0.1,0-0.2,0.1-0.2c0.4-0.4,1-1.1,1.2-1.5c0.1-0.1,0.1-0.1,0.2-0.1c0.2,0,0.4,0.2,0.4,0.4c0,0.3-1.3,1.8-1.7,1.8
			C149.1,239.1,149,239,149,238.8z"/>
		<path fill="#275623" d="M158.1,241.9l-4.7,0c-0.3,0-0.4-0.2-0.4-0.4s0.1-0.4,0.4-0.4l4.7,0l4.7,0c0.2,0,0.4,0.2,0.4,0.4
			s-0.1,0.4-0.4,0.4L158.1,241.9z"/>
		<path fill="#275623" d="M166.1,246.5l0.2-6.4c-0.4,0.6-0.7,1-1.1,1.4c-0.1,0.1-0.2,0.1-0.3,0.1c-0.2,0-0.3-0.1-0.3-0.3
			c0-0.1,0-0.1,0.1-0.2c1.2-1.3,2-2.7,2.6-4.4c0.1-0.2,0.2-0.2,0.3-0.2c0.2,0,0.4,0.1,0.4,0.3c0,0.1-0.4,1-1,2.1l-0.1,7.5
			c0,0.2-0.2,0.3-0.3,0.3C166.2,246.8,166.1,246.7,166.1,246.5L166.1,246.5z M169.8,237.7c-0.1,0.5-0.2,1-0.3,1.6c0.4,0,0.8,0,1,0h0
			c0.5,0,0.9,0.2,0.9,0.8c0,0.3-0.5,4.4-3.1,6.5c-0.1,0.1-0.2,0.1-0.3,0.1c-0.2,0-0.3-0.1-0.3-0.3c0-0.1,0-0.2,0.2-0.3
			c1.2-0.8,2-2.1,2.4-3.4c-0.4-0.2-0.9-0.4-1.2-0.5c-0.1,0-0.2-0.1-0.2-0.2c0-0.2,0.1-0.3,0.3-0.3c0,0,0.5,0.1,1.2,0.5
			c0-0.1,0.3-1.3,0.3-1.9c0-0.3-0.2-0.4-0.4-0.4c-0.1,0-0.7,0-1,0c-0.3,1.1-0.8,2.1-1.3,2.9c-0.1,0.1-0.2,0.2-0.3,0.2
			c-0.2,0-0.3-0.1-0.3-0.3c0-0.1,0-0.1,0.1-0.2c0.9-1.3,1.5-2.8,1.8-4.7l-0.9,0c-0.2,0-0.3-0.1-0.3-0.3c0-0.1,0.1-0.3,0.3-0.3h3.2
			c0.2,0,0.3,0.1,0.3,0.3c0,0.1-0.1,0.3-0.3,0.3L169.8,237.7z M172.3,237.7c0-0.2,0.2-0.3,0.3-0.3c0.2,0,0.3,0.1,0.3,0.3v6.2
			c0,0.2-0.1,0.3-0.3,0.3c-0.1,0-0.3-0.1-0.3-0.3V237.7z M174.8,243.6c0,0.2,0,1.3,0,1.7v0c0,0.6-0.4,1.2-1.5,1.2
			c-0.8,0-1-0.2-1-0.4c0-0.2,0.1-0.3,0.3-0.3c0,0,0,0,0.1,0c0.2,0,0.5,0.1,0.6,0.1c0.5,0,0.8-0.2,0.8-0.7c0-0.5,0-1.7,0-3
			c0-1.9,0-4.1,0-5.3v0c0-0.2,0.2-0.3,0.3-0.3c0.2,0,0.3,0.1,0.3,0.3V243.6z"/>
		<path fill="#275623" d="M182.1,241.9l-4.7,0c-0.3,0-0.4-0.2-0.4-0.4s0.1-0.4,0.4-0.4l4.7,0l4.7,0c0.2,0,0.4,0.2,0.4,0.4
			s-0.1,0.4-0.4,0.4L182.1,241.9z"/>
		<path fill="#275623" d="M190.5,246.5l0.1-6.5c-0.1,0.1-1.3,1.8-1.7,1.8c-0.2,0-0.3-0.1-0.3-0.3c0-0.1,0-0.2,0.1-0.2
			c1.2-1.2,2.4-2.9,3-4.7c0-0.2,0.2-0.2,0.3-0.2c0.2,0,0.4,0.1,0.4,0.3c0,0.2-0.4,1.2-1.1,2.3l-0.1,7.4c0,0.2-0.2,0.3-0.3,0.3
			C190.7,246.8,190.5,246.7,190.5,246.5L190.5,246.5z M195.1,243.6l0-3c-0.7,1.5-1.6,2.8-2.8,4c-0.1,0.1-0.2,0.1-0.3,0.1
			c-0.2,0-0.3-0.1-0.3-0.3c0-0.1,0-0.2,0.1-0.3c1.3-1.1,2.3-2.5,3-4.2l-2.5,0c-0.2,0-0.3-0.2-0.3-0.3s0.1-0.3,0.3-0.3l2.7,0v-2.6
			c0-0.2,0.2-0.3,0.3-0.3c0.2,0,0.3,0.1,0.3,0.3v2.6l3,0c0.2,0,0.3,0.1,0.3,0.3c0,0.2-0.1,0.3-0.3,0.3l-2.8,0c0.9,1.7,2.1,3,3.3,4
			c0.1,0.1,0.1,0.2,0.1,0.3c0,0.2-0.1,0.3-0.3,0.3c-0.1,0-0.2,0-0.3-0.1c-1.1-0.9-2.2-2.3-3-3.9l0,3l0,3c0,0.2-0.2,0.3-0.3,0.3
			c-0.2,0-0.3-0.1-0.3-0.3L195.1,243.6z"/>
		<path fill="#275623" d="M203.4,241.6c-0.6,0.9-1.3,1.9-1.9,2.5c-0.1,0.1-0.2,0.1-0.3,0.1c-0.2,0-0.3-0.2-0.3-0.3
			c0-0.1,0-0.2,0.1-0.2c0.7-0.6,1.8-1.8,2.4-3v-0.3l-2,0c-0.2,0-0.3-0.1-0.3-0.3c0-0.1,0.1-0.3,0.3-0.3l2,0l0-1.8
			c-0.2,0-1.3,0.3-1.6,0.3c-0.2,0-0.3-0.1-0.3-0.3c0-0.1,0.1-0.3,0.3-0.3c1.2-0.1,2.4-0.4,3.5-0.8c0,0,0.1,0,0.1,0
			c0.2,0,0.3,0.1,0.3,0.3c0,0.3-0.4,0.4-1.5,0.7c0,0.1,0,1,0,2l1.7,0c0.2,0,0.3,0.1,0.3,0.3c0,0.1-0.1,0.3-0.3,0.3l-1.7,0
			c0,0.4,0,0.8,0,1.2c0,1.8,0,5,0,5c0,0.2-0.2,0.3-0.3,0.3c-0.2,0-0.3-0.1-0.3-0.3L203.4,241.6z M205.4,242.8c-0.3-0.4-1-0.9-1.2-1
			c-0.1,0-0.1-0.1-0.1-0.2c0-0.1,0.1-0.3,0.3-0.3c0.3,0,1.2,0.8,1.5,1c0.1,0.1,0.1,0.2,0.1,0.2c0,0.2-0.1,0.3-0.3,0.3
			C205.5,242.9,205.4,242.9,205.4,242.8z M209.6,246.1c-0.3,0-0.6,0-1,0c-0.3,0-0.7,0-1,0c-0.7,0-1.2-0.4-1.2-1.1c0-0.9,0-2,0-3
			c0-1,0-2.1,0-3c0-0.5,0.4-0.9,1.2-1c0.2,0,0.5,0,0.9,0c0.4,0,0.8,0,1.1,0c0.7,0,1.1,0.4,1.2,1.1c0,0.9,0.1,1.9,0.1,2.9
			c0,1,0,2.1-0.1,3C210.7,245.7,210.3,246.1,209.6,246.1z M210.1,242c0-1,0-2,0-2.7c0-0.5-0.3-0.7-0.7-0.7c-0.2,0-0.6,0-0.9,0
			c-0.8,0-1.3,0-1.4,0.7c0,0.7,0,1.6,0,2.5c0,1.1,0,2.2,0,3c0,0.7,0.5,0.7,1.6,0.7c1.1,0,1.4-0.1,1.4-0.7
			C210.1,244,210.1,243,210.1,242z"/>
		<path fill="#275623" d="M217.4,241.3c0,1.4,0,2.7,0,3.4c0,0.8,0.7,0.9,1.7,0.9c2.3,0,2.7-0.3,2.7-1.7c0-0.2,0.2-0.3,0.3-0.3
			c0,0,0.4,0,0.4,0.4c0,2.1-1.4,2.2-3.2,2.2c-1.2,0-2.5,0-2.5-1.5c0-0.6,0-1.9,0-3.3l-3.2,0.7c0,0,0,0-0.1,0c-0.2,0-0.3-0.2-0.3-0.3
			c0-0.1,0.1-0.3,0.3-0.3l3.4-0.7l0-3.8c0-0.2,0.2-0.3,0.3-0.3c0.2,0,0.3,0.1,0.3,0.3v0c0,0.9-0.1,2.3-0.1,3.6l4.9-1c0,0,0,0,0.1,0
			c0.2,0,0.3,0.2,0.3,0.3c0,0.1-0.1,0.3-0.2,0.3L217.4,241.3z"/>
		<path fill="#275623" d="M122.6,259.2c0.7,2.1,2.5,4,4.4,4.5c0.2,0,0.3,0.2,0.3,0.3c0,0.2-0.1,0.4-0.4,0.4c-0.6,0-3.7-1.6-4.7-4.9
			c-1.1,4.2-4.7,5-4.8,5c-0.2,0-0.4-0.2-0.4-0.3c0-0.1,0.1-0.3,0.3-0.3c2.5-0.8,3.8-2.6,4.3-4.7l-3.5,0c-0.2,0-0.3-0.2-0.3-0.3
			c0-0.2,0.1-0.3,0.3-0.3l3.6,0c0.1-0.5,0.1-0.7,0.1-1.5c0-0.4,0-0.9,0-1.2l-4.2,0c-0.2,0-0.3-0.2-0.3-0.3c0-0.2,0.1-0.3,0.3-0.3h9
			c0.2,0,0.3,0.1,0.3,0.3c0,0.1-0.1,0.3-0.3,0.3l-4.1,0c0,1.8,0,2-0.1,2.7l3.8,0c0.2,0,0.3,0.1,0.3,0.3c0,0.1-0.1,0.3-0.3,0.3
			L122.6,259.2z"/>
		<path fill="#275623" d="M130.1,264.5l0.1-6.3c-1,1.6-1.2,1.7-1.4,1.7c-0.2,0-0.3-0.1-0.3-0.3c0-0.1,0-0.1,0.1-0.2
			c1.1-1.3,1.9-2.8,2.5-4.6c0-0.2,0.2-0.2,0.3-0.2c0.2,0,0.4,0.1,0.4,0.3c0,0.1-0.3,1-0.9,2.2l-0.2,7.4c0,0.2-0.2,0.3-0.3,0.3
			C130.3,264.8,130.1,264.7,130.1,264.5L130.1,264.5z M132.8,262.4v2.1c0,0.2-0.2,0.3-0.3,0.3s-0.3-0.1-0.3-0.3c0-2.4,0-6.2,0-8.7
			c0-0.9,0.7-0.9,1.5-0.9c0.8,0,1.4,0.1,1.4,0.8c0,0.3,0,0.7,0,1.1c0,1.3-0.3,1.5-1.9,1.5c-0.1,0-0.3,0-0.4,0c0,0.2,0,0.8,0,1.4h1.8
			c0.2,0,0.3,0.1,0.3,0.3c0,0.1-0.1,0.3-0.3,0.3h-1.8v1.6h1.9c0.2,0,0.3,0.1,0.3,0.3c0,0.1-0.1,0.3-0.3,0.3H132.8z M133.7,257.8
			c0.9,0,0.9-0.1,0.9-1.2c0-1.1,0-1.2-0.8-1.2c-0.6,0-0.9,0-0.9,0.5v0.3c0,0.4,0,1,0,1.5C133.1,257.7,133.4,257.8,133.7,257.8z
			 M134.9,264.8c-0.2,0-0.3-0.1-0.3-0.3c0-0.1,0.1-0.2,0.2-0.3c0.8-0.4,1.4-0.9,1.9-1.4c-0.8-1.1-1.1-2-1.1-2.2
			c0-0.2,0.2-0.3,0.3-0.3c0.1,0,0.2,0,0.3,0.2c0.2,0.7,0.5,1.3,0.9,1.8c0.7-0.9,1-1.9,1-2.1c0-0.3-0.2-0.3-0.4-0.3
			c-0.7,0-1.4,0-2.2,0c-0.2,0-0.3-0.1-0.3-0.3s0.1-0.3,0.2-0.3c0.4,0,0.8,0,1.2,0c0.4,0,0.7,0,1.1,0c0.7,0,0.9,0.3,0.9,0.7
			c0,0.4-0.4,1.6-1.2,2.7c0.5,0.5,1.1,1,1.8,1.3c0.1,0.1,0.2,0.2,0.2,0.3c0,0.2-0.1,0.3-0.3,0.3c-0.3,0-1.2-0.6-2-1.5
			C136.2,264.3,135.1,264.8,134.9,264.8z M135.9,257.6c0.6,0,1.5,0,1.7,0c0.5,0,0.5-0.1,0.5-1c0-0.9,0-1-0.5-1H136
			c-0.2,0-0.3-0.1-0.3-0.3c0-0.1,0.1-0.3,0.3-0.3c0.5,0,1.3,0,1.8,0c1,0,1,0.5,1,1.6c0,1,0,1.5-1,1.5h-1.8c-0.2,0-0.3-0.2-0.3-0.3
			S135.7,257.6,135.9,257.6L135.9,257.6z"/>
		<path fill="#275623" d="M147.4,258.3c0.1,1.2,0.3,2.4,0.7,3.5c0.5-0.7,0.9-1.5,1.2-2.3c0-0.1,0.2-0.2,0.3-0.2
			c0.2,0,0.4,0.1,0.4,0.3c0,0.2-0.6,1.6-1.6,2.8c0.2,0.3,0.8,1.4,1.4,1.4c0.3,0,0.6-0.4,0.8-1.2c0-0.2,0.2-0.3,0.3-0.3
			c0.2,0,0.4,0.1,0.4,0.3c0,0.2-0.3,1.8-1.5,1.8c-0.8,0-1.3-0.7-1.8-1.6c-1.3,1.3-2.8,1.7-3,1.7c-0.2,0-0.3-0.2-0.3-0.3
			c0-0.1,0.1-0.3,0.3-0.3c1.2-0.4,2.1-1,2.8-1.7c-0.5-1.2-0.8-2.6-0.9-4h-2.6v2c0.6-0.2,1.1-0.4,1.5-0.7c0,0,0.1,0,0.1,0
			c0.2,0,0.3,0.1,0.3,0.3c0,0.2-0.1,0.3-2,1v0.7l0,1.5v0c0,0.6-0.2,1.3-1.4,1.3c-1.1,0-1.1-0.2-1.1-0.4c0-0.2,0.1-0.3,0.3-0.3h0.1
			c0.3,0.1,0.6,0.1,0.8,0.1c0.4,0,0.7-0.2,0.7-0.9v-1.9c-0.9,0.3-1.9,0.6-2.1,0.6c-0.2,0-0.3-0.2-0.3-0.3c0-0.1,0.1-0.3,0.3-0.3
			c0.7-0.2,1.5-0.4,2.1-0.6v-2.2l-2.2,0c-0.2,0-0.3-0.1-0.3-0.3c0-0.1,0.1-0.3,0.3-0.3h2.2v-1.8c-0.5,0.1-1.7,0.3-1.8,0.3
			c-0.2,0-0.3-0.1-0.3-0.3c0-0.1,0.1-0.3,0.3-0.3c1.1-0.1,2.3-0.3,3.5-0.8c0,0,0.1,0,0.1,0c0.2,0,0.3,0.1,0.3,0.3
			c0,0.2-0.3,0.4-1.4,0.7v2h2.5c-0.1-1-0.1-2-0.1-2.9c0-0.2,0.2-0.3,0.4-0.3c0.2,0,0.3,0.1,0.3,0.3c0,1.8,0,2.3,0,2.9h3.4
			c0.2,0,0.3,0.1,0.3,0.3c0,0.1-0.1,0.3-0.3,0.3L147.4,258.3z M149.7,256.8c-0.4-0.5-0.9-0.8-1.3-1.1c-0.1-0.1-0.1-0.1-0.1-0.2
			c0-0.1,0.1-0.3,0.3-0.3c0.2,0,1.7,0.8,1.7,1.3c0,0.2-0.2,0.4-0.3,0.4C149.8,256.9,149.7,256.9,149.7,256.8z"/>
		<path fill="#275623" d="M152.7,263.1c0-0.1,0-0.2,0.1-0.3c0.4-0.3,0.9-1.1,1.1-1.6c0-0.1,0.1-0.2,0.2-0.2c0.2,0,0.3,0.1,0.3,0.3
			c0,0.4-1,2-1.5,2C152.8,263.4,152.7,263.3,152.7,263.1z M153.2,256.6c-0.2,0-0.3-0.1-0.3-0.3c0-0.1,0.1-0.3,0.3-0.3l2.1,0v-1.2
			c0-0.2,0.2-0.3,0.3-0.3s0.3,0.1,0.3,0.3v1.2l2.2,0c0.2,0,0.3,0.1,0.3,0.3c0,0.1-0.1,0.3-0.3,0.3H153.2z M155.4,260.5
			c-0.9,0-1.7,0-1.8-0.7c0-0.2,0-0.4,0-0.6c0-0.3,0-0.6,0-0.8c0-0.5,0.4-0.8,1-0.8c0.3,0,0.7,0,1,0c0.3,0,0.7,0,1,0
			c0.5,0,0.9,0.3,0.9,0.7c0,0.2,0,0.4,0,0.6c0,0.3,0,0.6,0,0.8c0,0.4-0.3,0.7-0.9,0.7c-0.2,0-0.4,0-0.6,0v1.8c0,0.1,0,0.5,0,0.8v0.1
			c0,0.6-0.2,1.1-1.1,1.1c-0.7,0-0.9-0.1-0.9-0.4c0-0.2,0.1-0.3,0.3-0.3h0.1c0.2,0,0.4,0.1,0.6,0.1c0.4,0,0.5-0.2,0.5-0.7V260.5z
			 M157,259c0-0.9,0-0.9-1.4-0.9c-0.3,0-0.6,0-0.9,0c-0.5,0-0.5,0.2-0.5,0.9c0,0.2,0,0.4,0,0.6c0,0.4,0.4,0.4,1.5,0.4
			c1.1,0,1.3-0.1,1.3-0.4C157,259.5,157,259.2,157,259z M157.5,262.6c-0.2-0.4-0.6-0.8-0.9-1.1c0,0-0.1-0.1-0.1-0.1
			c0-0.1,0.1-0.3,0.3-0.3c0.2,0,1.2,1,1.2,1.3c0,0.2-0.2,0.3-0.3,0.3C157.6,262.7,157.5,262.7,157.5,262.6z M160.3,257.8
			c-0.1,2.8-0.7,5.3-3.1,6.8c-0.1,0-0.2,0.1-0.2,0.1c-0.2,0-0.3-0.2-0.3-0.3c0-0.1,0-0.2,0.2-0.3c2.3-1.5,2.8-3.8,2.9-6.3l-1.5,0
			c-0.2,0-0.3-0.1-0.3-0.3c0-0.1,0.1-0.3,0.3-0.3h1.5v-0.3c0-0.7,0-1.4,0-2.1c0-0.2,0.2-0.3,0.3-0.3c0.2,0,0.3,0.1,0.3,0.3
			c0,2,0,2.1,0,2.4h2.4c0.2,0,0.3,0.1,0.3,0.3c0,0.1-0.1,0.3-0.3,0.3L160.3,257.8z M160.2,263.4c0-0.5,0-3.6,0.1-4
			c0-0.2,0.2-0.3,0.3-0.3c0.3,0,0.3,0.3,0.3,0.5c0,0.7,0,2.9,0,3.5c0,0.5,0,0.8,0.7,0.8c1,0,1.1-0.2,1.1-1.1c0-0.2,0-0.5,0.3-0.5
			c0.2,0,0.3,0.1,0.3,0.3v0.1c0,1.7-0.6,1.8-1.7,1.8C160.8,264.5,160.2,264.4,160.2,263.4z M162.2,256.3c-0.4-0.4-0.8-0.6-1.1-0.8
			c-0.1,0-0.1-0.1-0.1-0.2c0-0.1,0.1-0.3,0.3-0.3c0.3,0,1.4,0.6,1.4,1c0,0.2-0.2,0.3-0.3,0.3C162.3,256.3,162.3,256.3,162.2,256.3z"
			/>
		<path fill="#275623" d="M169.8,257.7c-1.8,2.6-4.1,4.1-4.4,4.1c-0.2,0-0.4-0.2-0.4-0.3c0-0.1,0-0.2,0.2-0.3c2.1-1.2,3.9-3.2,5-5.2
			l-4.4,0c-0.2,0-0.3-0.1-0.3-0.3c0-0.1,0.1-0.3,0.3-0.3h8.8c0.2,0,0.3,0.1,0.3,0.3c0,0.1-0.1,0.3-0.3,0.3l-3.6,0
			c-0.3,0.5-0.6,1-0.9,1.4c0,0,0.1,0,0.1,0c0.2,0,0.3,0.1,0.3,0.3l0,6.7c0,0.2-0.2,0.3-0.3,0.3c-0.2,0-0.3-0.1-0.3-0.3L169.8,257.7z
			 M174.3,261.2c-0.7-1-1.8-1.8-2.8-2.4c-0.1-0.1-0.2-0.2-0.2-0.3c0-0.2,0.1-0.3,0.3-0.3c0.4,0,3.3,2.1,3.3,2.8
			c0,0.2-0.2,0.4-0.4,0.4C174.5,261.4,174.4,261.3,174.3,261.2z"/>
		<path fill="#275623" d="M184.2,259c0.9,0.7,1.9,1.3,2.9,1.7c0.1,0.1,0.2,0.2,0.2,0.3c0,0.2-0.1,0.4-0.3,0.4c-0.4,0-2.9-1.6-4.3-3
			c-0.2-0.2-0.3-0.3-0.5-0.3s-0.3,0.1-0.5,0.3c-1.4,1.6-4,3.3-4.4,3.3c-0.2,0-0.3-0.2-0.3-0.3c0-0.1,0.1-0.2,0.2-0.3
			c1.2-0.5,2.5-1.5,3.4-2.4c-1.3,0.3-3.1,0.7-3.3,0.7c-0.2,0-0.3-0.1-0.3-0.3c0-0.1,0.1-0.2,0.2-0.3c0.2,0,0.4,0,0.7-0.1
			c0.2-0.4,0.4-0.8,0.5-1.4c0-0.1,0.2-0.2,0.3-0.2c0.2,0,0.3,0.1,0.3,0.3c0,0.1-0.2,0.6-0.6,1.2c0.6-0.1,1.3-0.3,1.8-0.3
			c-0.2-0.2-0.3-0.4-0.5-0.5c0,0-0.1-0.1-0.1-0.1c0-0.1,0.1-0.2,0.3-0.2c0.3,0,0.9,0.8,1,0.8l0.3-0.3c0.2-0.3,0.5-0.4,0.8-0.4
			c0.3,0,0.6,0.1,0.9,0.4c0.1,0.1,0.3,0.3,0.5,0.4c0.2-0.3,0.4-0.8,0.6-1.3c0-0.1,0.2-0.2,0.3-0.2c0.2,0,0.3,0.1,0.3,0.3
			c0,0.2-0.6,1.3-0.7,1.4c0.6,0,1.4-0.2,1.9-0.3c-0.2-0.2-0.4-0.4-0.5-0.5c0,0-0.1-0.1-0.1-0.1c0-0.1,0.1-0.2,0.3-0.2
			c0.3,0,1.4,1.2,1.4,1.4c0,0.2-0.2,0.3-0.3,0.3c-0.1,0-0.2,0-0.2-0.1c-0.1-0.1-0.2-0.3-0.3-0.4C185.6,258.8,184.8,259,184.2,259z
			 M178.1,256.9c-0.2,0-0.3-0.1-0.3-0.3c0-0.1,0.1-0.3,0.3-0.3h0.5c0.4,0,0.9,0,1.3,0c0.3-0.5,0.7-1.3,0.9-1.9
			c0-0.1,0.2-0.2,0.3-0.2c0.2,0,0.4,0.1,0.4,0.3c0,0.2-0.6,1.2-1,1.7c1.3-0.1,2.6-0.2,3.8-0.4c-0.3-0.2-0.6-0.4-0.8-0.6
			c-0.1-0.1-0.1-0.1-0.1-0.2c0-0.1,0.1-0.2,0.3-0.2c0.3,0,2.4,1.4,2.4,1.9c0,0.2-0.2,0.3-0.3,0.3c-0.1,0-0.2,0-0.2-0.1
			c-0.2-0.2-0.4-0.5-0.6-0.7C182.2,256.7,179.2,256.9,178.1,256.9z M178.6,264.7c-0.2,0-0.3-0.1-0.3-0.3c0-0.2,0.1-0.3,0.3-0.3
			c3,0,4.8-0.8,6.3-2.4c0.1-0.1,0.2-0.1,0.3-0.1c0.2,0,0.4,0.2,0.4,0.3c0,0.1,0,0.1-0.1,0.2C184.4,263.2,182.5,264.7,178.6,264.7z
			 M183.5,260.6c0.1-0.1,0.2-0.1,0.2-0.1c0.2,0,0.3,0.1,0.3,0.3c0,0.1,0,0.2-0.1,0.3c-2.1,2-4.8,2.3-5,2.3c-0.2,0-0.3-0.1-0.3-0.3
			c0-0.1,0.1-0.3,0.2-0.3C180.6,262.6,182.2,261.8,183.5,260.6z M178.9,261.9c-0.2,0-0.3-0.1-0.3-0.2c0-0.1,0.1-0.2,0.2-0.3
			c1.1-0.3,2.4-1,3.3-2c0.1-0.1,0.2-0.1,0.2-0.1c0.2,0,0.3,0.1,0.3,0.3c0,0.1,0,0.1-0.1,0.2C181.4,261.2,179.2,261.9,178.9,261.9z"
			/>
		<path fill="#275623" d="M192.5,256.9c0.8,0,1.2,0.5,1.2,1.2c0,0.2,0,0.4,0,0.6c0,4.3-0.5,5.4-2,5.4c-0.3,0-0.6,0-1-0.1
			c-0.2,0-0.2-0.2-0.2-0.3c0-0.2,0.1-0.3,0.3-0.3c0,0,0.1,0,0.1,0c0.3,0.1,0.5,0.1,0.7,0.1c0.6,0,1.4-0.2,1.4-4.6c0-0.3,0-0.5,0-0.7
			c0-0.5-0.3-0.7-0.7-0.7c-0.2,0-0.5,0-0.8,0c0,0.1,0,0.2,0,0.3c-0.1,2.3-0.6,4.8-2.4,6.6c-0.1,0.1-0.2,0.1-0.3,0.1
			c-0.2,0-0.3-0.1-0.3-0.3c0-0.1,0-0.2,0.1-0.2c1.7-1.7,2.1-4,2.3-6.1l0-0.4c-0.5,0-1.1,0-1.6,0c-0.2,0-0.3-0.1-0.3-0.3
			s0.1-0.3,0.3-0.3l1.6,0c0-0.3,0-0.6,0-0.9c0-0.4,0-0.8,0-1.2c0-0.2,0.2-0.3,0.3-0.3c0.2,0,0.3,0.1,0.3,0.3c0,0.6,0,1.3,0,2H192.5z
			 M198.6,257.5c0,0.8,0.1,1.8,0.1,2.8c0,1,0,1.9-0.1,2.8c0,0.7-0.5,1.1-1.2,1.1c-0.3,0-0.5,0-0.7,0c-0.2,0-0.4,0-0.7,0
			c-0.7,0-1.2-0.4-1.2-1.1c0-0.9,0-1.8,0-2.8c0-0.9,0-1.9,0-2.8c0-1.2,1.1-1.2,1.9-1.2c0.2,0,0.5,0,0.7,0
			C198.2,256.4,198.6,256.8,198.6,257.5z M198.1,260.2c0-0.9,0-1.9,0-2.6c0-0.7-0.5-0.7-1.3-0.7c-0.6,0-1.1,0-1.1,0.7
			c0,0.7,0,1.6,0,2.4c0,1,0,2.1,0,2.9c0,0.6,0.5,0.7,1.2,0.7c1.1,0,1.2-0.2,1.3-0.7C198,262.1,198.1,261.1,198.1,260.2z"/>
		<path fill="#275623" d="M203.1,264.3c-0.3,0-0.6-0.3-0.6-0.6c0-0.4,0.3-0.6,0.6-0.6c0.3,0,0.6,0.2,0.6,0.6
			C203.7,264.1,203.3,264.3,203.1,264.3z M203.1,261.8c-0.2,0-0.3-0.1-0.3-0.3V261c0-1.3-0.1-4.1-0.1-5.6v0c0-0.3,0.2-0.4,0.4-0.4
			s0.4,0.2,0.4,0.5c0,1.4-0.1,4.6-0.1,5.8v0.3C203.4,261.7,203.2,261.8,203.1,261.8z"/>
	</g>
	<path fill="none" stroke="#275623" stroke-width="3" stroke-linecap="round" stroke-linejoin="round" stroke-miterlimit="10" d="
		M272.6,286.4H47.4c-1.9,0-3.4-1.5-3.4-3.4V117.2c0-1.9,1.5-3.4,3.4-3.4h225.2c1.9,0,3.4,1.5,3.4,3.4V283
		C276,284.9,274.5,286.4,272.6,286.4z"/>
	<path fill="none" stroke="#275623" stroke-width="3" stroke-linecap="round" stroke-linejoin="round" stroke-miterlimit="10" d="
		M272.6,98.9H47.4c-1.9,0-3.4-1.5-3.4-3.4V54c0-1.9,1.5-3.4,3.4-3.4h225.2c1.9,0,3.4,1.5,3.4,3.4v41.5
		C276,97.4,274.5,98.9,272.6,98.9z"/>
	
		<line fill="none" stroke="#275623" stroke-width="3" stroke-linecap="round" stroke-linejoin="round" stroke-miterlimit="10" x1="74.5" y1="95" x2="74.5" y2="118"/>
	
		<line fill="none" stroke="#275623" stroke-width="3" stroke-linecap="round" stroke-linejoin="round" stroke-miterlimit="10" x1="246.5" y1="95" x2="246.5" y2="118"/>
	<g>
		<path fill="none" stroke="#275623" stroke-width="3" stroke-linecap="round" stroke-miterlimit="10" d="M44.8,172.3H77
			c1.7,0,3.2,1.1,3.7,2.7l5.5,16.5V218c0,18.4-7.8,36.1-21.8,47.9c-5.9,5-12.6,8.7-19.8,9.2"/>
		<path fill="none" stroke="#275623" stroke-width="3" stroke-linecap="round" stroke-miterlimit="10" d="M44.4,144.2
			c23.9,0.5,43.2,11.8,43.2,38.3L86.3,198"/>
		<path fill="none" stroke="#275623" stroke-width="3" stroke-linecap="round" stroke-linejoin="round" stroke-miterlimit="10" d="
			M86.8,213.7c2.9-0.6,5.6-2.9,6.8-6.2c1.7-4.7-0.3-9.8-4.4-11.2c-1-0.4-1.9-0.3-3-0.1"/>
		<path fill="none" stroke="#275623" stroke-width="3" stroke-linecap="round" stroke-linejoin="round" stroke-miterlimit="10" d="
			M55.7,202.7h18.4c1.4,0,2.5-0.6,2.6-1.5l2.2-15.3c0.1-1-1.1-1.8-2.6-1.8H53.5c-1.5,0-2.7,0.8-2.6,1.8l2.2,15.3
			C53.2,202.1,54.4,202.7,55.7,202.7z"/>
		
			<line fill="none" stroke="#275623" stroke-width="3" stroke-linecap="round" stroke-linejoin="round" stroke-miterlimit="10" x1="58" y1="178.5" x2="72" y2="178.5"/>
		
			<line fill="none" stroke="#275623" stroke-width="3" stroke-linecap="round" stroke-linejoin="round" stroke-miterlimit="10" x1="46.5" y1="211.2" x2="47.2" y2="213.7"/>
		<path fill="none" stroke="#275623" stroke-width="3" stroke-linecap="round" stroke-linejoin="round" stroke-miterlimit="10" d="
			M57.3,196.1c1.1-2.5,4-4.3,7.4-4.3c3.2,0,6,1.6,7.2,4"/>
		<circle fill="#275623" cx="69.9" cy="195.5" r="2.5"/>
		<path fill="none" stroke="#275623" stroke-width="3" stroke-linecap="round" stroke-linejoin="round" stroke-miterlimit="10" d="
			M44.4,226.2c3.7,0.6,6.5,3.6,6.5,7.1c0,3.7-3,6.7-6.9,7.2"/>
	</g>
	<g>
		<path fill="none" stroke="#275623" stroke-width="3" stroke-linecap="round" stroke-miterlimit="10" d="M275.6,144.2
			c-18,19.2-41.9,27.3-41.9,47.4V218c0,18.4,7.8,36.1,21.8,47.9c5.8,4.9,12.5,8.7,19.6,9.2"/>
		<path fill="none" stroke="#275623" stroke-width="3" stroke-linecap="round" stroke-miterlimit="10" d="M275.6,144.2
			c-23.9,0.5-43.2,11.7-43.2,38.3l1.3,15.5"/>
		<path fill="none" stroke="#275623" stroke-width="3" stroke-linecap="round" stroke-linejoin="round" stroke-miterlimit="10" d="
			M233.1,213.7c-2.9-0.6-5.6-2.9-6.8-6.2c-1.7-4.7,0.3-9.8,4.4-11.2c1-0.4,1.9-0.3,3-0.1"/>
		
			<line fill="none" stroke="#275623" stroke-width="3" stroke-linecap="round" stroke-linejoin="round" stroke-miterlimit="10" x1="273.5" y1="211.2" x2="272.8" y2="213.7"/>
		<path fill="none" stroke="#275623" stroke-width="3" stroke-linecap="round" stroke-linejoin="round" stroke-miterlimit="10" d="
			M262.7,196.1c-1.1-2.5-4-4.3-7.4-4.3c-3.2,0-6,1.6-7.2,4"/>
		<circle fill="#275623" cx="255.6" cy="194" r="2"/>
		<path fill="none" stroke="#275623" stroke-width="3" stroke-linecap="round" stroke-linejoin="round" stroke-miterlimit="10" d="
			M275.8,226.1c-3.8,0.5-6.7,3.5-6.7,7.1c0,3.7,3,6.7,6.9,7.2"/>
		<path fill="none" stroke="#275623" stroke-width="3" stroke-linecap="round" stroke-linejoin="round" stroke-miterlimit="10" d="
			M256.8,174c0,2.9,4.6,5.2,10.4,5.2"/>
	</g>
	<path fill="none" stroke="#275623" stroke-width="3" stroke-linecap="round" stroke-linejoin="round" stroke-miterlimit="10" d="
		M108.5,221.8c0,6.7-5.5,12.1-12.4,12.1"/>
	<path fill="none" stroke="#275623" stroke-width="3" stroke-linecap="round" stroke-linejoin="round" stroke-miterlimit="10" d="
		M221.9,260.1c0.3,6.7,6,11.9,12.9,11.6"/>
</g>
</svg>
