<?xml version="1.0" encoding="UTF-8" standalone="no"?><!DOCTYPE svg PUBLIC "-//W3C//DTD SVG 1.1//EN" "http://www.w3.org/Graphics/SVG/1.1/DTD/svg11.dtd"><svg width="100%" height="100%" viewBox="0 0 200 39" version="1.1" xmlns="http://www.w3.org/2000/svg" xmlns:xlink="http://www.w3.org/1999/xlink" xml:space="preserve" style="fill-rule:evenodd;clip-rule:evenodd;stroke-linejoin:round;stroke-miterlimit:1.41421;"><g id="logo.-navbar"><g opacity="0.5"><g><g id="Typography"><g id="Group"><path id="Fill.-8" d="M113.197,10.347c0,0 0.811,-0.371 1.013,-1.275l1.799,0l0,1.553l-2.901,0l0.089,-0.278Z" style="fill:#4d4d4d;"/><path id="Fill.-10" d="M118.847,15.32c0,0 0.81,-0.371 1.013,-1.276l1.8,0l0,1.554l-2.902,0l0.089,-0.278Z" style="fill:#4d4d4d;"/><path id="Fill.-12" d="M115.448,19.719c0,0 0.809,-0.372 1.012,-1.276l1.799,0l0,1.554l-2.902,0l0.091,-0.278Z" style="fill:#4d4d4d;"/><rect id="Fill.-14" x="103.456" y="10.33" width="12.547" height="0.581" style="fill:#4d4d4d;"/><rect id="Fill.-16" x="100.95" y="15.288" width="20.716" height="0.58" style="fill:#4d4d4d;"/><rect id="Fill.-17" x="107.661" y="19.664" width="9.767" height="0.626" style="fill:#4d4d4d;"/><rect id="Fill.-18" x="106.591" y="24.084" width="10.917" height="0.581" style="fill:#4d4d4d;"/><rect id="Fill.-19" x="106.591" y="28.067" width="10.917" height="0.581" style="fill:#4d4d4d;"/><rect id="Fill.-20" x="105.706" y="20.681" width="1.76" height="10.365" style="fill:#4d4d4d;"/><rect id="Fill.-21" x="116.456" y="19.794" width="1.812" height="11.292" style="fill:#4d4d4d;"/><rect id="Fill.-22" x="109.176" y="6.921" width="1.838" height="8.926" style="fill:#4d4d4d;"/><path id="Fill.-23" d="M118.039,8.369c0,0 -4.73,9.68 -18.744,15.436l0.179,0.513c0,0 13.655,-3.996 20.236,-14.886l-1.671,-1.063Z" style="fill:#4d4d4d;"/><path id="Fill.-36" d="M91.271,10.46c0,0 0.809,-0.371 1.012,-1.275l1.799,0l0,1.554l-2.902,0l0.091,-0.279Z" style="fill:#4d4d4d;"/><path id="Fill.-37" d="M90.641,24.837c0,0 0.81,-0.371 1.013,-1.276l1.8,0l0,1.554l-2.903,0l0.09,-0.278Z" style="fill:#4d4d4d;"/><rect id="Fill.-38" x="79.366" y="10.469" width="14.707" height="0.58" style="fill:#4d4d4d;"/><rect id="Fill.-39" x="80.959" y="12.527" width="10.992" height="0.626" style="fill:#4d4d4d;"/><rect id="Fill.-40" x="80.985" y="14.756" width="10.993" height="0.581" style="fill:#4d4d4d;"/><rect id="Fill.-41" x="80.959" y="16.817" width="10.992" height="0.581" style="fill:#4d4d4d;"/><rect id="Fill.-42" x="80.959" y="18.933" width="10.992" height="0.581" style="fill:#4d4d4d;"/><rect id="Fill.-43" x="71.23" y="15.018" width="5.616" height="0.581" style="fill:#4d4d4d;"/><rect id="Fill.-44" x="75.308" y="14.979" width="1.84" height="5.04" style="fill:#4d4d4d;"/><path id="Fill.-45" d="M91.85,10.466c0,0 0.64,-0.293 0.8,-1.009l1.422,0l0,1.229l-2.294,0l0.072,-0.22Z" style="fill:#4d4d4d;"/><path id="Fill.-46" d="M74.925,14.995c0,0 0.64,-0.293 0.8,-1.008l1.422,0l0,1.228l-2.294,0l0.072,-0.22Z" style="fill:#4d4d4d;"/><rect id="Fill.-47" x="72.625" y="24.73" width="20.828" height="0.581" style="fill:#4d4d4d;"/><path id="Fill.-48" d="M91.212,24.727c0,0 0.64,-0.293 0.8,-1.008l1.423,0l0,1.229l-2.295,0l0.072,-0.221Z" style="fill:#4d4d4d;"/><path id="Fill.-49" d="M90.155,12.564c0,0 0.67,-0.307 0.839,-1.055l1.489,0l0,1.286l-2.403,0l0.075,-0.231Z" style="fill:#4d4d4d;"/><path id="Fill.-50" d="M75.284,15.013c0,0 0.536,-0.247 0.671,-0.846l1.193,0l0,1.03l-1.924,0l0.06,-0.184Z" style="fill:#4d4d4d;"/><path id="Fill.-51" d="M72.998,8.629l0.293,-0.468c0,0 2.667,0.66 3.868,3.052l-1.387,1.018c0,0 -1.521,-2.969 -2.774,-3.602" style="fill:#4d4d4d;"/><path id="Fill.-52" d="M81.4,7.018l0.256,-0.322c0,0 1.76,0.205 3.009,2.137l-1.532,0.848c0,0 -0.568,-1.755 -1.733,-2.663" style="fill:#4d4d4d;"/><path id="Fill.-53" d="M88.072,7.261c0,0 -0.845,2.881 -1.165,3.421l0.494,0c0,0 1.689,-1.8 2.824,-3.361l-2.153,-0.06Z" style="fill:#4d4d4d;"/><path id="Fill.-54" d="M71.825,21.145l3.627,-1.705l0.267,0.469l-2.721,3.299l-1.173,-2.063Z" style="fill:#4d4d4d;"/><path id="Fill.-55" d="M77.052,18.949c0,0 0.845,2.136 6.037,2.264c0,0 6.785,0.367 10.208,-0.257l0,1.512c0,0 -14.404,1.65 -16.484,-3.025l0.239,-0.494Z" style="fill:#4d4d4d;"/><rect id="Fill.-56" x="80.162" y="11.717" width="1.787" height="8.534" style="fill:#4d4d4d;"/><rect id="Fill.-57" x="90.666" y="12.558" width="1.813" height="7.724" style="fill:#4d4d4d;"/><path id="Fill.-58" d="M78.776,26.875l0.293,-0.303c0,0 2.081,0.495 3.308,2.365l-1.386,1.237c0,0 -1.655,-3.107 -2.215,-3.299" style="fill:#4d4d4d;"/><path id="Fill.-59" d="M86.81,23.309l1.81,0l0,6.191c0,0.612 -0.142,1.205 -0.627,1.572c-0.273,0.207 -0.82,0.487 -1.171,0.383c-0.461,-0.138 -0.375,-0.744 -0.622,-1.06c-0.261,-0.333 -0.884,-0.414 -1.272,-0.414l0.014,-0.391l1.11,0c0,0 0.78,0.12 0.78,-0.662c0,-0.782 -0.022,-5.619 -0.022,-5.619" style="fill:#4d4d4d;"/><rect id="Fill.-84" x="42.731" y="11.234" width="11.348" height="0.575" style="fill:#4d4d4d;"/><rect id="Fill.-85" x="55.902" y="8.954" width="6.919" height="0.576" style="fill:#4d4d4d;"/><rect id="Fill.-86" x="56.325" y="18.544" width="8.013" height="0.53" style="fill:#4d4d4d;"/><rect id="Fill.-87" x="47.044" y="7.357" width="1.823" height="8.519" style="fill:#4d4d4d;"/><rect id="Fill.-88" x="55.223" y="7.618" width="1.693" height="23.507" style="fill:#4d4d4d;"/><rect id="Fill.-89" x="47.044" y="20.284" width="1.823" height="10.981" style="fill:#4d4d4d;"/><path id="Fill.-90" d="M51.298,11.229c0,0 0.802,-0.367 1.002,-1.263l1.782,0l0,1.539l-2.873,0l0.089,-0.276Z" style="fill:#4d4d4d;"/><path id="Fill.-91" d="M51.298,24.431c0,0 0.802,-0.368 1.002,-1.264l1.782,0l0,1.54l-2.873,0l0.089,-0.276Z" style="fill:#4d4d4d;"/><path id="Fill.-92" d="M61.006,9.014c0,0 0.802,-0.368 1.004,-1.263l1.781,0l0,1.539l-2.874,0l0.089,-0.276Z" style="fill:#4d4d4d;"/><path id="Fill.-93" d="M51.385,19.971c0,0 0.801,-0.367 1.001,-1.264l1.782,0l0,1.54l-2.873,0l0.09,-0.276Z" style="fill:#4d4d4d;"/><path id="Fill.-94" d="M51.347,15.527c0,0 0.802,-0.368 1.003,-1.263l1.781,0l0,1.537l-2.873,0l0.089,-0.274Z" style="fill:#4d4d4d;"/><rect id="Fill.-95" x="41.828" y="15.534" width="12.3" height="0.576" style="fill:#4d4d4d;"/><rect id="Fill.-96" x="41.898" y="19.952" width="12.26" height="0.575" style="fill:#4d4d4d;"/><path id="Fill.-97" d="M51.954,19.923c0,0 0.634,-0.291 0.792,-0.998l1.408,0l0,1.216l-2.271,0l0.071,-0.218Z" style="fill:#4d4d4d;"/><rect id="Fill.-98" x="42.738" y="24.323" width="11.346" height="0.576" style="fill:#4d4d4d;"/><path id="Fill.-99" d="M44.43,16.75l0.387,-0.235c0,0 1.462,1.525 2.113,2.904l-1.426,0.636c0,0 -0.721,-2.923 -1.074,-3.305" style="fill:#4d4d4d;"/><path id="Fill.-100" d="M49.854,16.333l2.166,0.89c0,0 -2.026,2.233 -2.695,2.777l-0.281,-0.182c0,0 0.563,-1.779 0.81,-3.485" style="fill:#4d4d4d;"/><path id="Fill.-101" d="M62.022,8.951l0,6.366c0,0 0.095,0.847 -0.6,0.847l-0.727,0l0,0.422c0,0 1.042,0.066 1.042,0.686c0,0.617 2.054,1.073 2.054,-1.955l0,-6.431l-1.769,0.065Z" style="fill:#4d4d4d;"/><path id="Fill.-102" d="M62.513,18.523c0,0 -0.617,7.542 -5.109,12.785l0.189,0.32c0,0 5.84,-5.195 6.787,-12.941l-1.867,-0.164Z" style="fill:#4d4d4d;"/><path id="Fill.-103" d="M57.969,19.782c0,0 1.268,6.934 7.502,9.793l-1.427,1.879c0,0 -5.309,-2.687 -6.471,-11.591l0.396,-0.081Z" style="fill:#4d4d4d;"/></g><g id="Group1"><path id="Fill.-305" d="M130.808,16.05l0.914,0l0,-5.784l-1.705,0l0,1.165l-0.894,0l0,-2.034l6.227,0l0,2.034l-0.894,0l0,-1.165l-1.705,0l0,5.784l0.914,0l0,0.827l-2.857,0l0,-0.827Z" style="fill:#4d4d4d;"/><path id="Fill.-306" d="M138.247,16.05l0.904,0l0,-5.838l-0.904,0l0,-0.815l2.847,0l0,0.815l-0.915,0l0,2.491l3.761,0l0,-2.491l-0.914,0l0,-0.815l2.847,0l0,0.815l-0.905,0l0,5.838l0.905,0l0,0.827l-2.847,0l0,-0.827l0.914,0l0,-2.479l-3.761,0l0,2.479l0.915,0l0,0.827l-2.847,0l0,-0.827Z" style="fill:#4d4d4d;"/><path id="Fill.-307" d="M149.016,16.05l0.904,0l0,-5.838l-0.904,0l0,-0.815l5.251,0l0,1.737l-0.894,0l0,-0.868l-2.425,0l0,2.404l2.569,0l0,0.869l-2.569,0l0,2.469l2.6,0l0,-0.901l0.894,0l0,1.77l-5.426,0l0,-0.827Z" style="fill:#4d4d4d;"/><path id="Fill.-308" d="M132.469,25.909c0.792,0 1.316,-0.53 1.316,-1.409c0,-0.583 -0.226,-0.985 -0.678,-1.176c-0.237,-0.095 -0.545,-0.138 -0.894,-0.138l-1.203,0l0,2.723l1.459,0Zm-3.391,3.062l0.905,0l0,-5.838l-0.905,0l0,-0.816l3.145,0c0.514,0 0.935,0.022 1.336,0.159c0.761,0.265 1.264,0.923 1.264,1.94c0,1.08 -0.576,1.853 -1.501,2.097l0,0.021c0,0 0.185,0.106 0.309,0.35l1.028,1.843c0.113,0.202 0.246,0.244 0.503,0.244l0.216,0l0,0.827l-0.617,0c-0.616,0 -0.76,-0.116 -1.007,-0.562l-1.12,-2.045c-0.185,-0.318 -0.319,-0.413 -0.761,-0.413l-0.863,0l0,2.193l0.894,0l0,0.827l-2.826,0l0,-0.827Z" style="fill:#4d4d4d;"/><path id="Fill.-309" d="M138.295,28.971l0.904,0l0,-5.838l-0.904,0l0,-0.815l5.251,0l0,1.737l-0.893,0l0,-0.869l-2.426,0l0,2.405l2.57,0l0,0.869l-2.57,0l0,2.469l2.601,0l0,-0.901l0.894,0l0,1.77l-5.427,0l0,-0.827Z" style="fill:#4d4d4d;"/><path id="Fill.-310" d="M150.122,26.121c0.329,0 0.587,-0.053 0.812,-0.148c0.463,-0.212 0.73,-0.689 0.73,-1.335c0,-0.604 -0.236,-1.049 -0.648,-1.271c-0.225,-0.128 -0.534,-0.181 -0.883,-0.181l-1.357,0l0,2.935l1.346,0Zm-3.278,2.85l0.905,0l0,-5.837l-0.905,0l0,-0.817l3.381,0c0.442,0 0.884,0.033 1.244,0.202c0.75,0.328 1.233,1.123 1.233,2.119c0,1.048 -0.535,1.896 -1.367,2.193c-0.339,0.127 -0.688,0.159 -1.089,0.159l-1.47,0l0,1.981l0.915,0l0,0.827l-2.847,0l0,-0.827Z" style="fill:#4d4d4d;"/><path id="Fill.-311" d="M159.288,28.981c1.47,0 2.662,-1.292 2.662,-2.977c0,-1.632 -1.192,-2.881 -2.662,-2.881c-1.48,0 -2.672,1.249 -2.672,2.881c0,1.685 1.192,2.977 2.672,2.977m0,-6.79c2.097,0 3.731,1.663 3.731,3.813c0,2.204 -1.634,3.92 -3.731,3.92c-2.107,0 -3.731,-1.716 -3.731,-3.92c0,-2.15 1.624,-3.813 3.731,-3.813" style="fill:#4d4d4d;"/><path id="Fill.-312" d="M169.43,25.909c0.791,0 1.315,-0.53 1.315,-1.409c0,-0.583 -0.226,-0.985 -0.678,-1.176c-0.237,-0.095 -0.545,-0.138 -0.894,-0.138l-1.203,0l0,2.723l1.46,0Zm-3.392,3.062l0.905,0l0,-5.838l-0.905,0l0,-0.816l3.145,0c0.514,0 0.935,0.022 1.336,0.159c0.761,0.265 1.264,0.923 1.264,1.94c0,1.08 -0.575,1.853 -1.5,2.097l0,0.021c0,0 0.185,0.106 0.308,0.35l1.028,1.843c0.113,0.202 0.247,0.244 0.503,0.244l0.216,0l0,0.827l-0.616,0c-0.617,0 -0.761,-0.116 -1.008,-0.562l-1.12,-2.045c-0.185,-0.318 -0.318,-0.413 -0.76,-0.413l-0.864,0l0,2.193l0.894,0l0,0.827l-2.826,0l0,-0.827Z" style="fill:#4d4d4d;"/><path id="Fill.-313" d="M176.653,28.971l0.915,0l0,-5.785l-1.706,0l0,1.165l-0.894,0l0,-2.033l6.227,0l0,2.033l-0.893,0l0,-1.165l-1.706,0l0,5.785l0.914,0l0,0.827l-2.857,0l0,-0.827Z" style="fill:#4d4d4d;"/><path id="Fill.-314" d="M184.092,28.971l0.904,0l0,-5.838l-0.904,0l0,-0.815l5.252,0l0,1.737l-0.895,0l0,-0.869l-2.425,0l0,2.405l2.569,0l0,0.869l-2.569,0l0,2.469l2.6,0l0,-0.901l0.894,0l0,1.77l-5.426,0l0,-0.827Z" style="fill:#4d4d4d;"/><path id="Fill.-315" d="M196.032,25.909c0.792,0 1.316,-0.53 1.316,-1.409c0,-0.583 -0.226,-0.985 -0.679,-1.176c-0.236,-0.095 -0.544,-0.138 -0.894,-0.138l-1.202,0l0,2.723l1.459,0Zm-3.391,3.062l0.904,0l0,-5.838l-0.904,0l0,-0.816l3.144,0c0.515,0 0.936,0.022 1.337,0.159c0.76,0.265 1.264,0.923 1.264,1.94c0,1.08 -0.576,1.853 -1.501,2.097l0,0.021c0,0 0.185,0.106 0.309,0.35l1.027,1.843c0.114,0.202 0.247,0.244 0.504,0.244l0.215,0l0,0.827l-0.616,0c-0.617,0 -0.761,-0.116 -1.007,-0.562l-1.12,-2.045c-0.185,-0.318 -0.319,-0.413 -0.761,-0.413l-0.863,0l0,2.193l0.894,0l0,0.827l-2.826,0l0,-0.827Z" style="fill:#4d4d4d;"/></g></g><g id="Icon"><path id="Fill.-1" d="M34.83,30.895l-13.23,-3.23l0,-16.869l13.23,-3.948l0,24.047Z" style="fill:#4d4d4d;fill-opacity:0.698039;"/><path id="Fill.-2" d="M1.06,37.715l20.888,-10.05l0,-16.869l-20.888,-10.049l0,36.968Z" style="fill:#4d4d4d;fill-opacity:0.498039;"/></g></g></g></g></svg>