<?xml version="1.0" encoding="utf-8"?>
<!-- Generator: Adobe Illustrator 18.0.0, SVG Export Plug-In . SVG Version: 6.00 Build 0)  -->
<!DOCTYPE svg PUBLIC "-//W3C//DTD SVG 1.1//EN" "http://www.w3.org/Graphics/SVG/1.1/DTD/svg11.dtd">
<svg version="1.1" xmlns="http://www.w3.org/2000/svg" xmlns:xlink="http://www.w3.org/1999/xlink" x="0px" y="0px"
	 viewBox="0 0 229.1 70.8" enable-background="new 0 0 229.1 70.8" xml:space="preserve">
<g id="圖層_2">
</g>
<g id="圖層_1">
	<g>
		<g>
			<g opacity="0.5">
				<g>
					<path fill="#D87341" d="M19.5,24.7c-1.1,0.8-2.2,1.6-3.2,2.4c-0.7,0.5-1,1.3-0.5,2.1c0.4,0.7,1.4,1,2.1,0.5
						c1.1-0.8,2.2-1.6,3.2-2.4c0.7-0.5,1-1.3,0.5-2.1C21.2,24.6,20.2,24.2,19.5,24.7L19.5,24.7z"/>
				</g>
			</g>
			<g opacity="0.5">
				<g>
					<path fill="#D87341" d="M26.7,30.5c-0.2,0.1-0.4,0.3-0.6,0.4c-0.7,0.5-1,1.3-0.5,2.1c0.4,0.7,1.4,1,2.1,0.5
						c0.2-0.1,0.4-0.3,0.6-0.4c0.7-0.5,1-1.3,0.5-2.1C28.4,30.3,27.3,30,26.7,30.5L26.7,30.5z"/>
				</g>
			</g>
			<path fill="none" stroke="#275623" stroke-width="3" stroke-linecap="round" stroke-linejoin="round" stroke-miterlimit="10" d="
				M23.1,17.5c1.3,0.1,2.6,0.6,3.4,1.7c0,0,13.3,18.3,13.3,18.3c1.4,1.9,0.9,4.6-1,6c-1.9,1.4-4.6,1-6-0.9l-0.9-1.2l-1.8,1.3
				c-1.9,1.4-4.6,1-6.1-0.9c-1.4-1.9-1-4.6,1-6l-5.2,3.8c-1.9,1.4-4.6,1-6.1-0.9c-1.4-1.9-1-4.6,1-6l-6.4,4.6
				c-1.9,1.4-4.6,1-6.1-0.9c-1.4-1.9-1-4.6,1-6c0,0,16.2-11.8,16.2-11.8C20.5,17.8,21.8,17.4,23.1,17.5z"/>
			<g>
				<g>
					<path fill="#275623" d="M21.5,25.7c-1.1,0.8-2.2,1.6-3.2,2.4c-0.7,0.5-1,1.3-0.5,2.1c0.4,0.7,1.4,1,2.1,0.5
						c1.1-0.8,2.2-1.6,3.2-2.4c0.7-0.5,1-1.3,0.5-2.1C23.2,25.6,22.2,25.2,21.5,25.7L21.5,25.7z"/>
				</g>
			</g>
			<g>
				<g>
					<path fill="#275623" d="M28.7,31.5c-0.2,0.1-0.4,0.3-0.6,0.4c-0.7,0.5-1,1.3-0.5,2.1c0.4,0.7,1.4,1,2.1,0.5
						c0.2-0.1,0.4-0.3,0.6-0.4c0.7-0.5,1-1.3,0.5-2.1C30.4,31.3,29.3,31,28.7,31.5L28.7,31.5z"/>
				</g>
			</g>
		</g>
		<rect x="58.8" y="14.4" opacity="0.3" fill="#D87341" width="111.8" height="48.8"/>
		<g>
			<g>
				
					<path fill="none" stroke="#275623" stroke-width="3" stroke-linecap="round" stroke-linejoin="round" stroke-miterlimit="10" d="
					M178,11.6V66c0,1.8-1.5,3.3-3.3,3.3l-119.9,0c-1.8,0-3.3-1.5-3.3-3.3V11.6c0-1.8,1.5-3.3,3.3-3.3h119.9
					C176.5,8.3,178,9.8,178,11.6z"/>
				
					<path fill="none" stroke="#275623" stroke-width="2" stroke-linecap="round" stroke-linejoin="round" stroke-miterlimit="10" d="
					M171.3,15.6V62c0,0.7-0.5,1.2-1.2,1.2H58.8c-0.7,0-1.2-0.5-1.2-1.2V15.6c0-0.7,0.5-1.2,1.2-1.2h111.3
					C170.8,14.4,171.3,14.9,171.3,15.6z"/>
				<g>
					<path fill="#275623" d="M116.7,54.7C116.7,54.7,116.7,54.7,116.7,54.7c0,1.3-0.8,1.9-1.6,1.9c-0.9,0-1.7-0.6-1.7-1.9v-1.4
						c0-0.2,0-0.2-0.2-0.3c-5.6-0.6-7.7-3.9-7.7-5.1c0-1.1,1-2,2.1-2c0.6,0,1.1,0.2,1.5,0.8c1.5,2.1,4,2.5,4.1,2.5
						c0.1,0,0.2-0.1,0.2-0.3c0-2.8,0.1-6.2,0.1-9.7c0-0.3-0.3-0.5-2.2-1.4c-3.2-1.5-4.7-4.1-4.7-6.6c0-3.2,2.4-6.3,6.7-6.9
						c0.2,0,0.2-0.1,0.2-0.3c0-0.4,0-0.9,0-1.1c-0.1-1,0.4-2,1.7-2c0.8,0,1.6,0.6,1.6,1.7c0,0,0,0,0,0.1v1.4c0,0.1,0.1,0.2,0.2,0.2
						c3.4,0.6,5.6,2.5,5.6,4c0,1-0.9,2-2,2c-0.5,0-1.1-0.3-1.7-0.9c-0.8-0.9-1.9-1.4-2.1-1.4c-0.1,0-0.1,0.1-0.1,0.2
						c0,2.2,0,4.9,0,7.8c0,0.1,0.1,0.3,0.2,0.4c2.7,1.3,7.1,3.6,7.1,8.5c0,3.6-2.8,7-7.1,7.8c-0.1,0-0.2,0.1-0.2,0.3V54.7z
						 M113.5,28.2c0-0.2,0-0.2-0.1-0.2c0,0-2.9,0.5-2.9,3.2c0,1.4,1,2.7,2.9,3.7c0,0,0.1,0,0.1,0c0.1,0,0.1,0,0.1-0.1V28.2z
						 M116.6,48.7c0,0.1,0,0.3,0.1,0.3c0.6,0,3.1-1.3,3.1-3.9c0-1.5-0.9-3.2-2.9-4.3c-0.1,0-0.2-0.1-0.2-0.1c-0.1,0-0.1,0.1-0.1,0.3
						V48.7z"/>
				</g>
			</g>
		</g>
		<g>
			<path fill="none" stroke="#275623" stroke-width="3" stroke-linecap="round" stroke-linejoin="round" stroke-miterlimit="10" d="
				M6.1,8.7c1.1-2.3,3-4.4,5.5-5.7c2.3-1.2,4.8-1.7,7.2-1.4"/>
			<path fill="none" stroke="#275623" stroke-width="3" stroke-linecap="round" stroke-linejoin="round" stroke-miterlimit="10" d="
				M12.3,10.9c0.6-1.2,1.5-2.2,2.8-2.9c1.1-0.6,2.4-0.8,3.6-0.7"/>
		</g>
		<g>
			<g opacity="0.5">
				<g>
					<path fill="#D87341" d="M207.4,27.3c1.1,0.8,2.2,1.6,3.2,2.4c0.7,0.5,1.7,0.1,2.1-0.5c0.4-0.8,0.1-1.6-0.5-2.1
						c-1.1-0.8-2.2-1.6-3.2-2.4c-0.7-0.5-1.7-0.1-2.1,0.5C206.5,26,206.8,26.8,207.4,27.3L207.4,27.3z"/>
				</g>
			</g>
			<g opacity="0.5">
				<g>
					<path fill="#D87341" d="M200.3,33c0.2,0.1,0.4,0.3,0.6,0.4c0.7,0.5,1.7,0.1,2.1-0.5c0.4-0.8,0.1-1.6-0.5-2.1
						c-0.2-0.1-0.4-0.3-0.6-0.4c-0.7-0.5-1.7-0.1-2.1,0.5C199.3,31.7,199.6,32.6,200.3,33L200.3,33z"/>
				</g>
			</g>
			<path fill="none" stroke="#275623" stroke-width="3" stroke-linecap="round" stroke-linejoin="round" stroke-miterlimit="10" d="
				M206,17.5c-1.3,0.1-2.6,0.6-3.4,1.7c0,0-13.3,18.3-13.3,18.3c-1.4,1.9-0.9,4.6,1,6c1.9,1.4,4.6,1,6-0.9l0.9-1.2l1.8,1.3
				c1.9,1.4,4.6,1,6.1-0.9c1.4-1.9,1-4.6-1-6l5.2,3.8c1.9,1.4,4.6,1,6.1-0.9c1.4-1.9,1-4.6-1-6l6.4,4.6c1.9,1.4,4.6,1,6.1-0.9
				c1.4-1.9,1-4.6-1-6c0,0-16.2-11.8-16.2-11.8C208.6,17.8,207.3,17.4,206,17.5z"/>
			<g>
				<g>
					<path fill="#275623" d="M206,28.3c1.1,0.8,2.2,1.6,3.2,2.4c0.7,0.5,1.7,0.1,2.1-0.5c0.4-0.8,0.1-1.6-0.5-2.1
						c-1.1-0.8-2.2-1.6-3.2-2.4c-0.7-0.5-1.7-0.1-2.1,0.5C205.1,27,205.4,27.8,206,28.3L206,28.3z"/>
				</g>
			</g>
			<g>
				<g>
					<path fill="#275623" d="M198.9,34c0.2,0.1,0.4,0.3,0.6,0.4c0.7,0.5,1.7,0.1,2.1-0.5c0.4-0.8,0.1-1.6-0.5-2.1
						c-0.2-0.1-0.4-0.3-0.6-0.4c-0.7-0.5-1.7-0.1-2.1,0.5C197.9,32.7,198.2,33.6,198.9,34L198.9,34z"/>
				</g>
			</g>
		</g>
		<g>
			<path fill="none" stroke="#275623" stroke-width="3" stroke-linecap="round" stroke-linejoin="round" stroke-miterlimit="10" d="
				M222.9,8.7c-1.1-2.3-3-4.4-5.5-5.7c-2.3-1.2-4.8-1.7-7.2-1.4"/>
			<path fill="none" stroke="#275623" stroke-width="3" stroke-linecap="round" stroke-linejoin="round" stroke-miterlimit="10" d="
				M216.8,10.9c-0.6-1.2-1.5-2.2-2.8-2.9c-1.1-0.6-2.4-0.8-3.6-0.7"/>
		</g>
	</g>
</g>
</svg>
