<?xml version="1.0" encoding="utf-8"?>
<!-- Generator: Adobe Illustrator 18.0.0, SVG Export Plug-In . SVG Version: 6.00 Build 0)  -->
<!DOCTYPE svg PUBLIC "-//W3C//DTD SVG 1.1//EN" "http://www.w3.org/Graphics/SVG/1.1/DTD/svg11.dtd">
<svg version="1.1" xmlns="http://www.w3.org/2000/svg" xmlns:xlink="http://www.w3.org/1999/xlink" x="0px" y="0px"
	 viewBox="0 0 285.3 211.3" enable-background="new 0 0 285.3 211.3" xml:space="preserve">
<g id="圖層_2">
</g>
<g id="圖層_1">
	<g>
		<path opacity="0.5" fill="none" stroke="#D87341" stroke-width="3" stroke-linecap="round" stroke-miterlimit="10" d="M253.1,77.4
			c0.4,3.9-0.2,6.6-2.7,9.5"/>
		<path opacity="0.5" fill="none" stroke="#D87341" stroke-width="3" stroke-linecap="round" stroke-miterlimit="10" d="M32.5,78.4
			c-0.4,3.9,0.2,6.6,2.7,9.5"/>
		<polygon opacity="0.3" fill="#D87341" points="81,209.3 48,209.3 23.6,106.5 55.3,100.7 		"/>
		<polygon opacity="0.3" fill="#D87341" points="203.5,209.8 236.5,209.8 260.8,107 229.2,101.2 		"/>
		<g>
			<path fill="none" stroke="#275623" stroke-width="3" stroke-linecap="round" stroke-linejoin="round" stroke-miterlimit="10" d="
				M257.9,67.3l13-18.3c1.1-1.6,0.7-3.8-0.8-4.9v0c-1.6-1.1-3.8-0.7-4.9,0.8l-13,18.3c-1.1,1.6-0.7,3.8,0.8,4.9v0
				C254.6,69.3,256.8,68.9,257.9,67.3z"/>
			<path fill="none" stroke="#275623" stroke-width="3" stroke-linecap="round" stroke-linejoin="round" stroke-miterlimit="10" d="
				M263.4,71.6l14.3-20.1c1.1-1.6,0.7-3.8-0.8-4.9v0c-1.6-1.1-3.8-0.7-4.9,0.8l-14.3,20.1c-1.1,1.6-0.7,3.8,0.8,4.9l0,0
				C260.1,73.5,262.3,73.2,263.4,71.6z"/>
			<path fill="none" stroke="#275623" stroke-width="3" stroke-linecap="round" stroke-linejoin="round" stroke-miterlimit="10" d="
				M269.5,75.1l13-18.3c1.1-1.6,0.7-3.8-0.8-4.9v0c-1.6-1.1-3.8-0.7-4.9,0.8l-13,18.3c-1.1,1.6-0.7,3.8,0.8,4.9l0,0
				C266.2,77,268.4,76.6,269.5,75.1z"/>
			<path fill="none" stroke="#275623" stroke-width="3" stroke-linecap="round" stroke-linejoin="round" stroke-miterlimit="10" d="
				M275.1,79.3l8-11.3c1.1-1.6,0.7-3.8-0.8-4.9l0,0c-1.6-1.1-3.8-0.7-4.9,0.8l-8,11.3c-1.1,1.6-0.7,3.8,0.8,4.9v0
				C271.8,81.2,274,80.8,275.1,79.3z"/>
			<path fill="none" stroke="#275623" stroke-width="3" stroke-linecap="round" stroke-linejoin="round" stroke-miterlimit="10" d="
				M247.7,69.7l6.6-9.3c1.2-1.8,0.8-4.2-0.9-5.5l-0.1-0.1c-1.8-1.2-4.2-0.8-5.5,0.9l-6.6,9.3c-1.2,1.8-0.8,4.2,0.9,5.5l0.1,0.1
				C244,71.8,246.4,71.4,247.7,69.7z"/>
			<path fill="none" stroke="#275623" stroke-width="3" stroke-linecap="round" stroke-linejoin="round" stroke-miterlimit="10" d="
				M273.8,80.4l-7.4,10.4c-5.2,7.3-15.3,9-22.6,3.8l0,0c-7.3-5.2-9-15.3-3.8-22.6l1.1-1.6"/>
			<path fill="none" stroke="#275623" stroke-width="3" stroke-linecap="round" stroke-linejoin="round" stroke-miterlimit="10" d="
				M250.5,76.4c0.7,3.3,0,6.9-2.1,9.9"/>
		</g>
		<polygon opacity="0.5" fill="#D87341" points="130.9,71.1 110.1,71.1 134.3,42.5 		"/>
		<polygon opacity="0.5" fill="#D87341" points="175,71.1 154.1,71.1 178.4,42.5 		"/>
		<polygon opacity="0.5" fill="#D87341" points="140.7,178.3 74.1,178.8 70,157.2 118.6,157.2 		"/>
		<polygon opacity="0.5" fill="#D87341" points="145.8,178.3 212.4,178.8 216.5,157.2 167.9,157.2 		"/>
		<path fill="#D87341" d="M185.7,41.5c0,0-6.3-21.4-43.5-21.4c-39.6,0-42.6,23.1-42.6,23.1c-8.1-26,17.7-41.7,43.1-41.7
			S189.7,17.3,185.7,41.5z"/>
		<path fill="none" stroke="#275623" stroke-width="3" stroke-miterlimit="10" d="M142.8,132.4L142.8,132.4c-23.6,0-43-16.7-43-37.1
			V48.9c0-20.4,19.3-28.8,43-28.8h0c23.6,0,43,8.4,43,28.8v46.5C185.7,115.8,166.4,132.4,142.8,132.4z"/>
		<path fill="none" stroke="#275623" stroke-width="3" stroke-miterlimit="10" d="M99.8,55.6l-2.3-15.8c0-27.1,20.2-38.3,44.8-38.3
			h0c24.6,0,44.8,11.2,44.8,38.3l-1.3,15.5"/>
		<g>
			
				<line fill="none" stroke="#275623" stroke-width="3" stroke-linecap="round" stroke-miterlimit="10" x1="128" y1="130.3" x2="128" y2="148.3"/>
			
				<line fill="none" stroke="#275623" stroke-width="3" stroke-linecap="round" stroke-miterlimit="10" x1="157" y1="130.3" x2="157" y2="148.3"/>
		</g>
		<path fill="none" stroke="#275623" stroke-width="3" stroke-miterlimit="10" d="M135.9,173.3l-20.4-19.1c-1.4-1.3-1.4-3.5-0.1-4.8
			l4.2-4.3c1.3-1.3,3.4-1.3,4.7-0.1l15.4,14.4c0.6,0.5,1,1.3,1.1,2.1l1,8.9C142.1,173.6,138.3,175.6,135.9,173.3z"/>
		<path fill="none" stroke="#275623" stroke-width="3" stroke-miterlimit="10" d="M149.7,173.3l20.4-19.1c1.4-1.3,1.4-3.5,0.1-4.8
			l-4.2-4.3c-1.3-1.3-3.4-1.3-4.7-0.1l-15.4,14.4c-0.6,0.5-1,1.3-1.1,2.1l-1,8.9C143.4,173.6,147.3,175.6,149.7,173.3z"/>
		<path fill="none" stroke="#275623" stroke-width="3" stroke-linecap="round" stroke-linejoin="round" stroke-miterlimit="10" d="
			M69.1,156h48.3"/>
		
			<line fill="none" stroke="#275623" stroke-width="3" stroke-linecap="round" stroke-linejoin="round" stroke-miterlimit="10" x1="237" y1="209.8" x2="48.5" y2="209.8"/>
		<path fill="none" stroke="#275623" stroke-width="3" stroke-linecap="round" stroke-linejoin="round" stroke-miterlimit="10" d="
			M168.3,156h48.2"/>
		
			<line fill="none" stroke="#275623" stroke-width="3" stroke-linecap="round" stroke-linejoin="round" stroke-miterlimit="10" x1="81.5" y1="209.8" x2="55.8" y2="101.2"/>
		
			<line fill="none" stroke="#275623" stroke-width="3" stroke-linecap="round" stroke-linejoin="round" stroke-miterlimit="10" x1="48.5" y1="209.8" x2="24.1" y2="107"/>
		
			<line fill="none" stroke="#275623" stroke-width="3" stroke-linecap="round" stroke-linejoin="round" stroke-miterlimit="10" x1="204" y1="209.8" x2="230.1" y2="101.2"/>
		
			<line fill="none" stroke="#275623" stroke-width="3" stroke-linecap="round" stroke-linejoin="round" stroke-miterlimit="10" x1="237" y1="209.8" x2="261.8" y2="107"/>
		
			<line fill="none" stroke="#275623" stroke-width="3" stroke-linecap="round" stroke-linejoin="round" stroke-miterlimit="10" x1="234.5" y1="102" x2="238" y2="87"/>
		
			<line fill="none" stroke="#275623" stroke-width="3" stroke-linecap="round" stroke-linejoin="round" stroke-miterlimit="10" x1="256.5" y1="106" x2="258.7" y2="96.6"/>
		<g>
			<path fill="none" stroke="#275623" stroke-width="3" stroke-linecap="round" stroke-linejoin="round" stroke-miterlimit="10" d="
				M27.4,67.3L14.4,49c-1.1-1.6-0.7-3.8,0.8-4.9l0,0c1.6-1.1,3.8-0.7,4.9,0.8l13,18.3c1.1,1.6,0.7,3.8-0.8,4.9l0,0
				C30.7,69.3,28.5,68.9,27.4,67.3z"/>
			<path fill="none" stroke="#275623" stroke-width="3" stroke-linecap="round" stroke-linejoin="round" stroke-miterlimit="10" d="
				M21.8,71.6L7.5,51.4c-1.1-1.6-0.7-3.8,0.8-4.9l0,0c1.6-1.1,3.8-0.7,4.9,0.8l14.3,20.1c1.1,1.6,0.7,3.8-0.8,4.9h0
				C25.1,73.5,23,73.2,21.8,71.6z"/>
			<path fill="none" stroke="#275623" stroke-width="3" stroke-linecap="round" stroke-linejoin="round" stroke-miterlimit="10" d="
				M15.7,75.1l-13-18.3C1.6,55.2,2,53,3.6,51.9l0,0c1.6-1.1,3.8-0.7,4.9,0.8l13,18.3c1.1,1.6,0.7,3.8-0.8,4.9h0
				C19.1,77,16.9,76.6,15.7,75.1z"/>
			<path fill="none" stroke="#275623" stroke-width="3" stroke-linecap="round" stroke-linejoin="round" stroke-miterlimit="10" d="
				M10.2,79.3L2.1,68C1,66.4,1.4,64.2,3,63.1l0,0c1.6-1.1,3.8-0.7,4.9,0.8l8,11.3c1.1,1.6,0.7,3.8-0.8,4.9l0,0
				C13.5,81.2,11.3,80.8,10.2,79.3z"/>
			<path fill="none" stroke="#275623" stroke-width="3" stroke-linecap="round" stroke-linejoin="round" stroke-miterlimit="10" d="
				M37.6,69.7L31,60.3c-1.2-1.8-0.8-4.2,0.9-5.5l0.1-0.1c1.8-1.2,4.2-0.8,5.5,0.9l6.6,9.3c1.2,1.8,0.8,4.2-0.9,5.5l-0.1,0.1
				C41.3,71.8,38.9,71.4,37.6,69.7z"/>
			<path fill="none" stroke="#275623" stroke-width="3" stroke-linecap="round" stroke-linejoin="round" stroke-miterlimit="10" d="
				M11.5,80.4l7.4,10.4c5.2,7.3,15.3,9,22.6,3.8l0,0c7.3-5.2,9-15.3,3.8-22.6l-1.1-1.6"/>
			<path fill="none" stroke="#275623" stroke-width="3" stroke-linecap="round" stroke-linejoin="round" stroke-miterlimit="10" d="
				M34.8,76.4c-0.7,3.3,0,6.9,2.1,9.9"/>
		</g>
		
			<line fill="none" stroke="#275623" stroke-width="3" stroke-linecap="round" stroke-linejoin="round" stroke-miterlimit="10" x1="50.8" y1="102" x2="47.3" y2="87"/>
		
			<line fill="none" stroke="#275623" stroke-width="3" stroke-linecap="round" stroke-linejoin="round" stroke-miterlimit="10" x1="28.8" y1="106" x2="26.6" y2="96.6"/>
		
			<line fill="none" stroke="#275623" stroke-width="3" stroke-linecap="round" stroke-linejoin="round" stroke-miterlimit="10" x1="143" y1="176.3" x2="143" y2="208.3"/>
		
			<line fill="none" stroke="#275623" stroke-width="3" stroke-linecap="round" stroke-linejoin="round" stroke-miterlimit="10" x1="74.5" y1="178.8" x2="210.5" y2="178.8"/>
		<path fill="none" stroke="#275623" stroke-width="3" stroke-linecap="round" stroke-linejoin="round" stroke-miterlimit="10" d="
			M98.9,71.1c-2.9-0.6-5.6-2.9-6.8-6.2c-1.7-4.7,0.3-9.8,4.4-11.2c1-0.4,2.1-0.5,3.1-0.4"/>
		<path fill="none" stroke="#275623" stroke-width="3" stroke-linecap="round" stroke-linejoin="round" stroke-miterlimit="10" d="
			M186.3,71.1c2.9-0.6,5.6-2.9,6.8-6.2c1.7-4.7-0.3-9.8-4.4-11.2c-1-0.4-1.9-0.3-3-0.1"/>
		<path fill="none" stroke="#275623" stroke-width="3" stroke-linecap="round" stroke-linejoin="round" stroke-miterlimit="10" d="
			M129.3,71.1h-18.4c-1.4,0-2.5-1-2.6-2.4l-2.2-24.3c-0.1-1.5,1.1-2.8,2.6-2.8h22.8c1.5,0,2.7,1.3,2.6,2.8l-2.2,24.3
			C131.7,70,130.6,71.1,129.3,71.1z"/>
		<path fill="none" stroke="#275623" stroke-width="3" stroke-linecap="round" stroke-linejoin="round" stroke-miterlimit="10" d="
			M155.2,71.1h18.4c1.4,0,2.5-1,2.6-2.4l2.2-24.3c0.1-1.5-1.1-2.8-2.6-2.8H153c-1.5,0-2.7,1.3-2.6,2.8l2.2,24.3
			C152.7,70,153.8,71.1,155.2,71.1z"/>
		
			<line fill="none" stroke="#275623" stroke-width="3" stroke-linecap="round" stroke-linejoin="round" stroke-miterlimit="10" x1="121.1" y1="37.1" x2="128.9" y2="32.6"/>
		
			<line fill="none" stroke="#275623" stroke-width="3" stroke-linecap="round" stroke-linejoin="round" stroke-miterlimit="10" x1="155.1" y1="32.6" x2="162.9" y2="37.1"/>
		
			<line fill="none" stroke="#275623" stroke-width="3" stroke-linecap="round" stroke-linejoin="round" stroke-miterlimit="10" x1="138.6" y1="68.5" x2="138" y2="71.1"/>
		
			<line fill="none" stroke="#275623" stroke-width="3" stroke-linecap="round" stroke-linejoin="round" stroke-miterlimit="10" x1="146" y1="68.5" x2="146.6" y2="71.1"/>
		<path fill="none" stroke="#275623" stroke-width="3" stroke-linecap="round" stroke-linejoin="round" stroke-miterlimit="10" d="
			M112.8,53.5c1.1-2.5,4-4.3,7.4-4.3c3.2,0,6,1.6,7.2,4"/>
		<circle fill="#275623" cx="120.4" cy="50.9" r="2.5"/>
		<path fill="none" stroke="#275623" stroke-width="3" stroke-linecap="round" stroke-linejoin="round" stroke-miterlimit="10" d="
			M156.8,53.5c1.1-2.5,4-4.3,7.4-4.3c3.2,0,6,1.6,7.2,4"/>
		<circle fill="#275623" cx="164.4" cy="50.9" r="2.5"/>
		<path fill="none" stroke="#275623" stroke-width="3" stroke-linecap="round" stroke-linejoin="round" stroke-miterlimit="10" d="
			M136.1,103.4c2-1.4,4.2-2.2,6.5-2.2c1.8,0,3.6,0.6,5.3,1.7"/>
		<path fill="none" stroke="#275623" stroke-width="3" stroke-linecap="round" stroke-linejoin="round" stroke-miterlimit="10" d="
			M157.1,87.8c3.8,2.7-0.2,8.8-4.1,6.3c0,0-0.1-0.1-0.1-0.1c-6.1-3.8-13.8-3.8-20.1-0.4c-0.8,0.4-1.5,0.8-2.2,1.2
			c-3.6,2.2-7.4-2.8-4.4-5.8c3.2-3.2,9.3-5.3,16.2-5.3C148.3,83.7,153.7,85.3,157.1,87.8z"/>
		
			<line fill="none" stroke="#275623" stroke-width="3" stroke-linecap="round" stroke-linejoin="round" stroke-miterlimit="10" x1="24.1" y1="107" x2="55.8" y2="101.2"/>
		
			<line fill="none" stroke="#275623" stroke-width="3" stroke-linecap="round" stroke-linejoin="round" stroke-miterlimit="10" x1="261.8" y1="107" x2="230.1" y2="101.2"/>
		<g>
			<path fill="none" stroke="#275623" stroke-width="3" stroke-linecap="round" stroke-linejoin="round" stroke-miterlimit="10" d="
				M62.5,40.4L62.5,40.4c-1.6,0.9-3.6,0.4-4.6-1.2L45.7,17.9c-0.9-1.6-0.4-3.6,1.2-4.6l0,0c1.6-0.9,3.6-0.4,4.6,1.2l12.3,21.3
				C64.7,37.4,64.1,39.5,62.5,40.4z"/>
			<path fill="none" stroke="#275623" stroke-width="3" stroke-linecap="round" stroke-linejoin="round" stroke-miterlimit="10" d="
				M79.1,43.3L79.1,43.3c-1.6,0.9-3.6,0.4-4.6-1.2l-6.5-11.2c-0.9-1.6-0.4-3.6,1.2-4.6l0,0c1.6-0.9,3.6-0.4,4.6,1.2l6.5,11.2
				C81.2,40.4,80.7,42.4,79.1,43.3z"/>
		</g>
		<g>
			<path fill="none" stroke="#275623" stroke-width="3" stroke-linecap="round" stroke-linejoin="round" stroke-miterlimit="10" d="
				M223.4,40.4L223.4,40.4c1.6,0.9,3.6,0.4,4.6-1.2l12.3-21.3c0.9-1.6,0.4-3.6-1.2-4.6v0c-1.6-0.9-3.6-0.4-4.6,1.2l-12.3,21.3
				C221.3,37.4,221.8,39.5,223.4,40.4z"/>
			<path fill="none" stroke="#275623" stroke-width="3" stroke-linecap="round" stroke-linejoin="round" stroke-miterlimit="10" d="
				M206.8,43.3L206.8,43.3c1.6,0.9,3.6,0.4,4.6-1.2l6.5-11.2c0.9-1.6,0.4-3.6-1.2-4.6v0c-1.6-0.9-3.6-0.4-4.6,1.2l-6.5,11.2
				C204.7,40.4,205.3,42.4,206.8,43.3z"/>
		</g>
	</g>
</g>
</svg>
