<?xml version="1.0" encoding="UTF-8" standalone="no"?><!DOCTYPE svg PUBLIC "-//W3C//DTD SVG 1.1//EN" "http://www.w3.org/Graphics/SVG/1.1/DTD/svg11.dtd"><svg width="100%" height="100%" viewBox="0 0 230 71" version="1.1" xmlns="http://www.w3.org/2000/svg" xmlns:xlink="http://www.w3.org/1999/xlink" xml:space="preserve" style="fill-rule:evenodd;clip-rule:evenodd;stroke-linecap:round;stroke-linejoin:round;stroke-miterlimit:10;"><g id="圖層_1"><rect x="58.8" y="14.4" width="111.8" height="48.8" style="fill:#d87341;fill-opacity:0.3;"/><g><path d="M178,11.6l0,54.4c0,1.8 -1.5,3.3 -3.3,3.3l-119.9,0c-1.8,0 -3.3,-1.5 -3.3,-3.3l0,-54.4c0,-1.8 1.5,-3.3 3.3,-3.3l119.9,0c1.8,0 3.3,1.5 3.3,3.3Z" style="fill:none;stroke:#275623;stroke-width:3px;"/><path d="M171.3,15.6l0,46.4c0,0.7 -0.5,1.2 -1.2,1.2l-111.3,0c-0.7,0 -1.2,-0.5 -1.2,-1.2l0,-46.4c0,-0.7 0.5,-1.2 1.2,-1.2l111.3,0c0.7,0 1.2,0.5 1.2,1.2Z" style="fill:none;stroke:#275623;stroke-width:2px;"/><path d="M116.7,54.7c0,1.3 -0.8,1.9 -1.6,1.9c-0.9,0 -1.7,-0.6 -1.7,-1.9l0,-1.4c0,-0.2 0,-0.2 -0.2,-0.3c-5.6,-0.6 -7.7,-3.9 -7.7,-5.1c0,-1.1 1,-2 2.1,-2c0.6,0 1.1,0.2 1.5,0.8c1.5,2.1 4,2.5 4.1,2.5c0.1,0 0.2,-0.1 0.2,-0.3c0,-2.8 0.1,-6.2 0.1,-9.7c0,-0.3 -0.3,-0.5 -2.2,-1.4c-3.2,-1.5 -4.7,-4.1 -4.7,-6.6c0,-3.2 2.4,-6.3 6.7,-6.9c0.2,0 0.2,-0.1 0.2,-0.3c0,-0.4 0,-0.9 0,-1.1c-0.1,-1 0.4,-2 1.7,-2c0.8,0 1.6,0.6 1.6,1.7l0,1.5c0,0.1 0.1,0.2 0.2,0.2c3.4,0.6 5.6,2.5 5.6,4c0,1 -0.9,2 -2,2c-0.5,0 -1.1,-0.3 -1.7,-0.9c-0.8,-0.9 -1.9,-1.4 -2.1,-1.4c-0.1,0 -0.1,0.1 -0.1,0.2c0,2.2 0,4.9 0,7.8c0,0.1 0.1,0.3 0.2,0.4c2.7,1.3 7.1,3.6 7.1,8.5c0,3.6 -2.8,7 -7.1,7.8c-0.1,0 -0.2,0.1 -0.2,0.3l0,1.7Zm-3.2,-26.5c0,-0.2 0,-0.2 -0.1,-0.2c0,0 -2.9,0.5 -2.9,3.2c0,1.4 1,2.7 2.9,3.7l0.1,0c0.1,0 0.1,0 0.1,-0.1l0,-6.6l-0.1,0Zm3.1,20.5c0,0.1 0,0.3 0.1,0.3c0.6,0 3.1,-1.3 3.1,-3.9c0,-1.5 -0.9,-3.2 -2.9,-4.3c-0.1,0 -0.2,-0.1 -0.2,-0.1c-0.1,0 -0.1,0.1 -0.1,0.3l0,7.7Z" style="fill:#275623;fill-rule:nonzero;"/></g><g class="infinite-rotate-left" id="left.-wing"><g><path d="M19.5,24.7c-1.1,0.8 -2.2,1.6 -3.2,2.4c-0.7,0.5 -1,1.3 -0.5,2.1c0.4,0.7 1.4,1 2.1,0.5c1.1,-0.8 2.2,-1.6 3.2,-2.4c0.7,-0.5 1,-1.3 0.5,-2.1c-0.4,-0.6 -1.4,-1 -2.1,-0.5Z" style="fill:#d87341;fill-opacity:0.5;fill-rule:nonzero;"/><path d="M26.7,30.5c-0.2,0.1 -0.4,0.3 -0.6,0.4c-0.7,0.5 -1,1.3 -0.5,2.1c0.4,0.7 1.4,1 2.1,0.5c0.2,-0.1 0.4,-0.3 0.6,-0.4c0.7,-0.5 1,-1.3 0.5,-2.1c-0.4,-0.7 -1.5,-1 -2.1,-0.5Z" style="fill:#d87341;fill-opacity:0.5;fill-rule:nonzero;"/><path d="M23.1,17.5c1.3,0.1 2.6,0.6 3.4,1.7l13.3,18.3c1.4,1.9 0.9,4.6 -1,6c-1.9,1.4 -4.6,1 -6,-0.9l-0.9,-1.2l-1.8,1.3c-1.9,1.4 -4.6,1 -6.1,-0.9c-1.4,-1.9 -1,-4.6 1,-6l-5.2,3.8c-1.9,1.4 -4.6,1 -6.1,-0.9c-1.4,-1.9 -1,-4.6 1,-6l-6.4,4.6c-1.9,1.4 -4.6,1 -6.1,-0.9c-1.4,-1.9 -1,-4.6 1,-6l16.2,-11.8c1.1,-0.8 2.4,-1.2 3.7,-1.1Z" style="fill:none;stroke:#275623;stroke-width:3px;"/><path d="M21.5,25.7c-1.1,0.8 -2.2,1.6 -3.2,2.4c-0.7,0.5 -1,1.3 -0.5,2.1c0.4,0.7 1.4,1 2.1,0.5c1.1,-0.8 2.2,-1.6 3.2,-2.4c0.7,-0.5 1,-1.3 0.5,-2.1c-0.4,-0.6 -1.4,-1 -2.1,-0.5Z" style="fill:#275623;fill-rule:nonzero;"/><path d="M28.7,31.5c-0.2,0.1 -0.4,0.3 -0.6,0.4c-0.7,0.5 -1,1.3 -0.5,2.1c0.4,0.7 1.4,1 2.1,0.5c0.2,-0.1 0.4,-0.3 0.6,-0.4c0.7,-0.5 1,-1.3 0.5,-2.1c-0.4,-0.7 -1.5,-1 -2.1,-0.5Z" style="fill:#275623;fill-rule:nonzero;"/></g><g><path d="M6.1,8.7c1.1,-2.3 3,-4.4 5.5,-5.7c2.3,-1.2 4.8,-1.7 7.2,-1.4" style="fill:none;stroke:#275623;stroke-width:3px;"/><path d="M12.3,10.9c0.6,-1.2 1.5,-2.2 2.8,-2.9c1.1,-0.6 2.4,-0.8 3.6,-0.7" style="fill:none;stroke:#275623;stroke-width:3px;"/></g></g><g class="infinite-rotate-right" id="right.-wing"><g><path d="M207.4,27.3c1.1,0.8 2.2,1.6 3.2,2.4c0.7,0.5 1.7,0.1 2.1,-0.5c0.4,-0.8 0.1,-1.6 -0.5,-2.1c-1.1,-0.8 -2.2,-1.6 -3.2,-2.4c-0.7,-0.5 -1.7,-0.1 -2.1,0.5c-0.4,0.8 -0.1,1.6 0.5,2.1Z" style="fill:#d87341;fill-opacity:0.5;fill-rule:nonzero;"/><path d="M200.3,33c0.2,0.1 0.4,0.3 0.6,0.4c0.7,0.5 1.7,0.1 2.1,-0.5c0.4,-0.8 0.1,-1.6 -0.5,-2.1c-0.2,-0.1 -0.4,-0.3 -0.6,-0.4c-0.7,-0.5 -1.7,-0.1 -2.1,0.5c-0.5,0.8 -0.2,1.7 0.5,2.1Z" style="fill:#d87341;fill-opacity:0.5;fill-rule:nonzero;"/><path d="M206,17.5c-1.3,0.1 -2.6,0.6 -3.4,1.7l-13.3,18.3c-1.4,1.9 -0.9,4.6 1,6c1.9,1.4 4.6,1 6,-0.9l0.9,-1.2l1.8,1.3c1.9,1.4 4.6,1 6.1,-0.9c1.4,-1.9 1,-4.6 -1,-6l5.2,3.8c1.9,1.4 4.6,1 6.1,-0.9c1.4,-1.9 1,-4.6 -1,-6l6.4,4.6c1.9,1.4 4.6,1 6.1,-0.9c1.4,-1.9 1,-4.6 -1,-6l-16.2,-11.8c-1.1,-0.8 -2.4,-1.2 -3.7,-1.1Z" style="fill:none;stroke:#275623;stroke-width:3px;"/><path d="M206,28.3c1.1,0.8 2.2,1.6 3.2,2.4c0.7,0.5 1.7,0.1 2.1,-0.5c0.4,-0.8 0.1,-1.6 -0.5,-2.1c-1.1,-0.8 -2.2,-1.6 -3.2,-2.4c-0.7,-0.5 -1.7,-0.1 -2.1,0.5c-0.4,0.8 -0.1,1.6 0.5,2.1Z" style="fill:#275623;fill-rule:nonzero;"/><path d="M198.9,34c0.2,0.1 0.4,0.3 0.6,0.4c0.7,0.5 1.7,0.1 2.1,-0.5c0.4,-0.8 0.1,-1.6 -0.5,-2.1c-0.2,-0.1 -0.4,-0.3 -0.6,-0.4c-0.7,-0.5 -1.7,-0.1 -2.1,0.5c-0.5,0.8 -0.2,1.7 0.5,2.1Z" style="fill:#275623;fill-rule:nonzero;"/></g><g><path d="M222.9,8.7c-1.1,-2.3 -3,-4.4 -5.5,-5.7c-2.3,-1.2 -4.8,-1.7 -7.2,-1.4" style="fill:none;stroke:#275623;stroke-width:3px;"/><path d="M216.8,10.9c-0.6,-1.2 -1.5,-2.2 -2.8,-2.9c-1.1,-0.6 -2.4,-0.8 -3.6,-0.7" style="fill:none;stroke:#275623;stroke-width:3px;"/></g></g></g></svg>