<?xml version="1.0" encoding="UTF-8" standalone="no"?>
<svg width="24px" height="19px" viewBox="0 0 24 19" version="1.1" xmlns="http://www.w3.org/2000/svg" xmlns:xlink="http://www.w3.org/1999/xlink">
    <!-- Generator: Sketch 43.1 (39012) - http://www.bohemiancoding.com/sketch -->
    <title>Page 1</title>
    <desc>Created with Sketch.</desc>
    <defs>
        <polygon id="path-1" points="23.711 0.404384293 23.711 11.9998 0.000237833454 11.9998 0.000237833454 0.404384293 23.711 0.404384293"></polygon>
        <polygon id="path-3" points="0.000237833454 0.405 23.711 0.405 23.711 11.9998 0.000237833454 11.9998 0.000237833454 0.405"></polygon>
    </defs>
    <g id="Welcome" stroke="none" stroke-width="1" fill="none" fill-rule="evenodd">
        <g id="Mobile-opening" transform="translate(-148.000000, -552.000000)">
            <g id="Page-1" transform="translate(148.000000, 551.000000)">
                <g id="Group-3" transform="translate(0.000000, 7.595200)">
                    <mask id="mask-2" fill="white">
                        <use xlink:href="#path-1"></use>
                    </mask>
                    <g id="Clip-2"></g>
                    <path d="M21.1953,0.8008 L12.9763,8.3658 C12.9443,8.3958 12.9153,8.4258 12.8853,8.4568 C12.5023,8.8758 12.0303,8.9418 11.7023,8.9278 C11.4373,8.9418 10.9523,8.8768 10.5663,8.4568 C10.5383,8.4258 10.5073,8.3968 10.4763,8.3688 L2.5153,1.0418 C1.9073,0.4808 0.9583,0.5248 0.3963,1.1338 C-0.1647,1.7438 -0.1247,2.7008 0.4843,3.2618 L8.4033,10.5708 C9.2443,11.4598 10.4283,11.9998 11.6293,11.9998 L11.7023,11.9998 C12.9733,11.9998 14.1933,11.4788 15.0503,10.5698 L23.2263,3.0078 C23.8363,2.4468 23.8763,1.4978 23.3143,0.8888 C22.7543,0.2788 21.8043,0.2398 21.1953,0.8008" id="Fill-1" fill="#D87341" mask="url(#mask-2)"></path>
                </g>
                <g id="Group-6" transform="translate(0.000000, 0.595200)">
                    <mask id="mask-4" fill="white">
                        <use xlink:href="#path-3"></use>
                    </mask>
                    <g id="Clip-5"></g>
                    <path d="M21.1953,0.8008 L12.9763,8.3658 C12.9443,8.3958 12.9153,8.4258 12.8853,8.4568 C12.5023,8.8758 12.0303,8.9418 11.7023,8.9278 C11.4373,8.9418 10.9523,8.8768 10.5663,8.4568 C10.5383,8.4258 10.5073,8.3968 10.4763,8.3688 L2.5153,1.0418 C1.9073,0.4808 0.9583,0.5248 0.3963,1.1338 C-0.1647,1.7438 -0.1247,2.7008 0.4843,3.2618 L8.4033,10.5708 C9.2443,11.4598 10.4283,11.9998 11.6293,11.9998 L11.7023,11.9998 C12.9733,11.9998 14.1933,11.4788 15.0503,10.5698 L23.2263,3.0078 C23.8363,2.4468 23.8763,1.4978 23.3143,0.8888 C22.7543,0.2788 21.8043,0.2398 21.1953,0.8008" id="Fill-4" fill="#D87341" mask="url(#mask-4)"></path>
                </g>
            </g>
        </g>
    </g>
</svg>